<svg xmlns="http://www.w3.org/2000/svg" viewBox="0 0 445 570" width="32" height="32"><path d="m100.8 24.7c0.7 0.3 1.6 0.2 1.9-0.1 0.4-0.3-0.2-0.6-1.3-0.5-1.1 0-1.4 0.3-0.6 0.6zm-18.4 104.8c0 12.1 0.2 16.9 0.3 10.7 0.2-6.2 0.2-16.1 0-22-0.1-5.9-0.3-0.8-0.3 11.3zm55.7 114.1c0 1.1 0.3 1.4 0.6 0.6 0.3-0.7 0.2-1.6-0.1-1.9-0.3-0.4-0.6 0.2-0.5 1.3zm0 4c0 1.1 0.3 1.4 0.6 0.6 0.3-0.7 0.2-1.6-0.1-1.9-0.3-0.4-0.6 0.2-0.5 1.3zm0.3 12.9c0 6 0.1 8.4 0.3 5.2 0.2-3.2 0.2-8.1 0-11-0.2-2.9-0.3-0.3-0.3 5.8zm154.1 3.5c1 1.1 2 2 2.3 2 0.3 0-0.3-0.9-1.3-2-1-1.1-2-2-2.3-2-0.3 0 0.3 0.9 1.3 2zm45 19c1 1.1 2 2 2.3 2 0.3 0-0.3-0.9-1.3-2-1-1.1-2-2-2.3-2-0.3 0 0.3 0.9 1.3 2zm8 8c2.1 2.2 4.1 4 4.4 4 0.3 0-1.3-1.8-3.4-4-2.1-2.2-4.1-4-4.4-4-0.3 0 1.3 1.8 3.4 4zm-52.5 1.5c-2.4 2.5-4.2 4.5-3.9 4.5 0.3 0 2.5-2 4.9-4.5 2.4-2.5 4.2-4.5 3.9-4.5-0.3 0-2.5 2-4.9 4.5zm-154.6 24c0 9.9 0.2 13.8 0.3 8.7 0.2-5.1 0.2-13.2 0-18-0.1-4.8-0.3-0.6-0.3 9.3zm-0.1 80.5c0 2.5 0.2 3.5 0.4 2.2 0.2-1.2 0.2-3.2 0-4.5-0.2-1.2-0.4-0.2-0.4 2.3zm158 8.7c1.5 0.2 3.9 0.2 5.5 0 1.5-0.2 0.2-0.4-2.8-0.4-3 0-4.3 0.2-2.7 0.4zm21.5 0c0.6 0.2 1.8 0.2 2.5 0 0.6-0.3 0.1-0.5-1.3-0.5-1.4 0-1.9 0.2-1.2 0.5zm-179.5 5.8c0 3.3 0.2 4.5 0.4 2.7 0.2-1.8 0.2-4.5 0-6-0.2-1.5-0.4 0-0.4 3.3zm-0.1 9c0 1.6 0.2 2.2 0.5 1.2 0.2-0.9 0.2-2.3 0-3-0.3-0.6-0.5 0.1-0.5 1.8zm166 27.2c9.2 0.2 24.5 0.2 34 0 9.5-0.1 2-0.3-16.7-0.3-18.7 0-26.5 0.2-17.3 0.3zm-165.9 19.8c0 2.7 0.2 3.8 0.4 2.2 0.2-1.5 0.2-3.7 0-5-0.2-1.2-0.4 0-0.4 2.8zm-0.1 9c0 1.6 0.2 2.2 0.5 1.2 0.2-0.9 0.2-2.3 0-3-0.3-0.6-0.5 0.1-0.5 1.8zm-93.7 42.5c1 1.1 2 2 2.3 2 0.3 0-0.3-0.9-1.3-2-1-1.1-2-2-2.3-2-0.3 0 0.3 0.9 1.3 2z" fill="rgb(170, 170, 170)"/><path d="m139.3 24.7c2 0.2 5.4 0.2 7.5 0 2-0.2 0.3-0.4-3.8-0.4-4.1 0-5.8 0.2-3.7 0.4zm16 0c0.9 0.2 2.3 0.2 3 0 0.6-0.3-0.1-0.5-1.8-0.5-1.6 0-2.2 0.2-1.2 0.5zm7 0c0.9 0.2 2.3 0.2 3 0 0.6-0.3-0.1-0.5-1.8-0.5-1.6 0-2.2 0.2-1.2 0.5zm6.5 0c1.2 0.2 3.2 0.2 4.5 0 1.2-0.2 0.2-0.4-2.3-0.4-2.5 0-3.5 0.2-2.2 0.4zm19 0c6.8 0.2 17.6 0.2 24 0 6.4-0.1 0.9-0.3-12.3-0.3-13.2 0-18.5 0.2-11.7 0.3zm46 0c5.7 0.2 14.7 0.2 20 0 5.3-0.1 0.7-0.3-10.3-0.3-11 0-15.4 0.2-9.7 0.3zm32.5 0c0.9 0.2 2.3 0.2 3 0 0.6-0.3-0.1-0.5-1.8-0.5-1.6 0-2.2 0.2-1.2 0.5zm8.5 0c2.3 0.2 6.1 0.2 8.5 0 2.3-0.2 0.4-0.4-4.3-0.4-4.7 0-6.6 0.2-4.2 0.4zm15.5 0c0.9 0.2 2.5 0.2 3.5 0 0.9-0.3 0.1-0.5-1.8-0.5-1.9 0-2.7 0.2-1.7 0.5zm8 0c0.9 0.2 2.3 0.2 3 0 0.6-0.3-0.1-0.5-1.8-0.5-1.6 0-2.2 0.2-1.2 0.5zm9.5 0c1.7 0.2 4.7 0.2 6.5 0 1.7-0.2 0.3-0.4-3.3-0.4-3.6 0-5 0.2-3.2 0.4zm-220.5 55c0.9 0.2 2.3 0.2 3 0 0.6-0.3-0.1-0.5-1.8-0.5-1.6 0-2.2 0.2-1.2 0.5zm9.5 21c1.2 0.2 3.2 0.2 4.5 0 1.2-0.2 0.2-0.4-2.3-0.4-2.5 0-3.5 0.2-2.2 0.4zm8.5 0c0.9 0.2 2.5 0.2 3.5 0 0.9-0.3 0.1-0.5-1.8-0.5-1.9 0-2.7 0.2-1.7 0.5zm10 0c0.9 0.2 2.3 0.2 3 0 0.6-0.3-0.1-0.5-1.8-0.5-1.6 0-2.2 0.2-1.2 0.5zm6.5 0c1.2 0.2 3 0.2 4 0 0.9-0.3-0.1-0.5-2.3-0.4-2.2 0-3 0.2-1.7 0.4zm8.5 0c0.9 0.2 2.5 0.2 3.5 0 0.9-0.3 0.1-0.5-1.8-0.5-1.9 0-2.7 0.2-1.7 0.5zm9.5 0c2.3 0.2 5.9 0.2 8 0 2-0.2 0.1-0.4-4.3-0.4-4.4 0-6.1 0.2-3.7 0.4zm18 0c3.4 0.2 8.8 0.2 12 0 3.1-0.2 0.3-0.3-6.3-0.3-6.6 0-9.2 0.1-5.7 0.3zm24 0c3.4 0.2 8.8 0.2 12 0 3.1-0.2 0.3-0.3-6.3-0.3-6.6 0-9.2 0.1-5.7 0.3zm21.5 0c0.9 0.2 2.3 0.2 3 0 0.6-0.3-0.1-0.5-1.8-0.5-1.6 0-2.2 0.2-1.2 0.5zm7 0c0.9 0.2 2.5 0.2 3.5 0 0.9-0.3 0.1-0.5-1.8-0.5-1.9 0-2.7 0.2-1.7 0.5zm12 0c3.1 0.2 8.3 0.2 11.5 0 3.1-0.2 0.5-0.3-5.8-0.3-6.3 0-8.9 0.1-5.7 0.3zm21.5 0c2.3 0.2 5.9 0.2 8 0 2-0.2 0.1-0.4-4.3-0.4-4.4 0-6.1 0.2-3.7 0.4zm14 0c1.2 0.2 3 0.2 4 0 0.9-0.3-0.1-0.5-2.3-0.4-2.2 0-3 0.2-1.7 0.4zm10 0c2.3 0.2 5.9 0.2 8 0 2-0.2 0.1-0.4-4.3-0.4-4.4 0-6.1 0.2-3.7 0.4zm16 0c2.3 0.2 5.9 0.2 8 0 2-0.2 0.1-0.4-4.3-0.4-4.4 0-6.1 0.2-3.7 0.4zm16 0c2.3 0.2 5.9 0.2 8 0 2-0.2 0.1-0.4-4.3-0.4-4.4 0-6.1 0.2-3.7 0.4zm16 0c2.3 0.2 5.9 0.2 8 0 2-0.2 0.1-0.4-4.3-0.4-4.4 0-6.1 0.2-3.7 0.4zm15.5 0c0.9 0.2 2.3 0.2 3 0 0.6-0.3-0.1-0.5-1.8-0.5-1.6 0-2.2 0.2-1.2 0.5zm9.5 0c2.3 0.2 6.1 0.2 8.5 0 2.3-0.2 0.4-0.4-4.3-0.4-4.7 0-6.6 0.2-4.2 0.4zm102.7 63.8c0 32.4 0.1 45.6 0.2 29.2 0.2-16.4 0.2-43 0-59-0.1-16.1-0.2-2.7-0.2 29.8zm-381.3-48.5c0 1.9 0.2 2.7 0.5 1.7 0.2-0.9 0.2-2.5 0-3.5-0.3-0.9-0.5-0.1-0.5 1.8zm-0.1 5.6c0 1.1 0.3 1.4 0.6 0.6 0.3-0.7 0.2-1.6-0.1-1.9-0.3-0.4-0.6 0.2-0.5 1.3zm0.2 26.4c0 2.5 0.2 3.5 0.4 2.2 0.2-1.2 0.2-3.2 0-4.5-0.2-1.2-0.4-0.2-0.4 2.3zm34 11.7c0.9 0.2 2.5 0.2 3.5 0 0.9-0.3 0.1-0.5-1.8-0.5-1.9 0-2.7 0.2-1.7 0.5zm18 0c7.1 0.2 18.3 0.2 25 0 6.7-0.1 1-0.3-12.8-0.3-13.7 0-19.2 0.2-12.2 0.3zm87.5 0c27.7 0.2 72.7 0.2 100 0 27.3-0.1 4.7-0.2-50.3-0.2-55 0-77.4 0.1-49.7 0.2zm-129.9 12.6c0.6 0.8 0.7 1.8 0.3 2.2-0.4 0.5-0.1 0.5 0.6 0.1 1-0.6 1-1.1 0.1-2.2-0.6-0.8-1.4-1.4-1.6-1.4-0.3 0 0 0.6 0.6 1.3zm83.3 10.4c34.6 0.2 91 0.2 125.5 0 34.6-0.1 6.3-0.2-62.7-0.2-69 0-97.3 0.1-62.8 0.2zm190.6 0c1.2 0.2 3 0.2 4 0 0.9-0.3-0.1-0.5-2.3-0.4-2.2 0-3 0.2-1.7 0.4zm97.6 60.8c0 11 0.2 15.6 0.3 10.3 0.2-5.3 0.2-14.3 0-20-0.1-5.7-0.3-1.3-0.3 9.7zm-148.4-4.2c0 0.2 0.6 1 1.4 1.6 1.1 0.9 1.6 0.9 2.2-0.1 0.4-0.7 0.4-1-0.1-0.6-0.4 0.4-1.4 0.3-2.2-0.3-0.7-0.6-1.3-0.9-1.3-0.6zm-17.8 4.7c0 1.4 0.2 1.9 0.5 1.2 0.2-0.6 0.2-1.8 0-2.5-0.3-0.6-0.5-0.1-0.5 1.3zm2.7 9.3c0.6 0.6 1.8 1.2 2.7 1.3 1.2 0.2 1.4 0 0.5-0.9-0.6-0.6-1.8-1.2-2.7-1.3-1.2-0.2-1.4 0-0.5 0.9zm67 14.4c-1.3 1.6-1.2 1.7 0.4 0.4 0.9-0.7 1.7-1.5 1.7-1.7 0-0.8-0.8-0.3-2.1 1.3zm-7 5l-3.4 3.8 3.8-3.4c3.4-3.3 4.2-4.1 3.4-4.1-0.2 0-1.9 1.7-3.8 3.7zm103.5 17.3c0 11.8 0.2 16.7 0.3 10.7 0.2-5.9 0.2-15.5 0-21.5-0.1-5.9-0.3-1-0.3 10.8zm-324.3-17.4c0 1.1 0.3 1.4 0.6 0.6 0.3-0.7 0.2-1.6-0.1-1.9-0.3-0.4-0.6 0.2-0.5 1.3zm-44.5 7.2c-0.3 0.5 0.1 0.9 0.9 0.9 0.8 0 1.2-0.4 0.9-0.9-0.3-0.4-0.7-0.8-0.9-0.8-0.2 0-0.6 0.4-0.9 0.8zm99.2 15.9c1.2 0.2 3 0.2 4 0 0.9-0.3-0.1-0.5-2.3-0.4-2.2 0-3 0.2-1.7 0.4zm181.8 4.2c-0.4 0.5-0.2 1.2 0.3 1.5 0.5 0.4 1.2 0.2 1.5-0.3 0.4-0.5 0.2-1.2-0.3-1.5-0.5-0.4-1.2-0.2-1.5 0.3zm-29.6 0.5c0 0.2 0.8 1 1.8 1.7 1.5 1.3 1.6 1.2 0.3-0.4-1.3-1.6-2.1-2.1-2.1-1.3zm-44.4 1.4c-0.3 0.5 0.1 0.9 0.9 0.9 0.8 0 1.2-0.4 0.9-0.9-0.3-0.4-0.7-0.8-0.9-0.8-0.2 0-0.6 0.4-0.9 0.8zm19.8 9.5c-2.4 2.5-2.7 3.1-0.8 1.4 1.7-1.5 3.3-2.5 3.6-2.2 0.3 0.3 1.1-0.1 1.7-0.9 0.7-0.8 0.8-1.7 0.3-2-0.5-0.3-2.6 1.4-4.8 3.7zm37.1 1.7c1 1.1 2 2 2.3 2 0.3 0-0.3-0.9-1.3-2-1-1.1-2-2-2.3-2-0.3 0 0.3 0.9 1.3 2zm104.9 10.5c0 6.6 0.1 9.2 0.3 5.7 0.2-3.4 0.2-8.8 0-12-0.2-3.1-0.3-0.3-0.3 6.3zm-0.1 23.5c0 2.5 0.2 3.5 0.4 2.2 0.2-1.2 0.2-3.2 0-4.5-0.2-1.2-0.4-0.2-0.4 2.3zm0.1 28.5c0 13.2 0.2 18.5 0.3 11.7 0.2-6.8 0.2-17.6 0-24-0.1-6.4-0.3-0.9-0.3 12.3zm0 52c0 15.4 0.2 21.6 0.3 13.7 0.2-7.9 0.2-20.5 0-28-0.1-7.5-0.3-1.1-0.3 14.3zm-324.1-7c0 3.3 0.2 4.5 0.4 2.7 0.2-1.8 0.2-4.5 0-6-0.2-1.5-0.4 0-0.4 3.3zm-27 7.2c3.1 0.2 8.3 0.2 11.5 0 3.1-0.2 0.5-0.3-5.8-0.3-6.3 0-8.9 0.1-5.7 0.3zm22 0c0.9 0.2 2.5 0.2 3.5 0 0.9-0.3 0.1-0.5-1.8-0.5-1.9 0-2.7 0.2-1.7 0.5zm38 0c1.5 0.2 3.7 0.2 5 0 1.2-0.2 0-0.4-2.8-0.4-2.7 0-3.8 0.2-2.2 0.4zm10.5 0c1.8 0.2 4.5 0.2 6 0 1.5-0.2 0-0.4-3.3-0.4-3.3 0-4.5 0.2-2.7 0.4zm280.5 31.8c0 2.2 0.2 3 0.4 1.7 0.2-1.2 0.2-3 0-4-0.3-0.9-0.5 0.1-0.4 2.3zm-324.2-0.9c0 1.1 0.3 1.4 0.6 0.6 0.3-0.7 0.2-1.6-0.1-1.9-0.3-0.4-0.6 0.2-0.5 1.3zm324 9c0 1.1 0.3 1.4 0.6 0.6 0.3-0.7 0.2-1.6-0.1-1.9-0.3-0.4-0.6 0.2-0.5 1.3zm-31.5 71.2c-0.3 0.5 0.1 0.9 0.9 0.9 0.8 0 1.2-0.4 0.9-0.9-0.3-0.4-0.7-0.8-0.9-0.8-0.2 0-0.6 0.4-0.9 0.8zm-266.8 6.9c1.2 0.2 3 0.2 4 0 0.9-0.3-0.1-0.5-2.3-0.4-2.2 0-3 0.2-1.7 0.4zm31 0c2.8 0.2 7.6 0.2 10.5 0 2.8-0.2 0.5-0.3-5.3-0.3-5.8 0-8.1 0.1-5.2 0.3zm20.5 0c0.9 0.2 2.5 0.2 3.5 0 0.9-0.3 0.1-0.5-1.8-0.5-1.9 0-2.7 0.2-1.7 0.5zm13 0c1.5 0.2 3.7 0.2 5 0 1.2-0.2 0-0.4-2.8-0.4-2.7 0-3.8 0.2-2.2 0.4zm16 0c1.5 0.2 3.9 0.2 5.5 0 1.5-0.2 0.2-0.4-2.8-0.4-3 0-4.3 0.2-2.7 0.4zm22.5 0c1.2 0.2 3.2 0.2 4.5 0 1.2-0.2 0.2-0.4-2.3-0.4-2.5 0-3.5 0.2-2.2 0.4zm9 0c1.2 0.2 3.2 0.2 4.5 0 1.2-0.2 0.2-0.4-2.3-0.4-2.5 0-3.5 0.2-2.2 0.4zm15.5 0c0.9 0.2 2.5 0.2 3.5 0 0.9-0.3 0.1-0.5-1.8-0.5-1.9 0-2.7 0.2-1.7 0.5zm25 0c1.5 0.2 3.9 0.2 5.5 0 1.5-0.2 0.2-0.4-2.8-0.4-3 0-4.3 0.2-2.7 0.4zm15.5 0c1.2 0.2 3 0.2 4 0 0.9-0.3-0.1-0.5-2.3-0.4-2.2 0-3 0.2-1.7 0.4z" fill="rgb(85, 85, 85)"/><path d="m90.5 0.7c-21.9 2.7-41.7 12.1-58 27.5-14.4 13.7-24.3 29.6-29.7 48.3l-2.3 8-0.3 195c-0.3 213.3-0.5 204.1 5.4 220.8 11.6 32.2 39.1 57.3 73.4 66.8l8.5 2.4 129 0.3c142.6 0.3 139 0.4 157.5-6 32.3-11.3 57.9-38.3 66.8-70.5 4.3-15.3 4.3-17.5 4-215.3l-0.3-189.5-2.3-8.5c-9.6-35.7-34.9-63.6-67.7-74.5-16.5-5.6-14.3-5.5-153-5.3-70.4 0-129.3 0.3-131 0.5zm266.7 1.8c41.7 7.3 72.7 36.3 83.5 78l2.8 11v192c0 206.4 0.2 196.2-5.2 213-5.3 16.2-12.4 27.9-24.8 40.6-16.9 17.2-38.2 27.6-63.8 30.9-5.6 0.8-48.6 1-134.2 0.8l-126-0.3-9.7-2.7c-19.9-5.5-36.2-15.2-50.2-29.9-13.2-13.9-21.8-29.5-26.2-47.9-1.7-7.1-1.9-18.2-2.2-199-0.2-133.9 0.1-194.1 0.8-200 1.4-11.1 6.4-25.7 12.6-36.5 9.3-16.5 29.1-34.6 45.9-42 7.3-3.3 21.1-7.3 29-8.4 3.3-0.5 62.9-0.9 132.5-1 109.3-0.1 127.7 0.1 135.2 1.4z"/><path d="m88 26.5c-28 5.8-50 25-60.1 52.5-6.2 17-6 10-5.7 209.8 0.4 200.9-0.1 187 6.7 204.7 7.1 18.4 23.6 35.7 42.4 44.5 10 4.7 17.5 6.7 29.8 8 13.1 1.4 228 1.3 240.7-0.1 39-4.2 68.4-29.2 75.7-64.4 1.3-6.5 1.5-30.7 1.5-196.7 0-183.6-0.1-189.5-1.9-197.4-2.7-10.9-5.4-17.4-10.5-25.3-10.9-16.7-25-27.5-45.1-34.2l-7-2.4-130-0.2c-105.2-0.1-131.2 0.1-136.5 1.2zm270.5 1.8c8.9 2.7 23.2 10 29.7 15.1 11.8 9.4 20.9 22.9 26.4 39.6l2.9 8.5 0.3 188c0.2 131.3 0 190.5-0.8 196.3-4.5 34.2-30.6 60.4-67.5 67.9-8.4 1.6-17.1 1.8-129 1.7-119.1 0-120.1 0-129.7-2.2-18.1-4-31.6-11.8-45.4-26.4-11.4-12.1-18.1-26.6-20.4-43.9-0.8-5.9-1-63.3-0.8-193.9l0.3-185.5 2.3-7.3c9.6-31 31.9-52.1 61.8-58.6 5.9-1.3 24.8-1.4 135.4-1.2 119.9 0.2 128.9 0.3 134.5 1.9z"/><path d="m85.9 80c-10.2 1.2-16.6 5.5-21.5 14.2l-2.9 5.3v29.5c0 28.4 0.1 29.7 2.2 34.3 2.8 5.8 9.6 12.7 16 15.8l4.8 2.4h275l4.3-2.3c6.7-3.6 11.9-8.8 15.2-15.4l3-6.1v-27.2c0-30.4-0.5-33.2-6.6-40.4-5-5.8-10.8-8.9-18.9-10.1-8.3-1.1-260.4-1.2-270.6 0zm278.6 3.6c5.7 2.6 11.1 8.1 14.2 14.3 1.6 3.2 1.8 6.6 1.8 31.6v28l-2.8 5.7c-3 6.2-8.3 11.5-14.9 15l-4.3 2.3-134 0.3-134 0.3-6.8-2.2c-8.2-2.6-14.7-8.5-18.6-16.9-2.6-5.5-2.6-5.5-2.6-33v-27.5l2.8-5.7c3-6.2 8.3-11 14.4-13.3 3.2-1.1 26-1.4 141.6-1.4l137.8-0.1z"/><path d="m89.1 101c-1.1 0.3-3 1.3-4.1 2.2-1.9 1.7-2 2.9-2 26.9v25.1l2.9 2.9 2.9 2.9h265.4l2.9-2.9 2.9-2.9v-24.9c0-24.7 0-25-2.3-27.1l-2.3-2.2-132.1-0.2c-72.7-0.2-133.1-0.1-134.2 0.2zm266.7 2.6c2.2 1.5 2.2 1.8 2.2 26.9v25.4l-2.7 2-2.6 2.1-131.8-0.2-131.8-0.3-2.3-2.3c-2.2-2.2-2.3-2.8-2.6-26-0.3-23-0.2-23.9 1.8-26.5l2.1-2.7h132.8c118.4 0 132.9 0.2 134.9 1.6zm-231.6 130.4c-4.4 1.9-5.4 6.8-5 25.2l0.3 16.8h-19.2c-11.7 0-20.1 0.4-21.6 1.1-3.2 1.5-5.7 6-5.7 10.4 0 2.8 0.7 4.4 3.1 6.6l3.1 2.9h40.3l-0.3 17.2c-0.4 19.8 0 23.1 3.3 26.4 3.7 3.6 10.7 3.4 14.6-0.5l2.9-2.9v-40.2h41.2l2.9-2.9c2.4-2.4 2.9-3.8 2.9-7.6 0-3.8-0.5-5.2-2.9-7.6l-2.9-2.9h-41.2v-18.4c0-17.8-0.1-18.6-2.3-21.1-2.5-3-9.4-4.2-13.5-2.5zm9.9 1.5c1.6 0.9 3.4 2.7 3.9 4.1 0.6 1.4 1 10.6 1 20.4v17.9h42.5l2.4 2.7c1.9 2.2 2.2 3.5 1.8 6.7-0.3 2.2-1.5 4.9-2.7 6.1-2 2-3 2.1-22.8 2.1h-20.7l-0.5 20.8-0.5 20.9-3 2.5c-2.4 1.9-3.8 2.3-7 1.9-7.2-0.9-7.5-1.9-7.5-25.2v-20.3l-21.1-0.3-21.1-0.3-2.4-2.8c-1.3-1.5-2.4-3.9-2.4-5.3 0-3.3 2.5-8 4.7-8.8 1-0.4 10.9-0.7 22.1-0.7h20.2v-19.2c0-20.1 0.2-21.2 4.5-23.5 2.8-1.6 5.1-1.5 8.6 0.3zm148.3-0.6c-3.4 1.5-6.4 6.1-6.4 9.7 0 3.8 5.6 10.8 20.3 25.3l8.6 8.4-13.5 14c-7.5 7.7-14 15.1-14.5 16.4-1.7 4.4-1 8.1 2 11.5 2.6 2.9 3.5 3.3 8.1 3.3h5.2l14.2-14.8 14.2-14.8 14.1 14.5c11.6 11.9 14.7 14.6 17.7 15.1 6.9 1.3 13.6-4 13.6-10.8 0-3-2.8-6.4-19.9-23.9l-9.5-9.8 4.4-4.7c2.5-2.7 8.9-9.3 14.2-14.8 10.1-10.6 11.8-13.7 9.8-18.4-1.8-4.5-4.5-6.3-10-6.9l-5.1-0.5-14.7 14.7-14.7 14.6-14.1-14.1c-12.6-12.6-14.5-14.1-18-14.5-2.1-0.2-4.9 0-6 0.5zm9.7 2.4c2 1.2 9.2 8 16 15l12.2 12.8 14.9-14.8c14.6-14.6 14.9-14.8 19.2-14.8 3.3 0 5.1 0.6 6.9 2.3 5.3 5 4.3 9.4-3.8 17.2-2.6 2.5-8.7 8.9-13.7 14.2l-9 9.8 14.6 15.1c13.3 13.9 14.6 15.5 14.6 18.8 0 2-0.7 4.6-1.5 5.8-2.1 3-7.5 4.6-11 3.3-1.5-0.6-8.8-7.3-16.2-15-7.4-7.7-14-14-14.6-14-0.7 0-7.6 6.6-15.3 14.7-14 14.5-14.3 14.8-18.3 14.7-7.4-0.2-11.5-6.2-8.7-12.9 0.8-1.9 7.6-9.7 15-17.2l13.4-13.8-14.2-14.5c-15.5-15.7-17.3-18.7-14.1-23.6 1.5-2.3 6.5-5.3 9-5.4 0.6 0 2.6 1 4.6 2.3zm-165.2 146.4c-1.5 0.2-3.7 1.5-5 2.9-2.3 2.5-2.4 2.9-2.3 20.9v18.4l-20.8 0.3c-19.7 0.3-20.9 0.4-22.9 2.5-1.4 1.4-2.3 3.8-2.6 7-0.5 4.2-0.2 5.4 2 7.9l2.5 2.9 20.9 0.5 20.8 0.5-0.3 18.1c-0.2 10.4 0.1 19.2 0.7 20.7 1.3 3.2 5.8 5.7 10.6 5.7 2.7 0 4.4-0.8 6.6-2.9l2.9-2.9v-39.2h41.8l2.6-3.1c3.8-4.5 3.6-10.5-0.5-14.5l-3-2.9-20.5-0.3-20.4-0.3v-17.7c0-14.5-0.3-18.2-1.6-20-1.5-2.2-6.6-5.3-8.1-5.1-0.4 0.1-2 0.4-3.4 0.6zm9.5 4.4c2.6 3 2.6 3.2 2.6 21v17.9h18.3c10 0 19.8 0.5 21.8 1 7.1 2 9.2 9.9 4 15.1l-2.9 2.9h-41.1l-0.3 20c-0.3 19.2-0.4 20-2.6 22.2-2.9 3-10 3.2-13.1 0.4-2-1.8-2.1-2.8-2.1-22.3v-20.3h-20.4c-20.2 0-20.5 0-23.3-2.4-2.3-2-2.8-3.2-2.8-7 0-8.4 3.3-9.4 30.3-9.5l16.2-0.1v-18.7c0-17.8 0.1-18.8 2.2-21 3.4-3.6 9.8-3.2 13.2 0.8zm143.5 18.8c-4.1 4.1-4.1 9.8 0 14.3l2.9 3.3 37.7 0.3c42.1 0.3 41.3 0.4 44.2-6.5 1.8-4.4 1-7.9-2.5-11.6l-2.6-2.7h-76.8zm81.5 0.6c3.6 3.3 3.6 9.1 0 13.5l-2.6 3.1-37.5-0.3-37.5-0.3-3-3.4c-2.5-2.8-2.9-3.9-2.4-7 0.3-2.1 1.6-4.5 3.1-5.9 2.6-2.2 2.7-2.2 39.9-2.2h37.3zm-80.7 40.5c-3 2.4-5.1 8-4.2 11.2 0.4 1.3 1.9 3.5 3.3 5l2.6 2.8h38.7c37.4 0 38.7-0.1 41.2-2 5-4 4.4-12.7-1.1-17-2.4-1.9-4.2-2-40.2-2-36.3 0-37.8 0.1-40.3 2zm81 2.2c3.6 3.6 3.8 9.7 0.5 13-2.2 2.3-2.4 2.3-39 2.6-20.2 0.2-37.6 0.1-38.7-0.2-4-1-6.5-4.4-6.5-9 0-4.2 2.2-7.5 6-8.9 0.8-0.3 18-0.5 38.2-0.4l36.8 0.2z"/><path d="m105.8 24.7c1.8 0.2 4.5 0.2 6 0 1.5-0.2 0-0.4-3.3-0.4-3.3 0-4.5 0.2-2.7 0.4zm11 0c0.7 0.3 1.6 0.2 1.9-0.1 0.4-0.3-0.2-0.6-1.3-0.5-1.1 0-1.4 0.3-0.6 0.6zm218 0c1.8 0.2 4.5 0.2 6 0 1.5-0.2 0-0.4-3.3-0.4-3.3 0-4.5 0.2-2.7 0.4zm108.4 76.3c0 1.4 0.2 1.9 0.5 1.2 0.2-0.6 0.2-1.8 0-2.5-0.3-0.6-0.5-0.1-0.5 1.3zm-331.4-0.3c0.7 0.3 1.6 0.2 1.9-0.1 0.4-0.3-0.2-0.6-1.3-0.5-1.1 0-1.4 0.3-0.6 0.6zm-49.7 23.9c0 1.1 0.3 1.4 0.6 0.6 0.3-0.7 0.2-1.6-0.1-1.9-0.3-0.4-0.6 0.2-0.5 1.3zm0.1 7.4c0 1.4 0.2 1.9 0.5 1.2 0.2-0.6 0.2-1.8 0-2.5-0.3-0.6-0.5-0.1-0.5 1.3zm0 8.5c0 1.6 0.2 2.2 0.5 1.2 0.2-0.9 0.2-2.3 0-3-0.3-0.6-0.5 0.1-0.5 1.8zm21.1 155.2c0.9 0.2 2.3 0.2 3 0 0.6-0.3-0.1-0.5-1.8-0.5-1.6 0-2.2 0.2-1.2 0.5zm14 0c4.3 0.2 11 0.2 15 0 4-0.1 0.5-0.3-7.8-0.3-8.2 0-11.5 0.2-7.2 0.3zm50.5 0c4.5 0.2 11.9 0.2 16.5 0 4.5-0.1 0.8-0.3-8.3-0.3-9.1 0-12.8 0.2-8.2 0.3zm138.1 4l-2.4 2.8 2.8-2.4c1.5-1.4 2.7-2.6 2.7-2.8 0-0.8-0.8-0.1-3.1 2.4zm59.1 17.7c0 0.2 0.8 1 1.8 1.7 1.5 1.3 1.6 1.2 0.3-0.4-1.3-1.6-2.1-2.1-2.1-1.3zm98.1 147.2c0 1.1 0.3 1.4 0.6 0.6 0.3-0.7 0.2-1.6-0.1-1.9-0.3-0.4-0.6 0.2-0.5 1.3z" fill="rgb(128, 128, 128)"/><path d="m101.3 1.7c2.6 0.2 6.8 0.2 9.5 0 2.6-0.2 0.4-0.3-4.8-0.3-5.2 0-7.4 0.1-4.7 0.3zm29.5 0c8.4 0.2 21.9 0.2 30 0 8.1-0.1 1.2-0.3-15.3-0.3-16.5 0-23.1 0.2-14.7 0.3zm51.5 0c0.9 0.2 2.3 0.2 3 0 0.6-0.3-0.1-0.5-1.8-0.5-1.6 0-2.2 0.2-1.2 0.5zm8 0c0.9 0.2 2.5 0.2 3.5 0 0.9-0.3 0.1-0.5-1.8-0.5-1.9 0-2.7 0.2-1.7 0.5zm12.5 0c3.9 0.2 10.5 0.2 14.5 0 3.9-0.1 0.7-0.3-7.3-0.3-8 0-11.2 0.2-7.2 0.3zm34.4 0c3.7 0.2 10 0.2 14 0 4-0.1 1-0.3-6.7-0.3-7.7 0-11 0.1-7.3 0.3zm31.1 0c4.2 0.2 11.2 0.2 15.5 0 4.2-0.1 0.7-0.3-7.8-0.3-8.5 0-12 0.2-7.7 0.3zm31.5 0c4.6 0.2 11.8 0.2 16 0 4.2-0.1 0.5-0.3-8.3-0.3-8.8 0-12.3 0.2-7.7 0.3zm25.5 0c0.9 0.2 2.5 0.2 3.5 0 0.9-0.3 0.1-0.5-1.8-0.5-1.9 0-2.7 0.2-1.7 0.5zm11.5 0c1.2 0.2 3 0.2 4 0 0.9-0.3-0.1-0.5-2.3-0.4-2.2 0-3 0.2-1.7 0.4zm7 0c0.6 0.2 1.8 0.2 2.5 0 0.6-0.3 0.1-0.5-1.3-0.5-1.4 0-1.9 0.2-1.2 0.5zm51.2 45.7c0 0.2 0.8 1 1.8 1.7 1.5 1.3 1.6 1.2 0.3-0.4-1.3-1.6-2.1-2.1-2.1-1.3zm-393.9 50.2c0 1.1 0.3 1.4 0.6 0.6 0.3-0.7 0.2-1.6-0.1-1.9-0.3-0.4-0.6 0.2-0.5 1.3zm326.8 160.1c-1.3 1.6-1.2 1.7 0.4 0.4 1.6-1.3 2.1-2.1 1.3-2.1-0.2 0-1 0.8-1.7 1.7zm-31.9 9.7c0 0.2 0.8 1 1.8 1.7 1.5 1.3 1.6 1.2 0.3-0.4-1.3-1.6-2.1-2.1-2.1-1.3zm-157.9 5.2c0 1.1 0.3 1.4 0.6 0.6 0.3-0.7 0.2-1.6-0.1-1.9-0.3-0.4-0.6 0.2-0.5 1.3zm160.8 14.1c-1.3 1.6-1.2 1.7 0.4 0.4 0.9-0.7 1.7-1.5 1.7-1.7 0-0.8-0.8-0.3-2.1 1.3zm-6 33c-1.3 1.6-1.2 1.7 0.4 0.4 0.9-0.7 1.7-1.5 1.7-1.7 0-0.8-0.8-0.3-2.1 1.3zm-5.1 86c1.2 0.2 3 0.2 4 0 0.9-0.3-0.1-0.5-2.3-0.4-2.2 0-3 0.2-1.7 0.4zm23.5 0c0.9 0.2 2.3 0.2 3 0 0.6-0.3-0.1-0.5-1.8-0.5-1.6 0-2.2 0.2-1.2 0.5zm11 0c0.9 0.2 2.5 0.2 3.5 0 0.9-0.3 0.1-0.5-1.8-0.5-1.9 0-2.7 0.2-1.7 0.5zm7 0c0.9 0.2 2.3 0.2 3 0 0.6-0.3-0.1-0.5-1.8-0.5-1.6 0-2.2 0.2-1.2 0.5zm8.5 0c1.2 0.2 3 0.2 4 0 0.9-0.3-0.1-0.5-2.3-0.4-2.2 0-3 0.2-1.7 0.4zm7.5 0c0.9 0.2 2.3 0.2 3 0 0.6-0.3-0.1-0.5-1.8-0.5-1.6 0-2.2 0.2-1.2 0.5zm7 0c0.9 0.2 2.3 0.2 3 0 0.6-0.3-0.1-0.5-1.8-0.5-1.6 0-2.2 0.2-1.2 0.5zm-214.2 18.9c0 1.1 0.3 1.4 0.6 0.6 0.3-0.7 0.2-1.6-0.1-1.9-0.3-0.4-0.6 0.2-0.5 1.3zm164.2-0.9c8.7 0.2 22.7 0.2 31 0 8.4-0.1 1.3-0.3-15.8-0.3-17 0-23.9 0.2-15.2 0.3zm50 0c0.9 0.2 2.5 0.2 3.5 0 0.9-0.3 0.1-0.5-1.8-0.5-1.9 0-2.7 0.2-1.7 0.5zm-167.1 13.3c0 1.4 0.2 1.9 0.5 1.2 0.2-0.6 0.2-1.8 0-2.5-0.3-0.6-0.5-0.1-0.5 1.3zm-46.9 14.5c0 2.2 0.2 3 0.4 1.7 0.2-1.2 0.2-3 0-4-0.3-0.9-0.5 0.1-0.4 2.3zm0 8c0 2.2 0.2 3 0.4 1.7 0.2-1.2 0.2-3 0-4-0.3-0.9-0.5 0.1-0.4 2.3zm-137.1 8.5c0 1.4 0.2 1.9 0.5 1.2 0.2-0.6 0.2-1.8 0-2.5-0.3-0.6-0.5-0.1-0.5 1.3zm136.9 12.6c0 1.1 0.3 1.4 0.6 0.6 0.3-0.7 0.2-1.6-0.1-1.9-0.3-0.4-0.6 0.2-0.5 1.3z" fill="rgb(212, 212, 212)"/><path d="m83.7 3.5c-8.2 1.7-16.8 4.6-25.1 8.5-28.3 13.4-50 41.8-55.7 73.1-1.2 6.1-1.4 41.1-1.4 199.4 0 178.6 0.1 192.6 1.7 200.5 6.4 31.2 27.2 58.2 55.9 72.6 8.8 4.4 15.4 6.7 26.1 9.1 7.8 1.7 15.9 1.8 135.8 1.8h127.5l10.1-2.2c11.9-2.7 21.5-6.1 30.4-11 28.5-15.5 48-43.3 53-75.3 0.8-5.5 1-57.6 0.8-200l-0.3-192.5-2.8-9.5c-10.6-36.3-35.3-61.5-71.2-72.7l-9-2.8-134.5-0.2c-110.5-0.1-135.7 0.1-141.3 1.2zm265.6 21.6c18.6 2.8 33.6 10.2 46.7 23 6.1 6 14.2 18 17.3 25.7 6.1 14.9 5.8 2.2 5.5 214.7l-0.3 194-2.2 6.2c-3.7 10.5-6.9 16.7-12.3 23.9-12 15.8-26.9 25.5-49 31.8-7.5 2.1-7.8 2.1-133 2.1-119.6 0-125.9-0.1-133.5-1.9-8.9-2.1-22-7.8-28.9-12.5-7.7-5.3-21.1-19.4-25.4-26.7-5.4-9.2-9.9-22.8-11.2-34.4-0.8-6.6-1-65.9-0.8-193.5l0.3-184 3.8-10.9c2.1-6.1 5.1-13.4 6.8-16.3 13-22.6 34.7-37.5 60.4-41.2 9.2-1.3 247-1.3 255.8 0z" fill="rgb(255, 255, 255)"/><path d="m81.2 82.5c-5.6 1.7-12.7 7.6-15.5 12.8-2.1 4.1-2.2 5.1-2.2 33.7v29.5l3 5.4c3.9 7.1 10.5 12.7 17.4 14.9 5.2 1.6 15.3 1.7 138.6 1.7 128.9 0 133.2-0.1 138-1.9 6.5-2.6 14.7-10.3 17.6-16.9 2.3-5 2.4-6 2.4-32.2 0-23-0.2-27.5-1.7-30.6-1.9-4.4-8.5-11.9-10.3-11.9-0.7 0-1.5-0.7-1.8-1.4-0.3-0.8-3-2.2-5.8-3-4.7-1.4-21-1.6-140.3-1.5-109.8 0-135.9 0.3-139.4 1.4zm275.9 19.6l2.9 2v51.6l-2.5 2.7-2.4 2.6h-267.2l-2.4-2.4c-3.2-3.2-3.7-7.6-3.3-32.4l0.3-21.4 2.8-2.4 2.8-2.4h133.1c132.8 0 133 0 135.9 2.1zm-233.2 134.8c-2.4 1.9-2.4 2.3-2.7 21.5l-0.3 19.6h-19.7c-13.8 0-20.4 0.4-22.2 1.3-3.1 1.6-5.1 7.2-3.8 10.6 1.8 4.8 2.9 5 25.1 5.1h20.7v20c0 12.8 0.4 20.8 1.1 22.4 1.3 2.8 6.6 5 9.5 4 2.7-1 5.4-3.5 4.8-4.5-0.3-0.5 0-0.9 0.5-0.9 0.8 0 1.1-6.7 1.1-20.5v-20.5h21.5c20.8 0 21.5-0.1 23.5-2.2 3.1-3.3 2.8-10-0.6-12.7-2.5-2-3.9-2.1-23.5-2.1h-20.9v-38.9l-2.6-2c-3.3-2.6-8.4-2.7-11.5-0.2zm158.1 0.8c-3.4 2.3-4 3.3-4 7.2 0 3 1.3 4.8 10.3 14 5.6 5.8 12.2 12.7 14.6 15.3l4.4 4.7-13.4 13.6c-7.4 7.5-13.9 14.6-14.6 15.8-3.5 6.2 0.7 13.7 7.6 13.7 3.3 0 4.8-1.2 18.6-15l15-15 15.1 15c13 13 15.4 15 18.1 15 4.4 0 7.9-1.8 9.2-4.7 2.6-5.6 1.8-6.8-14.1-22.9l-15.2-15.4 12.1-12.3c18.2-18.4 18.3-18.5 18.3-22.1-0.1-5.1-2.9-7.8-9-8.4l-5.2-0.5-14.7 14.9-14.6 14.9-12.5-12.9c-6.9-7-13.8-13.7-15.5-14.7-3.7-2.3-7.3-2.4-10.5-0.2zm-158 149.2c-2.5 2-2.5 2-2.8 21.5l-0.3 19.5-20.9 0.3c-18.8 0.3-21 0.5-22.9 2.2-3.2 2.9-2.9 9.5 0.5 12.7 2.5 2.4 2.9 2.4 23 2.7l20.4 0.3v19.3c0 21.5 0.3 22.7 6.6 24.5 2.6 0.7 8.6-0.6 9.6-2.1 0.1-0.2 0.4-9.7 0.7-21.1l0.6-20.9 20 0.1c18.4 0.1 20.3 0 23.3-1.9 2.9-1.8 3.2-2.4 3.2-6.9 0-4.2-0.4-5.3-2.6-7-2.5-2-3.9-2.1-23.5-2.1h-20.9v-18.9c0-16.5-0.2-19.1-1.8-21.1-2.5-3.1-8.9-3.7-12.2-1.1zm157.3 21.3c-1.1 1.3-2.3 3.1-2.6 4.1-0.9 2.4 1.6 8.3 4.1 9.6 2.2 1.2 73.7 1.6 76.7 0.5 2-0.8 4.5-5.6 4.5-8.7 0-1.3-0.9-3.6-2.1-5.1l-2-2.6h-76.6zm-0.3 41.8c-4.1 4.1-3.8 10.8 0.7 13.7 2.4 1.6 6.3 1.8 37.3 2.1 19 0.2 36 0 37.8-0.3 7.3-1.4 9.9-9.6 4.6-14.9l-2.7-2.6h-37.8c-36.4 0-38 0.1-39.9 2z" fill="rgb(255, 255, 255)"/><path d="m168.8 545.7c0.7 0.3 1.6 0.2 1.9-0.1 0.4-0.3-0.2-0.6-1.3-0.5-1.1 0-1.4 0.3-0.6 0.6z" fill="rgb(85, 85, 0)"/></svg>