<svg xmlns="http://www.w3.org/2000/svg" viewBox="0 0 552 491" width="32" height="32"><path d="m512.9 12.8c-25.4 20.6-121.3 96.7-146.3 115.9-30.6 23.6-44.3 33.7-47.4 35-7.6 3.2-13.7 0.2-30.1-14.8-6.8-6.3-16.3-15-21.1-19.4-4.8-4.4-19.3-17.7-32.1-29.5-43.5-40.1-46.8-42.7-55.5-44.5-2.9-0.5-2.9-0.5-0.4 0.6 13.2 5.7 10 3 88.5 75.4 33.6 31 33.9 31.3 40.3 33.1 7.2 2.1 10.9 1.1 20.2-5.7 10.2-7.3 57.2-43.9 105.3-81.9 21.8-17.3 41.4-32.9 43.6-34.5 6.5-5.1 33.1-26.6 42.4-34.2 4.8-4 9-7.3 9.3-7.3 0.8 0 5.6 4.1 14.3 12.2 7.2 6.7 7.3 6.9 5.6 8.8-1.8 2-20.6 17.5-62.5 51.6-11.3 9.1-25.2 20.5-31 25.3-12.7 10.5-56.8 46-89.5 72.1-25.6 20.4-29.9 23.4-37.9 26.1-2.8 1-4.3 1.8-3.4 1.8 3.4 0.2 11.8-3.8 18.5-8.6 7.9-5.7 93-73.8 110.9-88.7 6.7-5.6 23.5-19.3 37.4-30.6 13.9-11.3 27.2-22.1 29.5-24 2.3-1.9 9.9-8.1 16.8-13.8 6.9-5.7 12.8-11 13.2-11.9 0.4-1.1-0.7-3-3.2-5.6-6-6.2-17.2-15.7-18.6-15.7-0.6 0-8.2 5.8-16.8 12.8zm-354 43.6c-3.1 1.2-7.2 3.3-9.2 4.5-4 2.5-149.9 149.3-149.1 150.1 0.3 0.2 8.5-7.6 18.2-17.5 9.7-9.9 43.1-43.6 74.2-74.8 63.2-63.6 61.3-62 76.5-63.6l8-0.8-6.5-0.1c-4.7-0.1-8.1 0.5-12.1 2.2zm-12.4 50.8c-11.6 11.7-35.7 36.4-53.5 54.8-39.2 40.6-69.3 71-70.1 71-0.3 0-5.5-4.7-11.5-10.4-6-5.7-11.1-10.2-11.3-10-0.7 0.7 21.4 21.3 22.9 21.4 0.9 0 8.1-6.6 16-14.8 25.7-26.2 51.2-52.3 66.5-68.2 44.5-46.1 62.8-64 65.4-64 4 0.1 5.8 1.5 21.8 16.6 26 24.6 77 72 88.3 82 13.4 11.9 19.4 14.5 33.4 14.2l9.1-0.1-10.5-0.7c-17.5-1.2-16.5-0.6-49.5-30.9-19-17.5-26.6-24.5-51-47.7-33.7-31.9-36.8-34.4-42-34.4-2.5 0-6 3.1-24 21.2zm251 92.9c-5.6 3-7.5 4.8-9.6 9.4-1.7 3.7-1.9 7.9-1.9 63.2v59.3h-65v-16.8c0-16.4-0.1-17-2.7-22.3-2.1-4-4-6.1-7.7-8.4l-4.9-3-48-0.3c-53.3-0.3-54.5-0.2-60.4 6.1-6.8 7.1-6.8 7.2-7.1 39.9l-0.3 29.8h-45.8c-48.9 0-49 0-55.4 5-1.5 1.2-3.6 3.9-4.7 6.1-1.9 3.7-2 6.1-2 63.4v59.5h435v-137.1c0-99.9-0.3-138.2-1.1-141-1.6-5.2-6.1-10.3-11.2-12.8-4.2-2-5.7-2.1-53.8-2.1-48.4 0-49.5 0-53.4 2.1zm105.3 0.5c2 0.8 5.2 2.9 7 4.7 6.5 6.3 6.2-1 6.2 148.9v135.8h-433l0.2-59.9 0.3-59.9 3.1-3.9c1.7-2.1 4.8-4.8 7-6 3.9-2.3 4.1-2.3 51.2-2.3h47.2v-30.1c0-33.7 0.1-34 7-40.3 2.1-1.9 5.6-3.9 7.7-4.5 2.4-0.7 20.4-1.1 49.8-1.1h46l5 2.4c10.7 5 12.5 9.7 12.5 32.2v16.4h67v-59c0-51.1 0.2-59.6 1.5-62.8 2.1-4.9 5.2-8.1 10-10.3 3.7-1.7 7.5-1.9 52.3-1.9 41.4 0 48.8 0.2 52 1.6z"/><path d="m413 342.5v118.5h75v-237h-75zm73.3-116.3c-0.2 0.5-0.3 53.2-0.3 117.3v116.5h-72v-116.8c0-64.3 0.3-117.1 0.6-117.5 0.9-0.9 72-0.4 71.7 0.5zm-268.3 157.3v77.5h75v-155h-75zm74 0v76.5h-73v-153h73zm28 27.2v50.3h67l-0.2-50.1-0.3-50.1-33.2-0.1-33.3-0.2zm66 0.3v49h-65v-98h65zm-276.1-28.3c-0.1 0.5-0.2 18.2-0.3 39.5l-0.1 38.8h82.5l-0.2-39.3-0.3-39.2-40.7-0.3c-22.5-0.1-40.9 0.1-40.9 0.5zm80.1 39.3v38h-79v-76h79z"/><path d="m496 28.2c-29.4 23.7-50 40.1-69.9 55.8-3.2 2.5-11.8 9.2-19.1 15-30.1 23.7-48.9 38.5-56.7 44.3-4.5 3.4-7.9 6.5-7.6 7 0.2 0.4 0 0.6-0.5 0.5-0.6-0.2-4.8 2.5-9.3 5.8-10.4 7.6-13.9 9.4-18.2 9.4-6.8 0-11.9-2.8-22.4-12.3-29-26.3-41.5-37.8-48.3-44.3-12.8-12.2-49.1-44.8-52.8-47.3-6.3-4.3-12.6-6.1-21-6.1-6.5 0-8.7 0.5-14.2 3-6.9 3.3-8.8 5.1-124.3 121.6l-30.7 31.1 10 9.9c5.5 5.4 10.8 10 11.8 10.2 1.1 0.2 6.3-4.5 14.6-13 7.1-7.3 21.3-21.9 31.5-32.3 10.2-10.5 24.9-25.5 32.6-33.5 34.6-35.8 64.4-65.9 66.4-67 5.2-2.7 9.2 0.4 43.6 33 55.7 52.9 77.4 72.4 84.5 76 6.3 3.2 16.6 4.6 24.9 3.3 10.1-1.6 17.9-5.7 31.3-16.4 6.4-5.2 19.9-15.9 29.9-23.9 17.9-14.1 56.7-45.5 79.9-64.5 13.4-10.9 37.4-30.5 54.4-44.3 16.3-13.3 30.8-25.3 32.9-27.2 1.6-1.6 1.4-2-4.1-7.1-10.1-9.4-15.2-13.9-15.4-13.8-0.2 0-15.4 12.2-33.8 27.1zm-97.6 173.2c-5.7 2.6-8.6 6.1-10.3 12.1-0.7 2.7-1.1 22.7-1.1 62.2v58.2h-34l-34 0.1v-18.3c0-17-0.2-18.6-2.2-22.7-1.7-3.4-3.6-5.2-7.4-7.2l-5.1-2.8h-48c-53.7-0.1-53.7-0.1-59.2 6.9-4.6 5.8-5.1 9.3-5.1 39.8v28.2l-47.2 0.3-47.3 0.3-4.2 2.4c-2.4 1.4-5.5 4.2-7 6.4l-2.8 4-0.2 59.4-0.3 59.3h432v-137.3c-0.1-145.6 0-141.7-4.7-146.9-1-1.1-3.6-3-5.8-4.2-3.9-2.1-5.1-2.1-52.5-2.4l-48.5-0.2zm89.6 141.6v119h-75.5v-238h75.5zm-194.7 40.8l-0.2 77.7-38 0.3-38.1 0.2v-77.8c0-42.8 0.2-78.1 0.4-78.3 0.2-0.2 17.5-0.3 38.3-0.1l37.8 0.2zm93.7 27.2v51l-33.7-0.2-33.8-0.3-0.3-50.8-0.2-50.7h68zm-195 11v40h-83v-80h83z" fill="rgb(255, 255, 255)"/><path d="m548 17.4c0 0.2 0.8 1 1.8 1.7 1.5 1.3 1.6 1.2 0.3-0.4-1.3-1.6-2.1-2.1-2.1-1.3zm-426.6 114.8l-2.9 3.3 3.3-2.9c1.7-1.7 3.2-3.1 3.2-3.3 0-0.8-0.8-0.1-3.6 2.9zm-78 36l-1.9 2.3 2.3-1.9c2.1-1.8 2.7-2.6 1.9-2.6-0.2 0-1.2 1-2.3 2.2zm-6.5 6.5l-2.4 2.8 2.8-2.4c1.5-1.4 2.7-2.6 2.7-2.8 0-0.8-0.8-0.1-3.1 2.4zm242.1 7.7c0 0.2 0.8 1 1.8 1.7 1.5 1.3 1.6 1.2 0.3-0.4-1.3-1.6-2.1-2.1-2.1-1.3zm-225.4 19.5c-0.4 0.5-0.2 1.2 0.3 1.5 0.5 0.4 1.2 0.2 1.5-0.3 0.4-0.5 0.2-1.2-0.3-1.5-0.5-0.4-1.2-0.2-1.5 0.3zm461.9 65.6c0 24.2 0.1 34 0.2 21.7 0.2-12.3 0.2-32.1 0-44-0.1-11.9-0.2-1.9-0.2 22.3zm-0.3 48.5c0 1.4 0.2 1.9 0.5 1.2 0.2-0.6 0.2-1.8 0-2.5-0.3-0.6-0.5-0.1-0.5 1.3zm0.1 7c0 2.5 0.2 3.5 0.4 2.2 0.2-1.2 0.2-3.2 0-4.5-0.2-1.2-0.4-0.2-0.4 2.3zm0 16c0 2.5 0.2 3.5 0.4 2.2 0.2-1.2 0.2-3.2 0-4.5-0.2-1.2-0.4-0.2-0.4 2.3zm-0.2 14.6c0 1.1 0.3 1.4 0.6 0.6 0.3-0.7 0.2-1.6-0.1-1.9-0.3-0.4-0.6 0.2-0.5 1.3zm0 4c0 1.1 0.3 1.4 0.6 0.6 0.3-0.7 0.2-1.6-0.1-1.9-0.3-0.4-0.6 0.2-0.5 1.3zm-175.8 3.1c8.1 0.2 21.3 0.2 29.5 0 8.1-0.1 1.4-0.3-14.8-0.3-16.2 0-22.9 0.2-14.7 0.3zm176 2.8c0 2.2 0.2 3 0.4 1.7 0.2-1.2 0.2-3 0-4-0.3-0.9-0.5 0.1-0.4 2.3zm-0.1 8.5c0 1.4 0.2 1.9 0.5 1.2 0.2-0.6 0.2-1.8 0-2.5-0.3-0.6-0.5-0.1-0.5 1.3zm0 6.5c0 1.6 0.2 2.2 0.5 1.2 0.2-0.9 0.2-2.3 0-3-0.3-0.6-0.5 0.1-0.5 1.8zm0 16.5c0 1.4 0.2 1.9 0.5 1.2 0.2-0.6 0.2-1.8 0-2.5-0.3-0.6-0.5-0.1-0.5 1.3zm-406 13c0 1.4 0.2 1.9 0.5 1.2 0.2-0.6 0.2-1.8 0-2.5-0.3-0.6-0.5-0.1-0.5 1.3zm0.2 28.5c0 12.6 0.2 17.7 0.3 11.2 0.2-6.5 0.2-16.8 0-23-0.1-6.2-0.3-0.9-0.3 11.8zm405.9-17c0 2.2 0.2 3 0.4 1.7 0.2-1.2 0.2-3 0-4-0.3-0.9-0.5 0.1-0.4 2.3zm0 12c0 4.4 0.2 6.1 0.4 3.7 0.2-2.3 0.2-5.9 0-8-0.2-2-0.4-0.1-0.4 4.3zm-0.1 10.5c0 1.4 0.2 1.9 0.5 1.2 0.2-0.6 0.2-1.8 0-2.5-0.3-0.6-0.5-0.1-0.5 1.3zm0.1 9.5c0 2.2 0.2 3 0.4 1.7 0.2-1.2 0.2-3 0-4-0.3-0.9-0.5 0.1-0.4 2.3zm-0.1 8.5c0 1.9 0.2 2.7 0.5 1.7 0.2-0.9 0.2-2.5 0-3.5-0.3-0.9-0.5-0.1-0.5 1.8zm0 8.5c0 1.6 0.2 2.2 0.5 1.2 0.2-0.9 0.2-2.3 0-3-0.3-0.6-0.5 0.1-0.5 1.8zm0.1 7c0 2.2 0.2 3 0.4 1.7 0.2-1.2 0.2-3 0-4-0.3-0.9-0.5 0.1-0.4 2.3z" fill="rgb(85, 85, 85)"/><path d="m170.3 55.7c0.9 0.2 2.3 0.2 3 0 0.6-0.3-0.1-0.5-1.8-0.5-1.6 0-2.2 0.2-1.2 0.5zm-0.5 30c0.6 0.2 1.8 0.2 2.5 0 0.6-0.3 0.1-0.5-1.3-0.5-1.4 0-1.9 0.2-1.2 0.5zm75.2 24.7c0 0.2 0.8 1 1.8 1.7 1.5 1.3 1.6 1.2 0.3-0.4-1.3-1.6-2.1-2.1-2.1-1.3zm-3.5 37.6c1 1.1 2 2 2.3 2 0.3 0-0.3-0.9-1.3-2-1-1.1-2-2-2.3-2-0.3 0 0.3 0.9 1.3 2zm-186.6 8.7l-2.4 2.8 2.8-2.4c1.5-1.4 2.7-2.6 2.7-2.8 0-0.8-0.8-0.1-3.1 2.4zm-46.9 62.8c1.3 1.4 2.6 2.5 2.8 2.5 0.3 0-0.5-1.1-1.8-2.5-1.3-1.4-2.6-2.5-2.8-2.5-0.3 0 0.5 1.1 1.8 2.5zm232.8 63.2c0.6 0.2 1.8 0.2 2.5 0 0.6-0.3 0.1-0.5-1.3-0.5-1.4 0-1.9 0.2-1.2 0.5zm7 0c1.2 0.2 3.2 0.2 4.5 0 1.2-0.2 0.2-0.4-2.3-0.4-2.5 0-3.5 0.2-2.2 0.4zm11 0c2.3 0.2 5.9 0.2 8 0 2-0.2 0.1-0.4-4.3-0.4-4.4 0-6.1 0.2-3.7 0.4zm15 0c0.7 0.3 1.6 0.2 1.9-0.1 0.4-0.3-0.2-0.6-1.3-0.5-1.1 0-1.4 0.3-0.6 0.6zm7.9 0c1.8 0.2 5 0.2 7 0 2.1-0.2 0.7-0.4-3.2-0.4-3.8 0-5.5 0.2-3.8 0.4zm15.6 0c0.9 0.2 2.3 0.2 3 0 0.6-0.3-0.1-0.5-1.8-0.5-1.6 0-2.2 0.2-1.2 0.5zm22.1 33.8c0 9.3 0.2 13.3 0.3 8.8 0.2-4.5 0.2-12.2 0-17-0.1-4.8-0.3-1.2-0.3 8.2zm-101.9 68c0 42.3 0.1 59.5 0.2 38.2 0.2-21.4 0.2-56 0-77-0.1-21-0.2-3.6-0.2 38.8zm102 25.5c0 27.8 0.1 39.1 0.2 25.2 0.2-13.8 0.2-36.6 0-50.5-0.1-13.8-0.2-2.5-0.2 25.3zm-208.2 51.7c0.9 0.2 2.5 0.2 3.5 0 0.9-0.3 0.1-0.5-1.8-0.5-1.9 0-2.7 0.2-1.7 0.5zm9.5 0c0.6 0.2 1.8 0.2 2.5 0 0.6-0.3 0.1-0.5-1.3-0.5-1.4 0-1.9 0.2-1.2 0.5zm13 0c3.4 0.2 8.8 0.2 12 0 3.1-0.2 0.3-0.3-6.3-0.3-6.6 0-9.2 0.1-5.7 0.3zm23 0c2.8 0.2 7.6 0.2 10.5 0 2.8-0.2 0.5-0.3-5.3-0.3-5.8 0-8.1 0.1-5.2 0.3zm18 0c1.2 0.2 3.2 0.2 4.5 0 1.2-0.2 0.2-0.4-2.3-0.4-2.5 0-3.5 0.2-2.2 0.4zm8.5 0c0.9 0.2 2.5 0.2 3.5 0 0.9-0.3 0.1-0.5-1.8-0.5-1.9 0-2.7 0.2-1.7 0.5zm43 0c2.6 0.2 6.7 0.2 9 0 2.3-0.2 0.2-0.3-4.8-0.3-4.9 0-6.8 0.1-4.2 0.3zm22.9 0c4.8 0.2 12.9 0.2 18 0 5.1-0.1 1.2-0.3-8.7-0.3-9.9 0-14.1 0.2-9.3 0.3zm30.6 0c1.8 0.2 4.5 0.2 6 0 1.5-0.2 0-0.4-3.3-0.4-3.3 0-4.5 0.2-2.7 0.4zm42 0c0.7 0.3 1.6 0.2 1.9-0.1 0.4-0.3-0.2-0.6-1.3-0.5-1.1 0-1.4 0.3-0.6 0.6zm7 0c1.2 0.2 3 0.2 4 0 0.9-0.3-0.1-0.5-2.3-0.4-2.2 0-3 0.2-1.7 0.4zm9 0c1.2 0.2 3 0.2 4 0 0.9-0.3-0.1-0.5-2.3-0.4-2.2 0-3 0.2-1.7 0.4zm7.5 0c0.9 0.2 2.3 0.2 3 0 0.6-0.3-0.1-0.5-1.8-0.5-1.6 0-2.2 0.2-1.2 0.5zm14.9 0c4.8 0.2 12.9 0.2 18 0 5.1-0.1 1.2-0.3-8.7-0.3-9.9 0-14.1 0.2-9.3 0.3zm74.1 0c2 0.2 5.4 0.2 7.5 0 2-0.2 0.3-0.4-3.8-0.4-4.1 0-5.8 0.2-3.7 0.4zm17 0c2.6 0.2 6.7 0.2 9 0 2.3-0.2 0.2-0.3-4.8-0.3-4.9 0-6.8 0.1-4.2 0.3zm14.5 0c0.7 0.3 1.6 0.2 1.9-0.1 0.4-0.3-0.2-0.6-1.3-0.5-1.1 0-1.4 0.3-0.6 0.6zm5.5 0c1.5 0.2 3.7 0.2 5 0 1.2-0.2 0-0.4-2.8-0.4-2.7 0-3.8 0.2-2.2 0.4zm11.5 0c0.7 0.3 1.6 0.2 1.9-0.1 0.4-0.3-0.2-0.6-1.3-0.5-1.1 0-1.4 0.3-0.6 0.6z" fill="rgb(170, 170, 170)"/><path d="m203 111.4c0 0.2 0.8 1 1.8 1.7 1.5 1.3 1.6 1.2 0.3-0.4-1.3-1.6-2.1-2.1-2.1-1.3zm57 13c0 0.2 0.8 1 1.8 1.7 1.5 1.3 1.6 1.2 0.3-0.4-1.3-1.6-2.1-2.1-2.1-1.3zm-37.5 5.6c1 1.1 2 2 2.3 2 0.3 0-0.3-0.9-1.3-2-1-1.1-2-2-2.3-2-0.3 0 0.3 0.9 1.3 2zm-156.6 15.7c-1.3 1.6-1.2 1.7 0.4 0.4 0.9-0.7 1.7-1.5 1.7-1.7 0-0.8-0.8-0.3-2.1 1.3zm147.9 137c0.7 0.3 1.6 0.2 1.9-0.1 0.4-0.3-0.2-0.6-1.3-0.5-1.1 0-1.4 0.3-0.6 0.6zm15 0c0.6 0.2 1.8 0.2 2.5 0 0.6-0.3 0.1-0.5-1.3-0.5-1.4 0-1.9 0.2-1.2 0.5zm8 0c0.7 0.3 1.6 0.2 1.9-0.1 0.4-0.3-0.2-0.6-1.3-0.5-1.1 0-1.4 0.3-0.6 0.6zm40 0c0.7 0.3 1.6 0.2 1.9-0.1 0.4-0.3-0.2-0.6-1.3-0.5-1.1 0-1.4 0.3-0.6 0.6zm16 0c0.6 0.2 1.8 0.2 2.5 0 0.6-0.3 0.1-0.5-1.3-0.5-1.4 0-1.9 0.2-1.2 0.5zm45.5 51c8.7 0.2 22.7 0.2 31 0 8.4-0.1 1.3-0.3-15.8-0.3-17 0-23.9 0.2-15.2 0.3zm-238.5 25c0.7 0.3 1.6 0.2 1.9-0.1 0.4-0.3-0.2-0.6-1.3-0.5-1.1 0-1.4 0.3-0.6 0.6z" fill="rgb(212, 212, 212)"/><path d="m90.3 165.5c0 0.8 0.4 1.2 0.9 0.9 0.5-0.3 0.6-1 0.3-1.5-0.9-1.3-1.2-1.1-1.2 0.6zm-50.7 5.7c0.3 0.5 1 0.6 1.5 0.3 1.3-0.9 1.1-1.2-0.6-1.2-0.8 0-1.2 0.4-0.9 0.9zm475.6 49.8c0 1.9 0.2 2.7 0.5 1.7 0.2-0.9 0.2-2.5 0-3.5-0.3-0.9-0.5-0.1-0.5 1.8zm-0.1 107.6c0 1.1 0.3 1.4 0.6 0.6 0.3-0.7 0.2-1.6-0.1-1.9-0.3-0.4-0.6 0.2-0.5 1.3zm0.1 55.4c0 1.4 0.2 1.9 0.5 1.2 0.2-0.6 0.2-1.8 0-2.5-0.3-0.6-0.5-0.1-0.5 1.3zm-0.1 24.6c0 1.1 0.3 1.4 0.6 0.6 0.3-0.7 0.2-1.6-0.1-1.9-0.3-0.4-0.6 0.2-0.5 1.3zm-390.3 53.1c0.7 0.3 1.6 0.2 1.9-0.1 0.4-0.3-0.2-0.6-1.3-0.5-1.1 0-1.4 0.3-0.6 0.6zm390.5 22.3c0 2.5 0.2 3.5 0.4 2.2 0.2-1.2 0.2-3.2 0-4.5-0.2-1.2-0.4-0.2-0.4 2.3z" fill="rgb(128, 128, 128)"/><path d="m515.2 404c0 1.4 0.2 1.9 0.5 1.2 0.2-0.6 0.2-1.8 0-2.5-0.3-0.6-0.5-0.1-0.5 1.3z" fill="rgb(85, 85, 128)"/></svg>