<svg xmlns="http://www.w3.org/2000/svg" viewBox="0 0 346 518" width="32" height="32"><path d="m64.8 0.8l-4.8 0.3v87.9h-24.2c-27.2 0-29.2 0.4-33.5 6.9l-2.3 3.4v409l2.6 3.4c5 6.6 1.9 6.3 70.2 6.3h61.9l3.6-2.8c1.9-1.5 4-3.7 4.6-5 0.8-1.6 1.1-63.1 1.1-206.6v-204.3l-2.3-3.4c-4.3-6.5-6.4-6.9-32.9-6.9h-23.8l-0.3-44.3-0.2-44.2-0.3 44.7-0.2 44.8h24.1c23.1 0 24.3 0.1 28.1 2.2 7.4 4.2 6.8-14.3 6.8 212.4v204.7l-4 3.9-4.1 3.8h-124.9l-4.5-4.1-4.5-4.2v-409.1l2.3-3.3c4-6 5.8-6.3 33.1-6.3h24.6v-88h11.2c6.1 0 10.8-0.3 10.5-0.6-0.7-0.8-10.7-1.1-17.9-0.6z"/><path d="m24 301.5v188.5h95v-377h-95zm94 0v187.5h-93v-375h93zm161-69.5v31h-16.8c-15.4 0-17.1 0.2-21.2 2.2-8.5 4.4-8-0.3-8 81v71.6l2.6 3.2c5.2 6.1 3.9 6 53.9 6 51.4 0 50.9 0.1 54.5-7.1 1.9-3.7 2-6.4 2-74.5v-70.6l-2.2-4c-3.7-6.6-5.9-7.2-25.5-7.6l-17.3-0.4v-61.8h-22zm21 1.2v31.3l16-0.3c18.4-0.3 23.3 0.9 27 7 1.9 3.2 2 4.8 2 74.4v71.1l-2.3 3.4c-1.2 1.8-3.4 3.9-4.7 4.6-1.9 1-13.7 1.3-48.6 1.3h-46.1l-3.4-2.3c-1.8-1.2-3.9-3.4-4.6-4.7-1-1.9-1.3-18.7-1.3-73.6v-71.1l2.3-3.4c4.1-6.1 7-6.9 26.5-6.9h17.2v-62h20z"/><path d="m257 346v58h64v-116h-64zm63 0v57h-62v-114h62z"/><path d="m282.8 202.7c0.7 0.3 1.6 0.2 1.9-0.1 0.4-0.3-0.2-0.6-1.3-0.5-1.1 0-1.4 0.3-0.6 0.6zm12.5 0c0.9 0.2 2.5 0.2 3.5 0 0.9-0.3 0.1-0.5-1.8-0.5-1.9 0-2.7 0.2-1.7 0.5zm-47.5 62c1.8 0.2 4.5 0.2 6 0 1.5-0.2 0-0.4-3.3-0.4-3.3 0-4.5 0.2-2.7 0.4zm12.5 0c0.9 0.2 2.3 0.2 3 0 0.6-0.3-0.1-0.5-1.8-0.5-1.6 0-2.2 0.2-1.2 0.5zm9.5 0c1.8 0.2 4.5 0.2 6 0 1.5-0.2 0-0.4-3.3-0.4-3.3 0-4.5 0.2-2.7 0.4zm44.5 0c3.7 0.2 9.6 0.2 13 0 3.4-0.2 0.4-0.3-6.8-0.3-7.1 0-9.9 0.1-6.2 0.3z" fill="rgb(85, 85, 85)"/><path d="m61 46.5v44.5h-51.8l-3.1 2.6c-1.7 1.4-3.5 4.2-4.1 6.2-0.6 2.5-1 70.8-1 205.2 0 198 0 201.6 2 204.7 4.3 7.2 0.6 6.8 68.8 7.1 60.3 0.3 61.4 0.2 64.7-1.8 7-4.4 6.5 13.2 6.5-210.2 0-130.1-0.4-202.6-1-204.9-0.6-1.9-2.2-4.6-3.6-6-2.6-2.4-2.6-2.4-28.5-2.7l-25.9-0.3v-88.9h-23zm58 66.5c0.3 0 0.5 84.8 0.5 188.5v188.5l-3 0.5c-1.6 0.3-23.2 0.4-47.9 0.3l-45-0.3v-186.5c-0.1-102.6 0-187.6 0.2-189l0.4-2.5 47.1 0.2c26 0.2 47.4 0.3 47.7 0.3zm161 121v31h-18c-19.7 0-22.1 0.5-25.6 5.7-1.8 2.7-1.9 6-2.2 73.5-0.3 80-0.6 76.4 7 79.8 4.1 1.8 6.9 2 48.6 2 49 0 49 0 52.7-6.3 1.9-3.1 2-5.7 2-73.7 0-78.5 0.2-75.6-6.6-79.1-3.4-1.7-6-1.9-21.4-1.9h-17.6l0.3-31 0.3-31h-19.5zm41.3 54.2c-0.2 0.5-0.3 26.9-0.3 58.8v58h-64v-118l32.3 0.2c17.7 0.2 32.1 0.6 32 1z" fill="rgb(255, 255, 255)"/><path d="m18.8 90.7c0.7 0.3 1.6 0.2 1.9-0.1 0.4-0.3-0.2-0.6-1.3-0.5-1.1 0-1.4 0.3-0.6 0.6zm109 0c0.6 0.2 1.8 0.2 2.5 0 0.6-0.3 0.1-0.5-1.3-0.5-1.4 0-1.9 0.2-1.2 0.5zm158.5 112c0.9 0.2 2.5 0.2 3.5 0 0.9-0.3 0.1-0.5-1.8-0.5-1.9 0-2.7 0.2-1.7 0.5z" fill="rgb(128, 128, 128)"/><path d="m14.8 90.7c0.6 0.2 1.8 0.2 2.5 0 0.6-0.3 0.1-0.5-1.3-0.5-1.4 0-1.9 0.2-1.2 0.5zm16 0c1.2 0.2 3 0.2 4 0 0.9-0.3-0.1-0.5-2.3-0.4-2.2 0-3 0.2-1.7 0.4zm12 0c3.4 0.2 9 0.2 12.5 0 3.4-0.2 0.6-0.3-6.3-0.3-6.9 0-9.7 0.1-6.2 0.3zm46 0c0.6 0.2 1.8 0.2 2.5 0 0.6-0.3 0.1-0.5-1.3-0.5-1.4 0-1.9 0.2-1.2 0.5zm16 0c2.3 0.2 5.9 0.2 8 0 2-0.2 0.1-0.4-4.3-0.4-4.4 0-6.1 0.2-3.7 0.4zm194.6 144.3c0 16.2 0.2 22.9 0.3 14.7 0.2-8.1 0.2-21.3 0-29.5-0.1-8.1-0.3-1.4-0.3 14.8zm-24.1 52.7c8.7 0.2 22.7 0.2 31 0 8.4-0.1 1.3-0.3-15.8-0.3-17 0-23.9 0.2-15.2 0.3zm-13.5 117c2.8 0.2 7.6 0.2 10.5 0 2.8-0.2 0.5-0.3-5.3-0.3-5.8 0-8.1 0.1-5.2 0.3zm24 0c4.6 0.2 11.8 0.2 16 0 4.2-0.1 0.5-0.3-8.3-0.3-8.8 0-12.3 0.2-7.7 0.3zm27 0c1.8 0.2 4.5 0.2 6 0 1.5-0.2 0-0.4-3.3-0.4-3.3 0-4.5 0.2-2.7 0.4z" fill="rgb(170, 170, 170)"/><path d="m23.2 313c0 1.9 0.2 2.7 0.5 1.7 0.2-0.9 0.2-2.5 0-3.5-0.3-0.9-0.5-0.1-0.5 1.8zm0 39c0 1.4 0.2 1.9 0.5 1.2 0.2-0.6 0.2-1.8 0-2.5-0.3-0.6-0.5-0.1-0.5 1.3zm321 4c0 1.4 0.2 1.9 0.5 1.2 0.2-0.6 0.2-1.8 0-2.5-0.3-0.6-0.5-0.1-0.5 1.3zm0 47.5c0 1.6 0.2 2.2 0.5 1.2 0.2-0.9 0.2-2.3 0-3-0.3-0.6-0.5 0.1-0.5 1.8zm0 9c0 1.6 0.2 2.2 0.5 1.2 0.2-0.9 0.2-2.3 0-3-0.3-0.6-0.5 0.1-0.5 1.8zm-295.4 78.2c12.8 0.2 33.5 0.2 46 0 12.5-0.1 2-0.2-23.3-0.2-25.3 0-35.5 0.1-22.7 0.2z" fill="rgb(212, 212, 212)"/><path d="m264.8 264.7c0.7 0.3 1.6 0.2 1.9-0.1 0.4-0.3-0.2-0.6-1.3-0.5-1.1 0-1.4 0.3-0.6 0.6z" fill="rgb(0, 85, 85)"/></svg>