<svg xmlns="http://www.w3.org/2000/svg" viewBox="0 0 603 410" width="32" height="32"><path d="m578.8 1.6c-2.8 1.5-8.7 8.6-30.1 36.4-6.9 9.1-23.9 31.1-37.8 49-24 31.1-42.6 55.3-62.6 81.5-5.1 6.6-13.2 17.2-18.1 23.5-25.1 32.6-36.1 47.1-40.2 52.7-3.1 4.3-5 6.1-6 5.6-14-5.7-24-7.4-36-6.2-12.1 1.2-24.1 6.4-34 14.7l-3.5 2.9-8-4.9c-31.7-19.7-56.4-35.1-64.4-39.9l-9.4-5.8 0.2-11.4c0.3-13.4-1.6-20.4-8.1-30.5-10.1-15.6-26.5-24.5-44.8-24.4-10.6 0-19.5 2.7-27.8 8.2-21.7 14.5-29.9 39.7-21.1 64.5l2.2 6.3-4 4.9c-2.2 2.6-6.4 8-9.4 11.9-20.2 26.3-63 82-76.4 99.3-35.4 45.6-38.7 50.1-39.2 54-0.6 4.5 0.3 5.3 12.1 11.5 5.5 2.9 9.9 4.6 11.5 4.4 3-0.3 7-5.2 32.1-38.3 8.8-11.6 20.2-26.4 25.3-33 27.8-35.8 48.4-62.6 58-75.5 14.9-19.8 13.6-18.6 18.3-16.2 6.2 3.1 14.3 4.5 23.5 4 9.7-0.6 17.5-3.4 27.1-9.7l6-4.1 19.4 12.3c24.5 15.4 27 17 46 29.2l15.5 10-0.8 6c-4 29.6 12.4 56.5 40.7 66.7 5.6 2 8.3 2.3 20 2.3 12.9-0.1 13.9-0.2 21.5-3.3 25.6-10.3 40.5-33.3 39.3-60.7-0.4-8.4-1-11.2-3.6-17.5-1.8-4.1-3.2-7.9-3.2-8.5 0.1-0.5 3.2-5.1 7-10 3.9-5 17-22.3 29.3-38.5 12.3-16.2 31.9-42.1 43.6-57.5 11.7-15.4 30.7-40.4 42.2-55.5 11.4-15.1 25.8-34 32-42 16.2-21.2 37.2-49.2 38.6-51.5 3.4-5.5-0.2-11.6-9.2-15.9-6.2-2.9-9.7-3.2-13.7-1zm12.5 1.5c5.5 2.8 10.7 7.8 10.7 10.4 0 1.1-0.8 3.2-1.7 4.5-3.7 5.5-19.8 27-39.2 52.4-11.3 14.8-21.5 28-22.6 29.5-2.4 3.3-70.8 93.6-83 109.6-24.2 31.9-46.1 60.8-47.3 62.5-1.1 1.5-1.1 2.4 0.3 5.1 5.9 11.3 7.9 26.5 5.1 38.4-4.8 20.4-18.2 35.5-39.1 44-6.3 2.6-8.2 2.9-19 2.9-14.7 0.1-23.2-2.3-34.2-9.7-12.6-8.4-20.2-19.1-24.4-34.2-1.8-6.6-2.1-9.7-1.6-17.5 0.3-5.2 0.8-10.2 1.2-11.1 0.4-1.2-4-4.5-18.7-14-10.6-6.9-21.3-13.8-23.8-15.3-2.5-1.5-12.6-7.8-22.4-14l-17.9-11.3-5.1 3.8c-15.3 11.6-35.7 13.9-52 5.9-2.2-1.1-4-1.8-4.1-1.7-1.4 2.4-15.9 21.3-70 91.6-6 7.8-20.7 26.9-32.5 42.4-11.8 15.4-22.8 29-24.3 30.1l-2.8 2.1-9.4-4.9c-5.1-2.6-10.1-5.6-11-6.6-2.2-2.4-1.4-5.9 2.3-10.9 2.5-3.4 24.3-31.7 34.2-44.4 7-9.1 26-33.8 37.7-49.2 5.9-7.7 15.6-20.3 21.6-28 5.9-7.7 13.4-17.3 16.5-21.4 3.1-4.1 8.1-10.4 11-13.9 3.5-4.4 5.1-7.1 4.6-8.1-4.2-9.9-5.4-15.1-5.4-23.6 0-15.4 4.5-26.1 15.4-37.1 10.8-10.8 21.5-15.4 36-15.4 14.6 0 27.6 5.8 37.9 17 10.4 11.2 14.3 22.6 13.5 39.3-0.5 9.2-0.4 9.9 1.6 10.9 2.7 1.4 34.5 21 60.4 37.1 11.1 7 20.5 12.7 20.7 12.7 0.3 0 3-2 6.1-4.5 11.2-9.1 23.5-13.5 37.9-13.5 10.4 0 20.1 2.1 26.2 5.5l4.3 2.4 9.8-12.7c12-15.5 27.8-36.1 86.9-113.4 12.8-16.6 30.3-39.3 38.8-50.3 8.6-11 19.5-25.1 24.3-31.4 15.7-20.5 28.3-36.5 31-39.5 4.8-5.1 9-5.8 15.5-2.5z"/><path d="m168.4 170c-6.1 1.9-12.6 7.3-15.8 13-2.7 4.9-3.1 6.4-3.1 13.5 0 9.1 2.1 14.3 8.3 20.7 7.5 7.9 21.1 9.7 31.2 4.2 20.6-11 19.5-38.9-2-49.9-4-2.1-14.1-2.9-18.6-1.5zm19.3 3.6c15.4 7.4 19.6 27.9 8.3 40.7-5.6 6.3-10.9 8.7-19.6 8.7-11.2-0.1-17.9-4.2-23.2-14.5-2.1-4-2.6-6.4-2.7-12 0-6 0.4-7.8 3.1-12.5 3.5-6.2 9.3-10.7 16.4-12.7 5.7-1.6 11.1-0.9 17.7 2.3zm153.8 99.2c-7.5 3.6-13.6 9.7-17.2 17-2.3 4.8-2.8 7-2.8 13.7 0 7.1 0.4 8.8 3.3 14.7 5.9 12.1 16 18.1 30.7 18.2 6.8 0.1 8.8-0.3 13.7-2.7 7.2-3.6 13.4-9.8 16.7-16.7 2-4.4 2.5-7.1 2.6-13.5 0-6.9-0.4-8.8-3-13.8-3.6-7.2-9.3-13-16-16.5-3.9-2-6.8-2.6-13.5-2.9-7.8-0.4-9-0.2-14.5 2.5zm22.6-0.2c18.4 5.4 28.5 26.6 20.7 43.5-5.5 12-16.8 19.4-29.3 19.2-13.6-0.1-23.9-6.4-29.6-17.8-6.8-13.8-2.6-30.8 10-39.9 9.2-6.6 17.6-8.1 28.2-5z"/><path d="m505.6 92.8c-0.3 0.5 0.1 0.9 0.9 0.9 0.8 0 1.2-0.4 0.9-0.9-0.3-0.4-0.7-0.8-0.9-0.8-0.2 0-0.6 0.4-0.9 0.8zm-328.8 77.9c0.7 0.3 1.6 0.2 1.9-0.1 0.4-0.3-0.2-0.6-1.3-0.5-1.1 0-1.4 0.3-0.6 0.6zm52.4 27.3c0 1.9 0.2 2.7 0.5 1.7 0.2-0.9 0.2-2.5 0-3.5-0.3-0.9-0.5-0.1-0.5 1.8zm92.9 105.6c0 1.1 0.3 1.4 0.6 0.6 0.3-0.7 0.2-1.6-0.1-1.9-0.3-0.4-0.6 0.2-0.5 1.3zm-321 91c0 1.1 0.3 1.4 0.6 0.6 0.3-0.7 0.2-1.6-0.1-1.9-0.3-0.4-0.6 0.2-0.5 1.3z" fill="rgb(85, 85, 85)"/><path d="m583.8 1.7c0.7 0.3 1.6 0.2 1.9-0.1 0.4-0.3-0.2-0.6-1.3-0.5-1.1 0-1.4 0.3-0.6 0.6zm-369.8 161.7c0 0.2 0.8 1 1.8 1.7 1.5 1.3 1.6 1.2 0.3-0.4-1.3-1.6-2.1-2.1-2.1-1.3zm-88.9 42.2c0 1.1 0.3 1.4 0.6 0.6 0.3-0.7 0.2-1.6-0.1-1.9-0.3-0.4-0.6 0.2-0.5 1.3zm273.8 137.1c-1.3 1.6-1.2 1.7 0.4 0.4 1.6-1.3 2.1-2.1 1.3-2.1-0.2 0-1 0.8-1.7 1.7zm-87.4 2.3c1 1.1 2 2 2.3 2 0.3 0-0.3-0.9-1.3-2-1-1.1-2-2-2.3-2-0.3 0 0.3 0.9 1.3 2z" fill="rgb(212, 212, 212)"/><path d="m156 216.4c0 0.2 0.8 1 1.8 1.7 1.5 1.3 1.6 1.2 0.3-0.4-1.3-1.6-2.1-2.1-2.1-1.3zm197.8 53.3c0.6 0.2 1.8 0.2 2.5 0 0.6-0.3 0.1-0.5-1.3-0.5-1.4 0-1.9 0.2-1.2 0.5z" fill="rgb(170, 170, 170)"/><path d="m576.8 5.3c-1.8 1.8-11.4 13.8-21.3 26.6-9.9 12.8-24.5 31.7-32.4 42-8 10.2-23.6 30.5-34.8 45.1-11.2 14.6-20.9 27.2-21.6 28-0.7 0.8-5.7 7.3-11.2 14.5-31.1 40.8-36.3 47.5-40.2 52.5-2.3 3-9.7 12.7-16.4 21.5-6.7 8.8-12.5 16.4-12.9 16.8-0.4 0.5-3.1-0.3-5.9-1.7-6.1-3.2-17.2-5.6-24.9-5.6-13.6 0.1-31.2 6.7-39.9 15.1l-4.3 4-7.7-4.9c-14.9-9.5-60.9-37.8-69.1-42.7-7-4.1-8.2-5.2-7.8-6.9 2.6-9.4 1.2-23-3.4-33.3-5.3-11.9-18.2-23.4-30.7-27.3-19.4-6-37-1.8-51.5 12.2-14.8 14.3-19.3 34.6-12.2 54.9l2.6 7.6-5.9 7.4c-3.3 4.1-10.4 13.2-15.8 20.4-5.4 7.1-11.5 15-13.5 17.5-2 2.5-6.6 8.3-10.1 13-3.6 4.7-10.3 13.4-14.9 19.5-4.6 6-11 14.4-14.1 18.5-5.7 7.4-13.7 17.8-24.4 31.5-26.4 33.9-30.6 40-30.3 43.4 0.3 3.2 0.9 3.7 9.8 8.4 12.1 6.4 13.1 6.2 20.4-3.6 3-3.9 7.4-9.7 9.7-12.7 2.3-3 8.3-10.9 13.3-17.5 5-6.6 9.3-12.2 9.6-12.5 0.6-0.6 3.4-4.2 16.6-21.5 5.5-7.2 18.5-24 28.9-37.5 10.4-13.5 23.8-31 29.9-39 6-8 11.2-14.8 11.6-15.3 0.3-0.4 3.5 0.4 7 1.8 3.5 1.4 9.2 3 12.7 3.6 11.5 2 25.6-2 37.5-10.7l4.8-3.6 17.8 11.3c29.6 18.8 39.1 24.9 52.5 33.6l12.7 8.3-0.5 3.7c-1.6 11.4-1.6 16.2-0.1 23.2 5.4 25.7 25.4 43.8 52.1 47.3 11 1.4 20.8-0.5 33-6.6 18.2-9 30.2-25.9 32.3-45.3 1.4-12.3-0.7-24.4-5.8-33.1l-2-3.2 7.5-9.8c4.1-5.3 17-22.3 28.7-37.7 22.1-29.3 38-50.2 50.8-67 13.3-17.4 26.5-34.8 38.9-51.2 6.5-8.7 17.6-23.2 24.5-32.3 42.1-55 44.6-58.6 44.6-62.5 0-2.5-0.7-3.8-3.2-5.7-5.4-4.1-9.5-5.8-13.7-5.8-3.2 0-4.7 0.7-7.3 3.3zm-389 166.1c10 5.2 16.2 14.8 16.2 25.2 0 12.3-5.5 20.9-16.8 26-6.2 2.9-12.8 3.1-20.1 0.7-7.1-2.3-12.2-7-15.6-14.4-6.6-14.7-1.3-30.3 12.8-37.4 4.6-2.3 6.1-2.6 12.7-2.2 4.4 0.2 8.9 1.1 10.8 2.1zm180.7 101c7.9 3.6 13.7 9.4 17.5 17.7 3 6.6 3.2 7.7 2.8 14.7-0.7 9.8-3.3 15.8-9.8 22.3-7.5 7.5-12.4 9.4-24 9.3-7.6 0-10.5-0.5-14.5-2.3-6.2-2.8-11.7-8-15.7-15-6.1-10.5-4.8-25.3 3.1-35.7 9.8-13.1 26.3-17.6 40.6-11z" fill="rgb(255, 255, 255)"/></svg>