<svg xmlns="http://www.w3.org/2000/svg" viewBox="0 0 430 326" width="32" height="32"><path d="m200.8 162.5c0.1 89.4 0 162.5-0.3 162.5-0.3 0-3.8-2.6-7.8-5.9-3.9-3.2-15.1-12.1-24.7-19.7-17-13.5-27.5-22-67.5-54.4-18.4-15-62.3-50.3-84.9-68.4-6.1-4.9-11.9-9.3-12.8-10-1-0.6-1.8-1.4-1.8-1.8 0-0.4 4.3-4.2 9.7-8.5 5.3-4.3 12.6-10.3 16.3-13.3 18.1-14.8 27.4-22.5 41-33.5 8.1-6.6 30.7-25.1 50.1-41 36.3-29.8 39-32 53.9-44 17.7-14.2 26.9-22 26.9-22.8 0.1-0.4-2 1-4.6 3.2-7.7 6.4-19.3 15.9-31.4 25.8-6.3 5.1-18.6 15.2-27.4 22.4-19.1 15.7-45.5 37.2-50.6 41.4-35.8 29-58.2 47.3-78.6 64.4-3.5 2.9-6.3 5.7-6.1 6.1 0.2 0.4 6.7 5.9 14.4 12.1 33.9 27.3 43.5 35 52.4 42.1 5.2 4.2 21 16.9 35 28.3 29.1 23.5 73.9 59.5 88.2 70.8 5.4 4.2 10.2 7.7 10.8 7.7 0.7 0 1-52.5 1-163 0-89.7-0.3-163-0.7-163-0.5 0-0.7 73.1-0.5 162.5zm221.1-155.7c-3.1 2.6-15.6 12.8-27.9 22.7-12.2 9.9-25.5 20.7-29.5 24-3.9 3.3-15 12.4-24.6 20.2-9.6 7.8-28.2 23-41.4 33.8-13.2 10.8-28 22.8-32.9 26.8-4.9 4-15.1 12.3-22.7 18.5l-13.9 11.3 6.3 5.2c3.4 2.9 10.7 8.8 16.2 13.2 5.5 4.4 14.1 11.3 19.1 15.5 5 4.1 13.4 10.9 18.5 15.1 5.2 4.2 19.8 16.1 32.4 26.4 12.7 10.3 25.9 21 29.4 23.8 3.5 2.9 11.6 9.5 18 14.7 23.6 19.4 43.4 35.2 42.7 34.1-0.6-0.8-37.4-31.4-52.2-43.1-4.2-3.4-29.7-24-41.9-34-5.5-4.5-14-11.5-19-15.5-4.9-4-12.2-9.9-16.1-13.1-4-3.3-17.1-13.9-29.2-23.8-12.1-9.8-21.8-18.3-21.6-19 0.3-0.6 4.2-4 8.6-7.6 4.5-3.6 10-8.1 12.3-10 2.3-1.9 8.2-6.6 13.1-10.5 4.9-3.8 12.3-9.8 16.4-13.2 26.4-21.7 46.4-38.1 57-46.8 6.8-5.5 16.2-13.2 20.9-17.1 4.7-3.8 18.1-14.6 29.6-23.9 27.4-22 40.1-32.7 38.3-32.5-0.2 0.1-2.8 2.2-5.9 4.8zm7.1 156.4l-0.5 161.7-8-6c-4.4-3.4-6.4-4.6-4.4-2.7 6.6 6 12.9 10.1 13.4 8.6 0.3-0.7 0.4-73.8 0.3-162.3l-0.3-161z"/><path d="m168 61.8c-6.5 5.8-25.6 21.9-66.5 56-12.1 10.1-22.9 19.1-24 20-1.1 1-8.7 7.3-16.9 14.2l-14.8 12.4 3.8 3.4c4 3.4 48.6 39 62 49.5 2.3 1.8 17.4 13.9 33.7 26.9 16.3 13.1 29.9 23.8 30.2 23.8 0.3 0 0.5-47.7 0.5-106 0-58.3-0.3-106-0.8-106-0.4 0-3.6 2.6-7.2 5.8zm7 100.2c0 57.2-0.3 104-0.6 104-0.4 0-3-1.9-5.8-4.3-2.8-2.4-11.4-9.2-19.1-15.2-7.7-6-17-13.4-20.6-16.4-3.7-3.1-11.5-9.5-17.5-14.2-14.3-11.3-59.3-47.1-62.2-49.5l-2.3-1.9 9.7-8c5.4-4.4 11.4-9.4 13.3-11.1 2-1.7 21.2-17.7 42.6-35.6 21.5-17.9 44-36.9 50-42.1 6.1-5.3 11.3-9.6 11.8-9.7 0.4 0 0.7 46.8 0.7 104zm216-94.8c-14.9 13-78 66.6-99.1 84.2-12.4 10.3-15.7 13.2-14.5 12.5 2.8-1.4 45.2-36.6 59.7-49.4 3.1-2.8 9.2-8 13.5-11.6 4.3-3.7 17.7-15 29.7-25.3l21.7-18.6v103.2c0 98.1-0.1 103-1.7 101.6-1-0.8-8.1-6.6-15.8-12.9-7.7-6.2-16.5-13.4-19.6-15.9-3.1-2.5-10-8.1-15.5-12.6-5.4-4.4-22.4-18.1-37.8-30.5-15.3-12.3-29.1-23.4-30.7-24.7-1.6-1.3-2.9-2.1-2.9-1.9 0 0.5 28.5 24.1 33.9 28.2 3.3 2.5 26.8 21.4 46.6 37.5 8.3 6.8 20.2 16.4 26.5 21.5 6.3 5.1 13 10.7 14.8 12.4l3.2 3v-105.5c0-58-0.1-105.4-0.2-105.3-0.2 0-5.5 4.6-11.8 10.1z"/><path d="m200.2 6c0 1.4 0.2 1.9 0.5 1.2 0.2-0.6 0.2-1.8 0-2.5-0.3-0.6-0.5-0.1-0.5 1.3zm228.2 19c0 9.1 0.2 12.8 0.3 8.2 0.2-4.5 0.2-11.9 0-16.5-0.1-4.5-0.3-0.8-0.3 8.3zm-0.1 35.5c0 2.7 0.2 3.8 0.4 2.2 0.2-1.5 0.2-3.7 0-5-0.2-1.2-0.4 0-0.4 2.8zm-0.1 47c0 1.6 0.2 2.2 0.5 1.2 0.2-0.9 0.2-2.3 0-3-0.3-0.6-0.5 0.1-0.5 1.8zm-0.1 7.1c0 1.1 0.3 1.4 0.6 0.6 0.3-0.7 0.2-1.6-0.1-1.9-0.3-0.4-0.6 0.2-0.5 1.3zm-228 34c0 1.1 0.3 1.4 0.6 0.6 0.3-0.7 0.2-1.6-0.1-1.9-0.3-0.4-0.6 0.2-0.5 1.3zm0.1 9.4c0 1.9 0.2 2.7 0.5 1.7 0.2-0.9 0.2-2.5 0-3.5-0.3-0.9-0.5-0.1-0.5 1.8zm0 56c0 1.4 0.2 1.9 0.5 1.2 0.2-0.6 0.2-1.8 0-2.5-0.3-0.6-0.5-0.1-0.5 1.3zm0 47c0 1.9 0.2 2.7 0.5 1.7 0.2-0.9 0.2-2.5 0-3.5-0.3-0.9-0.5-0.1-0.5 1.8zm228 1.5c0 1.6 0.2 2.2 0.5 1.2 0.2-0.9 0.2-2.3 0-3-0.3-0.6-0.5 0.1-0.5 1.8zm-227.9 14c0 2.2 0.2 3 0.4 1.7 0.2-1.2 0.2-3 0-4-0.3-0.9-0.5 0.1-0.4 2.3zm228 1c0 2.7 0.2 3.8 0.4 2.2 0.2-1.5 0.2-3.7 0-5-0.2-1.2-0.4 0-0.4 2.8zm-18.3 32.9c0 0.2 0.8 1 1.8 1.7 1.5 1.3 1.6 1.2 0.3-0.4-1.3-1.6-2.1-2.1-2.1-1.3z" fill="rgb(85, 85, 85)"/><path d="m200.1 2.6c0 1.1 0.3 1.4 0.6 0.6 0.3-0.7 0.2-1.6-0.1-1.9-0.3-0.4-0.6 0.2-0.5 1.3zm0.4 42.9c0 20.9 0.1 29.6 0.2 19.3 0.2-10.3 0.2-27.4 0-38-0.1-10.6-0.2-2.2-0.2 18.7zm227.8-0.5c0 2.5 0.2 3.5 0.4 2.2 0.2-1.2 0.2-3.2 0-4.5-0.2-1.2-0.4-0.2-0.4 2.3zm-0.1 30c0 1.4 0.2 1.9 0.5 1.2 0.2-0.6 0.2-1.8 0-2.5-0.3-0.6-0.5-0.1-0.5 1.3zm0.2 12.5c0 5.5 0.1 7.6 0.3 4.7 0.2-2.9 0.2-7.4 0-10-0.2-2.6-0.3-0.2-0.3 5.3zm-228 8c0 6.6 0.1 9.2 0.3 5.7 0.2-3.4 0.2-8.8 0-12-0.2-3.1-0.3-0.3-0.3 6.3zm227.7 4.1c0 1.1 0.3 1.4 0.6 0.6 0.3-0.7 0.2-1.6-0.1-1.9-0.3-0.4-0.6 0.2-0.5 1.3zm-227.8 19.4c0 3.6 0.2 5 0.4 3.2 0.2-1.7 0.2-4.7 0-6.5-0.2-1.7-0.4-0.3-0.4 3.3zm228.1 14.5c0 7.1 0.1 9.9 0.3 6.2 0.2-3.7 0.2-9.6 0-13-0.2-3.4-0.3-0.4-0.3 6.8zm-228.1-2c0 2.2 0.2 3 0.4 1.7 0.2-1.2 0.2-3 0-4-0.3-0.9-0.5 0.1-0.4 2.3zm0 9.5c0 3 0.2 4.3 0.4 2.7 0.2-1.5 0.2-3.9 0-5.5-0.2-1.5-0.4-0.2-0.4 2.8zm228.2 68c0 28.3 0.1 39.9 0.2 25.7 0.2-14.1 0.2-37.3 0-51.5-0.1-14.1-0.2-2.5-0.2 25.8zm-228.2-38.5c0 3.8 0.2 5.3 0.4 3.2 0.2-2 0.2-5.2 0-7-0.2-1.7-0.4-0.1-0.4 3.8zm-0.1 17.5c0 1.9 0.2 2.7 0.5 1.7 0.2-0.9 0.2-2.5 0-3.5-0.3-0.9-0.5-0.1-0.5 1.8zm-0.1 5.6c0 1.1 0.3 1.4 0.6 0.6 0.3-0.7 0.2-1.6-0.1-1.9-0.3-0.4-0.6 0.2-0.5 1.3zm0.2 27.9c0 2.7 0.2 3.8 0.4 2.2 0.2-1.5 0.2-3.7 0-5-0.2-1.2-0.4 0-0.4 2.8zm-0.2 12.1c0 1.1 0.3 1.4 0.6 0.6 0.3-0.7 0.2-1.6-0.1-1.9-0.3-0.4-0.6 0.2-0.5 1.3zm0.1 8.9c0 1.6 0.2 2.2 0.5 1.2 0.2-0.9 0.2-2.3 0-3-0.3-0.6-0.5 0.1-0.5 1.8zm0.1 10.5c0 2.5 0.2 3.5 0.4 2.2 0.2-1.2 0.2-3.2 0-4.5-0.2-1.2-0.4-0.2-0.4 2.3zm228 16c0 2.5 0.2 3.5 0.4 2.2 0.2-1.2 0.2-3.2 0-4.5-0.2-1.2-0.4-0.2-0.4 2.3zm0 20.5c0 2.2 0.2 3 0.4 1.7 0.2-1.2 0.2-3 0-4-0.3-0.9-0.5 0.1-0.4 2.3zm-228 7.5c0 4.7 0.2 6.6 0.4 4.2 0.2-2.3 0.2-6.1 0-8.5-0.2-2.3-0.4-0.4-0.4 4.3zm228 2.5c0 3.3 0.2 4.5 0.4 2.7 0.2-1.8 0.2-4.5 0-6-0.2-1.5-0.4 0-0.4 3.3zm-228 14.5c0 4.1 0.2 5.8 0.4 3.7 0.2-2 0.2-5.4 0-7.5-0.2-2-0.4-0.3-0.4 3.8zm228 2c0 3.6 0.2 5 0.4 3.2 0.2-1.7 0.2-4.7 0-6.5-0.2-1.7-0.4-0.3-0.4 3.3z" fill="rgb(128, 128, 128)"/><path d="m196.4 4.8c-1.7 1.5-7.3 6.2-12.5 10.4-5.2 4.2-13.9 11.4-19.5 16-5.6 4.6-16.8 13.7-24.9 20.3-8.1 6.6-19.1 15.6-24.4 20-5.4 4.4-13.9 11.4-19 15.5-5.1 4.1-11.2 9.2-13.6 11.3-2.3 2-7.9 6.5-12.3 10-8 6.2-32.7 26.4-55.8 45.5-6.8 5.6-12.4 10.6-12.4 11 0.1 0.4 2.9 2.9 6.3 5.5 3.4 2.7 13.6 10.9 22.7 18.2 9.1 7.4 25.7 20.7 37 29.8 11.3 9 21.7 17.3 23 18.5 1.4 1.1 6.6 5.4 11.6 9.4 5 4 19.1 15.4 31.3 25.3 24.1 19.6 28.4 23.1 51.3 41l15.3 12.1-0.3-103.6c-0.1-56.9-0.3-129.5-0.5-161.2l-0.2-57.6zm-20.3 154.9c0 57.7 0.2 105.8 0.3 107 0.2 1.3 0.1 2.3-0.1 2.3-0.5 0-15.6-11.6-19.3-14.7-2.6-2.2-12.2-9.9-46.8-37.6-44.2-35.2-53.9-42.9-59.4-47-3.1-2.3-5.7-4.5-5.7-4.8-0.1-0.4 3.4-3.5 7.7-7 4.2-3.5 8.6-7.2 9.7-8.1 1.1-0.9 9.4-7.8 18.4-15.3 9-7.5 19.1-16 22.5-18.9 3.4-3 8.9-7.6 12.2-10.2 13.8-11 57.7-48.3 58.2-49.6 1.9-4.4 2.2 10.6 2.3 103.9zm240.9-147.1c-5.8 4.7-17.5 14.3-26.1 21.2-8.6 7-16.8 13.6-18.2 14.7-11.4 9.3-29.6 24.2-42.5 34.9-8.6 7.1-21.2 17.4-28.1 23-6.8 5.5-18.1 14.7-25 20.4-6.9 5.7-15.3 12.4-18.6 15-3.3 2.5-10.8 8.6-16.7 13.5l-10.8 8.9 8.3 6.6c9.8 8 17.1 13.9 51.2 41.7 14.2 11.5 28.9 23.5 32.6 26.5 31.3 25.3 42.2 34.1 47.4 38.5 3.3 2.8 11 9.1 17 13.9 6.1 4.9 12.8 10.3 15 12.2 2.2 1.8 8.7 7.1 14.5 11.7l10.5 8.4 0.3-79.8c0.1-44 0.1-115.9 0-159.9l-0.3-79.9zm-13 150c0 58-0.4 105.4-0.8 105.4-0.4 0-2.4-1.6-4.5-3.5-3.7-3.4-24.9-20.7-47.1-38.5-6.6-5.2-12.4-9.4-12.9-9.2-0.5 0.1-0.6-0.1-0.4-0.5 0.5-0.7-32-27.4-53.8-44.3-4.7-3.6-8.5-7-8.5-7.5 0-0.6 2.1-2.7 4.8-4.7 10.7-8.3 106.9-89.7 116.1-98.4 3.1-2.9 5.9-5 6.4-4.7 0.4 0.2 0.7 47.9 0.7 105.9z" fill="rgb(255, 255, 255)"/><path d="m1.9 163.7c-1.3 1.6-1.2 1.7 0.4 0.4 0.9-0.7 1.7-1.5 1.7-1.7 0-0.8-0.8-0.3-2.1 1.3zm401.2 99.9c0 1.1 0.3 1.4 0.6 0.6 0.3-0.7 0.2-1.6-0.1-1.9-0.3-0.4-0.6 0.2-0.5 1.3z" fill="rgb(170, 170, 170)"/><path d="m400.9 57.7c-1.3 1.6-1.2 1.7 0.4 0.4 0.9-0.7 1.7-1.5 1.7-1.7 0-0.8-0.8-0.3-2.1 1.3zm2.3 3.3c0 1.4 0.2 1.9 0.5 1.2 0.2-0.6 0.2-1.8 0-2.5-0.3-0.6-0.5-0.1-0.5 1.3zm0.3 62.5c0 33 0.1 46.4 0.2 29.7 0.2-16.7 0.2-43.7 0-60-0.1-16.3-0.2-2.7-0.2 30.3zm-259.6-41.8c-1.3 1.6-1.2 1.7 0.4 0.4 0.9-0.7 1.7-1.5 1.7-1.7 0-0.8-0.8-0.3-2.1 1.3zm-54 10c-1.3 1.6-1.2 1.7 0.4 0.4 0.9-0.7 1.7-1.5 1.7-1.7 0-0.8-0.8-0.3-2.1 1.3zm19 19c-1.3 1.6-1.2 1.7 0.4 0.4 0.9-0.7 1.7-1.5 1.7-1.7 0-0.8-0.8-0.3-2.1 1.3zm-73 25c-1.3 1.6-1.2 1.7 0.4 0.4 0.9-0.7 1.7-1.5 1.7-1.7 0-0.8-0.8-0.3-2.1 1.3zm243.6 32.3c1 1.1 2 2 2.3 2 0.3 0-0.3-0.9-1.3-2-1-1.1-2-2-2.3-2-0.3 0 0.3 0.9 1.3 2zm124 53c0 20.1 0.1 28.3 0.2 18.2 0.2-10 0.2-26.4 0-36.5-0.1-10-0.2-1.8-0.2 18.3z" fill="rgb(212, 212, 212)"/><path d="m200.1 267.6c0 1.1 0.3 1.4 0.6 0.6 0.3-0.7 0.2-1.6-0.1-1.9-0.3-0.4-0.6 0.2-0.5 1.3zm0.2 17.9c0 2.2 0.2 3 0.4 1.7 0.2-1.2 0.2-3 0-4-0.3-0.9-0.5 0.1-0.4 2.3z" fill="rgb(128, 128, 85)"/><path d="m428.1 67.6c0 1.1 0.3 1.4 0.6 0.6 0.3-0.7 0.2-1.6-0.1-1.9-0.3-0.4-0.6 0.2-0.5 1.3z" fill="rgb(85, 128, 128)"/></svg>