<svg xmlns="http://www.w3.org/2000/svg" viewBox="0 0 507 397" width="32" height="32"><path d="m246.6 0.7c-2.7 0.7-45.1 23.9-79.1 43.3-9.3 5.3-19.7 11.2-23 13-3.3 1.8-10.9 6.1-17 9.5-6 3.4-17.3 9.7-25 14-7.7 4.3-15.6 8.7-17.5 9.8-3.7 2.1-27 15.3-43.5 24.7-5.5 3.1-13.6 7.6-18 10-12.5 6.8-19.1 11.6-20.3 14.7-2 5.4-2.1 6.2-1.1 9.6 1.6 6 6.7 10.2 23.9 19.7 9.1 5.1 32.7 18.2 52.5 29.3 31.7 17.6 47.3 26.3 80.5 44.7 4.7 2.6 24 13.4 43 24 44.4 24.7 47 26 52.1 26 5.5 0 4.1 0.7 81.9-43.5 8-4.5 23.7-13.4 35-19.7 11.3-6.4 31.1-17.5 44-24.8 12.9-7.4 35-19.8 49-27.6 35-19.5 36.4-20.5 39-26 2-4.1 2.1-5 1-8.7-2-6.9-3.2-7.7-34-24.9-10.9-6.1-43.7-24.3-65.5-36.4-2.2-1.2-7.6-4.2-12-6.7-4.4-2.4-10.2-5.7-13-7.2-2.7-1.5-6.3-3.5-8-4.5-1.6-0.9-5.5-3.1-8.5-4.7-3-1.7-12.9-7.2-22-12.3-9.1-5.1-22.9-12.8-30.8-17.2-7.9-4.3-17.8-9.8-22-12.2-13.1-7.4-14.5-8.2-22.8-12.4-7.9-4.1-12.8-5-18.8-3.5zm28.6 10c39.7 21.9 62.7 34.8 67.8 37.8 3 1.8 10.7 6 17 9.5 6.3 3.4 16.9 9.3 23.5 13 24.5 13.8 67.4 37.6 81 45 16.8 9.1 32.1 18.3 34.8 20.8 7.7 7.3 4.5 17.2-7.6 23.7-2.9 1.6-28.4 15.9-56.7 31.8-28.3 16-60.3 34-71 40-10.7 6-35.7 20.2-55.5 31.5-44.9 25.6-49.9 28.2-54.7 28.2-4.5 0-19.4-7.8-67.8-35.3-5.8-3.3-16.8-9.4-24.5-13.7-7.7-4.2-25.7-14.2-40-22.2-14.3-8-33.2-18.5-42-23.3-40.3-22.3-69.2-38.8-71.3-40.8-6.6-6.1-6.8-15.2-0.6-20.9 1.9-1.7 30.9-18.1 133.9-75.8 1.7-0.9 10-5.6 18.5-10.5 51.9-29.3 80.7-45.1 85.9-47.1 7.1-2.7 11.6-1.4 29.3 8.3z"/><path d="m233 38.7c-10.2 5.7-27.7 15.7-39 22.1-11.3 6.4-26.3 14.9-33.5 19-7.1 4.1-24.7 14.1-39 22.3-14.3 8.1-37.7 21.4-52.1 29.6l-26.1 14.9 10.6 5.9c5.8 3.3 13.9 7.8 18.1 10.1 4.1 2.2 12.2 6.6 18 9.9 13.3 7.3 37.8 20.9 45 24.8 3 1.6 12.5 6.9 21 11.7 8.5 4.8 20.5 11.3 26.5 14.5 6.1 3.2 19.8 10.6 30.5 16.5 10.7 5.9 24.2 13.2 29.9 16.4l10.4 5.6 5.6-3.2c3.1-1.7 7.6-4.2 10.1-5.6 2.5-1.4 7.9-4.4 12-6.7 4.1-2.3 9.8-5.5 12.5-7 2.8-1.5 25-13.9 49.5-27.5 74.8-41.5 111.3-61.7 115.3-63.7l3.9-1.9-10.4-5.9c-31-17.5-77-43.7-88.8-50.5-7.4-4.3-25.2-14.4-39.5-22.5-14.3-8.1-34.1-19.4-44-25-19.6-11.1-26-14.5-27.2-14.4-0.4 0-9.1 4.8-19.3 10.6zm48.8 6.5c14.7 8.3 55.3 31.4 90.2 51.3 34.9 19.9 68.8 39.1 75.2 42.6 6.5 3.5 11.7 6.7 11.8 7 0 0.3-2.4 1.8-5.2 3.4-7.4 3.9-74.7 41.2-115.8 64-71.3 39.7-83.7 46.5-84.9 46.5-0.6 0-6.7-3-13.4-6.6-15.5-8.5-30.2-16.6-34.7-19.1-1.9-1.1-10.9-5.9-20-10.8-9.1-4.8-21.4-11.6-27.5-15-6-3.5-24.7-13.8-41.5-23-54.2-29.8-68.5-37.7-69.3-38.4-0.7-0.7 13.9-9.1 85.3-49.7 103.2-58.6 120.6-68.4 121.8-67.9 0.7 0.2 13.3 7.3 28 15.7z"/><path d="m467.5 243.6c-12.6 6.9-32.4 17.8-44 24.1-11.5 6.4-23 12.8-25.5 14.1-2.5 1.4-13 7.2-23.5 13-10.4 5.8-21.9 12.1-25.5 14-3.6 1.9-7.4 4-8.6 4.7-2.4 1.5-29.2 16.3-40.9 22.5-4.4 2.4-10.6 5.8-13.8 7.7-3.2 1.8-6 3.3-6.1 3.3-0.2 0-6.3 3.4-13.7 7.5l-13.3 7.4-3-1.8c-1.7-1.1-10.5-5.9-19.6-10.9-16.4-8.9-52.9-28.9-62.5-34.2-2.7-1.5-15.1-8.3-27.5-15-12.4-6.8-26-14.2-30.3-16.7-7.4-4.1-49.3-27-79-43-7.6-4.1-14.1-7.3-14.3-7-0.2 0.2 2.4 1.9 5.8 3.7 5.2 2.7 31.2 16.8 69.3 37.5 3.3 1.8 15.8 8.7 27.7 15.4 12 6.6 22 12.1 22.2 12.1 0.2 0 3.5 1.7 7.3 3.9 6.6 3.7 13.4 7.4 59.3 32.6 11.8 6.5 26.8 14.6 33.2 18.2l11.7 6.4 18.8-10.4c10.3-5.8 25.9-14.3 34.6-19.1 30.5-16.7 46.4-25.5 70.2-38.6 13.2-7.3 30.3-16.7 38-21 7.7-4.2 16-8.9 18.5-10.2 2.5-1.4 12.6-6.9 22.5-12.3 9.9-5.3 22-12 26.9-14.8 5-2.8 9.1-4.6 9.3-4 0.4 1.1 4.4 7.7 10.2 17 1.8 2.8 3 5.6 2.7 6.1-0.6 1-7.3 4.9-37.6 21.8-27.6 15.4-59.6 33.4-97.5 54.8-19.2 10.9-40.6 23-47.5 26.9-6.9 3.8-23 13-35.9 20.4-25.9 14.9-29.9 16.8-33.9 16-3-0.6-10.9-4.9-44.2-23.7-52.3-29.6-133.9-75.4-157.5-88.5-6.7-3.7-35.4-19.9-43.5-24.6-3.6-2-6.7-3.5-6.9-3.3-0.2 0.2-0.2 0.6 0 0.8 0.4 0.4 43 24.5 52.4 29.6 10.2 5.6 55 30.7 75 42 93.3 52.8 120.7 67.9 124.3 68.6 4.7 1 8.6-0.8 36-16.5 14.1-8.1 32-18.2 39.7-22.6 7.7-4.3 22.3-12.5 32.5-18.3 10.2-5.8 23.5-13.3 29.5-16.7 6.1-3.4 23.6-13.3 39-22 15.4-8.6 39.4-22.1 53.3-29.8 13.8-7.8 25.2-14.5 25.2-14.8 0-0.4-2.7-4.8-5.9-9.7-3.3-5-6.7-10.5-7.6-12.1-0.8-1.7-1.9-3.1-2.3-3.1-0.4 0-11 5.7-23.7 12.6z"/><path d="m10.9 238.3c-1.4 2.3-4.2 6.8-6.3 9.9-2 3.2-3.3 5.8-2.9 5.8 0.4-0.1 3-3.5 5.7-7.8 2.7-4.2 5.6-8.7 6.4-10 0.8-1.2 1-2.2 0.6-2.2-0.5 0-2.1 2-3.5 4.3z"/><path d="m246.8 2.5c-4.2 1.5-27.2 13.8-52.3 28-11.8 6.6-94.7 53.3-124 69.8-17.6 9.9-37.6 21.2-44.5 25-17.4 9.7-20.8 12.3-22.1 16.8-2.8 9.2 0.6 12.8 24.1 26.1 21.4 12.1 68.5 38.3 79.5 44.3 3.9 2.1 9.9 5.5 13.5 7.5 3.6 2.1 14.8 8.4 25 14 10.2 5.6 23.5 13.1 29.5 16.5 6.1 3.4 13.3 7.5 16 9 2.8 1.5 12.9 7.1 22.5 12.5 38.9 21.6 38.8 21.5 46.4 18.2 2.5-1.2 13-6.9 23.3-12.8 30.4-17.3 69.1-39.2 87.8-49.7 5-2.7 13.1-7.3 18-10.2 5-2.9 18.5-10.5 30-17 22.8-12.8 56.8-31.9 70.6-39.7 4.8-2.6 9.5-6 10.4-7.5 2.7-4 3-10.2 0.7-13.9-1.9-2.9-17.3-12.5-37.7-23.4-4.4-2.4-13.5-7.4-20.2-11.2-6.9-3.9-12.8-6.6-13.4-6.2-0.7 0.4-0.9 0.3-0.6-0.2 0.5-0.9-5-4.2-26.2-16-6.2-3.4-38-21.1-75-41.8-13.4-7.5-24.4-13.6-24.6-13.6-0.1 0-6.7-3.7-14.6-8.3-18.9-10.8-30.6-16.5-34.9-17.1-1.9-0.3-5.1 0.1-7.2 0.9zm42.7 45.2c17.1 9.7 37.1 21 44.5 25.3 7.4 4.3 15.1 8.7 17.1 9.8 2 1.1 18.4 10.4 36.5 20.7 62 35.3 69.3 39.5 71.9 40.7 1.4 0.6 2.5 1.4 2.5 1.8 0 0.4-9.3 5.8-20.7 12-11.5 6.2-27.8 15.2-36.3 20-8.5 4.8-24.3 13.6-35 19.5-10.7 5.9-31.2 17.3-45.5 25.3-14.3 7.9-28.5 15.8-31.5 17.5-3 1.6-8.4 4.6-12 6.7-3.6 2-10 5.6-14.2 7.9-4.3 2.3-9 4.9-10.6 5.8-2.8 1.6-3 1.5-11.8-3.2-4.9-2.6-11.8-6.4-15.4-8.3-3.6-1.9-12.3-6.7-19.5-10.7-7.1-4-17.9-9.8-24-13-6-3.2-14.4-7.7-18.5-10-11.9-6.7-11.8-6.6-69.5-38.5-2.7-1.5-12.2-6.7-21-11.5-31.4-17.1-33.8-18.6-31.8-20 1.8-1.2 60.2-34.6 89.3-51 8-4.5 24.4-13.8 36.5-20.7 12.1-7 35.5-20.2 52-29.6 29.9-16.9 30-17 33-15.5 1.7 0.9 17 9.4 34 19z" fill="rgb(255, 255, 255)"/><path d="m489.6 232.9c-0.3 0.5-7.9 4.8-16.8 9.7-27.7 14.9-29.1 15.6-37.3 20.2-4.4 2.4-15 8.2-23.5 12.9-8.5 4.7-18.1 10.1-21.3 11.9-3.2 1.9-5.9 3.4-6.1 3.4-0.2 0-8.8 4.7-19.1 10.5-10.4 5.8-18.9 10.5-19.1 10.5-0.1 0-7.8 4.2-17.1 9.3-9.2 5.2-19.9 11.1-23.8 13.2-26.7 14.5-49.2 27-50.3 28-1.1 1-2.5 0.6-7-1.8-16.3-8.6-33-17.7-43.7-23.7-6.6-3.7-22.6-12.5-35.5-19.5-12.9-7-23.9-13.1-24.5-13.5-0.5-0.4-6.4-3.5-13-7-6.5-3.4-16-8.6-21-11.5-10.3-5.9-12.4-7.1-59-32.2-7.1-3.9-18.1-9.8-24.4-13.2-8.6-4.7-11.6-5.9-12.2-4.9-0.4 0.7-3.6 5.6-7.1 10.9l-6.3 9.5 11.2 6.3c6.2 3.4 11.7 5.9 12.3 5.6 0.6-0.4 0.9-0.2 0.8 0.4-0.2 0.7 23.1 15.1 24.6 15.1 0.2 0 4.8 2.5 10.2 5.6 5.5 3.1 12.4 7 15.4 8.7 5.3 2.9 15.3 8.6 68.5 38.5 13.2 7.4 29.4 16.5 36 20.2 6.6 3.7 19 10.7 27.5 15.5 25.4 14.5 42 23.5 44.5 24.1 3.1 0.8 7.7-1.4 28-13.1 17.1-9.9 22.2-12.8 90-50.9 20.4-11.5 37.5-21.2 38-21.6 0.6-0.4 7.1-4.1 14.5-8.2 7.4-4.2 15.3-8.5 17.5-9.8 2.2-1.3 5.8-3.3 8-4.5 2.2-1.2 9.4-5.2 16-9 6.6-3.7 16.4-9.1 21.7-12.1 8.4-4.6 17.5-10 18.7-11 0.2-0.2-2.6-4.9-6.2-10.4-3.7-5.5-6.7-10.4-6.7-10.9 0-1.4-1.8-2.3-2.4-1.2z" fill="rgb(255, 255, 255)"/></svg>