<svg xmlns="http://www.w3.org/2000/svg" viewBox="0 0 514 141" width="32" height="32"><path d="m67.3 0.7c2.6 0.2 6.8 0.2 9.5 0 2.6-0.2 0.4-0.3-4.8-0.3-5.2 0-7.4 0.1-4.7 0.3zm185 0c2.6 0.2 6.7 0.2 9 0 2.3-0.2 0.2-0.3-4.8-0.3-4.9 0-6.8 0.1-4.2 0.3zm185.5 0c2.9 0.2 7.4 0.2 10 0 2.6-0.2 0.2-0.3-5.3-0.3-5.5 0-7.6 0.1-4.7 0.3zm-379.5 1c0.9 0.2 2.3 0.2 3 0 0.6-0.3-0.1-0.5-1.8-0.5-1.6 0-2.2 0.2-1.2 0.5zm25 0c0.9 0.2 2.3 0.2 3 0 0.6-0.3-0.1-0.5-1.8-0.5-1.6 0-2.2 0.2-1.2 0.5zm159.5 0c0.6 0.2 1.8 0.2 2.5 0 0.6-0.3 0.1-0.5-1.3-0.5-1.4 0-1.9 0.2-1.2 0.5zm25.5 0c0.9 0.2 2.3 0.2 3 0 0.6-0.3-0.1-0.5-1.8-0.5-1.6 0-2.2 0.2-1.2 0.5zm160 0c0.9 0.2 2.3 0.2 3 0 0.6-0.3-0.1-0.5-1.8-0.5-1.6 0-2.2 0.2-1.2 0.5zm26.5 0c0.7 0.3 1.6 0.2 1.9-0.1 0.4-0.3-0.2-0.6-1.3-0.5-1.1 0-1.4 0.3-0.6 0.6zm-406.6 2c-6.4 2.3-4.6 2.5 2.3 0.3 3.3-1 5.1-1.9 4-1.9-1.1 0-3.9 0.7-6.3 1.6zm46.3 0.7c3.9 1.2 8.9 3.2 11.3 4.5 2.3 1.2 4.2 1.9 4.2 1.6 0-1.4-17.5-8.6-20.9-8.5-0.9 0.1 1.6 1.1 5.4 2.4zm136.8 0c-16.7 6.2-30.9 19-39 35.1-1.1 2.2-2.4 5.1-2.7 6.5-0.4 1.4 1.1-1.1 3.3-5.5 8.9-17.8 22.1-29.4 40.6-35.7 4.4-1.5 7.1-2.7 6-2.7-1.1 0-4.8 1-8.2 2.3zm42.5-1.7c0.7 0.3 1.6 0.2 1.9-0.1 0.4-0.3-0.2-0.6-1.3-0.5-1.1 0-1.4 0.3-0.6 0.6zm150 0c0.7 0.3 1.6 0.2 1.9-0.1 0.4-0.3-0.2-0.6-1.3-0.5-1.1 0-1.4 0.3-0.6 0.6zm35 0c0.7 0.3 1.6 0.2 1.9-0.1 0.4-0.3-0.2-0.6-1.3-0.5-1.1 0-1.4 0.3-0.6 0.6zm-44.3 2.4c-2.7 1.1-5.4 2.5-6 3-0.5 0.5 1.7-0.1 5-1.5 3.3-1.3 6.7-2.6 7.5-2.9 1.3-0.5 1.3-0.5 0-0.6-0.8 0-3.7 0.9-6.5 2zm48.3-1.4c0.7 0.3 1.6 0.2 1.9-0.1 0.4-0.3-0.2-0.6-1.3-0.5-1.1 0-1.4 0.3-0.6 0.6zm-172.3 5.6c9.3 4.9 19.8 14.3 25.2 22.7 6.2 9.4 6.5 9.7 3.8 4.5-5.9-11.5-16.9-22.2-29.7-28.6-8.9-4.5-8.3-3.4 0.7 1.4zm180.5-2.8c1.4 0.8 3 1.4 3.5 1.4 0.6 0-0.1-0.6-1.5-1.4-1.4-0.8-2.9-1.4-3.5-1.4-0.5 0 0.1 0.6 1.5 1.4zm-435.3 2.9c-8.2 5-14.1 10.1-19.6 17-5.2 6.6-10.5 15.6-11.5 19.6-0.4 1.4 0.5 0.2 1.8-2.7 6.7-14.3 18.4-27 31.7-34.3 3-1.6 4.9-3 4.3-3-0.5 0-3.6 1.5-6.7 3.4zm366.1 2.6c-10.2 6.8-19.1 16.7-24.7 27.7-3.4 6.8-2.4 6.4 1.5-0.6 6.7-12 15.7-21.7 27-28.8 1.1-0.6 1.6-1.2 1.3-1.2-0.3-0.1-2.6 1.3-5.1 2.9zm76.2-2.6c0 0.3 0.9 1 2 1.6 1.1 0.6 2 0.8 2 0.6 0-0.3-0.9-1-2-1.6-1.1-0.6-2-0.8-2-0.6zm-364.5 3.7c3.8 2.9 14.5 13.5 17.4 17.4l2.2 3-1.8-3.3c-2.1-3.9-14.7-16.4-18.3-18.1-2-1-1.9-0.8 0.5 1zm375.8 4.9c7.5 6.9 14.5 16.1 18.2 24.1 1.4 3 2.2 4.3 1.9 2.9-2.2-8.7-14.7-25-23.8-31.1-1.7-1.2-0.1 0.6 3.7 4.1zm-413.7 8.5c4.5 0.8 10.6 2.4 13.5 3.5 3 1.2 5 1.7 4.4 1.2-1.8-1.9-12.9-5-19.5-5.6-6.4-0.5-6.4-0.5 1.6 0.9zm359.9-0.4c-2 0.5-0.9 0.6 3 0.2 3.3-0.3 6.2-0.7 6.4-0.9 0.8-0.7-6.3-0.2-9.4 0.7zm-372.2 0.6c0.9 0.2 2.3 0.2 3 0 0.6-0.3-0.1-0.5-1.8-0.5-1.6 0-2.2 0.2-1.2 0.5zm180.8 0.4c-5.3 1.6-3.2 1.8 3.4 0.4 3.6-0.8 4.8-1.3 3-1.3-1.6 0-4.5 0.4-6.4 0.9zm21.5 0.3c12 2.8 23.5 10.8 29.1 20.3 3.1 5.4 4.2 5.7 1.2 0.4-5.9-10.6-20.4-20.5-31.4-21.6-5-0.5-5-0.5 1.1 0.9zm185.4 0.1c3 0.8 6 1.4 6.5 1.4 2-0.2-7.1-2.7-9.5-2.7-1.4 0 0 0.6 3 1.3zm-395.5 1c-3.9 1.7-2.1 1.8 2.5 0 1.9-0.7 2.8-1.4 2-1.4-0.8 0-2.8 0.6-4.5 1.4zm366 1.9c-9.6 4.7-17.9 13.1-20.8 20.8-1.1 3.1 0.2 1.9 1.9-1.7 4.1-8.6 14.1-17 24.9-20.7 2.7-1 4.1-1.7 3-1.8-1.1 0-5.2 1.5-9 3.4z"/><path d="m234.5 31.2c-6 3.2-14.7 12.5-18.3 19.7-1.8 3.5-3.2 7.1-3.2 8 0 0.9 1.1-1 2.4-4.2 4.2-10.1 10.9-17.6 21-23.3 5.1-2.9 3.6-3.1-1.9-0.2zm228.6 0.3c6.8 3.5 15.2 11.7 18.5 17.9 1.6 3 3 5.3 3.2 5.1 0.9-0.9-4.6-9.4-9.2-14.3-4.7-5-13.7-11.2-16.1-11.1-0.5 0 1.1 1.1 3.6 2.4zm-416.2 1.4c-2.4 1.5-6.3 4.8-8.7 7.2-4.3 4.4-10.2 14.8-10.1 17.8 0 0.9 0.9-0.7 2-3.4 3.4-8.7 10.7-17 20.5-23.2 1.1-0.6 1.7-1.2 1.3-1.2-0.3-0.1-2.5 1.2-5 2.8zm51.1 1.7c5.9 4.8 10 9.4 13 14.8 1.7 2.8 3 4.6 3 4 0-1.7-7.4-12.6-10.6-15.5-1.6-1.5-4.2-3.4-5.9-4.4-2.7-1.5-2.6-1.4 0.5 1.1zm36.6 2.5c0.9 1.8 2.7 5.9 4 9.3 1.4 3.4 2.2 4.7 1.9 3.1-0.7-3.4-6.1-15.5-7-15.5-0.3 0 0.2 1.4 1.1 3.1zm188.1 6.9c0.3 1.4 1.2 4.1 2 6 1.1 3 1.2 3.1 0.8 0.6-0.4-1.6-1.3-4.3-2-6-1.1-2.3-1.3-2.5-0.8-0.6zm49.8 7.2c-0.8 2.8-1.5 6.3-1.4 7.7 0 1.4 0.7-0.1 1.4-3.4 0.7-3.3 1.6-6.8 2-7.8 0.4-0.9 0.5-1.7 0.1-1.7-0.3 0-1.2 2.3-2.1 5.2zm138.1-0.7c0.8 3.7 1.4 4.5 1.4 1.9 0-1-0.5-2.6-1-3.4-0.8-1.1-0.9-0.7-0.4 1.5zm-323 0c-0.3 0.9-0.6 2.4-0.5 3.3 0 0.9 0.5 0.4 1-1.2 0.9-3.2 0.6-4.8-0.5-2.1zm-185.5 3.1c0 1.1 0.3 1.4 0.6 0.6 0.3-0.7 0.2-1.6-0.1-1.9-0.3-0.4-0.6 0.2-0.5 1.3zm139 1c0 1.1 0.3 1.4 0.6 0.6 0.3-0.7 0.2-1.6-0.1-1.9-0.3-0.4-0.6 0.2-0.5 1.3zm185.1 1.4c0 1.4 0.2 1.9 0.5 1.2 0.2-0.6 0.2-1.8 0-2.5-0.3-0.6-0.5-0.1-0.5 1.3zm186 1.5c0 1.6 0.2 2.2 0.5 1.2 0.2-0.9 0.2-2.3 0-3-0.3-0.6-0.5 0.1-0.5 1.8zm-511.6 3.1c-0.3 2.6-0.5 7.7-0.5 11.3 0.2 5.4 0.3 4.5 1-4.4 0.8-11.6 0.6-14.7-0.5-6.9zm185-0.9c-0.3 2.1-0.5 6.9-0.4 10.8 0.1 6.3 0.2 5.9 0.8-3.5 0.8-11 0.7-13.6-0.4-7.3zm114-1.2c0.8 3.7 1.4 4.5 1.4 1.9 0-1-0.5-2.6-1-3.4-0.8-1.1-0.9-0.7-0.4 1.5zm-157.3 4c0 3.3 0.2 4.5 0.4 2.7 0.2-1.8 0.2-4.5 0-6-0.2-1.5-0.4 0-0.4 3.3zm254.8-0.5c-0.6 2.8-1 6.8-1 8.8 0.1 3 0.3 2.7 0.9-1.8 0.4-3 1-7 1.4-8.8 0.4-1.7 0.5-3.2 0.3-3.2-0.3 0-1 2.3-1.6 5zm-282-2.4c0 1.1 0.3 1.4 0.6 0.6 0.3-0.7 0.2-1.6-0.1-1.9-0.3-0.4-0.6 0.2-0.5 1.3zm211.9 10.2l0.5 10.7 0.3-9.9c0.1-5.5-0.1-10.3-0.5-10.7-0.4-0.5-0.6 4-0.3 9.9zm159.1-9.2c0 1.1 0.3 1.4 0.6 0.6 0.3-0.7 0.2-1.6-0.1-1.9-0.3-0.4-0.6 0.2-0.5 1.3zm-459 1c0 1.1 0.3 1.4 0.6 0.6 0.3-0.7 0.2-1.6-0.1-1.9-0.3-0.4-0.6 0.2-0.5 1.3zm185.1 1.9c0 1.6 0.2 2.2 0.5 1.2 0.2-0.9 0.2-2.3 0-3-0.3-0.6-0.5 0.1-0.5 1.8zm301.2 6c0 4.9 0.1 7.1 0.3 4.8 0.2-2.3 0.2-6.4 0-9-0.2-2.6-0.3-0.8-0.3 4.2zm-397.1 0c0 4.4 0.2 6.1 0.4 3.7 0.2-2.3 0.2-5.9 0-8-0.2-2-0.4-0.1-0.4 4.3zm254 0.5c0 4.7 0.2 6.6 0.4 4.2 0.2-2.3 0.2-6.1 0-8.5-0.2-2.3-0.4-0.4-0.4 4.3zm-69.1-0.5c-0.1 3.8-0.5 8.1-0.7 9.5l-0.6 2.5 1.1-2.4c0.6-1.4 0.9-5.7 0.7-9.5l-0.3-7.1zm185.6 1.5c-0.3 4.7-0.9 9.6-1.2 11-0.3 1.4 0.1 0.5 0.9-2 0.9-2.7 1.4-7.1 1.3-11l-0.3-6.5zm-460.7-0.9c0.1 3 0.5 6.5 0.9 7.9 0.4 1.4 0.5-0.8 0.2-5-0.6-8.9-1.2-10.6-1.1-2.9zm185-2.1c-0.2 3.7 2.1 15.4 3.5 17.8 0.9 1.6 1.3 1.9 0.9 0.7-0.9-2.9-2.4-9.3-3.4-15-0.5-2.8-0.9-4.3-1-3.5zm-68.8 8.5c0 2.2 0.2 3 0.4 1.7 0.2-1.2 0.2-3 0-4-0.3-0.9-0.5 0.1-0.4 2.3zm254.9 1c0 1.6 0.2 2.2 0.5 1.2 0.2-0.9 0.2-2.3 0-3-0.3-0.6-0.5 0.1-0.5 1.8zm-283.3 6c-0.9 3-1.3 5.2-0.9 5 0.9-0.5 3.4-9.4 2.9-10-0.2-0.2-1.1 2.1-2 5zm-112.7-2c0 1.6 0.2 2.2 0.5 1.2 0.2-0.9 0.2-2.3 0-3-0.3-0.6-0.5 0.1-0.5 1.8zm185-0.5c0 2.4 2.5 11.5 2.7 9.5 0-0.6-0.6-3.5-1.4-6.5-0.7-3-1.3-4.4-1.3-3zm185 0.5c0 1.6 0.2 2.2 0.5 1.2 0.2-0.9 0.2-2.3 0-3-0.3-0.6-0.5 0.1-0.5 1.8zm141 0.5c0 1.4 0.2 1.9 0.5 1.2 0.2-0.6 0.2-1.8 0-2.5-0.3-0.6-0.5-0.1-0.5 1.3zm-484.1 0c0 0.8 0.4 2.2 0.9 3 1.2 1.8 1.2 0.2 0-2.5-0.6-1.3-0.9-1.5-0.9-0.5zm298.1 1c0 1.4 0.2 1.9 0.5 1.2 0.2-0.6 0.2-1.8 0-2.5-0.3-0.6-0.5-0.1-0.5 1.3zm71.9-1.2c-0.2 3.3 5.7 13.2 11 18.5 5.5 5.4 16.3 11.8 19.9 11.6 0.8 0-0.1-0.6-2.1-1.4-13.1-4.8-21.9-13.1-26.8-25.1-1.1-2.7-2-4.3-2-3.6zm-256.9 2.2c0 1.4 0.2 1.9 0.5 1.2 0.2-0.6 0.2-1.8 0-2.5-0.3-0.6-0.5-0.1-0.5 1.3zm155.6 4.1c-1.5 3.3-2.5 5.9-2.3 5.9 0.8 0 5.6-10.1 5.3-10.9-0.2-0.5-1.5 1.8-3 5zm-294.7-2c-0.1 1.8 3 11.2 3.5 10.7 0.2-0.2-0.5-3.1-1.6-6.3-1-3.3-1.9-5.3-1.9-4.4zm370 0.5c0 1.1 0.3 1.4 0.6 0.6 0.3-0.7 0.2-1.6-0.1-1.9-0.3-0.4-0.6 0.2-0.5 1.3zm108.9 4.6c-3.2 5.5-8.2 10.9-14 15.1-2.4 1.7-2.4 1.7 0.8 0 1.9-1 5.3-3.8 7.6-6.3 4.1-4.4 10.2-13.7 9.5-14.4-0.2-0.2-2 2.3-3.9 5.6zm30.1-4.6c0 1.1 0.3 1.4 0.6 0.6 0.3-0.7 0.2-1.6-0.1-1.9-0.3-0.4-0.6 0.2-0.5 1.3zm-186 1c0 1.1 0.3 1.4 0.6 0.6 0.3-0.7 0.2-1.6-0.1-1.9-0.3-0.4-0.6 0.2-0.5 1.3zm-295.1 0c0 3.8 11.4 16.5 17.9 19.8 4.6 2.4 3.8 1.2-1.1-1.7-5.3-3.1-10.7-8.7-14.2-14.7-1.4-2.5-2.6-4-2.6-3.4zm110.1 1c0 1.1 0.3 1.4 0.6 0.6 0.3-0.7 0.2-1.6-0.1-1.9-0.3-0.4-0.6 0.2-0.5 1.3zm232.9 1.4c0 0.8 2 5.6 4.6 10.8 3.4 7.1 6.1 10.9 11.2 16.1 4.8 4.8 5.2 5.2 1.6 1.2-6.7-7.4-9.8-12.2-13.9-21.7-1.9-4.4-3.5-7.2-3.5-6.4zm137.1 0c-0.1 1.9-6.4 15.1-9.2 19.4l-2.1 3.1 2.3-2.5c3-3.4 10.2-18.6 9.6-20.2-0.4-0.9-0.6-0.9-0.6 0.2zm-400.5 2.9c-1.9 3.5-11.7 12.6-16.5 15.1-2 1-3.1 1.9-2.5 2 3.1 0.1 17.3-12.1 20-17.3 0.8-1.5 1.2-2.7 1-2.7-0.3 0-1.2 1.3-2 2.9z"/><path d="m136.7 97.7c-5.2 13.1-17.4 26-32 33.9-6.8 3.7-7.1 4.7-0.4 1.3 14.9-7.5 28.6-22.1 33.7-35.7 3-7.9 1.8-7.5-1.3 0.5zm81.8-4.2c2.3 3.9 6.2 8.1 10 10.8 1.7 1.1 0.7-0.1-2.1-2.9-2.8-2.7-6.1-6.3-7.3-7.9l-2.3-3zm-29 0.5c1.5 5.4 8.1 16.5 12.8 21.7 9.2 10.1 24.9 20 34.2 21.8 1.7 0.3 0.8-0.3-2-1.3-19.3-7.3-32.4-18.6-41.2-36-2.5-4.8-4.2-7.6-3.8-6.2zm99.5 5.6c-2.5 2.5-6.7 5.8-9.5 7.4-2.7 1.6-4.5 3-3.9 3 2.3 0 10.9-6.4 15.8-11.8 4.5-4.8 2.6-3.8-2.4 1.4zm30.2 2.9c-6.3 12.1-19.6 24.5-33.6 31.2-3.9 1.8-6 3.1-4.6 2.7 10.8-2.9 26.5-15 34.9-26.9 3.2-4.5 7.4-12.5 6.9-13-0.2-0.2-1.8 2.5-3.6 6zm-313.2-4.1c0 1.2 5.9 11.4 7.1 12.2 0.5 0.3-0.3-1.6-1.9-4.3-1.6-2.6-3.4-5.7-4-6.8-0.6-1.1-1.2-1.6-1.2-1.1zm226 8c0 0.3 0.9 1 2 1.6 1.1 0.6 2 0.8 2 0.6 0-0.3-0.9-1-2-1.6-1.1-0.6-2-0.8-2-0.6z"/><path d="m239.9 110.6c1.8 0.8 4.7 1.7 6.5 2 1.7 0.2 0.4-0.4-2.9-1.6-7-2.3-8.4-2.5-3.6-0.4zm-154.4 0.4c-1.3 0.6-1.5 0.9-0.5 0.9 0.8 0 2.2-0.4 3-0.9 1.8-1.2 0.2-1.2-2.5 0zm185 0c-1.3 0.6-1.5 0.9-0.5 0.9 0.8 0 2.2-0.4 3-0.9 1.8-1.2 0.2-1.2-2.5 0zm-212.7 0.7c0.7 0.3 1.6 0.2 1.9-0.1 0.4-0.3-0.2-0.6-1.3-0.5-1.1 0-1.4 0.3-0.6 0.6zm393.7 0.3c-2.7 0.7-2.8 0.8-0.5 0.8 1.4 0 3.4-0.3 4.5-0.8 2.5-1.1 0.2-1.1-4 0zm-432.1 5.7c3.3 3.4 8 7.6 10.5 9.3l4.6 3.2-4-3.3c-2.2-1.9-6.9-6.1-10.5-9.4l-6.5-5.9zm42.4-5c0.6 0.2 1.8 0.2 2.5 0 0.6-0.3 0.1-0.5-1.3-0.5-1.4 0-1.9 0.2-1.2 0.5zm18 0c0.6 0.2 1.8 0.2 2.5 0 0.6-0.3 0.1-0.5-1.3-0.5-1.4 0-1.9 0.2-1.2 0.5zm186 0c0.7 0.3 1.6 0.2 1.9-0.1 0.4-0.3-0.2-0.6-1.3-0.5-1.1 0-1.4 0.3-0.6 0.6zm166 0c0.6 0.2 1.8 0.2 2.5 0 0.6-0.3 0.1-0.5-1.3-0.5-1.4 0-1.9 0.2-1.2 0.5zm-363 1c1.8 0.2 4.5 0.2 6 0 1.5-0.2 0-0.4-3.3-0.4-3.3 0-4.5 0.2-2.7 0.4zm185.5 0c1.5 0.2 3.9 0.2 5.5 0 1.5-0.2 0.2-0.4-2.8-0.4-3 0-4.3 0.2-2.7 0.4zm185.5 0c1.8 0.2 4.5 0.2 6 0 1.5-0.2 0-0.4-3.3-0.4-3.3 0-4.5 0.2-2.7 0.4zm52.7 5.1c-3.3 3.2-7.3 6.8-9 8-2.1 1.7-2.3 2-0.7 1.2 2.3-1.1 17.2-14.9 16.2-14.9-0.3-0.1-3.2 2.5-6.5 5.7zm-93 7.7c5.7 5 23.1 12.6 28.4 12.4 0.9 0-1.8-1-5.9-2.3-8-2.4-13.7-5-21-9.8-4.2-2.8-4.3-2.8-1.5-0.3zm77.3 4.1c-3.8 2-3.6 2.8 0.2 0.9 1.7-0.9 3-1.8 3-2 0-0.7-0.1-0.6-3.2 1.1zm-439.8 1c0 0.7 9.1 4.6 9.6 4.2 0.2-0.2-1.9-1.4-4.6-2.5-2.8-1.2-5-1.9-5-1.7zm428.5 4c-3.3 1.4-4.6 2.2-3 1.8 3.1-0.6 11.8-4.3 10-4.2-0.5 0-3.7 1.1-7 2.4zm-372.5 0.9c-1.9 0.7-2.8 1.4-2 1.4 0.8 0 2.9-0.6 4.5-1.4 3.9-1.7 2.1-1.8-2.5 0zm-44 0.4c0.8 0.5 3.3 1.2 5.5 1.5 2.8 0.4 3.3 0.3 1.5-0.2-4.6-1.6-8.6-2.3-7-1.3zm224 1.1c-2 0.6-2.1 0.8-0.5 0.8 1.1 0 2.9-0.3 4-0.8 2.5-1.1-0.1-1.1-3.5 0zm-186.2 0.7c0.7 0.3 1.6 0.2 1.9-0.1 0.4-0.3-0.2-0.6-1.3-0.5-1.1 0-1.4 0.3-0.6 0.6zm155.5 0.3c1.6 0.5 6.6 1.1 11 1.4 8.1 0.5 8.1 0.5 1.7-0.4-13-1.8-15.8-2-12.7-1zm209.7 0c-3.4 0.7-3.4 0.7-0.5 0.8 1.7 0 4.1-0.4 5.5-0.8 3.3-1.1 0-1.1-5 0zm-391.2 0.7c1.2 0.2 3 0.2 4 0 0.9-0.3-0.1-0.5-2.3-0.4-2.2 0-3 0.2-1.7 0.4zm19 0c1.2 0.2 3 0.2 4 0 0.9-0.3-0.1-0.5-2.3-0.4-2.2 0-3 0.2-1.7 0.4zm185.5 0c0.9 0.2 2.5 0.2 3.5 0 0.9-0.3 0.1-0.5-1.8-0.5-1.9 0-2.7 0.2-1.7 0.5zm167 0c0.9 0.2 2.5 0.2 3.5 0 0.9-0.3 0.1-0.5-1.8-0.5-1.9 0-2.7 0.2-1.7 0.5zm-363 1c1.5 0.2 3.9 0.2 5.5 0 1.5-0.2 0.2-0.4-2.8-0.4-3 0-4.3 0.2-2.7 0.4zm371.5 0c1.2 0.2 3.2 0.2 4.5 0 1.2-0.2 0.2-0.4-2.3-0.4-2.5 0-3.5 0.2-2.2 0.4z"/><path d="m253.5 26c0.3 0.5 1.3 1 2.1 1 0.8 0 1.2-0.5 0.9-1-0.3-0.6-1.3-1-2.1-1-0.8 0-1.2 0.4-0.9 1zm191 0c-0.3 0.5-0.1 1 0.4 1 0.6 0 1.1-0.5 1.1-1 0-0.6-0.2-1-0.4-1-0.3 0-0.8 0.4-1.1 1zm-302.3 44c0 1.4 0.2 1.9 0.5 1.2 0.2-0.6 0.2-1.8 0-2.5-0.3-0.6-0.5-0.1-0.5 1.3zm-37.3 29.7c-1.3 1.6-1.2 1.7 0.4 0.4 0.9-0.7 1.7-1.5 1.7-1.7 0-0.8-0.8-0.3-2.1 1.3zm332.6 40.3c0.3 0.5 0.8 1 1.1 1 0.2 0 0.4-0.5 0.4-1 0-0.6-0.5-1-1.1-1-0.5 0-0.7 0.4-0.4 1z" fill="rgb(85, 85, 85)"/><path d="m474 38.4c0 0.2 0.8 1 1.8 1.7 1.5 1.3 1.6 1.2 0.3-0.4-1.3-1.6-2.1-2.1-2.1-1.3z" fill="rgb(128, 128, 128)"/><path d="m435.8 1.7c0.7 0.3 1.6 0.2 1.9-0.1 0.4-0.3-0.2-0.6-1.3-0.5-1.1 0-1.4 0.3-0.6 0.6zm-362 138c0.7 0.3 1.6 0.2 1.9-0.1 0.4-0.3-0.2-0.6-1.3-0.5-1.1 0-1.4 0.3-0.6 0.6zm181 0c1.2 0.2 3 0.2 4 0 0.9-0.3-0.1-0.5-2.3-0.4-2.2 0-3 0.2-1.7 0.4zm186 0c0.7 0.3 1.6 0.2 1.9-0.1 0.4-0.3-0.2-0.6-1.3-0.5-1.1 0-1.4 0.3-0.6 0.6z" fill="rgb(170, 170, 170)"/><path d="m67.8 1.7c0.6 0.2 1.8 0.2 2.5 0 0.6-0.3 0.1-0.5-1.3-0.5-1.4 0-1.9 0.2-1.2 0.5zm371 0c0.7 0.3 1.6 0.2 1.9-0.1 0.4-0.3-0.2-0.6-1.3-0.5-1.1 0-1.4 0.3-0.6 0.6zm-232.9 20c-1.3 1.6-1.2 1.7 0.4 0.4 0.9-0.7 1.7-1.5 1.7-1.7 0-0.8-0.8-0.3-2.1 1.3zm282.3 49.3c0 1.4 0.2 1.9 0.5 1.2 0.2-0.6 0.2-1.8 0-2.5-0.3-0.6-0.5-0.1-0.5 1.3zm-487 1.5c0 1.6 0.2 2.2 0.5 1.2 0.2-0.9 0.2-2.3 0-3-0.3-0.6-0.5 0.1-0.5 1.8zm221.8 27.9c0 0.2 0.8 1 1.8 1.7 1.5 1.3 1.6 1.2 0.3-0.4-1.3-1.6-2.1-2.1-2.1-1.3zm185 0c0 0.2 0.8 1 1.8 1.7 1.5 1.3 1.6 1.2 0.3-0.4-1.3-1.6-2.1-2.1-2.1-1.3zm-389.5 15.6c1 1.1 2 2 2.3 2 0.3 0-0.3-0.9-1.3-2-1-1.1-2-2-2.3-2-0.3 0 0.3 0.9 1.3 2zm371.5 1.5c1.9 1.9 3.6 3.5 3.9 3.5 0.3 0-1-1.6-2.9-3.5-1.9-1.9-3.6-3.5-3.9-3.5-0.3 0 1 1.6 2.9 3.5zm102.9 0.2l-2.4 2.8 2.8-2.4c1.5-1.4 2.7-2.6 2.7-2.8 0-0.8-0.8-0.1-3.1 2.4zm-286.9 0.7c0 0.2 0.8 1 1.8 1.7 1.5 1.3 1.6 1.2 0.3-0.4-1.3-1.6-2.1-2.1-2.1-1.3zm-136.7 21.3c0.9 0.2 2.3 0.2 3 0 0.6-0.3-0.1-0.5-1.8-0.5-1.6 0-2.2 0.2-1.2 0.5z" fill="rgb(212, 212, 212)"/><path d="m64 2c-9.6 1-14.8 2.4-23.5 6.5-14.8 7.1-28 21.5-34.4 37.5-3.2 7.9-3.5 9.5-3.9 22-0.4 13.1-0.3 13.9 2.7 23 3.9 11.6 8.2 18.8 15.8 26.3 16.1 16 32.3 22.4 54.2 21.5 19.1-0.8 33.4-7.1 47.2-20.8 8.5-8.4 13.6-16.7 17.1-28 1.9-6.3 2.3-9.6 2.2-21 0-12.8-0.2-14-3.3-22.2-7.4-19.7-19.4-32.3-38.2-39.9-6.2-2.5-23.9-6.2-27.4-5.8-0.5 0.1-4.4 0.5-8.5 0.9zm18.5 24.5c16 4.2 29 16.1 33.1 30.3 3.5 11.9 1.1 28-5.6 37.8-21.7 31.4-73.1 23.2-82.5-13.1-8.5-33.1 21.9-63.6 55-55zm164-24.4c-27.9 4.1-48.9 22.1-57.5 49.4-3.1 9.9-3.1 25-0.1 36 2.2 8.1 7 17.8 12.2 24.9 4.7 6.4 14.8 14.4 24.4 19.2 38.7 19.3 85.2-0.1 98.1-41 12.9-41-13.8-82.5-57-88.5-8.7-1.2-11.5-1.2-20.1 0zm19.7 24c23.8 5.1 40.1 29.2 35.3 52.3-4.4 21.1-22.4 35.6-44.2 35.6-16.2 0-29.5-6.6-38.4-19-7.4-10.3-9.9-25.6-6-37.2 7.8-23.3 30.1-36.6 53.3-31.7zm168.3-24.1c-15.9 1.6-28.2 6.9-39.8 17.2-25.5 22.6-30.6 59.4-12.3 88.1 5.7 8.9 17.6 19.2 28 24.2 21.2 10.1 42.4 10.1 63.6-0.2 8.1-3.9 10.8-5.8 18.6-13.7 7.1-7.2 9.8-10.7 12.7-16.8 11.3-23.9 9.8-47.6-4.5-68.9-14.5-21.7-38.7-32.6-66.3-29.9zm18.8 24.6c13.7 3.5 24.1 11.7 30 23.6 7.6 15.1 6.6 30-2.9 44.4-4.6 6.9-10.1 11.4-18.8 15.5-5.7 2.7-8.4 3.3-16.1 3.7-15.6 0.8-27.1-3.4-36.9-13.4-13.5-13.8-16.3-33.6-7.4-51.4 3-6 13.2-16 19.2-18.8 11-5.2 22.1-6.4 32.9-3.6z" fill="rgb(255, 255, 255)"/></svg>