<svg xmlns="http://www.w3.org/2000/svg" viewBox="0 0 478 501" width="32" height="32"><path d="m49.7 49.8l-49.7 49.7 10.2 9.6c5.7 5.3 10.5 9.5 10.7 9.3 0.5-0.5-0.9-1.8-12.7-12.3l-7.3-6.5 49.8-49.8c27.4-27.4 49.6-49.8 49.3-49.8-0.3 0-22.9 22.4-50.3 49.8zm51.3-48.5c0 0.2 4.5 4.1 10 8.7 5.5 4.5 10 8.4 10 8.5 0 0.1-21.8 22-48.5 48.7-26.7 26.7-48.5 49-48.5 49.7 0 0.6 3.2-2.4 7.1-6.6 4-4.3 26-26.5 49-49.4 23.1-22.9 41.9-41.9 41.9-42.2 0-0.6-19.8-17.7-20.5-17.7-0.3 0-0.5 0.1-0.5 0.3zm271.1 7.8c-12.8 10.6-12.8 10.6-11.2 12.1 1 1.1 1.1 1 0.6-0.3-0.4-1.2 2-3.8 9.1-9.5 5.4-4.4 10.2-8.2 10.8-8.6 0.6-0.4 0.8-0.9 0.6-1.1-0.3-0.2-4.7 3.1-9.9 7.4zm11.5-5.1c3.4 5 65.7 82.9 70.8 88.5 2 2.2-12.8-16.7-33-42-32.5-40.9-41.3-51.7-37.8-46.5zm-15.5 26.7c2.9 3.8 8 10.2 11.4 14.3 3.4 4.1 11.4 14.3 17.8 22.7 6.5 8.4 12.3 15.6 12.9 15.9 0.7 0.4-1-2.1-3.8-5.5-2.7-3.5-6.5-8.4-8.4-11-6.7-8.9-34.2-43.1-34.7-43.1-0.3 0 1.9 3 4.8 6.7zm-151.9 20c4.8 0.2 12.9 0.2 18 0 5.1-0.1 1.2-0.3-8.7-0.3-9.9 0-14.1 0.2-9.3 0.3zm-23.2 1.6c-3.6 0.5-6 1.1-5.5 1.3 0.6 0.2 5.3-0.2 10.5-1 5.2-0.8 7.7-1.4 5.5-1.4-2.2 0-6.9 0.5-10.5 1.1zm51.1-0.9c0.2 0.2 3.8 0.6 7.9 0.9 4.4 0.3 6.3 0.2 4.5-0.3-3-0.8-13.2-1.3-12.4-0.6zm19.4 2.6c1.7 0.4 3.9 0.8 5 0.8 1.6 0 1.5-0.2-0.5-0.8-1.4-0.4-3.6-0.8-5-0.8-2.2 0-2.2 0.1 0.5 0.8zm-81.2 0.7c0.9 0.2 2.3 0.2 3 0 0.6-0.3-0.1-0.5-1.8-0.5-1.6 0-2.2 0.2-1.2 0.5zm-6.8 1.3c-1.3 0.5-1.4 0.9-0.5 0.9 0.8 0 2.4-0.4 3.5-0.9 1.3-0.5 1.4-0.9 0.5-0.9-0.8 0-2.4 0.4-3.5 0.9zm100 0.6c2.8 0.7 5.7 1.3 6.5 1.3 0.8 0-0.7-0.7-3.5-1.5-2.7-0.7-5.7-1.3-6.5-1.3-0.8 0 0.8 0.7 3.5 1.5zm-114.8 3.6c-4.9 1.6-8.7 3.2-8.5 3.4 0.2 0.2 5.1-1.2 10.8-3.1 5.8-1.9 9.6-3.4 8.5-3.4-1.1 0-6 1.4-10.8 3.1zm129.7 0.4c3.8 1.3 7.1 2.2 7.3 2 0.5-0.5-11.6-4.6-13.1-4.5-0.6 0 2 1.1 5.8 2.5zm-148.9 7c-4.4 1.9-8.4 3.9-8.9 4.4-0.9 0.9 17.2-6.7 18.3-7.6 1.3-1.2-2.4 0.1-9.4 3.2zm167.6-0.2c0.2 0.2 1.5 0.9 2.9 1.5 2.4 1.1 2.4 1.1 0.6-0.3-1.6-1.3-4.9-2.4-3.5-1.2zm6 3c1 0.9 6.9 3.6 6.9 3.2 0-0.6-5.5-3.6-6.6-3.6-0.4 0-0.5 0.2-0.3 0.4zm-189.8 5.6c-2.9 1.7-5.3 3.3-5.3 3.6 0 0.6 8.8-4.2 10.5-5.7 1.6-1.6 0.1-0.9-5.2 2.1zm199.7-0.7c0.3 0.3 4.8 3.3 10 6.7 5.2 3.4 12.9 8.9 17 12.2 6.1 4.8 6.6 5.1 2.5 1.3-6.1-5.6-33.1-24.1-29.5-20.2zm-99.7 4.4c1.5 0.2 3.9 0.2 5.5 0 1.5-0.2 0.2-0.4-2.8-0.4-3 0-4.3 0.2-2.7 0.4zm-112.5 4.2c-14 9.8-28.1 22.3-38.4 34-10.4 11.8-25.1 33.9-28.5 42.9-1.6 4.1-0.4 2.4 4.2-6.3 14.5-27.6 36.8-51.8 67-72.7 1.3-0.9 2.1-1.7 1.8-1.7-0.3-0.1-3.1 1.7-6.1 3.8zm97.5-3.2c1.5 0.2 3.9 0.2 5.5 0 1.5-0.2 0.2-0.4-2.8-0.4-3 0-4.3 0.2-2.7 0.4zm27.5 0c1.7 0.2 4.7 0.2 6.5 0 1.7-0.2 0.3-0.4-3.3-0.4-3.6 0-5 0.2-3.2 0.4zm-45.2 1.9c-3.8 0.7-7.1 1.6-7.5 2-0.3 0.3 1 0.3 2.9-0.1 1.9-0.4 7.1-1.4 11.5-2 5.1-0.9 6.6-1.3 4-1.3-2.2 0-7.1 0.6-10.9 1.4zm56.7-0.9c0.9 0.2 2.5 0.2 3.5 0 0.9-0.3 0.1-0.5-1.8-0.5-1.9 0-2.7 0.2-1.7 0.5zm6.5 1c0.6 0.2 1.8 0.2 2.5 0 0.6-0.3 0.1-0.5-1.3-0.5-1.4 0-1.9 0.2-1.2 0.5zm6.7 1.3c1.7 0.4 3.9 0.8 5 0.8 1.6 0 1.5-0.2-0.5-0.8-1.4-0.4-3.6-0.8-5-0.8-2.2 0-2.2 0.1 0.5 0.8zm-88 3.4c-13.5 4.5-31 12.4-36.5 16.6-1.4 1 3.6-1.2 11-4.9 7.5-3.7 18.5-8.4 24.5-10.4 6.1-2 10.3-3.6 9.5-3.6-0.8 0-4.6 1-8.5 2.3zm97-1.4c1.1 0.5 2.7 0.9 3.5 0.9 0.9 0 0.8-0.4-0.5-0.9-1.1-0.5-2.7-0.9-3.5-0.9-0.9 0-0.8 0.4 0.5 0.9zm141 1c1 1.1 2 2 2.3 2 0.3 0-0.3-0.9-1.3-2-1-1.1-2-2-2.3-2-0.3 0 0.3 0.9 1.3 2zm-134 1c2.7 1.2 4.3 1.2 2.5 0-0.8-0.5-2.2-0.9-3-0.9-1 0-0.8 0.3 0.5 0.9zm4.5 1.3c0.3 0.3 4.1 1.9 8.5 3.7 4.4 1.7 9.5 4 11.3 5.1 4.1 2.3 5.5 2.5 2.3 0.3-3.6-2.6-23.7-10.8-22.1-9.1zm148.3 21.7c9.2 11.8 18 23.1 19.7 25 3.6 4.1-5.8-8.5-21.6-29.1-6.2-8-12-15.2-13-16-1-0.8 5.8 8.3 14.9 20.1zm34.2-4.8c4.3 5.4 7.9 9.8 8.2 9.8 0.6 0-8.1-11-12.4-15.8-1.9-2 0 0.7 4.2 6zm-157.5-5.9c0 0.3 1.5 1.4 3.3 2.5 1.9 1.1 4.7 2.7 6.3 3.7l2.9 1.7-2.5-2c-2.9-2.4-10-6.6-10-5.9zm61.1 9.2c10.4 11 18.7 21.1 23.8 29.2 3.3 5.4 5.2 7.2 3 3-3.9-7.2-18.4-25-28-34.2l-8.3-8zm-241.6 1.6c-20.7 14.8-38.4 36-51 60.9-5.4 10.8-4.1 9.7 1.8-1.5 13.3-25.2 27.1-41.7 48-57.3 4-3 7.6-5.8 8.2-6.3 2.1-2-0.4-0.5-7 4.2zm193.5-2.7c0 0.2 0.8 1 1.8 1.7 1.5 1.3 1.6 1.2 0.3-0.4-1.3-1.6-2.1-2.1-2.1-1.3zm7 5.3c15.6 12.7 25.5 22.9 35.1 36.3 8.3 11.6 9 12.6 8.3 11-5.2-10.9-30.7-39.5-41.9-46.8-4.2-2.8-4.4-2.9-1.5-0.5zm147.3 4.9c0.9 1.1 1.7 2.3 1.7 2.6 0 0.3-4.9 4.5-11 9.3-6 4.9-11 9-11 9.3 0 0.2 0.6 0 1.3-0.5 1.2-0.9 16.3-13 20-15.9 2.2-1.8 2.2-2.7-0.5-5-2.3-1.9-2.3-1.9-0.5 0.2zm-256 5.4c0 2.5 0.2 3.5 0.4 2.2 0.2-1.2 0.2-3.2 0-4.5-0.2-1.2-0.4-0.2-0.4 2.3zm17.4-3.3l9.2 0.4 0.4 5.2 0.3 5.2 0.2-5.8 0.2-5.7-9.7 0.2-9.8 0.2zm-18.3 21.3c0 6.3 0.1 8.9 0.3 5.7 0.2-3.1 0.2-8.3 0-11.5-0.2-3.1-0.3-0.5-0.3 5.8zm27 6c0 8.5 0.2 12 0.3 7.7 0.2-4.2 0.2-11.2 0-15.5-0.1-4.2-0.3-0.7-0.3 7.8zm159.7 12.4c4.2 8.4 9.2 20.2 11.3 26.2 2 6 3.3 9.3 3 7.4-1.1-6.1-7.4-22-14-35.2-3.5-6.9-6.7-12.9-7.1-13.1-0.4-0.3 2.6 6.3 6.8 14.7zm-187.7 10.6c0 7.4 0.1 10.5 0.3 6.7 0.2-3.7 0.2-9.7 0-13.5-0.2-3.7-0.3-0.6-0.3 6.8zm156.1-5c0.9 1.6 1.8 3 2.1 3 0.2 0-0.2-1.4-1.1-3-0.9-1.7-1.8-3-2.1-3-0.2 0 0.2 1.3 1.1 3zm-332.5 5.5c-1.7 4.3-3 7.9-2.8 8.1 0.2 0.2 1.8-3.1 3.6-7.3 1.7-4.2 3-7.9 2.8-8.1-0.2-0.1-1.8 3.1-3.6 7.3zm203.4 7c0 7.7 0.2 10.7 0.3 6.7 0.2-4 0.2-10.3 0-14-0.2-3.7-0.3-0.4-0.3 7.3zm135.8 0.5c2.3 5 4.3 8.9 4.5 8.7 0.4-0.5-7.4-17.7-8.1-17.7-0.3 0 1.4 4.1 3.6 9z"/><path d="m71.6 182.5c-0.9 2.6-0.7 3.2 0.5 1.2 0.6-1 0.9-2.1 0.6-2.3-0.2-0.3-0.7 0.2-1.1 1.1zm-2 5c-0.9 2.6-0.7 3.2 0.5 1.2 0.6-1 0.9-2.1 0.6-2.3-0.2-0.3-0.7 0.2-1.1 1.1zm146.8 13.5c0 8 0.2 11.2 0.3 7.2 0.2-3.9 0.2-10.5 0-14.5-0.1-3.9-0.3-0.7-0.3 7.3zm169.1-10.5c0.4 1.1 1.9 6.2 3.3 11.3 1.5 5.2 2.8 9 2.9 8.5 0.4-1.2-4.5-18.2-5.8-20.2-0.9-1.3-0.9-1.2-0.4 0.4zm-351.4 1.1c0 1.1 0.3 1.4 0.6 0.6 0.3-0.7 0.2-1.6-0.1-1.9-0.3-0.4-0.6 0.2-0.5 1.3zm209.3 17.4c0 9.1 0.2 12.8 0.3 8.2 0.2-4.5 0.2-11.9 0-16.5-0.1-4.5-0.3-0.8-0.3 8.3z"/><path d="m31.7 200.7c-2.5 11.1-3.9 20-3.4 22q0.5 1.7 0.6-1.2c0.1-1.7 1.2-8.4 2.6-14.9 2.6-12.8 2.7-17.3 0.2-5.9zm33.3 0.8c-0.7 2.5-1 4.8-0.8 5.1 0.3 0.2 1.1-1.6 1.7-4.2 1.5-6.1 0.8-6.8-0.9-0.9zm355.6 0c0.4 2.2 1 5.6 1.5 7.5 0.6 2.6 0.7 2.2 0.2-2-0.3-3-0.9-6.4-1.4-7.5-0.6-1.3-0.7-0.6-0.3 2zm-358.5 12.8c-0.6 3.5-1.1 7.5-1 8.8 0.1 1.3 0.7-1.4 1.5-6 0.8-4.6 1.2-8.6 1-8.8-0.2-0.2-0.9 2.5-1.5 6zm330-1.3c0 0.8 0.4 3.3 1 5.5 0.6 2.2 1.4 14.3 1.9 27l0.8 23-0.3-23c-0.2-16.3-0.7-24.6-1.8-28.5-0.8-3-1.5-4.8-1.6-4zm31.1 2.5c0 1.6 0.2 2.2 0.5 1.2 0.2-0.9 0.2-2.3 0-3-0.3-0.6-0.5 0.1-0.5 1.8zm-208.2 13v10.4l-5.7 0.4-5.8 0.3 6.3 0.2 6.2 0.2v-11c0-6.1-0.2-11-0.5-11-0.3 0-0.5 4.7-0.5 10.5zm209.3-6c0 2.2 0.2 3 0.4 1.7 0.2-1.2 0.2-3 0-4-0.3-0.9-0.5 0.1-0.4 2.3zm-397 9.5c0 4.1 0.2 5.8 0.4 3.7 0.2-2 0.2-5.4 0-7.5-0.2-2-0.4-0.3-0.4 3.8zm33-1.5c0 2.7 0.2 3.8 0.4 2.2 0.2-1.5 0.2-3.7 0-5-0.2-1.2-0.4 0-0.4 2.8zm181.7 12.5c0 9.5 0.2 17.1 0.5 16.9 0.6-0.7 0.8-33 0.1-33.6-0.3-0.4-0.6 7.2-0.6 16.7zm183.3-11.5c0 2.7 0.2 3.8 0.4 2.2 0.2-1.5 0.2-3.7 0-5-0.2-1.2-0.4 0-0.4 2.8zm-365.9 14.5c0 5.8 0.1 8.1 0.3 5.2 0.2-2.8 0.2-7.6 0-10.5-0.2-2.8-0.3-0.5-0.3 5.3zm78.2-8.4c-0.3 0.9-0.5 6.1-0.4 11.7l0.2 10.2 0.5-11 0.6-11 6.5-0.6 6.5-0.6-6.6-0.1c-5.3-0.2-6.8 0.1-7.3 1.4zm21.2 0.1c3.4 0.2 8.8 0.2 12 0 3.1-0.2 0.3-0.3-6.3-0.3-6.6 0-9.2 0.1-5.7 0.3zm267.6 12.3c0 7.4 0.1 10.5 0.3 6.7 0.2-3.7 0.2-9.7 0-13.5-0.2-3.7-0.3-0.6-0.3 6.8zm-243.6-11.3c3.4 0.2 8.8 0.2 12 0 3.1-0.2 0.3-0.3-6.3-0.3-6.6 0-9.2 0.1-5.7 0.3zm-156.5 7.8c0 3.8 0.2 5.3 0.4 3.2 0.2-2 0.2-5.2 0-7-0.2-1.7-0.4-0.1-0.4 3.8zm0.8 14.6c0 3.5 0.4 8.2 0.8 10.4 0.6 2.6 0.7 0.5 0.3-6-0.6-11.4-1.2-13.9-1.1-4.4zm33.1 1.4c-0.1 2.7 0.5 7.9 1.3 11.5 1.2 5.5 1.3 5.7 0.8 1.5-0.3-2.8-0.9-7.9-1.3-11.5-0.7-6.3-0.7-6.3-0.8-1.5zm180.8 2.5c0 1.8-0.8 2-14.2 2.3l-14.3 0.3 14.8 0.2 14.7 0.2v-2.5c0-1.4-0.2-2.5-0.5-2.5-0.3 0-0.5 0.9-0.5 2zm-98.2-0.3c2.8 0.2 7.6 0.2 10.5 0 2.8-0.2 0.5-0.3-5.3-0.3-5.8 0-8.1 0.1-5.2 0.3zm282.5 3.3c0 2.5 0.2 3.5 0.4 2.2 0.2-1.2 0.2-3.2 0-4.5-0.2-1.2-0.4-0.2-0.4 2.3zm-251.8-2c8.3 0.4 19.7 0.7 25.5 0.7 10.3 0 10.2-0.1-3.5-0.8-7.7-0.3-19.2-0.6-25.5-0.6l-11.5 0.1zm221.5 5.2c0 0.5 1.8 0.8 4 0.8 2.2 0 4-0.2 4-0.4 0-0.2-1.8-0.6-4-0.8-2.2-0.2-4 0-4 0.4zm14.3 1.5c2.6 0.2 6.8 0.2 9.5 0 2.6-0.2 0.4-0.3-4.8-0.3-5.2 0-7.4 0.1-4.7 0.3zm-380.2 4.8c-0.1 2.3 2.8 16.7 3.5 17.4 0.8 0.8 0.3-2.3-1.6-10.9-1-4.7-1.9-7.6-1.9-6.5zm34.5 7c1.4 9.9 13.9 41.1 18.8 47 0.9 1.1-0.3-1.8-2.8-6.5-5.5-10.6-10.8-23.9-14.1-35.6-1.4-4.9-2.3-7.1-1.9-4.9zm276 23.2c-0.4 10.3-1.1 26.7-1.6 36.3-0.5 9.6-0.9 20.9-0.8 25 0.1 5.3 0.3 3.6 0.9-6 1.5-28.4 3.2-73.1 2.7-73.6-0.3-0.3-0.9 8-1.2 18.3zm9.2-18c2.9 0.2 7.4 0.2 10 0 2.6-0.2 0.2-0.3-5.3-0.3-5.5 0-7.6 0.1-4.7 0.3zm21.5 5.8c0 3.3 0.2 4.5 0.4 2.7 0.2-1.8 0.2-4.5 0-6-0.2-1.5-0.4 0-0.4 3.3zm-337.2 2.1c0 1.1 0.3 1.4 0.6 0.6 0.3-0.7 0.2-1.6-0.1-1.9-0.3-0.4-0.6 0.2-0.5 1.3zm0.9 3.1c-0.1 3.7 16.7 43.3 18.4 43.3 0.4 0-0.9-3-2.8-6.8-4.3-8.5-8-17.3-12.2-28.7-1.8-5-3.3-8.5-3.4-7.8zm335.4 12.8c0 6.6 0.1 9.2 0.3 5.7 0.2-3.4 0.2-8.8 0-12-0.2-3.1-0.3-0.3-0.3 6.3zm-1 24.5c0 6.9 0.1 9.7 0.3 6.2 0.2-3.4 0.2-9 0-12.5-0.2-3.4-0.3-0.6-0.3 6.3zm-283.9-3c1.5 2.7 9.6 14 10.1 14 0.3 0-1.6-3-4.2-6.8-4.9-6.9-7.4-10-5.9-7.2zm-30.1 12.7c0.9 1.7 2.1 3.5 2.7 3.9 1.3 0.8-0.1-2.1-2.6-5.1-1.5-1.9-1.5-1.8-0.1 1.2zm46.4 8.9c5.3 6.2 14.9 15.1 21.8 20.3 1.1 0.9-0.5-0.6-3.5-3.3-3.1-2.7-9.8-9.3-15-14.5-8.1-8.3-8.6-8.6-3.3-2.5zm266.2 3.2c0 4.4-0.3 11.3-0.6 15.5l-0.7 7.7 9.4-0.2 9.4-0.2-8.7-0.3-8.6-0.4 0.5-14.9c0.3-8.3 0.3-15 0-15-0.4 0-0.7 3.5-0.7 7.8zm-308.5-5.8c1.5 2.6 11.5 16 12 16 0.3 0-2-3.5-5.1-7.8-5.8-7.9-8.4-11-6.9-8.2zm16.6 21.5c2.4 2.7 6.4 7.1 8.9 9.8 4.9 5.4 22 19.7 27.8 23.4 3.6 2.3 3.6 2.3 0.8 0.1-15.7-12.4-20.6-16.7-30.5-26.7-6.3-6.4-9.5-9.4-7-6.6zm171.2 7c0 3.3 0.2 4.5 0.4 2.7 0.2-1.8 0.2-4.5 0-6-0.2-1.5-0.4 0-0.4 3.3zm4.5-4.8c1.7 0.2 4.7 0.2 6.5 0 1.7-0.2 0.3-0.4-3.3-0.4-3.6 0-5 0.2-3.2 0.4zm24.7 1.4c7.7 0.3 18.3 0.6 23.5 0.6 9 0 8.9-0.1-3.5-0.8-7.1-0.3-17.7-0.6-23.5-0.6-10.4 0-10.3 0.1 3.5 0.8zm60.7 0.9c0 1.4 0.2 1.9 0.5 1.2 0.2-0.6 0.2-1.8 0-2.5-0.3-0.6-0.5-0.1-0.5 1.3zm-210.2-0.6c0 0.7 9.2 7 14.5 10.1 2.8 1.6 4.8 2.6 4.5 2.3-0.8-1-19-12.8-19-12.4zm188.8 1.3c3.4 0.2 9 0.2 12.5 0 3.4-0.2 0.6-0.3-6.3-0.3-6.9 0-9.7 0.1-6.2 0.3zm84.7 3.3c12.3 0.8 32.1 1.2 31.4 0.6-0.2-0.2-9.8-0.6-21.4-0.8-13.8-0.4-17.2-0.3-10 0.2zm46.8 1.7l10.7 0.4v3.3c0 1.8-0.3 8.1-0.6 13.9l-0.7 10.6-6.4 0.4-6.3 0.3h6.7l6.8-0.1 0.9-13.2c0.5-7.2 0.6-13.9 0.3-14.7-0.5-1.3-2.4-1.6-11.4-1.4l-10.8 0.2zm-200.9 11.8c0 4.9 0.1 7.1 0.3 4.8 0.2-2.3 0.2-6.4 0-9-0.2-2.6-0.3-0.8-0.3 4.2zm-97.4-3.9c0 0.7 15.9 8 19 8.8l2.5 0.6-2.5-1.2c-11.3-5.3-19-8.6-19-8.2zm23 10.4c0.8 0.5 2.2 0.9 3 0.9 1 0 0.8-0.3-0.5-0.9-2.7-1.2-4.3-1.2-2.5 0zm8.5 2.5c2.2 0.8 4.9 1.3 6 1.3 1.1 0-0.2-0.6-3-1.4-6.3-1.7-8.4-1.6-3 0.1zm76.8 0.2c3.7 0.2 9.7 0.2 13.5 0 3.7-0.2 0.6-0.3-6.8-0.3-7.4 0-10.5 0.1-6.7 0.3zm34.7 1.3c8 0.5 20.9 1.2 28.8 1.6l14.3 0.6-0.7 19.7c-0.3 10.8-0.4 19.4-0.2 19.1 0.3-0.3 0.9-9.3 1.3-20.1l0.7-19.6-12.9-0.6c-7-0.4-20.2-0.9-29.3-1.1l-16.5-0.5zm-101 1c1.4 0.4 3.4 0.8 4.5 0.8 1.6 0 1.5-0.2-0.5-0.8-1.4-0.4-3.4-0.8-4.5-0.8-1.6 0-1.5 0.2 0.5 0.8zm8.3 1.7c0.9 0.2 2.3 0.2 3 0 0.6-0.3-0.1-0.5-1.8-0.5-1.6 0-2.2 0.2-1.2 0.5zm167.1 0.6c-0.3 0.8-0.3 5.6-0.1 10.8l0.3 9.4 0.2-10.2 0.2-10.2 3.3-0.4 3.2-0.4-3.3-0.1c-1.9-0.1-3.5 0.3-3.8 1.1zm-249 0.5c2.2 3.6 42.2 23.3 47 23.2 0.6-0.1-3.6-2-9.4-4.4-12.2-4.9-22.3-10-31.6-15.7-3.6-2.2-6.3-3.6-6-3.1zm88.4-0.1c1.2 0.2 3 0.2 4 0 0.9-0.3-0.1-0.5-2.3-0.4-2.2 0-3 0.2-1.7 0.4zm176.5 0c3.1 0.2 8.3 0.2 11.5 0 3.1-0.2 0.5-0.3-5.8-0.3-6.3 0-8.9 0.1-5.7 0.3zm-167.5 1c1.8 0.2 4.5 0.2 6 0 1.5-0.2 0-0.4-3.3-0.4-3.3 0-4.5 0.2-2.7 0.4zm185.3-0.3c0.2 0.2 9.9 0.6 21.4 0.9 14.1 0.3 17.4 0.2 10-0.3-12.1-0.8-32.1-1.2-31.4-0.6zm-172.9 1.3l3.7 0.4 0.4 8.2 0.3 8.2 0.2-8.8 0.2-8.7-4.2 0.2-4.3 0.1zm2.8 24.7v6.5l-4.2 0.4-4.3 0.4 4.8 0.1 4.7 0.2v-7c0-3.9-0.2-7-0.5-7-0.3 0-0.5 2.9-0.5 6.4zm134.6 16.4c-0.5 12.8-0.6 23.6-0.3 23.8 0.6 0.7 2.1-44 1.5-45.7-0.3-0.8-0.8 9.1-1.2 21.9zm-197.1-18.8c1.1 0.5 2.7 0.9 3.5 0.9 0.9 0 0.8-0.4-0.5-0.9-1.1-0.5-2.7-0.9-3.5-0.9-0.9 0-0.8 0.4 0.5 0.9zm6.3 1.7c0.7 0.3 1.6 0.2 1.9-0.1 0.4-0.3-0.2-0.6-1.3-0.5-1.1 0-1.4 0.3-0.6 0.6zm4.7 1.3c1.1 0.5 2.7 0.9 3.5 0.9 0.9 0 0.8-0.4-0.5-0.9-1.1-0.5-2.7-0.9-3.5-0.9-0.9 0-0.8 0.4 0.5 0.9zm8.2 2c1.3 0.5 4.6 1.2 7.5 1.4 5.2 0.6 5.2 0.5-1.2-0.9-7.5-1.6-9.4-1.8-6.3-0.5zm15.1 2.7c1.2 0.2 3.2 0.2 4.5 0 1.2-0.2 0.2-0.4-2.3-0.4-2.5 0-3.5 0.2-2.2 0.4zm10.5 1c1.5 0.2 3.9 0.2 5.5 0 1.5-0.2 0.2-0.4-2.8-0.4-3 0-4.3 0.2-2.7 0.4zm121.1 16.8c0 6.6 0.1 9.2 0.3 5.7 0.2-3.4 0.2-8.8 0-12-0.2-3.1-0.3-0.3-0.3 6.3zm-1 24c0 6 0.1 8.4 0.3 5.2 0.2-3.2 0.2-8.1 0-11-0.2-2.9-0.3-0.3-0.3 5.8zm31 4.5c0 5.2 0.1 7.4 0.3 4.7 0.2-2.6 0.2-6.8 0-9.5-0.2-2.6-0.3-0.4-0.3 4.8zm-32.4 7.9c0 0.6 0.4 1.3 1 1.6 0.6 0.3 0.7-0.1 0.4-0.9-0.7-1.8-1.4-2.1-1.4-0.7zm10.3 2.8c3.1 0.2 8.3 0.2 11.5 0 3.1-0.2 0.5-0.3-5.8-0.3-6.3 0-8.9 0.1-5.7 0.3z"/><path d="m116.4 23.2l-1.9 2.3 2.3-1.9c2.1-1.8 2.7-2.6 1.9-2.6-0.2 0-1.2 1-2.3 2.2zm-14.5 15.5c-1.3 1.6-1.2 1.7 0.4 0.4 0.9-0.7 1.7-1.5 1.7-1.7 0-0.8-0.8-0.3-2.1 1.3zm116.9 41c0.6 0.2 1.8 0.2 2.5 0 0.6-0.3 0.1-0.5-1.3-0.5-1.4 0-1.9 0.2-1.2 0.5zm-196.8 38.3c-0.9 0.6-1 1-0.3 1 0.6 0 1.5-0.5 1.8-1 0.8-1.2 0.4-1.2-1.5 0zm92.9 2.7c-1.3 1.6-1.2 1.7 0.4 0.4 0.9-0.7 1.7-1.5 1.7-1.7 0-0.8-0.8-0.3-2.1 1.3zm109.9 0c0.7 0.3 1.6 0.2 1.9-0.1 0.4-0.3-0.2-0.6-1.3-0.5-1.1 0-1.4 0.3-0.6 0.6zm-6.2 9c-0.6 1.4-0.5 1.5 0.5 0.6 0.7-0.7 1-1.5 0.7-1.8-0.3-0.3-0.9 0.2-1.2 1.2zm26.4 1.9c0 0.8 0.5 1.2 1 0.9 0.6-0.4 0.8-1.1 0.5-1.6-0.9-1.4-1.5-1.1-1.5 0.7zm-26.9 23c0 1.1 0.3 1.4 0.6 0.6 0.3-0.7 0.2-1.6-0.1-1.9-0.3-0.4-0.6 0.2-0.5 1.3zm25.9 9c0 0.8 0.5 1.2 1 0.9 0.6-0.4 0.8-1.1 0.5-1.6-0.9-1.4-1.5-1.1-1.5 0.7zm-26.8 22.4c0 1.4 0.2 1.9 0.5 1.2 0.2-0.6 0.2-1.8 0-2.5-0.3-0.6-0.5-0.1-0.5 1.3zm25.8 5.7c0 0.4 0.5 1.5 1 2.3 0.8 1.3 1 1.3 1-0.2 0-0.9-0.4-2-1-2.3-0.5-0.3-1-0.3-1 0.2zm-1 32.5c0 0.9 0.5 2 1 2.3 1.3 0.8 1.3-0.5 0-2.5-0.8-1.3-1-1.3-1 0.2zm-104.4 14.1c0.3 1 0.9 1.5 1.2 1.2 0.3-0.3 0-1.1-0.7-1.8-1-0.9-1.1-0.8-0.5 0.6zm63.2 1.4c0.6 0.2 1.8 0.2 2.5 0 0.6-0.3 0.1-0.5-1.3-0.5-1.4 0-1.9 0.2-1.2 0.5zm40.2 20.4c0 1.1 0.4 1.8 1 1.4 0.5-0.3 0.7-1.2 0.3-2-0.7-2.1-1.3-1.9-1.3 0.6zm-56.5 5.9c-0.3 0.6 0.1 0.7 0.9 0.4 1.8-0.7 2.1-1.4 0.7-1.4-0.6 0-1.3 0.4-1.6 1zm26.3 0.7c0.7 0.3 1.6 0.2 1.9-0.1 0.4-0.3-0.2-0.6-1.3-0.5-1.1 0-1.4 0.3-0.6 0.6zm192.7 5.3c0.3 0.5 0.8 1 1.1 1 0.2 0 0.4-0.5 0.4-1 0-0.6-0.5-1-1.1-1-0.5 0-0.7 0.4-0.4 1zm-37.5 18l-2.5 0.8 2.5 0.1c1.4 0 3.2-0.4 4-0.9 1.3-0.9 1.3-1 0-0.9-0.8 0.1-2.6 0.5-4 0.9zm-28 42.5c0 0.5 0.5 1.7 1 2.5 0.5 0.8 1 1 1 0.5 0-0.6-0.5-1.7-1-2.5-0.5-0.8-1-1.1-1-0.5zm29.1 17.1c0 1.1 0.3 1.4 0.6 0.6 0.3-0.7 0.2-1.6-0.1-1.9-0.3-0.4-0.6 0.2-0.5 1.3zm-1 22c0 1.1 0.3 1.4 0.6 0.6 0.3-0.7 0.2-1.6-0.1-1.9-0.3-0.4-0.6 0.2-0.5 1.3zm-28.9 6.9c0 1.6 0.2 2.2 0.5 1.2 0.2-0.9 0.2-2.3 0-3-0.3-0.6-0.5 0.1-0.5 1.8zm-29.7 1.5c-0.3 0.5-0.1 1 0.4 1 0.6 0 1.1-0.5 1.1-1 0-0.6-0.2-1-0.4-1-0.3 0-0.8 0.4-1.1 1zm-224.5 3.4c0 0.2 0.8 1 1.8 1.7 1.5 1.3 1.6 1.2 0.3-0.4-1.3-1.6-2.1-2.1-2.1-1.3zm349.3 2.3c0.9 0.2 2.3 0.2 3 0 0.6-0.3-0.1-0.5-1.8-0.5-1.6 0-2.2 0.2-1.2 0.5zm-186.8 3.3c0.3 0.5 0.8 1 1.1 1 0.2 0 0.4-0.5 0.4-1 0-0.6-0.5-1-1.1-1-0.5 0-0.7 0.4-0.4 1zm3 17c-0.8 1.3 0.5 1.3 2.5 0 1.3-0.8 1.3-1-0.2-1-0.9 0-2 0.4-2.3 1zm27 1c-0.3 0.5-0.2 1 0.4 1 0.5 0 1.3-0.5 1.6-1 0.3-0.6 0.2-1-0.4-1-0.5 0-1.3 0.4-1.6 1zm97.8 3.7c0.9 0.2 2.5 0.2 3.5 0 0.9-0.3 0.1-0.5-1.8-0.5-1.9 0-2.7 0.2-1.7 0.5zm24.7 1.3c0 0.5 0.7 0.7 1.5 0.4 0.8-0.4 1.5-0.8 1.5-1 0-0.2-0.7-0.4-1.5-0.4-0.8 0-1.5 0.4-1.5 1zm-34 19c0 0.5 0.5 1 1.1 1 0.5 0 0.7-0.5 0.4-1-0.3-0.6-0.8-1-1.1-1-0.2 0-0.4 0.4-0.4 1zm-1 24.9c0 0.6 0.4 1.3 1 1.6 0.6 0.3 0.7-0.1 0.4-0.9-0.7-1.8-1.4-2.1-1.4-0.7zm-30.5 44.1c-0.3 0.6 0.1 0.7 0.9 0.4 1.8-0.7 2.1-1.4 0.7-1.4-0.6 0-1.3 0.4-1.6 1z" fill="rgb(85, 85, 85)"/><path d="m382 2.9c0 0.6 0.4 1.3 1 1.6 0.6 0.3 0.7-0.1 0.4-0.9-0.7-1.8-1.4-2.1-1.4-0.7zm-312.6 28.3l-1.9 2.3 2.3-1.9c1.2-1.1 2.2-2.1 2.2-2.3 0-0.8-0.8-0.2-2.6 1.9zm-8 8l-1.9 2.3 2.3-1.9c1.2-1.1 2.2-2.1 2.2-2.3 0-0.8-0.8-0.2-2.6 1.9zm-8.5 8.5l-2.4 2.8 2.8-2.4c1.5-1.4 2.7-2.6 2.7-2.8 0-0.8-0.8-0.1-3.1 2.4zm-8.4 8.5l-4 4.3 4.3-4c3.9-3.6 4.7-4.5 3.9-4.5-0.2 0-2.1 1.9-4.2 4.2zm-7.6 7.5l-2.4 2.8 2.8-2.4c1.5-1.4 2.7-2.6 2.7-2.8 0-0.8-0.8-0.1-3.1 2.4zm32 6c-1.3 1.6-1.2 1.7 0.4 0.4 0.9-0.7 1.7-1.5 1.7-1.7 0-0.8-0.8-0.3-2.1 1.3zm169.9 10c0.7 0.3 1.6 0.2 1.9-0.1 0.4-0.3-0.2-0.6-1.3-0.5-1.1 0-1.4 0.3-0.6 0.6zm215.2 13.7c0 0.2 0.8 1 1.8 1.7 1.5 1.3 1.6 1.2 0.3-0.4-1.3-1.6-2.1-2.1-2.1-1.3zm-412.1 3.3c-1.3 1.6-1.2 1.7 0.4 0.4 0.9-0.7 1.7-1.5 1.7-1.7 0-0.8-0.8-0.3-2.1 1.3zm52 3c-1.3 1.6-1.2 1.7 0.4 0.4 0.9-0.7 1.7-1.5 1.7-1.7 0-0.8-0.8-0.3-2.1 1.3zm240.1 17.7c0 0.2 0.8 1 1.8 1.7 1.5 1.3 1.6 1.2 0.3-0.4-1.3-1.6-2.1-2.1-2.1-1.3zm-225.6 8.8l-1.9 2.3 2.3-1.9c2.1-1.8 2.7-2.6 1.9-2.6-0.2 0-1.2 1-2.3 2.2zm136.7-0.6c0 1.1 0.3 1.4 0.6 0.6 0.3-0.7 0.2-1.6-0.1-1.9-0.3-0.4-0.6 0.2-0.5 1.3zm101.4 3.4c1 1.1 2 2 2.3 2 0.3 0-0.3-0.9-1.3-2-1-1.1-2-2-2.3-2-0.3 0 0.3 0.9 1.3 2zm-127.4 5.6c0 1.1 0.3 1.4 0.6 0.6 0.3-0.7 0.2-1.6-0.1-1.9-0.3-0.4-0.6 0.2-0.5 1.3zm-0.9 28.4c0 1.9 0.2 2.7 0.5 1.7 0.2-0.9 0.2-2.5 0-3.5-0.3-0.9-0.5-0.1-0.5 1.8zm24.9 20.6c0 1.1 0.3 1.4 0.6 0.6 0.3-0.7 0.2-1.6-0.1-1.9-0.3-0.4-0.6 0.2-0.5 1.3zm-26 10c0 1.1 0.3 1.4 0.6 0.6 0.3-0.7 0.2-1.6-0.1-1.9-0.3-0.4-0.6 0.2-0.5 1.3zm25 23c0 1.1 0.3 1.4 0.6 0.6 0.3-0.7 0.2-1.6-0.1-1.9-0.3-0.4-0.6 0.2-0.5 1.3zm-26 12c0 1.1 0.3 1.4 0.6 0.6 0.3-0.7 0.2-1.6-0.1-1.9-0.3-0.4-0.6 0.2-0.5 1.3zm-47.3 10.1c0.7 0.3 1.6 0.2 1.9-0.1 0.4-0.3-0.2-0.6-1.3-0.5-1.1 0-1.4 0.3-0.6 0.6zm-30.6 7.8c0 1.6 0.2 2.2 0.5 1.2 0.2-0.9 0.2-2.3 0-3-0.3-0.6-0.5 0.1-0.5 1.8zm287.1 1c0 2.2 0.2 3 0.4 1.7 0.2-1.2 0.2-3 0-4-0.3-0.9-0.5 0.1-0.4 2.3zm-29.1-0.5c0 1.4 0.2 1.9 0.5 1.2 0.2-0.6 0.2-1.8 0-2.5-0.3-0.6-0.5-0.1-0.5 1.3zm29 10c0 1.4 0.2 1.9 0.5 1.2 0.2-0.6 0.2-1.8 0-2.5-0.3-0.6-0.5-0.1-0.5 1.3zm-260.4 7.7c0.7 0.3 1.6 0.2 1.9-0.1 0.4-0.3-0.2-0.6-1.3-0.5-1.1 0-1.4 0.3-0.6 0.6zm27 1c0.6 0.2 1.8 0.2 2.5 0 0.6-0.3 0.1-0.5-1.3-0.5-1.4 0-1.9 0.2-1.2 0.5zm30.5 1c0.9 0.2 2.3 0.2 3 0 0.6-0.3-0.1-0.5-1.8-0.5-1.6 0-2.2 0.2-1.2 0.5zm194.5 5c0.7 0.3 1.6 0.2 1.9-0.1 0.4-0.3-0.2-0.6-1.3-0.5-1.1 0-1.4 0.3-0.6 0.6zm-76.6 42.3c0 1.4 0.2 1.9 0.5 1.2 0.2-0.6 0.2-1.8 0-2.5-0.3-0.6-0.5-0.1-0.5 1.3zm28 4.5c0 1.6 0.2 2.2 0.5 1.2 0.2-0.9 0.2-2.3 0-3-0.3-0.6-0.5 0.1-0.5 1.8zm-29.1 21.1c0 1.1 0.3 1.4 0.6 0.6 0.3-0.7 0.2-1.6-0.1-1.9-0.3-0.4-0.6 0.2-0.5 1.3zm28.1 2.4c0 1.4 0.2 1.9 0.5 1.2 0.2-0.6 0.2-1.8 0-2.5-0.3-0.6-0.5-0.1-0.5 1.3zm-29.1 19.6c0 1.1 0.3 1.4 0.6 0.6 0.3-0.7 0.2-1.6-0.1-1.9-0.3-0.4-0.6 0.2-0.5 1.3zm-231.1 2.8c0 0.2 0.8 1 1.8 1.7 1.5 1.3 1.6 1.2 0.3-0.4-1.3-1.6-2.1-2.1-2.1-1.3zm172.8 15.3c0.7 0.3 1.6 0.2 1.9-0.1 0.4-0.3-0.2-0.6-1.3-0.5-1.1 0-1.4 0.3-0.6 0.6zm20 1c0.7 0.3 1.6 0.2 1.9-0.1 0.4-0.3-0.2-0.6-1.3-0.5-1.1 0-1.4 0.3-0.6 0.6zm30 1c0.7 0.3 1.6 0.2 1.9-0.1 0.4-0.3-0.2-0.6-1.3-0.5-1.1 0-1.4 0.3-0.6 0.6zm50 2c0.7 0.3 1.6 0.2 1.9-0.1 0.4-0.3-0.2-0.6-1.3-0.5-1.1 0-1.4 0.3-0.6 0.6zm21 1c0.6 0.2 1.8 0.2 2.5 0 0.6-0.3 0.1-0.5-1.3-0.5-1.4 0-1.9 0.2-1.2 0.5zm50 2c1.2 0.2 3 0.2 4 0 0.9-0.3-0.1-0.5-2.3-0.4-2.2 0-3 0.2-1.7 0.4zm5.4 5.3c0 1.4 0.2 1.9 0.5 1.2 0.2-0.6 0.2-1.8 0-2.5-0.3-0.6-0.5-0.1-0.5 1.3zm-130.4 16.7c0.7 0.3 1.6 0.2 1.9-0.1 0.4-0.3-0.2-0.6-1.3-0.5-1.1 0-1.4 0.3-0.6 0.6zm9.3 3.9c0 1.1 0.3 1.4 0.6 0.6 0.3-0.7 0.2-1.6-0.1-1.9-0.3-0.4-0.6 0.2-0.5 1.3zm68.7-0.9c0.7 0.3 1.6 0.2 1.9-0.1 0.4-0.3-0.2-0.6-1.3-0.5-1.1 0-1.4 0.3-0.6 0.6zm43 2c0.7 0.3 1.6 0.2 1.9-0.1 0.4-0.3-0.2-0.6-1.3-0.5-1.1 0-1.4 0.3-0.6 0.6zm-217.6 10.3c0 1.4 0.2 1.9 0.5 1.2 0.2-0.6 0.2-1.8 0-2.5-0.3-0.6-0.5-0.1-0.5 1.3zm134.9-0.4c0 1.1 0.3 1.4 0.6 0.6 0.3-0.7 0.2-1.6-0.1-1.9-0.3-0.4-0.6 0.2-0.5 1.3zm-1 28c0 1.1 0.3 1.4 0.6 0.6 0.3-0.7 0.2-1.6-0.1-1.9-0.3-0.4-0.6 0.2-0.5 1.3zm-1.9 44.9c0 1.6 0.2 2.2 0.5 1.2 0.2-0.9 0.2-2.3 0-3-0.3-0.6-0.5 0.1-0.5 1.8z" fill="rgb(212, 212, 212)"/><path d="m51.2 49.7c-27.1 26.9-49.2 49.2-49.2 49.5 0 0.3 4.5 4.7 10 9.8l10 9.2 8.1-8.9c4.5-4.8 26.7-27.1 49.2-49.4 37.3-36.9 41-40.9 39.7-42.4-0.8-1-4.8-4.5-9-7.8-4.1-3.4-8-6.8-8.6-7.5-0.8-1.1-11.3 8.7-50.2 47.5zm321.7-39.6c-4.6 3.9-9.2 7.7-10.2 8.4-1.7 1.2-0.7 2.8 12.8 19.6 8.1 10.1 15.4 19.3 16.3 20.4 1 1.1 3.1 3.8 4.7 6 1.6 2.2 9.7 12.5 18 23 15.5 19.6 22.3 28.3 33.5 42.9l6.4 8.4 3.1-2.1c1.6-1.1 3.2-2.4 3.5-2.7 0.3-0.3 3.8-3.2 7.8-6.4 3.9-3.2 7.2-6.2 7.2-6.6 0-0.8-13.7-18.3-21.7-27.6-2.4-2.9-5.3-6.5-6.6-8.2-3.6-4.9-65.7-82.2-66-82.2-0.2 0-4.1 3.2-8.8 7.1zm-163.4 41.6c-20.3 2.4-29.1 4.1-43.5 8.3-30.7 9.2-57.1 25.2-81.6 49.5-17 16.9-26.9 30.6-36.8 50.9-13.2 27-19.6 55.2-19.6 86.3 0 59.5 25.5 112.9 72.5 151.8 22.3 18.4 46 30.7 74.1 38.5 17.6 4.8 52.1 9.1 53.6 6.7 0.4-0.7 0.8-4.8 0.8-9.3 0-4.5 0.3-10.8 0.6-14.1l0.6-5.9-13.8-1.2c-38.4-3.1-67.7-14.6-96.9-38.1-23.9-19.2-41.9-45.3-52.1-75.5-1.9-5.5-4.1-13.4-5-17.5-1.9-9-4.3-33-3.9-38 0.2-2 0.6-7 1-11.1 3.3-39.8 20.8-78.7 47.4-105 47.8-47.3 119.5-61.8 182.9-37.1 43.7 17 82.1 57.3 97.9 102.6 6.8 19.7 9.3 38.3 8.5 63.7l-0.4 13.8 7.8 0.1c4.4 0.1 10.7 0.3 14.1 0.5 3.5 0.1 6.5-0.2 6.8-0.7 0.4-0.5 0.6-9.4 0.6-19.8 0-29.5-4-52.1-13.4-75.1-15.8-39.1-39.7-68.7-74.3-92-10.7-7.3-33.4-18.4-45.4-22.3-14-4.6-32.9-8.5-47-9.7-10.9-0.9-29-1.1-35.5-0.3z" fill="rgb(255, 255, 255)"/><path d="m219.6 134.7c-0.3 7.6-1.1 29.5-1.6 48.8-0.6 19.2-1.3 40-1.6 46.2l-0.6 11.2-2.6-0.4c-1.5-0.3-15.7-1-31.7-1.6-15.9-0.5-32-1.2-35.7-1.4l-6.6-0.3-0.7 12.5c-0.6 10.1-0.5 12.7 0.6 13.4 0.8 0.5 4.8 0.9 8.9 0.9 4.1 0 26.6 0.7 49.9 1.5 23.3 0.9 42.5 1.5 42.6 1.3 0.5-0.5 2-44.8 4.1-120.8 0.3-11.3 0.7-21.5 1-22.7 0.4-2.1 0.2-2.1-12.5-2.2l-12.8-0.1zm121.5 164c-0.1 4.9-0.6 18.2-1.1 29.8-0.5 11.5-1.2 28.3-1.6 37.3l-0.7 16.3-13.1-0.5c-30.4-1.4-59.7-2.6-68.1-2.8l-9-0.3-0.8 12.9c-0.4 7.1-0.6 13.1-0.4 13.2 0.2 0.2 16.7 1 36.8 1.9 20 0.8 40.1 1.8 44.7 2.1l8.3 0.6-0.5 5.6c-0.3 3.2-0.8 10.9-1.1 17.2-2 45.3-2.7 66.1-2.3 66.5 0.3 0.3 6.8 0.8 14.5 1.2l14.1 0.6 0.6-6.4c0.3-3.5 1-18.3 1.6-32.9 0.5-14.6 1.3-32.1 1.6-38.9l0.6-12.4 17.7 0.7c9.7 0.4 29.8 1.3 44.6 2.1 14.9 0.7 27.3 1 27.6 0.7 0.4-0.4 0.9-6.6 1.1-13.7l0.3-13-7.5-0.2c-35-1-82.1-3.2-82.9-3.9-0.2-0.2 0.1-12.8 0.8-28.1 0.6-15.3 1.4-34.8 1.7-43.3 0.3-8.5 0.7-16.4 0.9-17.6 0.4-2-0.1-2.1-9.3-2.7-5.3-0.4-11.8-0.7-14.3-0.7h-4.6z" fill="rgb(255, 255, 255)"/><path d="m62 76.5c-2.4 2.5-4.2 4.5-3.9 4.5 0.3 0 2.5-2 4.9-4.5 2.4-2.5 4.2-4.5 3.9-4.5-0.3 0-2.5 2-4.9 4.5zm-33.6 34.7l-2.9 3.3 3.3-2.9c3-2.8 3.7-3.6 2.9-3.6-0.2 0-1.6 1.5-3.3 3.2zm344.6 3.2c0 0.2 0.8 1 1.8 1.7 1.5 1.3 1.6 1.2 0.3-0.4-1.3-1.6-2.1-2.1-2.1-1.3zm-129.8 72.6c0 1.4 0.2 1.9 0.5 1.2 0.2-0.6 0.2-1.8 0-2.5-0.3-0.6-0.5-0.1-0.5 1.3zm-26.1 3.6c0 1.1 0.3 1.4 0.6 0.6 0.3-0.7 0.2-1.6-0.1-1.9-0.3-0.4-0.6 0.2-0.5 1.3zm25.1 29.4c0 1.4 0.2 1.9 0.5 1.2 0.2-0.6 0.2-1.8 0-2.5-0.3-0.6-0.5-0.1-0.5 1.3zm-26 5c0 1.4 0.2 1.9 0.5 1.2 0.2-0.6 0.2-1.8 0-2.5-0.3-0.6-0.5-0.1-0.5 1.3zm208.9 15.6c0 1.1 0.3 1.4 0.6 0.6 0.3-0.7 0.2-1.6-0.1-1.9-0.3-0.4-0.6 0.2-0.5 1.3zm-287 2c0 1.1 0.3 1.4 0.6 0.6 0.3-0.7 0.2-1.6-0.1-1.9-0.3-0.4-0.6 0.2-0.5 1.3zm-110.8 6.9c0 2.2 0.2 3 0.4 1.7 0.2-1.2 0.2-3 0-4-0.3-0.9-0.5 0.1-0.4 2.3zm397.8 11.1c0 1.1 0.3 1.4 0.6 0.6 0.3-0.7 0.2-1.6-0.1-1.9-0.3-0.4-0.6 0.2-0.5 1.3zm-208.8 6.1c0.9 0.2 2.3 0.2 3 0 0.6-0.3-0.1-0.5-1.8-0.5-1.6 0-2.2 0.2-1.2 0.5zm191.5 5c0.7 0.3 1.6 0.2 1.9-0.1 0.4-0.3-0.2-0.6-1.3-0.5-1.1 0-1.4 0.3-0.6 0.6zm-41.7 95.9c0 1.1 0.3 1.4 0.6 0.6 0.3-0.7 0.2-1.6-0.1-1.9-0.3-0.4-0.6 0.2-0.5 1.3zm16.7 16.1c0.7 0.3 1.6 0.2 1.9-0.1 0.4-0.3-0.2-0.6-1.3-0.5-1.1 0-1.4 0.3-0.6 0.6zm-136.7 8.9c0 1.1 0.3 1.4 0.6 0.6 0.3-0.7 0.2-1.6-0.1-1.9-0.3-0.4-0.6 0.2-0.5 1.3zm135.7 18.1c0.7 0.3 1.6 0.2 1.9-0.1 0.4-0.3-0.2-0.6-1.3-0.5-1.1 0-1.4 0.3-0.6 0.6zm-17.7 15.9c0 1.1 0.3 1.4 0.6 0.6 0.3-0.7 0.2-1.6-0.1-1.9-0.3-0.4-0.6 0.2-0.5 1.3zm-134.9 1.4c0 1.4 0.2 1.9 0.5 1.2 0.2-0.6 0.2-1.8 0-2.5-0.3-0.6-0.5-0.1-0.5 1.3zm132.9 48.6c0 1.1 0.3 1.4 0.6 0.6 0.3-0.7 0.2-1.6-0.1-1.9-0.3-0.4-0.6 0.2-0.5 1.3z" fill="rgb(170, 170, 170)"/><path d="m48.9 89.7l-2.4 2.8 2.8-2.4c1.5-1.4 2.7-2.6 2.7-2.8 0-0.8-0.8-0.1-3.1 2.4zm195.2 70.9c0 1.1 0.3 1.4 0.6 0.6 0.3-0.7 0.2-1.6-0.1-1.9-0.3-0.4-0.6 0.2-0.5 1.3zm-27.9 59.4c0 1.4 0.2 1.9 0.5 1.2 0.2-0.6 0.2-1.8 0-2.5-0.3-0.6-0.5-0.1-0.5 1.3zm-189.1 23.6c0 1.1 0.3 1.4 0.6 0.6 0.3-0.7 0.2-1.6-0.1-1.9-0.3-0.4-0.6 0.2-0.5 1.3zm342.1 55.4c0 1.4 0.2 1.9 0.5 1.2 0.2-0.6 0.2-1.8 0-2.5-0.3-0.6-0.5-0.1-0.5 1.3zm-271.2 55.4c0 0.2 0.8 1 1.8 1.7 1.5 1.3 1.6 1.2 0.3-0.4-1.3-1.6-2.1-2.1-2.1-1.3zm280.8 56.3c0.7 0.3 1.6 0.2 1.9-0.1 0.4-0.3-0.2-0.6-1.3-0.5-1.1 0-1.4 0.3-0.6 0.6zm-43 89c0.7 0.3 1.6 0.2 1.9-0.1 0.4-0.3-0.2-0.6-1.3-0.5-1.1 0-1.4 0.3-0.6 0.6z" fill="rgb(128, 128, 128)"/></svg>