<svg xmlns="http://www.w3.org/2000/svg" viewBox="0 0 498 543" width="32" height="32"><path d="m235.1 1c-17.8 3.8-34.3 13.4-45.1 26.2-7.5 8.9-15.3 24.5-17.5 35.1l-1.7 7.8-10.2 4.8c-23.3 11-40.9 23.2-58.7 41-6.9 6.9-15.5 16.6-19.2 21.6-12.4 16.6-23.4 40.2-28.7 61.3-5.2 20.7-5.2 22-5.7 99.9-0.3 48.9-0.8 73.3-1.4 73.3-2.6 0-16.5 6.3-21.8 9.9-27.1 18.4-33.1 53.5-13 76.7 7.4 8.6 14.5 13.4 25.8 17.7 5.4 2.1 7.5 2.2 68.4 2.7l62.9 0.5 2.2 7c10.1 31.5 39.1 54.1 72.2 56.2 31.6 2 60.2-13.4 77.2-41.7 1.1-2 3.4-7.6 5.1-12.5l3-9 62.3-0.5c56.6-0.5 62.8-0.7 67.8-2.4 21.6-7.1 35.8-23.5 38.3-44.1 2.1-16.4-2.2-29-13.8-41.4-7.7-8.1-15.7-13.2-25.6-16.4l-6.7-2.2-0.5-71.5c-0.3-61.1-0.6-73-2.1-81.5-6.9-40.8-22.3-71.6-50.6-100.9-18.1-18.7-35.9-31.6-59.2-42.6l-13.3-6.3-1.7-8.6c-3.1-15.9-14.4-34.2-27.6-44.7-6.7-5.3-19.3-11.6-27.7-13.9-7.2-1.9-27.2-2.8-33.4-1.5zm24.4 1.4c9.5 1.4 21.4 5.6 28.7 10.2 18.3 11.4 32.1 32.4 35.3 53.8 0.7 4.4 1 4.8 4.9 6.3 10.4 4.2 28.2 13.9 39.1 21.5 14.2 9.8 36.7 31.5 46.8 45.2 12.6 17.1 23.4 40 28.7 61 5.3 20.7 5.3 21.5 5.9 99.5l0.6 73.3 5.5 1.7c13.7 4.4 26.9 14.1 34.1 25.3 9 14 9.3 35.5 0.7 50.7-4.2 7.4-12.9 15.8-20.4 19.8-11.6 6.2-12.5 6.3-80.6 6.3-59.2 0-61.8 0.1-61.8 1.8 0 2.7-4.3 14.9-7.3 20.8-8.4 16.5-26.5 31.5-46.2 38.2-16.6 5.6-39.7 4.4-56-2.8-22.3-10-39.5-29.4-45.6-51.5l-1.6-6-63.9-0.5c-62.8-0.5-64-0.5-69.7-2.7-8.7-3.3-14.1-6.7-20.3-13.1-10.1-10.3-14.4-20.9-14.4-35.3 0-12.2 4.9-24.6 13.7-34.4 5.9-6.7 20.3-15.1 30.1-17.5l4.2-1.1v-70.7c0-75.1 0.3-81.1 5.1-101.3 5.8-24.7 17.8-49.2 34-69.4 11.9-14.8 33.8-33.7 51.4-44.4 7.8-4.8 28.6-15.1 30.3-15.1 0.7 0 1.4-1.2 1.7-2.8 3.5-16.7 7.9-27 16.4-38.4 11.2-15 31.9-26.8 50.6-28.8 10.4-1.1 10.3-1.1 20 0.4z"/><path d="m241.5 27.7c-12.5 2-23.3 8.3-30.2 17.7-7.6 10.2-9.9 17.6-11 34.8-0.5 7.6-0.9 9.8-2.2 10.3-0.9 0.4-4.7 1.8-8.6 3.2-38.1 13.8-74.3 44.8-93.7 80.3-7.5 13.7-13.3 31.1-17 51-2.1 10.9-2.2 15-2.5 79.7l-0.4 68.3h346.3l-0.5-67.3c-0.4-72.4-0.5-74.5-6.1-96.4-13.1-51.1-52.2-93.6-105.7-114.9l-11.6-4.6-0.7-9.7c-0.4-5.3-1.6-13.1-2.7-17.3-4-14.8-16.1-28-30-32.7-6.4-2.2-17.8-3.3-23.4-2.4zm27.8 6.1c9.6 4.7 15.5 10.5 20.6 20.1 3.6 7 5.2 13.9 6 26.6l0.6 10 12.5 5c35.4 14.2 64.6 37.3 83.7 66.3 12.1 18.3 18.7 34.4 24 58.6l2.7 12.1 0.3 69.7 0.4 69.8h-343.1v-59.3c0-62.6 0.6-74.6 4.9-95.5 8.7-42.1 33.3-77.4 72.1-103.6 10-6.8 26.1-15 38.2-19.5 9.8-3.7 9.8-3.7 9.8-15.1 0.1-23.6 13.2-42.9 33-48.5q5.5-1.5 15.6-1.2c9.7 0.2 10.5 0.4 18.7 4.5zm-221.9 369c-9 3.2-14.7 9.4-16.4 17.9-2 10.8 3.1 20.6 13.5 25.8l6 3 195.5 0.3c135.6 0.1 197.1-0.1 200.7-0.8 11.1-2.3 19.3-11.4 20.1-22.2 0.8-11.1-6.4-20.8-18.1-24.3-4.4-1.3-30.2-1.5-200.6-1.5-183.7 0.1-195.9 0.2-200.7 1.8zm403 1.5c6.3 2.8 9.9 6.1 12.5 11.2 6.2 12.4 0 26.6-13.8 31.3-2.6 0.9-52.7 1.2-200.1 1.2-215.1 0-200.9 0.4-208.8-5.7-4-3-8.2-11.3-8.2-16.3 0-12.3 8.8-21.4 22.5-23.3 1.7-0.2 90.5-0.4 197.5-0.3 184.2 0.1 194.7 0.2 198.4 1.9zm-252.4 74.4c0.1 5.3 7.7 16.8 15.2 23.1 11.3 9.5 21.8 13.2 37.2 13.2 15.2-0.1 28.8-6.1 39.3-17.5 5-5.3 11.3-16.1 11.3-19.3 0-0.9-11-1.2-51.5-1.2-48.4 0-51.5 0.1-51.5 1.7zm101 1.1c0 3.3-5.9 12.3-12 18.3-26.7 26.3-70.9 18.5-86.2-15.2-0.9-2.1-1.5-3.9-1.3-4 0.2-0.2 22.6-0.4 49.9-0.4 39.7 0 49.6 0.3 49.6 1.3z"/><path d="m247.8 1.7c1.2 0.2 3 0.2 4 0 0.9-0.3-0.1-0.5-2.3-0.4-2.2 0-3 0.2-1.7 0.4zm-31.9 40l-2.4 2.8 2.8-2.4c2.5-2.3 3.2-3.1 2.4-3.1-0.2 0-1.4 1.2-2.8 2.7zm90 476c-1.3 1.6-1.2 1.7 0.4 0.4 0.9-0.7 1.7-1.5 1.7-1.7 0-0.8-0.8-0.3-2.1 1.3zm-57.6 24c0.9 0.2 2.3 0.2 3 0 0.6-0.3-0.1-0.5-1.8-0.5-1.6 0-2.2 0.2-1.2 0.5z" fill="rgb(85, 85, 85)"/><path d="m75.3 258c0 2.5 0.2 3.5 0.4 2.2 0.2-1.2 0.2-3.2 0-4.5-0.2-1.2-0.4-0.2-0.4 2.3zm171.5 257.7c0.7 0.3 1.6 0.2 1.9-0.1 0.4-0.3-0.2-0.6-1.3-0.5-1.1 0-1.4 0.3-0.6 0.6z" fill="rgb(170, 170, 170)"/><path d="m128.9 130.7c-1.3 1.6-1.2 1.7 0.4 0.4 1.6-1.3 2.1-2.1 1.3-2.1-0.2 0-1 0.8-1.7 1.7zm-78.8 102.9c0 1.1 0.3 1.4 0.6 0.6 0.3-0.7 0.2-1.6-0.1-1.9-0.3-0.4-0.6 0.2-0.5 1.3zm30.2 140.1c0.9 0.2 2.5 0.2 3.5 0 0.9-0.3 0.1-0.5-1.8-0.5-1.9 0-2.7 0.2-1.7 0.5zm7.5 0c1.2 0.2 3.2 0.2 4.5 0 1.2-0.2 0.2-0.4-2.3-0.4-2.5 0-3.5 0.2-2.2 0.4zm10.5 0c0.9 0.2 2.5 0.2 3.5 0 0.9-0.3 0.1-0.5-1.8-0.5-1.9 0-2.7 0.2-1.7 0.5zm7.5 0c1.2 0.2 3 0.2 4 0 0.9-0.3-0.1-0.5-2.3-0.4-2.2 0-3 0.2-1.7 0.4zm14 0c4.6 0.2 11.8 0.2 16 0 4.2-0.1 0.5-0.3-8.3-0.3-8.8 0-12.3 0.2-7.7 0.3zm30 0c3.4 0.2 8.8 0.2 12 0 3.1-0.2 0.3-0.3-6.3-0.3-6.6 0-9.2 0.1-5.7 0.3zm24.5 0c3.2 0.2 8.1 0.2 11 0 2.9-0.2 0.3-0.3-5.8-0.3-6 0-8.4 0.1-5.2 0.3zm24.5 0c4.5 0.2 11.9 0.2 16.5 0 4.5-0.1 0.8-0.3-8.3-0.3-9.1 0-12.8 0.2-8.2 0.3zm53 0c15.6 0.2 40.8 0.2 56 0 15.2-0.1 2.5-0.2-28.3-0.2-30.8 0-43.3 0.1-27.7 0.2zm104.5 0c11.5 0.2 29.9 0.2 41 0 11.1-0.1 1.8-0.2-20.8-0.2-22.5 0-31.6 0.1-20.2 0.2zm62.5 0c0.6 0.2 1.8 0.2 2.5 0 0.6-0.3 0.1-0.5-1.3-0.5-1.4 0-1.9 0.2-1.2 0.5zm-382.3 68.3c1 1.1 2 2 2.3 2 0.3 0-0.3-0.9-1.3-2-1-1.1-2-2-2.3-2-0.3 0 0.3 0.9 1.3 2zm444.9 19.2l-1.9 2.3 2.3-1.9c2.1-1.8 2.7-2.6 1.9-2.6-0.2 0-1.2 1-2.3 2.2z" fill="rgb(212, 212, 212)"/><path d="m231.3 4c-17.2 4.5-30.6 12.8-40.5 25.2-8.7 10.8-14.4 22.7-16.8 35l-1.4 6.8-14 6.9c-22.6 11.1-39.7 23.2-56.2 39.7-26.8 26.7-42.4 56.9-49.6 95.9-2.1 11.5-2.2 15.3-2.7 85.9l-0.6 73.8-5.5 1.7c-22.4 7-37.8 23.4-41.2 43.8-4 24.1 10.9 47.3 36.1 56.1 4 1.4 13 1.6 68.2 1.9l63.6 0.4 1.8 6.7c6.8 25.1 30.2 48 56 54.8 8.3 2.1 24.5 2.9 33.3 1.5 30.6-4.8 57.2-28.8 64.2-57.9l1.2-5.2h59.9c66.3 0 69.5-0.2 81.3-6.2 8.4-4.2 18.4-14.5 22.3-22.8 9.5-20.1 6.1-40.9-9.2-56.5-6.8-7-16.3-12.9-25.2-15.7l-7.2-2.2-0.4-72.1c-0.4-75.6-0.5-77.5-5.2-98.1-5.9-25.3-19.8-52.7-36.9-72.9-19.5-23-38.3-37.6-67-52-14.8-7.4-16-8.2-16.3-11-3.1-24.7-22-50-44.6-59.4-14.9-6.1-33.4-7.8-47.4-4.1zm32 25.3c13.7 4.4 25.4 15.2 30.5 28.2 2 5 4.2 18.3 4.2 25.3v6.7l9.3 3.4c37.6 13.8 74 44.1 93 77.4 9 15.9 16.4 37.4 19.8 57.7 0.8 5.3 1.3 28.1 1.6 76.8l0.4 69.2-170.8-0.1c-93.9 0-172.6-0.4-174.8-0.9-2.2-0.4-3.4-0.8-2.7-0.9 0.9-0.1 1.2-12.4 1.2-57.9 0-59.5 0.6-72.7 4-91.9 3.7-20.8 13.5-45.7 24.3-61.8 19.2-28.6 49.6-52.5 84.7-66.6l11.5-4.6 0.2-5.9c0.2-3.2 0.8-9.6 1.4-14.1 4.1-30.7 33-49.2 62.2-40zm190.2 374.4c8.4 4.5 13.7 12.5 13.8 20.8 0.1 7.4-2.6 13.7-8 18.5-8.6 7.5 7.8 7-210.7 7-130.4 0-197.3-0.4-199.8-1-18.6-5.2-25-28.7-11.1-41 8.5-7.4-9.3-6.9 212.3-6.7l199.5 0.2zm-153.5 78.5c-7.9 20.9-32.4 35.6-55.4 33.3-8.2-0.8-17.2-3.5-23.5-7.2-9.9-5.8-21.3-19.6-23.5-28.6l-0.6-2.7h105z" fill="rgb(255, 255, 255)"/><path d="m124.9 134.7l-2.4 2.8 2.8-2.4c1.5-1.4 2.7-2.6 2.7-2.8 0-0.8-0.8-0.1-3.1 2.4zm-49.4 173.8c0 25.8 0.1 36.6 0.2 23.8 0.2-12.7 0.2-33.9 0-47-0.1-13.1-0.2-2.7-0.2 23.2zm-0.3 52c0 1.6 0.2 2.2 0.5 1.2 0.2-0.9 0.2-2.3 0-3-0.3-0.6-0.5 0.1-0.5 1.8zm0.1 9c0 2.2 0.2 3 0.4 1.7 0.2-1.2 0.2-3 0-4-0.3-0.9-0.5 0.1-0.4 2.3z" fill="rgb(128, 128, 128)"/><path d="m75.1 364.6c0 1.1 0.3 1.4 0.6 0.6 0.3-0.7 0.2-1.6-0.1-1.9-0.3-0.4-0.6 0.2-0.5 1.3z" fill="rgb(128, 128, 170)"/></svg>