<svg xmlns="http://www.w3.org/2000/svg" viewBox="0 0 439 530" width="32" height="32"><path d="m157 2.3c-14.3 4.3-24.6 12-30.9 23-4.8 8.5-6.1 15.2-6.1 32.4v15.3l-58.2 0.3-58.3 0.2 58.8 0.3 58.7 0.2v-14.4c0-17 1-23 5.1-31.4 6-12.2 17.3-20.8 33.1-25.2 6.9-1.9 10.1-2 61.3-2 60.1 0 62.4 0.2 75.2 6.5 8.3 4.1 15.2 11 20 20.1 4.3 8.2 5.3 14.2 5.3 31.4v15h56.8c42.8 0 57.1 0.3 58 1.2 0.8 0.8 1.2 5.6 1.2 14.9 0 11.6-0.2 13.8-1.6 14.3-0.9 0.3-10.9 0.6-22.2 0.6h-20.7l-1.8 23.7c-1 13.1-2.9 38-4.2 55.3-1.4 17.3-3 37.8-3.5 45.5-0.6 7.7-2.2 27.7-3.5 44.5-1.4 16.8-3.6 45.3-5 63.5-1.4 18.1-3.2 41.5-4 52-2.4 31.5-4.4 57.9-6 80-1.5 21-2.9 28.4-6.7 36-4.9 9.6-14.1 17-25.7 20.5-6.1 1.9-9.7 2-113.5 2h-107.1l-6.6-2.4c-8.7-3-15-7.5-20.4-14.4-8.6-11-7.9-5.7-17.5-132.2-1.6-22.3-4.6-60.5-6.5-85-1.9-24.5-4.4-56.7-5.5-71.5-1.1-14.9-2.9-38.7-4-53-1.1-14.3-2.5-34.1-3.1-44-0.6-9.9-1.3-18.6-1.5-19.3-0.3-0.9-5.5-1.2-21.8-1.2-20.3 0-21.6-0.1-22.6-1.9-1.5-2.9-1.3-26.4 0.3-28.1 1-1.2 0.9-1.2-0.5-0.1-1.6 1.2-1.8 3.1-1.8 14.6 0 11.5 0.2 13.4 1.8 14.8 1.6 1.5 4.7 1.7 22.5 1.7h20.6l0.5 4.2c0.3 2.4 1 11.3 1.5 19.8 2.4 34.8 13.9 187.6 14.6 192.5 0.3 2.2 1.6 19.5 3 38.5 1.4 19 3.6 49 4.9 66.5 1.4 17.6 3 39.2 3.7 48 1.6 22.5 4.7 31.1 14.5 40.9 5.2 5.1 9.9 8.1 17.6 10.8l6.3 2.3 105.4 0.3c116.2 0.3 110.9 0.5 123.9-6 6.8-3.4 14.9-11.3 18.1-17.7 3.5-6.7 5.2-14.6 6.1-28.1 0.5-7.4 1.2-16.4 1.5-20 0.3-3.6 1.2-15.3 2-26 8.7-112.2 10.8-139.8 13-167 1.3-17.3 3.1-40.3 3.9-51 0.8-10.7 2.9-37.3 4.5-59 1.7-21.7 3.2-41.5 3.3-44l0.3-4.5 21.3-0.5c19.9-0.5 21.5-0.6 22.8-2.5 2.2-2.9 1.6-26.7-0.7-29-1.4-1.4-7.9-1.6-58.1-1.5h-56.6l-0.4-17.7c-0.4-15.6-0.7-18.5-2.7-23.6-5.1-12.9-17.2-24.3-30.9-28.9-6.6-2.2-7.3-2.3-65.2-2.5-58.2-0.2-58.5-0.2-66 2z"/><path d="m163.9 30.6c-5.9 1.8-12.4 8-13.8 13.1-0.6 2.1-1.1 9.8-1.1 17v13.3h144v-13.1c0-7.3-0.5-14.9-1.1-17-1.8-6-6.2-10.5-12.5-12.8-5.3-2-7.3-2.1-58.2-2-42.6 0-53.6 0.3-57.3 1.5zm113.2 0.5c2.1 0.7 5.4 2.5 7.4 4.1 6.1 5.1 6.9 7.6 7.3 23.5l0.4 14.3h-142.2v-13.3c0-11.8 0.3-13.8 2.3-17.7 2.4-4.8 8.1-9.3 13.7-10.8 5.3-1.5 106.3-1.5 111.1-0.1zm-203.6 78.1c0.2 2.4 0.7 7.4 0.9 11.3 1.3 17.6 7.9 103.6 10.6 137 1.6 20.3 3.4 42.8 4 50 0.6 7.1 1.9 24 3 37.5 1.1 13.5 2.7 34.2 3.5 46 5.2 71.1 7.3 94.6 9 98.7 1 2.6 3.1 5.2 5.7 7l4.1 2.8 104.2 0.3 104.1 0.2 4.5-2.3c6.8-3.5 8.6-8.1 9.8-25.2 0.6-7.7 3.1-40.6 5.6-73 2.5-32.5 5-65.3 5.5-73 0.6-7.7 1.5-19.6 2-26.5 0.6-6.9 4-51.2 7.5-98.5 3.6-47.3 6.7-88.4 7.1-91.3l0.5-5.2h-292.1zm290-0.5c-0.3 1.6-1.4 14.9-2.5 29.8-2.2 30.3-5.3 70.6-7.5 99-0.8 10.4-2.2 28.4-3 40-2.3 31-4.2 56.6-5.9 78.5-0.9 10.7-2.2 28.7-3.1 40-2.6 36.1-6.4 84.4-7 88.5-0.7 5.4-3.7 10-7.7 12.2-3.1 1.7-9.1 1.8-107.3 1.8-117.2 0-108 0.6-112.9-7.8-2.2-3.7-2.7-6.2-3.6-18.7-0.6-8-2.6-34.3-4.5-58.5-1.9-24.2-3.9-50.5-4.5-58.5-0.5-8-1.4-19.5-2-25.5-0.5-6.1-1.8-22.7-3-37-1.1-14.3-3.1-40.2-4.5-57.5-4.2-52.1-4.4-55.2-7-90.5-1.4-18.7-2.5-35-2.5-36.3v-2.2h289z"/><path d="m14.3 72.7c4.8 0.2 12.6 0.2 17.5 0 4.8-0.1 0.8-0.3-8.8-0.3-9.6 0-13.6 0.2-8.7 0.3zm37.5 0c6.1 0.2 16.3 0.2 22.5 0 6.1-0.1 1.1-0.3-11.3-0.3-12.4 0-17.4 0.2-11.2 0.3zm61 0c0.7 0.3 1.6 0.2 1.9-0.1 0.4-0.3-0.2-0.6-1.3-0.5-1.1 0-1.4 0.3-0.6 0.6zm174.5 0c0.9 0.2 2.5 0.2 3.5 0 0.9-0.3 0.1-0.5-1.8-0.5-1.9 0-2.7 0.2-1.7 0.5zm45.5 0c1.2 0.2 3.2 0.2 4.5 0 1.2-0.2 0.2-0.4-2.3-0.4-2.5 0-3.5 0.2-2.2 0.4zm14 0c0.7 0.3 1.6 0.2 1.9-0.1 0.4-0.3-0.2-0.6-1.3-0.5-1.1 0-1.4 0.3-0.6 0.6zm7 0c2.3 0.2 5.9 0.2 8 0 2-0.2 0.1-0.4-4.3-0.4-4.4 0-6.1 0.2-3.7 0.4zm29.5 0c2.6 0.2 6.8 0.2 9.5 0 2.6-0.2 0.4-0.3-4.8-0.3-5.2 0-7.4 0.1-4.7 0.3zm22.5 0c4.5 0.2 11.9 0.2 16.5 0 4.5-0.1 0.8-0.3-8.3-0.3-9.1 0-12.8 0.2-8.2 0.3zm-326.7 97.9c0 1.1 0.3 1.4 0.6 0.6 0.3-0.7 0.2-1.6-0.1-1.9-0.3-0.4-0.6 0.2-0.5 1.3zm269.8 346.1c-1.3 1.6-1.2 1.7 0.4 0.4 0.9-0.7 1.7-1.5 1.7-1.7 0-0.8-0.8-0.3-2.1 1.3zm-260.3 1.5c0.3 0.5 1 0.6 1.5 0.3 1.3-0.9 1.1-1.2-0.6-1.2-0.8 0-1.2 0.4-0.9 0.9z" fill="rgb(85, 85, 85)"/><path d="m121.4 59.5c0 8.2 0.2 11.5 0.3 7.2 0.2-4.3 0.2-11 0-15-0.1-4-0.3-0.5-0.3 7.8zm26.9-4c0 2.2 0.2 3 0.4 1.7 0.2-1.2 0.2-3 0-4-0.3-0.9-0.5 0.1-0.4 2.3zm0 9.5c0 3 0.2 4.3 0.4 2.7 0.2-1.5 0.2-3.9 0-5.5-0.2-1.5-0.4-0.2-0.4 2.8z" fill="rgb(170, 170, 170)"/><path d="m148.1 50.6c0 1.1 0.3 1.4 0.6 0.6 0.3-0.7 0.2-1.6-0.1-1.9-0.3-0.4-0.6 0.2-0.5 1.3zm-146.7 37.9c0 6.6 0.1 9.2 0.3 5.7 0.2-3.4 0.2-8.8 0-12-0.2-3.1-0.3-0.3-0.3 6.3zm386.7 65.1c0 1.1 0.3 1.4 0.6 0.6 0.3-0.7 0.2-1.6-0.1-1.9-0.3-0.4-0.6 0.2-0.5 1.3zm-29 27c0 1.1 0.3 1.4 0.6 0.6 0.3-0.7 0.2-1.6-0.1-1.9-0.3-0.4-0.6 0.2-0.5 1.3zm-304 46c0 1.1 0.3 1.4 0.6 0.6 0.3-0.7 0.2-1.6-0.1-1.9-0.3-0.4-0.6 0.2-0.5 1.3zm16.1 207.4c0 1.4 0.2 1.9 0.5 1.2 0.2-0.6 0.2-1.8 0-2.5-0.3-0.6-0.5-0.1-0.5 1.3zm1.9 25.6c0 1.1 0.3 1.4 0.6 0.6 0.3-0.7 0.2-1.6-0.1-1.9-0.3-0.4-0.6 0.2-0.5 1.3zm61.7 41.1c0.7 0.3 1.6 0.2 1.9-0.1 0.4-0.3-0.2-0.6-1.3-0.5-1.1 0-1.4 0.3-0.6 0.6zm14 0c1.2 0.2 3 0.2 4 0 0.9-0.3-0.1-0.5-2.3-0.4-2.2 0-3 0.2-1.7 0.4zm8 0c0.7 0.3 1.6 0.2 1.9-0.1 0.4-0.3-0.2-0.6-1.3-0.5-1.1 0-1.4 0.3-0.6 0.6zm4 0c0.7 0.3 1.6 0.2 1.9-0.1 0.4-0.3-0.2-0.6-1.3-0.5-1.1 0-1.4 0.3-0.6 0.6zm5 0c1.2 0.2 3 0.2 4 0 0.9-0.3-0.1-0.5-2.3-0.4-2.2 0-3 0.2-1.7 0.4zm21 0c1.7 0.2 4.7 0.2 6.5 0 1.7-0.2 0.3-0.4-3.3-0.4-3.6 0-5 0.2-3.2 0.4zm11 0c0.6 0.2 1.8 0.2 2.5 0 0.6-0.3 0.1-0.5-1.3-0.5-1.4 0-1.9 0.2-1.2 0.5zm7.5 0c1.5 0.2 3.7 0.2 5 0 1.2-0.2 0-0.4-2.8-0.4-2.7 0-3.8 0.2-2.2 0.4zm11 0c2 0.2 5.4 0.2 7.5 0 2-0.2 0.3-0.4-3.8-0.4-4.1 0-5.8 0.2-3.7 0.4zm20 0c0.9 0.2 2.3 0.2 3 0 0.6-0.3-0.1-0.5-1.8-0.5-1.6 0-2.2 0.2-1.2 0.5zm21.5 0c1.8 0.2 4.5 0.2 6 0 1.5-0.2 0-0.4-3.3-0.4-3.3 0-4.5 0.2-2.7 0.4zm44 0c0.6 0.2 1.8 0.2 2.5 0 0.6-0.3 0.1-0.5-1.3-0.5-1.4 0-1.9 0.2-1.2 0.5z" fill="rgb(212, 212, 212)"/><path d="m163.2 2.5c-11.3 2.1-22.2 7.7-29.1 15-10.2 10.9-12 17.1-12.1 40.2v16.3h-58.8c-44.4 0-59.1 0.3-60 1.2-0.8 0.8-1.2 5.5-1.2 14.5 0 12.1 0.2 13.3 1.9 14.3 1.2 0.6 10.2 1 22.4 1h20.4l1.2 17.2c0.6 9.5 1.6 22.7 2.1 29.3 0.5 6.6 1.7 21.9 2.5 34 0.9 12.1 2.5 33 3.5 46.5 1.1 13.5 2.6 33.7 3.5 45 0.9 11.3 2.7 34.2 4 51 1.4 16.8 2.9 37 3.5 45 0.5 8 2.1 28.9 3.5 46.5 1.3 17.6 3.2 41 4 52 1.6 21.7 3.1 28.4 7.6 35.7 3.7 5.7 11.3 13 16.5 15.6 10.5 5.3 8.8 5.2 121 5.2 114.5 0 109.5 0.3 121.7-6.2 7.5-4.1 13.9-11.4 17.6-20.3 3.4-8.2 3.4-8.3 6.6-51 1.4-18.2 3.8-50.3 5.5-71.5 1.6-21.2 3.4-44.4 3.9-51.5 0.6-7.2 2.4-30.3 4.1-51.5 3.3-42.6 3.5-44.9 8.5-110.5 1.9-25.3 3.7-49.3 4.1-53.3l0.6-7.2h20.5c12.2 0 21.2-0.4 22.4-1 1.7-1 1.9-2.2 1.8-13.3-0.1-7.7-0.4-11.3-0.9-9.7-0.8 2.4-0.8 2.3-0.9-0.8-0.1-2 0.3-3.1 0.9-2.7 1.5 0.9 1.2-0.2-0.6-1.9-1.4-1.4-8-1.6-58.4-1.6h-56.8l-0.4-19.3-0.3-19.2-3.9-7.4c-6.8-12.7-16.5-20.4-31.1-24.7-5.4-1.6-11.7-1.8-60-2-41.4-0.2-55.7 0.1-61.3 1.1zm117.3 28.4c4.3 1.9 10 7.8 11.6 11.8 0.5 1.3 0.9 8.9 0.9 16.9v14.4h-145v-12.3c0-8 0.5-14.1 1.5-17.3 2-6.7 7.7-12.1 15.4-14.5 1.4-0.4 27.1-0.8 57.1-0.8 50.7-0.1 54.8 0.1 58.5 1.8zm84.5 75.8c0 1-0.7 10.6-1.5 21.3-0.8 10.7-2 25.8-2.5 33.5-0.6 7.7-2.2 28.4-3.5 46-1.4 17.6-3.2 41.2-4 52.5-0.9 11.3-2.2 28.4-3 38-0.7 9.6-1.6 21.3-2 26-0.3 4.7-0.8 11.2-1 14.5-0.3 3.3-1.4 18.4-2.5 33.5-1.1 15.1-2.7 35.4-3.5 45-0.8 9.6-2.2 27.8-3.1 40.5-2.1 30.5-2.6 33-7.5 37.7-2.8 2.7-5.1 3.9-8.6 4.4-2.7 0.4-49.8 0.8-104.8 0.8-80.1 0.1-100.7-0.2-103.7-1.2-4.6-1.6-9.4-7-10.7-11.9-1-3.8-1.4-9.4-7.1-85.8-1.7-22-3.7-47.9-4.5-57.5-0.7-9.6-2.1-26.7-3-38-0.9-11.3-2.7-34-4-50.5-1.4-16.5-2.9-36.3-3.5-44-2.4-32.6-5.1-68.2-6.5-84.8-0.8-9.8-1.5-18.7-1.5-19.8 0-1.9 2.2-1.9 146-1.9 138.4 0 146 0.1 146 1.7z" fill="rgb(255, 255, 255)"/><path d="m320.3 61.5c0 4.4 0.2 6.1 0.4 3.7 0.2-2.3 0.2-5.9 0-8-0.2-2-0.4-0.1-0.4 4.3zm-220.5 11.2c0.6 0.2 1.8 0.2 2.5 0 0.6-0.3 0.1-0.5-1.3-0.5-1.4 0-1.9 0.2-1.2 0.5zm56 0c0.6 0.2 1.8 0.2 2.5 0 0.6-0.3 0.1-0.5-1.3-0.5-1.4 0-1.9 0.2-1.2 0.5zm16.5 0c0.9 0.2 2.5 0.2 3.5 0 0.9-0.3 0.1-0.5-1.8-0.5-1.9 0-2.7 0.2-1.7 0.5zm10 0c1.5 0.2 3.7 0.2 5 0 1.2-0.2 0-0.4-2.8-0.4-2.7 0-3.8 0.2-2.2 0.4zm9 0c0.9 0.2 2.3 0.2 3 0 0.6-0.3-0.1-0.5-1.8-0.5-1.6 0-2.2 0.2-1.2 0.5zm12.9 0c4.8 0.2 12.9 0.2 18 0 5.1-0.1 1.2-0.3-8.7-0.3-9.9 0-14.1 0.2-9.3 0.3zm34.6 0c3.9 0.2 10.5 0.2 14.5 0 3.9-0.1 0.7-0.3-7.3-0.3-8 0-11.2 0.2-7.2 0.3zm25.5 0c2 0.2 5.4 0.2 7.5 0 2-0.2 0.3-0.4-3.8-0.4-4.1 0-5.8 0.2-3.7 0.4zm60 0c0.9 0.2 2.3 0.2 3 0 0.6-0.3-0.1-0.5-1.8-0.5-1.6 0-2.2 0.2-1.2 0.5z" fill="rgb(128, 128, 128)"/><path d="m107.8 72.7c0.7 0.3 1.6 0.2 1.9-0.1 0.4-0.3-0.2-0.6-1.3-0.5-1.1 0-1.4 0.3-0.6 0.6z" fill="rgb(85, 85, 128)"/></svg>