<svg xmlns="http://www.w3.org/2000/svg" viewBox="0 0 695 476" width="32" height="32"><path d="m456.9 8.7l-3.4 3.8 3.8-3.4c3.4-3.3 4.2-4.1 3.4-4.1-0.2 0-1.9 1.7-3.8 3.7zm-9.5 8.5l-2.9 3.3 3.3-2.9c3-2.8 3.7-3.6 2.9-3.6-0.2 0-1.6 1.5-3.3 3.2zm36 4l-2.9 3.3 3.3-2.9c3-2.8 3.7-3.6 2.9-3.6-0.2 0-1.6 1.5-3.3 3.2zm-49.9 9l-5 5.3 5.3-5c4.8-4.6 5.7-5.5 4.9-5.5-0.1 0-2.5 2.4-5.2 5.2zm36.4 3.5c-1.3 1.6-1.2 1.7 0.4 0.4 0.9-0.7 1.7-1.5 1.7-1.7 0-0.8-0.8-0.3-2.1 1.3zm-53.5 13.5l-2.9 3.3 3.3-2.9c3-2.8 3.7-3.6 2.9-3.6-0.2 0-1.6 1.5-3.3 3.2zm-4.5 5.5c-1.3 1.6-1.2 1.7 0.4 0.4 0.9-0.7 1.7-1.5 1.7-1.7 0-0.8-0.8-0.3-2.1 1.3zm-7.4 11.4c-0.4 0.6-0.5 1.2-0.2 1.5 0.2 0.3 0.7-0.2 1-1.1 0.7-1.7 0.1-2-0.8-0.4zm31.9 2.1l-1.9 2.3 2.3-1.9c2.1-1.8 2.7-2.6 1.9-2.6-0.2 0-1.2 1-2.3 2.2zm234.5 0.5l-2.4 2.8 2.8-2.4c2.5-2.3 3.2-3.1 2.4-3.1-0.2 0-1.4 1.2-2.8 2.7zm11.1-1.3c0 0.2 0.8 1 1.8 1.7 1.5 1.3 1.6 1.2 0.3-0.4-1.3-1.6-2.1-2.1-2.1-1.3zm-280.9 6.7c-0.6 1.8-1.1 3.7-1 4.3 0 0.6 0.7-0.7 1.5-2.8 0.8-2.2 1.2-4.1 1-4.3-0.2-0.2-0.9 1-1.5 2.8zm31.9-1.1c-0.6 1.1-0.8 2-0.6 2 0.3 0 1-0.9 1.6-2 0.6-1.1 0.8-2 0.6-2-0.3 0-1 0.9-1.6 2zm229.4 4.2l-1.9 2.3 2.3-1.9c2.1-1.8 2.7-2.6 1.9-2.6-0.2 0-1.2 1-2.3 2.2zm-263.2 4.8c0 1.4 0.2 1.9 0.5 1.2 0.2-0.6 0.2-1.8 0-2.5-0.3-0.6-0.5-0.1-0.5 1.3zm255.7 2.7l-2.4 2.8 2.8-2.4c1.5-1.4 2.7-2.6 2.7-2.8 0-0.8-0.8-0.1-3.1 2.4zm31.1 9l-8.5 8.8 8.8-8.5c4.8-4.6 8.7-8.6 8.7-8.7 0-0.8-1.1 0.3-9 8.4zm-287.7-0.7c0 4.1 0.2 5.8 0.4 3.7 0.2-2 0.2-5.4 0-7.5-0.2-2-0.4-0.3-0.4 3.8zm28.9-1c0 1.9 0.2 2.7 0.5 1.7 0.2-0.9 0.2-2.5 0-3.5-0.3-0.9-0.5-0.1-0.5 1.8zm200.3 19.2l-11 11.3 11.3-11c10.4-10.2 11.7-11.5 10.9-11.5-0.1 0-5.2 5.1-11.2 11.2zm-228.4-7.6c0 1.1 0.3 1.4 0.6 0.6 0.3-0.7 0.2-1.6-0.1-1.9-0.3-0.4-0.6 0.2-0.5 1.3zm30.9 1.8c0 1.1 3 6.6 3.6 6.6 0.2 0-0.3-1.5-1.2-3.3-1.9-3.6-2.4-4.4-2.4-3.3zm-29.9 2.2c0 1.1 0.3 1.4 0.6 0.6 0.3-0.7 0.2-1.6-0.1-1.9-0.3-0.4-0.6 0.2-0.5 1.3zm256.4 14.6l-13 13.3 13.3-13c7.2-7.1 13.2-13.1 13.2-13.2 0-0.8-1.5 0.6-13.5 12.9zm-216-1.2c2.7 2.7 5.1 5 5.4 5 0.3 0-1.7-2.3-4.4-5-2.7-2.8-5.1-5-5.4-5-0.3 0 1.7 2.2 4.4 5zm-31.5 6.4c0 0.2 0.8 1 1.8 1.7 1.5 1.3 1.6 1.2 0.3-0.4-1.3-1.6-2.1-2.1-2.1-1.3zm43 4.8c4.1 4.5 5 5.3 5 4.5 0-0.2-2.1-2.3-4.7-4.7l-4.8-4.5zm150.4 3l-1.9 2.3 2.3-1.9c2.1-1.8 2.7-2.6 1.9-2.6-0.2 0-1.2 1-2.3 2.2zm-141.4 6.3c1.3 1.4 2.6 2.5 2.8 2.5 0.3 0-0.5-1.1-1.8-2.5-1.3-1.4-2.6-2.5-2.8-2.5-0.3 0 0.5 1.1 1.8 2.5zm131 4.2l-6.5 6.8 6.8-6.5c3.7-3.5 6.7-6.6 6.7-6.7 0-0.8-1 0.2-7 6.4zm-158.5 9.3c7.7 7.7 14.2 14 14.5 14 0.2 0-5.8-6.3-13.5-14-7.7-7.7-14.2-14-14.5-14-0.2 0 5.8 6.3 13.5 14zm186.9 2.2l-2.9 3.3 3.3-2.9c3-2.8 3.7-3.6 2.9-3.6-0.2 0-1.6 1.5-3.3 3.2zm-344.6 1.5c2.9 0.2 7.4 0.2 10 0 2.6-0.2 0.2-0.3-5.3-0.3-5.5 0-7.6 0.1-4.7 0.3zm-13.5 1c0.9 0.2 2.5 0.2 3.5 0 0.9-0.3 0.1-0.5-1.8-0.5-1.9 0-2.7 0.2-1.7 0.5zm34 0c0.9 0.2 2.3 0.2 3 0 0.6-0.3-0.1-0.5-1.8-0.5-1.6 0-2.2 0.2-1.2 0.5zm7.5 1c0.7 0.3 1.6 0.2 1.9-0.1 0.4-0.3-0.2-0.6-1.3-0.5-1.1 0-1.4 0.3-0.6 0.6zm308.2 4.8c-2.4 2.5-4.2 4.5-3.9 4.5 0.3 0 2.5-2 4.9-4.5 2.4-2.5 4.2-4.5 3.9-4.5-0.3 0-2.5 2-4.9 4.5zm-122.5 3.5c3.8 3.8 7.2 7 7.4 7 0.3 0-2.6-3.2-6.4-7-3.8-3.9-7.2-7-7.4-7-0.3 0 2.6 3.1 6.4 7zm81.9-3.8l-1.9 2.3 2.3-1.9c1.2-1.1 2.2-2.1 2.2-2.3 0-0.8-0.8-0.2-2.6 1.9zm-249.6-0.5c0.7 0.3 1.6 0.2 1.9-0.1 0.4-0.3-0.2-0.6-1.3-0.5-1.1 0-1.4 0.3-0.6 0.6zm-91.8 2.3c-0.8 0.5-1 1-0.5 1 0.6 0 1.7-0.5 2.5-1 0.8-0.5 1.1-1 0.5-1-0.5 0-1.7 0.5-2.5 1zm107 3c0.8 0.5 2 1 2.5 1 0.6 0 0.3-0.5-0.5-1-0.8-0.5-1.9-1-2.5-1-0.5 0-0.3 0.5 0.5 1zm-120.2 2.6c-2.7 1.3-4.8 2.7-4.8 2.9 0 0.5 9.9-4.2 10.9-5.1 1.3-1.1-2 0-6.1 2.2zm235.7 1.4c2.1 2.2 4.1 4 4.4 4 0.3 0-1.3-1.8-3.4-4-2.1-2.2-4.1-4-4.4-4-0.3 0 1.3 1.8 3.4 4zm107.9 1.2l-1.9 2.3 2.3-1.9c2.1-1.8 2.7-2.6 1.9-2.6-0.2 0-1.2 1-2.3 2.2zm-213.4-0.7c0 0.7 6.1 3.7 6.6 3.3 0.2-0.3-1.2-1.2-3.1-2.1-1.9-0.9-3.5-1.5-3.5-1.2zm251.9 4.2c-1.3 1.6-1.2 1.7 0.4 0.4 0.9-0.7 1.7-1.5 1.7-1.7 0-0.8-0.8-0.3-2.1 1.3zm-394.5 0.9c-1.8 1.4-1.8 1.5 0.4 0.4 1.2-0.6 2.2-1.3 2.2-1.5 0-0.8-0.5-0.6-2.6 1.1zm253.6-0.2c0 0.2 0.8 1 1.8 1.7 1.5 1.3 1.6 1.2 0.3-0.4-1.3-1.6-2.1-2.1-2.1-1.3zm-92.8 6.2c1 1 2 1.6 2.2 1.3 0.3-0.3-0.5-1.1-1.7-1.8-2.1-1.3-2.1-1.2-0.5 0.5zm-171.8 1.6l-1.9 2.3 2.3-1.9c2.1-1.8 2.7-2.6 1.9-2.6-0.2 0-1.2 1-2.3 2.2zm329.9 1.5c0.9 0.2 2.3 0.2 3 0 0.6-0.3-0.1-0.5-1.8-0.5-1.6 0-2.2 0.2-1.2 0.5zm7 0c0.9 0.2 2.5 0.2 3.5 0 0.9-0.3 0.1-0.5-1.8-0.5-1.9 0-2.7 0.2-1.7 0.5zm-345.8 6c-3.6 3.3-4.4 4.4-2 2.5 3.8-2.8 9.3-8.3 8.4-8.2-0.2 0.1-3.1 2.6-6.4 5.7zm188-3.7c1 1.1 2 2 2.3 2 0.3 0-0.3-0.9-1.3-2-1-1.1-2-2-2.3-2-0.3 0 0.3 0.9 1.3 2zm-106.7-0.3c0.6 0.2 1.8 0.2 2.5 0 0.6-0.3 0.1-0.5-1.3-0.5-1.4 0-1.9 0.2-1.2 0.5zm24 0c0.6 0.2 1.8 0.2 2.5 0 0.6-0.3 0.1-0.5-1.3-0.5-1.4 0-1.9 0.2-1.2 0.5zm184.2 3.5c2.4 2.7 4.5 4.8 4.7 4.8 0.8 0 0-0.9-4.4-5l-4.8-4.5zm-215.2-2.5c0.7 0.3 1.6 0.2 1.9-0.1 0.4-0.3-0.2-0.6-1.3-0.5-1.1 0-1.4 0.3-0.6 0.6zm38 0c0.6 0.2 1.8 0.2 2.5 0 0.6-0.3 0.1-0.5-1.3-0.5-1.4 0-1.9 0.2-1.2 0.5zm5 1c0.7 0.3 1.6 0.2 1.9-0.1 0.4-0.3-0.2-0.6-1.3-0.5-1.1 0-1.4 0.3-0.6 0.6zm279.6 2.5l-1.9 2.3 2.3-1.9c2.1-1.8 2.7-2.6 1.9-2.6-0.2 0-1.2 1-2.3 2.2zm-196.9 6.8c3.8 3.8 7.2 7 7.4 7 0.3 0-2.6-3.2-6.4-7-3.8-3.9-7.2-7-7.4-7-0.3 0 2.6 3.1 6.4 7zm-60.5-2.5c1.4 0.8 3 1.4 3.5 1.4 0.6 0-0.1-0.6-1.5-1.4-1.4-0.8-2.9-1.4-3.5-1.4-0.5 0 0.1 0.6 1.5 1.4zm156-0.1c0 0.2 0.8 1 1.8 1.7 1.5 1.3 1.6 1.2 0.3-0.4-1.3-1.6-2.1-2.1-2.1-1.3zm-305.4 5.5l-3 3.6 3.4-3.2c1.9-1.8 3.2-3.4 2.9-3.6-0.2-0.2-1.7 1.2-3.3 3.2zm158.4-1.5c0 0.3 0.9 1 2 1.6 1.1 0.6 2 0.8 2 0.6 0-0.3-0.9-1-2-1.6-1.1-0.6-2-0.8-2-0.6zm154.4 1.5c0.7 1.1 4.6 3.5 4.6 2.8 0-0.3-1.2-1.2-2.6-2.2-1.5-0.9-2.3-1.2-2-0.6zm-147.9 2.6c1.1 0.9 2.9 2.1 4 2.6l2 1-2-1.6c-1.1-0.9-2.9-2.1-4-2.6l-2-1zm154.2 1.6c0.7 0.7 1.5 1 1.8 0.7 0.3-0.3-0.2-0.9-1.2-1.2-1.4-0.6-1.5-0.5-0.6 0.5zm65.3 1.4c-1.4 0.8-2 1.4-1.4 1.5 0.5 0 1.9-0.7 3-1.5 2.4-1.8 1.6-1.9-1.6 0zm-61.3 0.6c0.7 0.7 1.5 1 1.8 0.7 0.3-0.3-0.2-0.9-1.2-1.2-1.4-0.6-1.5-0.5-0.6 0.5zm-151.7 0.2c0 0.3 2.1 2.2 4.7 4.3 2.6 2.1 4.4 3.3 4 2.7-0.9-1.4-8.7-7.7-8.7-7zm-136.6 3.9l-2.9 3.3 3.3-2.9c3-2.8 3.7-3.6 2.9-3.6-0.2 0-1.6 1.5-3.3 3.2zm292.6-2.2c0.8 0.5 2 1 2.5 1 0.6 0 0.3-0.5-0.5-1-0.8-0.5-1.9-1-2.5-1-0.5 0-0.3 0.5 0.5 1zm7.8 2.7c0.7 0.3 1.6 0.2 1.9-0.1 0.4-0.3-0.2-0.6-1.3-0.5-1.1 0-1.4 0.3-0.6 0.6zm5 1c0.7 0.3 1.6 0.2 1.9-0.1 0.4-0.3-0.2-0.6-1.3-0.5-1.1 0-1.4 0.3-0.6 0.6zm28 0c0.7 0.3 1.6 0.2 1.9-0.1 0.4-0.3-0.2-0.6-1.3-0.5-1.1 0-1.4 0.3-0.6 0.6zm-18.5 1c3.2 0.2 8.1 0.2 11 0 2.9-0.2 0.3-0.3-5.8-0.3-6 0-8.4 0.1-5.2 0.3zm-321.4 3c-1.3 1.6-1.2 1.7 0.4 0.4 0.9-0.7 1.7-1.5 1.7-1.7 0-0.8-0.8-0.3-2.1 1.3zm199.1 2.3c0.6 1.1 1.3 2 1.6 2 0.2 0 0-0.9-0.6-2-0.6-1.1-1.3-2-1.6-2-0.2 0 0 0.9 0.6 2zm-241 1c-0.6 1.1-0.8 2-0.6 2 0.3 0 1-0.9 1.6-2 0.6-1.1 0.8-2 0.6-2-0.3 0-1 0.9-1.6 2zm36.4 3.2l-1.9 2.3 2.3-1.9c1.2-1.1 2.2-2.1 2.2-2.3 0-0.8-0.8-0.2-2.6 1.9zm-3.9 5.4c-0.9 1.5-1.2 2.3-0.6 2 1.1-0.7 3.5-4.6 2.8-4.6-0.3 0-1.2 1.2-2.2 2.6zm173.5-1.2c0 0.2 0.8 1 1.8 1.7 1.5 1.3 1.6 1.2 0.3-0.4-1.3-1.6-2.1-2.1-2.1-1.3zm-211.4 2.3c-0.6 1.4-0.5 1.5 0.5 0.6 0.7-0.7 1-1.5 0.7-1.8-0.3-0.3-0.9 0.2-1.2 1.2zm215.4 2.7c0 0.2 0.8 1 1.8 1.7 1.5 1.3 1.6 1.2 0.3-0.4-1.3-1.6-2.1-2.1-2.1-1.3zm40 1.6c0.6 1.1 1.3 2 1.6 2 0.2 0 0-0.9-0.6-2-0.6-1.1-1.3-2-1.6-2-0.2 0 0 0.9 0.6 2zm-227.4 12.5c-0.9 2.6-0.7 3.2 0.5 1.2 0.6-1 0.9-2.1 0.6-2.3-0.2-0.3-0.7 0.2-1.1 1.1zm-36 1c-0.9 2.6-0.7 3.2 0.5 1.2 0.6-1 0.9-2.1 0.6-2.3-0.2-0.3-0.7 0.2-1.1 1.1zm233-0.2c0.3 1 0.9 1.5 1.2 1.2 0.3-0.3 0-1.1-0.7-1.8-1-0.9-1.1-0.8-0.5 0.6zm-200 6.2c-0.9 2.6-0.7 3.2 0.5 1.2 0.6-1 0.9-2.1 0.6-2.3-0.2-0.3-0.7 0.2-1.1 1.1zm-5 13c-0.9 2.6-0.7 3.2 0.5 1.2 0.6-1 0.9-2.1 0.6-2.3-0.2-0.3-0.7 0.2-1.1 1.1zm250.5 7.1c0 1.1 0.3 1.4 0.6 0.6 0.3-0.7 0.2-1.6-0.1-1.9-0.3-0.4-0.6 0.2-0.5 1.3zm1.1 4.4c0 1.4 0.2 1.9 0.5 1.2 0.2-0.6 0.2-1.8 0-2.5-0.3-0.6-0.5-0.1-0.5 1.3zm-256.6 1.5c-0.9 2.6-0.7 3.2 0.5 1.2 0.6-1 0.9-2.1 0.6-2.3-0.2-0.3-0.7 0.2-1.1 1.1zm222.5 1.1c0 1.1 0.3 1.4 0.6 0.6 0.3-0.7 0.2-1.6-0.1-1.9-0.3-0.4-0.6 0.2-0.5 1.3zm35.1 2.4c0 1.4 0.2 1.9 0.5 1.2 0.2-0.6 0.2-1.8 0-2.5-0.3-0.6-0.5-0.1-0.5 1.3zm-259.6 1.5c-0.9 2.6-0.7 3.2 0.5 1.2 0.6-1 0.9-2.1 0.6-2.3-0.2-0.3-0.7 0.2-1.1 1.1zm225.5 0.1c0 1.1 0.3 1.4 0.6 0.6 0.3-0.7 0.2-1.6-0.1-1.9-0.3-0.4-0.6 0.2-0.5 1.3zm1.1 5.4c0 1.4 0.2 1.9 0.5 1.2 0.2-0.6 0.2-1.8 0-2.5-0.3-0.6-0.5-0.1-0.5 1.3zm34 0.5c0 1.6 0.2 2.2 0.5 1.2 0.2-0.9 0.2-2.3 0-3-0.3-0.6-0.5 0.1-0.5 1.8zm-299 1c-1.7 3.7-1.4 4.5 0.4 1.2 0.9-1.6 1.4-3.1 1.1-3.3-0.2-0.2-0.9 0.7-1.5 2.1zm266 5.5c0 1.4 0.2 1.9 0.5 1.2 0.2-0.6 0.2-1.8 0-2.5-0.3-0.6-0.5-0.1-0.5 1.3zm34.2 9.5c0 6 0.1 8.4 0.3 5.2 0.2-3.2 0.2-8.1 0-11-0.2-2.9-0.3-0.3-0.3 5.8zm-268.9-4.4c-0.4 0.6-0.5 1.2-0.2 1.5 0.2 0.3 0.7-0.2 1-1.1 0.7-1.7 0.1-2-0.8-0.4zm-38.9 5.6c-0.6 1.4-0.5 1.5 0.5 0.6 0.7-0.7 1-1.5 0.7-1.8-0.3-0.3-0.9 0.2-1.2 1.2zm34.6 3.8c-1.7 3.7-1.4 4.5 0.4 1.2 0.9-1.6 1.4-3.1 1.1-3.3-0.2-0.2-0.9 0.7-1.5 2.1zm-37.6 2.2c-0.6 1.4-0.5 1.5 0.5 0.6 0.7-0.7 1-1.5 0.7-1.8-0.3-0.3-0.9 0.2-1.2 1.2zm276.6 4.8c0 1.6 0.2 2.2 0.5 1.2 0.2-0.9 0.2-2.3 0-3-0.3-0.6-0.5 0.1-0.5 1.8zm33 5.5c0 1.4 0.2 1.9 0.5 1.2 0.2-0.6 0.2-1.8 0-2.5-0.3-0.6-0.5-0.1-0.5 1.3zm-34 2c0 1.4 0.2 1.9 0.5 1.2 0.2-0.6 0.2-1.8 0-2.5-0.3-0.6-0.5-0.1-0.5 1.3zm33 5c0 1.4 0.2 1.9 0.5 1.2 0.2-0.6 0.2-1.8 0-2.5-0.3-0.6-0.5-0.1-0.5 1.3zm-34.1 0.6c0 1.1 0.3 1.4 0.6 0.6 0.3-0.7 0.2-1.6-0.1-1.9-0.3-0.4-0.6 0.2-0.5 1.3zm-2 8c0 1.1 0.3 1.4 0.6 0.6 0.3-0.7 0.2-1.6-0.1-1.9-0.3-0.4-0.6 0.2-0.5 1.3zm-250.1 1.4c-0.6 1.1-0.8 2-0.6 2 0.3 0 1-0.9 1.6-2 0.6-1.1 0.8-2 0.6-2-0.3 0-1 0.9-1.6 2zm-46.5 13.6c-0.9 1.5-1.2 2.3-0.6 2 1.1-0.7 3.5-4.6 2.8-4.6-0.3 0-1.2 1.2-2.2 2.6zm-8.6 13.1c-1.3 1.6-1.2 1.7 0.4 0.4 0.9-0.7 1.7-1.5 1.7-1.7 0-0.8-0.8-0.3-2.1 1.3zm35.4 5.5c-1.5 2-2.5 3.8-2 3.8 0.3 0 1.2-1.1 2.1-2.5 1.7-2.6 1.6-3.5-0.1-1.3zm-45.4 8.5c-1.3 1.6-1.2 1.7 0.4 0.4 0.9-0.7 1.7-1.5 1.7-1.7 0-0.8-0.8-0.3-2.1 1.3zm35.1 6.8c-1.7 2.5-2.9 4.5-2.6 4.5 0.3 0 1.9-2 3.6-4.5 1.7-2.5 2.9-4.5 2.6-4.5-0.3 0-1.9 2-3.6 4.5zm256.4-2.3l-1.9 2.3 2.3-1.9c2.1-1.8 2.7-2.6 1.9-2.6-0.2 0-1.2 1-2.3 2.2zm-299.4 5.8c-1.2 1.6-1.9 3-1.6 3 0.2 0 1.4-1.4 2.6-3 1.2-1.7 1.9-3 1.6-3-0.2 0-1.4 1.3-2.6 3zm290.9 3.7l-3.4 3.8 3.8-3.4c3.4-3.3 4.2-4.1 3.4-4.1-0.2 0-1.9 1.7-3.8 3.7zm-296 3c-1.3 1.6-1.2 1.7 0.4 0.4 0.9-0.7 1.7-1.5 1.7-1.7 0-0.8-0.8-0.3-2.1 1.3zm39 3c-1.3 1.6-1.2 1.7 0.4 0.4 0.9-0.7 1.7-1.5 1.7-1.7 0-0.8-0.8-0.3-2.1 1.3zm249 2l-2.4 2.8 2.8-2.4c1.5-1.4 2.7-2.6 2.7-2.8 0-0.8-0.8-0.1-3.1 2.4zm-292 0c-1.3 1.6-1.2 1.7 0.4 0.4 0.9-0.7 1.7-1.5 1.7-1.7 0-0.8-0.8-0.3-2.1 1.3zm336 1c-1.3 1.6-1.2 1.7 0.4 0.4 1.6-1.3 2.1-2.1 1.3-2.1-0.2 0-1 0.8-1.7 1.7zm-296 1c-1.3 1.6-1.2 1.7 0.4 0.4 0.9-0.7 1.7-1.5 1.7-1.7 0-0.8-0.8-0.3-2.1 1.3zm-43 2c-1.3 1.6-1.2 1.7 0.4 0.4 0.9-0.7 1.7-1.5 1.7-1.7 0-0.8-0.8-0.3-2.1 1.3zm289.5 0.5l-1.9 2.3 2.3-1.9c2.1-1.8 2.7-2.6 1.9-2.6-0.2 0-1.2 1-2.3 2.2zm46 1l-1.9 2.3 2.3-1.9c2.1-1.8 2.7-2.6 1.9-2.6-0.2 0-1.2 1-2.3 2.2zm-339.5 3.5l-2.4 2.8 2.8-2.4c2.5-2.3 3.2-3.1 2.4-3.1-0.2 0-1.4 1.2-2.8 2.7zm41 1c-1.3 1.6-1.2 1.7 0.4 0.4 0.9-0.7 1.7-1.5 1.7-1.7 0-0.8-0.8-0.3-2.1 1.3zm293 2c-1.3 1.6-1.2 1.7 0.4 0.4 0.9-0.7 1.7-1.5 1.7-1.7 0-0.8-0.8-0.3-2.1 1.3zm-338.5 2.5l-1.9 2.3 2.3-1.9c2.1-1.8 2.7-2.6 1.9-2.6-0.2 0-1.2 1-2.3 2.2zm42.5-0.5c-1.3 1.6-1.2 1.7 0.4 0.4 0.9-0.7 1.7-1.5 1.7-1.7 0-0.8-0.8-0.3-2.1 1.3zm242.5-0.1c-1.8 1.4-1.8 1.5 0.4 0.4 1.2-0.6 2.2-1.3 2.2-1.5 0-0.8-0.5-0.6-2.6 1.1zm-245.5 4.1c-1.3 1.6-1.2 1.7 0.4 0.4 0.9-0.7 1.7-1.5 1.7-1.7 0-0.8-0.8-0.3-2.1 1.3zm-44 2c-1.3 1.6-1.2 1.7 0.4 0.4 1.6-1.3 2.1-2.1 1.3-2.1-0.2 0-1 0.8-1.7 1.7zm275.1 1.8c-2.5 1.3-4.1 2.4-3.7 2.5 1.1 0 8.7-3.9 8.7-4.5 0-0.7 0-0.7-5 2zm52.5 5.2c-4.4 4.2-5.7 5.8-3 3.6 4.8-4 12.4-11.4 11.4-11.3-0.2 0.1-4 3.5-8.4 7.7zm-333.6 0l-2.4 2.8 2.8-2.4c2.5-2.3 3.2-3.1 2.4-3.1-0.2 0-1.4 1.2-2.8 2.7zm42.5 0.5l-1.9 2.3 2.3-1.9c2.1-1.8 2.7-2.6 1.9-2.6-0.2 0-1.2 1-2.3 2.2zm-4 5l-1.9 2.3 2.3-1.9c2.1-1.8 2.7-2.6 1.9-2.6-0.2 0-1.2 1-2.3 2.2zm-45.5 2.5l-2.4 2.8 2.8-2.4c2.5-2.3 3.2-3.1 2.4-3.1-0.2 0-1.4 1.2-2.8 2.7zm330 1c-1.3 1.6-1.2 1.7 0.4 0.4 0.9-0.7 1.7-1.5 1.7-1.7 0-0.8-0.8-0.3-2.1 1.3zm-84.1 0c0.7 0.3 1.6 0.2 1.9-0.1 0.4-0.3-0.2-0.6-1.3-0.5-1.1 0-1.4 0.3-0.6 0.6zm-6 1c0.7 0.3 1.6 0.2 1.9-0.1 0.4-0.3-0.2-0.6-1.3-0.5-1.1 0-1.4 0.3-0.6 0.6zm-164 1c16.7 0.2 43.7 0.2 60 0 16.3-0.1 2.7-0.2-30.3-0.2-33 0-46.4 0.1-29.7 0.2zm155 0c1.2 0.2 3 0.2 4 0 0.9-0.3-0.1-0.5-2.3-0.4-2.2 0-3 0.2-1.7 0.4zm95.1 1c-1.3 1.6-1.2 1.7 0.4 0.4 0.9-0.7 1.7-1.5 1.7-1.7 0-0.8-0.8-0.3-2.1 1.3zm-334.4 5.5l-4 4.3 4.3-4c3.9-3.6 4.7-4.5 3.9-4.5-0.2 0-2.1 1.9-4.2 4.2zm328.4-1.5c-1.3 1.6-1.2 1.7 0.4 0.4 0.9-0.7 1.7-1.5 1.7-1.7 0-0.8-0.8-0.3-2.1 1.3zm-337.9 11.8c-2.4 2.5-4.2 4.5-3.9 4.5 0.3 0 2.5-2 4.9-4.5 2.4-2.5 4.2-4.5 3.9-4.5-0.3 0-2.5 2-4.9 4.5zm320-2c-1.4 0.8-2 1.4-1.4 1.5 0.5 0 1.9-0.7 3-1.5 2.4-1.8 1.6-1.9-1.6 0zm-48.2 15.2c0.6 0.2 1.8 0.2 2.5 0 0.6-0.3 0.1-0.5-1.3-0.5-1.4 0-1.9 0.2-1.2 0.5zm-8.5 1c0.9 0.2 2.5 0.2 3.5 0 0.9-0.3 0.1-0.5-1.8-0.5-1.9 0-2.7 0.2-1.7 0.5zm-227.5 1c26.5 0.2 69.9 0.2 96.5 0 26.5-0.1 4.8-0.2-48.3-0.2-53.1 0-74.8 0.1-48.2 0.2zm213 0c2.3 0.2 5.9 0.2 8 0 2-0.2 0.1-0.4-4.3-0.4-4.4 0-6.1 0.2-3.7 0.4z"/><path d="m484.7 15.1c1.2 1.2 2.4 2.1 2.7 1.8 0.2-0.2-0.8-1.3-2.2-2.3l-2.7-1.9zm-4.8 8.6l-2.4 2.8 2.8-2.4c1.5-1.4 2.7-2.6 2.7-2.8 0-0.8-0.8-0.1-3.1 2.4zm-44 5c-1.3 1.6-1.2 1.7 0.4 0.4 0.9-0.7 1.7-1.5 1.7-1.7 0-0.8-0.8-0.3-2.1 1.3zm31.5 6.5l-1.9 2.3 2.3-1.9c2.1-1.8 2.7-2.6 1.9-2.6-0.2 0-1.2 1-2.3 2.2zm-15 14l-2.9 3.3 3.3-2.9c3-2.8 3.7-3.6 2.9-3.6-0.2 0-1.6 1.5-3.3 3.2zm231.5 43.5l-3.4 3.8 3.8-3.4c3.4-3.3 4.2-4.1 3.4-4.1-0.2 0-1.9 1.7-3.8 3.7zm-48 9c-1.3 1.6-1.2 1.7 0.4 0.4 0.9-0.7 1.7-1.5 1.7-1.7 0-0.8-0.8-0.3-2.1 1.3zm17.5 20.5l-1.9 2.3 2.3-1.9c2.1-1.8 2.7-2.6 1.9-2.6-0.2 0-1.2 1-2.3 2.2zm-205.4 5.3c1.3 1.4 2.6 2.5 2.8 2.5 0.3 0-0.5-1.1-1.8-2.5-1.3-1.4-2.6-2.5-2.8-2.5-0.3 0 0.5 1.1 1.8 2.5zm151 10c-2.4 2.5-4.2 4.5-3.9 4.5 0.3 0 2.5-2 4.9-4.5 2.4-2.5 4.2-4.5 3.9-4.5-0.3 0-2.5 2-4.9 4.5zm-176 3.9c0 0.2 0.8 1 1.8 1.7 1.5 1.3 1.6 1.2 0.3-0.4-1.3-1.6-2.1-2.1-2.1-1.3zm4 4c0 0.2 0.8 1 1.8 1.7 1.5 1.3 1.6 1.2 0.3-0.4-1.3-1.6-2.1-2.1-2.1-1.3zm13 13.1c1.3 1.4 2.6 2.5 2.8 2.5 0.3 0-0.5-1.1-1.8-2.5-1.3-1.4-2.6-2.5-2.8-2.5-0.3 0 0.5 1.1 1.8 2.5zm133.9 3.2l-3.4 3.8 3.8-3.4c2-1.9 3.7-3.6 3.7-3.8 0-0.8-0.8 0-4.1 3.4zm-88.9 1.8c1.9 1.9 3.6 3.5 3.9 3.5 0.3 0-1-1.6-2.9-3.5-1.9-1.9-3.6-3.5-3.9-3.5-0.3 0 1 1.6 2.9 3.5zm122.9 3.2c-1.3 1.6-1.2 1.7 0.4 0.4 0.9-0.7 1.7-1.5 1.7-1.7 0-0.8-0.8-0.3-2.1 1.3zm-117.9 1.7c0 0.2 0.8 1 1.8 1.7 1.5 1.3 1.6 1.2 0.3-0.4-1.3-1.6-2.1-2.1-2.1-1.3zm113.4 2.8l-1.9 2.3 2.3-1.9c2.1-1.8 2.7-2.6 1.9-2.6-0.2 0-1.2 1-2.3 2.2zm-148.9 1.8c1 1.1 2 2 2.3 2 0.3 0-0.3-0.9-1.3-2-1-1.1-2-2-2.3-2-0.3 0 0.3 0.9 1.3 2zm107.4-0.3c-1.3 1.6-1.2 1.7 0.4 0.4 0.9-0.7 1.7-1.5 1.7-1.7 0-0.8-0.8-0.3-2.1 1.3zm35.5 4.5l-2.9 3.3 3.3-2.9c3-2.8 3.7-3.6 2.9-3.6-0.2 0-1.6 1.5-3.3 3.2zm-136.4 2.2c0 0.2 0.8 1 1.8 1.7 1.5 1.3 1.6 1.2 0.3-0.4-1.3-1.6-2.1-2.1-2.1-1.3zm-191.2 8.3c0.7 0.3 1.6 0.2 1.9-0.1 0.4-0.3-0.2-0.6-1.3-0.5-1.1 0-1.4 0.3-0.6 0.6zm-60.9 25c-1.3 1.6-1.2 1.7 0.4 0.4 0.9-0.7 1.7-1.5 1.7-1.7 0-0.8-0.8-0.3-2.1 1.3zm146.1 3.7c0 0.2 0.8 1 1.8 1.7 1.5 1.3 1.6 1.2 0.3-0.4-1.3-1.6-2.1-2.1-2.1-1.3zm42.1 99.2c0 1.1 0.3 1.4 0.6 0.6 0.3-0.7 0.2-1.6-0.1-1.9-0.3-0.4-0.6 0.2-0.5 1.3zm-40.2 86.1l-3.4 3.8 3.8-3.4c3.4-3.3 4.2-4.1 3.4-4.1-0.2 0-1.9 1.7-3.8 3.7zm-151.6 43c2.6 0.2 6.7 0.2 9 0 2.3-0.2 0.2-0.3-4.8-0.3-4.9 0-6.8 0.1-4.2 0.3zm52.5 0c0.7 0.3 1.6 0.2 1.9-0.1 0.4-0.3-0.2-0.6-1.3-0.5-1.1 0-1.4 0.3-0.6 0.6z" fill="rgb(170, 170, 170)"/><path d="m472 1.4c0 0.2 0.8 1 1.8 1.7 1.5 1.3 1.6 1.2 0.3-0.4-1.3-1.6-2.1-2.1-2.1-1.3zm12.5 12.6c1 1.1 2 2 2.3 2 0.3 0-0.3-0.9-1.3-2-1-1.1-2-2-2.3-2-0.3 0 0.3 0.9 1.3 2zm-41.6 7.7c-1.3 1.6-1.2 1.7 0.4 0.4 1.6-1.3 2.1-2.1 1.3-2.1-0.2 0-1 0.8-1.7 1.7zm30.5 8.5l-1.9 2.3 2.3-1.9c2.1-1.8 2.7-2.6 1.9-2.6-0.2 0-1.2 1-2.3 2.2zm-47 7l-1.9 2.3 2.3-1.9c2.1-1.8 2.7-2.6 1.9-2.6-0.2 0-1.2 1-2.3 2.2zm40 0l-1.9 2.3 2.3-1.9c2.1-1.8 2.7-2.6 1.9-2.6-0.2 0-1.2 1-2.3 2.2zm-6 5l-1.9 2.3 2.3-1.9c2.1-1.8 2.7-2.6 1.9-2.6-0.2 0-1.2 1-2.3 2.2zm-11 11l-2.9 3.3 3.3-2.9c3-2.8 3.7-3.6 2.9-3.6-0.2 0-1.6 1.5-3.3 3.2zm-6.5 5.5c-1.3 1.6-1.2 1.7 0.4 0.4 1.6-1.3 2.1-2.1 1.3-2.1-0.2 0-1 0.8-1.7 1.7zm208 28c-1.3 1.6-1.2 1.7 0.4 0.4 0.9-0.7 1.7-1.5 1.7-1.7 0-0.8-0.8-0.3-2.1 1.3zm-8 8c-1.3 1.6-1.2 1.7 0.4 0.4 0.9-0.7 1.7-1.5 1.7-1.7 0-0.8-0.8-0.3-2.1 1.3zm30.6 8.5l-4 4.3 4.3-4c3.9-3.6 4.7-4.5 3.9-4.5-0.2 0-2.1 1.9-4.2 4.2zm-61.1 21l-2.9 3.3 3.3-2.9c3-2.8 3.7-3.6 2.9-3.6-0.2 0-1.6 1.5-3.3 3.2zm-6 5.4c-1.8 1.4-1.8 1.5 0.4 0.4 1.2-0.6 2.2-1.3 2.2-1.5 0-0.8-0.5-0.6-2.6 1.1zm33.1 6.5c-1.1 1.7 0.1 2.1 1.5 0.4 0.8-0.9 0.8-1.5 0.2-1.5-0.6 0-1.4 0.5-1.7 1.1zm-5.5 5.4c-0.7 0.9-1.1 1.7-0.9 2 0.3 0.2 1-0.5 1.7-1.5 1.4-2.4 1-2.6-0.8-0.5zm-7.1 7.2c-1.3 1.6-1.2 1.7 0.4 0.4 0.9-0.7 1.7-1.5 1.7-1.7 0-0.8-0.8-0.3-2.1 1.3zm-43.4 2.3c-0.3 0.6 0.1 0.7 0.9 0.4 1.8-0.7 2.1-1.4 0.7-1.4-0.6 0-1.3 0.4-1.6 1zm-110.5 0.3c0 0.2 1.5 1.6 3.3 3.3l3.2 2.9-2.9-3.3c-2.8-3-3.6-3.7-3.6-2.9zm129.4 21.9l-1.9 2.3 2.3-1.9c2.1-1.8 2.7-2.6 1.9-2.6-0.2 0-1.2 1-2.3 2.2zm-49.9 5.8c-0.3 0.6 0.1 0.7 0.9 0.4 1.8-0.7 2.1-1.4 0.7-1.4-0.6 0-1.3 0.4-1.6 1zm38.4 4.7c-1.3 1.6-1.2 1.7 0.4 0.4 0.9-0.7 1.7-1.5 1.7-1.7 0-0.8-0.8-0.3-2.1 1.3zm-123.4 2.3c1 1.1 2 2 2.3 2 0.3 0-0.3-0.9-1.3-2-1-1.1-2-2-2.3-2-0.3 0 0.3 0.9 1.3 2zm-91.8 6.1c0.7 0.7 1.5 1 1.8 0.7 0.3-0.3-0.2-0.9-1.2-1.2-1.4-0.6-1.5-0.5-0.6 0.5zm-134.2 1.9c-0.3 0.6 0.1 0.7 0.9 0.4 1.8-0.7 2.1-1.4 0.7-1.4-0.6 0-1.3 0.4-1.6 1zm150.5 14.4c0 0.2 0.8 1 1.8 1.7 1.5 1.3 1.6 1.2 0.3-0.4-1.3-1.6-2.1-2.1-2.1-1.3zm-186.1 7.3c-1.3 1.6-1.2 1.7 0.4 0.4 0.9-0.7 1.7-1.5 1.7-1.7 0-0.8-0.8-0.3-2.1 1.3zm154.6 6.3c1 1.1 2 2 2.3 2 0.3 0-0.3-0.9-1.3-2-1-1.1-2-2-2.3-2-0.3 0 0.3 0.9 1.3 2zm-206 12.1c-0.4 0.6-0.5 1.2-0.2 1.5 0.2 0.3 0.7-0.2 1-1.1 0.7-1.7 0.1-2-0.8-0.4zm241.6 82.5c0 1.1 0.3 1.4 0.6 0.6 0.3-0.7 0.2-1.6-0.1-1.9-0.3-0.4-0.6 0.2-0.5 1.3zm-259.6 35.5c-0.4 0.6-0.5 1.2-0.2 1.5 0.2 0.3 0.7-0.2 1-1.1 0.7-1.7 0.1-2-0.8-0.4zm280.1 19.6c-0.6 1.4-0.5 1.5 0.5 0.6 0.7-0.7 1-1.5 0.7-1.8-0.3-0.3-0.9 0.2-1.2 1.2zm-7 14c-0.6 1.4-0.5 1.5 0.5 0.6 0.7-0.7 1-1.5 0.7-1.8-0.3-0.3-0.9 0.2-1.2 1.2zm-28.7 38c-1.3 1.6-1.2 1.7 0.4 0.4 0.9-0.7 1.7-1.5 1.7-1.7 0-0.8-0.8-0.3-2.1 1.3zm-150.1 21c0.7 0.3 1.6 0.2 1.9-0.1 0.4-0.3-0.2-0.6-1.3-0.5-1.1 0-1.4 0.3-0.6 0.6zm7.5 0c1.5 0.2 3.9 0.2 5.5 0 1.5-0.2 0.2-0.4-2.8-0.4-3 0-4.3 0.2-2.7 0.4zm12.5 0c1.2 0.2 3.2 0.2 4.5 0 1.2-0.2 0.2-0.4-2.3-0.4-2.5 0-3.5 0.2-2.2 0.4zm-246.9 26l-3.4 3.8 3.8-3.4c2-1.9 3.7-3.6 3.7-3.8 0-0.8-0.8 0-4.1 3.4zm192.9 5c1.8 0.2 4.5 0.2 6 0 1.5-0.2 0-0.4-3.3-0.4-3.3 0-4.5 0.2-2.7 0.4zm15.4 0c3.7 0.2 10 0.2 14 0 4-0.1 1-0.3-6.7-0.3-7.7 0-11 0.1-7.3 0.3zm26.6 0c0.7 0.3 1.6 0.2 1.9-0.1 0.4-0.3-0.2-0.6-1.3-0.5-1.1 0-1.4 0.3-0.6 0.6zm17 0c0.7 0.3 1.6 0.2 1.9-0.1 0.4-0.3-0.2-0.6-1.3-0.5-1.1 0-1.4 0.3-0.6 0.6z" fill="rgb(85, 85, 85)"/><path d="m474.5 5c1 1.1 2 2 2.3 2 0.3 0-0.3-0.9-1.3-2-1-1.1-2-2-2.3-2-0.3 0 0.3 0.9 1.3 2zm-35.1 20.2l-1.9 2.3 2.3-1.9c2.1-1.8 2.7-2.6 1.9-2.6-0.2 0-1.2 1-2.3 2.2zm236.5 37.5c-1.3 1.6-1.2 1.7 0.4 0.4 0.9-0.7 1.7-1.5 1.7-1.7 0-0.8-0.8-0.3-2.1 1.3zm3.1-0.8c0 0.6 0.4 1.3 1 1.6 0.6 0.3 0.7-0.1 0.4-0.9-0.7-1.8-1.4-2.1-1.4-0.7zm-0.1 35.8c-1.3 1.6-1.2 1.7 0.4 0.4 0.9-0.7 1.7-1.5 1.7-1.7 0-0.8-0.8-0.3-2.1 1.3zm-235.4 25.3c1 1.1 2 2 2.3 2 0.3 0-0.3-0.9-1.3-2-1-1.1-2-2-2.3-2-0.3 0 0.3 0.9 1.3 2zm201.5 7.5c-2.4 2.5-4.2 4.5-3.9 4.5 0.3 0 2.5-2 4.9-4.5 2.4-2.5 4.2-4.5 3.9-4.5-0.3 0-2.5 2-4.9 4.5zm-40.1 1.2c-1.3 1.6-1.2 1.7 0.4 0.4 0.9-0.7 1.7-1.5 1.7-1.7 0-0.8-0.8-0.3-2.1 1.3zm-26 25c-1.3 1.6-1.2 1.7 0.4 0.4 1.6-1.3 2.1-2.1 1.3-2.1-0.2 0-1 0.8-1.7 1.7zm-99.9 0.7c0 0.2 0.8 1 1.8 1.7 1.5 1.3 1.6 1.2 0.3-0.4-1.3-1.6-2.1-2.1-2.1-1.3zm-28.5 11.6c1 1.1 2 2 2.3 2 0.3 0-0.3-0.9-1.3-2-1-1.1-2-2-2.3-2-0.3 0 0.3 0.9 1.3 2zm-174.2 18.7c1.5 0.2 3.7 0.2 5 0 1.2-0.2 0-0.4-2.8-0.4-2.7 0-3.8 0.2-2.2 0.4zm121 121.8c0 2.2 0.2 3 0.4 1.7 0.2-1.2 0.2-3 0-4-0.3-0.9-0.5 0.1-0.4 2.3zm-177 135.2c1.5 0.2 3.9 0.2 5.5 0 1.5-0.2 0.2-0.4-2.8-0.4-3 0-4.3 0.2-2.7 0.4zm13.5 0c0.7 0.3 1.6 0.2 1.9-0.1 0.4-0.3-0.2-0.6-1.3-0.5-1.1 0-1.4 0.3-0.6 0.6zm9.9 31c1.8 0.2 5 0.2 7 0 2.1-0.2 0.7-0.4-3.2-0.4-3.8 0-5.5 0.2-3.8 0.4z" fill="rgb(128, 128, 128)"/><path d="m454.3 12.4c-22.6 20.3-38.6 36.5-43.7 44.3-16.3 25-15 48.4 3.9 73.8 2.9 3.8 18.5 20.1 34.6 36.1 37.3 36.9 45.9 43 66.7 47 18.8 3.6 37.5-0.5 54.2-11.9 6.9-4.7 21.7-18.8 78.1-74.1 13.5-13.3 29.5-28.9 35.5-34.8l10.9-10.6-2.5-3.4c-5.1-6.9-13.3-16.8-13.9-16.8-0.7 0-10.6 9.4-38.1 36.4-50.5 49.4-71.1 69.1-79.3 75.8-14 11.5-27 15.2-41.8 12.1-11.2-2.3-17.3-6.6-37.9-26.8-10.2-10-24-23.5-30.8-30-6.8-6.6-14.1-14.6-16.2-17.7-7.8-11.8-9.1-25.7-3.5-37.3 3.5-7.2 16.8-21.1 40.4-42.5l15.9-14.5-8.6-8.8c-4.8-4.8-9-8.7-9.3-8.7-0.4 0-7 5.6-14.6 12.4zm-185.8 145.2c-34.2 3.5-64.4 17.1-86 38.9-14.4 14.3-24.9 31.4-34.3 55.5-2.2 5.8-6.5 16.8-9.5 24.5-8.9 22.8-25.5 55.6-37.5 74-12 18.3-32 45.9-42.1 58.1-1.4 1.8-4.8 6-7.6 9.5-10.8 13.6-28.2 33.3-43 48.7l-7.9 8.3 138.4-0.4c137.7-0.3 138.6-0.3 150.2-2.5 20.7-3.8 44.6-13.2 60.9-23.7 9.1-5.8 28.2-21.8 34.5-28.8 4.8-5.4 16-20.1 20.6-27.3 17.3-26.8 27.4-67.6 23.9-96.4-4.9-39.8-21.3-73.5-48.6-99.3-19-18.1-48.1-32.6-74.5-37.1-9.6-1.7-30.2-2.8-37.5-2zm27.5 30.8c18.2 2.8 37.9 11 52.2 21.7 8.8 6.5 22.6 21.3 28.4 30.2 11.9 18.2 19.6 41.7 21 64.4 2.2 33.6-14.4 73.3-40.8 97.8-18 16.6-35.3 26.8-58.5 34.4-24 7.9-19.6 7.6-128.8 7.3-53.3-0.2-97.4-0.3-97.8-0.2-0.4 0 2.1-3.5 5.6-7.8 17.8-21.6 43-57.5 58.7-83.7 11.1-18.5 27-51.8 35.8-75 4.4-11.6 9.5-24.3 11.2-28.3 14.2-33.3 43.6-55.8 79.7-61.1 9.2-1.4 23-1.2 33.3 0.3z" fill="rgb(255, 255, 255)"/><path d="m432.4 32.2l-1.9 2.3 2.3-1.9c2.1-1.8 2.7-2.6 1.9-2.6-0.2 0-1.2 1-2.3 2.2zm238.5 35.5l-2.4 2.8 2.8-2.4c1.5-1.4 2.7-2.6 2.7-2.8 0-0.8-0.8-0.1-3.1 2.4zm-44 43c-1.3 1.6-1.2 1.7 0.4 0.4 0.9-0.7 1.7-1.5 1.7-1.7 0-0.8-0.8-0.3-2.1 1.3zm-4 4c-1.3 1.6-1.2 1.7 0.4 0.4 0.9-0.7 1.7-1.5 1.7-1.7 0-0.8-0.8-0.3-2.1 1.3zm38 0c-1.3 1.6-1.2 1.7 0.4 0.4 0.9-0.7 1.7-1.5 1.7-1.7 0-0.8-0.8-0.3-2.1 1.3zm-209.9 15.6c0 0.2 1.5 1.6 3.3 3.3l3.2 2.9-2.9-3.3c-2.8-3-3.6-3.7-3.6-2.9zm140.9 14.4l-2.4 2.8 2.8-2.4c1.5-1.4 2.7-2.6 2.7-2.8 0-0.8-0.8-0.1-3.1 2.4zm-8 45c-1.3 1.6-1.2 1.7 0.4 0.4 0.9-0.7 1.7-1.5 1.7-1.7 0-0.8-0.8-0.3-2.1 1.3zm-154.8 127.9c0 1.1 0.3 1.4 0.6 0.6 0.3-0.7 0.2-1.6-0.1-1.9-0.3-0.4-0.6 0.2-0.5 1.3zm-65.2 77.1c-1.3 1.6-1.2 1.7 0.4 0.4 1.6-1.3 2.1-2.1 1.3-2.1-0.2 0-1 0.8-1.7 1.7zm-320.5 32.5l-1.9 2.3 2.3-1.9c2.1-1.8 2.7-2.6 1.9-2.6-0.2 0-1.2 1-2.3 2.2zm329.5 3.5c-1.3 1.6-1.2 1.7 0.4 0.4 0.9-0.7 1.7-1.5 1.7-1.7 0-0.8-0.8-0.3-2.1 1.3zm-178.1 14c1.2 0.2 3.2 0.2 4.5 0 1.2-0.2 0.2-0.4-2.3-0.4-2.5 0-3.5 0.2-2.2 0.4z" fill="rgb(212, 212, 212)"/></svg>