<svg xmlns="http://www.w3.org/2000/svg" viewBox="0 0 499 491" width="32" height="32"><path d="m296.3 0.7c2.6 0.2 6.8 0.2 9.5 0 2.6-0.2 0.4-0.3-4.8-0.3-5.2 0-7.4 0.1-4.7 0.3zm-15.3 2.2c-5.7 1.8-12 4.8-12 5.6 0 0.3 1.8-0.4 4.1-1.5 2.3-1.2 7.3-3 11.2-4 4-1 6.1-1.9 4.7-1.9-1.4 0-5 0.8-8 1.8zm31.3-1.2c0.9 0.2 2.3 0.2 3 0 0.6-0.3-0.1-0.5-1.8-0.5-1.6 0-2.2 0.2-1.2 0.5zm16.2 5.1c13.3 6.5 21.7 14.5 29.6 28.3 1.7 3 2.8 4.5 2.4 3.4-4-12.8-23.9-31.3-37.5-34.9-1.4-0.4 1.1 1.1 5.5 3.2zm-65.3 5.2c-2.3 1.7-4.2 3.3-4.2 3.6 0 0.4 5.6-3.4 8.5-5.8 2.3-2-0.6-0.5-4.3 2.2zm-11 9.4c-2.8 3-6.5 7.5-8.2 10.2-3.3 5.2-9 19.3-9 22.1 0 1 1.3-1.9 2.9-6.5 3.6-10.3 8-17.8 15-25.4 2.9-3.2 5.1-5.8 4.9-5.8-0.3 0-2.8 2.4-5.6 5.4zm41.1 5.3c0.9 0.2 2.3 0.2 3 0 0.6-0.3-0.1-0.5-1.8-0.5-1.6 0-2.2 0.2-1.2 0.5zm9.5 0c1.2 0.2 3 0.2 4 0 0.9-0.3-0.1-0.5-2.3-0.4-2.2 0-3 0.2-1.7 0.4zm-19.4 2.8c-2.7 1.3-6.7 4.4-8.9 6.7l-4 4.2 5.3-4.7c2.9-2.5 7.6-5.5 10.5-6.6 2.9-1.1 4.5-2 3.6-2-0.8-0.1-3.7 1-6.5 2.4zm27.6-1.6c11.7 3.6 22.1 13.9 26.5 26.1 0.9 2.5 2 9.2 2.5 15l0.9 10.5-0.3-10.5c-0.5-15-4.7-24.7-15-34.2-3.6-3.2-12.7-7.8-15.3-7.7-1.2 0-1 0.3 0.7 0.8zm-42.3 14.9c-2.5 2.8-6.6 12.4-7.7 18.2-0.5 2.9-0.9 8.2-0.8 11.9 0.1 6.4 0.1 6.3 0.8-2.4 0.8-10.9 2.9-18.4 6.9-24.8 3.2-5 3.5-5.9 0.8-2.9zm92.3-1.3c0 0.5 0.5 1.7 1 2.5 0.5 0.8 1 1 1 0.5 0-0.6-0.5-1.7-1-2.5-0.5-0.8-1-1.1-1-0.5zm2.1 5c0 0.5 0.6 3.7 1.4 7 1.4 5.8 1.4 5.9 0.9 1.1-0.5-4.4-2.2-10.6-2.3-8.1zm-129.4 14.7c-0.4 2.9-0.6 15.2-0.5 27.3l0.2 22 0.6-27c0.3-14.9 0.5-27.1 0.4-27.3 0-0.1-0.4 2.1-0.7 5zm132.8 51.8c0 29.4 0.1 41.5 0.2 26.7 0.2-14.7 0.2-38.7 0-53.5-0.1-14.7-0.2-2.6-0.2 26.8zm-100.5-34.5c-2.4 2.4-4.2 4.6-3.9 4.8 0.2 0.2 2.4-1.9 4.8-4.5 5.5-6.1 5-6.3-0.9-0.3zm8.5-0.5c1.6 1.6 3 2.8 3.2 2.6 0.5-0.5-4.5-5.6-5.4-5.6-0.4 0 0.6 1.3 2.2 3zm9.5 9.1c3 2.8 13.6 13.1 23.5 22.8 9.9 9.7 21.4 20.8 25.6 24.7l7.6 7v-4.1c0.1-3.3 0-3.5-0.6-1.2l-0.6 2.8-9-8.3c-4.9-4.6-17.9-17.1-28.8-27.8-10.9-10.7-20.6-19.9-21.5-20.3-1-0.5 0.8 1.5 3.8 4.4zm-23.9-2.5c0 1.1 0.3 1.4 0.6 0.6 0.3-0.7 0.2-1.6-0.1-1.9-0.3-0.4-0.6 0.2-0.5 1.3zm80.2 2.4c0 2.5 0.2 3.5 0.4 2.2 0.2-1.2 0.2-3.2 0-4.5-0.2-1.2-0.4-0.2-0.4 2.3zm-190.6 103.6c-43.8 43.2-79.7 78.8-79.7 79.2 0 0.9 13.8-12.6 66-64.3 26.2-25.8 57.8-57.1 70.3-69.3 21-20.7 24.4-24.2 23.5-24.2-0.2 0-36.2 35.4-80.1 78.6zm116-74c-3.1 2.5-5.7 5.2-5.7 5.8 0.1 0.6 0.6 0.5 1.3-0.4 0.7-0.8 3.1-3.2 5.5-5.3l4.3-3.8 19.2 18.3c10.6 10 23 21.8 27.7 26.3 16.6 15.7 33.9 32.3 64 61.5 16.8 16.3 41 39.6 53.8 51.9 12.8 12.3 24.8 24.6 26.8 27.3 5.1 6.8 7.5 13.9 8.4 23.8l0.7 8.5 0.2-6.6c0.1-8.3-2.6-17.6-7.3-24.4-3.7-5.4-10.9-13.1-25.6-27-8.4-7.9-34.2-32.7-77.5-74.5-34.3-33.2-42.5-41-49.5-47.5-6.6-6.2-11-10.3-27-25.5-2-1.9-5.9-5.7-8.7-8.3l-5-4.8zm-93.3 89.5c-33 33.1-60.7 60.5-61.5 60.9-0.7 0.5-1.1 1.1-0.8 1.4 0.3 0.3 27.9-26.7 61.4-59.9 33.4-33.3 61-60.5 61.2-60.5 0.1 0 0.3 13.4 0.3 29.7l-0.1 29.8-4.2 2c-6.2 2.8-13.3 10.5-17 18.3-2.7 5.6-3.2 8-3.3 14.7l-0.2 8 0.7-8c1.2-14.2 8.8-26.3 20.1-32l5-2.5v-31c0-17.1-0.3-31-0.7-31-0.4 0-27.8 27-60.9 60.1zm200.6-32.8c42.5 40.6 59.5 57 75.8 73.1 10.5 10.5 19.2 18.6 19.1 18.1-0.1-0.9-30.9-31.1-84.1-82.4-8.6-8.3-16-15.1-16.5-15.1-0.4 0 2.1 2.8 5.7 6.3zm-108 36.6c6.9 3.6 14.3 11.4 17.8 18.9 3.6 7.7 3.8 20.7 0.4 29.3-4 10-12.9 18.1-23.5 21.4-2.3 0.8-3.3 1.4-2.2 1.4 2.7 0.1 13.3-5.2 17.2-8.6 4.7-4.1 9.8-13.3 11.3-20.3 2.7-12.9-1.4-26.6-10.7-35.5-4.3-4.2-12.9-9.6-15-9.5-0.4 0.1 1.7 1.4 4.7 2.9zm-55.8 44.2c0.6 1.6 1.2 2.8 1.4 2.6 0.5-0.5-1.3-5.7-2-5.7-0.3 0 0 1.4 0.6 3.1zm1.8 4.5c0 1.1 3.8 7.4 4.5 7.4 0.2 0-0.5-1.7-1.7-3.8-2.7-4.6-2.8-4.8-2.8-3.6zm265.8 15.2c4.2 4.3 9.4 10.8 11.6 14.5 4.8 8.4 5.9 8.8 1.4 0.6-3.1-5.7-18-22.9-19.8-22.9-0.5 0 2.6 3.5 6.8 7.8zm-398.3 7.7c9.3 9.1 45.2 43.4 71.5 68 5.9 5.5 20.1 19 31.6 30 11.5 11 27.2 25.8 34.9 33 7.7 7.1 19.8 18.6 27 25.5 12.4 11.9 31.6 29.6 38 35 8.7 7.4 20.2 14.1 23.8 14 0.7-0.1-1.5-1.2-4.7-2.6-10.4-4.2-18.8-11.4-71.1-60.8-9.3-8.8-21.7-20.5-27.5-26.1-5.8-5.5-14.3-13.6-19-18-4.7-4.3-17.3-16.3-28-26.5-51.7-49.3-94.5-89.3-76.5-71.5zm32-7.9c5.9 6 35.2 34.2 58.5 56.4 11.3 10.7 25.7 24.4 32 30.5 6.3 6.1 17.3 16.4 24.5 23 7.1 6.6 18.8 17.6 26 24.5 46.5 44.7 57.2 54 62.5 54 0.8 0-0.7-1.1-3.5-2.4-7-3.3-7.9-4.1-50-44.1-20.9-19.8-51.7-49-68.5-64.9-32.8-31.2-71.3-67.9-77.1-73.6-1.9-1.9-4.6-4.4-6-5.5-1.3-1-0.6-0.1 1.6 2.1zm108.5-3.2c3.3 3.6 13.5 9.6 16.2 9.6 0.7 0-1.2-1.2-4.2-2.6-3-1.4-7.7-4.4-10.5-6.6l-5-4.1zm20 10.6c2.5 0.8 16.7 1.3 15.9 0.6-0.2-0.2-4.4-0.6-9.4-0.8-4.9-0.3-7.9-0.2-6.5 0.2z"/><path d="m493 296.5c0 0.5 0.5 1.7 1 2.5 0.5 0.8 1 1 1 0.5 0-0.6-0.5-1.7-1-2.5-0.5-0.8-1-1.1-1-0.5zm2.5 6.5c0.2 1.4 0.9 5.6 1.6 9.4 0.6 3.9 0.9 11 0.7 16-0.4 7.1-0.3 8.2 0.4 5.1 1.3-5.3 0.3-22.9-1.6-28.5-0.9-2.5-1.4-3.4-1.1-2zm-436.7 3.8c-1.2 1.6-3.2 4.1-4.3 5.6-1.1 1.5-3.4 4.7-5.1 7-4.9 6.6-14.9 21.7-22 33.3-7.8 12.7-20.8 37.2-20.2 37.9 0.3 0.2 2.4-3.5 4.7-8.3 9.9-20.7 31.9-55 49.4-77.1 2-2.5-0.2-1.1-2.5 1.6zm6.3-1.2c3.6 5 12.1 15.4 12.6 15.4 0.6 0-11.8-15.9-13-16.7-0.6-0.3-0.4 0.2 0.4 1.3zm14.9 19.4c1.2 1.6 2.4 3 2.6 3 0.3 0-0.4-1.4-1.6-3-1.2-1.7-2.4-3-2.6-3-0.3 0 0.4 1.3 1.6 3zm12 17.5c5 7.4 9.2 13.5 9.5 13.5 0.5 0-3.9-6.9-12.3-19.3-2.9-4.2-5.5-7.7-5.7-7.7-0.3 0 3.5 6.1 8.5 13.5zm376.6-6.3c-1 2.9-3 6.9-4.4 8.8-4.3 5.9-107.1 107.3-112.4 110.9-2.8 1.9-7.1 4.2-9.7 5.2-2.5 1-3.9 1.8-3 1.9 0.9 0 4.5-1.4 8-3.2 5.5-2.7 12.1-8.7 48.4-44.6 68.9-68 69.8-69 72.9-75.5 1.5-3.2 2.6-6.5 2.4-7.3-0.2-0.9-1.1 0.8-2.2 3.8zm27.5 3.4c0 1.1 0.3 1.4 0.6 0.6 0.3-0.7 0.2-1.6-0.1-1.9-0.3-0.4-0.6 0.2-0.5 1.3zm-3 8.9c-3 8.6-8.5 15.8-21.7 28.5-19 18.2-61.4 60.3-61.4 60.9 0 0.3 8.4-7.8 18.8-18 10.3-10.3 26.9-26.7 37-36.5 10.1-9.8 19.9-20 21.8-22.6 3.5-4.7 8.8-16.2 8.2-17.9-0.2-0.5-1.4 2-2.7 5.6zm-391.1 8.9c0 0.3 2 3.9 4.3 7.9 6.8 11.3 12.8 22.5 15.8 29.6 1.6 3.6 2.9 5.8 2.9 4.8 0-1.9-12.4-26.2-18.3-36.1-3.8-6.2-4.7-7.4-4.7-6.2zm-97.4 39.3c-2.9 8.8-4.6 18.7-4.4 26.8 0.1 8 0.1 8 0.9-3 0.5-7.2 1.7-13.9 3.4-19.3 1.5-4.6 2.4-8.6 2.2-8.9-0.3-0.2-1.2 1.7-2.1 4.4zm120.5 5.3c0 0.3 0.6 3 1.4 6 1.4 5.2 1.5 5.3 1 1.1-0.5-3.4-2.5-9.5-2.4-7.1zm3.1 19.9c-0.6 24.9-13.2 45.7-34.3 56.5-5 2.5-8.5 4.6-7.9 4.6 0.7 0 3.3-1.1 5.9-2.3 23.8-12 38-34.7 36.9-59.2l-0.4-8zm-127.1 11.1c-0.1 2.7 2.6 11.7 5.1 17.2 5.1 10.9 16.6 23 27 28.4 4.6 2.4 3.2 0.8-2.3-2.6-12.8-7.8-22.9-21.2-27.3-36-1.4-4.7-2.5-7.8-2.5-7zm390.9 21.6c-18.3 18.4-24.6 23.7-33.6 28.2-9.7 4.9-17.4 6.5-30.9 6.6-10.1 0-11.1 0.1-6.5 0.8 12.1 1.8 26.9-1 39.5-7.5 7-3.6 10.4-6.5 28.5-24.4 11.3-11.1 20.3-20.3 20-20.3-0.3 0-7.9 7.5-17 16.6zm-74 8.5c2.4 0.7 20.5 1.1 18.5 0.4-0.5-0.2-5.5-0.5-11-0.8-5.5-0.2-8.9 0-7.5 0.4zm-277 18.9c0.8 0.5 2 1 2.5 1 0.6 0 0.3-0.5-0.5-1-0.8-0.5-1.9-1-2.5-1-0.5 0-0.3 0.5 0.5 1zm4.1 1.5c1.1 1 15.4 3.5 19.7 3.4 4.1-0.2 3.7-0.3-2.3-0.9-3.8-0.5-9-1.3-11.5-1.9-5-1.2-6.6-1.3-5.9-0.6zm36.7 0.2c0.7 0.3 1.6 0.2 1.9-0.1 0.4-0.3-0.2-0.6-1.3-0.5-1.1 0-1.4 0.3-0.6 0.6zm-11.8 2.1c0 0.4 1.6 0.6 3.5 0.4 1.9-0.2 3.5-0.6 3.5-0.8 0-0.2-1.6-0.4-3.5-0.4-1.9 0-3.5 0.4-3.5 0.8zm237.8 1.9c0.7 0.3 1.6 0.2 1.9-0.1 0.4-0.3-0.2-0.6-1.3-0.5-1.1 0-1.4 0.3-0.6 0.6zm4 1c0.6 0.2 1.8 0.2 2.5 0 0.6-0.3 0.1-0.5-1.3-0.5-1.4 0-1.9 0.2-1.2 0.5z"/><path d="m296.7 26.2c1.5 0.7 3 0.7 5 0 2.6-1 2.4-1-2.2-1.1-4.2 0-4.6 0.2-2.8 1.1zm28.3 8.2c0 0.2 0.8 1 1.8 1.7 1.5 1.3 1.6 1.2 0.3-0.4-1.3-1.6-2.1-2.1-2.1-1.3zm16.1 39.6c-0.7 10.5-0.7 22.9 0.1 21.6 0.5-0.9 0.7-7.1 0.5-13.8-0.1-6.8-0.4-10.3-0.6-7.8zm-82 4.8c-0.1 1.8 0.6 4 1.4 4.8 1.8 1.9 1.8 2 0.1-3.6-1.4-4.4-1.5-4.4-1.5-1.2zm32.4 16.2c1 1.1 2 2 2.3 2 0.3 0-0.3-0.9-1.3-2-1-1.1-2-2-2.3-2-0.3 0 0.3 0.9 1.3 2zm48.9 7.6c0.7 5.1 1.6 5.5 1.6 0.6 0-2.3-0.5-4.2-1-4.2-0.6 0-0.8 1.6-0.6 3.6zm-0.2 11.9c0.1 3.6 0.6 6.5 1 6.5 0.4 0 0.8-2.9 0.8-6.5 0-3.7-0.4-6.5-1-6.5-0.6 0-0.9 2.6-0.8 6.5zm-109.7-3.4c-1.1 1.7 0.1 2.1 1.5 0.4 0.8-0.9 0.8-1.5 0.2-1.5-0.6 0-1.4 0.5-1.7 1.1zm-6.6 7.6l-2.4 2.8 2.8-2.4c1.5-1.4 2.7-2.6 2.7-2.8 0-0.8-0.8-0.1-3.1 2.4zm54.1-0.2c1.3 1.4 2.6 2.5 2.8 2.5 0.3 0-0.5-1.1-1.8-2.5-1.3-1.4-2.6-2.5-2.8-2.5-0.3 0 0.5 1.1 1.8 2.5zm-60.1 6.2c-1.3 1.6-1.2 1.7 0.4 0.4 0.9-0.7 1.7-1.5 1.7-1.7 0-0.8-0.8-0.3-2.1 1.3zm41.2 40.3c-0.1 23.6 0.3 42 0.8 42 0.5 0 0.9-18.5 0.9-42 0.1-24.2-0.3-42-0.8-42-0.5 0-0.9 17.8-0.9 42zm81.6-40.3c-1 0.9-0.9 6.1 0.1 6.7 0.5 0.3 0.9-1.3 1-3.5 0.3-3.9 0.1-4.5-1.1-3.2zm-136.8 12c-1.3 1.6-1.2 1.7 0.4 0.4 0.9-0.7 1.7-1.5 1.7-1.7 0-0.8-0.8-0.3-2.1 1.3zm93.1-0.4c0 0.2 1.5 1.6 3.3 3.3l3.2 2.9-2.9-3.3c-2.8-3-3.6-3.7-3.6-2.9zm40 2c0 0.2 0.6 1 1.4 1.6 1.1 0.9 1.6 0.9 2.2-0.1 0.4-0.7 0.4-1-0.1-0.6-0.4 0.4-1.4 0.3-2.2-0.3-0.7-0.6-1.3-0.9-1.3-0.6zm-109.1 13.4l-2.4 2.8 2.8-2.4c2.5-2.3 3.2-3.1 2.4-3.1-0.2 0-1.4 1.2-2.8 2.7zm-10 10c-1.3 1.6-1.2 1.7 0.4 0.4 0.9-0.7 1.7-1.5 1.7-1.7 0-0.8-0.8-0.3-2.1 1.3zm-44.9 7l-6.5 6.8 6.8-6.5c3.7-3.5 6.7-6.6 6.7-6.7 0-0.8-1 0.2-7 6.4zm154.5-1.7c1 1.1 2 2 2.3 2 0.3 0-0.3-0.9-1.3-2-1-1.1-2-2-2.3-2-0.3 0 0.3 0.9 1.3 2zm-124.6 9.7c-1.3 1.6-1.2 1.7 0.4 0.4 0.9-0.7 1.7-1.5 1.7-1.7 0-0.8-0.8-0.3-2.1 1.3zm137.6 1.3c1 1.1 2 2 2.3 2 0.3 0-0.3-0.9-1.3-2-1-1.1-2-2-2.3-2-0.3 0 0.3 0.9 1.3 2zm-178.6 1.7l-2.4 2.8 2.8-2.4c1.5-1.4 2.7-2.6 2.7-2.8 0-0.8-0.8-0.1-3.1 2.4zm217.1-0.3c0 0.2 0.8 1 1.8 1.7 1.5 1.3 1.6 1.2 0.3-0.4-1.3-1.6-2.1-2.1-2.1-1.3zm-230.1 13.3l-3.4 3.8 3.8-3.4c2-1.9 3.7-3.6 3.7-3.8 0-0.8-0.8 0-4.1 3.4zm244.6-0.7c1 1.1 2 2 2.3 2 0.3 0-0.3-0.9-1.3-2-1-1.1-2-2-2.3-2-0.3 0 0.3 0.9 1.3 2zm-25.5 12.5c1.9 1.9 3.6 3.5 3.9 3.5 0.3 0-1-1.6-2.9-3.5-1.9-1.9-3.6-3.5-3.9-3.5-0.3 0 1 1.6 2.9 3.5zm-236.6 3.7l-1.9 2.3 2.3-1.9c2.1-1.8 2.7-2.6 1.9-2.6-0.2 0-1.2 1-2.3 2.2zm39 1l-1.9 2.3 2.3-1.9c2.1-1.8 2.7-2.6 1.9-2.6-0.2 0-1.2 1-2.3 2.2zm245.1 3.8c1 1.1 2 2 2.3 2 0.3 0-0.3-0.9-1.3-2-1-1.1-2-2-2.3-2-0.3 0 0.3 0.9 1.3 2zm-252.6 3.7l-2.4 2.8 2.8-2.4c1.5-1.4 2.7-2.6 2.7-2.8 0-0.8-0.8-0.1-3.1 2.4zm272.6 17.3c2.7 2.7 5.1 5 5.4 5 0.3 0-1.7-2.3-4.4-5-2.7-2.8-5.1-5-5.4-5-0.3 0 1.7 2.2 4.4 5zm-37.5-0.7c0 0.2 1.5 1.6 3.3 3.3l3.2 2.9-2.9-3.3c-2.8-3-3.6-3.7-3.6-2.9zm-259.1 7.4l-2.4 2.8 2.8-2.4c2.5-2.3 3.2-3.1 2.4-3.1-0.2 0-1.4 1.2-2.8 2.7zm70.2 9.9c0 1.1 0.3 1.4 0.6 0.6 0.3-0.7 0.2-1.6-0.1-1.9-0.3-0.4-0.6 0.2-0.5 1.3zm251.9 6.7c0 0.2 1.5 1.6 3.3 3.3l3.2 2.9-2.9-3.3c-2.8-3-3.6-3.7-3.6-2.9zm-32.5 5.7c1 1.1 2 2 2.3 2 0.3 0-0.3-0.9-1.3-2-1-1.1-2-2-2.3-2-0.3 0 0.3 0.9 1.3 2zm-316.6 2.7c-1.3 1.6-1.2 1.7 0.4 0.4 0.9-0.7 1.7-1.5 1.7-1.7 0-0.8-0.8-0.3-2.1 1.3zm-3.9 4.4c0 0.5 0.5 0.7 1 0.4 0.6-0.3 1-0.8 1-1.1 0-0.2-0.4-0.4-1-0.4-0.5 0-1 0.5-1 1.1zm366.5 1.9c1 1.1 2 2 2.3 2 0.3 0-0.3-0.9-1.3-2-1-1.1-2-2-2.3-2-0.3 0 0.3 0.9 1.3 2zm-356.5 9.3c0 0.2 1.5 1.6 3.3 3.3l3.2 2.9-2.9-3.3c-2.8-3-3.6-3.7-3.6-2.9zm-37 3.1c0 0.2 0.8 1 1.8 1.7 1.5 1.3 1.6 1.2 0.3-0.4-1.3-1.6-2.1-2.1-2.1-1.3zm374 4c0 0.2 0.8 1 1.8 1.7 1.5 1.3 1.6 1.2 0.3-0.4-1.3-1.6-2.1-2.1-2.1-1.3zm-319.5 8.6c1 1.1 2 2 2.3 2 0.3 0-0.3-0.9-1.3-2-1-1.1-2-2-2.3-2-0.3 0 0.3 0.9 1.3 2zm3.5 3.4c0 0.2 0.8 1 1.8 1.7 1.5 1.3 1.6 1.2 0.3-0.4-1.3-1.6-2.1-2.1-2.1-1.3zm-77.9 2.9c0.2 0.1 1.2 0.9 2.2 1.6 1.5 1.2 1.7 1.2 1.1-0.3-0.3-0.9-1.3-1.6-2.2-1.6-0.8 0-1.3 0.1-1.1 0.3zm15.6 17.8c0.7 0.7 1.5 1 1.8 0.7 0.3-0.3-0.2-0.9-1.2-1.2-1.4-0.6-1.5-0.5-0.6 0.5zm45.3 2.3c0 0.2 0.8 1 1.8 1.7 1.5 1.3 1.6 1.2 0.3-0.4-1.3-1.6-2.1-2.1-2.1-1.3zm9 7.1c1.3 1.4 2.6 2.5 2.8 2.5 0.3 0-0.5-1.1-1.8-2.5-1.3-1.4-2.6-2.5-2.8-2.5-0.3 0 0.5 1.1 1.8 2.5zm366 0.4c0 0.6 0.4 1.3 1 1.6 0.6 0.3 0.7-0.1 0.4-0.9-0.7-1.8-1.4-2.1-1.4-0.7zm-325.5 2.1c1 1.1 2 2 2.3 2 0.3 0-0.3-0.9-1.3-2-1-1.1-2-2-2.3-2-0.3 0 0.3 0.9 1.3 2zm-19 18c1 1.1 2 2 2.3 2 0.3 0-0.3-0.9-1.3-2-1-1.1-2-2-2.3-2-0.3 0 0.3 0.9 1.3 2zm9 10c2.1 2.2 4.1 4 4.4 4 0.3 0-1.3-1.8-3.4-4-2.1-2.2-4.1-4-4.4-4-0.3 0 1.3 1.8 3.4 4zm280.9 6.2l-2.9 3.3 3.3-2.9c3-2.8 3.7-3.6 2.9-3.6-0.2 0-1.6 1.5-3.3 3.2zm-8 8l-1.9 2.3 2.3-1.9c2.1-1.8 2.7-2.6 1.9-2.6-0.2 0-1.2 1-2.3 2.2zm-6.5 7.5c-1.3 1.6-1.2 1.7 0.4 0.4 0.9-0.7 1.7-1.5 1.7-1.7 0-0.8-0.8-0.3-2.1 1.3zm-200.9 2.7c0 0.2 0.8 1 1.8 1.7 1.5 1.3 1.6 1.2 0.3-0.4-1.3-1.6-2.1-2.1-2.1-1.3zm223.4 12.8l-1.9 2.3 2.3-1.9c2.1-1.8 2.7-2.6 1.9-2.6-0.2 0-1.2 1-2.3 2.2zm-208.9 0.8c1 1.1 2 2 2.3 2 0.3 0-0.3-0.9-1.3-2-1-1.1-2-2-2.3-2-0.3 0 0.3 0.9 1.3 2zm204.4 3.7c-1.3 1.6-1.2 1.7 0.4 0.4 0.9-0.7 1.7-1.5 1.7-1.7 0-0.8-0.8-0.3-2.1 1.3zm-188.4 10.3c1 1.1 2 2 2.3 2 0.3 0-0.3-0.9-1.3-2-1-1.1-2-2-2.3-2-0.3 0 0.3 0.9 1.3 2zm-39 2c1 1.1 2 2 2.3 2 0.3 0-0.3-0.9-1.3-2-1-1.1-2-2-2.3-2-0.3 0 0.3 0.9 1.3 2zm44.5 4.4c0 0.2 0.8 1 1.8 1.7 1.5 1.3 1.6 1.2 0.3-0.4-1.3-1.6-2.1-2.1-2.1-1.3zm-36 2c0 0.2 0.8 1 1.8 1.7 1.5 1.3 1.6 1.2 0.3-0.4-1.3-1.6-2.1-2.1-2.1-1.3zm192.9 5.3c-1.3 1.6-1.2 1.7 0.4 0.4 0.9-0.7 1.7-1.5 1.7-1.7 0-0.8-0.8-0.3-2.1 1.3zm-187.9 0.6c0 0.2 1.5 1.6 3.3 3.3l3.2 2.9-2.9-3.3c-2.8-3-3.6-3.7-3.6-2.9zm183.4 3.9l-1.9 2.3 2.3-1.9c2.1-1.8 2.7-2.6 1.9-2.6-0.2 0-1.2 1-2.3 2.2zm-173.4 4.2c0 0.2 0.8 1 1.8 1.7 1.5 1.3 1.6 1.2 0.3-0.4-1.3-1.6-2.1-2.1-2.1-1.3zm166 3.8c-1.5 2.1-1.7 2.8-0.6 1.9 1.6-1.3 4.1-5.1 3.3-5.1-0.2 0-1.4 1.5-2.7 3.2zm-125-0.9c0 0.2 1.5 1.6 3.3 3.3l3.2 2.9-2.9-3.3c-2.8-3-3.6-3.7-3.6-2.9zm99.9 26.4c-1.3 1.6-1.2 1.7 0.4 0.4 0.9-0.7 1.7-1.5 1.7-1.7 0-0.8-0.8-0.3-2.1 1.3zm-108.4 1.3c1 1.1 2 2 2.3 2 0.3 0-0.3-0.9-1.3-2-1-1.1-2-2-2.3-2-0.3 0 0.3 0.9 1.3 2zm98.4 6.7c-1.3 1.6-1.2 1.7 0.4 0.4 0.9-0.7 1.7-1.5 1.7-1.7 0-0.8-0.8-0.3-2.1 1.3zm-50.4 17.3c-1.3 0.6-1.5 0.9-0.5 0.9 0.8 0 2.2-0.4 3-0.9 1.8-1.2 0.2-1.2-2.5 0z" fill="rgb(85, 85, 85)"/><path d="m345.5 19c1 1.1 2 2 2.3 2 0.3 0-0.3-0.9-1.3-2-1-1.1-2-2-2.3-2-0.3 0 0.3 0.9 1.3 2zm-4.4 49.6c0 1.1 0.3 1.4 0.6 0.6 0.3-0.7 0.2-1.6-0.1-1.9-0.3-0.4-0.6 0.2-0.5 1.3zm-81.9 4.4c0 1.9 0.2 2.7 0.5 1.7 0.2-0.9 0.2-2.5 0-3.5-0.3-0.9-0.5-0.1-0.5 1.8zm39.8 29.4c0 0.2 0.8 1 1.8 1.7 1.5 1.3 1.6 1.2 0.3-0.4-1.3-1.6-2.1-2.1-2.1-1.3zm42.3 33.1c0 2.2 0.2 3 0.4 1.7 0.2-1.2 0.2-3 0-4-0.3-0.9-0.5 0.1-0.4 2.3zm-27 17.3c1 1 1.5 2.1 1.2 2.4-0.3 0.2 0.2 0.5 1 0.5 1.2 0 1-0.6-0.7-2.4-2.5-2.7-3.9-3.2-1.5-0.5zm21.7 20.6c0 0.2 0.8 1 1.8 1.7 1.5 1.3 1.6 1.2 0.3-0.4-1.3-1.6-2.1-2.1-2.1-1.3zm18.5 19.6c1 1.1 2 2 2.3 2 0.3 0-0.3-0.9-1.3-2-1-1.1-2-2-2.3-2-0.3 0 0.3 0.9 1.3 2zm-212.6 6.7l-2.4 2.8 2.8-2.4c1.5-1.4 2.7-2.6 2.7-2.8 0-0.8-0.8-0.1-3.1 2.4zm266.1 7.7c0 0.2 0.8 1 1.8 1.7 1.5 1.3 1.6 1.2 0.3-0.4-1.3-1.6-2.1-2.1-2.1-1.3zm33 31.9c0 0.2 1.5 1.6 3.3 3.3l3.2 2.9-2.9-3.3c-2.8-3-3.6-3.7-3.6-2.9zm-318.1 15.4l-3.4 3.8 3.8-3.4c2-1.9 3.7-3.6 3.7-3.8 0-0.8-0.8 0-4.1 3.4zm-43 6c-1.3 1.6-1.2 1.7 0.4 0.4 1.6-1.3 2.1-2.1 1.3-2.1-0.2 0-1 0.8-1.7 1.7zm138.1 7.7c0 0.2 0.8 1 1.8 1.7 1.5 1.3 1.6 1.2 0.3-0.4-1.3-1.6-2.1-2.1-2.1-1.3zm-142 10c0 0.2 0.8 1 1.8 1.7 1.5 1.3 1.6 1.2 0.3-0.4-1.3-1.6-2.1-2.1-2.1-1.3zm15.5 14.6c1 1.1 2 2 2.3 2 0.3 0-0.3-0.9-1.3-2-1-1.1-2-2-2.3-2-0.3 0 0.3 0.9 1.3 2zm58.5 19.4c0 0.2 0.8 1 1.8 1.7 1.5 1.3 1.6 1.2 0.3-0.4-1.3-1.6-2.1-2.1-2.1-1.3zm306.9 42.3l-3.4 3.8 3.8-3.4c3.4-3.3 4.2-4.1 3.4-4.1-0.2 0-1.9 1.7-3.8 3.7zm16.2 19.7c-1.2 1.3-1.8 2.7-1.3 3 0.5 0.3 1.5-0.1 2.2-0.9 0.7-0.8 0.9-1.5 0.5-1.5-0.4 0-0.2-0.7 0.5-1.5 2-2.4 0.6-1.7-1.9 0.9zm-6.7 6.8l-2.9 3.3 3.3-2.9c3-2.8 3.7-3.6 2.9-3.6-0.2 0-1.6 1.5-3.3 3.2zm-40.5 39.5l-2.4 2.8 2.8-2.4c2.5-2.3 3.2-3.1 2.4-3.1-0.2 0-1.4 1.2-2.8 2.7zm-38 2l-2.4 2.8 2.8-2.4c1.5-1.4 2.7-2.6 2.7-2.8 0-0.8-0.8-0.1-3.1 2.4zm3 32c-1.3 1.6-1.2 1.7 0.4 0.4 0.9-0.7 1.7-1.5 1.7-1.7 0-0.8-0.8-0.3-2.1 1.3zm-62.6 35c0.9 0.2 2.5 0.2 3.5 0 0.9-0.3 0.1-0.5-1.8-0.5-1.9 0-2.7 0.2-1.7 0.5z" fill="rgb(128, 128, 128)"/><path d="m254.9 19.7c-1.3 1.6-1.2 1.7 0.4 0.4 1.6-1.3 2.1-2.1 1.3-2.1-0.2 0-1 0.8-1.7 1.7zm110.3 45.3c0 1.4 0.2 1.9 0.5 1.2 0.2-0.6 0.2-1.8 0-2.5-0.3-0.6-0.5-0.1-0.5 1.3zm-154.8 67.2l-2.9 3.3 3.3-2.9c3-2.8 3.7-3.6 2.9-3.6-0.2 0-1.6 1.5-3.3 3.2zm116.6-2.8c0 0.2 0.8 1 1.8 1.7 1.5 1.3 1.6 1.2 0.3-0.4-1.3-1.6-2.1-2.1-2.1-1.3zm-16.7 19.9c0 0.8 0.6 1.4 1.4 1.4 0.9 0 1-0.4 0.2-1.4-0.6-0.7-1.2-1.3-1.4-1.3-0.1 0-0.2 0.6-0.2 1.3zm20.2 18.7c1 1.1 2 2 2.3 2 0.3 0-0.3-0.9-1.3-2-1-1.1-2-2-2.3-2-0.3 0 0.3 0.9 1.3 2zm53.5 16.3c0 0.2 1.5 1.6 3.3 3.3l3.2 2.9-2.9-3.3c-2.8-3-3.6-3.7-3.6-2.9zm-23 13.2c1.3 1.4 2.6 2.5 2.8 2.5 0.3 0-0.5-1.1-1.8-2.5-1.3-1.4-2.6-2.5-2.8-2.5-0.3 0 0.5 1.1 1.8 2.5zm-225.1 8.2c-1.3 1.6-1.2 1.7 0.4 0.4 0.9-0.7 1.7-1.5 1.7-1.7 0-0.8-0.8-0.3-2.1 1.3zm275.1 4.7c0 0.2 0.8 1 1.8 1.7 1.5 1.3 1.6 1.2 0.3-0.4-1.3-1.6-2.1-2.1-2.1-1.3zm-125.9 30.2c0 1.1 0.3 1.4 0.6 0.6 0.3-0.7 0.2-1.6-0.1-1.9-0.3-0.4-0.6 0.2-0.5 1.3zm0 6c0 1.1 0.3 1.4 0.6 0.6 0.3-0.7 0.2-1.6-0.1-1.9-0.3-0.4-0.6 0.2-0.5 1.3zm163.4 0.4c1 1.1 2 2 2.3 2 0.3 0-0.3-0.9-1.3-2-1-1.1-2-2-2.3-2-0.3 0 0.3 0.9 1.3 2zm-28.5 7.2c4.1 4.5 5 5.3 5 4.5 0-0.2-2.1-2.3-4.7-4.7l-4.8-4.5zm-346.6 13l-2.9 3.3 3.3-2.9c1.7-1.7 3.2-3.1 3.2-3.3 0-0.8-0.8-0.1-3.6 2.9zm-0.9 7.8c1 1.1 2 2 2.3 2 0.3 0-0.3-0.9-1.3-2-1-1.1-2-2-2.3-2-0.3 0 0.3 0.9 1.3 2zm370.5 1.5c1.3 1.4 2.6 2.5 2.8 2.5 0.3 0-0.5-1.1-1.8-2.5-1.3-1.4-2.6-2.5-2.8-2.5-0.3 0 0.5 1.1 1.8 2.5zm-330.7 37c0 0.8 0.4 1.2 0.9 0.9 0.5-0.3 0.6-1 0.3-1.5-0.9-1.3-1.2-1.1-1.2 0.6zm42.7 3.8c0 0.2 1.5 1.6 3.3 3.3l3.2 2.9-2.9-3.3c-2.8-3-3.6-3.7-3.6-2.9zm317.1 4.3c0 1.1 0.3 1.4 0.6 0.6 0.3-0.7 0.2-1.6-0.1-1.9-0.3-0.4-0.6 0.2-0.5 1.3zm-296.1 15.9c1.3 1.4 2.6 2.5 2.8 2.5 0.3 0-0.5-1.1-1.8-2.5-1.3-1.4-2.6-2.5-2.8-2.5-0.3 0 0.5 1.1 1.8 2.5zm-31 5.9c0 0.2 0.8 1 1.8 1.7 1.5 1.3 1.6 1.2 0.3-0.4-1.3-1.6-2.1-2.1-2.1-1.3zm305.9 17.3c-1.3 1.6-1.2 1.7 0.4 0.4 0.9-0.7 1.7-1.5 1.7-1.7 0-0.8-0.8-0.3-2.1 1.3zm29.5 6.5l-1.9 2.3 2.3-1.9c2.1-1.8 2.7-2.6 1.9-2.6-0.2 0-1.2 1-2.3 2.2zm-248.9 22.8c1 1.1 2 2 2.3 2 0.3 0-0.3-0.9-1.3-2-1-1.1-2-2-2.3-2-0.3 0 0.3 0.9 1.3 2zm186.4 2.7l-2.4 2.8 2.8-2.4c1.5-1.4 2.7-2.6 2.7-2.8 0-0.8-0.8-0.1-3.1 2.4zm-8.4 8.5l-4 4.3 4.3-4c3.9-3.6 4.7-4.5 3.9-4.5-0.2 0-2.1 1.9-4.2 4.2zm-202 1.8c1 1.1 2 2 2.3 2 0.3 0-0.3-0.9-1.3-2-1-1.1-2-2-2.3-2-0.3 0 0.3 0.9 1.3 2zm232.5 3.7l-5.5 5.8 5.8-5.5c3.1-3 5.7-5.6 5.7-5.7 0-0.8-1 0.1-6 5.4zm-193-2.3c0 0.2 0.8 1 1.8 1.7 1.5 1.3 1.6 1.2 0.3-0.4-1.3-1.6-2.1-2.1-2.1-1.3zm151.5 7.8l-6 6.3 6.3-6c3.4-3.3 6.2-6.1 6.2-6.2 0-0.8-1 0.1-6.5 5.9zm-131.5 11.2c0 0.2 0.8 1 1.8 1.7 1.5 1.3 1.6 1.2 0.3-0.4-1.3-1.6-2.1-2.1-2.1-1.3zm112.5 7.8l-4 4.3 4.3-4c3.9-3.6 4.7-4.5 3.9-4.5-0.2 0-2.1 1.9-4.2 4.2zm-141.5 0.2c0 0.2 0.8 1 1.8 1.7 1.5 1.3 1.6 1.2 0.3-0.4-1.3-1.6-2.1-2.1-2.1-1.3zm133.4 7.8l-1.9 2.3 2.3-1.9c2.1-1.8 2.7-2.6 1.9-2.6-0.2 0-1.2 1-2.3 2.2zm23.5 11.5l-2.4 2.8 2.8-2.4c2.5-2.3 3.2-3.1 2.4-3.1-0.2 0-1.4 1.2-2.8 2.7zm-137.9-1.3c0 0.2 0.8 1 1.8 1.7 1.5 1.3 1.6 1.2 0.3-0.4-1.3-1.6-2.1-2.1-2.1-1.3zm-195.2 36.3c0.7 0.3 1.6 0.2 1.9-0.1 0.4-0.3-0.2-0.6-1.3-0.5-1.1 0-1.4 0.3-0.6 0.6zm4 0c0.7 0.3 1.6 0.2 1.9-0.1 0.4-0.3-0.2-0.6-1.3-0.5-1.1 0-1.4 0.3-0.6 0.6z" fill="rgb(170, 170, 170)"/><path d="m295.8 1.7c0.7 0.3 1.6 0.2 1.9-0.1 0.4-0.3-0.2-0.6-1.3-0.5-1.1 0-1.4 0.3-0.6 0.6zm-61.6 65.3c0 1.4 0.2 1.9 0.5 1.2 0.2-0.6 0.2-1.8 0-2.5-0.3-0.6-0.5-0.1-0.5 1.3zm131 2.5c0 1.6 0.2 2.2 0.5 1.2 0.2-0.9 0.2-2.3 0-3-0.3-0.6-0.5 0.1-0.5 1.8zm-89.2 10.9c0 0.2 0.8 1 1.8 1.7 1.5 1.3 1.6 1.2 0.3-0.4-1.3-1.6-2.1-2.1-2.1-1.3zm26 25c0 0.2 0.8 1 1.8 1.7 1.5 1.3 1.6 1.2 0.3-0.4-1.3-1.6-2.1-2.1-2.1-1.3zm5.5 5.6c1 1.1 2 2 2.3 2 0.3 0-0.3-0.9-1.3-2-1-1.1-2-2-2.3-2-0.3 0 0.3 0.9 1.3 2zm-18.5 17.4c0 0.2 0.8 1 1.8 1.7 1.5 1.3 1.6 1.2 0.3-0.4-1.3-1.6-2.1-2.1-2.1-1.3zm41 4c0 0.2 0.8 1 1.8 1.7 1.5 1.3 1.6 1.2 0.3-0.4-1.3-1.6-2.1-2.1-2.1-1.3zm-126.5 6.8l-4 4.3 4.3-4c3.9-3.6 4.7-4.5 3.9-4.5-0.2 0-2.1 1.9-4.2 4.2zm23.4 11.5l-2.4 2.8 2.8-2.4c1.5-1.4 2.7-2.6 2.7-2.8 0-0.8-0.8-0.1-3.1 2.4zm141.1 18.8c1.3 1.4 2.6 2.5 2.8 2.5 0.3 0-0.5-1.1-1.8-2.5-1.3-1.4-2.6-2.5-2.8-2.5-0.3 0 0.5 1.1 1.8 2.5zm-167.1 7.2l-2.4 2.8 2.8-2.4c2.5-2.3 3.2-3.1 2.4-3.1-0.2 0-1.4 1.2-2.8 2.7zm150.1 10.6c0 0.2 1.5 1.6 3.3 3.3l3.2 2.9-2.9-3.3c-2.8-3-3.6-3.7-3.6-2.9zm42 6.2c1.9 1.9 3.6 3.5 3.9 3.5 0.3 0-1-1.6-2.9-3.5-1.9-1.9-3.6-3.5-3.9-3.5-0.3 0 1 1.6 2.9 3.5zm-208.6-0.3l-1.9 2.3 2.3-1.9c2.1-1.8 2.7-2.6 1.9-2.6-0.2 0-1.2 1-2.3 2.2zm-6.5 6.5l-3.4 3.8 3.8-3.4c3.4-3.3 4.2-4.1 3.4-4.1-0.2 0-1.9 1.7-3.8 3.7zm237.6 15.3c1 1.1 2 2 2.3 2 0.3 0-0.3-0.9-1.3-2-1-1.1-2-2-2.3-2-0.3 0 0.3 0.9 1.3 2zm-254.6 1.7l-2.4 2.8 2.8-2.4c2.5-2.3 3.2-3.1 2.4-3.1-0.2 0-1.4 1.2-2.8 2.7zm222.1 1.7c0 0.2 0.8 1 1.8 1.7 1.5 1.3 1.6 1.2 0.3-0.4-1.3-1.6-2.1-2.1-2.1-1.3zm36 0c0 0.2 0.8 1 1.8 1.7 1.5 1.3 1.6 1.2 0.3-0.4-1.3-1.6-2.1-2.1-2.1-1.3zm-265.1 5.3l-3.4 3.8 3.8-3.4c2-1.9 3.7-3.6 3.7-3.8 0-0.8-0.8 0-4.1 3.4zm-8 8l-3.4 3.8 3.8-3.4c2-1.9 3.7-3.6 3.7-3.8 0-0.8-0.8 0-4.1 3.4zm-9.4 9.5l-5 5.3 5.3-5c2.8-2.7 5.2-5.1 5.2-5.2 0-0.8-0.9 0.1-5.5 4.9zm148.6 2.4c0 1.1 0.3 1.4 0.6 0.6 0.3-0.7 0.2-1.6-0.1-1.9-0.3-0.4-0.6 0.2-0.5 1.3zm171.4 11.4c1 1.1 2 2 2.3 2 0.3 0-0.3-0.9-1.3-2-1-1.1-2-2-2.3-2-0.3 0 0.3 0.9 1.3 2zm-18.5 16.4c0 0.2 0.8 1 1.8 1.7 1.5 1.3 1.6 1.2 0.3-0.4-1.3-1.6-2.1-2.1-2.1-1.3zm-351 17c0 0.2 0.8 1 1.8 1.7 1.5 1.3 1.6 1.2 0.3-0.4-1.3-1.6-2.1-2.1-2.1-1.3zm41 3c0 0.2 0.8 1 1.8 1.7 1.5 1.3 1.6 1.2 0.3-0.4-1.3-1.6-2.1-2.1-2.1-1.3zm-18.5 18.6c1 1.1 2 2 2.3 2 0.3 0-0.3-0.9-1.3-2-1-1.1-2-2-2.3-2-0.3 0 0.3 0.9 1.3 2zm32.5 30.4c0 0.2 0.8 1 1.8 1.7 1.5 1.3 1.6 1.2 0.3-0.4-1.3-1.6-2.1-2.1-2.1-1.3zm56 18c0 0.2 0.8 1 1.8 1.7 1.5 1.3 1.6 1.2 0.3-0.4-1.3-1.6-2.1-2.1-2.1-1.3zm-36 1c0 0.2 0.8 1 1.8 1.7 1.5 1.3 1.6 1.2 0.3-0.4-1.3-1.6-2.1-2.1-2.1-1.3zm285.4 4.8l-1.9 2.3 2.3-1.9c2.1-1.8 2.7-2.6 1.9-2.6-0.2 0-1.2 1-2.3 2.2zm-6 6l-1.9 2.3 2.3-1.9c2.1-1.8 2.7-2.6 1.9-2.6-0.2 0-1.2 1-2.3 2.2zm-222.9 7.8c1 1.1 2 2 2.3 2 0.3 0-0.3-0.9-1.3-2-1-1.1-2-2-2.3-2-0.3 0 0.3 0.9 1.3 2zm214.9 0.2l-1.9 2.3 2.3-1.9c2.1-1.8 2.7-2.6 1.9-2.6-0.2 0-1.2 1-2.3 2.2zm-250.4 1.2c0 0.2 0.8 1 1.8 1.7 1.5 1.3 1.6 1.2 0.3-0.4-1.3-1.6-2.1-2.1-2.1-1.3zm264.9 19.3l-2.4 2.8 2.8-2.4c2.5-2.3 3.2-3.1 2.4-3.1-0.2 0-1.4 1.2-2.8 2.7zm-195.9 10.8c1.3 1.4 2.6 2.5 2.8 2.5 0.3 0-0.5-1.1-1.8-2.5-1.3-1.4-2.6-2.5-2.8-2.5-0.3 0 0.5 1.1 1.8 2.5zm179.9 5.2l-2.4 2.8 2.8-2.4c1.5-1.4 2.7-2.6 2.7-2.8 0-0.8-0.8-0.1-3.1 2.4zm-211.4 0.3c1 1.1 2 2 2.3 2 0.3 0-0.3-0.9-1.3-2-1-1.1-2-2-2.3-2-0.3 0 0.3 0.9 1.3 2zm-219.3 10.5c0 1.6 0.2 2.2 0.5 1.2 0.2-0.9 0.2-2.3 0-3-0.3-0.6-0.5 0.1-0.5 1.8zm234.3 3.5c1 1.1 2 2 2.3 2 0.3 0-0.3-0.9-1.3-2-1-1.1-2-2-2.3-2-0.3 0 0.3 0.9 1.3 2zm170.4 10.7l-2.4 2.8 2.8-2.4c2.5-2.3 3.2-3.1 2.4-3.1-0.2 0-1.4 1.2-2.8 2.7zm-110.4 11.3c1 1.1 2 2 2.3 2 0.3 0-0.3-0.9-1.3-2-1-1.1-2-2-2.3-2-0.3 0 0.3 0.9 1.3 2zm61.4 2.7c-1.3 1.6-1.2 1.7 0.4 0.4 0.9-0.7 1.7-1.5 1.7-1.7 0-0.8-0.8-0.3-2.1 1.3zm26 9c-1.3 1.6-1.2 1.7 0.4 0.4 0.9-0.7 1.7-1.5 1.7-1.7 0-0.8-0.8-0.3-2.1 1.3z" fill="rgb(212, 212, 212)"/><path d="m292 2.1c-22.5 2.9-42.4 18.3-51.5 39.9-4.8 11.4-5.7 17.8-6.1 43.5l-0.3 24.1-16.3 16c-9 8.8-45.9 45.2-82.2 81l-65.8 64.9 10.8 10.3c6 5.7 22.6 21.5 36.9 35 14.3 13.5 38.8 36.8 54.5 51.7 15.7 14.9 36.4 34.5 46 43.5 9.6 9 22 20.7 27.6 25.9 40.7 38.8 48.4 44.7 63.4 48.8 9.8 2.7 31.3 2.4 39.9-0.5 14.7-5 15.8-5.9 77.6-66.3 32.6-31.8 59.6-59 61.3-61.7 7.7-12.1 11.3-30.8 8.7-45.4-3.2-18.3-7.8-26.3-24.9-43.3-30.4-30.1-90.8-88.5-101.7-98.3l-3.7-3.3-0.5-54.7c-0.4-44.4-0.8-55.9-2-61.2-8-33.6-37.6-54.2-71.7-49.9zm19.7 24.7c9.9 3.1 16.1 7.9 22.2 17 7.5 11.3 8.1 15.4 8.1 60.5v38.9l-8.7-8c-10.6-9.7-19-17.8-43.5-41.8l-18.7-18.3-5.4 5.9c-3 3.3-5.7 6-6 6-1.3 0-0.7-19.2 0.9-26.8 5.2-25.6 28.1-40.5 51.1-33.4zm-12.2 111.2c6.1 5.8 14.8 14.1 19.5 18.5 13.1 12.2 48.6 46.4 78.5 75.5 9.4 9.1 25.3 24.4 35.4 34 10.1 9.6 20.9 20.1 24 23.3 12 12.4 17.6 26.6 15.4 39.3-2.3 13.2-3.9 15.4-34.1 45.2-15.3 15-27.5 27.8-27.4 28.5 0.2 0.6 0 0.9-0.4 0.4-0.4-0.4-13.4 11.8-28.8 27.1-21.9 21.6-29.3 28.4-33.6 30.5-14.5 7.1-33.2 5.4-45.8-4.1-2.7-2-18.1-16.3-34.3-31.8-16.2-15.4-32.5-31-36.4-34.5-3.8-3.5-11.4-10.7-16.9-15.9-5.4-5.2-10.4-10-11-10.5-5.8-5.3-47.1-44.7-66.6-63.6-13.5-13-25.9-24.8-27.7-26.3l-3.2-2.7 17.5-17.2c9.7-9.4 37.5-37 61.8-61.2 24.4-24.2 45.3-44.9 46.4-45.9l2.2-1.9v63.8l-5.6 2.9c-13.7 7.2-21.7 24.9-18 39.6 4.2 16.2 14.6 26 30.8 29 17.1 3.1 32.7-4.5 40.3-19.5 2.7-5.5 3-6.9 3-16.5 0-9.4-0.3-11.1-2.7-16-3.6-7.2-11-14.7-17.5-17.6l-5.3-2.4v-42.7c0.1-32.2 0.4-43.2 1.3-44.3 0.7-0.8 3.4-3.5 6.1-5.9l4.8-4.3 8.7 8.3c4.7 4.7 13.6 13.2 19.6 18.9zm-242.8 173.8c-20.7 27.5-42.6 64.5-50.3 84.8-8.5 22.6-5.5 45.8 8.2 64 17.4 23.2 50.9 31 77.7 18.1 18.8-9 31.1-25.9 34.8-48 1-6.1 1-9.2 0-15.6-2.1-14-6.7-24.9-21.6-50.6-8.4-14.6-31.3-47.3-39.7-56.7l-3.3-3.7z" fill="rgb(255, 255, 255)"/><path d="m341.2 97c0 1.4 0.2 1.9 0.5 1.2 0.2-0.6 0.2-1.8 0-2.5-0.3-0.6-0.5-0.1-0.5 1.3z" fill="rgb(85, 128, 128)"/></svg>