<svg xmlns="http://www.w3.org/2000/svg" viewBox="0 0 388 625" width="32" height="32"><path d="m72 2c-2 2-2 3-1.8 50.5l0.3 48.5h-29.5c-32.9 0-34.1 0.2-38.7 7l-2.3 3.3v448.4l2.3 3.4c4.2 6.2 5 6.4 38.2 6.7l30 0.3-0.3 24.2c-0.2 13.3-0.1 25.1 0.2 26.3 0.9 3.3 4.9 4.4 15.9 4.4 15.8 0 14.7 2.2 14.7-29.1v-25.9h29c32 0 33.5-0.2 38.3-5.9l2.7-3.3v-450.1l-2.2-3.4c-3.6-6-5.4-6.3-38.3-6.3h-29.5v-48.9c0-43.2-0.2-49.1-1.6-50.5-1.2-1.3-4-1.6-13.5-1.6-10.6 0-12.1 0.2-13.9 2zm26.8 0.2c0.9 0.9 1.2 13.5 1.2 50.5v49.3h29.5c32.9 0 34.9 0.3 38.5 6.2 2 3.3 2 4.4 2 227.3 0 217.4-0.1 224.1-1.9 227.1-3.7 6.1-5.7 6.4-38.5 6.4h-29.6v26.4c0 18.4-0.3 26.7-1.1 27.2-1.4 0.8-24.6 0.7-25.9-0.1-0.6-0.4-1-11.1-1-27v-26.4l-30.8-0.3c-34.1-0.3-34.1-0.3-38.2-7.1-2-3.2-2-6.5-1.8-227.4l0.3-224.3 3.8-3.7 3.7-3.8 31.5-0.3 31.5-0.3v-49.2c0-37 0.3-49.6 1.2-50.5 1.7-1.7 23.9-1.7 25.6 0z"/><path d="m29.3 335l-0.2 205h112.9v-410h-112.6zm111.7 0v204h-110v-408h110zm171.3-131.5l-2.3 1.6v75.9h-22.6c-21.3 0-22.8 0.1-25.5 2.1-6.2 4.4-5.9-0.3-5.9 93.1 0 82.8 0.1 85.4 2 88.5 3.7 6.2 6.1 6.8 30.3 7.1l21.7 0.3v22.9c0 27.4-0.7 26 13.2 26 13.3 0 12.8 1.1 12.8-26.8v-22.7l17.2 0.3c21.1 0.4 26.5-0.5 30.7-5.3 1.9-2.2 3.2-5 3.6-7.7 0.3-2.4 0.5-41.5 0.3-87l-0.3-82.8-3.8-3.7-3.7-3.8-22-0.3-22-0.3v-37.3c0-30.5-0.3-37.6-1.4-39.2-2-2.7-18.9-3.4-22.3-0.9zm21 1.4c0.9 0.9 1.2 11.2 1.2 39.1v38h21.6c20.8 0 21.7 0.1 25 2.3 1.9 1.3 3.9 3.8 4.6 5.7 0.9 2.6 1.2 24.8 1.2 85.9 0.1 81.8 0.1 82.5-2 86.8-1.2 2.4-3.1 4.9-4.2 5.6-1.5 0.8-9.4 1.4-24 1.7l-21.8 0.5-0.2 23.8c-0.2 19.9-0.4 23.9-1.7 24.7-2 1.3-17.6 1.3-20.1 0-1.8-1-1.9-2.4-1.9-25v-24h-46.2l-3.9-3.9-3.9-3.9 0.2-86.7 0.3-86.7 3.7-3.4 3.8-3.4h46v-38.5c0-32.2 0.2-38.5 1.4-39.2 2.3-1.3 19.5-0.8 20.9 0.6z"/><path d="m321.3 307.7l-39.3 0.3v136h79v-68.5c0-37.7-0.1-68.4-0.2-68.3-0.2 0.2-18 0.4-39.5 0.5zm38.7 68.3v67h-77v-134h77z"/><path d="m11.8 102.7c0.7 0.3 1.6 0.2 1.9-0.1 0.4-0.3-0.2-0.6-1.3-0.5-1.1 0-1.4 0.3-0.6 0.6zm4 0c0.7 0.3 1.6 0.2 1.9-0.1 0.4-0.3-0.2-0.6-1.3-0.5-1.1 0-1.4 0.3-0.6 0.6zm16 0c7.2 0.2 19.2 0.2 26.5 0 7.2-0.1 1.3-0.3-13.3-0.3-14.6 0-20.5 0.2-13.2 0.3zm84.5 0c8.2 0.2 21.2 0.2 29 0 7.8-0.1 1.2-0.3-14.8-0.3-15.9 0-22.3 0.2-14.2 0.3zm-59 27c15.2 0.2 40.2 0.2 55.5 0 15.2-0.1 2.7-0.2-27.8-0.2-30.5 0-43 0.1-27.7 0.2zm329.2 247.3c0 44.8 0.1 63.2 0.2 40.7 0.2-22.4 0.2-59 0-81.5-0.1-22.4-0.2-4-0.2 40.8zm-385.4 179.6c0 1.1 0.3 1.4 0.6 0.6 0.3-0.7 0.2-1.6-0.1-1.9-0.3-0.4-0.6 0.2-0.5 1.3zm155.7 12.1c0.7 0.3 1.6 0.2 1.9-0.1 0.4-0.3-0.2-0.6-1.3-0.5-1.1 0-1.4 0.3-0.6 0.6z" fill="rgb(170, 170, 170)"/><path d="m73.8 2.4c-1.6 1.2-1.8 5.1-2 50.7l-0.3 49.4-31.9 0.5-31.8 0.5-2.9 3.5-2.9 3.4v450.2l2.9 3.2c1.7 1.7 3.1 3.3 3.3 3.4 0.2 0.1 14.5 0.5 31.8 0.8l31.5 0.5 0.3 25.9c0.1 17.1 0.6 26.4 1.3 27.3 1.8 2 24.7 1.9 25.5-0.2 0.4-0.9 0.7-13.1 0.8-27.3l0.1-25.7 31-0.3c34.5-0.3 34.2-0.2 37.7-7.2 1.7-3.2 1.7-16.8 1.5-227.3l-0.2-223.9-3.7-3.4-3.8-3.4h-62.5v-48.8c0-37.6-0.3-49.2-1.3-51-1.2-2.1-1.9-2.2-12-2.2-7.3 0.1-11.3 0.5-12.4 1.4zm68.6 332.8l0.1 205.8h-113.5v-412l56.7 0.2 56.7 0.3zm169.8-130c-0.9 0.9-1.2 10.9-1.2 39v37.8h-22.1c-13.8 0-22.8 0.4-24 1.1-3 1.6-5.9 4.7-6.9 7.5-0.6 1.5-1 34.9-1 85.5 0 91.4-0.2 88 6.2 91.9 3 1.8 5 2 25.6 2h22.2v22c0 14.6 0.4 22.8 1.2 24.5 1.1 2.5 1.2 2.6 11.2 2.3l10.1-0.3 0.3-24.3 0.2-24.2h21.1c23.3 0 25.4-0.4 28.9-6.3 1.9-3.1 2-5.7 2-88.5v-85.2l-3.4-3.8-3.4-3.7-22.4-0.2-22.3-0.3-0.3-38.2c-0.2-29-0.5-38.4-1.5-39-2-1.3-19.1-1-20.5 0.4zm49.8 170.3v68.5h-81v-137h81zm22.7 52.2c-0.3 1-0.5 0.4-0.5-1.2 0-1.7 0.2-2.4 0.5-1.8 0.2 0.7 0.2 2.1 0 3z" fill="rgb(255, 255, 255)"/><path d="m99.3 16c0 4.7 0.2 6.6 0.4 4.2 0.2-2.3 0.2-6.1 0-8.5-0.2-2.3-0.4-0.4-0.4 4.3zm-0.1 14c0 1.4 0.2 1.9 0.5 1.2 0.2-0.6 0.2-1.8 0-2.5-0.3-0.6-0.5-0.1-0.5 1.3zm0.1 22.5c0 2.2 0.2 3 0.4 1.7 0.2-1.2 0.2-3 0-4-0.3-0.9-0.5 0.1-0.4 2.3zm-0.1 44.5c0 1.4 0.2 1.9 0.5 1.2 0.2-0.6 0.2-1.8 0-2.5-0.3-0.6-0.5-0.1-0.5 1.3zm43.2 49.5c0 7.7 0.2 10.7 0.3 6.7 0.2-4 0.2-10.3 0-14-0.2-3.7-0.3-0.4-0.3 7.3zm-0.2 27.5c0 1.4 0.2 1.9 0.5 1.2 0.2-0.6 0.2-1.8 0-2.5-0.3-0.6-0.5-0.1-0.5 1.3zm-126.4 394.7c0.6 0.2 1.8 0.2 2.5 0 0.6-0.3 0.1-0.5-1.3-0.5-1.4 0-1.9 0.2-1.2 0.5zm16.4 0c7 0.2 18.7 0.2 26 0 7.3-0.1 1.6-0.3-12.7-0.3-14.3 0-20.3 0.2-13.3 0.3zm67.2 0.7c-0.3 0.7-0.4 4.2-0.2 7.7l0.3 6.4 0.5-7.8c0.5-7.7 0.4-8.9-0.6-6.3zm16.9-0.7c7.6 0.2 19.8 0.2 27 0 7.3-0.1 1.1-0.3-13.8-0.3-14.8 0-20.8 0.2-13.2 0.3zm-16.9 27.3c0 6.9 0.1 9.7 0.3 6.2 0.2-3.4 0.2-9 0-12.5-0.2-3.4-0.3-0.6-0.3 6.3zm-0.3 18.6c0 1.1 0.3 1.4 0.6 0.6 0.3-0.7 0.2-1.6-0.1-1.9-0.3-0.4-0.6 0.2-0.5 1.3z" fill="rgb(212, 212, 212)"/><path d="m99.1 36.6c0 1.1 0.3 1.4 0.6 0.6 0.3-0.7 0.2-1.6-0.1-1.9-0.3-0.4-0.6 0.2-0.5 1.3z" fill="rgb(212, 255, 212)"/><path d="m29.1 137.6c0 1.1 0.3 1.4 0.6 0.6 0.3-0.7 0.2-1.6-0.1-1.9-0.3-0.4-0.6 0.2-0.5 1.3zm-28 17c0 1.1 0.3 1.4 0.6 0.6 0.3-0.7 0.2-1.6-0.1-1.9-0.3-0.4-0.6 0.2-0.5 1.3zm0.2 17.9c0 2.2 0.2 3 0.4 1.7 0.2-1.2 0.2-3 0-4-0.3-0.9-0.5 0.1-0.4 2.3zm-0.1 30.5c0 1.4 0.2 1.9 0.5 1.2 0.2-0.6 0.2-1.8 0-2.5-0.3-0.6-0.5-0.1-0.5 1.3zm0 7c0 1.4 0.2 1.9 0.5 1.2 0.2-0.6 0.2-1.8 0-2.5-0.3-0.6-0.5-0.1-0.5 1.3zm333.1 2c0 2.5 0.2 3.5 0.4 2.2 0.2-1.2 0.2-3.2 0-4.5-0.2-1.2-0.4-0.2-0.4 2.3zm-333.1 6.5c0 1.6 0.2 2.2 0.5 1.2 0.2-0.9 0.2-2.3 0-3-0.3-0.6-0.5 0.1-0.5 1.8zm333.1 9.5c0 3 0.2 4.3 0.4 2.7 0.2-1.5 0.2-3.9 0-5.5-0.2-1.5-0.4-0.2-0.4 2.8zm-333 2.5c0 3.8 0.2 5.3 0.4 3.2 0.2-2 0.2-5.2 0-7-0.2-1.7-0.4-0.1-0.4 3.8zm333.1 21c0 9.9 0.2 13.8 0.3 8.7 0.2-5.1 0.2-13.2 0-18-0.1-4.8-0.3-0.6-0.3 9.3zm-333.1-6c0 4.4 0.2 6.1 0.4 3.7 0.2-2.3 0.2-5.9 0-8-0.2-2-0.4-0.1-0.4 4.3zm27.9 4.5c0 1.4 0.2 1.9 0.5 1.2 0.2-0.6 0.2-1.8 0-2.5-0.3-0.6-0.5-0.1-0.5 1.3zm-28 16c0 1.4 0.2 1.9 0.5 1.2 0.2-0.6 0.2-1.8 0-2.5-0.3-0.6-0.5-0.1-0.5 1.3zm333.1 9.5c0 2.7 0.2 3.8 0.4 2.2 0.2-1.5 0.2-3.7 0-5-0.2-1.2-0.4 0-0.4 2.8zm-333.1-1c0 1.6 0.2 2.2 0.5 1.2 0.2-0.9 0.2-2.3 0-3-0.3-0.6-0.5 0.1-0.5 1.8zm0 23.5c0 1.4 0.2 1.9 0.5 1.2 0.2-0.6 0.2-1.8 0-2.5-0.3-0.6-0.5-0.1-0.5 1.3zm306.5 9.7c9.4 0.2 25.2 0.2 35 0 9.8-0.1 2.1-0.2-17.2-0.2-19.2-0.1-27.3 0.1-17.8 0.2zm53.7 12.8c0 7.1 0.1 9.9 0.3 6.2 0.2-3.7 0.2-9.6 0-13-0.2-3.4-0.3-0.4-0.3 6.8zm-360.2 2.5c0 1.4 0.2 1.9 0.5 1.2 0.2-0.6 0.2-1.8 0-2.5-0.3-0.6-0.5-0.1-0.5 1.3zm360.1 17.5c0 2.7 0.2 3.8 0.4 2.2 0.2-1.5 0.2-3.7 0-5-0.2-1.2-0.4 0-0.4 2.8zm-360 2.5c0 3.6 0.2 5 0.4 3.2 0.2-1.7 0.2-4.7 0-6.5-0.2-1.7-0.4-0.3-0.4 3.3zm359.8 4.6c0 1.1 0.3 1.4 0.6 0.6 0.3-0.7 0.2-1.6-0.1-1.9-0.3-0.4-0.6 0.2-0.5 1.3zm-359.8 8.4c0 2.5 0.2 3.5 0.4 2.2 0.2-1.2 0.2-3.2 0-4.5-0.2-1.2-0.4-0.2-0.4 2.3zm360.1 27.5c0 17.6 0.2 24.7 0.3 15.7 0.2-9 0.2-23.4 0-32-0.1-8.6-0.3-1.3-0.3 16.3zm-360 3c0 10.4 0.2 14.6 0.3 9.2 0.2-5.4 0.2-13.9 0-19-0.1-5.1-0.3-0.7-0.3 9.8zm-0.1 28c0 3.8 0.2 5.3 0.4 3.2 0.2-2 0.2-5.2 0-7-0.2-1.7-0.4-0.1-0.4 3.8zm360.1 13.5c0 6.9 0.1 9.7 0.3 6.2 0.2-3.4 0.2-9 0-12.5-0.2-3.4-0.3-0.6-0.3 6.3zm-360.2-1.5c0 1.6 0.2 2.2 0.5 1.2 0.2-0.9 0.2-2.3 0-3-0.3-0.6-0.5 0.1-0.5 1.8zm0.1 9.5c0 2.5 0.2 3.5 0.4 2.2 0.2-1.2 0.2-3.2 0-4.5-0.2-1.2-0.4-0.2-0.4 2.3zm0.1 43c0 12.9 0.2 18.2 0.3 11.7 0.2-6.4 0.2-17 0-23.5-0.1-6.4-0.3-1.1-0.3 11.8zm333 25c0 5.2 0.1 7.4 0.3 4.7 0.2-2.6 0.2-6.8 0-9.5-0.2-2.6-0.3-0.4-0.3 4.8zm-333.1 8c0 4.7 0.2 6.6 0.4 4.2 0.2-2.3 0.2-6.1 0-8.5-0.2-2.3-0.4-0.4-0.4 4.3zm317 7.7c2.6 0.2 6.7 0.2 9 0 2.3-0.2 0.2-0.3-4.8-0.3-4.9 0-6.8 0.1-4.2 0.3zm-317.1 3.3c0 1.4 0.2 1.9 0.5 1.2 0.2-0.6 0.2-1.8 0-2.5-0.3-0.6-0.5-0.1-0.5 1.3zm0.2 13.5c0 6 0.1 8.4 0.3 5.2 0.2-3.2 0.2-8.1 0-11-0.2-2.9-0.3-0.3-0.3 5.8zm43.4 4.2c0.7 0.3 1.6 0.2 1.9-0.1 0.4-0.3-0.2-0.6-1.3-0.5-1.1 0-1.4 0.3-0.6 0.6zm13 0c1.2 0.2 3 0.2 4 0 0.9-0.3-0.1-0.5-2.3-0.4-2.2 0-3 0.2-1.7 0.4zm29.5 0c0.9 0.2 2.3 0.2 3 0 0.6-0.3-0.1-0.5-1.8-0.5-1.6 0-2.2 0.2-1.2 0.5z" fill="rgb(85, 85, 85)"/><path d="m1.2 127c0 1.4 0.2 1.9 0.5 1.2 0.2-0.6 0.2-1.8 0-2.5-0.3-0.6-0.5-0.1-0.5 1.3zm0.1 7.5c0 2.2 0.2 3 0.4 1.7 0.2-1.2 0.2-3 0-4-0.3-0.9-0.5 0.1-0.4 2.3zm0 11c0 3.8 0.2 5.3 0.4 3.2 0.2-2 0.2-5.2 0-7-0.2-1.7-0.4-0.1-0.4 3.8zm0 17c0 3.3 0.2 4.5 0.4 2.7 0.2-1.8 0.2-4.5 0-6-0.2-1.5-0.4 0-0.4 3.3zm0 18c0 2.7 0.2 3.8 0.4 2.2 0.2-1.5 0.2-3.7 0-5-0.2-1.2-0.4 0-0.4 2.8zm-0.2 18.1c0 1.1 0.3 1.4 0.6 0.6 0.3-0.7 0.2-1.6-0.1-1.9-0.3-0.4-0.6 0.2-0.5 1.3zm0 64c0 1.1 0.3 1.4 0.6 0.6 0.3-0.7 0.2-1.6-0.1-1.9-0.3-0.4-0.6 0.2-0.5 1.3zm0 24c0 1.1 0.3 1.4 0.6 0.6 0.3-0.7 0.2-1.6-0.1-1.9-0.3-0.4-0.6 0.2-0.5 1.3zm0.1 23.4c0 1.4 0.2 1.9 0.5 1.2 0.2-0.6 0.2-1.8 0-2.5-0.3-0.6-0.5-0.1-0.5 1.3zm280.3 66c0 35.5 0.1 50 0.2 32.2 0.2-17.7 0.2-46.7 0-64.5-0.1-17.7-0.2-3.2-0.2 32.3zm-280.3-58.5c0 1.6 0.2 2.2 0.5 1.2 0.2-0.9 0.2-2.3 0-3-0.3-0.6-0.5 0.1-0.5 1.8zm360 124.5c0 1.4 0.2 1.9 0.5 1.2 0.2-0.6 0.2-1.8 0-2.5-0.3-0.6-0.5-0.1-0.5 1.3zm-293.4 98.7c0.7 0.3 1.6 0.2 1.9-0.1 0.4-0.3-0.2-0.6-1.3-0.5-1.1 0-1.4 0.3-0.6 0.6zm8 0c0.6 0.2 1.8 0.2 2.5 0 0.6-0.3 0.1-0.5-1.3-0.5-1.4 0-1.9 0.2-1.2 0.5zm8 0c0.7 0.3 1.6 0.2 1.9-0.1 0.4-0.3-0.2-0.6-1.3-0.5-1.1 0-1.4 0.3-0.6 0.6zm12 0c0.7 0.3 1.6 0.2 1.9-0.1 0.4-0.3-0.2-0.6-1.3-0.5-1.1 0-1.4 0.3-0.6 0.6zm5 0c1.2 0.2 3 0.2 4 0 0.9-0.3-0.1-0.5-2.3-0.4-2.2 0-3 0.2-1.7 0.4zm11 0c0.7 0.3 1.6 0.2 1.9-0.1 0.4-0.3-0.2-0.6-1.3-0.5-1.1 0-1.4 0.3-0.6 0.6zm16.5 0c2.6 0.2 6.8 0.2 9.5 0 2.6-0.2 0.4-0.3-4.8-0.3-5.2 0-7.4 0.1-4.7 0.3zm-127.1 11.3c0 1.9 0.2 2.7 0.5 1.7 0.2-0.9 0.2-2.5 0-3.5-0.3-0.9-0.5-0.1-0.5 1.8z" fill="rgb(128, 128, 128)"/><path d="m1.1 255.6c0 1.1 0.3 1.4 0.6 0.6 0.3-0.7 0.2-1.6-0.1-1.9-0.3-0.4-0.6 0.2-0.5 1.3zm0 4c0 1.1 0.3 1.4 0.6 0.6 0.3-0.7 0.2-1.6-0.1-1.9-0.3-0.4-0.6 0.2-0.5 1.3zm0.1 105.9c0 1.6 0.2 2.2 0.5 1.2 0.2-0.9 0.2-2.3 0-3-0.3-0.6-0.5 0.1-0.5 1.8zm0 79.5c0 1.4 0.2 1.9 0.5 1.2 0.2-0.6 0.2-1.8 0-2.5-0.3-0.6-0.5-0.1-0.5 1.3zm0 9c0 1.4 0.2 1.9 0.5 1.2 0.2-0.6 0.2-1.8 0-2.5-0.3-0.6-0.5-0.1-0.5 1.3z" fill="rgb(85, 128, 128)"/><path d="m29.1 219.6c0 1.1 0.3 1.4 0.6 0.6 0.3-0.7 0.2-1.6-0.1-1.9-0.3-0.4-0.6 0.2-0.5 1.3zm0 157c0 1.1 0.3 1.4 0.6 0.6 0.3-0.7 0.2-1.6-0.1-1.9-0.3-0.4-0.6 0.2-0.5 1.3zm305 106c0 1.1 0.3 1.4 0.6 0.6 0.3-0.7 0.2-1.6-0.1-1.9-0.3-0.4-0.6 0.2-0.5 1.3zm0 8c0 1.1 0.3 1.4 0.6 0.6 0.3-0.7 0.2-1.6-0.1-1.9-0.3-0.4-0.6 0.2-0.5 1.3z" fill="rgb(0, 85, 85)"/><path d="m29.1 161.6c0 1.1 0.3 1.4 0.6 0.6 0.3-0.7 0.2-1.6-0.1-1.9-0.3-0.4-0.6 0.2-0.5 1.3zm0 48c0 1.1 0.3 1.4 0.6 0.6 0.3-0.7 0.2-1.6-0.1-1.9-0.3-0.4-0.6 0.2-0.5 1.3z" fill="rgb(0, 0, 85)"/></svg>