<svg xmlns="http://www.w3.org/2000/svg" viewBox="0 0 609 549" width="32" height="32"><path d="m262.8 0.7c0.7 0.3 1.6 0.2 1.9-0.1 0.4-0.3-0.2-0.6-1.3-0.5-1.1 0-1.4 0.3-0.6 0.6zm27 0c1.2 0.2 3.2 0.2 4.5 0 1.2-0.2 0.2-0.4-2.3-0.4-2.5 0-3.5 0.2-2.2 0.4zm-48 2c0.6 0.2 1.8 0.2 2.5 0 0.6-0.3 0.1-0.5-1.3-0.5-1.4 0-1.9 0.2-1.2 0.5zm39 29c0.7 0.3 1.6 0.2 1.9-0.1 0.4-0.3-0.2-0.6-1.3-0.5-1.1 0-1.4 0.3-0.6 0.6zm-23 1c0.6 0.2 1.8 0.2 2.5 0 0.6-0.3 0.1-0.5-1.3-0.5-1.4 0-1.9 0.2-1.2 0.5zm44.5 0c0.9 0.2 2.3 0.2 3 0 0.6-0.3-0.1-0.5-1.8-0.5-1.6 0-2.2 0.2-1.2 0.5zm-162.9 3.9c-1.8 1.4-1.8 1.5 0.4 0.4 1.2-0.6 2.2-1.3 2.2-1.5 0-0.8-0.5-0.6-2.6 1.1zm276.6-1.2c0 0.2 0.7 0.7 1.6 1 0.8 0.3 1.2 0.2 0.9-0.4-0.6-1-2.5-1.4-2.5-0.6zm-283.6 5.2c-1.8 1.4-1.8 1.5 0.4 0.4 1.2-0.6 2.2-1.3 2.2-1.5 0-0.8-0.5-0.6-2.6 1.1zm-15.5 10.1c-1.3 1.6-1.2 1.7 0.4 0.4 0.9-0.7 1.7-1.5 1.7-1.7 0-0.8-0.8-0.3-2.1 1.3zm-5.4 3.9l-3 2.6 3.3-2.2c1.7-1.2 3.2-2.3 3.2-2.6 0-0.7-0.4-0.5-3.5 2.2zm336.5 0.8c0 0.2 0.8 1 1.8 1.7 1.5 1.3 1.6 1.2 0.3-0.4-1.3-1.6-2.1-2.1-2.1-1.3zm-60 2.1c1.4 0.8 3 1.4 3.5 1.4 0.6 0-0.1-0.6-1.5-1.4-1.4-0.8-2.9-1.4-3.5-1.4-0.5 0 0.1 0.6 1.5 1.4zm68 3.9c0 0.2 0.8 1 1.8 1.7 1.5 1.3 1.6 1.2 0.3-0.4-1.3-1.6-2.1-2.1-2.1-1.3zm-359.6 4.8l-1.9 2.3 2.3-1.9c2.1-1.8 2.7-2.6 1.9-2.6-0.2 0-1.2 1-2.3 2.2zm305.6-1.8c0 0.3 0.9 1 2 1.6 1.1 0.6 2 0.8 2 0.6 0-0.3-0.9-1-2-1.6-1.1-0.6-2-0.8-2-0.6zm59 0.9c0 0.2 1.5 1.6 3.3 3.3l3.2 2.9-2.9-3.3c-2.8-3-3.6-3.7-3.6-2.9zm-312.6 5.3c-1.8 1.4-1.8 1.5 0.4 0.4 1.2-0.6 2.2-1.3 2.2-1.5 0-0.8-0.5-0.6-2.6 1.1zm-61 3.6l-2.9 3.3 3.3-2.9c1.7-1.7 3.2-3.1 3.2-3.3 0-0.8-0.8-0.1-3.6 2.9zm381.6-1.8c0 0.2 0.8 1 1.8 1.7 1.5 1.3 1.6 1.2 0.3-0.4-1.3-1.6-2.1-2.1-2.1-1.3zm5 5c0 0.2 0.8 1 1.8 1.7 1.5 1.3 1.6 1.2 0.3-0.4-1.3-1.6-2.1-2.1-2.1-1.3zm-339.1 2.3c-1.3 1.6-1.2 1.7 0.4 0.4 0.9-0.7 1.7-1.5 1.7-1.7 0-0.8-0.8-0.3-2.1 1.3zm292.1 0.7c0 0.2 0.8 1 1.8 1.7 1.5 1.3 1.6 1.2 0.3-0.4-1.3-1.6-2.1-2.1-2.1-1.3zm5.5 4.6c1 1.1 2 2 2.3 2 0.3 0-0.3-0.9-1.3-2-1-1.1-2-2-2.3-2-0.3 0 0.3 0.9 1.3 2zm-306.1 1.2l-1.9 2.3 2.3-1.9c2.1-1.8 2.7-2.6 1.9-2.6-0.2 0-1.2 1-2.3 2.2zm-6.5 5.5l-2.4 2.8 2.8-2.4c1.5-1.4 2.7-2.6 2.7-2.8 0-0.8-0.8-0.1-3.1 2.4zm319.1-1.3c0 0.2 0.8 1 1.8 1.7 1.5 1.3 1.6 1.2 0.3-0.4-1.3-1.6-2.1-2.1-2.1-1.3zm-370.6 2.8l-1.9 2.3 2.3-1.9c2.1-1.8 2.7-2.6 1.9-2.6-0.2 0-1.2 1-2.3 2.2zm421.1-0.2c1 1.1 2 2 2.3 2 0.3 0-0.3-0.9-1.3-2-1-1.1-2-2-2.3-2-0.3 0 0.3 0.9 1.3 2zm-40.5 6.5c3.5 3.6 6.7 6.5 6.9 6.5 0.3 0-2.4-2.9-5.9-6.5-3.5-3.6-6.7-6.5-6.9-6.5-0.3 0 2.4 2.9 5.9 6.5zm46 0c1.3 1.4 2.6 2.5 2.8 2.5 0.3 0-0.5-1.1-1.8-2.5-1.3-1.4-2.6-2.5-2.8-2.5-0.3 0 0.5 1.1 1.8 2.5zm-433.6 1.7l-1.9 2.3 2.3-1.9c2.1-1.8 2.7-2.6 1.9-2.6-0.2 0-1.2 1-2.3 2.2zm43.1 5l-7 7.3 7.3-7c3.9-3.8 7.2-7.1 7.2-7.2 0-0.8-1.1 0.2-7.5 6.9zm-47.6 0.5c-1.3 1.6-1.2 1.7 0.4 0.4 0.9-0.7 1.7-1.5 1.7-1.7 0-0.8-0.8-0.3-2.1 1.3zm404.1 4.5c4.1 4.5 5 5.3 5 4.5 0-0.2-2.1-2.3-4.7-4.7l-4.8-4.5zm42-1.8c0 0.2 0.8 1 1.8 1.7 1.5 1.3 1.6 1.2 0.3-0.4-1.3-1.6-2.1-2.1-2.1-1.3zm-452.1 5.3c-1.3 1.6-1.2 1.7 0.4 0.4 0.9-0.7 1.7-1.5 1.7-1.7 0-0.8-0.8-0.3-2.1 1.3zm-3 4c-1.3 1.6-1.2 1.7 0.4 0.4 0.9-0.7 1.7-1.5 1.7-1.7 0-0.8-0.8-0.3-2.1 1.3zm462.1 0.3c0.6 1.1 1.3 2 1.6 2 0.2 0 0-0.9-0.6-2-0.6-1.1-1.3-2-1.6-2-0.2 0 0 0.9 0.6 2zm-419.6 2.2l-2.9 3.3 3.3-2.9c1.7-1.7 3.2-3.1 3.2-3.3 0-0.8-0.8-0.1-3.6 2.9zm377.6-1.8c0 0.2 0.8 1 1.8 1.7 1.5 1.3 1.6 1.2 0.3-0.4-1.3-1.6-2.1-2.1-2.1-1.3zm44 3c0 0.2 0.8 1 1.8 1.7 1.5 1.3 1.6 1.2 0.3-0.4-1.3-1.6-2.1-2.1-2.1-1.3zm-40 2c0 0.2 0.8 1 1.8 1.7 1.5 1.3 1.6 1.2 0.3-0.4-1.3-1.6-2.1-2.1-2.1-1.3zm-387.1 3.3c-1.3 1.6-1.2 1.7 0.4 0.4 0.9-0.7 1.7-1.5 1.7-1.7 0-0.8-0.8-0.3-2.1 1.3zm-43.9 1.3c-0.6 1.1-0.8 2-0.6 2 0.3 0 1-0.9 1.6-2 0.6-1.1 0.8-2 0.6-2-0.3 0-1 0.9-1.6 2zm437 3.4c0 0.2 0.8 1 1.8 1.7 1.5 1.3 1.6 1.2 0.3-0.4-1.3-1.6-2.1-2.1-2.1-1.3zm46 8.6c0.6 1.1 1.3 2 1.6 2 0.2 0 0-0.9-0.6-2-0.6-1.1-1.3-2-1.6-2-0.2 0 0 0.9 0.6 2zm-450 2c-0.6 1.1-0.8 2-0.6 2 0.3 0 1-0.9 1.6-2 0.6-1.1 0.8-2 0.6-2-0.3 0-1 0.9-1.6 2zm-44.4 5.7c-0.6 1.4-0.5 1.5 0.5 0.6 0.7-0.7 1-1.5 0.7-1.8-0.3-0.3-0.9 0.2-1.2 1.2zm35.9 8.3c-0.9 1.6-1.3 3-1.1 3 0.3 0 1.2-1.4 2.1-3 0.9-1.7 1.3-3 1.1-3-0.3 0-1.2 1.3-2.1 3zm470.5 7.5c0 0.5 0.5 1.7 1 2.5 0.5 0.8 1 1 1 0.5 0-0.6-0.5-1.7-1-2.5-0.5-0.8-1-1.1-1-0.5zm11 31.4c0 0.6 0.4 1.3 1 1.6 0.6 0.3 0.7-0.1 0.4-0.9-0.7-1.8-1.4-2.1-1.4-0.7zm8.8 2.8c0.7 0.3 1.6 0.2 1.9-0.1 0.4-0.3-0.2-0.6-1.3-0.5-1.1 0-1.4 0.3-0.6 0.6zm-511.7 10.9c0 1.1 0.3 1.4 0.6 0.6 0.3-0.7 0.2-1.6-0.1-1.9-0.3-0.4-0.6 0.2-0.5 1.3zm224.7-0.9c0.6 0.2 1.8 0.2 2.5 0 0.6-0.3 0.1-0.5-1.3-0.5-1.4 0-1.9 0.2-1.2 0.5zm19 0c0.7 0.3 1.6 0.2 1.9-0.1 0.4-0.3-0.2-0.6-1.3-0.5-1.1 0-1.4 0.3-0.6 0.6zm209.6 5.5l-1.9 2.3 2.3-1.9c2.1-1.8 2.7-2.6 1.9-2.6-0.2 0-1.2 1-2.3 2.2zm-491.3 0.4c0 1.1 0.3 1.4 0.6 0.6 0.3-0.7 0.2-1.6-0.1-1.9-0.3-0.4-0.6 0.2-0.5 1.3zm36 3c0 1.1 0.3 1.4 0.6 0.6 0.3-0.7 0.2-1.6-0.1-1.9-0.3-0.4-0.6 0.2-0.5 1.3zm-37 1c0 1.1 0.3 1.4 0.6 0.6 0.3-0.7 0.2-1.6-0.1-1.9-0.3-0.4-0.6 0.2-0.5 1.3zm235.8 1.1c-1.3 1.6-1.2 1.7 0.4 0.4 1.6-1.3 2.1-2.1 1.3-2.1-0.2 0-1 0.8-1.7 1.7zm351.1 0.7c0 0.2 0.8 1 1.8 1.7 1.5 1.3 1.6 1.2 0.3-0.4-1.3-1.6-2.1-2.1-2.1-1.3zm-103.1 2.3c-1.3 1.6-1.2 1.7 0.4 0.4 1.6-1.3 2.1-2.1 1.3-2.1-0.2 0-1 0.8-1.7 1.7zm-484.8 0.9c0 1.1 0.3 1.4 0.6 0.6 0.3-0.7 0.2-1.6-0.1-1.9-0.3-0.4-0.6 0.2-0.5 1.3zm320.9 2.9c1.3 1.4 2.6 2.5 2.8 2.5 0.3 0-0.5-1.1-1.8-2.5-1.3-1.4-2.6-2.5-2.8-2.5-0.3 0 0.5 1.1 1.8 2.5zm-284.9 0.1c0 1.1 0.3 1.4 0.6 0.6 0.3-0.7 0.2-1.6-0.1-1.9-0.3-0.4-0.6 0.2-0.5 1.3zm445.8 0.1c-1.3 1.6-1.2 1.7 0.4 0.4 1.6-1.3 2.1-2.1 1.3-2.1-0.2 0-1 0.8-1.7 1.7zm-257 4c-1.3 1.6-1.2 1.7 0.4 0.4 0.9-0.7 1.7-1.5 1.7-1.7 0-0.8-0.8-0.3-2.1 1.3zm-189.8 1.9c0 1.1 0.3 1.4 0.6 0.6 0.3-0.7 0.2-1.6-0.1-1.9-0.3-0.4-0.6 0.2-0.5 1.3zm486.4-0.6c-0.3 0.6 0.1 0.7 0.9 0.4 1.8-0.7 2.1-1.4 0.7-1.4-0.6 0-1.3 0.4-1.6 1zm-195.5 0.4c0 0.2 0.8 1 1.8 1.7 1.5 1.3 1.6 1.2 0.3-0.4-1.3-1.6-2.1-2.1-2.1-1.3zm-327.8 4.6c0 1.4 0.2 1.9 0.5 1.2 0.2-0.6 0.2-1.8 0-2.5-0.3-0.6-0.5-0.1-0.5 1.3zm516.7-0.3c-1.3 1.6-1.2 1.7 0.4 0.4 0.9-0.7 1.7-1.5 1.7-1.7 0-0.8-0.8-0.3-2.1 1.3zm-480.7 2.3c0 1.4 0.2 1.9 0.5 1.2 0.2-0.6 0.2-1.8 0-2.5-0.3-0.6-0.5-0.1-0.5 1.3zm476.7 2.7c-1.3 1.6-1.2 1.7 0.4 0.4 0.9-0.7 1.7-1.5 1.7-1.7 0-0.8-0.8-0.3-2.1 1.3zm52.1-1.3c0 0.2 0.8 1 1.8 1.7 1.5 1.3 1.6 1.2 0.3-0.4-1.3-1.6-2.1-2.1-2.1-1.3zm-346.5 2.7c-0.4 0.6-0.5 1.2-0.2 1.5 0.2 0.3 0.7-0.2 1-1.1 0.7-1.7 0.1-2-0.8-0.4zm117.1 0.2c0.3 1 0.9 1.5 1.2 1.2 0.3-0.3 0-1.1-0.7-1.8-1-0.9-1.1-0.8-0.5 0.6zm-336.4 2.7c0 1.9 0.2 2.7 0.5 1.7 0.2-0.9 0.2-2.5 0-3.5-0.3-0.9-0.5-0.1-0.5 1.8zm257.2 0.2l-1.9 2.3 2.3-1.9c2.1-1.8 2.7-2.6 1.9-2.6-0.2 0-1.2 1-2.3 2.2zm347.7-0.6c0 1.1 0.3 1.4 0.6 0.6 0.3-0.7 0.2-1.6-0.1-1.9-0.3-0.4-0.6 0.2-0.5 1.3zm-568.9 1.4c0 1.4 0.2 1.9 0.5 1.2 0.2-0.6 0.2-1.8 0-2.5-0.3-0.6-0.5-0.1-0.5 1.3zm267.3 3c1 1.1 2 2 2.3 2 0.3 0-0.3-0.9-1.3-2-1-1.1-2-2-2.3-2-0.3 0 0.3 0.9 1.3 2zm302.6-0.4c0 1.1 0.3 1.4 0.6 0.6 0.3-0.7 0.2-1.6-0.1-1.9-0.3-0.4-0.6 0.2-0.5 1.3zm-354.2 2.1l-2.4 2.8 2.8-2.4c1.5-1.4 2.7-2.6 2.7-2.8 0-0.8-0.8-0.1-3.1 2.4zm355.3 5.3c0 1.4 0.2 1.9 0.5 1.2 0.2-0.6 0.2-1.8 0-2.5-0.3-0.6-0.5-0.1-0.5 1.3zm-572.1 0.6c0 1.1 0.3 1.4 0.6 0.6 0.3-0.7 0.2-1.6-0.1-1.9-0.3-0.4-0.6 0.2-0.5 1.3zm472 0c0 1.1 0.3 1.4 0.6 0.6 0.3-0.7 0.2-1.6-0.1-1.9-0.3-0.4-0.6 0.2-0.5 1.3zm-507.8 7.4c0 4.7 0.2 6.6 0.4 4.2 0.2-2.3 0.2-6.1 0-8.5-0.2-2.3-0.4-0.4-0.4 4.3zm310.3-4.7c0.3 1 0.9 1.5 1.2 1.2 0.3-0.3 0-1.1-0.7-1.8-1-0.9-1.1-0.8-0.5 0.6zm-274.3 4.2c0 2.7 0.2 3.8 0.4 2.2 0.2-1.5 0.2-3.7 0-5-0.2-1.2-0.4 0-0.4 2.8zm307.8-1.9c0 1.1 0.3 1.4 0.6 0.6 0.3-0.7 0.2-1.6-0.1-1.9-0.3-0.4-0.6 0.2-0.5 1.3zm-129.9 1.9c0 1.6 0.2 2.2 0.5 1.2 0.2-0.9 0.2-2.3 0-3-0.3-0.6-0.5 0.1-0.5 1.8zm32.1 7c0 3.3 0.2 4.5 0.4 2.7 0.2-1.8 0.2-4.5 0-6-0.2-1.5-0.4 0-0.4 3.3zm99 2c0 3.3 0.2 4.5 0.4 2.7 0.2-1.8 0.2-4.5 0-6-0.2-1.5-0.4 0-0.4 3.3zm-32-1c0 2.2 0.2 3 0.4 1.7 0.2-1.2 0.2-3 0-4-0.3-0.9-0.5 0.1-0.4 2.3zm-277.2 1.1c0 1.1 0.3 1.4 0.6 0.6 0.3-0.7 0.2-1.6-0.1-1.9-0.3-0.4-0.6 0.2-0.5 1.3zm473.9 0.3c0 0.6 0.4 1.3 1 1.6 0.6 0.3 0.7-0.1 0.4-0.9-0.7-1.8-1.4-2.1-1.4-0.7zm-509.7 5.1c0 2.5 0.2 3.5 0.4 2.2 0.2-1.2 0.2-3.2 0-4.5-0.2-1.2-0.4-0.2-0.4 2.3zm213.9 0.5c0 1.6 0.2 2.2 0.5 1.2 0.2-0.9 0.2-2.3 0-3-0.3-0.6-0.5 0.1-0.5 1.8zm-178 1c0 1.6 0.2 2.2 0.5 1.2 0.2-0.9 0.2-2.3 0-3-0.3-0.6-0.5 0.1-0.5 1.8zm477.6 0c0.6 1.1 2.7 3.6 4.8 5.5 3.6 3.3 3.6 3.3-0.6-1.5-2.4-2.8-4.6-5.2-4.8-5.5-0.3-0.3 0 0.4 0.6 1.5zm92.3 1.1c0 1.1 0.3 1.4 0.6 0.6 0.3-0.7 0.2-1.6-0.1-1.9-0.3-0.4-0.6 0.2-0.5 1.3zm-262 3c0 1.1 0.3 1.4 0.6 0.6 0.3-0.7 0.2-1.6-0.1-1.9-0.3-0.4-0.6 0.2-0.5 1.3zm-129 1c0 1.1 0.3 1.4 0.6 0.6 0.3-0.7 0.2-1.6-0.1-1.9-0.3-0.4-0.6 0.2-0.5 1.3zm349.8 0.1c-1.3 1.6-1.2 1.7 0.4 0.4 0.9-0.7 1.7-1.5 1.7-1.7 0-0.8-0.8-0.3-2.1 1.3zm-255.9 2.3c-0.6 1.1-0.8 2-0.6 2 0.3 0 1-0.9 1.6-2 0.6-1.1 0.8-2 0.6-2-0.3 0-1 0.9-1.6 2zm-58 1c0.6 1.1 1.3 2 1.6 2 0.2 0 0-0.9-0.6-2-0.6-1.1-1.3-2-1.6-2-0.2 0 0 0.9 0.6 2zm229.6 1.3c0.3 1 0.9 1.5 1.2 1.2 0.3-0.3 0-1.1-0.7-1.8-1-0.9-1.1-0.8-0.5 0.6zm-176.7 4.4l-3.4 3.8 3.8-3.4c3.4-3.3 4.2-4.1 3.4-4.1-0.2 0-1.9 1.7-3.8 3.7zm-302.7 1.3c0 1.9 0.2 2.7 0.5 1.7 0.2-0.9 0.2-2.5 0-3.5-0.3-0.9-0.5-0.1-0.5 1.8zm36-0.5c0 1.6 0.2 2.2 0.5 1.2 0.2-0.9 0.2-2.3 0-3-0.3-0.6-0.5 0.1-0.5 1.8zm184.3 6.5c0.9 1.6 1.8 3 2.1 3 0.2 0-0.2-1.4-1.1-3-0.9-1.7-1.8-3-2.1-3-0.2 0 0.2 1.3 1.1 3zm-219.3 4.5c0 1.6 0.2 2.2 0.5 1.2 0.2-0.9 0.2-2.3 0-3-0.3-0.6-0.5 0.1-0.5 1.8zm587.3 2.7l-5 5.3 5.3-5c2.8-2.7 5.2-5.1 5.2-5.2 0-0.8-0.9 0.1-5.5 4.9zm-96.5-0.8c0 0.2 0.8 1 1.8 1.7 1.5 1.3 1.6 1.2 0.3-0.4-1.3-1.6-2.1-2.1-2.1-1.3zm-453.9 2.2c0 1.1 0.3 1.4 0.6 0.6 0.3-0.7 0.2-1.6-0.1-1.9-0.3-0.4-0.6 0.2-0.5 1.3zm459.4 2.4c1 1.1 2 2 2.3 2 0.3 0-0.3-0.9-1.3-2-1-1.1-2-2-2.3-2-0.3 0 0.3 0.9 1.3 2zm-495.3 1c0 1.4 0.2 1.9 0.5 1.2 0.2-0.6 0.2-1.8 0-2.5-0.3-0.6-0.5-0.1-0.5 1.3zm225.8-0.7c0 0.2 1.5 1.6 3.3 3.3l3.2 2.9-2.9-3.3c-2.8-3-3.6-3.7-3.6-2.9zm96.5 5.9l-6 6.3 6.3-6c5.8-5.5 6.7-6.5 5.9-6.5-0.1 0-2.9 2.8-6.2 6.2zm176.5-3.8c0 0.2 0.8 1 1.8 1.7 1.5 1.3 1.6 1.2 0.3-0.4-1.3-1.6-2.1-2.1-2.1-1.3zm73.3 4.7c-3.5 2.2-4.6 3.7-1.5 2 2.2-1.3 5.8-4 5.2-4.1-0.3 0-2 1-3.7 2.1zm-571.1 0.9c0 1.4 0.2 1.9 0.5 1.2 0.2-0.6 0.2-1.8 0-2.5-0.3-0.6-0.5-0.1-0.5 1.3zm234.8 1.4c0 0.2 0.8 1 1.8 1.7 1.5 1.3 1.6 1.2 0.3-0.4-1.3-1.6-2.1-2.1-2.1-1.3zm-196.9 3.2c0 1.1 0.3 1.4 0.6 0.6 0.3-0.7 0.2-1.6-0.1-1.9-0.3-0.4-0.6 0.2-0.5 1.3zm-37 1c0 1.1 0.3 1.4 0.6 0.6 0.3-0.7 0.2-1.6-0.1-1.9-0.3-0.4-0.6 0.2-0.5 1.3zm544.6 2.1c-0.4 0.3-0.7 1.1-0.7 1.7 0 0.7 0.3 0.7 0.8 0 0.4-0.7 1.6-1.4 2.7-1.7 1.9-0.5 1.9-0.5-0.1-0.6-1.1 0-2.4 0.2-2.7 0.6zm-543.6 2.9c0 1.1 0.3 1.4 0.6 0.6 0.3-0.7 0.2-1.6-0.1-1.9-0.3-0.4-0.6 0.2-0.5 1.3zm258.7 4.1c0.7 0.3 1.6 0.2 1.9-0.1 0.4-0.3-0.2-0.6-1.3-0.5-1.1 0-1.4 0.3-0.6 0.6zm5 1c0.7 0.3 1.6 0.2 1.9-0.1 0.4-0.3-0.2-0.6-1.3-0.5-1.1 0-1.4 0.3-0.6 0.6zm5.5 1c0.9 0.2 2.5 0.2 3.5 0 0.9-0.3 0.1-0.5-1.8-0.5-1.9 0-2.7 0.2-1.7 0.5zm7.5 0c1.2 0.2 3.2 0.2 4.5 0 1.2-0.2 0.2-0.4-2.3-0.4-2.5 0-3.5 0.2-2.2 0.4zm-229.8 23.8c0 0.5 0.5 1.7 1 2.5 0.5 0.8 1 1 1 0.5 0-0.6-0.5-1.7-1-2.5-0.5-0.8-1-1.1-1-0.5zm5 11c0 0.5 0.5 1.7 1 2.5 0.5 0.8 1 1 1 0.5 0-0.6-0.5-1.7-1-2.5-0.5-0.8-1-1.1-1-0.5zm5 10.4c0 0.6 0.4 1.3 1 1.6 0.6 0.3 0.7-0.1 0.4-0.9-0.7-1.8-1.4-2.1-1.4-0.7zm466.6 7.8c-0.6 1.4-0.5 1.5 0.5 0.6 0.7-0.7 1-1.5 0.7-1.8-0.3-0.3-0.9 0.2-1.2 1.2zm-456.6 9.2c0.5 1.1 1.5 2.3 2.1 2.7 0.6 0.3 0.3-0.5-0.6-2-2-3-3-3.5-1.5-0.7zm9 13.5c0 0.2 0.8 1 1.8 1.7 1.5 1.3 1.6 1.2 0.3-0.4-1.3-1.6-2.1-2.1-2.1-1.3zm384.4 8.8l-1.9 2.3 2.3-1.9c2.1-1.8 2.7-2.6 1.9-2.6-0.2 0-1.2 1-2.3 2.2zm-376.4 1.1c0 0.2 1.5 1.6 3.3 3.3l3.2 2.9-2.9-3.3c-2.8-3-3.6-3.7-3.6-2.9zm368.9 7.4l-2.4 2.8 2.8-2.4c2.5-2.3 3.2-3.1 2.4-3.1-0.2 0-1.4 1.2-2.8 2.7zm-355.9 6.8c3 3 5.7 5.5 5.9 5.5 0.3 0-1.9-2.5-4.9-5.5-3-3-5.7-5.5-5.9-5.5-0.3 0 1.9 2.5 4.9 5.5zm-47.5 0.5c1 1.1 2 2 2.3 2 0.3 0-0.3-0.9-1.3-2-1-1.1-2-2-2.3-2-0.3 0 0.3 0.9 1.3 2zm388.4 7.7l-2.4 2.8 2.8-2.4c2.5-2.3 3.2-3.1 2.4-3.1-0.2 0-1.4 1.2-2.8 2.7zm51 0c-1.3 1.6-1.2 1.7 0.4 0.4 0.9-0.7 1.7-1.5 1.7-1.7 0-0.8-0.8-0.3-2.1 1.3zm-431.9 1.8c1.3 1.4 2.6 2.5 2.8 2.5 0.3 0-0.5-1.1-1.8-2.5-1.3-1.4-2.6-2.5-2.8-2.5-0.3 0 0.5 1.1 1.8 2.5zm417.6 14.3c-7.1 7.5-9.7 10.5-5.7 6.7 6.8-6.6 19.7-20.5 19-20.5-0.2 0-6.2 6.2-13.3 13.8zm-43.7-10.1l-2.4 2.8 2.8-2.4c2.5-2.3 3.2-3.1 2.4-3.1-0.2 0-1.4 1.2-2.8 2.7zm-365.9 4.8c1.3 1.4 2.6 2.5 2.8 2.5 0.3 0-0.5-1.1-1.8-2.5-1.3-1.4-2.6-2.5-2.8-2.5-0.3 0 0.5 1.1 1.8 2.5zm53-0.1c0 0.2 0.8 1 1.8 1.7 1.5 1.3 1.6 1.2 0.3-0.4-1.3-1.6-2.1-2.1-2.1-1.3zm-49 3.9c0 0.2 1.5 1.6 3.3 3.3l3.2 2.9-2.9-3.3c-2.8-3-3.6-3.7-3.6-2.9zm10.5 10.7c2.1 2.2 4.1 4 4.4 4 0.3 0-1.3-1.8-3.4-4-2.1-2.2-4.1-4-4.4-4-0.3 0 1.3 1.8 3.4 4zm376.9 8.2l-2.9 3.3 3.3-2.9c1.7-1.7 3.2-3.1 3.2-3.3 0-0.8-0.8-0.1-3.6 2.9zm-366.4 1.3c1.3 1.4 2.6 2.5 2.8 2.5 0.3 0-0.5-1.1-1.8-2.5-1.3-1.4-2.6-2.5-2.8-2.5-0.3 0 0.5 1.1 1.8 2.5zm5.5 4.5c1 1.1 2 2 2.3 2 0.3 0-0.3-0.9-1.3-2-1-1.1-2-2-2.3-2-0.3 0 0.3 0.9 1.3 2zm353.9 0.2l-1.9 2.3 2.3-1.9c2.1-1.8 2.7-2.6 1.9-2.6-0.2 0-1.2 1-2.3 2.2zm-5 4l-1.9 2.3 2.3-1.9c2.1-1.8 2.7-2.6 1.9-2.6-0.2 0-1.2 1-2.3 2.2zm-17.5 12.5c-1.3 1.6-1.2 1.7 0.4 0.4 0.9-0.7 1.7-1.5 1.7-1.7 0-0.8-0.8-0.3-2.1 1.3zm-105.1 3c0.7 0.3 1.6 0.2 1.9-0.1 0.4-0.3-0.2-0.6-1.3-0.5-1.1 0-1.4 0.3-0.6 0.6zm-80 4c0.6 0.2 1.8 0.2 2.5 0 0.6-0.3 0.1-0.5-1.3-0.5-1.4 0-1.9 0.2-1.2 0.5zm15 1c1.2 0.2 3.2 0.2 4.5 0 1.2-0.2 0.2-0.4-2.3-0.4-2.5 0-3.5 0.2-2.2 0.4zm27.5 0c0.9 0.2 2.3 0.2 3 0 0.6-0.3-0.1-0.5-1.8-0.5-1.6 0-2.2 0.2-1.2 0.5zm114.2 8.3c-0.3 0.6 0.1 0.7 0.9 0.4 1.8-0.7 2.1-1.4 0.7-1.4-0.6 0-1.3 0.4-1.6 1zm-4 2c-0.3 0.6 0.1 0.7 0.9 0.4 1.8-0.7 2.1-1.4 0.7-1.4-0.6 0-1.3 0.4-1.6 1zm-179.7 22.7c0.7 0.3 1.6 0.2 1.9-0.1 0.4-0.3-0.2-0.6-1.3-0.5-1.1 0-1.4 0.3-0.6 0.6zm5 1c0.7 0.3 1.6 0.2 1.9-0.1 0.4-0.3-0.2-0.6-1.3-0.5-1.1 0-1.4 0.3-0.6 0.6zm105 0c0.7 0.3 1.6 0.2 1.9-0.1 0.4-0.3-0.2-0.6-1.3-0.5-1.1 0-1.4 0.3-0.6 0.6zm-100 1c0.6 0.2 1.8 0.2 2.5 0 0.6-0.3 0.1-0.5-1.3-0.5-1.4 0-1.9 0.2-1.2 0.5zm6 1c0.6 0.2 1.8 0.2 2.5 0 0.6-0.3 0.1-0.5-1.3-0.5-1.4 0-1.9 0.2-1.2 0.5zm83 0c0.7 0.3 1.6 0.2 1.9-0.1 0.4-0.3-0.2-0.6-1.3-0.5-1.1 0-1.4 0.3-0.6 0.6zm-76 1c0.6 0.2 1.8 0.2 2.5 0 0.6-0.3 0.1-0.5-1.3-0.5-1.4 0-1.9 0.2-1.2 0.5zm8 1c0.6 0.2 1.8 0.2 2.5 0 0.6-0.3 0.1-0.5-1.3-0.5-1.4 0-1.9 0.2-1.2 0.5z"/><path d="m265.8 0.7c0.6 0.2 1.8 0.2 2.5 0 0.6-0.3 0.1-0.5-1.3-0.5-1.4 0-1.9 0.2-1.2 0.5zm16 0c1.2 0.2 3.2 0.2 4.5 0 1.2-0.2 0.2-0.4-2.3-0.4-2.5 0-3.5 0.2-2.2 0.4zm21.5 1c0.9 0.2 2.5 0.2 3.5 0 0.9-0.3 0.1-0.5-1.8-0.5-1.9 0-2.7 0.2-1.7 0.5zm9.5 1c0.6 0.2 1.8 0.2 2.5 0 0.6-0.3 0.1-0.5-1.3-0.5-1.4 0-1.9 0.2-1.2 0.5zm-77.5 1c0.9 0.2 2.3 0.2 3 0 0.6-0.3-0.1-0.5-1.8-0.5-1.6 0-2.2 0.2-1.2 0.5zm-23.5 5c0.7 0.3 1.6 0.2 1.9-0.1 0.4-0.3-0.2-0.6-1.3-0.5-1.1 0-1.4 0.3-0.6 0.6zm135 0c0.7 0.3 1.6 0.2 1.9-0.1 0.4-0.3-0.2-0.6-1.3-0.5-1.1 0-1.4 0.3-0.6 0.6zm-181.3 15.3c-0.3 0.6 0.1 0.7 0.9 0.4 1.8-0.7 2.1-1.4 0.7-1.4-0.6 0-1.3 0.4-1.6 1zm-8.5 3.5c-1.4 0.8-2 1.4-1.5 1.4 0.6 0 2.1-0.6 3.5-1.4 1.4-0.8 2.1-1.4 1.5-1.4-0.5 0-2.1 0.6-3.5 1.4zm241-1.1c0 0.2 0.7 0.7 1.6 1 0.8 0.3 1.2 0.2 0.9-0.4-0.6-1-2.5-1.4-2.5-0.6zm-132.7 5.3c0.9 0.2 2.5 0.2 3.5 0 0.9-0.3 0.1-0.5-1.8-0.5-1.9 0-2.7 0.2-1.7 0.5zm20 0c0.9 0.2 2.5 0.2 3.5 0 0.9-0.3 0.1-0.5-1.8-0.5-1.9 0-2.7 0.2-1.7 0.5zm6.5 0c0.6 0.2 1.8 0.2 2.5 0 0.6-0.3 0.1-0.5-1.3-0.5-1.4 0-1.9 0.2-1.2 0.5zm-37 1c0.7 0.3 1.6 0.2 1.9-0.1 0.4-0.3-0.2-0.6-1.3-0.5-1.1 0-1.4 0.3-0.6 0.6zm-23 4c0.7 0.3 1.6 0.2 1.9-0.1 0.4-0.3-0.2-0.6-1.3-0.5-1.1 0-1.4 0.3-0.6 0.6zm98.2-0.3c0 0.2 0.7 0.7 1.6 1 0.8 0.3 1.2 0.2 0.9-0.4-0.6-1-2.5-1.4-2.5-0.6zm-253.5 48.8l-5 5.3 5.3-5c2.8-2.7 5.2-5.1 5.2-5.2 0-0.8-0.9 0.1-5.5 4.9zm405.5 0.2c0 0.2 0.8 1 1.8 1.7 1.5 1.3 1.6 1.2 0.3-0.4-1.3-1.6-2.1-2.1-2.1-1.3zm-45.5 2.6c1 1.1 2 2 2.3 2 0.3 0-0.3-0.9-1.3-2-1-1.1-2-2-2.3-2-0.3 0 0.3 0.9 1.3 2zm-409 65.1c-0.4 0.6-0.5 1.2-0.2 1.5 0.2 0.3 0.7-0.2 1-1.1 0.7-1.7 0.1-2-0.8-0.4zm522.3 44.6c0.7 0.3 1.6 0.2 1.9-0.1 0.4-0.3-0.2-0.6-1.3-0.5-1.1 0-1.4 0.3-0.6 0.6zm-37.1 3.4c0.4 1.3 0.8 1.8 1.1 1 0.2-0.7-0.1-1.8-0.6-2.3-0.8-0.8-0.9-0.4-0.5 1.3zm-211.7 10.9c0.8 0.5 2 1 2.5 1 0.6 0 0.3-0.5-0.5-1-0.8-0.5-1.9-1-2.5-1-0.5 0-0.3 0.5 0.5 1zm-50.5 2c-0.3 0.6 0.1 0.7 0.9 0.4 1.8-0.7 2.1-1.4 0.7-1.4-0.6 0-1.3 0.4-1.6 1zm242.1 4.8l-1.9 2.7 2.6-2.4c2.8-2.6 3.2-3.1 2-3.1-0.5 0-1.7 1.3-2.7 2.8zm97.9 0.2c0.3 0.5 0.8 1 1.1 1 0.2 0 0.4-0.5 0.4-1 0-0.6-0.5-1-1.1-1-0.5 0-0.7 0.4-0.4 1zm-269 5c0.3 0.5 0.8 1 1.1 1 0.2 0 0.4-0.5 0.4-1 0-0.6-0.5-1-1.1-1-0.5 0-0.7 0.4-0.4 1zm275.1 2.3c0.3 1 0.9 1.5 1.2 1.2 0.3-0.3 0-1.1-0.7-1.8-1-0.9-1.1-0.8-0.5 0.6zm-57.8 2.4c0.7 0.3 1.6 0.2 1.9-0.1 0.4-0.3-0.2-0.6-1.3-0.5-1.1 0-1.4 0.3-0.6 0.6zm11.2 0.7c0 0.2 0.9 0.6 2 0.9 1.1 0.3 1.8 0.1 1.4-0.4-0.5-0.9-3.4-1.3-3.4-0.5zm13 6c0 0.2 0.8 1 1.8 1.7 1.5 1.3 1.6 1.2 0.3-0.4-1.3-1.6-2.1-2.1-2.1-1.3zm-46 3.7c0 0.5 0.5 0.7 1 0.4 0.6-0.3 1-0.8 1-1.1 0-0.2-0.4-0.4-1-0.4-0.5 0-1 0.5-1 1.1zm-479.9 4.5c0 1.1 0.3 1.4 0.6 0.6 0.3-0.7 0.2-1.6-0.1-1.9-0.3-0.4-0.6 0.2-0.5 1.3zm217.9 4.9c-1.1 1.3-1 1.4 0.4 0.9 0.9-0.3 1.6-1 1.6-1.5 0-1.3-0.6-1.1-2 0.6zm-253.9 3.1c0 1.1 0.3 1.4 0.6 0.6 0.3-0.7 0.2-1.6-0.1-1.9-0.3-0.4-0.6 0.2-0.5 1.3zm474 6c0 1.1 0.3 1.4 0.6 0.6 0.3-0.7 0.2-1.6-0.1-1.9-0.3-0.4-0.6 0.2-0.5 1.3zm33.1 4.4c0 1.4 0.2 1.9 0.5 1.2 0.2-0.6 0.2-1.8 0-2.5-0.3-0.6-0.5-0.1-0.5 1.3zm66.9 0.6c0 1.1 0.3 1.4 0.6 0.6 0.3-0.7 0.2-1.6-0.1-1.9-0.3-0.4-0.6 0.2-0.5 1.3zm-262.4 4.5c0.4 1.3 0.8 1.8 1.1 1 0.2-0.7-0.1-1.8-0.6-2.3-0.8-0.8-0.9-0.4-0.5 1.3zm162.5 0.9c0 1.4 0.2 1.9 0.5 1.2 0.2-0.6 0.2-1.8 0-2.5-0.3-0.6-0.5-0.1-0.5 1.3zm133 2c0 1.9 0.2 2.7 0.5 1.7 0.2-0.9 0.2-2.5 0-3.5-0.3-0.9-0.5-0.1-0.5 1.8zm-394 5c0 1.4 0.2 1.9 0.5 1.2 0.2-0.6 0.2-1.8 0-2.5-0.3-0.6-0.5-0.1-0.5 1.3zm-213.1 16.6c0 1.1 0.3 1.4 0.6 0.6 0.3-0.7 0.2-1.6-0.1-1.9-0.3-0.4-0.6 0.2-0.5 1.3zm297.9 7.4c-0.9 0.6-1 1-0.3 1 0.6 0 1.5-0.5 1.8-1 0.8-1.2 0.4-1.2-1.5 0zm-38 0.4c0 0.2 0.7 0.7 1.6 1 0.8 0.3 1.2 0.2 0.9-0.4-0.6-1-2.5-1.4-2.5-0.6zm18.3 5.3c0.9 0.2 2.5 0.2 3.5 0 0.9-0.3 0.1-0.5-1.8-0.5-1.9 0-2.7 0.2-1.7 0.5zm239.3 107c-0.6 1.4-0.5 1.5 0.5 0.6 0.7-0.7 1-1.5 0.7-1.8-0.3-0.3-0.9 0.2-1.2 1.2zm-54.6 13.4c0 0.5 0.5 0.7 1 0.4 0.6-0.3 1-0.8 1-1.1 0-0.2-0.4-0.4-1-0.4-0.5 0-1 0.5-1 1.1zm-354.7 18.6c0.9 1.4 8.7 7.7 8.7 7 0-0.3-2.1-2.2-4.7-4.3-2.6-2.1-4.4-3.3-4-2.7zm24.8 20.6c0.2 0.1 1.3 0.9 2.4 1.7 1.9 1.4 1.9 1.4 0.6-0.3-0.7-0.9-1.8-1.7-2.4-1.7q-0.9 0-0.6 0.3zm-43.1 11.1c0 0.2 0.8 1 1.8 1.7 1.5 1.3 1.6 1.2 0.3-0.4-1.3-1.6-2.1-2.1-2.1-1.3zm304.4 4.2c-1.8 1.4-1.8 1.5 0.4 0.4 1.2-0.6 2.2-1.3 2.2-1.5 0-0.8-0.5-0.6-2.6 1.1zm-161.6 27.1c0.7 0.3 1.6 0.2 1.9-0.1 0.4-0.3-0.2-0.6-1.3-0.5-1.1 0-1.4 0.3-0.6 0.6zm24 3c0.7 0.3 1.6 0.2 1.9-0.1 0.4-0.3-0.2-0.6-1.3-0.5-1.1 0-1.4 0.3-0.6 0.6zm27.5 0c0.9 0.2 2.3 0.2 3 0 0.6-0.3-0.1-0.5-1.8-0.5-1.6 0-2.2 0.2-1.2 0.5zm-28.5 38c0.7 0.3 1.6 0.2 1.9-0.1 0.4-0.3-0.2-0.6-1.3-0.5-1.1 0-1.4 0.3-0.6 0.6zm42 0c1.2 0.2 3.2 0.2 4.5 0 1.2-0.2 0.2-0.4-2.3-0.4-2.5 0-3.5 0.2-2.2 0.4zm-29.5 1c3.2 0.2 8.1 0.2 11 0 2.9-0.2 0.3-0.3-5.8-0.3-6 0-8.4 0.1-5.2 0.3zm20 0c0.9 0.2 2.5 0.2 3.5 0 0.9-0.3 0.1-0.5-1.8-0.5-1.9 0-2.7 0.2-1.7 0.5z" fill="rgb(85, 85, 85)"/><path d="m275.3 0.7c0.9 0.2 2.5 0.2 3.5 0 0.9-0.3 0.1-0.5-1.8-0.5-1.9 0-2.7 0.2-1.7 0.5zm178.7 102.8c1.3 1.4 2.6 2.5 2.8 2.5 0.3 0-0.5-1.1-1.8-2.5-1.3-1.4-2.6-2.5-2.8-2.5-0.3 0 0.5 1.1 1.8 2.5zm-129.5 123.5c1 1.1 2 2 2.3 2 0.3 0-0.3-0.9-1.3-2-1-1.1-2-2-2.3-2-0.3 0 0.3 0.9 1.3 2zm-45.2 11.7c0.9 0.2 2.3 0.2 3 0 0.6-0.3-0.1-0.5-1.8-0.5-1.6 0-2.2 0.2-1.2 0.5zm328.9 25.3c0 1.9 0.2 2.7 0.5 1.7 0.2-0.9 0.2-2.5 0-3.5-0.3-0.9-0.5-0.1-0.5 1.8zm-133.1 0.6c0 1.1 0.3 1.4 0.6 0.6 0.3-0.7 0.2-1.6-0.1-1.9-0.3-0.4-0.6 0.2-0.5 1.3zm-260.9 6.4c0 1.4 0.2 1.9 0.5 1.2 0.2-0.6 0.2-1.8 0-2.5-0.3-0.6-0.5-0.1-0.5 1.3zm278.8 36.4c0 0.2 0.8 1 1.8 1.7 1.5 1.3 1.6 1.2 0.3-0.4-1.3-1.6-2.1-2.1-2.1-1.3zm-233.2 240.3c0.7 0.3 1.6 0.2 1.9-0.1 0.4-0.3-0.2-0.6-1.3-0.5-1.1 0-1.4 0.3-0.6 0.6z" fill="rgb(128, 128, 128)"/><path d="m297.8 1.7c0.7 0.3 1.6 0.2 1.9-0.1 0.4-0.3-0.2-0.6-1.3-0.5-1.1 0-1.4 0.3-0.6 0.6zm151.2 96.7c0 0.2 0.8 1 1.8 1.7 1.5 1.3 1.6 1.2 0.3-0.4-1.3-1.6-2.1-2.1-2.1-1.3zm-171.2 110.3c1.2 0.2 3 0.2 4 0 0.9-0.3-0.1-0.5-2.3-0.4-2.2 0-3 0.2-1.7 0.4zm-276.7 46.9c0 1.1 0.3 1.4 0.6 0.6 0.3-0.7 0.2-1.6-0.1-1.9-0.3-0.4-0.6 0.2-0.5 1.3zm538.7 40.1c0.6 0.2 1.8 0.2 2.5 0 0.6-0.3 0.1-0.5-1.3-0.5-1.4 0-1.9 0.2-1.2 0.5zm-90.4 145.5l-1.9 2.3 2.3-1.9c1.2-1.1 2.2-2.1 2.2-2.3 0-0.8-0.8-0.2-2.6 1.9zm-335.4 7.2c0 0.2 0.8 1 1.8 1.7 1.5 1.3 1.6 1.2 0.3-0.4-1.3-1.6-2.1-2.1-2.1-1.3zm-45 5c0 0.2 0.8 1 1.8 1.7 1.5 1.3 1.6 1.2 0.3-0.4-1.3-1.6-2.1-2.1-2.1-1.3z" fill="rgb(170, 170, 170)"/><path d="m258.8 1.7c0.6 0.2 1.8 0.2 2.5 0 0.6-0.3 0.1-0.5-1.3-0.5-1.4 0-1.9 0.2-1.2 0.5zm-139.9 90c-1.3 1.6-1.2 1.7 0.4 0.4 0.9-0.7 1.7-1.5 1.7-1.7 0-0.8-0.8-0.3-2.1 1.3zm367.1-1.3c0 0.2 0.8 1 1.8 1.7 1.5 1.3 1.6 1.2 0.3-0.4-1.3-1.6-2.1-2.1-2.1-1.3zm-386.1 19.3l-2.4 2.8 2.8-2.4c1.5-1.4 2.7-2.6 2.7-2.8 0-0.8-0.8-0.1-3.1 2.4zm359.1-1.4c0 0.2 1.5 1.6 3.3 3.3l3.2 2.9-2.9-3.3c-2.8-3-3.6-3.7-3.6-2.9zm-368.6 11.9l-1.9 2.3 2.3-1.9c1.2-1.1 2.2-2.1 2.2-2.3 0-0.8-0.8-0.2-2.6 1.9zm449.9 107.5c0.9 0.2 2.3 0.2 3 0 0.6-0.3-0.1-0.5-1.8-0.5-1.6 0-2.2 0.2-1.2 0.5zm-33.1 32.3c0 1.4 0.2 1.9 0.5 1.2 0.2-0.6 0.2-1.8 0-2.5-0.3-0.6-0.5-0.1-0.5 1.3zm-0.1 4.6c0 1.1 0.3 1.4 0.6 0.6 0.3-0.7 0.2-1.6-0.1-1.9-0.3-0.4-0.6 0.2-0.5 1.3zm-471.8 6.9c0 2.2 0.2 3 0.4 1.7 0.2-1.2 0.2-3 0-4-0.3-0.9-0.5 0.1-0.4 2.3zm278.8 1.1c0 1.1 0.3 1.4 0.6 0.6 0.3-0.7 0.2-1.6-0.1-1.9-0.3-0.4-0.6 0.2-0.5 1.3zm-312.9 11.4c0 1.4 0.2 1.9 0.5 1.2 0.2-0.6 0.2-1.8 0-2.5-0.3-0.6-0.5-0.1-0.5 1.3zm516.8 2.4c0 0.2 0.8 1 1.8 1.7 1.5 1.3 1.6 1.2 0.3-0.4-1.3-1.6-2.1-2.1-2.1-1.3zm-481.9 6.2c0 1.1 0.3 1.4 0.6 0.6 0.3-0.7 0.2-1.6-0.1-1.9-0.3-0.4-0.6 0.2-0.5 1.3zm196.9 23.8c0 0.2 0.8 1 1.8 1.7 1.5 1.3 1.6 1.2 0.3-0.4-1.3-1.6-2.1-2.1-2.1-1.3zm88.9 5.3c-1.3 1.6-1.2 1.7 0.4 0.4 0.9-0.7 1.7-1.5 1.7-1.7 0-0.8-0.8-0.3-2.1 1.3zm-238.4 146.3c2.1 2.2 4.1 4 4.4 4 0.3 0-1.3-1.8-3.4-4-2.1-2.2-4.1-4-4.4-4-0.3 0 1.3 1.8 3.4 4zm388.4 1.7l-3.4 3.8 3.8-3.4c3.4-3.3 4.2-4.1 3.4-4.1-0.2 0-1.9 1.7-3.8 3.7zm-200.6 41c2.6 0.2 6.7 0.2 9 0 2.3-0.2 0.2-0.3-4.8-0.3-4.9 0-6.8 0.1-4.2 0.3z" fill="rgb(212, 212, 212)"/><path d="m258.5 1.7c-20.7 1.8-49.8 7.8-70.5 14.6-60.4 19.8-114.7 62.6-147.9 116.5-28.3 46.1-41.7 100.4-38.3 154.9 3.9 60.4 22.6 110.6 57.1 152.8 42.4 52 101.3 88.5 163.6 101.3 49.8 10.3 98.7 7.1 148-9.8 16.3-5.6 47.3-21.1 62.5-31.2 47.1-31.4 81.3-72.9 102.4-124.1 4.5-10.8 10.1-29.2 11.5-37.7 2-11.3 1.4-10.5 8.3-11.9 13.6-2.8 24.2-8.7 34.3-18.9 11.5-11.7 17.3-24.8 18.2-41.2 0.9-17-3.8-31.1-15-45-9.6-11.9-24.3-20.6-38.6-22.9-3.5-0.6-6.5-1.2-6.7-1.4-0.3-0.2-1.5-3.9-2.8-8.3-8.6-29.4-30.7-68.5-52.2-92.4-43.3-48.2-98.5-79.4-160.9-90.9-22.3-4.2-54-6.1-73-4.4zm50 30.8c24.1 3 37.5 6.4 59.4 14.9 20.9 8.2 29.2 12.5 48.4 25 36.5 23.6 66.2 57.3 84.5 95.6 6.8 14.1 12.9 29.4 13.4 33.6 0.2 1.6-1.7 3.4-9.2 8.5-5.9 4-11.3 8.7-14.3 12.4-18.9 23-19.6 54.1-2 78.6 4.5 6.4 15.1 15.3 22 18.7 2.9 1.4 5.3 3 5.3 3.5 0 3-5.7 22.2-9.4 32-12 30.9-29.6 58.3-52.1 81.2-13.6 13.8-22.9 21.4-39.6 32.5-31.3 20.7-67 34.1-105.4 39.6-16.4 2.3-51.8 2.3-67 0-62-9.5-116.4-40.4-155-88.1-28.1-34.8-45.1-75.9-50.5-122-1.7-14.5-1.5-43.8 0.5-58 5.3-39 20.2-76 43.6-108.5 9.7-13.4 29.5-33.8 44.9-46.2 34.2-27.5 81.4-47.7 124.5-53.2 15-1.9 43.3-1.9 58-0.1zm245.9 197.3c6.8 2.3 14.7 9.8 18.5 17.4 5.3 10.5 3.9 24.2-3.5 34.9-5.8 8.4-19.8 14.7-30 13.5-13.3-1.5-22.7-7.9-28.4-19.2-3.1-6-3.5-7.6-3.4-14.3 0.1-9.4 3.1-16.7 10.1-24.2 9.3-10.1 22.5-13 36.7-8.1z" fill="rgb(255, 255, 255)"/><path d="m267 209.6c-19.1 3.7-36.7 16.8-45 33.6-12.6 25.6-8 52.8 12.5 73.4 13 13.1 28.8 19.7 47.5 19.8 20.3 0.1 39.2-9.8 50.7-26.7 6.1-8.8 8.6-14.9 10.7-24.9 2-9.5 2-11.3 0.1-22.4-3.9-22.4-19.4-40.6-42.2-49.7-7-2.7-9.1-3.1-19.8-3.3-6.6-0.1-13.1 0-14.5 0.2zm26.2 31.6c22 10.2 27.9 35.4 12.5 53.3-9.4 11-27.6 14.2-41.3 7.3-5.8-2.9-12.8-10.4-15.9-17.1-3.7-7.8-3.5-19 0.4-27.2 7.8-16.6 27.8-23.9 44.3-16.3z" fill="rgb(255, 255, 255)"/><path d="m36.1 276.6c0 1.1 0.3 1.4 0.6 0.6 0.3-0.7 0.2-1.6-0.1-1.9-0.3-0.4-0.6 0.2-0.5 1.3z" fill="rgb(0, 85, 85)"/></svg>