<svg xmlns="http://www.w3.org/2000/svg" viewBox="0 0 634 500" width="32" height="32"><path d="m544.9 39.7c-1.3 1.6-1.2 1.7 0.4 0.4 1.6-1.3 2.1-2.1 1.3-2.1-0.2 0-1 0.8-1.7 1.7zm-9.5 20.7c-0.3 0.8-0.4 2.5-0.2 3.8 0.3 1.7 0.5 1.3 0.9-1.5 0.5-3.8 0.2-4.7-0.7-2.3zm67.7 3.2c0 1.1 0.3 1.4 0.6 0.6 0.3-0.7 0.2-1.6-0.1-1.9-0.3-0.4-0.6 0.2-0.5 1.3zm-104.1 0.4c-0.9 0.6-1 1-0.3 1 0.6 0 1.5-0.5 1.8-1 0.8-1.2 0.4-1.2-1.5 0zm91.5 25c-0.3 0.5-0.1 1 0.4 1 0.6 0 1.1-0.5 1.1-1 0-0.6-0.2-1-0.4-1-0.3 0-0.8 0.4-1.1 1zm-85 2c-0.3 0.6 0.1 0.7 0.9 0.4 1.8-0.7 2.1-1.4 0.7-1.4-0.6 0-1.3 0.4-1.6 1zm16.5 16.4c2.8 3.7 6 6.9 6 5.9 0-0.5-1.7-2.5-3.7-4.4-2-1.8-3.1-2.5-2.3-1.5zm91.9 1.3l-2.4 2.8 2.8-2.4c2.5-2.3 3.2-3.1 2.4-3.1-0.2 0-1.4 1.2-2.8 2.7zm-441.3 50c-0.6 1.4-0.5 1.5 0.5 0.6 0.7-0.7 1-1.5 0.7-1.8-0.3-0.3-0.9 0.2-1.2 1.2zm42.7 9.1c-0.6 0.4 1 0.7 3.7 0.7 2.6 0 4.6-0.3 4.3-0.8-0.5-0.9-6.4-0.9-8 0.1zm-19.4 9.9l-2.4 2.8 2.8-2.4c1.5-1.4 2.7-2.6 2.7-2.8 0-0.8-0.8-0.1-3.1 2.4zm87.1 15.8c0 0.8 0.4 1.5 1 1.5 0.5 0 0.7-0.7 0.4-1.5-0.4-0.8-0.8-1.5-1-1.5-0.2 0-0.4 0.7-0.4 1.5zm-29.8 7.5c0 1.4 0.2 1.9 0.5 1.2 0.2-0.6 0.2-1.8 0-2.5-0.3-0.6-0.5-0.1-0.5 1.3zm-67.2 1.2c0 0.9 0.5 2 1 2.3 1.3 0.8 1.3-0.5 0-2.5-0.8-1.3-1-1.3-1 0.2zm58.3 22c-1.5 2-2.5 3.8-2 3.8 0.3 0 1.2-1.1 2.1-2.5 1.7-2.6 1.6-3.5-0.1-1.3zm-83.3 4.9c0 0.5 0.5 0.7 1 0.4 0.6-0.3 1-0.8 1-1.1 0-0.2-0.4-0.4-1-0.4-0.5 0-1 0.5-1 1.1zm-9.1 9.6l-2.4 2.8 2.8-2.4c1.5-1.4 2.7-2.6 2.7-2.8 0-0.8-0.8-0.1-3.1 2.4zm32.1 15.7c0 0.2 0.8 1 1.8 1.7 1.5 1.3 1.6 1.2 0.3-0.4-1.3-1.6-2.1-2.1-2.1-1.3zm-8.6 8.8l-1.9 2.3 2.3-1.9c2.1-1.8 2.7-2.6 1.9-2.6-0.2 0-1.2 1-2.3 2.2zm-7.9 8.8c-0.3 0.5-0.1 1 0.4 1 0.6 0 1.1-0.5 1.1-1 0-0.6-0.2-1-0.4-1-0.3 0-0.8 0.4-1.1 1zm-68 106c-0.3 0.5-0.1 1 0.4 1 0.6 0 1.1-0.5 1.1-1 0-0.6-0.2-1-0.4-1-0.3 0-0.8 0.4-1.1 1zm-43.9 25.9c-0.4 0.5 0.3 0.7 1.4 0.4 2.3-0.6 2.6-1.3 0.6-1.3-0.8 0-1.7 0.4-2 0.9zm30.4 8.6c1.3 1.4 2.8 2.5 3.4 2.5 0.6 0-0.1-1.1-1.6-2.5-1.5-1.4-3-2.5-3.4-2.5-0.4 0 0.3 1.1 1.6 2.5zm-55.7 19c-0.3 0.9-0.3 1.8-0.1 2.1 0.3 0.3 0.8-0.4 1.1-1.6 0.6-2.3-0.1-2.7-1-0.5zm-30 3c0 2.2 0.2 3 0.4 1.7 0.2-1.2 0.2-3 0-4-0.3-0.9-0.5 0.1-0.4 2.3zm127 1.5c0 3 0.2 4.3 0.4 2.7 0.2-1.5 0.2-3.9 0-5.5-0.2-1.5-0.4-0.2-0.4 2.8zm-38.3 21c-0.9 0.6-1 1-0.3 1 0.6 0 1.5-0.5 1.8-1 0.8-1.2 0.4-1.2-1.5 0zm-32 10.4c0 0.2 0.7 0.7 1.6 1 0.8 0.3 1.2 0.2 0.9-0.4-0.6-1-2.5-1.4-2.5-0.6zm2.5 31.6c1.7 0.4 3.9 0.8 5 0.8 1.6 0 1.5-0.2-0.5-0.8-1.4-0.4-3.6-0.8-5-0.8-2.2 0-2.2 0.1 0.5 0.8zm9.3-0.3c0.7 0.3 1.6 0.2 1.9-0.1 0.4-0.3-0.2-0.6-1.3-0.5-1.1 0-1.4 0.3-0.6 0.6z" fill="rgb(85, 85, 85)"/><path d="m566.3 0.7c0.9 0.2 2.5 0.2 3.5 0 0.9-0.3 0.1-0.5-1.8-0.5-1.9 0-2.7 0.2-1.7 0.5zm11.5 1c0.7 0.3 1.6 0.2 1.9-0.1 0.4-0.3-0.2-0.6-1.3-0.5-1.1 0-1.4 0.3-0.6 0.6zm-24 1c0.7 0.3 1.6 0.2 1.9-0.1 0.4-0.3-0.2-0.6-1.3-0.5-1.1 0-1.4 0.3-0.6 0.6zm-10.8 3.3c-0.8 0.5-1 1-0.5 1 0.6 0 1.7-0.5 2.5-1 0.8-0.5 1.1-1 0.5-1-0.5 0-1.7 0.5-2.5 1zm51.1 0.4c1 0.9 6.9 3.6 6.9 3.2 0-0.6-5.5-3.6-6.6-3.6-0.4 0-0.5 0.2-0.3 0.4zm-57.7 3.2c-1.8 1.4-1.8 1.5 0.4 0.4 1.2-0.6 2.2-1.3 2.2-1.5 0-0.8-0.5-0.6-2.6 1.1zm68.1 2.5c1.7 1.3 5.7 5 9.1 8.3 3.3 3.4 7 7.4 8.3 9.1 1.8 2.5 2 2.5 1 0.5-0.7-1.4-4.6-5.9-8.8-10.1-4.2-4.2-8.7-8.1-10.1-8.8-2-1-2-0.8 0.5 1zm-77.8 5.1l-6.4 6.3 6.1-5.4c3.4-3 6.5-5.8 7.1-6.3 0.5-0.4 0.6-0.8 0.2-0.8-0.4 0-3.5 2.8-7 6.2zm-8.8 9.5c-1.3 1.6-1.2 1.7 0.4 0.4 1.6-1.3 2.1-2.1 1.3-2.1-0.2 0-1 0.8-1.7 1.7zm47.4 4c1.5 0.2 3.9 0.2 5.5 0 1.5-0.2 0.2-0.4-2.8-0.4-3 0-4.3 0.2-2.7 0.4zm-5.5 1c0.7 0.3 1.6 0.2 1.9-0.1 0.4-0.3-0.2-0.6-1.3-0.5-1.1 0-1.4 0.3-0.6 0.6zm-48.4 5.4c-1.4 2.8-2.4 5.3-2.2 5.5 0.2 0.2 1.6-2.1 3.1-5.1 1.5-3 2.5-5.5 2.2-5.5-0.3 0-1.6 2.3-3.1 5.1zm114.7 0.1c1.3 2.4 3.1 6.8 4.1 9.8 1.3 3.8 1.7 4.4 1.3 2-0.6-3.6-6-16-7-16-0.3 0 0.4 1.9 1.6 4.2zm-41.1-2.8c0 0.3 0.9 1 2 1.6 1.1 0.6 2 0.8 2 0.6 0-0.3-0.9-1-2-1.6-1.1-0.6-2-0.8-2-0.6zm-40.4 6.6c-2.5 2.7-4.6 5.2-4.6 5.6q0 0.6 0.3 0.3c0.2-0.2 2.5-2.8 5.2-5.7 2.6-2.8 4.5-5.2 4.3-5.2-0.3 0-2.6 2.2-5.2 5zm49.4 0.5c2.4 2.7 4.6 5.2 4.8 5.5 0.3 0.3 0-0.4-0.6-1.5-0.6-1.1-2.7-3.6-4.8-5.5-3.6-3.3-3.6-3.3 0.6 1.5zm-55.5 7.6c-0.4 0.6-0.5 1.2-0.2 1.5 0.2 0.3 0.7-0.2 1-1.1 0.7-1.7 0.1-2-0.8-0.4zm-32.3 3.9c0 1.4 0.2 1.9 0.5 1.2 0.2-0.6 0.2-1.8 0-2.5-0.3-0.6-0.5-0.1-0.5 1.3zm126 2.5c0 1.6 0.2 2.2 0.5 1.2 0.2-0.9 0.2-2.3 0-3-0.3-0.6-0.5 0.1-0.5 1.8zm-96 1.5c0 1.4 0.2 1.9 0.5 1.2 0.2-0.6 0.2-1.8 0-2.5-0.3-0.6-0.5-0.1-0.5 1.3zm-31.2 2.7c-0.3 2.3-0.2 3.9 0.3 3.4 0.5-0.5 0.7-2.4 0.5-4.2-0.3-3.3-0.4-3.3-0.8 0.8zm97.1-2.1c0 1.1 0.3 1.4 0.6 0.6 0.3-0.7 0.2-1.6-0.1-1.9-0.3-0.4-0.6 0.2-0.5 1.3zm31.2 6.9c0 2.7 0.2 3.8 0.4 2.2 0.2-1.5 0.2-3.7 0-5-0.2-1.2-0.4 0-0.4 2.8zm-138.5 0.2c0.7 0.3 1.6 0.2 1.9-0.1 0.4-0.3-0.2-0.6-1.3-0.5-1.1 0-1.4 0.3-0.6 0.6zm-4 1c0.7 0.3 1.6 0.2 1.9-0.1 0.4-0.3-0.2-0.6-1.3-0.5-1.1 0-1.4 0.3-0.6 0.6zm-5.5 1c0.9 0.2 2.3 0.2 3 0 0.6-0.3-0.1-0.5-1.8-0.5-1.6 0-2.2 0.2-1.2 0.5zm50.9 2.8c0 1.6 0.2 2.2 0.5 1.2 0.2-0.9 0.2-2.3 0-3-0.3-0.6-0.5 0.1-0.5 1.8zm-58.4-0.8c0.7 0.3 1.6 0.2 1.9-0.1 0.4-0.3-0.2-0.6-1.3-0.5-1.1 0-1.4 0.3-0.6 0.6zm124.4 1.3c0 1.4 0.2 1.9 0.5 1.2 0.2-0.6 0.2-1.8 0-2.5-0.3-0.6-0.5-0.1-0.5 1.3zm-128.4-0.3c0.7 0.3 1.6 0.2 1.9-0.1 0.4-0.3-0.2-0.6-1.3-0.5-1.1 0-1.4 0.3-0.6 0.6zm-4 1c0.7 0.3 1.6 0.2 1.9-0.1 0.4-0.3-0.2-0.6-1.3-0.5-1.1 0-1.4 0.3-0.6 0.6zm-7.3 1.3c-2.5 1.1 0.1 1.1 3.5 0 2-0.6 2.1-0.8 0.5-0.8-1.1 0-2.9 0.3-4 0.8zm169.7 2c0 1.4 0.2 1.9 0.5 1.2 0.2-0.6 0.2-1.8 0-2.5-0.3-0.6-0.5-0.1-0.5 1.3zm-176.7 0c-1.3 0.5-1.4 0.9-0.5 0.9 0.8 0 2.4-0.4 3.5-0.9 1.3-0.5 1.4-0.9 0.5-0.9-0.8 0-2.4 0.4-3.5 0.9zm81.5 0.3c-0.2 3.5 10.8 17.7 13.7 17.7 0.4 0-1.2-1.6-3.6-3.6-2.3-2-5.5-6.2-7.1-9.3-1.6-3.1-2.9-5.2-3-4.8zm-86.2 1.4c0.7 0.3 1.6 0.2 1.9-0.1 0.4-0.3-0.2-0.6-1.3-0.5-1.1 0-1.4 0.3-0.6 0.6zm-7.8 1.8c-1.9 0.7-2.8 1.3-2 1.3 0.8 0 3.1-0.6 5-1.3 1.9-0.7 2.8-1.3 2-1.3-0.8 0-3.1 0.6-5 1.3zm156.6 0.2c-0.6 1.4-0.5 1.5 0.5 0.6 0.7-0.7 1-1.5 0.7-1.8-0.3-0.3-0.9 0.2-1.2 1.2zm31.2 1.8c-0.4 1.6-0.9 3.9-1.2 5-0.4 1.1 0.1 0.5 0.9-1.4 0.9-1.8 1.4-4.1 1.3-5-0.2-0.9-0.7-0.3-1 1.4zm-197 1.2c0.7 0.3 1.6 0.2 1.9-0.1 0.4-0.3-0.2-0.6-1.3-0.5-1.1 0-1.4 0.3-0.6 0.6zm161.3 4c-2.5 3.6-2.6 4.1-0.6 1.8 2.6-3 4.9-6.5 4.2-6.5-0.2 0-1.8 2.1-3.6 4.7zm-171.6-1.2c-3.9 1.7-2.1 1.8 2.5 0 1.9-0.7 2.8-1.4 2-1.4-0.8 0-2.8 0.6-4.5 1.4zm-11.5 4c-1.9 0.7-2.8 1.4-2 1.4 0.8 0 2.9-0.6 4.5-1.4 3.9-1.7 2.1-1.8-2.5 0zm97 3.2c0.8 0.3 1.9 1.1 2.3 1.7 0.6 0.7 0.7 0.6 0.4-0.4-0.2-0.8-1.2-1.6-2.3-1.7-1.3-0.2-1.5-0.1-0.4 0.4zm76.5 1.9c-2.2 1.3-3.5 2.4-3 2.4 1.2 0 7.5-3.8 7.5-4.5 0-0.6 0.2-0.7-4.5 2.1zm-191 1.3c-2.2 1.1-3.5 1.9-3 1.9 1.4 0.1 9.3-3.6 8-3.7-0.5 0-2.8 0.8-5 1.8zm104.3-1.2c0.7 0.3 1.6 0.2 1.9-0.1 0.4-0.3-0.2-0.6-1.3-0.5-1.1 0-1.4 0.3-0.6 0.6zm-5 1c0.6 0.2 1.8 0.2 2.5 0 0.6-0.3 0.1-0.5-1.3-0.5-1.4 0-1.9 0.2-1.2 0.5zm-4 1c0.7 0.3 1.6 0.2 1.9-0.1 0.4-0.3-0.2-0.6-1.3-0.5-1.1 0-1.4 0.3-0.6 0.6zm-103.8 2.8c-1.4 0.8-2 1.4-1.5 1.4 0.6 0 2.1-0.6 3.5-1.4 1.4-0.8 2.1-1.4 1.5-1.4-0.5 0-2.1 0.6-3.5 1.4zm93.5-0.5c-2.5 1.1 0.1 1.1 3.5 0 2-0.6 2.1-0.8 0.5-0.8-1.1 0-2.9 0.3-4 0.8zm83.3-0.3c0.6 0.2 1.8 0.2 2.5 0 0.6-0.3 0.1-0.5-1.3-0.5-1.4 0-1.9 0.2-1.2 0.5zm13 0c0.7 0.3 1.6 0.2 1.9-0.1 0.4-0.3-0.2-0.6-1.3-0.5-1.1 0-1.4 0.3-0.6 0.6zm-101 2c0.7 0.3 1.6 0.2 1.9-0.1 0.4-0.3-0.2-0.6-1.3-0.5-1.1 0-1.4 0.3-0.6 0.6zm-94.8 1.3c-0.8 0.5-1 1-0.5 1 0.6 0 1.7-0.5 2.5-1 0.8-0.5 1.1-1 0.5-1-0.5 0-1.7 0.5-2.5 1zm88.5 0c-1.3 0.5-1.4 0.9-0.5 0.9 0.8 0 2.4-0.4 3.5-0.9 1.3-0.5 1.4-0.9 0.5-0.9-0.8 0-2.4 0.4-3.5 0.9zm47.4 0.6c0.6 1.1 2.5 3.5 4.2 5.4l3.1 3.5-3.3-4.8c-3.4-4.9-6-7.6-4-4.1zm102.8 3.2c-2 2.7-6.4 7-9.7 9.7-6.5 5.2-8.1 7.1-2.8 3.3 4.3-3 14.3-13.1 15.8-15.7 1.7-3.4 0.7-2.4-3.3 2.7zm-160.2-0.8c-1.3 0.5-1.4 0.9-0.5 0.9 0.8 0 2.4-0.4 3.5-0.9 1.3-0.5 1.4-0.9 0.5-0.9-0.8 0-2.4 0.4-3.5 0.9zm-93 3.4c-9.2 4.5-7.9 4.6 1.6 0.1 4.1-1.9 6.9-3.4 6.4-3.5-0.6 0-4.2 1.5-8 3.4zm77.7 1.3c-5.7 1.9-10.2 3.7-9.9 3.9 0.2 0.2 5.5-1.4 11.8-3.5 6.3-2.2 10.7-3.9 9.9-3.9-0.8 0-6.1 1.5-11.8 3.5zm-17.2 6.3c-0.8 0.5-1 1-0.5 1 0.6 0 1.7-0.5 2.5-1 0.8-0.5 1.1-1 0.5-1-0.5 0-1.7 0.5-2.5 1zm102.4-0.2c0.8 1.3 6.6 5.6 6.6 4.9 0-0.3-1.7-1.7-3.7-3.3-2-1.5-3.3-2.3-2.9-1.6zm-107.4 2.2c-0.8 0.5-1 1-0.5 1 0.6 0 1.7-0.5 2.5-1 0.8-0.5 1.1-1 0.5-1-0.5 0-1.7 0.5-2.5 1zm-5 2c-0.8 0.5-1 1-0.5 1 0.6 0 1.7-0.5 2.5-1 0.8-0.5 1.1-1 0.5-1-0.5 0-1.7 0.5-2.5 1zm-5 2c-0.8 0.5-1 1-0.5 1 0.6 0 1.7-0.5 2.5-1 0.8-0.5 1.1-1 0.5-1-0.5 0-1.7 0.5-2.5 1z"/><path d="m596 122c-3 1.6-5.1 2.9-4.7 3 1 0 10.7-4.9 10.7-5.5 0-0.7 0.1-0.7-6 2.5zm-58-1.6c0 0.3 0.9 1 2 1.6 1.1 0.6 2 0.8 2 0.6 0-0.3-0.9-1-2-1.6-1.1-0.6-2-0.8-2-0.6zm-212.2 5c-3.1 1.7-6 3.5-6.5 4-0.9 0.9 10.2-4.6 12.7-6.3 3.2-2.2-0.7-0.7-6.2 2.3zm77.2-1.9c-1.4 0.8-2 1.4-1.5 1.4 0.6 0 2.1-0.6 3.5-1.4 1.4-0.8 2.1-1.4 1.5-1.4-0.5 0-2.1 0.6-3.5 1.4zm-7 3c-1.4 0.8-2 1.4-1.5 1.4 0.6 0 2.1-0.6 3.5-1.4 1.4-0.8 2.1-1.4 1.5-1.4-0.5 0-2.1 0.6-3.5 1.4zm153.5-0.5c1.1 0.5 2.7 0.9 3.5 0.9 0.9 0 0.8-0.4-0.5-0.9-1.1-0.5-2.7-0.9-3.5-0.9-0.9 0-0.8 0.4 0.5 0.9zm36 0c-1.3 0.5-1.4 0.9-0.5 0.9 0.8 0 2.4-0.4 3.5-0.9 1.3-0.5 1.4-0.9 0.5-0.9-0.8 0-2.4 0.4-3.5 0.9zm-28.7 1.7c0.6 0.2 1.8 0.2 2.5 0 0.6-0.3 0.1-0.5-1.3-0.5-1.4 0-1.9 0.2-1.2 0.5zm22 0c0.6 0.2 1.8 0.2 2.5 0 0.6-0.3 0.1-0.5-1.3-0.5-1.4 0-1.9 0.2-1.2 0.5zm-191.8 2.8c-2.5 1.3-4 2.4-3.5 2.4 0.6 0 3-1.1 5.5-2.4 2.5-1.3 4.1-2.4 3.5-2.4-0.5 0-3 1.1-5.5 2.4zm178.3-1.8c2 0.2 5.4 0.2 7.5 0 2-0.2 0.3-0.4-3.8-0.4-4.1 0-5.8 0.2-3.7 0.4zm-249.9 2.9c-1.8 1.4-1.8 1.5 0.4 0.4 1.2-0.6 2.2-1.3 2.2-1.5 0-0.8-0.5-0.6-2.6 1.1zm-9.6 5c-3.8 2-3.6 2.8 0.2 0.9 1.7-0.9 3-1.8 3-2 0-0.7-0.1-0.6-3.2 1.1zm61 3.5c-4.3 2.1-7.8 4.1-7.8 4.4 0 0.5 15.9-7.2 16.9-8.1 1.4-1.3-2.5 0.2-9.1 3.7zm-152-1.4c2.3 0.2 5.9 0.2 8 0 2-0.2 0.1-0.4-4.3-0.4-4.4 0-6.1 0.2-3.7 0.4zm-8 1c0.7 0.3 1.6 0.2 1.9-0.1 0.4-0.3-0.2-0.6-1.3-0.5-1.1 0-1.4 0.3-0.6 0.6zm-4 1c0.7 0.3 1.6 0.2 1.9-0.1 0.4-0.3-0.2-0.6-1.3-0.5-1.1 0-1.4 0.3-0.6 0.6zm32 0c0.7 0.3 1.6 0.2 1.9-0.1 0.4-0.3-0.2-0.6-1.3-0.5-1.1 0-1.4 0.3-0.6 0.6zm62.6 0.9c-1.8 1.4-1.8 1.5 0.4 0.4 1.2-0.6 2.2-1.3 2.2-1.5 0-0.8-0.5-0.6-2.6 1.1zm-100.4 0.4c-1.8 1.2-0.2 1.2 2.5 0 1.3-0.6 1.5-0.9 0.5-0.9-0.8 0-2.2 0.4-3 0.9zm-5.6 2.6c-1.8 1.4-1.8 1.4 0.6 0.3 3.1-1.4 3.6-1.9 2.4-1.9-0.6 0-1.9 0.7-3 1.6zm93.6 4c-4.1 2.5-7.9 5.1-8.5 5.7-0.5 0.6 0.1 0.4 1.5-0.4 12.7-7.7 15-9.1 15-9.5 0-0.6-0.1-0.6-8 4.2zm-99.1-0.9c-1.3 1.7-1.3 1.7 0.6 0.3 1.1-0.8 2.2-1.6 2.4-1.7q0.3-0.3-0.6-0.3c-0.6 0-1.7 0.8-2.4 1.7zm163.9 1.4c-3.2 1.6-5.8 3.2-5.8 3.4 0 0.3 2.7-0.8 6-2.5 3.3-1.7 6-3.2 6-3.5 0-0.7 0.2-0.8-6.2 2.6zm-171.5 4.5l-4.8 4.6 4.5-3.7c6-5.1 6.5-5.5 5.8-5.5-0.3 0-2.8 2.1-5.5 4.6zm76.7-4.3c0 0.3 1.7 1.7 3.8 3.3 3 2.3 3.3 2.4 1.7 0.5-1.9-2.2-5.5-4.6-5.5-3.8zm84.8 5.3c-3.8 2-3.6 2.8 0.2 0.9 1.7-0.9 3-1.8 3-2 0-0.7-0.1-0.6-3.2 1.1zm-75.3 2.4c1 1.1 2 2 2.3 2 0.3 0-0.3-0.9-1.3-2-1-1.1-2-2-2.3-2-0.3 0 0.3 0.9 1.3 2zm4.9 1.6c-1.8 1.4-1.8 1.5 0.4 0.4 1.2-0.6 2.2-1.3 2.2-1.5 0-0.8-0.5-0.6-2.6 1.1zm62 1c-1.8 1.4-1.8 1.5 0.4 0.4 1.2-0.6 2.2-1.3 2.2-1.5 0-0.8-0.5-0.6-2.6 1.1zm-163 4.1c-1.5 2-2.3 3.3-1.6 2.9 1.3-0.8 5.6-6.6 4.9-6.6-0.3 0-1.7 1.7-3.3 3.7zm158-1.1c-1.8 1.4-1.8 1.5 0.4 0.4 1.2-0.6 2.2-1.3 2.2-1.5 0-0.8-0.5-0.6-2.6 1.1zm-5 3c-1.8 1.4-1.8 1.5 0.4 0.4 1.2-0.6 2.2-1.3 2.2-1.5 0-0.8-0.5-0.6-2.6 1.1zm-12.9 8c-10.8 7.1-15.6 10.9-6.3 5.1 12.4-7.9 18-11.8 16.6-11.7-0.2 0-4.8 3-10.3 6.6zm-102.7-3c-1.6 0.8-2.8 1.7-2.8 2 0 0.2 1.2-0.2 2.8-0.9 1.5-0.8 3.4-1.7 4.2-2 1.3-0.5 1.3-0.5 0-0.6-0.8 0-2.7 0.7-4.2 1.5zm23-0.9c0.7 0.3 1.6 0.2 1.9-0.1 0.4-0.3-0.2-0.6-1.3-0.5-1.1 0-1.4 0.3-0.6 0.6zm-68.3 6.4c-0.9 1.7-1.5 3.3-1.3 3.5 0.3 0.2 1.2-1.2 2.1-3.1 2.1-4.3 1.3-4.7-0.8-0.4zm35.2 2.9c-4.8 5.2-8.7 12.3-7.5 13.6 0.3 0.2 1-1.4 1.7-3.6 0.7-2.3 3.5-6.4 6.7-10 3.1-3.3 5.4-6 5.1-6-0.3 0-3 2.7-6 6zm43.3-4.6c0 0.2 0.8 1 1.8 1.7 1.5 1.3 1.6 1.2 0.3-0.4-1.3-1.6-2.1-2.1-2.1-1.3zm4 3c0 0.2 0.8 1 1.8 1.7 1.5 1.3 1.6 1.2 0.3-0.4-1.3-1.6-2.1-2.1-2.1-1.3zm3 4c0 0.2 0.8 1 1.8 1.7 1.5 1.3 1.6 1.2 0.3-0.4-1.3-1.6-2.1-2.1-2.1-1.3zm44.9 4.3c-1.3 1.6-1.2 1.7 0.4 0.4 0.9-0.7 1.7-1.5 1.7-1.7 0-0.8-0.8-0.3-2.1 1.3zm-41.3 0.6c0.3 1 0.9 1.5 1.2 1.2 0.3-0.3 0-1.1-0.7-1.8-1-0.9-1.1-0.8-0.5 0.6zm-93.5 2.3c0 1.1 0.3 1.4 0.6 0.6 0.3-0.7 0.2-1.6-0.1-1.9-0.3-0.4-0.6 0.2-0.5 1.3zm129.2 1l-2.8 2.5 3.3-2.2c1.7-1.3 3.2-2.4 3.2-2.6 0-0.8-1.1-0.1-3.7 2.3zm-130 9.9c0 4.4 0.2 6.1 0.4 3.7 0.2-2.3 0.2-5.9 0-8-0.2-2-0.4-0.1-0.4 4.3zm97.9-2.5c0 1.4 0.2 1.9 0.5 1.2 0.2-0.6 0.2-1.8 0-2.5-0.3-0.6-0.5-0.1-0.5 1.3zm31.1 7.5c0 4.4 0.2 6.1 0.4 3.7 0.2-2.3 0.2-5.9 0-8-0.2-2-0.4-0.1-0.4 4.3zm-31.1 1.5c0 1.9 0.2 2.7 0.5 1.7 0.2-0.9 0.2-2.5 0-3.5-0.3-0.9-0.5-0.1-0.5 1.8zm-66.1 0.6c0 1.1 0.3 1.4 0.6 0.6 0.3-0.7 0.2-1.6-0.1-1.9-0.3-0.4-0.6 0.2-0.5 1.3zm-30.9 4.4c0 1.4 0.2 1.9 0.5 1.2 0.2-0.6 0.2-1.8 0-2.5-0.3-0.6-0.5-0.1-0.5 1.3zm32.8 2.4c0 1.1 3 6.6 3.6 6.6 0.2 0-0.3-1.5-1.2-3.3-1.9-3.6-2.4-4.4-2.4-3.3zm-31.9 2.2c0 1.1 0.3 1.4 0.6 0.6 0.3-0.7 0.2-1.6-0.1-1.9-0.3-0.4-0.6 0.2-0.5 1.3zm126 0c0 1.1 0.3 1.4 0.6 0.6 0.3-0.7 0.2-1.6-0.1-1.9-0.3-0.4-0.6 0.2-0.5 1.3zm-33.5 2.1c-0.6 1.4-0.5 1.5 0.5 0.6 0.7-0.7 1-1.5 0.7-1.8-0.3-0.3-0.9 0.2-1.2 1.2zm-3.6 5.3c-1.2 1.6-1.9 3-1.6 3 0.2 0 1.4-1.4 2.6-3 1.2-1.7 1.9-3 1.6-3-0.2 0-1.4 1.3-2.6 3zm-50 1.5c1.9 1.9 3.6 3.5 3.9 3.5 0.3 0-1-1.6-2.9-3.5-1.9-1.9-3.6-3.5-3.9-3.5-0.3 0 1 1.6 2.9 3.5zm85.1-1.8c-0.1 0.6-0.4 2-0.7 3-0.5 1.7-0.5 1.7 0.6 0 0.6-1 0.9-2.3 0.6-3-0.3-0.9-0.5-0.9-0.5 0zm-121.1 1.8c0 0.5 0.5 1.7 1 2.5 0.5 0.8 1 1 1 0.5 0-0.6-0.5-1.7-1-2.5-0.5-0.8-1-1.1-1-0.5zm79.5 4.1c-1.8 1.6-2.2 2.2-0.9 1.5 1.8-0.9 5.3-4.2 4.3-4.1-0.2 0.1-1.7 1.2-3.4 2.6zm-38.5-0.2c0 0.3 0.9 1 2 1.6 1.1 0.6 2 0.8 2 0.6 0-0.3-0.9-1-2-1.6-1.1-0.6-2-0.8-2-0.6zm77.1 2.3c-1 2.6-1 2.7 0.4 0.9 0.8-1.1 1.5-2.3 1.5-2.8 0-1.5-0.7-0.8-1.9 1.9zm-124.5 5.4c-3.7 3.4-6.5 6.3-6.3 6.6 0.2 0.2 3.5-2.6 7.3-6.2 8.7-8.2 7.9-8.5-1-0.4zm79.4-4.1c-0.8 0.5-1 1-0.5 1 0.6 0 1.7-0.5 2.5-1 0.8-0.5 1.1-1 0.5-1-0.5 0-1.7 0.5-2.5 1zm-14.7 2.7c1.5 0.2 3.9 0.2 5.5 0 1.5-0.2 0.2-0.4-2.8-0.4-3 0-4.3 0.2-2.7 0.4zm54.7 4.5c-1.5 2.1-1.7 2.8-0.6 1.9 1.6-1.3 4.1-5.1 3.3-5.1-0.2 0-1.4 1.5-2.7 3.2zm-7 8.3c-2.4 2.5-4.2 4.5-3.9 4.5 0.3 0 2.5-2 4.9-4.5 2.4-2.5 4.2-4.5 3.9-4.5-0.3 0-2.5 2-4.9 4.5zm-124.5 1.7l-4 4.3 4.3-4c3.9-3.6 4.7-4.5 3.9-4.5-0.2 0-2.1 1.9-4.2 4.2zm115.4 5.6c-2 1.5-4.5 3.3-5.5 4-1.1 0.7 0 0.3 2.4-1 2.3-1.2 5-3 5.9-4 2.2-2.4 1.5-2.2-2.8 1zm-122.5 2.4l-2.9 3.3 3.3-2.9c1.7-1.7 3.2-3.1 3.2-3.3 0-0.8-0.8-0.1-3.6 2.9zm40.7 7.1c-5.2 5.8-5.5 6.3-1.7 2.7 4.2-4 9.3-10 8.4-10-0.2 0-3.2 3.3-6.7 7.3zm-46.2-0.6c-2.6 2.9-14.4 17.6-16.3 20.3-2.5 3.7 1.8-1.2 10.3-11.8 8.9-11 10.9-13.9 6-8.5zm68.1-1.7c0.8 0.5 2 1 2.5 1 0.6 0 0.3-0.5-0.5-1-0.8-0.5-1.9-1-2.5-1-0.5 0-0.3 0.5 0.5 1zm45 0.5c-1.9 0.7-2.8 1.4-2 1.4 0.8 0 2.9-0.6 4.5-1.4 3.9-1.7 2.1-1.8-2.5 0zm-40.2 1.2c0.7 0.3 1.6 0.2 1.9-0.1 0.4-0.3-0.2-0.6-1.3-0.5-1.1 0-1.4 0.3-0.6 0.6zm4 1c0.7 0.3 1.6 0.2 1.9-0.1 0.4-0.3-0.2-0.6-1.3-0.5-1.1 0-1.4 0.3-0.6 0.6zm27.2 0.3c-2 0.6-2.1 0.8-0.5 0.8 1.1 0 2.9-0.3 4-0.8 2.5-1.1-0.1-1.1-3.5 0zm-22.2 0.7c0.7 0.3 1.6 0.2 1.9-0.1 0.4-0.3-0.2-0.6-1.3-0.5-1.1 0-1.4 0.3-0.6 0.6zm7.5 1c2 0.2 5.4 0.2 7.5 0 2-0.2 0.3-0.4-3.8-0.4-4.1 0-5.8 0.2-3.7 0.4zm-58 14.5c-6.8 8.1-13.7 17.3-11.6 15.3 0.6-0.6 3.8-4.4 7.1-8.5 3.3-4.1 7.4-9.2 9.2-11.3 1.7-2 2.9-3.7 2.7-3.7-0.3 0-3.6 3.7-7.4 8.2zm-50.4 6.5c-1.3 1.6-1.2 1.7 0.4 0.4 1.6-1.3 2.1-2.1 1.3-2.1-0.2 0-1 0.8-1.7 1.7zm-4.9 6.8c-1.7 2.5-2.9 4.5-2.6 4.5 0.3 0 1.9-2 3.6-4.5 1.7-2.5 2.9-4.5 2.6-4.5-0.3 0-1.9 2-3.6 4.5zm38.9 7.7c-5 6.6-5.2 6.8-4.6 6.8 0.2 0 2.3-2.5 4.6-5.5 2.3-3 4-5.5 3.7-5.5-0.2 0-1.9 1.9-3.7 4.2zm-48.2 6.1c-3.7 5.7-6.4 10.6-5.4 9.6 0.6-0.4 6.7-9.7 9.1-13.7 0.4-0.6 0.5-1.2 0.2-1.2-0.3 0-2.1 2.4-3.9 5.3zm35 12.9c-6.3 9.9-7.4 11.7-6 10.3 1.6-1.5 12.3-18.5 11.8-18.5-0.3 0-2.9 3.7-5.8 8.2zm-42.7-0.2c-0.6 1.1-0.8 2-0.6 2 0.3 0 1-0.9 1.6-2 0.6-1.1 0.8-2 0.6-2-0.3 0-1 0.9-1.6 2zm-7.1 13.1c-2.7 5.6-4.9 10.3-4.7 10.5 0.2 0.2 2.7-4.4 5.6-10.1 2.8-5.8 5-10.5 4.7-10.5-0.3 0-2.8 4.5-5.6 10.1zm38.8 4.6c-4.2 7-7.9 14.3-7.3 14.3 0.3 0 2-2.8 3.9-6.3 1.8-3.4 4.4-7.9 5.6-10 1.3-2 2.1-3.7 1.8-3.7-0.3 0-2.1 2.6-4 5.7zm-45.2 8.4c-0.4 0.6-0.5 1.2-0.2 1.5 0.2 0.3 0.7-0.2 1-1.1 0.7-1.7 0.1-2-0.8-0.4zm-3.9 8.4c-0.9 2.6-0.7 3.2 0.5 1.2 0.6-1 0.9-2.1 0.6-2.3-0.2-0.3-0.7 0.2-1.1 1.1zm36.3 6.6c-2.2 4.5-3.9 8.3-3.7 8.5 0.2 0.2 2.3-3.5 4.6-8.1 2.3-4.7 4-8.5 3.7-8.5-0.3 0-2.3 3.6-4.6 8.1zm-39.3 1.5c-0.9 2.6-1.4 4.9-1.2 5.1 0.2 0.2 1.1-1.7 2-4.3 0.9-2.6 1.4-4.9 1.2-5.1-0.2-0.2-1.1 1.7-2 4.3zm-3.3 8.4c-1.1 1.6-1 1.8 0.2 1.4 0.8-0.4 1.5-1.2 1.5-2 0-1.9-0.3-1.8-1.7 0.6zm-7.5 1.7c0.6 0.2 1.8 0.2 2.5 0 0.6-0.3 0.1-0.5-1.3-0.5-1.4 0-1.9 0.2-1.2 0.5zm-6 1c0.6 0.2 1.8 0.2 2.5 0 0.6-0.3 0.1-0.5-1.3-0.5-1.4 0-1.9 0.2-1.2 0.5zm49.8 1c-0.6 1.4-0.5 1.5 0.5 0.6 0.7-0.7 1-1.5 0.7-1.8-0.3-0.3-0.9 0.2-1.2 1.2zm-53.8 0c0.7 0.3 1.6 0.2 1.9-0.1 0.4-0.3-0.2-0.6-1.3-0.5-1.1 0-1.4 0.3-0.6 0.6zm-5.8 1.3c-1.8 1.2-0.2 1.2 2.5 0 1.3-0.6 1.5-0.9 0.5-0.9-0.8 0-2.2 0.4-3 0.9zm-6.2 2.6c-3.9 2.1-3.5 2.8 0.5 0.8 3.7-1.9 4.4-2.4 3.1-2.4-0.5 0.1-2.1 0.8-3.6 1.6z"/><path d="m24.1 386.6c-5.7 4.2-13.1 12.7-16 18.1-2 3.9-0.6 2.5 2.7-2.5 3.9-6 8.5-11 14.2-15.2 5.6-4.2 6.6-5 5.8-5-0.3 0-3.4 2.1-6.7 4.6zm79.1 0.3c3.2 2.9 7.8 7.5 10.4 10.4 2.6 2.9 3.8 3.8 2.6 2.2-2.6-3.8-11.8-13.1-15.7-15.8-1.6-1.1-0.4 0.3 2.7 3.2zm-35.4 16.8c0.6 0.2 1.8 0.2 2.5 0 0.6-0.3 0.1-0.5-1.3-0.5-1.4 0-1.9 0.2-1.2 0.5zm51.2 1.3c0.6 1.1 1.3 2 1.6 2 0.2 0 0-0.9-0.6-2-0.6-1.1-1.3-2-1.6-2-0.2 0 0 0.9 0.6 2zm-71.2 1.6c-3.9 2.1-3.5 2.8 0.5 0.8 3.7-1.9 4.4-2.4 3.1-2.4-0.5 0.1-2.1 0.8-3.6 1.6zm31.2 0.4c3.5 2.4 5.4 3.1 3 1.1-1.4-1.1-2.9-2.1-3.5-2.1-0.5 0-0.3 0.5 0.5 1zm-39.1 5.7l-3.4 3.8 3.8-3.4c3.4-3.3 4.2-4.1 3.4-4.1-0.2 0-1.9 1.7-3.8 3.7zm-36-0.1c-0.5 1.5-0.8 2.9-0.5 3.1 0.2 0.2 0.8-1 1.4-2.6 1.3-3.8 0.5-4.1-0.9-0.5zm118.2-2.1c0 0.5 0.6 2.1 1.4 3.5 0.8 1.4 1.4 2 1.4 1.5 0-0.6-0.6-2.1-1.4-3.5-0.8-1.4-1.4-2.1-1.4-1.5zm-33.1 4.9c0 0.2 0.8 1 1.8 1.7 1.5 1.3 1.6 1.2 0.3-0.4-1.3-1.6-2.1-2.1-2.1-1.3zm-87.5 4.6c-0.4 1.7-0.5 3.4-0.2 3.6 0.2 0.3 0.7-1 1.1-2.7 0.3-1.8 0.4-3.4 0.2-3.6-0.2-0.3-0.7 1-1.1 2.7zm33.5-1.5c-0.7 0.9-1.1 1.7-0.9 2 0.3 0.2 1-0.5 1.7-1.5 1.4-2.4 1-2.6-0.8-0.5zm90.1-0.5c0 0.8 0.4 2.4 0.9 3.5 0.5 1.3 0.9 1.4 0.9 0.5 0-0.8-0.4-2.4-0.9-3.5-0.5-1.3-0.9-1.4-0.9-0.5zm-31.3 5c0.9 2.1 1.8 3.5 2 3 0.3-0.9-2.5-7-3.3-7-0.2 0 0.4 1.8 1.3 4zm-61.2 0.5c-0.3 0.9-0.6 2.2-0.5 2.8 0 0.7 0.5 0.1 1-1.2 0.5-1.3 0.8-2.6 0.5-2.8-0.2-0.2-0.6 0.3-1 1.2zm-32.4 4.5c0 1.9 0.2 2.7 0.5 1.7 0.2-0.9 0.2-2.5 0-3.5-0.3-0.9-0.5-0.1-0.5 1.8zm127 0c0 1.9 0.2 2.7 0.5 1.7 0.2-0.9 0.2-2.5 0-3.5-0.3-0.9-0.5-0.1-0.5 1.8zm-31.1 2.6c0 1.1 0.3 1.4 0.6 0.6 0.3-0.7 0.2-1.6-0.1-1.9-0.3-0.4-0.6 0.2-0.5 1.3zm-65.9 5.9c0 1.6 0.2 2.2 0.5 1.2 0.2-0.9 0.2-2.3 0-3-0.3-0.6-0.5 0.1-0.5 1.8zm-30 5.5c0 1.9 0.2 2.7 0.5 1.7 0.2-0.9 0.2-2.5 0-3.5-0.3-0.9-0.5-0.1-0.5 1.8zm96 0c0 1.4 0.2 1.9 0.5 1.2 0.2-0.6 0.2-1.8 0-2.5-0.3-0.6-0.5-0.1-0.5 1.3zm31 2c0 1.9 0.2 2.7 0.5 1.7 0.2-0.9 0.2-2.5 0-3.5-0.3-0.9-0.5-0.1-0.5 1.8zm-126 4.5c0 1.1 0.3 2.9 0.8 4 1.1 2.5 1.1-0.1 0-3.5-0.6-2-0.8-2.1-0.8-0.5zm31.8-1.2c0 3 8.4 13.8 12.4 15.9 1.2 0.6 0.2-0.6-2.2-2.7-2.4-2.1-5.6-6-7.2-8.9-1.7-2.8-3-4.7-3-4.3zm61 1.4c0 0.6-1.2 2.8-2.6 4.9-1.5 2.1-1.9 3.2-1 2.4 2.1-1.7 4.9-7 4.2-7.8-0.3-0.3-0.6-0.1-0.6 0.5zm32.1 0.9c0 1.1 0.3 1.4 0.6 0.6 0.3-0.7 0.2-1.6-0.1-1.9-0.3-0.4-0.6 0.2-0.5 1.3zm-1 4c0 1.1 0.3 1.4 0.6 0.6 0.3-0.7 0.2-1.6-0.1-1.9-0.3-0.4-0.6 0.2-0.5 1.3zm-122.1 1.9c0 0.5 0.5 1.7 1 2.5 0.5 0.8 1 1 1 0.5 0-0.6-0.5-1.7-1-2.5-0.5-0.8-1-1.1-1-0.5zm81.6 5.5c-4.7 3.6-5.7 4.6-3.1 3.2 2.3-1.3 8.3-6.1 7.5-6.1-0.3 0-2.2 1.3-4.4 2.9zm-79.6-0.4c0 0.6 0.7 1.9 1.6 3 1.4 1.8 1.4 1.8 0.3-0.6-1.4-3.1-1.9-3.6-1.9-2.4zm4 7.4c0.6 1.1 1.3 2 1.6 2 0.2 0 0-0.9-0.6-2-0.6-1.1-1.3-2-1.6-2-0.2 0 0 0.9 0.6 2zm62.8-0.3c0.7 0.3 1.6 0.2 1.9-0.1 0.4-0.3-0.2-0.6-1.3-0.5-1.1 0-1.4 0.3-0.6 0.6zm-9.5 1c1.5 0.2 3.9 0.2 5.5 0 1.5-0.2 0.2-0.4-2.8-0.4-3 0-4.3 0.2-2.7 0.4zm-49.5 4.9c2.6 3.8 12.5 13 15.6 14.5 1.1 0.6 0.5-0.2-1.4-1.7-1.9-1.5-6.4-5.7-10-9.3-3.5-3.6-5.4-5.2-4.2-3.5zm99.1 3.1l-3.4 3.8 3.8-3.4c3.4-3.3 4.2-4.1 3.4-4.1-0.2 0-1.9 1.7-3.8 3.7zm-8.4 7.9c-3 2.7-3.2 3.1-0.9 1.6 2.8-1.9 6.2-5.3 5.3-5.2-0.2 0.1-2.2 1.7-4.4 3.6zm-67.5 7.9c1.4 0.8 3 1.4 3.5 1.4 0.6 0-0.1-0.6-1.5-1.4-1.4-0.8-2.9-1.4-3.5-1.4-0.5 0 0.1 0.6 1.5 1.4zm55 0c-1.4 0.8-2 1.4-1.4 1.5 0.5 0 1.9-0.7 3-1.5 2.4-1.8 1.6-1.9-1.6 0zm-47 3.5c0.8 0.5 2.2 0.9 3 0.9 1 0 0.8-0.3-0.5-0.9-2.7-1.2-4.3-1.2-2.5 0zm5.8 1.7c0.7 0.3 1.6 0.2 1.9-0.1 0.4-0.3-0.2-0.6-1.3-0.5-1.1 0-1.4 0.3-0.6 0.6zm28 0c0.7 0.3 1.6 0.2 1.9-0.1 0.4-0.3-0.2-0.6-1.3-0.5-1.1 0-1.4 0.3-0.6 0.6zm-24 1c0.6 0.2 1.8 0.2 2.5 0 0.6-0.3 0.1-0.5-1.3-0.5-1.4 0-1.9 0.2-1.2 0.5zm18 0c0.6 0.2 1.8 0.2 2.5 0 0.6-0.3 0.1-0.5-1.3-0.5-1.4 0-1.9 0.2-1.2 0.5z"/><path d="m562.8 1.7c0.7 0.3 1.6 0.2 1.9-0.1 0.4-0.3-0.2-0.6-1.3-0.5-1.1 0-1.4 0.3-0.6 0.6zm69.4 60.3c0 1.9 0.2 2.7 0.5 1.7 0.2-0.9 0.2-2.5 0-3.5-0.3-0.9-0.5-0.1-0.5 1.8zm-378 140c0 1.4 0.2 1.9 0.5 1.2 0.2-0.6 0.2-1.8 0-2.5-0.3-0.6-0.5-0.1-0.5 1.3zm-189.9 296.7c0.9 0.2 2.3 0.2 3 0 0.6-0.3-0.1-0.5-1.8-0.5-1.6 0-2.2 0.2-1.2 0.5z" fill="rgb(128, 128, 128)"/><path d="m567.3 1.7c1.5 0.2 3.7 0.2 5 0 1.2-0.2 0-0.4-2.8-0.4-2.7 0-3.8 0.2-2.2 0.4zm64.9 65.3c0 1.4 0.2 1.9 0.5 1.2 0.2-0.6 0.2-1.8 0-2.5-0.3-0.6-0.5-0.1-0.5 1.3zm-349.1 130.6c0 1.1 0.3 1.4 0.6 0.6 0.3-0.7 0.2-1.6-0.1-1.9-0.3-0.4-0.6 0.2-0.5 1.3zm-16.2 48.1c-1.3 1.6-1.2 1.7 0.4 0.4 1.6-1.3 2.1-2.1 1.3-2.1-0.2 0-1 0.8-1.7 1.7zm-124.5 3.5l-1.9 2.3 2.3-1.9c2.1-1.8 2.7-2.6 1.9-2.6-0.2 0-1.2 1-2.3 2.2zm74.4 16.5c0.7 0.3 1.6 0.2 1.9-0.1 0.4-0.3-0.2-0.6-1.3-0.5-1.1 0-1.4 0.3-0.6 0.6zm10 0c0.7 0.3 1.6 0.2 1.9-0.1 0.4-0.3-0.2-0.6-1.3-0.5-1.1 0-1.4 0.3-0.6 0.6z" fill="rgb(170, 170, 170)"/><path d="m553.8 3.6c-16.5 4-31.1 15.7-40.1 32.4-4.4 8.2-5.7 12.3-6.5 20.8l-0.7 6.7-15 3.1c-37 7.8-84.1 22.5-113 35.4-2.2 1-8.3 3.7-13.5 6-27.8 12.4-61.8 30.6-86.3 46.2l-10.7 6.9-6.9-5.8c-12.7-10.7-26.1-15.7-41.6-15.7-11.3 0.1-18.3 1.6-26.7 5.8-18.4 9.2-31.4 25.8-35.5 45.1-1.9 9.1-1 18.1 3 30.3 3 9.1 3 9.5 1.1 10.4-1 0.6-5.6 4.9-10.2 9.6-10.5 10.8-21.5 23.4-35.5 41.2-2.2 2.8-11.3 15.5-15.3 21.5-11.1 16.4-26.4 46-32 62.2l-2.9 8.1-7 0.7c-13.4 1.4-24 5.6-34.1 13.6-14.6 11.5-23.3 29.3-23.4 47.3 0 8.3 3.6 22.5 7.1 28 1.6 2.6 2.9 5.1 2.9 5.7 0 0.6 3.7 4.8 8.3 9.3 6.6 6.7 10 9.2 16.8 12.4 10.9 5.3 18.4 7.2 28.4 7.2 28.8 0 55.2-21.3 61.2-49.5 3.1-14.7-0.1-32.4-8.5-45.5-3.4-5.4-16.5-19-18.3-19-2.5 0-0.1-6.6 8.4-23.2 18.4-36.1 42.3-70.1 69.9-99.7l6.8-7.3 7.9 4.1c11 5.7 19 7.4 32.6 6.8 18-0.7 28.6-5.5 42-19.1 5.1-5.1 8.1-9.2 10.7-14.6 4.8-10.2 6.2-16.5 6.2-29.9l0.1-11.5 14-9.3c54.4-36.5 114-64.6 170.6-80.7 12.3-3.5 40.9-10.6 42.6-10.6 0.4 0 1.7 2.1 2.7 4.6 4.2 10.2 17.4 22.6 30.6 28.7 12.4 5.7 30.4 6.6 44.3 2.3 14.8-4.7 29.3-17.2 36.5-31.6 2.3-4.7 4.9-11.2 5.7-14.5 2-7.7 1.9-21.1-0.1-28.9-4.3-16.7-17.7-33.2-33.7-41.3-11.6-5.8-30-7.9-42.9-4.7zm26.7 28c14.7 4.5 24.6 19.4 23.2 35-0.9 8.8-3.6 14.4-10.4 21.3-7.9 7.8-14.8 10.5-25.4 9.8-13.3-0.9-23.6-7.5-29.7-19.2-2.3-4.4-2.6-6.2-2.7-15 0-11.4 1.4-15.2 8.8-23.2 9.3-10.1 21.7-13.1 36.2-8.7zm-347.1 138.4c7.7 3.7 16.2 12.2 18.5 18.6 3.4 9.1 3.7 15.3 1.1 23.5-4.6 14.3-16.9 23.2-32 23.3-6.6 0-8.4-0.5-15.2-3.7-8.5-4.1-13.1-8.8-17-17.3-3.3-7.2-3.3-20 0.2-26.9 4.4-9 13-16.7 22-19.6 4.8-1.6 17.3-0.4 22.4 2.1zm-155.2 235.3c6.8 3.1 13.4 9.7 16.7 16.7 2.2 4.6 2.6 6.9 2.5 14 0 10.5-2.5 16.7-9.2 23.3-7.3 7.1-12.2 9.1-22.4 9.5-8 0.4-9.3 0.1-15.1-2.6-8.7-4-13.1-8.2-16.9-16-3-6-3.3-7.5-3.2-15.2 0-6.4 0.5-9.6 2.1-13.1 2.2-4.7 8.9-12.3 13.4-15.1 8.5-5.3 22.5-6 32.1-1.5z" fill="rgb(255, 255, 255)"/><path d="m567.8 29.7c0.6 0.2 1.8 0.2 2.5 0 0.6-0.3 0.1-0.5-1.3-0.5-1.4 0-1.9 0.2-1.2 0.5zm-61.6 31.3c0 1.4 0.2 1.9 0.5 1.2 0.2-0.6 0.2-1.8 0-2.5-0.3-0.6-0.5-0.1-0.5 1.3zm65.6 66.7c0.7 0.3 1.6 0.2 1.9-0.1 0.4-0.3-0.2-0.6-1.3-0.5-1.1 0-1.4 0.3-0.6 0.6zm-288.6 73.3c0 1.4 0.2 1.9 0.5 1.2 0.2-0.6 0.2-1.8 0-2.5-0.3-0.6-0.5-0.1-0.5 1.3zm-63.9 34.7c0.9 0.2 2.5 0.2 3.5 0 0.9-0.3 0.1-0.5-1.8-0.5-1.9 0-2.7 0.2-1.7 0.5zm1.5 30c1.2 0.2 3 0.2 4 0 0.9-0.3-0.1-0.5-2.3-0.4-2.2 0-3 0.2-1.7 0.4zm-164 109c0.7 0.3 1.6 0.2 1.9-0.1 0.4-0.3-0.2-0.6-1.3-0.5-1.1 0-1.4 0.3-0.6 0.6z" fill="rgb(212, 212, 212)"/></svg>