<svg xmlns="http://www.w3.org/2000/svg" viewBox="0 0 767 622" width="32" height="32"><path d="m63.1 1.7c-0.6 1.1-0.8 87.7-0.7 231.3 0.1 126.2 0 230.5-0.2 231.6-0.3 1.7-1.7 2.6-6.5 3.9-19.3 5.3-39.1 22.8-48.2 42.6-8.7 19.3-8.7 45 0.1 63.8 10.3 22 29.5 38.2 52.3 44.3 9.9 2.6 29.5 2.8 39.5 0.4 9.4-2.2 23.7-9.4 31.6-15.9 17.7-14.4 26.7-32.7 27.7-56.8 0.7-14.9-1-24.2-6.3-35.7-9.2-20.2-24.7-34.3-45.9-42.2l-7-2.6-0.5-232.9-0.5-233-17.2-0.3c-15.6-0.2-17.3-0.1-18.2 1.5zm33.9 234.1v232.8l4.8 1.2c2.6 0.7 8.5 3.2 13.2 5.4 7.1 3.5 10.2 5.9 18.5 14.2 7.9 7.9 11 11.8 14.2 18.2 6.3 12.1 8.6 21.6 8.6 35.4 0.1 14.2-1.7 22.1-8 35-3.9 8-5.9 10.8-13.7 18.6-8.1 8-10.5 9.8-19.6 14.2-12.1 5.9-21.9 8.2-34.5 8.2-20.9 0-38-6.8-53.1-21.3-26.6-25.2-31.8-61.8-13.3-93.5 1.9-3.1 7.5-9.8 12.5-14.8 7.6-7.5 10.6-9.8 18.5-13.7 5.2-2.6 11.8-5.1 14.7-5.8l5.2-1.1v-465.8h32z"/><path d="m67 499.9c-7 2.2-9.3 3.4-15.8 8.3-6.5 4.8-12.5 13.8-15.2 22.6-10 32.3 20.4 64.3 54.2 57.1 13.5-2.9 26.1-12.9 32.1-25.6 3.1-6.5 3.2-7.3 3.2-18.9 0-11.9 0-12.1-3.8-19.6-6-12.2-16.6-20.8-30-24.4-7.1-1.9-18-1.7-24.7 0.5zm23 1.7c23.3 5.5 37.8 28.1 32.6 50.8-4.2 17.7-17.1 30.1-35.2 33.6-17.9 3.5-38.5-7.5-46.8-24.9-2.9-6.2-3.1-7.3-3.1-17.7 0-10.9 0.1-11.2 3.9-18.8 6.2-12.2 16.6-20.4 29.6-23.2 7.5-1.7 11.4-1.6 19 0.2zm588.5-435.7c-17.9 5.1-33.1 17.6-42.5 34.7-5.5 9.9-8.1 20.4-8.2 32.9-0.1 12.6 1.8 20.1 7.9 32.5 7.4 14.7 19.9 26.2 36.2 33.1 3.6 1.6 7.6 2.9 8.8 2.9h2.3l0.2 209.7 0.3 209.8h31l0.3-209.7 0.2-209.8 2.8-0.6c5.2-1.3 14.8-6.5 21.7-11.7 26.3-19.8 35-56.1 20.6-86-8.8-18.3-24.3-31.4-44.5-37.6-8.9-2.7-28-2.9-37.1-0.2zm39.3 3.5c20 7 36.4 23.4 43.3 43.4 5.6 16.4 4.4 34.4-3.7 51.1-3.7 7.9-5.8 10.7-12.7 17.5-8.8 8.7-18.1 14.8-26.4 17.2l-5.3 1.5v419.9h-28v-419.8l-5-1.1c-6.1-1.3-15.6-6-22.5-11.1-16.5-12.2-27.4-33.7-27.5-54.1-0.1-30.5 22.9-59.8 52.1-66.4 9.8-2.2 26.4-1.4 35.7 1.9z"/><path d="m689.9 94c-7.2 1.3-13.4 4.4-19 9.6-9.6 9.1-13.4 18.6-12.7 32.4 0.7 15.5 8.6 27.3 22.7 34.3 6 2.9 7.3 3.2 16.1 3.2 8.5-0.1 10.2-0.4 16.2-3.2 9.3-4.3 15.8-10.7 19.6-19.1 9.5-20.5 1.2-43.8-19.1-53.7-7.9-3.8-15.8-5-23.8-3.5zm22.7 5.5c16.3 8 24.8 27.1 19.9 45-4.8 18-23 29.7-41 26.4-13-2.3-22-9.3-27.8-21.7-2.9-6-3.2-7.6-3.2-15.7 0.1-7.9 0.4-9.8 3.1-15.5 3.7-7.8 7.1-12 13.1-16.2 6.3-4.3 12.3-5.8 21.9-5.5 6.5 0.3 9.3 0.9 14 3.2zm-148.9 161.3c-0.3 0.4-0.7 10.4-0.8 22.2l-0.3 21.5-218.9 0.5c-193 0.4-218.9 0.7-219.7 2-1.3 2.1-1.3 33.6 0 36.1 1.1 1.9 4.6 1.9 219.5 1.9h218.5l0.2 23.7c0.3 20.2 0.5 23.8 1.8 24.1 0.8 0.1 4.9-2.2 9-5.1 22.1-15.7 74.5-52 82.3-57 3.4-2.2 4.7-3.6 4.5-5-0.3-1.8-10.4-8.9-75.9-53.1-10.3-6.9-18.9-12.6-19.2-12.6-0.3 0-0.8 0.3-1 0.8zm64.6 44.9c15.8 10.7 28.7 19.7 28.7 20.1 0 0.4-10 7.6-22.2 16-12.3 8.4-25.7 17.7-29.8 20.6-4.1 2.9-14.9 10.5-24 16.8l-16.5 11.5-0.3-23.9-0.2-23.8h-217.4c-119.6 0-218.1-0.3-219-0.6-1.4-0.5-1.6-3-1.6-17.5v-16.9h439v-45.1l17.3 11.7c9.4 6.5 30.1 20.5 46 31.1z"/><path d="m62.2 46c0 1.4 0.2 1.9 0.5 1.2 0.2-0.6 0.2-1.8 0-2.5-0.3-0.6-0.5-0.1-0.5 1.3zm632.1 17.7c1.5 0.2 3.7 0.2 5 0 1.2-0.2 0-0.4-2.8-0.4-2.7 0-3.8 0.2-2.2 0.4zm-44.4 18c-1.3 1.6-1.2 1.7 0.4 0.4 1.6-1.3 2.1-2.1 1.3-2.1-0.2 0-1 0.8-1.7 1.7zm-587.6 20.3c0 2.5 0.2 3.5 0.4 2.2 0.2-1.2 0.2-3.2 0-4.5-0.2-1.2-0.4-0.2-0.4 2.3zm594.9 32.5c0 1.6 0.2 2.2 0.5 1.2 0.2-0.9 0.2-2.3 0-3-0.3-0.6-0.5 0.1-0.5 1.8zm-594.9 23.5c0 2.5 0.2 3.5 0.4 2.2 0.2-1.2 0.2-3.2 0-4.5-0.2-1.2-0.4-0.2-0.4 2.3zm634 13.7c0.9 0.2 2.3 0.2 3 0 0.6-0.3-0.1-0.5-1.8-0.5-1.6 0-2.2 0.2-1.2 0.5zm-634.2 9.9c0 1.1 0.3 1.4 0.6 0.6 0.3-0.7 0.2-1.6-0.1-1.9-0.3-0.4-0.6 0.2-0.5 1.3zm0.1 10.4c0 1.4 0.2 1.9 0.5 1.2 0.2-0.6 0.2-1.8 0-2.5-0.3-0.6-0.5-0.1-0.5 1.3zm650.3 218c0 114.7 0.1 161.6 0.2 104.2 0.2-57.3 0.2-151.1 0-208.5-0.1-57.3-0.2-10.4-0.2 104.3zm-650.3-156.5c0 1.6 0.2 2.2 0.5 1.2 0.2-0.9 0.2-2.3 0-3-0.3-0.6-0.5 0.1-0.5 1.8zm0 26.5c0 1.4 0.2 1.9 0.5 1.2 0.2-0.6 0.2-1.8 0-2.5-0.3-0.6-0.5-0.1-0.5 1.3zm500.2 9.5c0 4.9 0.1 7.1 0.3 4.8 0.2-2.3 0.2-6.4 0-9-0.2-2.6-0.3-0.8-0.3 4.2zm-500.3 66.1c0 1.1 0.3 1.4 0.6 0.6 0.3-0.7 0.2-1.6-0.1-1.9-0.3-0.4-0.6 0.2-0.5 1.3zm0.2 7.9c0 3.3 0.2 4.5 0.4 2.7 0.2-1.8 0.2-4.5 0-6-0.2-1.5-0.4 0-0.4 3.3zm-0.2 16.1c0 1.1 0.3 1.4 0.6 0.6 0.3-0.7 0.2-1.6-0.1-1.9-0.3-0.4-0.6 0.2-0.5 1.3zm0.2 57.9c0 2.7 0.2 3.8 0.4 2.2 0.2-1.5 0.2-3.7 0-5-0.2-1.2-0.4 0-0.4 2.8zm-0.2 11.1c0 1.1 0.3 1.4 0.6 0.6 0.3-0.7 0.2-1.6-0.1-1.9-0.3-0.4-0.6 0.2-0.5 1.3zm0.1 5.4c0 1.4 0.2 1.9 0.5 1.2 0.2-0.6 0.2-1.8 0-2.5-0.3-0.6-0.5-0.1-0.5 1.3zm37 9.5c0 1.6 0.2 2.2 0.5 1.2 0.2-0.9 0.2-2.3 0-3-0.3-0.6-0.5 0.1-0.5 1.8zm27 80.5c0 1.4 0.2 1.9 0.5 1.2 0.2-0.6 0.2-1.8 0-2.5-0.3-0.6-0.5-0.1-0.5 1.3zm29.9 4.6c0 1.1 0.3 1.4 0.6 0.6 0.3-0.7 0.2-1.6-0.1-1.9-0.3-0.4-0.6 0.2-0.5 1.3zm-82.3 73.1c0.7 0.3 1.6 0.2 1.9-0.1 0.4-0.3-0.2-0.6-1.3-0.5-1.1 0-1.4 0.3-0.6 0.6z" fill="rgb(85, 85, 85)"/><path d="m65 236c0 185.6-0.3 233.1-1.2 233.4-21.3 6.3-32.9 13.6-44 27.6-4.2 5.3-10.4 16.4-11.9 21.2-4.5 14.6-5.2 30.3-1.9 43.3 6.7 26.3 28 47.7 54.5 54.6 11.4 3 29.2 3 39.6 0.1 28.1-7.9 47.5-27.9 54-55.7 1.8-8.2 2.1-11.4 1.6-21.3-0.8-16.6-4.5-27-14.2-40.7-9.7-13.7-26.7-25.3-42.6-29l-2.7-0.7 0.2-232.6 0.1-232.7-15.7-0.3-15.8-0.3zm28.7 263.5c7 2.1 16.9 8.2 21.2 13.2 20.6 23.3 13.5 58.1-14.6 72-6.9 3.4-8.5 3.8-17.3 4.1-10.7 0.5-18.3-1.1-25.5-5.4-23-13.4-30.4-41.1-17.1-63.8 5.8-9.8 20.2-19.6 31.7-21.5 6.2-1 15.5-0.4 21.6 1.4zm590.2-432c-34 7.7-57.1 40.2-52.9 74.3 2.8 22.2 16 41.1 36 51.6 3.7 2 9.2 4.2 12.1 5l5.4 1.3 0.3 209.6 0.2 209.6 3.3 0.5c1.7 0.3 7.8 0.4 13.4 0.4l10.3-0.1 0.2-209.9 0.3-209.9 6.6-2.2c19.1-6.5 34.8-22.3 41.3-41.7 3.7-11 4.6-26 2.2-36.5-5.3-22.4-23.2-42.1-45-49.6-10.4-3.6-24.1-4.6-33.7-2.4zm29.2 29.2c8.2 3.9 15.9 11.6 20 19.9 6.6 13.3 4.7 31.1-4.3 42.1-5.4 6.5-8.2 8.7-15.5 12.1-5.2 2.4-7 2.7-16.3 2.7-9.3 0-11.2-0.3-16.2-2.7-18.3-8.6-28-30.4-21.7-49 3.9-11.8 11.3-20.6 20.7-25 6.6-3 10.6-3.7 19.3-3.4 6 0.2 8.9 0.9 14 3.3z" fill="rgb(255, 255, 255)"/><path d="m565.8 264.3c-0.1 0.1-0.4 10.1-0.8 22.2l-0.5 22-219.3 0.3-219.2 0.2 0.2 16.3 0.3 16.2 219.3 0.3 219.2 0.2v23.5c0 12.9 0.3 23.5 0.6 23.5 0.3 0 11-7.3 23.7-16.2 12.8-8.9 32.2-22.3 43.2-29.9 25.3-17.4 24-16.4 23.2-17.6-0.4-0.6-13.2-9.4-28.4-19.7-15.3-10.3-35.3-23.9-44.5-30.1-9.3-6.3-16.9-11.3-17-11.2z" fill="rgb(255, 255, 255)"/><path d="m96.4 15.5c0 4.9 0.1 7.1 0.3 4.8 0.2-2.3 0.2-6.4 0-9-0.2-2.6-0.3-0.8-0.3 4.2zm-0.1 62.5c0 2.5 0.2 3.5 0.4 2.2 0.2-1.2 0.2-3.2 0-4.5-0.2-1.2-0.4-0.2-0.4 2.3zm533.8 60.6c0 1.1 0.3 1.4 0.6 0.6 0.3-0.7 0.2-1.6-0.1-1.9-0.3-0.4-0.6 0.2-0.5 1.3zm-500.3 170.1c1.2 0.2 3 0.2 4 0 0.9-0.3-0.1-0.5-2.3-0.4-2.2 0-3 0.2-1.7 0.4zm113 0c58.9 0.2 155.5 0.2 214.5 0 58.9-0.1 10.7-0.2-107.3-0.2-118 0-166.2 0.1-107.2 0.2zm412.8 16.6c0.3 1 0.9 1.5 1.2 1.2 0.3-0.3 0-1.1-0.7-1.8-1-0.9-1.1-0.8-0.5 0.6zm-559.3 9.7c0 3 0.2 4.3 0.4 2.7 0.2-1.5 0.2-3.9 0-5.5-0.2-1.5-0.4-0.2-0.4 2.8zm-0.1 8c0 1.4 0.2 1.9 0.5 1.2 0.2-0.6 0.2-1.8 0-2.5-0.3-0.6-0.5-0.1-0.5 1.3zm468.2 12.5c0 5.5 0.1 7.6 0.3 4.7 0.2-2.9 0.2-7.4 0-10-0.2-2.6-0.3-0.2-0.3 5.3zm-468.2-4.5c0 1.4 0.2 1.9 0.5 1.2 0.2-0.6 0.2-1.8 0-2.5-0.3-0.6-0.5-0.1-0.5 1.3zm0.1 10.5c0 4.4 0.2 6.1 0.4 3.7 0.2-2.3 0.2-5.9 0-8-0.2-2-0.4-0.1-0.4 4.3zm467.8 6.1c0 1.1 0.3 1.4 0.6 0.6 0.3-0.7 0.2-1.6-0.1-1.9-0.3-0.4-0.6 0.2-0.5 1.3zm-468 4c0 1.1 0.3 1.4 0.6 0.6 0.3-0.7 0.2-1.6-0.1-1.9-0.3-0.4-0.6 0.2-0.5 1.3zm468.3 8.4c0 5.8 0.1 8.1 0.3 5.2 0.2-2.8 0.2-7.6 0-10.5-0.2-2.8-0.3-0.5-0.3 5.3zm-468.3-4.4c0 1.1 0.3 1.4 0.6 0.6 0.3-0.7 0.2-1.6-0.1-1.9-0.3-0.4-0.6 0.2-0.5 1.3zm0.2 9.9c0 4.4 0.2 6.1 0.4 3.7 0.2-2.3 0.2-5.9 0-8-0.2-2-0.4-0.1-0.4 4.3zm0 17c0 3.8 0.2 5.3 0.4 3.2 0.2-2 0.2-5.2 0-7-0.2-1.7-0.4-0.1-0.4 3.8zm-0.1 12c0 1.6 0.2 2.2 0.5 1.2 0.2-0.9 0.2-2.3 0-3-0.3-0.6-0.5 0.1-0.5 1.8zm0.2 20.5c0 5.2 0.1 7.4 0.3 4.7 0.2-2.6 0.2-6.8 0-9.5-0.2-2.6-0.3-0.4-0.3 4.8zm-0.3 12.6c0 1.1 0.3 1.4 0.6 0.6 0.3-0.7 0.2-1.6-0.1-1.9-0.3-0.4-0.6 0.2-0.5 1.3zm0.1 5.4c0 1.9 0.2 2.7 0.5 1.7 0.2-0.9 0.2-2.5 0-3.5-0.3-0.9-0.5-0.1-0.5 1.8zm0.1 8c0 2.5 0.2 3.5 0.4 2.2 0.2-1.2 0.2-3.2 0-4.5-0.2-1.2-0.4-0.2-0.4 2.3zm-18.5 36.7c0.6 0.2 1.8 0.2 2.5 0 0.6-0.3 0.1-0.5-1.3-0.5-1.4 0-1.9 0.2-1.2 0.5zm35.1 78c-1.3 1.6-1.2 1.7 0.4 0.4 0.9-0.7 1.7-1.5 1.7-1.7 0-0.8-0.8-0.3-2.1 1.3z" fill="rgb(212, 212, 212)"/><path d="m62.1 382.6c0 1.1 0.3 1.4 0.6 0.6 0.3-0.7 0.2-1.6-0.1-1.9-0.3-0.4-0.6 0.2-0.5 1.3z" fill="rgb(0, 85, 85)"/><path d="m764.2 135c0 1.4 0.2 1.9 0.5 1.2 0.2-0.6 0.2-1.8 0-2.5-0.3-0.6-0.5-0.1-0.5 1.3zm-51.7 65.1c-1.1 1.6-0.1 1.9 1.3 0.3 0.7-0.8 0.8-1.4 0.3-1.4-0.5 0-1.3 0.5-1.6 1.1zm-600 310.9c1 1.1 2 2 2.3 2 0.3 0-0.3-0.9-1.3-2-1-1.1-2-2-2.3-2-0.3 0 0.3 0.9 1.3 2zm43.7 32c0 1.9 0.2 2.7 0.5 1.7 0.2-0.9 0.2-2.5 0-3.5-0.3-0.9-0.5-0.1-0.5 1.8zm-153 1.5c0 1.6 0.2 2.2 0.5 1.2 0.2-0.9 0.2-2.3 0-3-0.3-0.6-0.5 0.1-0.5 1.8z" fill="rgb(170, 170, 170)"/><path d="m139.8 342.7c0.6 0.2 1.8 0.2 2.5 0 0.6-0.3 0.1-0.5-1.3-0.5-1.4 0-1.9 0.2-1.2 0.5zm8 0c2.3 0.2 5.9 0.2 8 0 2-0.2 0.1-0.4-4.3-0.4-4.4 0-6.1 0.2-3.7 0.4zm24.5 0c7 0.2 18.4 0.2 25.5 0 7-0.1 1.2-0.3-12.8-0.3-14 0-19.8 0.2-12.7 0.3zm46.5 0c4.6 0.2 11.8 0.2 16 0 4.2-0.1 0.5-0.3-8.3-0.3-8.8 0-12.3 0.2-7.7 0.3zm30 0c3.4 0.2 8.8 0.2 12 0 3.1-0.2 0.3-0.3-6.3-0.3-6.6 0-9.2 0.1-5.7 0.3zm63 0c25 0.2 65.5 0.2 90 0 24.6-0.1 4.2-0.2-45.3-0.2-49.5 0-69.6 0.1-44.7 0.2zm143.5 0c4.8 0.2 12.5 0.2 17 0 4.5-0.1 0.6-0.3-8.8-0.3-9.3 0-13 0.2-8.2 0.3zm27.5 0c0.6 0.2 1.8 0.2 2.5 0 0.6-0.3 0.1-0.5-1.3-0.5-1.4 0-1.9 0.2-1.2 0.5zm14 0c5.7 0.2 14.7 0.2 20 0 5.3-0.1 0.7-0.3-10.3-0.3-11 0-15.4 0.2-9.7 0.3zm38.4 0c4.8 0.2 12.9 0.2 18 0 5.1-0.1 1.2-0.3-8.7-0.3-9.9 0-14.1 0.2-9.3 0.3zm-376.1 198.9c0 1.1 0.3 1.4 0.6 0.6 0.3-0.7 0.2-1.6-0.1-1.9-0.3-0.4-0.6 0.2-0.5 1.3z" fill="rgb(128, 128, 128)"/><path d="m62.1 80.6c0 1.1 0.3 1.4 0.6 0.6 0.3-0.7 0.2-1.6-0.1-1.9-0.3-0.4-0.6 0.2-0.5 1.3zm0 141c0 1.1 0.3 1.4 0.6 0.6 0.3-0.7 0.2-1.6-0.1-1.9-0.3-0.4-0.6 0.2-0.5 1.3zm0 155c0 1.1 0.3 1.4 0.6 0.6 0.3-0.7 0.2-1.6-0.1-1.9-0.3-0.4-0.6 0.2-0.5 1.3zm0 32c0 1.1 0.3 1.4 0.6 0.6 0.3-0.7 0.2-1.6-0.1-1.9-0.3-0.4-0.6 0.2-0.5 1.3z" fill="rgb(0, 85, 0)"/></svg>