<svg xmlns="http://www.w3.org/2000/svg" viewBox="0 0 2816 2816"><g stroke-width="0"><path d="M1739.2 1115.4c2 .7 6.6 3.9 10.3 7.1 6.1 5.4 8.2 8.8 7.3 11.6-.2.6-35.2 35.9-77.7 78.3l-77.3 77.3 2.6 5.2c4.6 8.9 6.9 21.1 6.3 32.6-1 18.5-7.3 32.2-21.2 46-14.8 14.8-27.6 19.9-49.5 20-14 0-19.8-1.3-31.3-7.1l-6.9-3.4-8.8 8.2c-4.8 4.6-35.2 34.6-67.5 66.8l-58.6 58.5 3.5 7.5q10.2 22.35 4.2 46.2c-4.8 19.1-14.7 33-30.6 43.3-13 8.4-24.6 11.8-40.5 11.8-13.3 0-23.5-2.5-33.9-8.2l-7.1-3.9-60.5 60.4c-55.1 55-60.8 60.4-63.8 60.4-2.6 0-4.7-1.3-11-7.1-8.6-8-9.7-9.7-8.8-13.2.3-1.4 12.2-13.9 27.8-29.1 15-14.7 42.5-41.9 61.1-60.4l33.7-33.7-2.9-5.5c-6.2-11.6-9.1-28.5-7.1-41.5 3.5-22.8 16-41.5 35.7-53.3 11.9-7.2 21.5-9.6 37.3-9.7 14.6 0 23.8 2.2 35.6 8.4l7.2 3.7 66.2-65.5 66.1-65.6-3.6-8.2c-11.7-26.6-7.1-55.5 12.3-76.4 11-11.9 21.9-18.1 37.4-21.3 15.9-3.3 33.5-.8 48.7 6.9 4 2 7.5 3.5 7.6 3.3.4-.3 26.8-26.3 75-73.8 18.2-17.9 43.2-42.5 55.7-54.8 12.4-12.2 22.4-22.2 22-22.2-1 0-35.3 33.5-120.3 117.6l-32.7 32.3-5.4-2.9c-19.8-10.7-45.5-12-65.1-3.3-9 4-14.3 7.8-22.2 15.8-13.2 13.4-19.5 28-20.3 47.3-.5 13 1.1 21.6 5.9 31.8 1.6 3.4 2.9 6.5 2.9 7 0 .8-73.5 74.3-115.6 115.7l-15.1 14.9-5.4-3c-3-1.7-9-4.3-13.4-5.9-7.4-2.6-9.1-2.8-23.5-2.7-14.3 0-16.1.2-23.4 2.7-42.9 15-63.6 62.4-44.3 101.6l3.2 6.6-43 42.6c-23.6 23.4-50.7 50.2-60.1 59.5s-17.7 17.9-18.3 19.1c-2.4 4.7-1.4 6.7 7.4 15.1 7.9 7.6 8.8 8.2 12.7 8.2h4.2l60.1-60 60-60 8 3.9c12.2 6 18.9 7.5 34 7.5 12.1 0 13.7-.2 22.5-3.3 18.4-6.3 35.2-20.5 43-36.5 6.3-12.7 8.4-22.7 7.7-36.6-.5-11.6-2.4-19.3-7.3-29.3l-1.9-3.9 66.6-66.3 66.5-66.3 7.9 3.9c9.8 4.8 19.1 6.9 31.6 6.9 19.6 0 35.8-6.8 50-20.9 7.3-7.3 9.4-10.2 13.3-18.2 5.5-11.3 7.6-20.2 7.6-32.4 0-10.2-1.9-19.2-5.7-27.8l-2.6-5.9 77.1-77.1c69.2-69.2 77.2-77.5 77.2-80.3 0-5.2-14.8-18.5-20.5-18.4-1.2.1-.6.6 1.7 1.4"/><path d="M1529 1284.6c-11.2 3-21.2 11.3-26.4 22-3.9 7.8-4.8 21.2-2.1 29.9 7.6 23.9 35.9 35.3 58.9 23.8 6.8-3.4 15.1-12.1 18.4-19 2.4-5.2 2.7-7 2.7-16.8 0-10.4-.2-11.4-3.2-17.5-4.1-8.5-10.5-15-18.4-18.9-10.5-5.1-19.9-6.2-29.9-3.5m25.8 2.8c22.2 8.1 32 36.2 19.8 57-3.6 6.1-12 13.3-18.9 16.2-19.8 8.4-43.3-.8-52.5-20.4-2.4-5-2.7-6.9-2.7-16.2 0-9.5.3-11.1 2.8-16.2 9.5-19.4 31-27.9 51.5-20.4m-264 224.1c-15.4 4.2-27.6 18.6-29.9 35.3-2.6 18.6 6.6 35.6 23.7 43.9 12.8 6.1 29.3 5.6 41.1-1.3 7-4 13.7-11.5 17.5-19.1 3.1-6.4 3.3-7.4 3.3-17.3 0-9.7-.2-11-3.1-17-5.6-11.9-15.8-20.8-28.1-24.5-5.8-1.8-18.1-1.8-24.5 0m22.5 1c8.4 2.2 13.5 5 19.5 10.9 14.5 13.9 17.3 35.7 6.6 51.3-15.4 22.4-45.8 25.8-65.5 7.3-10.6-9.9-14.7-27.4-10.1-42.7 3.1-10.2 10.8-19.1 20.4-23.7 4-1.9 8.4-3.6 9.8-3.9 5.5-1 13.9-.6 19.3.8"/></g><path fill="#555" d="M1737.8 1115.7c.7.3 1.6.2 1.9-.1.4-.3-.2-.6-1.3-.5-1.1 0-1.4.3-.6.6m15.1 23c-1.3 1.6-1.2 1.7.4.4.9-.7 1.7-1.5 1.7-1.7 0-.8-.8-.3-2.1 1.3m-70 27c-1.3 1.6-1.2 1.7.4.4s2.1-2.1 1.3-2.1c-.2 0-1 .8-1.7 1.7m-31 29-2.4 2.8 2.8-2.4c1.5-1.4 2.7-2.6 2.7-2.8 0-.8-.8-.1-3.1 2.4m-33 34-2.4 2.8 2.8-2.4c1.5-1.4 2.7-2.6 2.7-2.8 0-.8-.8-.1-3.1 2.4m-5.5 5.5-1.9 2.3 2.3-1.9c1.2-1.1 2.2-2.1 2.2-2.3 0-.8-.8-.2-2.6 1.9m-6.5 6.5c-1.3 1.6-1.2 1.7.4.4.9-.7 1.7-1.5 1.7-1.7 0-.8-.8-.3-2.1 1.3m-6 4-3.4 3.8 3.8-3.4c3.4-3.3 4.2-4.1 3.4-4.1-.2 0-1.9 1.7-3.8 3.7m-10.5 10.5-1.9 2.3 2.3-1.9c2.1-1.8 2.7-2.6 1.9-2.6-.2 0-1.2 1-2.3 2.2m-4.5 4.5c-1.3 1.6-1.2 1.7.4.4s2.1-2.1 1.3-2.1c-.2 0-1 .8-1.7 1.7m-87.7 63.3c0 1.9.2 2.7.5 1.7.2-.9.2-2.5 0-3.5-.3-.9-.5-.1-.5 1.8m-16.3 78.7c-1.3 1.6-1.2 1.7.4.4.9-.7 1.7-1.5 1.7-1.7 0-.8-.8-.3-2.1 1.3m-88 44c-1.3 1.6-1.2 1.7.4.4s2.1-2.1 1.3-2.1c-.2 0-1 .8-1.7 1.7m-6 6-3.4 3.8 3.8-3.4c3.4-3.3 4.2-4.1 3.4-4.1-.2 0-1.9 1.7-3.8 3.7m-8.2 6.2c-1 1.4-1 1.4.4.4.9-.7 1.8-1 2.1-.7s.8.1 1.2-.4c.9-1.6-2.4-.9-3.7.7m-146.3 138.3-1.9 2.3 2.3-1.9c2.1-1.8 2.7-2.6 1.9-2.6-.2 0-1.2 1-2.3 2.2m122.5 7.5c-1.3 1.6-1.2 1.7.4.4s2.1-2.1 1.3-2.1c-.2 0-1 .8-1.7 1.7m-200.5 71.5-2.9 3.3 3.3-2.9c1.7-1.7 3.2-3.1 3.2-3.3 0-.8-.8-.1-3.6 2.9"/><path fill="#d4d4d4" d="M1714.9 1134.7c-1.3 1.6-1.2 1.7.4.4.9-.7 1.7-1.5 1.7-1.7 0-.8-.8-.3-2.1 1.3m-70.4 69.5-4 4.3 4.3-4c3.9-3.6 4.7-4.5 3.9-4.5-.2 0-2.1 1.9-4.2 4.2m-105.7 50.5c1.2.2 3 .2 4 0 .9-.3-.1-.5-2.3-.4-2.2 0-3 .2-1.7.4m68.2 28.8c-2.4 2.5-4.2 4.5-3.9 4.5s2.5-2 4.9-4.5 4.2-4.5 3.9-4.5-2.5 2-4.9 4.5m-173.1 123.2c-1.3 1.6-1.2 1.7.4.4s2.1-2.1 1.3-2.1c-.2 0-1 .8-1.7 1.7m-64 63-2.4 2.8 2.8-2.4c1.5-1.4 2.7-2.6 2.7-2.8 0-.8-.8-.1-3.1 2.4m7 36c-1.3 1.6-1.2 1.7.4.4s2.1-2.1 1.3-2.1c-.2 0-1 .8-1.7 1.7m-7 7c-1.3 1.6-1.2 1.7.4.4.9-.7 1.7-1.5 1.7-1.7 0-.8-.8-.3-2.1 1.3m-34.9 10.7c0 .2.8 1 1.8 1.7 1.5 1.3 1.6 1.2.3-.4s-2.1-2.1-2.1-1.3m41.1 34.2c0 1.1.3 1.4.6.6.3-.7.2-1.6-.1-1.9-.3-.4-.6.2-.5 1.3m-149.6 47.6-4 4.3 4.3-4c3.9-3.6 4.7-4.5 3.9-4.5-.2 0-2.1 1.9-4.2 4.2m-8.1 8-1.9 2.3 2.3-1.9c1.2-1.1 2.2-2.1 2.2-2.3 0-.8-.8-.2-2.6 1.9m-12.5 12.5c-1.3 1.6-1.2 1.7.4.4s2.1-2.1 1.3-2.1c-.2 0-1 .8-1.7 1.7m-10.4 10.5-4 4.3 4.3-4c3.9-3.6 4.7-4.5 3.9-4.5-.2 0-2.1 1.9-4.2 4.2m-60.1 59-1.9 2.3 2.3-1.9c2.1-1.8 2.7-2.6 1.9-2.6-.2 0-1.2 1-2.3 2.2m20.5 23.5-3.4 3.8 3.8-3.4c3.4-3.3 4.2-4.1 3.4-4.1-.2 0-1.9 1.7-3.8 3.7m-10 10-2.4 2.8 2.8-2.4c2.5-2.3 3.2-3.1 2.4-3.1-.2 0-1.4 1.2-2.8 2.7"/><path fill="#fff" d="M1724.1 1126.2c-5.8 5.7-26.6 26.1-46.1 45.4-71.7 70.8-91.6 90.3-94.3 92.5l-2.9 2.2-7.5-3.7c-20.4-10.1-45.9-10.3-65.8-.5-16.7 8.2-30.2 24.9-35.4 43.8-4.5 16.3-3.5 30.6 3.5 46.7l3.6 8.4-5.4 5.9c-2.9 3.3-15.2 15.8-27.3 27.8-33 32.7-93.8 92.4-97.1 95.5l-2.9 2.7-8.9-4.4c-18.4-9.1-38.7-10.5-57.7-4.1-14.8 5-28.6 15.9-37.8 30.1-7.1 10.8-10.2 21-10.9 35.2-.6 13.6 1.3 23.1 6.7 33.8l3.7 7.4-25.6 25.3c-83.1 82.3-96.3 95.5-97.1 97-1.5 2.7.4 5.9 7.7 12.7 8.4 7.7 11.4 9 15.1 6.5 1.5-.9 29.3-28.2 61.8-60.6l59-58.8 6.5 3.4c14 7.4 31 10.1 46.7 7.7 26.6-4.3 49.5-24 57.5-49.5 4.6-14.9 4-33.2-1.6-46.6-1.5-3.6-3.2-7.6-3.8-9-1-2.4 1.9-5.5 66.1-69.5 37-36.9 67.4-67.1 67.6-67.3s2.1.8 4.4 2.2c11.1 7 27.1 10.3 42 8.6 17.2-1.9 30.1-8 42-20 11.5-11.5 17.8-24.3 20.1-40.8 1.7-12.4-1.4-30.1-6.6-38.4l-2.3-3.7 77.3-77.3c42.6-42.5 77.7-78.3 78.1-79.5.7-2.5-3.3-7.5-10.8-13.5-7.7-6-9.1-5.6-21.6 6.4m-165.8 161.1c12.5 6.2 20.4 16.8 22.9 30.8 3 17.1-6.8 35.5-23.2 43.3-6.1 2.9-7.2 3.1-18 3.1-11.1 0-11.7-.1-18.3-3.4-8.8-4.4-17.6-13.7-20.8-21.8-1.8-4.5-2.3-7.9-2.3-15.3-.1-8.7.2-10.1 3.2-16.5 7.8-16.5 21.4-24.8 39.8-24.2 8.3.3 9.9.7 16.7 4m-244.2 223.5c26.8 7.4 40.6 35.5 29.5 59.8-3.1 6.7-11.9 16.2-18.4 19.7-7.1 3.8-17.3 6-24.7 5.2-19.4-2.2-33.1-12.8-38.4-29.9-4.7-15.3-1.4-30.4 9.4-42.4 5.6-6.2 11.6-9.9 19.9-12.3 8-2.3 14.6-2.3 22.7-.1"/><path fill="gray" d="M1674.9 1173.7c-1.3 1.6-1.2 1.7.4.4s2.1-2.1 1.3-2.1c-.2 0-1 .8-1.7 1.7m-4.4 4.3c-1 1.1-2.2 1.7-2.8 1.3s-.7-.1-.2.6c.5.9 1.3.7 3.1-1 1.3-1.2 2.4-2.4 2.4-2.6 0-.7-.8-.2-2.5 1.7m-63.1 60.3c-1.6 1.7-2 2.4-.8 1.4 1.1-.9 2.3-1.5 2.6-1.2s1.1-.1 1.7-.9c2.5-3-.7-2.4-3.5.7m-5 6.9-2.9 3.3 3.3-2.9c1.7-1.7 3.2-3.1 3.2-3.3 0-.8-.8-.1-3.6 2.9m-135.3 81.4c0 1.1.3 1.4.6.6.3-.7.2-1.6-.1-1.9-.3-.4-.6.2-.5 1.3m-230.5 267.6c.3.5 1 .6 1.5.3 1.3-.9 1.1-1.2-.6-1.2-.8 0-1.2.4-.9.9m67.2 1.5c.7.3 1.6.2 1.9-.1.4-.3-.2-.6-1.3-.5-1.1 0-1.4.3-.6.6"/><path fill="#aaa" d="m1720.9 1128.7-2.4 2.8 2.8-2.4c2.5-2.3 3.2-3.1 2.4-3.1-.2 0-1.4 1.2-2.8 2.7m-55.5 54.5-1.9 2.3 2.3-1.9c2.1-1.8 2.7-2.6 1.9-2.6-.2 0-1.2 1-2.3 2.2m-6.5 6.5-3.4 3.8 3.8-3.4c3.4-3.3 4.2-4.1 3.4-4.1-.2 0-1.9 1.7-3.8 3.7m-7 7-2.4 2.8 2.8-2.4c2.5-2.3 3.2-3.1 2.4-3.1-.2 0-1.4 1.2-2.8 2.7m-55.5 54.5-2.9 3.3 3.3-2.9c3-2.8 3.7-3.6 2.9-3.6-.2 0-1.6 1.5-3.3 3.2m-62.6 3.5c.6.2 1.8.2 2.5 0 .6-.3.1-.5-1.3-.5s-1.9.2-1.2.5m55.6 3.5-2.9 3.3 3.3-2.9c1.7-1.7 3.2-3.1 3.2-3.3 0-.8-.8-.1-3.6 2.9m-8.2 67.3c0 1.6.2 2.2.5 1.2.2-.9.2-2.3 0-3-.3-.6-.5.1-.5 1.8m-128.7 62.7-6 6.3 6.3-6c5.8-5.5 6.7-6.5 5.9-6.5-.1 0-2.9 2.8-6.2 6.2m43 0-5 5.3 5.3-5c2.8-2.7 5.2-5.1 5.2-5.2 0-.8-.9.1-5.5 4.9m-55 12-5 5.3 5.3-5c2.8-2.7 5.2-5.1 5.2-5.2 0-.8-.9.1-5.5 4.9m-210.3 153.3c0 1.6.2 2.2.5 1.2.2-.9.2-2.3 0-3-.3-.6-.5.1-.5 1.8m4.2 43.7-1.9 2.3 2.3-1.9c1.2-1.1 2.2-2.1 2.2-2.3 0-.8-.8-.2-2.6 1.9m-24 24-2.9 3.3 3.3-2.9c1.7-1.7 3.2-3.1 3.2-3.3 0-.8-.8-.1-3.6 2.9m92.9 4.5c.9.2 2.3.2 3 0 .6-.3-.1-.5-1.8-.5-1.6 0-2.2.2-1.2.5m-101.4 4-2.4 2.8 2.8-2.4c2.5-2.3 3.2-3.1 2.4-3.1-.2 0-1.4 1.2-2.8 2.7m-55 54-3.4 3.8 3.8-3.4c3.4-3.3 4.2-4.1 3.4-4.1-.2 0-1.9 1.7-3.8 3.7m-7 7-2.4 2.8 2.8-2.4c1.5-1.4 2.7-2.6 2.7-2.8 0-.8-.8-.1-3.1 2.4m-11.9 36.7c0 .2.8 1 1.8 1.7 1.5 1.3 1.6 1.2.3-.4s-2.1-2.1-2.1-1.3"/></svg>