<svg xmlns="http://www.w3.org/2000/svg" viewBox="0 0 497 471" width="32" height="32"><path d="m208 0.7c-24.1 3.7-37 7-53.3 13.4-38.9 15.5-75 43.2-108.6 83.6-12.3 14.7-35.2 47.6-42.5 60.9l-2.8 5.1 2.8 5.4c3.3 6.6 16.1 27 22.9 36.4 20.1 28 46.1 55.1 71 74 39.1 29.8 76.3 44.6 121.8 48.6 41.1 3.7 90.1-10 129.4-36 18-11.9 31.3-22.9 48.8-40.5 23.4-23.4 42.2-48 57.1-74.3 7.9-13.8 7.9-14.2 0.9-26-8.3-14-21.2-32.8-32.3-47.3-11.6-15-38.8-42.7-52.9-53.8-35-27.6-71-43.7-109.3-48.8-9.6-1.2-46.3-1.8-53-0.7zm59 2.7c33.8 6.4 68 21.3 94.5 41.4 16.5 12.5 41 35.9 53.7 51.2 12.4 15 33.2 45 41.4 59.7 3.4 6 3.6 6.7 2.6 10.2-2 6.4-17.9 31.8-30.6 48.6-14.4 19.2-40.7 46.5-58.6 60.8-31.3 25.1-65.8 41.6-101.5 48.6-29.4 5.8-57.3 4.5-89.5-4-62.2-16.5-124.8-68.9-168.4-141.1l-8.8-14.6 4-6.9c12.6-21.4 34.7-52 49.9-68.8 45.7-50.6 91.8-77.5 147.4-86 12.7-1.9 51.9-1.4 63.9 0.9z"/><path d="m210.5 33.1c-49.2 6.3-90 31.1-135 81.9-10.8 12.2-35.5 46.5-35.5 49.2 0 0.6 4.2 7.4 9.4 15.2 30 45 66 78.4 105.7 97.8 24.4 12 45.5 17.5 71.1 18.5 47.5 1.9 90.8-15.3 135.1-53.6 17.7-15.2 44.1-46.5 59.1-69.9 5.3-8.4 5.5-7-3.2-19.7-16.8-24.2-30.1-40.5-47.2-57.5-37-36.9-74.2-56.6-117-61.9-9.9-1.3-32.5-1.2-42.5 0zm51.8 2.4c38.6 7 72.5 26.2 106.8 60.4 18.7 18.8 37.5 42 52.1 64.7l2.7 4.2-7 10.3c-31.9 46.5-64 77.7-100.9 97.6-44.6 24-90.6 28.6-135.8 13.4-30.9-10.3-60.6-29-86.7-54.7-16.5-16.2-36.8-41.7-48.3-60.5l-4.3-7 6.2-9.2c10.6-15.7 22.8-31.4 35.5-45.6 39.4-44.2 81-68.5 127.9-74.7 12.6-1.7 39.8-1.1 51.8 1.1z"/><path d="m219.7 78.1c-32.3 4.7-60.1 28-70.9 59.5-16.1 46.7 11.4 96.6 60.9 110.6 10.6 3 33.3 3.2 43.8 0.4 26.8-7.1 47.6-25 58.5-50.3 5.8-13.5 7.3-22.1 6.8-37.7-0.4-11.3-0.9-14.4-3.7-22.6-4.5-13.6-10.9-23.7-21.6-34.5-19.9-20-47-29.3-73.8-25.4zm30 2.4c39.9 9.2 68.3 43.9 68.3 83.5 0 56-53 96.9-107.6 83-19.5-5-38.7-18.5-50.4-35.5-14.6-21.3-18.4-48.8-10-73 5-14.5 9.4-21.7 20.4-33.3 14.8-15.6 30.6-23.2 55.1-26.6 4.7-0.7 17.4 0.4 24.2 1.9z"/><path d="m223.8 109c-22.2 3.9-40 20.9-45.3 43.1-5.6 24 6.2 50.1 27.5 60.8 10.3 5.1 17 6.5 29.5 5.9 15.8-0.8 27.7-6.5 38.2-18.3 9-10.1 13.3-21.9 13.3-36.5 0-19.2-9.6-36.3-26.4-47.2-10.1-6.5-25.5-9.8-36.8-7.8zm28.2 4.8c29.1 12.3 42.1 46.1 28.6 74.2-4 8.5-15.8 20.5-23.8 24.3-15.8 7.5-33.6 7.6-49.6 0-7.1-3.3-18.9-14.8-22.5-21.8-11.4-22.6-7.1-48.4 10.9-65.5 12.4-11.7 21.3-15.2 37.9-14.7 9.7 0.3 11.9 0.8 18.5 3.5zm162.4 190.1c-2.1 1.6-8.6 7.6-14.4 13.2-14 13.8-16.5 18.6-16.5 31.9 0 8.8 0.3 10 3.5 16.5 4.1 8.3 15.2 20 22 23.3 2.5 1.2 7.6 2.9 11.3 3.8 8.2 2.1 16.7 1 24.8-3.1 6.5-3.2 8-4.5 32.2-27.7 15.6-15 19.7-19.5 19.7-21.5 0-3.5-14-17.3-17.6-17.3-2.7 0-5.7 2.6-29.3 25.7-14.3 13.9-17.7 16.3-24 16.3-3.3 0-7.4-2.4-11.4-6.9-3.1-3.4-3.7-4.8-3.7-8.5 0-3.7 0.7-5.3 4.5-9.9 2.4-3 4.9-5.7 5.4-5.9 1.5-0.5 16.1-14.8 16.1-15.8 0-0.5-5.9 4.8-13 11.7-14.3 13.8-16.4 17.4-13.9 23.6 2.9 6.9 10.6 12.7 16.9 12.7 6.3 0 10.4-3 27.5-19.9 18.4-18.1 22.9-22.1 25.1-22.1 2 0 16.4 13.9 16.4 15.9 0 1.6-15.6 17.4-36 36.6-13.9 13-18.1 15-31.5 15-12.8 0-19-2.3-27.7-10.3-11.2-10.4-17.4-23.4-16.5-34.7 0.8-10.6 4.4-16.4 18.1-29.8 6.6-6.5 13.1-12.5 14.3-13.4 3.5-2.4 6.6-0.9 13.8 6.5 3.7 3.7 6.2 5.8 5.7 4.7-0.6-1.1-3.7-4.6-7-7.8-7-6.6-9.1-7-14.8-2.8zm-72.9 57.2c-11.7 1.8-20.6 5.9-30.8 14.3-11.2 9.4-17.1 17.9-35.3 51.1-15.5 28.3-17.4 32.3-17.4 36.5 0 3 0.6 4.3 2.7 6 2.7 2.1 3.1 2.1 45.3 1.8 40.6-0.4 42.9-0.5 50.5-2.7 39.1-11.1 56.7-45.4 40.4-78.9-9.5-19.5-33.1-31.5-55.4-28.1zm23.1 3c22.4 6.9 36.9 26.3 36.8 49.4 0 15.2-4.9 26.7-15.6 37.1-9.7 9.4-21.7 15.1-37.7 17.8-13.6 2.3-81.7 2.4-86.1 0.1-6.1-3.1-5.1-5.7 18.2-48.1 13.5-24.5 17.3-30.1 27.2-39.9 8.7-8.6 18-14.3 27.7-16.9 8.2-2.2 21.4-2 29.5 0.5z"/><path d="m337.7 389.4c-10.1 3.7-15.5 9.8-26.2 29.6-3.7 6.9-8.1 14.9-9.7 17.8l-2.9 5.4 26.3-0.4 26.3-0.3 6-2.8c7.5-3.5 12.1-7.8 15.1-14.2 5.9-12.3 0.5-27.1-12.2-33.4-5.9-3-17-3.8-22.7-1.7zm18.2 1.2c6.6 1.9 12.7 7.3 15.7 13.9 4.1 8.6 2.6 17.7-3.8 25-8.4 9.5-17.3 11.7-47.5 11.4l-19.2-0.1 4.1-7.7c18.6-34.5 21.6-38.2 33.1-42.2 6.5-2.3 10.8-2.3 17.6-0.3z"/><path d="m230.3 78.7c1.5 0.2 3.7 0.2 5 0 1.2-0.2 0-0.4-2.8-0.4-2.7 0-3.8 0.2-2.2 0.4zm-138.8 18.4c-0.3 0.4 0.2 0.6 1 0.5 2.1-0.3 2.8-1.3 1-1.3-0.9 0-1.8 0.4-2 0.8zm-32.5 148.3c0 0.2 0.8 1 1.8 1.7 1.5 1.3 1.6 1.2 0.3-0.4-1.3-1.6-2.1-2.1-2.1-1.3zm411.5 84.6c-0.4 0.6-1 0.8-1.4 0.6-0.4-0.3-0.8 0.1-0.8 0.9 0 1.3 0.4 1.2 1.9-0.2 1.8-1.6 2.2-2.3 1.4-2.3-0.3 0-0.8 0.5-1.1 1zm-53.1 7.2l-1.9 2.3 2.3-1.9c2.1-1.8 2.7-2.6 1.9-2.6-0.2 0-1.2 1-2.3 2.2zm36.5 7.5l-3.4 3.8 3.8-3.4c3.4-3.3 4.2-4.1 3.4-4.1-0.2 0-1.9 1.7-3.8 3.7z" fill="rgb(85, 85, 85)"/><path d="m229.8 219.7c0.7 0.3 1.6 0.2 1.9-0.1 0.4-0.3-0.2-0.6-1.3-0.5-1.1 0-1.4 0.3-0.6 0.6zm2 108c1.2 0.2 3 0.2 4 0 0.9-0.3-0.1-0.5-2.3-0.4-2.2 0-3 0.2-1.7 0.4zm233.6 7.5l-1.9 2.3 2.3-1.9c2.1-1.8 2.7-2.6 1.9-2.6-0.2 0-1.2 1-2.3 2.2zm-6 6l-1.9 2.3 2.3-1.9c1.2-1.1 2.2-2.1 2.2-2.3 0-0.8-0.8-0.2-2.6 1.9zm-77.3 7.4c0 1.1 0.3 1.4 0.6 0.6 0.3-0.7 0.2-1.6-0.1-1.9-0.3-0.4-0.6 0.2-0.5 1.3z" fill="rgb(128, 128, 128)"/><path d="m214.8 1.7c0.6 0.2 1.8 0.2 2.5 0 0.6-0.3 0.1-0.5-1.3-0.5-1.4 0-1.9 0.2-1.2 0.5zm18.5 218c0.9 0.2 2.3 0.2 3 0 0.6-0.3-0.1-0.5-1.8-0.5-1.6 0-2.2 0.2-1.2 0.5zm-0.5 77c0.6 0.2 1.8 0.2 2.5 0 0.6-0.3 0.1-0.5-1.3-0.5-1.4 0-1.9 0.2-1.2 0.5zm221.1 50l-3.4 3.8 3.8-3.4c3.4-3.3 4.2-4.1 3.4-4.1-0.2 0-1.9 1.7-3.8 3.7zm-78.8 67.9c0 1.1 0.3 1.4 0.6 0.6 0.3-0.7 0.2-1.6-0.1-1.9-0.3-0.4-0.6 0.2-0.5 1.3zm26 0c0 1.1 0.3 1.4 0.6 0.6 0.3-0.7 0.2-1.6-0.1-1.9-0.3-0.4-0.6 0.2-0.5 1.3z" fill="rgb(170, 170, 170)"/><path d="m245.8 1.7c0.7 0.3 1.6 0.2 1.9-0.1 0.4-0.3-0.2-0.6-1.3-0.5-1.1 0-1.4 0.3-0.6 0.6zm-16 30c1.2 0.2 3.2 0.2 4.5 0 1.2-0.2 0.2-0.4-2.3-0.4-2.5 0-3.5 0.2-2.2 0.4zm-148.9 31c-1.3 1.6-1.2 1.7 0.4 0.4 0.9-0.7 1.7-1.5 1.7-1.7 0-0.8-0.8-0.3-2.1 1.3zm112 62l-3.4 3.8 3.8-3.4c3.4-3.3 4.2-4.1 3.4-4.1-0.2 0-1.9 1.7-3.8 3.7zm124.2 46.9c0 1.1 0.3 1.4 0.6 0.6 0.3-0.7 0.2-1.6-0.1-1.9-0.3-0.4-0.6 0.2-0.5 1.3zm-45.2 31.1c-1.3 1.6-1.2 1.7 0.4 0.4 0.9-0.7 1.7-1.5 1.7-1.7 0-0.8-0.8-0.3-2.1 1.3zm-206.9 46.6c0 0.2 1.5 1.6 3.3 3.3l3.2 2.9-2.9-3.3c-2.8-3-3.6-3.7-3.6-2.9zm166.3 0.4c0.9 0.2 2.5 0.2 3.5 0 0.9-0.3 0.1-0.5-1.8-0.5-1.9 0-2.7 0.2-1.7 0.5zm153.1 12.5l-1.9 2.3 2.3-1.9c1.2-1.1 2.2-2.1 2.2-2.3 0-0.8-0.8-0.2-2.6 1.9zm-158.6 34.5c1.2 0.2 3.2 0.2 4.5 0 1.2-0.2 0.2-0.4-2.3-0.4-2.5 0-3.5 0.2-2.2 0.4zm11 0c0.6 0.2 1.8 0.2 2.5 0 0.6-0.3 0.1-0.5-1.3-0.5-1.4 0-1.9 0.2-1.2 0.5zm11 30c0.7 0.3 1.6 0.2 1.9-0.1 0.4-0.3-0.2-0.6-1.3-0.5-1.1 0-1.4 0.3-0.6 0.6zm201.1 25c-1.3 1.6-1.2 1.7 0.4 0.4 1.6-1.3 2.1-2.1 1.3-2.1-0.2 0-1 0.8-1.7 1.7zm-119.1 118c1.2 0.2 3.2 0.2 4.5 0 1.2-0.2 0.2-0.4-2.3-0.4-2.5 0-3.5 0.2-2.2 0.4z" fill="rgb(212, 212, 212)"/><path d="m211.7 2.1c-30 2.6-66.4 15.2-93 32.1-36.8 23.4-69.6 57.5-101.2 105.3-5.1 7.7-10.5 16.4-12.1 19.2l-2.9 5.3 2.9 5.2c9.6 17.4 29 45.4 40.5 58.8 31.5 36.3 62.8 61.3 97.6 78.1 21.6 10.3 38.1 15.3 62.3 18.8 78.2 11.4 155.8-26.3 219.4-106.4 11.1-14 28.4-40.9 32.9-50.9l2-4.5-2.7-5.3c-6.6-13.1-32-49.4-46.4-66.3-12.7-14.9-35.4-35.9-51-47.1-46.2-33.3-94.7-47.1-148.3-42.3zm48.8 31.6c23.3 3.3 54.2 16.1 73.7 30.5 3.9 2.9 7.2 4.6 7.9 4.2q1.1-0.6 0.6 0.3c-0.4 0.6 1.5 2.7 4.1 4.7 13.8 10.6 38 35.4 51.3 52.6 2.3 3 4.5 5.7 4.8 6 0.9 0.8 12.1 16.6 17.9 25.1l5.1 7.6-3.6 5.4c-32.5 48.8-67.6 83.4-104.9 103.7-9.7 5.2-28.1 13.2-34.9 15.2-11.7 3.3-15.8 4.2-24.5 5.5-28.6 4.2-50.3 2.3-78-6.6-41.9-13.6-80.4-42.6-115.6-86.9-7.1-9-18-24.6-22.3-31.8l-3.1-5.3 6.2-9.2c15.4-23.1 37.6-49.9 54.7-65.9 48.9-46 100.4-63.7 160.6-55.1z" fill="rgb(255, 255, 255)"/><path d="m215.7 80.5c-31.9 6.6-55.6 28.3-66.3 60.5-2.6 7.8-2.8 9.8-2.8 23.5-0.1 13 0.2 16 2.2 22.5 9.1 28.8 31.6 51.1 59.9 59.2 6.6 1.9 10.3 2.3 23.8 2.3 14 0 16.9-0.3 23.5-2.3 18.8-5.9 34.9-17.2 45.2-31.7 19.2-27 21.6-62.3 6.3-90.3-15-27.3-41.8-43.7-73-44.7-8-0.3-14.3 0-18.8 1zm29.7 29.5c10.3 2.6 17.7 6.9 25.6 14.9 22.4 22.7 22.4 56.8 0.1 78.8-25 24.6-66.2 20.4-85.4-8.7-12.2-18.6-11.8-43.6 1.2-62.5 13.3-19.7 35.9-28.3 58.5-22.5zm163.6 200.7c-17.6 16-23 23.6-24.3 34.3-0.8 5.9 1.6 16.3 5.1 22.2 11.9 20.7 32.6 29.3 52.3 21.9 6.1-2.3 14.8-9.7 39.8-33.9l14.3-13.9-1.6-3.1c-0.9-1.7-4.5-5.6-8.1-8.6-6.1-5.1-6.8-5.5-9-4.4-1.2 0.7-10.8 9.6-21.1 19.7-23.6 23.1-26.8 24.8-36.5 19.4-9-4.9-12.9-13.2-9.5-20.4 0.9-1.9 7-8.5 13.6-14.7 6.6-6.3 12-11.7 12-12.2 0-0.5-2.8-3.8-6.3-7.4-8.5-9-9.7-8.9-20.7 1.1zm-66.5 51.9c-9.9 1.4-18.2 5-28.2 12-11.4 8.1-18.8 18.6-37.8 53.3-19.3 35.4-19.9 37.3-13.3 40.7 2.9 1.5 7.2 1.6 41.8 1.1 41.3-0.6 47.1-1.2 59.9-6.3 18.4-7.3 30.3-20.1 34.7-37.4 2.2-8.7 1.5-22.4-1.5-30.2-2.8-7.3-9.9-18-11.3-17.2-0.6 0.4-0.8 0.2-0.4-0.4 1.2-2-11.1-10.1-20.4-13.4-5.4-1.9-17.7-3-23.5-2.2zm14.5 26.6c11.2 3.4 19.3 14.8 18.5 26.1-0.4 6-4.6 14.8-8.8 18.3-1.8 1.5-5.7 3.9-8.7 5.3-5.4 2.6-5.8 2.6-32.9 2.9l-27.3 0.3 2-2.8c1-1.5 3.7-6.2 5.9-10.3 16.5-31.4 22.2-37.9 35.3-40.6 5.7-1.2 10.1-0.9 16 0.8z" fill="rgb(255, 255, 255)"/></svg>