<svg xmlns="http://www.w3.org/2000/svg" viewBox="0 0 580 661" width="32" height="32"><path d="m503.8 0.7c1.2 0.2 3 0.2 4 0 0.9-0.3-0.1-0.5-2.3-0.4-2.2 0-3 0.2-1.7 0.4zm14 0c0.6 0.2 1.8 0.2 2.5 0 0.6-0.3 0.1-0.5-1.3-0.5-1.4 0-1.9 0.2-1.2 0.5zm-22 1c0.6 0.2 1.8 0.2 2.5 0 0.6-0.3 0.1-0.5-1.3-0.5-1.4 0-1.9 0.2-1.2 0.5zm28 0c0.6 0.2 1.8 0.2 2.5 0 0.6-0.3 0.1-0.5-1.3-0.5-1.4 0-1.9 0.2-1.2 0.5zm5 1c0.7 0.3 1.6 0.2 1.9-0.1 0.4-0.3-0.2-0.6-1.3-0.5-1.1 0-1.4 0.3-0.6 0.6zm9.2 3.3c0.8 0.5 2 1 2.5 1 0.6 0 0.3-0.5-0.5-1-0.8-0.5-1.9-1-2.5-1-0.5 0-0.3 0.5 0.5 1zm-60.5 2c-0.3 0.6 0.1 0.7 0.9 0.4 1.8-0.7 2.1-1.4 0.7-1.4-0.6 0-1.3 0.4-1.6 1zm64.5-0.7c0 0.3 2.4 2 5.3 3.7 2.8 1.8 4.5 2.5 3.7 1.8-1.9-1.8-9-6.1-9-5.5zm-68.6 3.3c-1.8 1.4-1.8 1.5 0.4 0.4 1.2-0.6 2.2-1.3 2.2-1.5 0-0.8-0.5-0.6-2.6 1.1zm-4.5 3.1c-1.3 1.6-1.2 1.7 0.4 0.4 1.6-1.3 2.1-2.1 1.3-2.1-0.2 0-1 0.8-1.7 1.7zm89.6 6.3c3.3 3.3 6.2 6 6.4 6 0.3 0-2.1-2.7-5.4-6-3.3-3.3-6.2-6-6.4-6-0.3 0 2.1 2.7 5.4 6zm-97.6 0.6c-1.8 1.9-2.7 3.2-1.9 2.9 1.4-0.6 6.6-6.5 5.8-6.5-0.2 0-2 1.6-3.9 3.6zm-6.7 8.1c-4.1 5.3-8.6 13.3-7.8 14 0.3 0.4 0.6 0.1 0.6-0.5 0-0.6 2.4-4.7 5.4-9.1 5.8-8.7 6.5-10.3 1.8-4.4zm52.6-3c2.3 0.2 5.9 0.2 8 0 2-0.2 0.1-0.4-4.3-0.4-4.4 0-6.1 0.2-3.7 0.4zm13 1c0.7 0.3 1.6 0.2 1.9-0.1 0.4-0.3-0.2-0.6-1.3-0.5-1.1 0-1.4 0.3-0.6 0.6zm47.7 4c1.5 2.4 3 4.3 3.2 4.3 0.7 0-3.1-6.1-4.6-7.3-0.8-0.7-0.2 0.7 1.4 3zm-75-1.7c-0.3 0.6 0.1 0.7 0.9 0.4 1.8-0.7 2.1-1.4 0.7-1.4-0.6 0-1.3 0.4-1.6 1zm35.5 0.4c0 0.2 0.7 0.7 1.6 1 0.8 0.3 1.2 0.2 0.9-0.4-0.6-1-2.5-1.4-2.5-0.6zm-39.5 1.6c-0.3 0.6 0.1 0.7 0.9 0.4 1.8-0.7 2.1-1.4 0.7-1.4-0.6 0-1.3 0.4-1.6 1zm46 2.2c1.7 1.3 4.8 3.8 7 5.7 2.6 2.2 2.3 1.7-0.9-1.3-2.7-2.6-5.8-5.1-7-5.7-1.2-0.6-0.7 0 0.9 1.3zm-54.6 4.5l-3.4 3.8 3.8-3.4c3.4-3.3 4.2-4.1 3.4-4.1-0.2 0-1.9 1.7-3.8 3.7zm92.8 1.8c0.9 1.9 1.8 3.3 2.1 3.1 0.4-0.5-2.6-6.6-3.3-6.6-0.3 0 0.3 1.6 1.2 3.5zm-97.4 3.7c-1.5 2-2.5 3.8-2 3.8 0.3 0 1.2-1.1 2.1-2.5 1.7-2.6 1.6-3.5-0.1-1.3zm99.9 1.3c0 0.5 0.6 2.6 1.3 4.5 0.7 1.9 1.4 2.8 1.4 2 0-0.8-0.6-2.9-1.4-4.5-0.7-1.7-1.3-2.6-1.3-2zm-26 6c1.2 2.4 2.3 4.3 2.6 4.1 0.4-0.5-3.6-8.6-4.3-8.6-0.3 0 0.5 2 1.7 4.5zm-106.7 2.5c-0.4 1.7-0.5 3.4-0.2 3.6 0.2 0.3 0.7-1 1.1-2.7 0.3-1.8 0.4-3.4 0.2-3.6-0.2-0.3-0.7 1-1.1 2.7zm28-1.9c-0.4 0.6-0.5 1.2-0.2 1.5 0.2 0.3 0.7-0.2 1-1.1 0.7-1.7 0.1-2-0.8-0.4zm107.6 3.5c0 1.1 0.3 1.4 0.6 0.6 0.3-0.7 0.2-1.6-0.1-1.9-0.3-0.4-0.6 0.2-0.5 1.3zm-109 1c0 1.1 0.3 1.4 0.6 0.6 0.3-0.7 0.2-1.6-0.1-1.9-0.3-0.4-0.6 0.2-0.5 1.3zm83 2c0 1.1 0.3 1.4 0.6 0.6 0.3-0.7 0.2-1.6-0.1-1.9-0.3-0.4-0.6 0.2-0.5 1.3zm27.2 2.9c0 2.2 0.2 3 0.4 1.7 0.2-1.2 0.2-3 0-4-0.3-0.9-0.5 0.1-0.4 2.3zm-138 5.5c0 4.7 0.2 6.6 0.4 4.2 0.2-2.3 0.2-6.1 0-8.5-0.2-2.3-0.4-0.4-0.4 4.3zm26.8-6.4c0 1.1 0.3 1.4 0.6 0.6 0.3-0.7 0.2-1.6-0.1-1.9-0.3-0.4-0.6 0.2-0.5 1.3zm-0.8 8.9c0 3.3 0.2 4.5 0.4 2.7 0.2-1.8 0.2-4.5 0-6-0.2-1.5-0.4 0-0.4 3.3zm111.9 6.5c0 1.9 0.2 2.7 0.5 1.7 0.2-0.9 0.2-2.5 0-3.5-0.3-0.9-0.5-0.1-0.5 1.8zm-26.1-0.4c0 1.1 0.3 1.4 0.6 0.6 0.3-0.7 0.2-1.6-0.1-1.9-0.3-0.4-0.6 0.2-0.5 1.3zm-110.9 3.9c0 1.6 0.2 2.2 0.5 1.2 0.2-0.9 0.2-2.3 0-3-0.3-0.6-0.5 0.1-0.5 1.8zm26-0.5c0 1.4 0.2 1.9 0.5 1.2 0.2-0.6 0.2-1.8 0-2.5-0.3-0.6-0.5-0.1-0.5 1.3zm83.9-0.3c-0.1 0.6-0.4 2-0.7 3-0.5 1.7-0.5 1.7 0.6 0 0.6-1 0.9-2.3 0.6-3-0.3-0.9-0.5-0.9-0.5 0zm26 3.9c0 1.1 0.3 1.4 0.6 0.6 0.3-0.7 0.2-1.6-0.1-1.9-0.3-0.4-0.6 0.2-0.5 1.3zm-109.1-0.1c0 0.5 0.5 1.7 1 2.5 0.5 0.8 1 1 1 0.5 0-0.6-0.5-1.7-1-2.5-0.5-0.8-1-1.1-1-0.5zm80.6 3c-0.9 2.6-0.7 3.2 0.5 1.2 0.6-1 0.9-2.1 0.6-2.3-0.2-0.3-0.7 0.2-1.1 1.1zm27.5 1.1c0 1.1 0.3 1.4 0.6 0.6 0.3-0.7 0.2-1.6-0.1-1.9-0.3-0.4-0.6 0.2-0.5 1.3zm-149.8 9.2c-7.8 4.3-14.6 8.2-15 8.7-1 1-2.1 1.6 15.5-7.9 12-6.6 15.5-8.7 14-8.6-0.2 0-6.7 3.5-14.5 7.8zm46.5-3.3c0.6 1.1 3.2 4 5.8 6.5l4.8 4.5-5.4-6c-2.9-3.3-5.6-6.2-5.8-6.5-0.3-0.3 0 0.4 0.6 1.5zm100.8 1c-0.9 2.6-0.7 3.2 0.5 1.2 0.6-1 0.9-2.1 0.6-2.3-0.2-0.3-0.7 0.2-1.1 1.1zm-34.1 5.7l-5 5.3 5.3-5c2.8-2.7 5.2-5.1 5.2-5.2 0-0.8-0.9 0.1-5.5 4.9zm30.5 1.8c-0.6 1.1-0.8 2-0.6 2 0.3 0 1-0.9 1.6-2 0.6-1.1 0.8-2 0.6-2-0.3 0-1 0.9-1.6 2zm-85.6 2.9c0.7 1.1 4.6 3.5 4.6 2.8 0-0.3-1.2-1.2-2.6-2.2-1.5-0.9-2.3-1.2-2-0.6zm79.3 6.4c-4.6 5.9-4.6 6-0.7 1.7 3.7-3.9 6.6-8 5.8-8-0.2 0-2.5 2.8-5.1 6.3zm-161.9-1.2c-2.1 1.1-3.8 2.2-3.8 2.4 0 0.3 1.8-0.4 4-1.5 2.2-1.1 4-2.3 4-2.5 0-0.7 0-0.7-4.2 1.6zm89.2-1.1c0.8 0.5 2 1 2.5 1 0.6 0 0.3-0.5-0.5-1-0.8-0.5-1.9-1-2.5-1-0.5 0-0.3 0.5 0.5 1zm-42.3 5.9c-6.9 4.1-7.2 5-0.3 1.2l5.9-3.3 4.6 4.4c2.5 2.4 5.7 5.2 7.1 6.3 1.4 1.1-0.6-1.1-4.5-4.7-3.8-3.7-7.2-6.7-7.5-6.7-0.3 0-2.6 1.3-5.3 2.8zm58.6-2.2c1.5 0.2 3.9 0.2 5.5 0 1.5-0.2 0.2-0.4-2.8-0.4-3 0-4.3 0.2-2.7 0.4zm-113.5 1.9c-3.8 2-3.6 2.8 0.2 0.9 1.7-0.9 3-1.8 3-2 0-0.7-0.1-0.6-3.2 1.1z"/><path d="m383.8 118.4c-3.1 1.7-6 3.5-6.5 4-0.9 0.9 10.2-4.6 12.7-6.3 3.2-2.2-0.7-0.7-6.2 2.3zm169.7 1.9c-2.8 2.3-6.1 5-7.5 6-2.4 1.7-2.4 1.7 0.8 0 3.1-1.7 13.3-10.2 12.2-10.2-0.3 0-2.8 1.9-5.5 4.2zm-116.7-0.4c-6.5 3.7-7.4 4.9-1.3 1.8 5.9-3.1 8.4-4.7 7-4.6-0.5 0.1-3.1 1.3-5.7 2.8zm-71.8 8.7c-5.2 2.9-10.2 5.8-11 6.4-2.1 1.5 18-8.9 20.5-10.6 4.2-3-0.4-0.9-9.5 4.2zm56.8-0.5c-2.1 1.1-3.8 2.2-3.8 2.4 0 0.3 1.8-0.4 4-1.5 2.2-1.1 4-2.3 4-2.5 0-0.7 0-0.7-4.2 1.6zm53.2-1.6c0 0.7 8.1 4.7 8.6 4.3 0.2-0.3-1.7-1.4-4.1-2.6-2.5-1.2-4.5-2-4.5-1.7zm65.5 2.5c-0.3 0.6 0.1 0.7 0.9 0.4 1.8-0.7 2.1-1.4 0.7-1.4-0.6 0-1.3 0.4-1.6 1zm-4.5 2c-0.8 0.5-1 1-0.5 1 0.6 0 1.7-0.5 2.5-1 0.8-0.5 1.1-1 0.5-1-0.5 0-1.7 0.5-2.5 1zm-50 1c0.8 0.5 2 1 2.5 1 0.6 0 0.3-0.5-0.5-1-0.8-0.5-1.9-1-2.5-1-0.5 0-0.3 0.5 0.5 1zm-76.2 2.6c-2.7 1.3-4.8 2.7-4.8 2.9 0 0.3 2.3-0.6 5-2 2.8-1.4 5-2.8 5-3 0-0.7 0.1-0.7-5.2 2.1zm81-0.9c0.7 0.3 1.6 0.2 1.9-0.1 0.4-0.3-0.2-0.6-1.3-0.5-1.1 0-1.4 0.3-0.6 0.6zm4 1c0.7 0.3 1.6 0.2 1.9-0.1 0.4-0.3-0.2-0.6-1.3-0.5-1.1 0-1.4 0.3-0.6 0.6zm29.5 0c0.9 0.2 2.3 0.2 3 0 0.6-0.3-0.1-0.5-1.8-0.5-1.6 0-2.2 0.2-1.2 0.5zm-24 1c0.9 0.2 2.5 0.2 3.5 0 0.9-0.3 0.1-0.5-1.8-0.5-1.9 0-2.7 0.2-1.7 0.5zm15 0c1.5 0.2 3.7 0.2 5 0 1.2-0.2 0-0.4-2.8-0.4-2.7 0-3.8 0.2-2.2 0.4zm-170.6 4c-3.7 2-6.6 3.8-6.3 4 0.4 0.4 13.6-6.6 13.6-7.3 0-0.6 0-0.6-7.3 3.3zm54.1 0.9c-3.8 2-3.6 2.8 0.2 0.9 1.7-0.9 3-1.8 3-2 0-0.7-0.1-0.6-3.2 1.1z"/><path d="m383.3 149.1c-6.2 3.3-11.3 6.2-11.3 6.5 0 0.6 20.9-10.4 22.5-11.7 1.8-1.7-0.1-0.8-11.2 5.2zm-50.5-3c-2.1 1.1-3.8 2.2-3.8 2.4 0 0.3 1.8-0.4 4-1.5 2.2-1.1 4-2.3 4-2.5 0-0.7 0-0.7-4.2 1.6zm-10 5.3c-5.8 3.5-5.8 4.1 0 1.2 2.8-1.4 5.2-2.9 5.2-3.1 0-0.9-1.4-0.4-5.2 1.9zm28.4 15c-9.5 5.1-17.6 9.7-18 10.1-1 1 3.7-1.3 21.1-10.7 12.4-6.8 15.9-8.9 14.5-8.8-0.2 0-8.1 4.2-17.6 9.4zm-44.8-5.8c-1.8 1.4-1.8 1.5 0.4 0.4 1.2-0.6 2.2-1.3 2.2-1.5 0-0.8-0.5-0.6-2.6 1.1zm-4.9 2.4c-0.3 0.6 0.1 0.7 0.9 0.4 1.8-0.7 2.1-1.4 0.7-1.4-0.6 0-1.3 0.4-1.6 1zm-9.7 5.1c-2.1 1.1-3.8 2.2-3.8 2.4 0 0.3 1.8-0.4 4-1.5 2.2-1.1 4-2.3 4-2.5 0-0.7 0-0.7-4.2 1.6zm-13 7c-3.2 1.6-5.8 3.2-5.8 3.4 0 0.3 2.7-0.8 6-2.5 3.3-1.7 6-3.2 6-3.5 0-0.7 0.2-0.8-6.2 2.6zm37.7 10c-8.2 4.5-15.4 8.6-16 9.2-1.2 1.2-2.6 1.9 16.3-8.2 12.9-7 16.4-9.1 15-9.1-0.2 0-7 3.7-15.3 8.1zm-51.7-2.5c-2.7 1.3-4.8 2.7-4.8 2.9 0 0.3 2.3-0.6 5-2 2.8-1.4 5-2.8 5-3 0-0.7 0.1-0.7-5.2 2.1zm-33 17.8c-13.6 7.3-25.1 13.6-25.5 14-1 1.1 2.3-0.6 27.7-14.1 18.8-10.1 24.6-13.4 23-13.3-0.3 0.1-11.6 6.1-25.2 13.4z"/><path d="m292.8 198.1c-3.2 1.6-5.8 3.2-5.8 3.4 0 0.3 2.7-0.8 6-2.5 3.3-1.7 6-3.2 6-3.5 0-0.7 0.2-0.8-6.2 2.6zm-20 10.8c-7 3.7-13.1 7.1-13.5 7.6-1 1 24.8-12.4 26.2-13.6 1.7-1.6 0.1-0.9-12.7 6zm-76 10.2c-4.3 2.1-7.8 4.1-7.8 4.4 0 0.3 3.6-1.3 8-3.5 4.4-2.2 8-4.2 8-4.5 0-0.7 0.4-0.8-8.2 3.6zm52 2.8c-4.9 2.6-9.1 5.1-9.5 5.6-1 1 16.8-8.4 18.2-9.6 1.6-1.6 0.2-0.9-8.7 4zm-184.1 2.8c1.8 0.2 5 0.2 7 0 2.1-0.2 0.7-0.4-3.2-0.4-3.8 0-5.5 0.2-3.8 0.4zm-8.9 1c0.6 0.2 1.8 0.2 2.5 0 0.6-0.3 0.1-0.5-1.3-0.5-1.4 0-1.9 0.2-1.2 0.5zm23 0c0.7 0.3 1.6 0.2 1.9-0.1 0.4-0.3-0.2-0.6-1.3-0.5-1.1 0-1.4 0.3-0.6 0.6zm92.9 6.7c-7.5 4-14 7.6-14.5 8.1-0.9 1.1 27-13.4 28.3-14.6 1.6-1.6 0.4-1-13.8 6.5zm-120.9-5.7c0.7 0.3 1.6 0.2 1.9-0.1 0.4-0.3-0.2-0.6-1.3-0.5-1.1 0-1.4 0.3-0.6 0.6zm175.2 7.4c-6.3 3.4-11.9 6.6-12.5 7.1-1.1 1.2 22.5-11 24-12.4 1.8-1.6-0.1-0.7-11.5 5.3zm-188.6-2.5c-1.8 1.4-1.8 1.4 0.6 0.3 3.1-1.4 3.6-1.9 2.4-1.9-0.6 0-1.9 0.7-3 1.6zm492.4 3c-3.8 1.9-6.8 3.7-6.8 3.9 0 0.5 13.9-6.2 14.9-7.1 1.4-1.3-2.3 0.2-8.1 3.2zm-429.8-2.3c0 0.2 2.3 1.9 5.2 3.6 2.8 1.8 4.7 2.6 4 1.9-1.1-1.4-9.2-6.2-9.2-5.5zm-67.6 2.3c-1.8 1.4-1.8 1.5 0.4 0.4 1.2-0.6 2.2-1.3 2.2-1.5 0-0.8-0.5-0.6-2.6 1.1zm510.7 2.9c1.2 2.2 2.6 4.4 3.2 5 1.5 1.6-2-4.8-3.8-7-0.9-1.1-0.7-0.2 0.6 2zm-518.9 2.9c-6.5 5.3-12.7 12.6-15.3 18.1-1.9 4.1-1.5 3.6 3.3-3.9 2.5-3.9 8.9-10.6 15.3-16 1.7-1.4 2.8-2.6 2.5-2.6-0.3 0-2.9 2-5.8 4.4zm92.9 5.1c3.5 3.8 7.1 8.1 8 9.4l1.5 2.4 4.2-2.2c2.3-1.2 4.2-2.4 4.2-2.6 0-0.3-1.9 0.4-4.2 1.6-4 2-4.1 2-5.1 0.2-0.6-1-4.2-5-8-8.8l-7.1-7zm401.7-4.9c-3.8 2-3.6 2.8 0.2 0.9 1.7-0.9 3-1.8 3-2 0-0.7-0.1-0.6-3.2 1.1zm-374 6c-4.9 2.4-8.8 4.6-8.8 4.9 0 0.3 4.1-1.5 9-4 5-2.5 9-4.7 9-5 0-0.7 0.5-0.9-9.2 4.1zm64.2-3.1c-1.4 0.8-2 1.4-1.4 1.5 0.5 0 1.9-0.7 3-1.5 2.4-1.8 1.6-1.9-1.6 0z"/><path d="m508.8 245.6c-2.7 1.3-4.8 2.7-4.8 2.9 0 0.5 9.9-4.2 10.9-5.1 1.3-1.1-2 0-6.1 2.2zm38.8-0.3c0.3 1 0.9 1.5 1.2 1.2 0.3-0.3 0-1.1-0.7-1.8-1-0.9-1.1-0.8-0.5 0.6zm-346.1 2.2c-2.2 1.3-3.7 2.5-3.3 2.5 0.9 0 7.8-4.1 7.8-4.6 0-0.6-0.3-0.5-4.5 2.1zm299 2.5c-0.3 0.6 0.1 0.7 0.9 0.4 1.8-0.7 2.1-1.4 0.7-1.4-0.6 0-1.3 0.4-1.6 1zm-439.2 0.7c0.9 0.2 2.3 0.2 3 0 0.6-0.3-0.1-0.5-1.8-0.5-1.6 0-2.2 0.2-1.2 0.5zm11.5 0c0.6 0.2 1.8 0.2 2.5 0 0.6-0.3 0.1-0.5-1.3-0.5-1.4 0-1.9 0.2-1.2 0.5zm104.2 9.8c-22.7 12.1-28 15.4-10 6.2 22.5-11.6 31.9-16.8 29.8-16.7-0.2 0-9.1 4.7-19.8 10.5zm-99.2-8.8c0.7 0.3 1.6 0.2 1.9-0.1 0.4-0.3-0.2-0.6-1.3-0.5-1.1 0-1.4 0.3-0.6 0.6zm414 2.9c-3.8 1.9-6.8 3.7-6.8 3.9 0 0.3 3.2-1.1 7-3 3.9-1.9 7-3.7 7-4 0-0.7 0.3-0.8-7.2 3.1zm-439.8-1.6c-0.8 0.5-1 1-0.5 1 0.6 0 1.7-0.5 2.5-1 0.8-0.5 1.1-1 0.5-1-0.5 0-1.7 0.5-2.5 1zm30 0c0.8 0.5 2 1 2.5 1 0.6 0 0.3-0.5-0.5-1-0.8-0.5-1.9-1-2.5-1-0.5 0-0.3 0.5 0.5 1zm463.6 1.5c-1 0.8-9.5 5.5-18.7 10.5-9.3 5-16.9 9.3-16.9 9.6 0 0.6 2.3-0.6 21.9-11.3 16.6-9 16.7-9.1 16-9.7-0.2-0.2-1.3 0.2-2.3 0.9zm-502.3 3.5c-6 4.4-15.3 17.2-15.3 21.1 0 0.7 1.3-1.4 3-4.7 2.6-5.3 10-13.8 15.5-17.9 1.1-0.8 1.8-1.5 1.4-1.5-0.3 0-2.3 1.3-4.6 3zm46.7-1.4c1.4 1 5.6 4.9 9.5 8.8 3.8 3.9 6 5.7 4.8 4.1-2.8-4-11.3-11.9-14.4-13.4l-2.4-1.2zm384.8 7c-3.8 2-3.6 2.8 0.2 0.9 1.7-0.9 3-1.8 3-2 0-0.7-0.1-0.6-3.2 1.1zm-471.1 5.2c-0.9 2.1-1.8 5.6-2.1 7.8-0.5 2.9-0.1 2.4 1.3-2.1 1-3.3 2.2-6.8 2.6-7.8 0.4-0.9 0.5-1.7 0.2-1.7-0.3 0-1.2 1.7-2 3.8zm464.8-1.8c-0.3 0.6 0.1 0.7 0.9 0.4 1.8-0.7 2.1-1.4 0.7-1.4-0.6 0-1.3 0.4-1.6 1zm-13.7 7.1c-4.3 2.1-7.8 4.1-7.8 4.4 0 0.3 3.6-1.3 8-3.5 4.4-2.2 8-4.2 8-4.5 0-0.7 0.4-0.8-8.2 3.6z"/><path d="m149.4 275.6c-1.8 1.4-1.8 1.5 0.4 0.4 1.2-0.6 2.2-1.3 2.2-1.5 0-0.8-0.5-0.6-2.6 1.1zm338.8 10.3c-10 5.4-18.5 10.1-19 10.6-0.9 1 3.2-1.1 22.1-11.2 13.2-7.2 17-9.4 15.5-9.3-0.2 0-8.5 4.5-18.6 9.9zm-345.4-7.3c-3.9 2.1-3.5 2.8 0.5 0.8 3.7-1.9 4.4-2.4 3.1-2.4-0.5 0.1-2.1 0.8-3.6 1.6zm296 4c-3.8 1.9-6.8 3.7-6.8 3.9 0 0.3 3.2-1.1 7-3 3.9-1.9 7-3.7 7-4 0-0.7 0.3-0.8-7.2 3.1zm-329.6-1.6c0 0.8 0.4 2.6 0.8 4 0.6 2 0.8 2.1 0.8 0.5 0-1.1-0.3-2.9-0.8-4-0.5-1.2-0.8-1.4-0.8-0.5zm-108.9 4.5c0 2.7 0.2 3.8 0.4 2.2 0.2-1.5 0.2-3.7 0-5-0.2-1.2-0.4 0-0.4 2.8zm26.8-2.9c0 1.1 0.3 1.4 0.6 0.6 0.3-0.7 0.2-1.6-0.1-1.9-0.3-0.4-0.6 0.2-0.5 1.3zm110.3-0.1c-0.3 0.8-0.4 2-0.2 2.7 0.3 0.7 0.7 0.1 1-1.5 0.6-2.9 0.1-3.6-0.8-1.2zm-111.1 10c0 4.4 0.2 6.1 0.4 3.7 0.2-2.3 0.2-5.9 0-8-0.2-2-0.4-0.1-0.4 4.3zm112 2.5c0 4.7 0.2 6.6 0.4 4.2 0.2-2.3 0.2-6.1 0-8.5-0.2-2.3-0.4-0.4-0.4 4.3zm289.5-6.4c-3.8 2-3.6 2.8 0.2 0.9 1.7-0.9 3-1.8 3-2 0-0.7-0.1-0.6-3.2 1.1zm-316.5 5.9c0 2.2 0.2 3 0.4 1.7 0.2-1.2 0.2-3 0-4-0.3-0.9-0.5 0.1-0.4 2.3zm310.2-2.5c-0.3 0.6 0.1 0.7 0.9 0.4 1.8-0.7 2.1-1.4 0.7-1.4-0.6 0-1.3 0.4-1.6 1zm-8.7 4.6c-2.7 1.3-4.8 2.7-4.8 2.9 0 0.3 2.3-0.6 5-2 2.8-1.4 5-2.8 5-3 0-0.7 0.1-0.7-5.2 2.1zm-412.5 2.9c0 2.2 0.2 3 0.4 1.7 0.2-1.2 0.2-3 0-4-0.3-0.9-0.5 0.1-0.4 2.3zm455.7 3.6c-21 11.2-37 20-37 20.5 0 0.3 3.5-1.4 7.8-3.7 4.2-2.3 9.5-5.2 11.7-6.4 2.2-1.2 9.7-5.2 16.8-8.9 10.7-5.7 13.9-7.7 12.5-7.6-0.2 0-5.5 2.8-11.8 6.1zm-345.8-1.1c0 1.4 0.2 1.9 0.5 1.2 0.2-0.6 0.2-1.8 0-2.5-0.3-0.6-0.5-0.1-0.5 1.3zm275.3 9.1c-11.5 6.1-21.4 11.6-22 12.2-0.5 0.5 2.8-1 7.5-3.5 4.7-2.5 14.7-7.8 22.3-11.7 11.6-6.2 14.9-8.1 13.5-8.1-0.2 0-9.7 5-21.3 11.1zm-248.3-5.1c0 1.4 0.2 1.9 0.5 1.2 0.2-0.6 0.2-1.8 0-2.5-0.3-0.6-0.5-0.1-0.5 1.3zm-136.1 0.6c0 1.1 0.3 1.4 0.6 0.6 0.3-0.7 0.2-1.6-0.1-1.9-0.3-0.4-0.6 0.2-0.5 1.3zm27-0.6c0 1.4 2.8 7.2 2.9 5.9 0-0.4-0.7-2.2-1.5-4-0.8-1.9-1.4-2.7-1.4-1.9zm-26 4.6c0 1.1 0.3 1.4 0.6 0.6 0.3-0.7 0.2-1.6-0.1-1.9-0.3-0.4-0.6 0.2-0.5 1.3zm134 0c0 1.1 0.3 1.4 0.6 0.6 0.3-0.7 0.2-1.6-0.1-1.9-0.3-0.4-0.6 0.2-0.5 1.3zm-104.1 4.4c0.6 1.1 1.3 2 1.6 2 0.2 0 0-0.9-0.6-2-0.6-1.1-1.3-2-1.6-2-0.2 0 0 0.9 0.6 2zm71.6 2.5c-0.9 1.3-3.5 4.3-5.8 6.6-2.6 2.5-3.3 3.5-1.7 2.5 2.3-1.4 7.3-7 9.3-10.4 1.4-2.3-0.2-1.2-1.8 1.3zm-99.6-1.1c0 1 6 12.6 6.5 12.6 0.3 0-0.9-2.8-2.6-6.3-3.3-6.5-3.9-7.5-3.9-6.3zm34.5 6.6c2.7 2.7 5.1 5 5.4 5 0.3 0-1.7-2.3-4.4-5-2.7-2.8-5.1-5-5.4-5-0.3 0 1.7 2.2 4.4 5zm92 1.8c-1.1 2-3.9 6.1-6.3 9.2l-4.3 5.5 4-4.3c4-4.3 9.6-13 8.9-13.7-0.2-0.2-1.3 1.2-2.3 3.3zm225.9 1.8c-1.8 1.4-1.8 1.4 0.6 0.3 3.1-1.4 3.6-1.9 2.4-1.9-0.6 0-1.9 0.7-3 1.6zm53.4 1.3c-7.1 4-7.1 4.7 0 1.2 3.4-1.7 6.2-3.3 6.2-3.6 0-0.9-1.4-0.3-6.2 2.4zm-364.8 0.5c0 0.3 0.9 1 2 1.6 1.1 0.6 2 0.8 2 0.6 0-0.3-0.9-1-2-1.6-1.1-0.6-2-0.8-2-0.6zm45.6 1.1c-1.1 0.8-1.5 1.5-0.9 1.5 0.6 0 1.6-0.7 2.3-1.5 1.6-1.9 1.1-1.9-1.4 0zm259.2 0.6c-2.1 1.1-3.8 2.2-3.8 2.4 0 0.3 1.8-0.4 4-1.5 2.2-1.1 4-2.3 4-2.5 0-0.7 0-0.7-4.2 1.6zm-337.7 1.5c1.8 2.7 8.7 10.2 12.5 13.4 2.3 1.9-4.8-6-13-14.5-0.5-0.6-0.3 0 0.5 1.1zm70.9 1.4c-0.8 0.5-1 1-0.5 1 0.6 0 1.7-0.5 2.5-1 0.8-0.5 1.1-1 0.5-1-0.5 0-1.7 0.5-2.5 1z"/><path d="m391.3 338.1c-6.2 3.3-11.3 6.2-11.3 6.5 0 0.6 20.9-10.4 22.5-11.7 1.7-1.7 0-0.8-11.2 5.2zm-333.5-3.4c0.7 0.3 1.6 0.2 1.9-0.1 0.4-0.3-0.2-0.6-1.3-0.5-1.1 0-1.4 0.3-0.6 0.6zm20 0c0.7 0.3 1.6 0.2 1.9-0.1 0.4-0.3-0.2-0.6-1.3-0.5-1.1 0-1.4 0.3-0.6 0.6zm249.5 7.4c-8.4 4.4-15.3 8.2-15.3 8.5 0 0.6 29-14.4 30.5-15.7 1.8-1.7-0.1-0.8-15.2 7.2zm-261.5-6.4c1.7 0.2 4.7 0.2 6.5 0 1.7-0.2 0.3-0.4-3.3-0.4-3.6 0-5 0.2-3.2 0.4zm49.2 8.4l-4.5 4.1 4.2-3.2c3.7-2.7 6.1-5.1 5.1-5-0.2 0-2.3 1.9-4.8 4.1zm258.8 3.5c-3.8 2-3.6 2.8 0.2 0.9 1.7-0.9 3-1.8 3-2 0-0.7-0.1-0.6-3.2 1.1zm-344.5 1c1.8 2.1 12.6 8.4 14.3 8.4 0.5 0-2-1.6-5.5-3.5-3.5-1.9-7.3-4.2-8.5-5.2-2.1-1.8-2.1-1.8-0.3 0.3zm76.7 1.9c-1.9 1.4-3 2.5-2.5 2.5 0.6 0 2.4-1.1 4-2.5 3.9-3.1 3-3.1-1.5 0z"/><path d="m357.3 356.4c-6.2 3.5-11.6 6.6-12 7.1-0.9 0.9 20.1-10 23.2-12.2 4.5-3.1-0.8-0.7-11.2 5.1zm-51.5-2.8c-2.7 1.3-4.8 2.7-4.8 2.9 0 0.3 2.3-0.6 5-2 2.8-1.4 5-2.8 5-3 0-0.7 0.1-0.7-5.2 2.1zm-205.8 0.4c-0.9 0.6-1 1-0.3 1 0.6 0 1.5-0.5 1.8-1 0.8-1.2 0.4-1.2-1.5 0zm-54 4c0.8 0.5 2.2 0.9 3 0.9 1 0 0.8-0.3-0.5-0.9-2.7-1.2-4.3-1.2-2.5 0zm5.8 1.7c0.7 0.3 1.6 0.2 1.9-0.1 0.4-0.3-0.2-0.6-1.3-0.5-1.1 0-1.4 0.3-0.6 0.6zm33 0c0.7 0.3 1.6 0.2 1.9-0.1 0.4-0.3-0.2-0.6-1.3-0.5-1.1 0-1.4 0.3-0.6 0.6zm204.9 2.5c-3.1 1.7-5.6 3.3-5.4 3.4 0.4 0.5 11.7-5.6 11.7-6.2 0-0.6-0.1-0.6-6.3 2.8zm-232.9-1.5c0.6 0.2 1.8 0.2 2.5 0 0.6-0.3 0.1-0.5-1.3-0.5-1.4 0-1.9 0.2-1.2 0.5zm23 0c0.6 0.2 1.8 0.2 2.5 0 0.6-0.3 0.1-0.5-1.3-0.5-1.4 0-1.9 0.2-1.2 0.5zm-15 1c2.3 0.2 6.1 0.2 8.5 0 2.3-0.2 0.4-0.4-4.3-0.4-4.7 0-6.6 0.2-4.2 0.4zm256.7 14.3c-21.4 11.7-26.3 14.6-17.5 10.4 11.8-5.7 40.2-21.7 37.8-21.4-0.2 0.1-9.3 5-20.3 11zm-49.7-4.2c-5.9 3.2-11.1 6.2-11.5 6.6-0.9 1.1 20.8-10.3 22.2-11.5 1.7-1.7 0-0.9-10.7 4.9zm-22 11.8c-3.8 1.9-6.8 3.7-6.8 3.9 0 0.3 3.2-1.1 7-3 3.9-1.9 7-3.7 7-4 0-0.7 0.3-0.8-7.2 3.1zm-14 7.5c-2.1 1.1-3.8 2.2-3.8 2.4 0 0.3 1.8-0.4 4-1.5 2.2-1.1 4-2.3 4-2.5 0-0.7 0-0.7-4.2 1.6zm48.9 4.8c-5.9 3.2-11 6.1-11.5 6.6-0.9 1.1 21-10.4 22.3-11.6 1.6-1.5 0.3-1-10.8 5zm-56.2-0.9c-0.3 0.6 0.1 0.7 0.9 0.4 1.8-0.7 2.1-1.4 0.7-1.4-0.6 0-1.3 0.4-1.6 1zm-10.7 5.4c-8.4 4.6-8.4 5.4 0 1.2 3.9-2 7.2-3.8 7.2-4.1 0-0.9-1.4-0.3-7.2 2.9zm48 5.5c-6.5 3.7-7.4 4.9-1.3 1.8 5.9-3.1 8.4-4.7 7-4.6-0.5 0.1-3.1 1.3-5.7 2.8zm-64 3.2c-3.2 1.6-5.8 3.2-5.8 3.4 0 0.3 2.7-0.8 6-2.5 3.3-1.7 6-3.2 6-3.5 0-0.7 0.2-0.8-6.2 2.6zm329 0c-2.1 1.1-3.8 2.2-3.8 2.4 0 0.3 1.8-0.4 4-1.5 2.2-1.1 4-2.3 4-2.5 0-0.7 0-0.7-4.2 1.6zm-278 4c-2.1 1.1-3.8 2.2-3.8 2.4 0 0.3 1.8-0.4 4-1.5 2.2-1.1 4-2.3 4-2.5 0-0.7 0-0.7-4.2 1.6zm289.2 1.9c0.6 1.1 1.3 2 1.6 2 0.2 0 0-0.9-0.6-2-0.6-1.1-1.3-2-1.6-2-0.2 0 0 0.9 0.6 2zm-365.8 7.6c-9 4.7-16.2 8.8-16 9 0.4 0.3 31.3-15.8 32.5-17 1.3-1.3-0.5-0.4-16.5 8zm336.5-3.9c-4.8 2.5-8.6 4.7-8.4 4.9 0.4 0.4 17.7-8.5 17.7-9.2 0-0.6 0.2-0.7-9.3 4.3zm-296.4 14.1c-16.1 8.7-29.6 16.2-30 16.7-1.1 1.1 0.2 0.4 31.2-16.3 24.5-13.2 29.8-16.2 28.5-16.2-0.3 0-13.7 7.1-29.7 15.8zm328.8-12.8c1.4 3.1 1.9 3.6 1.9 2.4 0-0.6-0.7-1.9-1.6-3-1.4-1.8-1.4-1.8-0.3 0.6zm2.8 6.3c0.6 1.6 1.1 3 1.1 3.2 0 0.3-2.2 1.6-5 3-2.7 1.4-5 2.8-5 3.1 0 0.3 2.4-0.8 5.3-2.3 4.3-2.4 5.2-3.3 4.9-5.3-0.1-1.4-0.7-2.9-1.3-3.5q-1-1 0 1.8zm-481.1 1.4c0.6 0.2 1.8 0.2 2.5 0 0.6-0.3 0.1-0.5-1.3-0.5-1.4 0-1.9 0.2-1.2 0.5zm426 1.4c-2.1 1.1-3.8 2.2-3.8 2.4 0 0.3 1.8-0.4 4-1.5 2.2-1.1 4-2.3 4-2.5 0-0.7 0-0.7-4.2 1.6zm-435-0.4c0.6 0.2 1.8 0.2 2.5 0 0.6-0.3 0.1-0.5-1.3-0.5-1.4 0-1.9 0.2-1.2 0.5zm17.5 0c0.9 0.2 2.3 0.2 3 0 0.6-0.3-0.1-0.5-1.8-0.5-1.6 0-2.2 0.2-1.2 0.5zm-22.5 1c0.6 0.2 1.8 0.2 2.5 0 0.6-0.3 0.1-0.5-1.3-0.5-1.4 0-1.9 0.2-1.2 0.5zm33 1c0.7 0.3 1.6 0.2 1.9-0.1 0.4-0.3-0.2-0.6-1.3-0.5-1.1 0-1.4 0.3-0.6 0.6zm4.7 1.3c2.7 1.2 4.3 1.2 2.5 0-0.8-0.5-2.2-0.9-3-0.9-1 0-0.8 0.3 0.5 0.9zm-50.5 2c-1.9 1.1-3 1.9-2.5 1.9 0.6 0 2.6-0.8 4.5-1.9 1.9-1.1 3.1-1.9 2.5-1.9-0.5 0-2.6 0.8-4.5 1.9zm116-0.5c-1.4 0.8-2 1.4-1.4 1.5 0.5 0 1.9-0.7 3-1.5 2.4-1.8 1.6-1.9-1.6 0zm318.8 5.1c-4.9 2.4-8.8 4.6-8.8 4.9 0 0.3 4.1-1.5 9-4 5-2.5 9-4.7 9-5 0-0.7 0.5-0.9-9.2 4.1zm-442-1c-3.8 2-3.6 2.8 0.2 0.9 1.7-0.9 3-1.8 3-2 0-0.7-0.1-0.6-3.2 1.1zm113 1c-2.7 1.3-4.8 2.7-4.8 2.9 0 0.3 2.3-0.6 5-2 2.8-1.4 5-2.8 5-3 0-0.7 0.1-0.7-5.2 2.1zm384 1.3c-7.1 4-7.1 4.7 0 1.2 3.4-1.7 6.2-3.3 6.2-3.6 0-0.9-1.4-0.3-6.2 2.4zm-507.8 5.8c-5.8 5.3-16 19.1-16 21.7 0 0.6 1.7-1.8 3.8-5.4 2-3.5 7.2-9.9 11.5-14.2 4.2-4.3 7.6-7.8 7.4-7.8-0.2 0-3.2 2.6-6.7 5.7zm92 0.1c3.6 3.3 6.8 6.1 7.3 6.2 1 0 14.7-6.9 14.7-7.5 0-0.3-3.4 1.2-7.5 3.2l-7.5 3.7-4.2-4c-2.4-2.2-5.4-4.8-6.8-5.9-1.4-1 0.4 0.9 4 4.3zm342.8 2.3c-4.3 2.1-7.8 4.1-7.8 4.4 0 0.3 3.6-1.3 8-3.5 4.4-2.2 8-4.2 8-4.5 0-0.7 0.4-0.8-8.2 3.6zm52.9 2.6c-5.9 3-10.7 5.7-10.5 5.9 0.4 0.4 21.8-10.5 21.8-11.1 0-0.7 0.4-0.9-11.3 5.2zm-335.9 5.1c-5.9 3.2-11.1 6.2-11.5 6.6-0.9 1.1 20.8-10.3 22.2-11.5 1.7-1.7 0-0.9-10.7 4.9zm265 1.6c-4.2 2.2-8 4.5-8.5 5-0.8 0.9 14.1-6.6 16.7-8.3 3.4-2.4-1-0.6-8.2 3.3zm-373.1-2.7c1.8 0.2 5 0.2 7 0 2.1-0.2 0.7-0.4-3.2-0.4-3.8 0-5.5 0.2-3.8 0.4zm16.7 2.3c2.8 1.1 5.1 1.8 5.3 1.6 0.5-0.5-7.4-3.6-9-3.6-0.6 0.1 1 1 3.7 2zm-34.4 2.1c-6.9 4.2-11.4 8.4-15.2 14.3-2.1 3.2-3.8 6.4-3.8 6.9 0 0.6 1.6-1.6 3.5-4.9 4-6.7 8.7-11.3 16-15.5 2.8-1.6 4.6-2.9 4-2.9-0.5 0-2.6 1-4.5 2.1zm446.8-0.5c-3.8 2-3.6 2.8 0.2 0.9 1.7-0.9 3-1.8 3-2 0-0.7-0.1-0.6-3.2 1.1zm-8.6 4.4c-1.8 1.1-9 5-16 8.7-7 3.6-13.1 7-13.7 7.6-0.5 0.5 5.3-2.3 13-6.3 7.7-4 15.7-8.2 17.8-9.2 3.5-1.7 4.6-2.8 3-2.8-0.5 0-2.3 0.9-4.1 2zm-387.3 4.4c2.9 3.2 6.3 7.9 7.6 10.5 1.3 2.5 2.4 4.2 2.5 3.8 0.1-2.2-4.6-9.2-9.6-14.4l-5.6-5.8zm56.9-1.8c-2.7 1.3-4.8 2.7-4.8 2.9 0 0.3 2.3-0.6 5-2 2.8-1.4 5-2.8 5-3 0-0.7 0.1-0.7-5.2 2.1zm268 0c-2.7 1.3-4.8 2.7-4.8 2.9 0 0.3 2.3-0.6 5-2 2.8-1.4 5-2.8 5-3 0-0.7 0.1-0.7-5.2 2.1zm-281 6.9c-3.6 1.9-6.9 3.8-7.2 4.3-0.3 0.5 2.8-0.9 6.9-3 4.1-2.2 7.5-4.1 7.5-4.4 0-0.6 0.2-0.7-7.2 3.1zm260 4.1c-3.8 1.9-6.8 3.7-6.8 3.9 0 0.3 3.2-1.1 7-3 3.9-1.9 7-3.7 7-4 0-0.7 0.3-0.8-7.2 3.1zm-401.6 5.4c0 1.4 0.2 1.9 0.5 1.2 0.2-0.6 0.2-1.8 0-2.5-0.3-0.6-0.5-0.1-0.5 1.3zm444.5 2.7c-3.7 2-6.6 3.7-6.4 3.9 0.4 0.4 13.7-6.5 13.7-7.2 0-0.6 0-0.6-7.3 3.3zm-54.7-1.7c-0.9 0.6-1 1-0.3 1 0.6 0 1.5-0.5 1.8-1 0.8-1.2 0.4-1.2-1.5 0zm-253.8 2.5c0 1.6 0.2 2.2 0.5 1.2 0.2-0.9 0.2-2.3 0-3-0.3-0.6-0.5 0.1-0.5 1.8zm245.6 1.6c-3.2 1.6-5.8 3.2-5.8 3.4 0 0.3 2.7-0.8 6-2.5 3.3-1.7 6-3.2 6-3.5 0-0.7 0.2-0.8-6.2 2.6zm-382.4 7.9c0 5.8 0.1 8.1 0.3 5.2 0.2-2.8 0.2-7.6 0-10.5-0.2-2.8-0.3-0.5-0.3 5.3zm26.7-8.4c0 1.1 0.3 1.4 0.6 0.6 0.3-0.7 0.2-1.6-0.1-1.9-0.3-0.4-0.6 0.2-0.5 1.3zm83 1c0 1.1 0.3 1.4 0.6 0.6 0.3-0.7 0.2-1.6-0.1-1.9-0.3-0.4-0.6 0.2-0.5 1.3zm-83.8 4.9c0 2.2 0.2 3 0.4 1.7 0.2-1.2 0.2-3 0-4-0.3-0.9-0.5 0.1-0.4 2.3zm112.1 5c0 4.9 0.1 7.1 0.3 4.8 0.2-2.3 0.2-6.4 0-9-0.2-2.6-0.3-0.8-0.3 4.2zm286.9-1.9c-6.8 3.6-12.3 6.7-12.3 7 0 0.6 23-11.4 24.5-12.7 1.8-1.7-0.1-0.8-12.2 5.7zm-314 1.4c0 4.1 0.2 5.8 0.4 3.7 0.2-2 0.2-5.4 0-7.5-0.2-2-0.4-0.3-0.4 3.8zm261.3-4.5c-1.1 0.8-1.6 1.5-1 1.5 0.5 0 1.8-0.7 2.8-1.5 1.1-0.8 1.6-1.5 1-1.5-0.5 0-1.8 0.7-2.8 1.5zm-7.8 4.1c-2.7 1.3-4.8 2.7-4.8 2.9 0 0.3 2.3-0.6 5-2 2.8-1.4 5-2.8 5-3 0-0.7 0.1-0.7-5.2 2.1zm-338.6 4.4c0 1.4 0.2 1.9 0.5 1.2 0.2-0.6 0.2-1.8 0-2.5-0.3-0.6-0.5-0.1-0.5 1.3zm330.8 0c-0.9 0.6-1 1-0.3 1 0.6 0 1.5-0.5 1.8-1 0.8-1.2 0.4-1.2-1.5 0zm-7.2 3.6c-2.7 1.3-4.8 2.7-4.8 2.9 0 0.3 2.3-0.6 5-2 2.8-1.4 5-2.8 5-3 0-0.7 0.1-0.7-5.2 2.1zm58 0.5c-2.1 1.1-3.8 2.2-3.8 2.4 0 0.3 1.8-0.4 4-1.5 2.2-1.1 4-2.3 4-2.5 0-0.7 0-0.7-4.2 1.6zm-380.7 1.5c0 1.1 0.3 1.4 0.6 0.6 0.3-0.7 0.2-1.6-0.1-1.9-0.3-0.4-0.6 0.2-0.5 1.3zm110 1.9c-0.1 1.1-0.4 3.1-0.6 4.5l-0.6 2.5 1.1-2.5c0.6-1.3 0.9-3.3 0.7-4.5-0.4-1.9-0.4-1.9-0.6 0zm-136 1.1c0 1.1 0.3 1.4 0.6 0.6 0.3-0.7 0.2-1.6-0.1-1.9-0.3-0.4-0.6 0.2-0.5 1.3zm327.2 6.3c-7.8 4.2-14.5 8-15 8.5-0.9 1 26-12.9 29.2-15.1 4.7-3.2-1.1-0.5-14.2 6.6zm53.2 3.4c-46.4 25.1-51.5 27.9-51.5 28.4 0 0.5 10.4-5 46.5-24.6 24.4-13.2 27.4-14.9 26.5-15-0.3-0.1-10 5-21.5 11.2zm-379.4-5.7c0 1.1 0.3 1.4 0.6 0.6 0.3-0.7 0.2-1.6-0.1-1.9-0.3-0.4-0.6 0.2-0.5 1.3zm26.9-1c0 0.6 0.7 1.9 1.6 3 1.4 1.8 1.4 1.8 0.3-0.6-1.4-3.1-1.9-3.6-1.9-2.4zm77.6 3.1c-0.6 1.4-0.5 1.5 0.5 0.6 0.7-0.7 1-1.5 0.7-1.8-0.3-0.3-0.9 0.2-1.2 1.2zm28.2 1.8c-0.3 1.1-0.9 2.9-1.3 4-0.3 1.1 0.1 0.7 1-0.8 0.9-1.6 1.5-3.3 1.2-4-0.2-0.6-0.6-0.3-0.9 0.8zm-101.9 2.2c0.6 1.1 3.1 4.2 5.7 6.7 2.5 2.6 5.6 5.1 6.7 5.7 1.2 0.6 0.3-0.5-2-2.5-2.3-2-5.9-5.6-7.9-7.9-2-2.3-3.1-3.2-2.5-2zm68.2 4.1c-3 4-3.5 4.9-1.5 3 2.5-2.4 7.1-8.8 6.2-8.8-0.2 0-2.3 2.6-4.7 5.8zm-97.1-4.3c0 0.5 0.5 1.7 1 2.5 0.5 0.8 1 1 1 0.5 0-0.6-0.5-1.7-1-2.5-0.5-0.8-1-1.1-1-0.5zm126.7 8c-0.9 1.9-1.5 3.5-1.2 3.5 0.7 0 3.7-6.1 3.3-6.6-0.3-0.2-1.2 1.2-2.1 3.1zm178.8-1.5c-0.3 0.6 0.1 0.7 0.9 0.4 1.8-0.7 2.1-1.4 0.7-1.4-0.6 0-1.3 0.4-1.6 1zm-11.7 6.1c-5.4 2.7-9.8 5.1-9.8 5.4 0 0.3 4.5-1.7 10-4.5 5.5-2.8 10-5.2 10-5.5 0-0.7 0.6-0.9-10.2 4.6zm-203.4-2c-0.3 0.6-3.4 2.4-6.8 4-3.3 1.6-5.5 2.9-4.8 2.9 1.9 0 10.6-4.6 12.1-6.4 0.8-0.9 1.1-1.6 0.8-1.6-0.3 0-0.9 0.5-1.3 1.1zm31.1 6c-3.7 5.2-13.4 14.2-19 17.5-5.7 3.3-5.9 4.3-0.3 1.2 4.6-2.5 19.8-16.9 21.7-20.6 1.8-3.5 0.6-2.6-2.4 1.9zm-112.7-0.5c1.2 1.8 4.2 5.4 6.8 8 3.8 4.1 3.6 3.7-1.2-2.1-6.7-8.3-8.5-10.2-5.6-5.9zm40.2 0.4c0.8 0.5 2.2 0.9 3 0.9 1 0 0.8-0.3-0.5-0.9-2.7-1.2-4.3-1.2-2.5 0zm5.8 1.7c0.7 0.3 1.6 0.2 1.9-0.1 0.4-0.3-0.2-0.6-1.3-0.5-1.1 0-1.4 0.3-0.6 0.6zm20 0c0.7 0.3 1.6 0.2 1.9-0.1 0.4-0.3-0.2-0.6-1.3-0.5-1.1 0-1.4 0.3-0.6 0.6zm-12.5 1c2 0.2 5.4 0.2 7.5 0 2-0.2 0.3-0.4-3.8-0.4-4.1 0-5.8 0.2-3.7 0.4zm211.5 3.9c-2.7 1.3-4.8 2.7-4.8 2.9 0 0.3 2.3-0.6 5-2 2.8-1.4 5-2.8 5-3 0-0.7 0.1-0.7-5.2 2.1zm-8.8 4.9c-1.4 0.8-2 1.4-1.4 1.5 0.5 0 1.9-0.7 3-1.5 2.4-1.8 1.6-1.9-1.6 0zm-242.8 2.2c1 1.1 3.7 3 6 4.3 5.5 3 4.8 2.2-2.2-2.5-3-2-4.7-2.8-3.8-1.8zm293 3.5c-5.1 2.7-9.1 5.2-8.9 5.4 0.4 0.5 18.7-9.5 18.7-10.2 0-0.6 0.2-0.7-9.8 4.8zm-57.4-2.1c-2.1 1.1-3.8 2.2-3.8 2.4 0 0.3 1.8-0.4 4-1.5 2.2-1.1 4-2.3 4-2.5 0-0.7 0-0.7-4.2 1.6zm-15 8c-5.4 2.7-9.8 5.1-9.8 5.4 0 0.3 4.5-1.7 10-4.5 5.5-2.8 10-5.2 10-5.5 0-0.7 0.6-0.9-10.2 4.6z"/><path d="m37.7 557.1c0.7 0.7 1.5 1 1.8 0.7 0.3-0.3-0.2-0.9-1.2-1.2-1.4-0.6-1.5-0.5-0.6 0.5zm6.3 2.9c1.9 1.1 4.2 1.9 5 1.9 0.8 0-0.5-0.8-2.9-1.9-5.5-2.5-6.7-2.5-2.1 0zm51-0.5c-1.4 0.8-2 1.4-1.5 1.4 0.6 0 2.1-0.6 3.5-1.4 1.4-0.8 2.1-1.4 1.5-1.4-0.5 0-2.1 0.6-3.5 1.4zm207.8 2.6c-2.1 1.1-3.8 2.2-3.8 2.4 0 0.3 1.8-0.4 4-1.5 2.2-1.1 4-2.3 4-2.5 0-0.7 0-0.7-4.2 1.6zm-251 0.6c0.7 0.3 1.6 0.2 1.9-0.1 0.4-0.3-0.2-0.6-1.3-0.5-1.1 0-1.4 0.3-0.6 0.6zm4 1c0.7 0.3 1.6 0.2 1.9-0.1 0.4-0.3-0.2-0.6-1.3-0.5-1.1 0-1.4 0.3-0.6 0.6zm27 0c0.6 0.2 1.8 0.2 2.5 0 0.6-0.3 0.1-0.5-1.3-0.5-1.4 0-1.9 0.2-1.2 0.5zm-22 1c1.2 0.2 3 0.2 4 0 0.9-0.3-0.1-0.5-2.3-0.4-2.2 0-3 0.2-1.7 0.4zm13.5 0c1.5 0.2 3.7 0.2 5 0 1.2-0.2 0-0.4-2.8-0.4-2.7 0-3.8 0.2-2.2 0.4zm205.2 9.9c-17.9 9.8-23 12.9-15.5 9.3 5.8-2.8 29.9-15.8 32.5-17.6 5-3.4-1.5-0.3-17 8.3zm-68.3 3.3c-19.9 10.6-28.1 15.6-15.2 9.1 17-8.5 38-20.2 36-20-0.3 0.1-9.6 5-20.8 10.9zm24.5 20.5c-12.6 6.8-23.1 12.7-23.5 13.1-1 1.1 4-1.5 26.6-13.7 16.9-9.2 21.8-12 20-11.8-0.2 0.1-10.6 5.6-23.1 12.4zm-53.9-4.8c-2.7 1.3-4.8 2.7-4.8 2.9 0 0.3 2.3-0.6 5-2 2.8-1.4 5-2.8 5-3 0-0.7 0.1-0.7-5.2 2.1zm-9.4 5c-1.8 1.4-1.8 1.4 0.6 0.3 3.1-1.4 3.6-1.9 2.4-1.9-0.6 0-1.9 0.7-3 1.6zm-6.6 3.5c-2.1 1.1-3.8 2.2-3.8 2.4 0 0.3 1.8-0.4 4-1.5 2.2-1.1 4-2.3 4-2.5 0-0.7 0-0.7-4.2 1.6zm-7.3 3.9c-0.3 0.6 0.1 0.7 0.9 0.4 1.8-0.7 2.1-1.4 0.7-1.4-0.6 0-1.3 0.4-1.6 1zm-10.7 5.6c-3.8 1.9-6.8 3.7-6.8 3.9 0 0.3 3.2-1.1 7-3 3.9-1.9 7-3.7 7-4 0-0.7 0.3-0.8-7.2 3.1zm57 3.5c-3.2 1.6-5.8 3.2-5.8 3.4 0 0.3 2.7-0.8 6-2.5 3.3-1.7 6-3.2 6-3.5 0-0.7 0.2-0.8-6.2 2.6zm-74 5.5c-3.8 1.9-6.8 3.7-6.8 3.9 0 0.3 3.2-1.1 7-3 3.9-1.9 7-3.7 7-4 0-0.7 0.3-0.8-7.2 3.1zm65.2-0.6c-0.9 0.6-1 1-0.3 1 0.6 0 1.5-0.5 1.8-1 0.8-1.2 0.4-1.2-1.5 0zm-13.2 6.8c-5.9 3.2-11.1 6.2-11.5 6.6-0.9 1.1 20.8-10.3 22.2-11.5 1.7-1.7 0-0.9-10.7 4.9zm-66 1.3c-2.1 1.1-3.8 2.2-3.8 2.4 0 0.3 1.8-0.4 4-1.5 2.2-1.1 4-2.3 4-2.5 0-0.7 0-0.7-4.2 1.6zm-8.8 4.9c-1.9 1.1-3.1 1.9-2.7 2 1.1 0 6.7-2.9 6.7-3.5 0-0.7-0.1-0.7-4 1.5zm56.8 3.6c-2.7 1.3-4.8 2.7-4.8 2.9 0 0.3 2.3-0.6 5-2 2.8-1.4 5-2.8 5-3 0-0.7 0.1-0.7-5.2 2.1zm-60.8-0.2c0 1.1 7.1 13.6 7.7 13.6 0.2 0-1.2-3-3.3-6.8-4.1-7.4-4.4-7.9-4.4-6.8zm46.2 7.9c-3.9 2.2-7.1 4.2-6.9 4.4 0.4 0.3 14.5-7.2 15.6-8.2 1.3-1.4-2.2 0.2-8.7 3.8zm-12.4 6.8c-2.1 1.1-3.8 2.2-3.8 2.4 0 0.3 1.8-0.4 4-1.5 2.2-1.1 4-2.3 4-2.5 0-0.7 0-0.7-4.2 1.6zm-23.6 3.8c1.2 2.2 2.4 3.8 2.6 3.6 0.5-0.4-3.7-7.5-4.4-7.5-0.3 0 0.6 1.8 1.8 3.9zm14.6 1.2c-2.1 1.1-3.8 2.2-3.8 2.4 0 0.3 1.8-0.4 4-1.5 2.2-1.1 4-2.3 4-2.5 0-0.7 0-0.7-4.2 1.6zm-6.8 3.9c-0.9 0.6-1 1-0.3 1 0.6 0 1.5-0.5 1.8-1 0.8-1.2 0.4-1.2-1.5 0z"/><path d="m510.8 0.7c1.2 0.2 3 0.2 4 0 0.9-0.3-0.1-0.5-2.3-0.4-2.2 0-3 0.2-1.7 0.4zm-44.8 15.3c-0.9 0.6-1 1-0.3 1 0.6 0 1.5-0.5 1.8-1 0.8-1.2 0.4-1.2-1.5 0zm87.4 51.4c0.1 3 0.4 4.9 0.8 4.3 1-1.6 1-6.9 0-8.4-0.5-0.7-0.8 1.1-0.8 4.1zm25.9 0.6c0 2.5 0.2 3.5 0.4 2.2 0.2-1.2 0.2-3.2 0-4.5-0.2-1.2-0.4-0.2-0.4 2.3zm-32.3 22.1c0 0.5 0.5 0.7 1 0.4 0.6-0.3 1-0.8 1-1.1 0-0.2-0.4-0.4-1-0.4-0.5 0-1 0.5-1 1.1zm-30 19.9c-0.9 0.6-1 1-0.3 1 0.6 0 1.5-0.5 1.8-1 0.8-1.2 0.4-1.2-1.5 0zm-6.2 25.7c0.7 0.3 1.6 0.2 1.9-0.1 0.4-0.3-0.2-0.6-1.3-0.5-1.1 0-1.4 0.3-0.6 0.6zm-443.8 114.4c-2.2 0.6-2 0.7 1.3 0.8 3.8 0.1 4.7-0.3 2.5-1.1-0.7-0.3-2.4-0.1-3.8 0.3zm481.5 2.9c-0.3 0.6 0.1 0.7 0.9 0.4 1.8-0.7 2.1-1.4 0.7-1.4-0.6 0-1.3 0.4-1.6 1zm-548.4 38.6c0 1.1 0.3 1.4 0.6 0.6 0.3-0.7 0.2-1.6-0.1-1.9-0.3-0.4-0.6 0.2-0.5 1.3zm35.9 29.8c0 0.2 0.8 1 1.8 1.7 1.5 1.3 1.6 1.2 0.3-0.4-1.3-1.6-2.1-2.1-2.1-1.3zm24.7 13.7c0.7 0.7 1.5 1 1.8 0.7 0.3-0.3-0.2-0.9-1.2-1.2-1.4-0.6-1.5-0.5-0.6 0.5zm59.3 3.9c-0.9 0.6-1 1-0.3 1 0.6 0 1.5-0.5 1.8-1 0.8-1.2 0.4-1.2-1.5 0zm-58 89c-1.3 0.8-1.2 1 0.3 1 0.9 0 1.7-0.5 1.7-1 0-1.2-0.1-1.2-2 0zm-38 119.9c0 0.6 0.4 1.3 1 1.6 0.6 0.3 0.7-0.1 0.4-0.9-0.7-1.8-1.4-2.1-1.4-0.7z" fill="rgb(85, 85, 85)"/><path d="m478 97.4c0 0.2 0.8 1 1.8 1.7 1.5 1.3 1.6 1.2 0.3-0.4-1.3-1.6-2.1-2.1-2.1-1.3zm-23 12c0 0.2 0.8 1 1.8 1.7 1.5 1.3 1.6 1.2 0.3-0.4-1.3-1.6-2.1-2.1-2.1-1.3zm-389.2 140.3c0.6 0.2 1.8 0.2 2.5 0 0.6-0.3 0.1-0.5-1.3-0.5-1.4 0-1.9 0.2-1.2 0.5zm483.8 0.6c0.3 1 0.9 1.5 1.2 1.2 0.3-0.3 0-1.1-0.7-1.8-1-0.9-1.1-0.8-0.5 0.6zm-451.6 12.1c0 0.2 0.8 1 1.8 1.7 1.5 1.3 1.6 1.2 0.3-0.4-1.3-1.6-2.1-2.1-2.1-1.3zm-72.8 30.6c0 1.4 0.2 1.9 0.5 1.2 0.2-0.6 0.2-1.8 0-2.5-0.3-0.6-0.5-0.1-0.5 1.3zm44.6 135.7c0.7 0.3 1.6 0.2 1.9-0.1 0.4-0.3-0.2-0.6-1.3-0.5-1.1 0-1.4 0.3-0.6 0.6z" fill="rgb(128, 128, 128)"/><path d="m509.3 24.7c0.9 0.2 2.3 0.2 3 0 0.6-0.3-0.1-0.5-1.8-0.5-1.6 0-2.2 0.2-1.2 0.5zm-51.3 87.7c0 0.2 0.8 1 1.8 1.7 1.5 1.3 1.6 1.2 0.3-0.4-1.3-1.6-2.1-2.1-2.1-1.3zm-391.2 316.3c0.7 0.3 1.6 0.2 1.9-0.1 0.4-0.3-0.2-0.6-1.3-0.5-1.1 0-1.4 0.3-0.6 0.6zm2 25c0.6 0.2 1.8 0.2 2.5 0 0.6-0.3 0.1-0.5-1.3-0.5-1.4 0-1.9 0.2-1.2 0.5zm27.2 9.7c0 0.2 0.8 1 1.8 1.7 1.5 1.3 1.6 1.2 0.3-0.4-1.3-1.6-2.1-2.1-2.1-1.3zm-70.8 33.1c0 1.6 0.2 2.2 0.5 1.2 0.2-0.9 0.2-2.3 0-3-0.3-0.6-0.5 0.1-0.5 1.8z" fill="rgb(170, 170, 170)"/><path d="m518.8 1.7c0.7 0.3 1.6 0.2 1.9-0.1 0.4-0.3-0.2-0.6-1.3-0.5-1.1 0-1.4 0.3-0.6 0.6zm22.2 35.7c0 0.2 0.8 1 1.8 1.7 1.5 1.3 1.6 1.2 0.3-0.4-1.3-1.6-2.1-2.1-2.1-1.3zm-479.2 212.3c0.7 0.3 1.6 0.2 1.9-0.1 0.4-0.3-0.2-0.6-1.3-0.5-1.1 0-1.4 0.3-0.6 0.6zm54.2 198.7c0 0.2 0.8 1 1.8 1.7 1.5 1.3 1.6 1.2 0.3-0.4-1.3-1.6-2.1-2.1-2.1-1.3zm-48.2 91.3c0.6 0.2 1.8 0.2 2.5 0 0.6-0.3 0.1-0.5-1.3-0.5-1.4 0-1.9 0.2-1.2 0.5zm51.6 2.5l-2.9 3.3 3.3-2.9c1.7-1.7 3.2-3.1 3.2-3.3 0-0.8-0.8-0.1-3.6 2.9z" fill="rgb(212, 212, 212)"/><path d="m493.2 3.4c-12.3 3.3-21.1 8.3-29.8 17-17.1 17.1-23.7 36.3-19.9 58.1 0.8 4.4 1.1 8.3 0.7 8.6-0.9 0.7-44.5 24.5-57.2 31.2-5.2 2.7-12.4 6.6-16 8.7-6.9 4-10 5.6-42 22.8-11.3 6-23 12.3-26 13.9-3 1.6-10.4 5.6-16.5 8.8-6 3.2-17.3 9.3-25 13.5-12.4 6.8-60.9 32.7-115.9 61.8l-18.9 10-4.1-5.2c-8.7-11.2-19.3-18.6-34.6-24.1-13.4-4.8-32.8-3.7-46.9 2.6-25.5 11.5-41.5 37.5-39.7 64.5 0.8 11.8 2.7 18.9 7.8 28.7 6.8 13 22 26.6 35.2 31.6 3 1.1 9.4 2.7 14.2 3.7 7.4 1.3 10.3 1.4 17.5 0.5 14.8-1.9 26.2-6.5 36.4-14.8 11.3-9.2 19.7-22 23.1-35.3 1.5-5.7 2.1-19.8 1.2-26.5-0.2-1.5 1.8-3 9.7-7.3 36.4-19.4 61.2-32.7 76-40.7 9.4-5.1 26.5-14.3 38-20.5 11.6-6.2 33.8-18.3 49.5-26.8 15.7-8.5 31.4-17 35-19 3.6-1.9 13.5-7.3 22-12 18.4-10 32.2-17.5 64.6-35l24.1-13 7 6.7c16.2 15.6 38.9 22 61.9 17.6 31.9-6.1 56.1-36.9 54.1-68.9-0.7-11.4-3.8-20.8-10.2-31.1-6.2-10.1-13.6-17.3-23.2-23-10.7-6.3-18.5-8.5-31.8-9.1-9.5-0.4-12.3-0.1-20.3 2zm26.7 22.2c18.9 4.6 33.9 21.8 34.9 39.7 0.9 15-7.1 30.4-20.2 38.9-8.5 5.5-14.7 7.1-26.4 6.6-8.6-0.3-10.6-0.7-16.2-3.5-11.6-5.7-18.9-13.5-23.1-24.8-1.8-4.8-2.1-7.2-1.7-15.4 0.6-11.1 2.1-15.9 7.4-23.7 4.7-6.8 10.6-11.7 18.1-15 10.2-4.5 17.2-5.3 27.2-2.8zm10.6 210.2c-3.8 2.2-20.9 11.1-38 20-29.6 15.5-39.3 20.6-58.5 30.9-4.7 2.5-11.2 6-14.5 7.8-3.3 1.8-10 5.4-15 8-4.9 2.6-11.2 6-14 7.5-2.7 1.5-23.9 12.8-47 25-23.1 12.2-50.3 26.8-60.5 32.3-10.2 5.5-32.7 17.5-50 26.7-17.3 9.2-39.4 20.9-49 26-18.3 9.7-24 12.7-48.2 25.4l-14.8 7.8-4.7-4.5c-6.7-6.4-8.9-7.9-16.6-12.1-13.7-7.3-32-9.5-47.1-5.6-13.5 3.6-22 8.4-31.6 18-9.3 9.3-13.4 15.9-17.2 28-2.9 9.5-3.1 25.9-0.4 36 5.9 22.2 23.4 40.1 46.6 47.9 6.4 2.2 9.3 2.5 20 2.5 10.9 0 13.5-0.3 20.1-2.6 11.3-4 19.4-9.2 28.5-18.2 9.2-9.2 14-17.8 17.5-31.1 2.1-8.3 2.1-18.7-0.1-28-1.6-6.7-1.4-7.3 4.3-10.1 2.8-1.4 9.5-5 14.7-7.9 5.2-2.9 15.6-8.5 23-12.5 18.9-10.2 22.7-12.3 29-15.7 3-1.7 15-8.1 26.5-14.3 11.6-6.2 22.4-12 24-13 1.7-1 9.8-5.4 18-9.8 8.3-4.4 20.6-11 27.5-14.7 6.9-3.7 15.9-8.5 20-10.8 4.1-2.2 10.9-5.9 15-8.2 8.9-5 17.3-9.5 29.5-16 5-2.6 12.4-6.7 16.5-9 7.2-4 52.6-28.5 69.5-37.5 8.4-4.5 13.1-7 33.5-18 6.9-3.7 15.2-8.2 18.5-10 28.6-15.4 34.6-18.7 39-21.3 2.8-1.7 5.1-3.2 5.3-3.3 0.9-0.6-10.4-19.4-11.6-19.4-0.4 0-3.8 1.7-7.7 3.8zm-453.6 14.3c15.7 3.6 29.6 16.9 33.7 32.3 3.5 13.2 0 29.1-8.6 38.8-9.9 11.1-20.2 15.3-35.9 14.6-11.4-0.5-17.9-3.1-26.1-10.5-6.6-5.9-9.4-10.4-12.5-19.9-2.9-8.9-3.1-14.2-0.9-22.7 2.2-8.6 4.8-13.2 11.3-20 10.7-11.3 24.9-15.9 39-12.6zm0.8 204.4c3.4 0.8 8.4 2.5 11 3.7 7 3.3 15.7 12.4 19.6 20.5 2.7 5.9 3.2 8.1 3.5 16.8 0.3 8.5 0.1 10.8-1.8 15.5-8.2 20.7-28.2 31.9-49.3 27.5-9.1-1.9-16-5.5-22.4-11.7-6.3-6.2-9.6-12.1-11.9-21.7-1.5-6.4-1.6-8.4-0.6-14.5 1.6-9.6 6.2-18.4 13.1-25 11.5-10.9 24.3-14.5 38.8-11.1zm450.8-42.6c-3.8 2.1-13.7 7.3-22 11.6-30.5 15.9-72.1 37.8-77 40.5-2.7 1.5-10.8 5.8-18 9.5-7.1 3.7-15.7 8.2-19 10-7.1 3.9-91.2 48.3-103.5 54.7-17.8 9.3-50.3 26.5-68.5 36.3-10.4 5.6-24.4 13-31 16.5-6.6 3.4-14.7 7.7-18 9.5-3.3 1.8-17.7 9.4-32 17-14.3 7.5-27.9 14.8-30.3 16.2l-4.2 2.5 3.7 6.7c7.5 13.5 10.3 17.2 12.3 16.6 1.1-0.3 8.1-4 15.7-8.2 7.6-4.1 19.7-10.7 26.8-14.5 7.2-3.9 15.7-8.5 19-10.3 3.3-1.8 9.6-5.1 14-7.5 4.4-2.3 11.2-5.9 15-8 3.9-2.1 13.1-7 20.5-11 7.4-4 22.7-12.3 34-18.5 11.3-6.2 27.5-14.9 36-19.5 8.5-4.6 24.3-13.1 35-19 10.7-5.9 23.1-12.7 27.5-15 4.4-2.4 9.6-5.2 11.5-6.3 1.9-1.1 6.7-3.6 10.5-5.7 14.3-7.6 21.3-11.4 31.5-17 5.8-3.1 15-8.1 20.5-11 14.5-7.7 24.1-12.8 31.2-16.6 5.9-3.2 30.4-16.2 49.3-26.1 26.1-13.8 29-15.6 29-17.1 0-2.3-10.1-20.2-11.4-20.2-0.6 0.1-4.2 1.8-8.1 3.9z" fill="rgb(255, 255, 255)"/></svg>