<svg xmlns="http://www.w3.org/2000/svg" viewBox="0 0 702 467" width="32" height="32"><path d="m632.1 1.6c-14.4 3.8-27.9 15.2-35 29.5-2.3 4.5-4.1 9-4.1 10 0 1.9-6.4 1.9-281.4 1.9-203.6 0-282.2 0.3-284.5 1.1-4.4 1.5-7.5 7.7-6.8 13.3 0.4 3 1.4 4.8 3.8 6.8l3.3 2.8h283.3c279.1 0 283.3 0 283.3 1.9 0 3.1 6.6 14.9 11.4 20.5 5.2 6.1 13.3 11.9 21.8 15.5 5.8 2.4 7.4 2.6 19.8 2.6 12.5 0 14-0.2 20.1-2.8 12.7-5.4 25.5-18.2 30.4-30.4 8.5-21.3 4.1-42-12.3-58.2-8.2-8.2-14.8-12-24.7-14.6-7.4-1.9-21.2-1.8-28.4 0.1zm28.4 1c17.1 4.4 32.6 19.1 37.8 35.9 8.6 27.9-8.3 58.3-37.2 66.9-6.8 2-21.9 2.1-28.3 0.2-9.7-3-16.2-7-23.8-14.6-7.5-7.4-14-18.1-14-23v-2h-566.8l-3.1-2.6c-3.8-3.2-4.8-7.8-2.7-12.8 3-7.2-22.1-6.6 289.8-6.6h281.3l1.9-6.1c4.9-15.7 20.8-31 36.7-35.3 7.2-2 21.1-2 28.4 0z"/><path d="m638.5 21.9c-5.6 1.4-11 4.9-15.6 9.8-15.1 16.1-10.1 42.2 10 52 4.8 2.4 6.8 2.8 14.1 2.7 6.7 0 9.5-0.5 13.1-2.3 7.1-3.4 12.2-8.3 16-15.3 3.1-5.8 3.4-7 3.3-14.8 0-6.4-0.6-9.6-2.1-13-5.2-11.3-16.6-19-29-19.6-3.8-0.2-8.1 0-9.8 0.5zm16.2 1.5c14.5 3.9 23.7 15.7 23.7 30.6 0.1 6.4-0.4 8.4-2.8 13.3-12.1 23.9-44.2 24.8-56.6 1.6-9.3-17.6-1.2-38.6 17.3-45 6.3-2.2 11.5-2.3 18.4-0.5zm-325.4 146.6c-18.5 3.3-34.6 16.7-41.4 34.3l-2.2 5.7h-128.4c-139.4 0-131.9-0.3-135.7 5.4-0.9 1.4-1.6 4.5-1.6 7.2 0 3.9 0.5 5.1 3.4 8l3.4 3.4h259l0.7 3.2c2 9.1 10.1 20.9 18.5 27.1 6.7 5 15.9 9.3 22.9 10.8 8 1.6 23.3 0.6 30.2-2 15-5.7 28.4-20.1 32.1-34.4l1.2-4.7h130.3c143.2 0 134.5 0.4 137.8-6 3.1-6 0.5-14.9-5.1-17-1.6-0.6-50.1-0.9-133.2-0.8l-130.7 0.3 131.6 0.5c145 0.6 133.7 0 136.6 6.8 1.8 4.3 0.8 9.4-2.4 12.4l-2.5 2.3-131.4 0.5-131.5 0.5-2.3 6.6c-10.5 30.1-44.1 43.5-73.4 29.3-12.2-5.9-23.5-18.7-27-30.6l-1.7-5.8h-258.7l-3.4-3.4c-2.8-2.8-3.4-4.2-3.4-7.6 0-3.4 0.6-4.8 3.4-7.6l3.4-3.4h259.2l0.6-2.8c1.3-5.4 7.9-16.6 12.7-21.4 11-11 22.8-16.1 37.7-16.1 21.8-0.2 39.3 10.8 49 30.6 2.2 4.5 4 7.6 4 6.8 0-2.5-5.9-13.6-9.9-18.4-7.7-9.3-17.2-15.6-27.6-18.3-6.9-1.9-18-2.5-24.2-1.4z"/><path d="m330 191.9c-8.6 2.8-15.9 9-20.1 17.1-1.9 3.7-2.4 6-2.4 13 0 7.3 0.4 9.3 2.8 14.2 5.8 11.7 17.2 18.3 30.7 17.6 17.6-0.9 29.4-13.2 29.5-30.8 0.1-17.7-12.6-30.9-30.5-31.6-4.1-0.2-8.6 0-10 0.5zm21.8 3c6.5 3.3 11.8 8.7 14.9 14.9 3.6 7.3 3.8 18.2 0.6 25.3-5 11.2-15.5 17.9-27.9 17.9-6.2 0-8.1-0.5-14.3-3.6-20.2-10.1-23.1-35.2-5.9-50.3 8.2-7.2 23-9.1 32.6-4.2zm-307.4 164.1c-6.6 1.4-16.1 5.6-21.4 9.5-22.3 16.4-29.2 44.3-16.9 68.8 4.3 8.4 15.3 19.1 24.2 23.5 6.5 3.2 19.1 6.3 24.5 6.1 1.5-0.1-0.8-0.7-5.1-1.5-10.2-1.7-13.9-2.9-21.6-7.1-19.8-11-30.7-34.5-26-56.5 4.7-21.8 23.1-38.7 45.6-42 25-3.6 50.1 12.2 57.4 36.4l2.1 6.8h545.8l3.2 2.9c2.9 2.6 3.3 3.5 3.3 8.1 0 4.6-0.4 5.5-3.3 8.1l-3.2 2.9h-546.7l-0.7 3c-1 5.4-5.7 13.8-11 19.6-8.3 9.4-18.6 15.1-31.4 17.5-4.6 0.8-4.5 0.8 1.3 0.4 14.1-1.1 32-14.4 39-28.9 1.9-4 3.5-8.1 3.5-9 0-1.5 20.3-1.6 272.4-1.6 174.6 0 273.4-0.4 275-1 3.3-1.2 6.6-6.6 6.6-10.8 0-3.7-2-8.1-4.6-10.3-1.5-1.2-40.3-1.5-275.3-1.9l-273.5-0.5-0.8-3.9c-2.1-10.1-12.9-24.8-22.8-31.1-10.2-6.4-28.5-9.9-39.6-7.5z"/><path d="m41.5 382.9c-21.4 10.3-26 37.3-9 53 7.1 6.6 12.4 8.6 22.5 8.6 7.4 0 9.2-0.4 14.4-3 17.6-8.9 23-31.5 11.5-48.2-8.3-12-26.2-16.8-39.4-10.4zm25.8 0.9c15.1 6.7 22.4 24.2 16.7 39.7-4.3 11.4-16.8 20.5-28.2 20.5-12.4 0-23.3-6.6-28.8-17.4-3.1-6.2-3.5-7.7-3.4-14.5 0-5.9 0.5-8.6 2.4-12.1 4.8-9.3 10-14.2 18.9-17.6 4.9-1.9 16.6-1.1 22.4 1.4z"/><path d="m32.3 44.7c0.9 0.2 2.3 0.2 3 0 0.6-0.3-0.1-0.5-1.8-0.5-1.6 0-2.2 0.2-1.2 0.5zm7 0c0.9 0.2 2.5 0.2 3.5 0 0.9-0.3 0.1-0.5-1.8-0.5-1.9 0-2.7 0.2-1.7 0.5zm9.5 0c2.3 0.2 5.9 0.2 8 0 2-0.2 0.1-0.4-4.3-0.4-4.4 0-6.1 0.2-3.7 0.4zm21 0c1.2 0.2 3.2 0.2 4.5 0 1.2-0.2 0.2-0.4-2.3-0.4-2.5 0-3.5 0.2-2.2 0.4zm9 0c1.2 0.2 3 0.2 4 0 0.9-0.3-0.1-0.5-2.3-0.4-2.2 0-3 0.2-1.7 0.4zm8.5 0c0.9 0.2 2.5 0.2 3.5 0 0.9-0.3 0.1-0.5-1.8-0.5-1.9 0-2.7 0.2-1.7 0.5zm7.5 0c0.7 0.3 1.6 0.2 1.9-0.1 0.4-0.3-0.2-0.6-1.3-0.5-1.1 0-1.4 0.3-0.6 0.6zm8 0c1.2 0.2 3 0.2 4 0 0.9-0.3-0.1-0.5-2.3-0.4-2.2 0-3 0.2-1.7 0.4zm7.5 0c0.9 0.2 2.5 0.2 3.5 0 0.9-0.3 0.1-0.5-1.8-0.5-1.9 0-2.7 0.2-1.7 0.5zm7.5 0c0.6 0.2 1.8 0.2 2.5 0 0.6-0.3 0.1-0.5-1.3-0.5-1.4 0-1.9 0.2-1.2 0.5zm9.5 0c0.9 0.2 2.5 0.2 3.5 0 0.9-0.3 0.1-0.5-1.8-0.5-1.9 0-2.7 0.2-1.7 0.5zm7.5 0c0.7 0.3 1.6 0.2 1.9-0.1 0.4-0.3-0.2-0.6-1.3-0.5-1.1 0-1.4 0.3-0.6 0.6zm12 0c3.4 0.2 8.8 0.2 12 0 3.1-0.2 0.3-0.3-6.3-0.3-6.6 0-9.2 0.1-5.7 0.3zm20 0c0.7 0.3 1.6 0.2 1.9-0.1 0.4-0.3-0.2-0.6-1.3-0.5-1.1 0-1.4 0.3-0.6 0.6zm7 0c0.6 0.2 1.8 0.2 2.5 0 0.6-0.3 0.1-0.5-1.3-0.5-1.4 0-1.9 0.2-1.2 0.5zm16 0c1.2 0.2 3.2 0.2 4.5 0 1.2-0.2 0.2-0.4-2.3-0.4-2.5 0-3.5 0.2-2.2 0.4zm17 0c1.2 0.2 3.2 0.2 4.5 0 1.2-0.2 0.2-0.4-2.3-0.4-2.5 0-3.5 0.2-2.2 0.4zm10.5 0c2 0.2 5.4 0.2 7.5 0 2-0.2 0.3-0.4-3.8-0.4-4.1 0-5.8 0.2-3.7 0.4zm15.5 0c1.8 0.2 4.5 0.2 6 0 1.5-0.2 0-0.4-3.3-0.4-3.3 0-4.5 0.2-2.7 0.4zm14.5 0c0.9 0.2 2.5 0.2 3.5 0 0.9-0.3 0.1-0.5-1.8-0.5-1.9 0-2.7 0.2-1.7 0.5zm8 0c0.9 0.2 2.3 0.2 3 0 0.6-0.3-0.1-0.5-1.8-0.5-1.6 0-2.2 0.2-1.2 0.5zm14.5 0c2.3 0.2 5.9 0.2 8 0 2-0.2 0.1-0.4-4.3-0.4-4.4 0-6.1 0.2-3.7 0.4zm25 0c0.7 0.3 1.6 0.2 1.9-0.1 0.4-0.3-0.2-0.6-1.3-0.5-1.1 0-1.4 0.3-0.6 0.6zm32.5 0c0.9 0.2 2.5 0.2 3.5 0 0.9-0.3 0.1-0.5-1.8-0.5-1.9 0-2.7 0.2-1.7 0.5zm7.5 0c0.7 0.3 1.6 0.2 1.9-0.1 0.4-0.3-0.2-0.6-1.3-0.5-1.1 0-1.4 0.3-0.6 0.6zm10 0c2.3 0.2 5.9 0.2 8 0 2-0.2 0.1-0.4-4.3-0.4-4.4 0-6.1 0.2-3.7 0.4zm16.5 0c2 0.2 5.4 0.2 7.5 0 2-0.2 0.3-0.4-3.8-0.4-4.1 0-5.8 0.2-3.7 0.4zm13.5 0c1.2 0.2 3 0.2 4 0 0.9-0.3-0.1-0.5-2.3-0.4-2.2 0-3 0.2-1.7 0.4zm8.5 0c0.9 0.2 2.5 0.2 3.5 0 0.9-0.3 0.1-0.5-1.8-0.5-1.9 0-2.7 0.2-1.7 0.5zm7.5 0c0.7 0.3 1.6 0.2 1.9-0.1 0.4-0.3-0.2-0.6-1.3-0.5-1.1 0-1.4 0.3-0.6 0.6zm8 0c0.6 0.2 1.8 0.2 2.5 0 0.6-0.3 0.1-0.5-1.3-0.5-1.4 0-1.9 0.2-1.2 0.5zm8.5 0c0.9 0.2 2.5 0.2 3.5 0 0.9-0.3 0.1-0.5-1.8-0.5-1.9 0-2.7 0.2-1.7 0.5zm6.5 0c0.6 0.2 1.8 0.2 2.5 0 0.6-0.3 0.1-0.5-1.3-0.5-1.4 0-1.9 0.2-1.2 0.5zm6.5 0c1.5 0.2 3.9 0.2 5.5 0 1.5-0.2 0.2-0.4-2.8-0.4-3 0-4.3 0.2-2.7 0.4zm10.5 0c0.7 0.3 1.6 0.2 1.9-0.1 0.4-0.3-0.2-0.6-1.3-0.5-1.1 0-1.4 0.3-0.6 0.6zm10 0c2.3 0.2 5.9 0.2 8 0 2-0.2 0.1-0.4-4.3-0.4-4.4 0-6.1 0.2-3.7 0.4zm24.5 0c2 0.2 5.4 0.2 7.5 0 2-0.2 0.3-0.4-3.8-0.4-4.1 0-5.8 0.2-3.7 0.4zm13.5 0c0.7 0.3 1.6 0.2 1.9-0.1 0.4-0.3-0.2-0.6-1.3-0.5-1.1 0-1.4 0.3-0.6 0.6zm8.5 0c2.6 0.2 6.8 0.2 9.5 0 2.6-0.2 0.4-0.3-4.8-0.3-5.2 0-7.4 0.1-4.7 0.3zm16 0c0.9 0.2 2.5 0.2 3.5 0 0.9-0.3 0.1-0.5-1.8-0.5-1.9 0-2.7 0.2-1.7 0.5zm7.5 0c0.7 0.3 1.6 0.2 1.9-0.1 0.4-0.3-0.2-0.6-1.3-0.5-1.1 0-1.4 0.3-0.6 0.6zm8 0c1.2 0.2 3 0.2 4 0 0.9-0.3-0.1-0.5-2.3-0.4-2.2 0-3 0.2-1.7 0.4zm8 0c0.7 0.3 1.6 0.2 1.9-0.1 0.4-0.3-0.2-0.6-1.3-0.5-1.1 0-1.4 0.3-0.6 0.6zm8.5 0c0.9 0.2 2.5 0.2 3.5 0 0.9-0.3 0.1-0.5-1.8-0.5-1.9 0-2.7 0.2-1.7 0.5zm7.5 0c0.7 0.3 1.6 0.2 1.9-0.1 0.4-0.3-0.2-0.6-1.3-0.5-1.1 0-1.4 0.3-0.6 0.6zm8 0c0.7 0.3 1.6 0.2 1.9-0.1 0.4-0.3-0.2-0.6-1.3-0.5-1.1 0-1.4 0.3-0.6 0.6zm5.5 0c0.9 0.2 2.5 0.2 3.5 0 0.9-0.3 0.1-0.5-1.8-0.5-1.9 0-2.7 0.2-1.7 0.5zm11 0c0.9 0.2 2.3 0.2 3 0 0.6-0.3-0.1-0.5-1.8-0.5-1.6 0-2.2 0.2-1.2 0.5zm7.5 0c0.7 0.3 1.6 0.2 1.9-0.1 0.4-0.3-0.2-0.6-1.3-0.5-1.1 0-1.4 0.3-0.6 0.6zm14 0c0.6 0.2 1.8 0.2 2.5 0 0.6-0.3 0.1-0.5-1.3-0.5-1.4 0-1.9 0.2-1.2 0.5zm111.4 8.8c0 1.6 0.2 2.2 0.5 1.2 0.2-0.9 0.2-2.3 0-3-0.3-0.6-0.5 0.1-0.5 1.8zm-361.9 201.2c0.9 0.2 2.3 0.2 3 0 0.6-0.3-0.1-0.5-1.8-0.5-1.6 0-2.2 0.2-1.2 0.5zm-285.5 211c0.7 0.3 1.6 0.2 1.9-0.1 0.4-0.3-0.2-0.6-1.3-0.5-1.1 0-1.4 0.3-0.6 0.6z" fill="rgb(128, 128, 128)"/><path d="m611.4 14.2l-1.9 2.3 2.3-1.9c2.1-1.8 2.7-2.6 1.9-2.6-0.2 0-1.2 1-2.3 2.2zm1.7 41.4c0 1.1 0.3 1.4 0.6 0.6 0.3-0.7 0.2-1.6-0.1-1.9-0.3-0.4-0.6 0.2-0.5 1.3zm-276.3 135.1c0.6 0.2 1.8 0.2 2.5 0 0.6-0.3 0.1-0.5-1.3-0.5-1.4 0-1.9 0.2-1.2 0.5zm318.2 22.7c0 0.2 0.8 1 1.8 1.7 1.5 1.3 1.6 1.2 0.3-0.4-1.3-1.6-2.1-2.1-2.1-1.3zm-357 42.9c0 0.2 1.5 1.6 3.3 3.3l3.2 2.9-2.9-3.3c-2.8-3-3.6-3.7-3.6-2.9zm76.9 4.4c-1.3 1.6-1.2 1.7 0.4 0.4 1.6-1.3 2.1-2.1 1.3-2.1-0.2 0-1 0.8-1.7 1.7zm-343.9 174.7c0 0.2 0.8 1 1.8 1.7 1.5 1.3 1.6 1.2 0.3-0.4-1.3-1.6-2.1-2.1-2.1-1.3z" fill="rgb(212, 212, 212)"/><path d="m635.5 2.4c-18.1 3.6-34.4 18.7-40.1 36.8l-1.8 5.8h-565.8l-2.9 2.9c-5.4 5.4-3.2 15.1 3.9 17 2.4 0.7 94.1 1 266.2 1.1h299.5l1.9 5.2c2.7 7.9 10 18.1 16.3 23.2 5.9 4.7 6.8 5.2 14.6 8.6 18.8 8.2 41.5 3.5 56.7-11.9 13.6-13.7 18.8-31.6 14.5-50-2.2-9.1-6-15.5-14-23.7-13.4-13.6-30.3-18.8-49-15zm23.2 20.7c7.6 2.8 17.2 12.2 19.6 19.4 2.2 6.3 2.2 16.7 0 23-2.6 7.5-13.1 17.8-20.3 19.9-12.7 3.8-25 1.1-33.8-7.3-7.1-6.9-10.4-14.3-10.6-24.1-0.1-6.7 0.3-8.4 3.2-14.2 3.9-8 11-14.8 17.9-17.1 7-2.3 17-2.1 24 0.4zm-333.6 149.4c-16.4 4.6-31.1 18.1-35.8 32.9l-1.8 5.6h-128.5c-144.9 0-134.1-0.6-136.9 7.5-1.2 3.5-1.1 4.5 0.2 7.8 3.1 7.2-5.9 6.7 136.4 6.7l127.8-0.1 2.6 6.9c3.2 8.7 7.4 14.7 14.5 21 9.4 8.4 24 14.2 35.9 14.2 6.1 0 16.7-2.6 23-5.5 12.3-5.9 24.1-20.5 26.9-33.8l0.6-2.7h130.1c141.6 0 135.7 0.2 137.9-5.5 1.9-4.9 1.2-9.2-1.9-12.7l-2.9-3.3-131.6-0.3c-110.8-0.2-131.6-0.4-131.6-1.6 0-3.2-8.3-17.5-12.9-22.2-5.6-5.8-14.2-11.4-21.6-13.9-6.9-2.4-23.4-2.9-30.4-1zm25.4 20.3c7.3 2.9 14.3 9.6 17.8 16.9 2.7 5.9 2.9 7.1 2.5 14.6-0.7 12.8-6.4 21.7-17.5 27.2-4.9 2.4-7 2.9-13.8 2.9-6.8 0.1-8.9-0.3-13.7-2.7-6.4-3.1-13.1-9.4-15.8-14.7-6.4-12.6-3-30 7.5-38.5 10.4-8.4 21.3-10.3 33-5.7zm-307.4 168.2c-8.7 1.8-19 7.6-25.6 14.4-16.9 17.2-20.5 38.9-10.3 60.6 6 12.7 20.7 24.1 35.4 27.6 9 2.1 22.8 1.5 30.2-1.4 14.9-5.7 27.3-18.4 31.7-32.2l1.7-5.5 271.2 0.3c192.1 0.2 272.2 0 274.8-0.8 5.8-1.7 8.9-10.3 5.8-16.1-2.8-5.2 15.1-4.9-279.4-4.9h-272.4l-0.7-3.9c-0.3-2.1-1.9-6.5-3.4-9.7-6.1-12.7-16.2-21.9-29.1-26.3-7.3-2.6-22.6-3.6-29.9-2.1zm21.4 20.2c5.9 1.9 7.9 3.1 13.1 8.2 7.3 7.3 9.9 13.6 9.8 23.6-0.2 16.6-12.2 30.1-28.3 31.9-11.3 1.3-20.1-1.8-28.1-9.8-8.6-8.6-11.4-22.5-7-34.5 3.5-9.2 13.8-18.3 23.5-20.7 5.4-1.3 9.8-0.9 17 1.3z" fill="rgb(255, 255, 255)"/><path d="m613.1 52.6c0 1.1 0.3 1.4 0.6 0.6 0.3-0.7 0.2-1.6-0.1-1.9-0.3-0.4-0.6 0.2-0.5 1.3zm-559.8 327.1c0.9 0.2 2.3 0.2 3 0 0.6-0.3-0.1-0.5-1.8-0.5-1.6 0-2.2 0.2-1.2 0.5z" fill="rgb(170, 170, 170)"/><path d="m180.8 44.7c0.7 0.3 1.6 0.2 1.9-0.1 0.4-0.3-0.2-0.6-1.3-0.5-1.1 0-1.4 0.3-0.6 0.6zm79 0c0.7 0.3 1.6 0.2 1.9-0.1 0.4-0.3-0.2-0.6-1.3-0.5-1.1 0-1.4 0.3-0.6 0.6zm25 0c0.7 0.3 1.6 0.2 1.9-0.1 0.4-0.3-0.2-0.6-1.3-0.5-1.1 0-1.4 0.3-0.6 0.6zm51 126c0.6 0.2 1.8 0.2 2.5 0 0.6-0.3 0.1-0.5-1.3-0.5-1.4 0-1.9 0.2-1.2 0.5zm-318.4 203.5l-1.9 2.3 2.3-1.9c2.1-1.8 2.7-2.6 1.9-2.6-0.2 0-1.2 1-2.3 2.2zm38.6 91.2c0 0.2 0.7 0.7 1.6 1 0.8 0.3 1.2 0.2 0.9-0.4-0.6-1-2.5-1.4-2.5-0.6z" fill="rgb(85, 85, 85)"/></svg>