<svg xmlns="http://www.w3.org/2000/svg" viewBox="0 0 716 200" width="32" height="32"><path d="m88 1.1c-9.8 1.1-23.4 5.1-31.3 9-26.1 13.2-46.2 37.8-53.9 66.1-3.2 11.7-3.2 36.5 0 48 7.5 27.3 25 50.2 48.5 63.4 8 4.5 20.5 9.4 23.5 9.4 0.9-0.1-1.9-1.3-6.3-2.9-16.2-5.6-28-13.4-40.8-27.1-16.1-17.1-25.2-38.4-26.4-62-0.7-14.1 1.2-25.9 6.1-39 9-24 28.5-45.1 51-55.6 20.9-9.6 47-11.6 69.6-5.3 33.8 9.3 60 36.9 69 72.6l1.1 4.3h507.8l3.4 3c4.2 3.6 5.7 8.6 5.7 18.1 0 8-2.3 14.8-5.7 16.8-1 0.6-1.3 1.1-0.7 1.1 3.7 0.1 7.4-8.9 7.4-18.2 0-9.2-1.3-14-5-18.1l-2.8-3.2-254.6-0.3c-241-0.2-254.5-0.3-255-2-0.2-0.9-1.4-5.1-2.6-9.2-1.2-4.1-4.2-11.4-6.8-16.3-14.9-28.5-41.6-47.3-73.9-52.2-10.7-1.6-15.9-1.7-27.3-0.4z"/><path d="m84.6 38.6c-19.6 4.7-37.2 21.6-44.2 42.4-2.9 8.7-2.7 28.2 0.5 37.5 5 14.5 13.7 25.7 26.7 34.4 7.5 5.1 18.3 9.2 23.3 9l2.6-0.2-2.5-0.4c-4.4-0.7-15.3-4.5-18.9-6.6-10.9-6.2-21.3-17.1-27-28.5-5.3-10.5-7.5-27.5-5-39.4 1.6-7.7 7.9-20.4 13.5-27.3 6.1-7.3 17.8-15.5 27-18.6 5.9-2.1 8.7-2.4 19.9-2.4 10.8 0.1 14.1 0.4 19.2 2.3 24.1 8.6 41.6 31 43 55.3 1.1 17.3-4.9 33.8-16.7 46.2-11.8 12.5-24.6 18.4-42.5 19.7l-10 0.7 8 0.1c10.5 0.2 19.1-1.9 28.8-7.1 32.5-17.2 43.6-59.2 23.6-89.1-9.7-14.6-25.5-25.8-40.3-28.5-8-1.5-21.8-1.2-29 0.5zm240.7 83.1c70.3 0.2 185.1 0.2 255 0 70-0.1 12.5-0.2-127.8-0.2-140.2 0-197.5 0.1-127.2 0.2zm-130.2 8.5c-7.7 24.3-27.2 46.3-52.1 58.8-9.3 4.7-15.5 6.6-27.1 8.6-9.8 1.6-22.9 1.6-35.4-0.1-3.7-0.5-3.8-0.4-1 0.5 5.3 1.8 25.5 2.4 34.5 1.1 20.6-3.1 36.9-10.8 53.5-25.5 14.1-12.4 26.8-32.5 30-47.4 1.2-5.5 0-3.5-2.4 4z"/><path d="m28.4 32.2l-1.9 2.3 2.3-1.9c1.2-1.1 2.2-2.1 2.2-2.3 0-0.8-0.8-0.2-2.6 1.9z" fill="rgb(85, 85, 85)"/><path d="m98.8 36.7c1.2 0.2 3 0.2 4 0 0.9-0.3-0.1-0.5-2.3-0.4-2.2 0-3 0.2-1.7 0.4zm-61.7 62.9c0 1.1 0.3 1.4 0.6 0.6 0.3-0.7 0.2-1.6-0.1-1.9-0.3-0.4-0.6 0.2-0.5 1.3z" fill="rgb(128, 128, 128)"/><path d="m1.1 93.6c0 1.1 0.3 1.4 0.6 0.6 0.3-0.7 0.2-1.6-0.1-1.9-0.3-0.4-0.6 0.2-0.5 1.3zm0 14c0 1.1 0.3 1.4 0.6 0.6 0.3-0.7 0.2-1.6-0.1-1.9-0.3-0.4-0.6 0.2-0.5 1.3z" fill="rgb(170, 170, 170)"/><path d="m1.1 96.6c0 1.1 0.3 1.4 0.6 0.6 0.3-0.7 0.2-1.6-0.1-1.9-0.3-0.4-0.6 0.2-0.5 1.3zm163.1 2.9c0 1.6 0.2 2.2 0.5 1.2 0.2-0.9 0.2-2.3 0-3-0.3-0.6-0.5 0.1-0.5 1.8zm-129.2 74.9c0 0.2 0.8 1 1.8 1.7 1.5 1.3 1.6 1.2 0.3-0.4-1.3-1.6-2.1-2.1-2.1-1.3zm58.8 24.3c0.6 0.2 1.8 0.2 2.5 0 0.6-0.3 0.1-0.5-1.3-0.5-1.4 0-1.9 0.2-1.2 0.5z" fill="rgb(212, 212, 212)"/><path d="m84.5 3c-13.3 2.1-27.8 7.7-38.6 15.1-8.6 5.7-22.3 19.7-28.3 28.8-17.1 25.7-20.6 59.9-9.1 88.9 10.9 27.5 33.9 49.5 60.5 58 41 13.1 84.6-1 110.9-36 7.6-10 11.6-17.6 15-28.6l2.6-8.2h254.5c229.3 0 254.8-0.1 256.8-1.6 8-5.6 7.9-28.8-0.1-34.8l-2.8-2.1-254.4-0.3-254.3-0.2-0.6-3.5c-1.2-6.4-4.6-15.9-8.2-23-12.9-25.4-35.1-43.2-63-50.6-9.1-2.4-31-3.4-40.9-1.9zm32 35.1c6.6 1.9 18 7.7 22.7 11.5 6 5 14.4 14.9 17.9 21.1 4.6 8 7 17.4 7.1 27.8 0.1 11.8-1.5 19.1-6.4 29.5-7.4 15.4-24 29.2-40.6 33.7-6.7 1.8-20.2 1.9-29 0.3-17.6-3.2-35.3-17-44-34.5-3.6-7.2-7.2-21.2-7.2-27.4 0.3-31.5 23.6-58.7 54.5-63.5 4.7-0.7 20.5 0.2 25 1.5z" fill="rgb(255, 255, 255)"/></svg>