<svg xmlns="http://www.w3.org/2000/svg" viewBox="0 0 754 186" width="32" height="32"><path d="m358.6 1.5c-20.2 4.2-34.6 12.3-49.2 27.8-10.9 11.4-19.5 26.7-23.5 42l-1.3 4.7-136.1 0.2-136.1 0.3-4.2 2.8c-11.5 7.6-10.7 26.3 1.4 32.3 3.8 1.8 7.9 1.9 139.6 2.2l135.6 0.2 1.8 5.3c2.6 8 10.2 22.6 14.9 28.7 9.1 11.8 23.1 23.1 36.8 29.6 11.2 5.3 21.3 7.5 36.2 8.1 26.9 1 47.3-6.5 66.8-24.7 12.6-11.8 21.3-25.2 25.7-39.8l2.2-7.2 135.6-0.2c134.7-0.3 135.7-0.3 139.2-2.3 1.9-1.2 4.8-4 6.5-6.3 2.4-3.5 2.9-5.3 3-10.1 0-5-0.5-6.6-3-10.2-1.6-2.3-5-5.3-7.4-6.6l-4.4-2.3h-269.4l-0.7-4.1c-1.1-6.6-6.8-19.8-12.1-27.9-6.3-9.4-18.2-22-25.8-27.2-8.3-5.6-20.9-11.4-30.2-13.9-10.5-2.7-32-3.5-41.9-1.4zm28.3 0.5c22.5 2.3 40.9 11.6 57.1 28.7 12.4 13.1 18.9 25.3 24.6 46 0.2 1 30 1.2 135.1 1.2 99.4-0.1 135.6 0.2 137.8 1.1 6.9 2.6 10.9 9.6 10.3 17.7-0.7 8.4-5.9 14-14.5 15.4-2.6 0.4-64.2 0.8-136.8 0.8h-132l-3 8.9c-9.1 26.9-32.6 50.4-58.6 58.7-44.8 14.1-92.6-6.5-113.6-49-2.2-4.4-4.6-10.2-5.3-12.8-0.7-2.7-1.8-5.1-2.4-5.3-0.6-0.2-61.8-0.5-136.1-0.7l-135-0.2-4.5-2.5c-12-6.8-11.8-24.4 0.5-30.8 2.7-1.3 18.2-1.5 138.8-1.6l135.7-0.1 3.9-11.2c5.7-16.6 12.7-27.9 23.9-38.9 11-10.9 21-17 35.9-22 6.5-2.2 11.5-3 26.4-4.3 0.9 0 6.2 0.4 11.8 0.9z"/><path d="m363.6 35.5c-10.8 2.8-18.5 7.2-27.1 15.9-9.2 9.3-13.6 16.8-16.5 28.2-5.2 20.1 0.4 39.9 15.4 54.9 32.4 32.4 87.7 17.7 99.1-26.5 2.2-8.5 1.6-25-1.2-33.2-6.1-17.6-19.4-31-37.1-37.5-8.6-3.2-23.8-4-32.6-1.8zm30.6 2.5c12.5 3.9 22.4 11.3 30.4 23 22.3 32.7 6.9 76.2-31.2 87.6-8.7 2.6-23.8 2.5-32.9-0.4-20.4-6.3-35.4-22.8-40.1-43.9-4.8-21.7 6.5-47.3 26.8-60.4 13.5-8.7 31-10.9 47-5.9z"/><path d="m374.8 1.7c0.6 0.2 1.8 0.2 2.5 0 0.6-0.3 0.1-0.5-1.3-0.5-1.4 0-1.9 0.2-1.2 0.5zm-63.9 27c-1.3 1.6-1.2 1.7 0.4 0.4 0.9-0.7 1.7-1.5 1.7-1.7 0-0.8-0.8-0.3-2.1 1.3zm-291.1 49c0.7 0.3 1.6 0.2 1.9-0.1 0.4-0.3-0.2-0.6-1.3-0.5-1.1 0-1.4 0.3-0.6 0.6zm24 0c0.7 0.3 1.6 0.2 1.9-0.1 0.4-0.3-0.2-0.6-1.3-0.5-1.1 0-1.4 0.3-0.6 0.6zm392.4 15.3c0 1.9 0.2 2.7 0.5 1.7 0.2-0.9 0.2-2.5 0-3.5-0.3-0.9-0.5-0.1-0.5 1.8zm-399.9 19.7c9.7 0.2 25.7 0.2 35.5 0 9.7-0.1 1.7-0.2-17.8-0.2-19.5 0-27.5 0.1-17.7 0.2zm54.5 0c0.6 0.2 1.8 0.2 2.5 0 0.6-0.3 0.1-0.5-1.3-0.5-1.4 0-1.9 0.2-1.2 0.5zm10 0c2.3 0.2 6.1 0.2 8.5 0 2.3-0.2 0.4-0.4-4.3-0.4-4.7 0-6.6 0.2-4.2 0.4zm16 0c0.6 0.2 1.8 0.2 2.5 0 0.6-0.3 0.1-0.5-1.3-0.5-1.4 0-1.9 0.2-1.2 0.5zm9.5 0c3.2 0.2 8.1 0.2 11 0 2.9-0.2 0.3-0.3-5.8-0.3-6 0-8.4 0.1-5.2 0.3zm21.5 0c2.9 0.2 7.4 0.2 10 0 2.6-0.2 0.2-0.3-5.3-0.3-5.5 0-7.6 0.1-4.7 0.3zm17 0c0.6 0.2 1.8 0.2 2.5 0 0.6-0.3 0.1-0.5-1.3-0.5-1.4 0-1.9 0.2-1.2 0.5zm12.5 0c4.3 0.2 11 0.2 15 0 4-0.1 0.5-0.3-7.8-0.3-8.2 0-11.5 0.2-7.2 0.3zm29.5 0c3.4 0.2 9 0.2 12.5 0 3.4-0.2 0.6-0.3-6.3-0.3-6.9 0-9.7 0.1-6.2 0.3zm27.5 0c0.9 0.2 2.5 0.2 3.5 0 0.9-0.3 0.1-0.5-1.8-0.5-1.9 0-2.7 0.2-1.7 0.5zm8 0c0.9 0.2 2.3 0.2 3 0 0.6-0.3-0.1-0.5-1.8-0.5-1.6 0-2.2 0.2-1.2 0.5zm12.5 0c2.8 0.2 7.6 0.2 10.5 0 2.8-0.2 0.5-0.3-5.3-0.3-5.8 0-8.1 0.1-5.2 0.3zm20 0c1.2 0.2 3.2 0.2 4.5 0 1.2-0.2 0.2-0.4-2.3-0.4-2.5 0-3.5 0.2-2.2 0.4zm230.5 0c18.1 0.2 47.3 0.2 65 0 17.7-0.1 3-0.2-32.8-0.2-35.7 0-50.2 0.1-32.2 0.2zm98.5 0c0.6 0.2 1.8 0.2 2.5 0 0.6-0.3 0.1-0.5-1.3-0.5-1.4 0-1.9 0.2-1.2 0.5zm19.5 0c6.5 0.2 16.8 0.2 23 0 6.2-0.1 0.9-0.3-11.8-0.3-12.6 0-17.7 0.2-11.2 0.3zm53.5 0c10.5 0.2 27.9 0.2 38.5 0 10.5-0.1 1.9-0.2-19.3-0.2-21.2 0-29.8 0.1-19.2 0.2z" fill="rgb(85, 85, 85)"/><path d="m310.4 27.2l-1.9 2.3 2.3-1.9c2.1-1.8 2.7-2.6 1.9-2.6-0.2 0-1.2 1-2.3 2.2zm25.5 23.5c-1.3 1.6-1.2 1.7 0.4 0.4 0.9-0.7 1.7-1.5 1.7-1.7 0-0.8-0.8-0.3-2.1 1.3z" fill="rgb(128, 128, 128)"/><path d="m382.8 184.7c0.7 0.3 1.6 0.2 1.9-0.1 0.4-0.3-0.2-0.6-1.3-0.5-1.1 0-1.4 0.3-0.6 0.6z" fill="rgb(170, 170, 170)"/><path d="m1.1 93.6c0 1.1 0.3 1.4 0.6 0.6 0.3-0.7 0.2-1.6-0.1-1.9-0.3-0.4-0.6 0.2-0.5 1.3z" fill="rgb(212, 212, 212)"/><path d="m359.5 3c-11.5 2.1-27 8.7-36.1 15.5-7.8 5.9-13.2 11.4-19.6 20-8.3 11-13.4 21.7-16.8 35.2l-1.1 4.3-136.7 0.2c-131.9 0.3-136.8 0.4-139.8 2.2-5.8 3.5-9.1 12.4-7.2 19.5 1.3 4.7 6.3 9.9 10.8 11.1 2.2 0.6 53 1 138.6 1h135l1.3 5.2c1.5 5.6 8.7 21 12.4 26.2 4.2 5.9 5.2 7.1 11.9 13.8 15.1 15 32.5 23.5 53.2 26.3 9.9 1.3 13 1.3 23.3 0.1 13.4-1.6 21.3-4 32.7-10 19.9-10.4 36.4-30.3 43.8-52.6l3-9h270.5l4.3-2.3c4.9-2.6 9-9 9-13.9 0-6.9-5.8-15.1-11.9-16.8-2.3-0.6-52.5-1-137.7-1h-134.1l-2.2-8.3c-8.1-30.6-33.9-56.2-65.6-65-8-2.2-32.5-3.2-41-1.7zm31 32.2c19.7 4.2 37.2 20.7 43.7 41.3 4.7 14.7 1.9 36.4-6.2 48.5-8.1 12.3-21.5 22-35 25.5-9.9 2.6-28.3 1.7-36.9-1.8-9.2-3.8-15.1-7.9-22.3-15.5-10.8-11.6-15.8-24-15.8-39.9 0-15.4 4.7-27.3 16.2-40.5 13.4-15.5 34.8-22.2 56.3-17.6z" fill="rgb(255, 255, 255)"/><path d="m113.8 112.7c0.7 0.3 1.6 0.2 1.9-0.1 0.4-0.3-0.2-0.6-1.3-0.5-1.1 0-1.4 0.3-0.6 0.6zm112 0c0.7 0.3 1.6 0.2 1.9-0.1 0.4-0.3-0.2-0.6-1.3-0.5-1.1 0-1.4 0.3-0.6 0.6z" fill="rgb(85, 85, 128)"/></svg>