<svg xmlns="http://www.w3.org/2000/svg" viewBox="0 0 563 368" width="32" height="32"><path d="m342.5 255.1c-0.4 0.6-0.5 1.2-0.2 1.5 0.2 0.3 0.7-0.2 1-1.1 0.7-1.7 0.1-2-0.8-0.4z" fill="rgb(128, 128, 128)"/><path d="m535.3 3.2c-3.1 3.4-35.4 45.2-76.5 99-6.4 8.4-16 20.9-21.3 27.8-5.3 6.9-15 19.7-21.7 28.5-6.6 8.8-12.5 16.6-13.1 17.2-0.5 0.7-0.7 1.3-0.3 1.3 0.3 0 5.2-6.2 11-13.8 5.7-7.5 15.4-20.2 21.5-28.2 6.1-8 17-22.2 24.1-31.5 7.1-9.4 18.2-23.9 24.7-32.3 6.5-8.4 18.1-23.4 25.7-33.5 7.7-10 17.5-22.6 21.8-28 8.1-10 9.5-12.2 4.1-6.5zm9.7-0.8c0 0.3 0.9 1 2 1.6 1.1 0.6 2 0.8 2 0.6 0-0.3-0.9-1-2-1.6-1.1-0.6-2-0.8-2-0.6zm5.5 3.3c0.6 0.6 2.8 2 5 3.2 2.2 1.3 3.1 1.5 2 0.6-2.2-1.8-8.6-5.3-7-3.8zm10.4 6.5c1.1 1.5 0.5 2.8-5 9.5-3.4 4.3-6.9 8.6-7.7 9.5-0.8 1-1.2 1.8-0.9 1.8 0.5 0 8.3-9.2 14.1-16.7 1.8-2.4 1.8-2.5 0-4.1-1.7-1.6-1.7-1.6-0.5 0zm-27.8 39c-17.8 23.5-74.3 98.2-79.4 105.2-1.6 2.1-2.4 3.5-1.8 3.2 1-0.7 13.2-16.6 73.5-96.7 10.9-14.5 20.3-27 20.9-27.7 0.5-0.6 0.7-1.2 0.5-1.2-0.3 0-6.5 7.8-13.7 17.2zm-369.3 80.7c-2.1 2.5-5.9 7.3-8.6 10.6-2.7 3.3-14 18.1-25.2 33-11.2 14.8-22.9 30.2-25.9 34.1-6.2 7.9-6.1 7.7-20.1 26.4-5.6 7.4-10.6 14.2-11.3 15-0.7 0.9-6.6 8.7-13.1 17.5-6.6 8.8-13 17.5-14.4 19.2-1.3 1.8-2.2 3.3-1.9 3.3 0.3 0 14.5-18.6 31.6-41.3 17.1-22.6 35.2-46.6 40.3-53.2 5-6.6 15.5-20.3 23.1-30.5 7.7-10.2 17.6-22.9 21.9-28.3 4.4-5.5 7.8-10 7.6-10.2-0.2-0.1-2 1.8-4 4.4zm8.2-3.1c4 2.8 38 28.2 40.3 30.2 1.2 1 15.3 11.6 31.2 23.6 16 12 44.5 33.4 63.4 47.6 18.9 14.2 34.5 25.8 34.8 25.8 0.9 0-5.6-5-54.2-41.5-26.9-20.3-56.9-42.8-66.5-50.1-9.6-7.3-21.6-16.3-26.5-20.1-14.6-10.9-23.5-17.3-24.3-17.2-0.4 0 0.4 0.8 1.8 1.7zm263.3 51.9c-8 10.9-19.8 26.8-26.2 35.3-18.7 25.3-46.3 62.2-49 65.9-7.1 9.2-9.3 12.5-8 11.4 1.4-1.1 21.2-27.6 73-97.3 13.3-17.9 24.6-33.1 25.2-33.8 0.5-0.6 0.7-1.2 0.3-1.2-0.3 0-7.2 8.9-15.3 19.7zm-267.4-5.9c-4 5.3-11.8 15.8-17.3 23.2-5.6 7.4-10.8 14.5-11.6 15.6-0.8 1.2-21.8 29.1-46.5 62-51.3 68.2-53.4 71.1-51.8 70.1 0.7-0.5 5.8-7 11.3-14.5 10.8-14.8 40.1-53.9 56-74.7 5.4-7.2 15.9-21.1 23.2-31 7.4-9.9 19.3-25.9 26.4-35.5 7.2-9.6 13.9-18.7 14.8-20.3 1-1.5 2.3-2.7 2.8-2.7 0.5 0 4.6 2.8 9.1 6.3 7.4 5.8 52 39.4 130 98 24 18.1 35.5 26.3 32.7 23.5-0.3-0.3-24.3-18.5-53.5-40.4-52.7-39.6-81.4-61.2-105.7-79.7l-12.7-9.7z"/><path d="m397.8 182.2c-1.8 2.3-4.6 6.1-6.3 8.4-1.6 2.3-7 9.5-12 15.9-4.9 6.4-11.9 15.7-15.5 20.5-3.6 4.9-9 12.1-12.1 16.2-5.5 7.1-10.3 14.3-8.3 12.3 1.1-1.1 41.6-54.8 52.1-69 6.6-9 7.8-11.4 2.1-4.3zm-365.6 123c-13.9 18.3-22.5 30.1-21.4 29.4 0.5-0.3 4.4-5.3 8.8-11.1 4.3-5.8 10.5-14 13.8-18.3 7.7-10.2 9.8-13.2 9.3-13.2-0.2 0-5 6-10.5 13.2zm-26 34.5c-2.9 3.8-7.1 10.2-6 9.3 0.3-0.3 2.3-2.8 4.3-5.5 2.1-2.8 4.2-5.6 4.8-6.3 0.5-0.6 0.7-1.2 0.4-1.2-0.3 0-1.9 1.7-3.5 3.7z"/><path d="m31.8 356.7c-4 5.3-7.8 9.8-8.4 10-0.6 0.2-5.9-3.2-11.7-7.7-11.4-8.5-15.4-10.9-6.5-3.7 7.2 5.9 17.2 12.7 18.4 12.7 0.6 0 4.5-4.7 8.7-10.5 4.2-5.8 7.5-10.5 7.2-10.5-0.2 0-3.7 4.4-7.7 9.7z"/><path d="m536.3 4.2c-1.7 1.8-8.1 9.8-14.2 17.8-16.5 21.5-27.2 35.4-41.1 53.3-6.9 8.9-16.3 21.1-20.8 27.2-9.9 13.1-28.1 36.9-33.7 43.9-2.2 2.8-11.6 15.2-21 27.7-9.3 12.4-25.8 34.1-36.5 48.3-10.7 14.1-20.8 27.7-22.5 30.1-1.6 2.5-3.4 4.5-3.8 4.5-0.5 0-13.3-9.4-28.5-20.8-15.2-11.4-39.6-29.7-54.2-40.7-14.6-10.9-26.7-20.1-27-20.4-0.6-0.7-38.3-29.3-45-34.1-2.6-1.9-8-5.8-11.8-8.7l-7-5.2-10.9 13.7c-6 7.5-16.2 20.7-22.6 29.2-9.7 12.9-31.4 41.4-50.3 66.1-2.2 3-8.8 11.7-14.5 19.4-5.7 7.7-10.9 14.7-11.6 15.5-5.3 6.5-58.3 78.2-58.3 78.8 0 0.5 2 2.3 4.5 4.1 2.4 1.7 5 3.7 5.7 4.4 0.7 0.7 3.7 2.9 6.6 5 4.6 3.3 5.6 3.6 6.5 2.4 4.3-5.3 84.2-111.8 95-126.6 4.3-5.8 10.9-14.7 14.7-19.6 3.8-5 11.7-15.5 17.6-23.5 24.9-33.7 23.9-32.4 25.3-30.3 0.5 0.8 23.6 18.5 31 23.8 1.6 1.1 12.9 9.6 25.2 19 50.4 38.2 113.5 85.2 115 85.8 1.1 0.4 3.9-2.6 9.9-10.6 4.6-6.2 9.6-12.8 11.1-14.8 7.3-9.6 34.2-45.5 40.4-53.9 8.5-11.7 52.6-70.5 69.6-93 19.6-25.8 40.3-53.3 41.9-55.6 5.3-7.6 38.3-49.8 39.2-50.2 2.4-1.1-0.2-3.7-8.4-8.8-5.1-3.1-10-5.9-10.8-6.1-0.8-0.2-2.9 1.1-4.7 2.9z" fill="rgb(255, 255, 255)"/><path d="m24.9 364.7c-1.3 1.6-1.2 1.7 0.4 0.4 0.9-0.7 1.7-1.5 1.7-1.7 0-0.8-0.8-0.3-2.1 1.3z" fill="rgb(212, 212, 212)"/><path d="m168.3 126.5c0 0.8 0.4 1.2 0.9 0.9 0.5-0.3 0.6-1 0.3-1.5-0.9-1.3-1.2-1.1-1.2 0.6z" fill="rgb(85, 85, 85)"/></svg>