<svg xmlns="http://www.w3.org/2000/svg" viewBox="0 0 364 474" width="32" height="32"><path d="m244.8 0.7c0.6 0.2 1.8 0.2 2.5 0 0.6-0.3 0.1-0.5-1.3-0.5-1.4 0-1.9 0.2-1.2 0.5zm-2.5 31c0.9 0.2 2.3 0.2 3 0 0.6-0.3-0.1-0.5-1.8-0.5-1.6 0-2.2 0.2-1.2 0.5zm-115 98.8c0 3.3 0.2 4.5 0.4 2.7 0.2-1.8 0.2-4.5 0-6-0.2-1.5-0.4 0-0.4 3.3zm0 15.5c0 3.6 0.2 5 0.4 3.2 0.2-1.7 0.2-4.7 0-6.5-0.2-1.7-0.4-0.3-0.4 3.3zm0.1 26c0 7.4 0.1 10.5 0.3 6.7 0.2-3.7 0.2-9.7 0-13.5-0.2-3.7-0.3-0.6-0.3 6.8zm-0.3 17.6c0 1.1 0.3 1.4 0.6 0.6 0.3-0.7 0.2-1.6-0.1-1.9-0.3-0.4-0.6 0.2-0.5 1.3zm0.1 7.1c-0.2 4.2-0.2 4.2-4.4 4.6l-4.3 0.4 4.3 0.1c4.8 0.2 5.6-0.7 4.9-6-0.3-3-0.4-2.9-0.5 0.9zm-72.9 5c2 0.2 5.4 0.2 7.5 0 2-0.2 0.3-0.4-3.8-0.4-4.1 0-5.8 0.2-3.7 0.4zm20 0c4.8 0.2 12.5 0.2 17 0 4.5-0.1 0.6-0.3-8.8-0.3-9.3 0-13 0.2-8.2 0.3zm29 0c0.9 0.2 2.5 0.2 3.5 0 0.9-0.3 0.1-0.5-1.8-0.5-1.9 0-2.7 0.2-1.7 0.5zm8 0c1.5 0.2 3.7 0.2 5 0 1.2-0.2 0-0.4-2.8-0.4-2.7 0-3.8 0.2-2.2 0.4zm56 0c0.9 0.2 2.3 0.2 3 0 0.6-0.3-0.1-0.5-1.8-0.5-1.6 0-2.2 0.2-1.2 0.5zm7.5 0c0.7 0.3 1.6 0.2 1.9-0.1 0.4-0.3-0.2-0.6-1.3-0.5-1.1 0-1.4 0.3-0.6 0.6zm38.5 0c18 0.2 47.4 0.2 65.5 0 18-0.1 3.2-0.2-32.8-0.2-36 0-50.8 0.1-32.7 0.2z" fill="rgb(85, 85, 85)"/><path d="m222 2.5c-10.8 2.4-23.1 6.5-30.5 10.2-30.9 15.4-50.3 38.9-60.7 73.3-2.2 7.3-2.2 9.2-2.8 61.5l-0.5 54-42 0.2c-48.5 0.3-49.7 0.5-62.9 9.4-11 7.3-18 16.8-21 28.4-1.4 5.1-1.6 17.8-1.6 96.2 0 61.6 0.3 91.9 1.1 95.5 3.5 17.2 16.8 32.2 35.1 40l5.3 2.3 135.4 0.3c89.6 0.1 137.3-0.1 141-0.8 7-1.3 19.2-7 24.9-11.7 6.8-5.6 12.9-14 16.5-22.8l3.2-8 0.3-91.2c0.3-101.4 0.4-98.8-6.3-110.9-5.8-10.4-19.2-21.2-29.5-23.9-1.4-0.3 1.3 1.2 5.9 3.5 9.8 4.9 19.4 14 23.5 22.3 5.8 11.8 5.7 10.5 5.4 109l-0.3 90.2-2.6 6.7c-3.6 9.2-8 15.8-15 22.3-6.6 6-17.4 11.7-25.7 13.4-3.7 0.8-45.6 1.1-138 1.1-147.4 0-138.4 0.4-151.2-6.7-13.5-7.6-24.3-22-27-36.2-0.6-3.4-1-38.6-1-95.1 0-96.7-0.1-93.8 5.2-104.5 4.8-9.6 16.9-20.4 27.7-24.7 5.5-2.2 6.7-2.3 50.1-2.8l44.5-0.5 0.5-54 0.6-54 2.7-9.3c5.5-19 15.4-35.8 29.1-49.7 9.3-9.3 16.8-14.7 29.4-21 18.4-9.1 32.6-12.4 53.3-12.5 21.9 0 34.4 2.6 52.5 11 30.2 13.9 54.4 42.6 61.8 73 3.2 13.4 4.5 30 3 37.9l-0.6 3.1h-32.5l-0.6-13.8c-0.8-21.3-5.7-35.7-17.3-51.1-12.3-16.3-33.8-27.9-56-30-28.4-2.7-56.5 8.7-72.2 29.4-6.3 8.3-12.2 20.1-15.3 30.5-2.2 7.3-2.3 9.1-2.7 58.8-0.3 41.7-0.1 51.3 1 51.7 0.7 0.3 36.7 0.6 80.1 0.7 43.3 0.2 77.5 0 76-0.4-1.6-0.4-37.2-0.9-79.3-1l-76.5-0.3v-50.5l0.1-50.5 2.7-8.8c6.4-20.6 16.7-35 32.9-46 7.3-5 14.3-7.9 26.3-10.9 10.7-2.8 31.5-2.2 42 1.2 23.4 7.5 40.3 22.1 49.9 43.3 4.6 10 6.7 20 7.5 35.2l0.6 13 17.1 0.3c20.1 0.3 18.4 1.6 18.4-13.8 0-51.7-33.9-94.9-86.1-109.6-8.4-2.4-11.4-2.7-28.9-3-14.4-0.3-21.2 0-26 1.1z"/><path d="m44.5 234.9c-4.7 2.2-8.9 6.4-10.4 10.4-0.8 1.9-1.1 31.3-1.1 91.6v88.7l2.3 4.4c1.3 2.6 4 5.7 6.5 7.5l4.4 3h270.5l4.1-2.9c2.3-1.6 5.2-4.5 6.5-6.5l2.2-3.6 0.2-90 0.3-90-2.3-4.5c-1.8-3.4-3.6-5.1-7.6-7.2l-5.3-2.8h-133.2c-127.4 0-133.3 0.1-137.1 1.9zm274.2 1c2.6 1.2 5.2 3.5 7 6.2l2.8 4.3 0.3 88c0.2 60.7 0 89.3-0.8 91.8-1.4 5-5.6 9.7-10.5 11.9-3.8 1.8-10.1 1.9-136.3 1.9-128.1 0-132.4-0.1-136-1.9-4.3-2.2-7.3-5.3-9.6-9.8-1.4-2.9-1.6-12.2-1.6-92.1v-88.8l2.9-4.5c1.8-3 4.4-5.3 7.2-6.7l4.4-2.2h133c128.5 0 133.1 0.1 137.2 1.9z"/><path d="m174 285.9c-8 2.6-15.7 10-17.8 16.9-0.8 2.7-1.2 14.3-1.2 36.1 0 35.7 0 35.8 6.7 43.1 12.3 13.7 33.4 11.5 43.3-4.5l2.5-4 0.3-33.5c0.3-29.5 0.1-34-1.4-37.9-2.1-5.6-7.6-11.6-12.8-14.3-4.4-2.3-15.3-3.3-19.6-1.9zm19.5 3.1c5 2.4 10.1 8.3 12.1 13.8 1.6 4.6 2 63.7 0.4 69.4-5 17.8-29.5 23.6-42.6 10.2-7.4-7.7-7.5-8.5-7.2-45.9l0.3-33 2.8-4.7c6.8-11.6 21.6-15.9 34.2-9.8z"/><path d="m345 216.4c0 0.2 0.8 1 1.8 1.7 1.5 1.3 1.6 1.2 0.3-0.4-1.3-1.6-2.1-2.1-2.1-1.3z" fill="rgb(128, 128, 128)"/><path d="m361.3 114.5c0 4.4 0.2 6.1 0.4 3.7 0.2-2.3 0.2-5.9 0-8-0.2-2-0.4-0.1-0.4 4.3zm-328.8 223c0 46.7 0.1 65.7 0.2 42.2 0.2-23.6 0.2-61.8 0-85-0.1-23.2-0.2-4-0.2 42.8z" fill="rgb(170, 170, 170)"/><path d="m161.9 34.7l-2.4 2.8 2.8-2.4c1.5-1.4 2.7-2.6 2.7-2.8 0-0.8-0.8-0.1-3.1 2.4zm177.4 92c3.7 0.2 9.6 0.2 13 0 3.4-0.2 0.4-0.3-6.8-0.3-7.1 0-9.9 0.1-6.2 0.3zm-307.2 124.9c0 1.1 0.3 1.4 0.6 0.6 0.3-0.7 0.2-1.6-0.1-1.9-0.3-0.4-0.6 0.2-0.5 1.3zm329 0c0 1.1 0.3 1.4 0.6 0.6 0.3-0.7 0.2-1.6-0.1-1.9-0.3-0.4-0.6 0.2-0.5 1.3zm-181.8 35.1c0.9 0.2 2.5 0.2 3.5 0 0.9-0.3 0.1-0.5-1.8-0.5-1.9 0-2.7 0.2-1.7 0.5zm-61.5 155c35.4 0.2 93 0.2 128 0 35-0.1 6.1-0.2-64.3-0.2-70.4 0-99.1 0.1-63.7 0.2z" fill="rgb(212, 212, 212)"/><path d="m228.5 3c-44.2 6.3-80.3 35.7-93.8 76.2-5.4 16.1-5.7 19.9-5.7 73.9v49.8l-43.7 0.3c-42.6 0.3-44 0.4-49.8 2.6-12.3 4.6-23.4 14.1-28.6 24.5-5.9 11.5-5.9 11.4-5.9 103.2 0 50.9 0.4 87.4 1 92.5 2.4 20.2 16.6 37.2 36.8 44.2l6.7 2.3h135.5c129.5 0 135.7-0.1 141-1.9 18.9-6.4 32-19.6 37.7-38.1 1.7-5.6 1.8-11.5 1.8-95.5 0-66.9-0.3-90.8-1.2-94.7-3.5-14.5-14.1-27.6-27.7-33.9-4.2-1.9-9.9-3.9-12.7-4.4-3.1-0.6-35.6-1-80.5-1h-75.4v-49.8c0-54.4 0.2-55.9 6-71 4.2-11 11.4-21.5 20.5-30 18.1-16.9 46.5-24.6 71.5-19.4 18.5 3.8 29.4 9.6 42.6 22.7 7.9 7.9 9.8 10.4 14.3 19.5 6.7 13.9 8.2 19.8 9 36.7 0.3 7.8 0.8 14.3 1.1 14.5 0.3 0.2 7.6 0.2 16.4 0l15.8-0.3-0.5-15.7c-0.7-23.2-5.7-39.5-17.2-56.7-9.8-14.4-28.5-32.5-32.1-31.1-0.8 0.3-1.3 0-1.1-0.6 0.6-2.8-23.8-13.6-38.2-16.9-9.8-2.2-34.1-3.3-43.6-1.9zm91.3 231.9c4.2 2.2 6.3 4.3 8.6 8.8 1.5 3 1.6 11.6 1.4 94l-0.3 90.8-2.3 3.3c-3.7 5-8.4 8.1-14.4 9.2-8.4 1.6-263.4 0.9-267-0.7-1.5-0.7-4.5-2.8-6.7-4.8-7.4-6.7-7.1-2.4-7.1-98.4 0-58.8 0.4-86.9 1.1-89.6 1.5-5.3 5.2-10.1 9.7-12.5 3.6-1.9 6.8-1.9 138.5-2 130.3 0 134.9 0.1 138.5 1.9z" fill="rgb(255, 255, 255)"/><path d="m170.5 288.9c-5.8 2.6-11.1 9-13 15.6-1.4 4.7-1.6 10.2-1.3 36.3 0.3 29.3 0.4 30.9 2.5 34.8 4.2 7.9 14.5 14.4 22.8 14.4 5 0 12.8-3.3 17-7.1 7.7-7.1 8-8.7 8-45.4 0-31.4 0-32.1-2.3-36.7-2.9-5.8-8.9-11.3-13.9-12.7-5.9-1.7-15.3-1.3-19.8 0.8z" fill="rgb(255, 255, 255)"/></svg>