<svg xmlns="http://www.w3.org/2000/svg" viewBox="0 0 655 529" width="32" height="32"><path d="m59.8 0.7c1.2 0.2 3 0.2 4 0 0.9-0.3-0.1-0.5-2.3-0.4-2.2 0-3 0.2-1.7 0.4zm16 0c1.2 0.2 3.2 0.2 4.5 0 1.2-0.2 0.2-0.4-2.3-0.4-2.5 0-3.5 0.2-2.2 0.4zm-22 1c0.6 0.2 1.8 0.2 2.5 0 0.6-0.3 0.1-0.5-1.3-0.5-1.4 0-1.9 0.2-1.2 0.5zm32.2 0.3c3.4 1.1 6 1.1 3.5 0-1.1-0.5-2.9-0.8-4-0.8-1.6 0-1.5 0.2 0.5 0.8zm-38.5 1c-1.3 0.5-1.4 0.9-0.5 0.9 0.8 0 2.4-0.4 3.5-0.9 1.3-0.5 1.4-0.9 0.5-0.9-0.8 0-2.4 0.4-3.5 0.9zm49.4 2.1c2.4 1.1 4.6 1.8 4.8 1.5 0.4-0.4-7.3-3.6-8.5-3.5-0.4 0 1.3 0.9 3.7 2zm-54.9-0.1c-0.8 0.5-1 1-0.5 1 0.6 0 1.7-0.5 2.5-1 0.8-0.5 1.1-1 0.5-1-0.5 0-1.7 0.5-2.5 1zm61 2.3c0 0.3 2.6 2 5.8 3.7 3.1 1.8 9.1 6.7 13.2 10.9 4.2 4.2 6 5.7 4.2 3.4-4.5-5.7-12.4-12.6-18.3-15.8-2.7-1.4-4.9-2.4-4.9-2.2zm-69.6 2.3c-1.8 1.4-1.8 1.5 0.4 0.4 1.2-0.6 2.2-1.3 2.2-1.5 0-0.8-0.5-0.6-2.6 1.1zm-11.9 9.6l-6 6.3 6.3-6c5.8-5.5 6.7-6.5 5.9-6.5-0.1 0-2.9 2.8-6.2 6.2zm40.7 6.6c-1.3 0.4 2.1 0.7 7.5 0.8 6.3 0 11.2 0.6 13.8 1.6 7.1 2.7 8.1 3 5 1.2-6.1-3.6-19.8-5.4-26.3-3.6zm-49 2.9c-7.5 10.5-12.3 26-12 38.7l0.1 8.1 0.7-10.5c0.9-12.4 4.1-22.8 9.9-32.5 4.1-6.7 4.7-8.6 1.3-3.8zm36.4 1.9c-9.7 5.1-19.6 18.3-21.1 28.4-0.4 2.4 0.1 1.6 1.3-2.2 4-11.9 11.1-20.6 21.2-25.8 3-1.6 5.1-2.9 4.5-2.9-0.5 0-3.2 1.1-5.9 2.5zm81.9 3.8c1.5 2.7 3.6 7.2 4.5 10l1.8 5.1h515.7l-257.7-0.2c-229.9-0.3-257.8-0.5-257.8-1.8 0-2.1-5.3-13.5-7.5-16-0.9-1.1-0.5 0.2 1 2.9zm-37.5-1.7c8.5 6.1 14.4 14 17.5 23.5 1.3 3.8 1.4 3.9 0.8 0.8-1.3-8.2-10.1-20.3-17.5-24.3-3.2-1.7-3.2-1.7-0.8 0zm560.1 28.9c0 1.1 0.3 1.4 0.6 0.6 0.3-0.7 0.2-1.6-0.1-1.9-0.3-0.4-0.6 0.2-0.5 1.3zm-540.8 6.4c0 4.1 0.2 5.8 0.4 3.7 0.2-2 0.2-5.4 0-7.5-0.2-2-0.4-0.3-0.4 3.8zm541 4.5c0 3.8 0.2 5.3 0.4 3.2 0.2-2 0.2-5.2 0-7-0.2-1.7-0.4-0.1-0.4 3.8zm-627.1-3.5c0 1.4 0.2 1.9 0.5 1.2 0.2-0.6 0.2-1.8 0-2.5-0.3-0.6-0.5-0.1-0.5 1.3zm1.3 7c0.7 5.2 4.2 13.4 7.4 17 1.3 1.5 0.8 0.3-1.1-2.8-1.8-3-4-8.4-5-12-1.5-5.5-1.7-5.9-1.3-2.2zm82.5 4.6c-1.9 6.6-8.1 15.6-14 20.3-2.9 2.3-4.7 4.1-4.2 4.1 1.8 0 11-9 14.1-13.9 3.2-4.9 6.7-13.8 5.9-14.7-0.3-0.2-1.1 1.6-1.8 4.2zm-108.8-1.1c0 1.6 0.2 2.2 0.5 1.2 0.2-0.9 0.2-2.3 0-3-0.3-0.6-0.5 0.1-0.5 1.8zm136.4 0.7c-0.2 0.7-1.1 4.2-2.1 7.8-0.9 3.6-3.1 9.2-4.8 12.5-4 7.5-15.1 19.3-23.1 24.5-3.3 2.2-5.7 4-5.2 4 0.4 0 3.9-2.1 7.7-4.6 12.6-8.3 22.2-21.6 26.5-36.4l2.2-7.5 256.8-0.5 256.9-0.5-257.3-0.3c-205.1-0.1-257.3 0.1-257.6 1zm-135.5 4.4c0 1.1 0.3 1.4 0.6 0.6 0.3-0.7 0.2-1.6-0.1-1.9-0.3-0.4-0.6 0.2-0.5 1.3zm2.5 7.4c2.1 8.1 10.5 20.4 19 27.7 5.5 4.8 12.2 9.2 13.9 9.2 0.6 0.1-1.2-1.3-4-3.1-12.1-7.5-20-16.4-26.1-29.1-1.9-3.9-3.2-6.1-2.8-4.7zm34.6 6.6c1.5 1.6 4.2 3.8 6 4.8 3.9 2.2 3.1 1.4-3.7-3.9-4.1-3.2-4.5-3.3-2.3-0.9zm48.8 7.4c-0.9 0.6-1 1-0.3 1 0.6 0 1.5-0.5 1.8-1 0.8-1.2 0.4-1.2-1.5 0zm-36 1c0.8 0.5 2 1 2.5 1 0.6 0 0.3-0.5-0.5-1-0.8-0.5-1.9-1-2.5-1-0.5 0-0.3 0.5 0.5 1zm30.5 1c-1.3 0.6-1.5 0.9-0.5 0.9 0.8 0 2.2-0.4 3-0.9 1.8-1.2 0.2-1.2-2.5 0zm-25.5 1c0.8 0.5 2.6 1 3.9 1 3.2 0 2.4-0.6-1.9-1.4-2.5-0.4-3.1-0.3-2 0.4zm20.8 0.7c0.7 0.3 1.6 0.2 1.9-0.1 0.4-0.3-0.2-0.6-1.3-0.5-1.1 0-1.4 0.3-0.6 0.6zm-11.5 1c0.9 0.2 2.5 0.2 3.5 0 0.9-0.3 0.1-0.5-1.8-0.5-1.9 0-2.7 0.2-1.7 0.5zm234.9 88.5l0.3 78.3 0.2-77.8 0.3-77.7h31v123l6.8-0.2 6.7-0.2-6.2-0.3-6.3-0.4v-122.9h-33zm-208.1-67.6c-3.5 1.4-9.4 2.8-13 3.3-4.5 0.6-5.4 0.9-2.9 1 5.1 0.1 13.4-1.7 19.3-4.5 6.5-2.9 4.7-2.8-3.4 0.2zm-51.5-0.7c1.2 1.1 7.3 3.1 9.3 3.1 0.9-0.1-0.9-0.9-3.9-2-6.3-2.2-6.7-2.3-5.4-1.1zm13.4 4.1c2.5 0.8 11.7 1.3 10.9 0.6-0.2-0.2-3.3-0.6-6.9-0.9-3.9-0.3-5.5-0.2-4 0.3zm292.8 109.7c0.6 0.2 1.8 0.2 2.5 0 0.6-0.3 0.1-0.5-1.3-0.5-1.4 0-1.9 0.2-1.2 0.5zm8 0c0.6 0.2 1.8 0.2 2.5 0 0.6-0.3 0.1-0.5-1.3-0.5-1.4 0-1.9 0.2-1.2 0.5zm9.5 0c0.9 0.2 2.3 0.2 3 0 0.6-0.3-0.1-0.5-1.8-0.5-1.6 0-2.2 0.2-1.2 0.5zm5.5 0c0.6 0.2 1.8 0.2 2.5 0 0.6-0.3 0.1-0.5-1.3-0.5-1.4 0-1.9 0.2-1.2 0.5zm9.5 0c0.9 0.2 2.5 0.2 3.5 0 0.9-0.3 0.1-0.5-1.8-0.5-1.9 0-2.7 0.2-1.7 0.5zm6.5 0c0.6 0.2 1.8 0.2 2.5 0 0.6-0.3 0.1-0.5-1.3-0.5-1.4 0-1.9 0.2-1.2 0.5zm9 0c1.2 0.2 3 0.2 4 0 0.9-0.3-0.1-0.5-2.3-0.4-2.2 0-3 0.2-1.7 0.4zm10.4 0l4.8 0.4 0.3 16.2 0.3 16.2-0.1-16.5v-16.5l-5-0.1-5-0.1zm-103.2 32.3c0 0.7 18.5 1 53.6 1 35.4 0 53.3-0.3 52.9-1-0.4-0.6-19.3-1-53.6-1-34.6 0-52.9 0.3-52.9 1zm-271.3 43.7c-0.4 0.3-0.7 7.3-0.7 15.5v14.8h623v-31h-310.8c-171 0-311.2 0.3-311.5 0.7zm621.3 14.8v14.5h-621v-29h621zm-595.7 58.2c0.9 0.2 2.3 0.2 3 0 0.6-0.3-0.1-0.5-1.8-0.5-1.6 0-2.2 0.2-1.2 0.5zm16 0c0.9 0.2 2.5 0.2 3.5 0 0.9-0.3 0.1-0.5-1.8-0.5-1.9 0-2.7 0.2-1.7 0.5zm-21.5 1c0.6 0.2 1.8 0.2 2.5 0 0.6-0.3 0.1-0.5-1.3-0.5-1.4 0-1.9 0.2-1.2 0.5zm29 0c0.6 0.2 1.8 0.2 2.5 0 0.6-0.3 0.1-0.5-1.3-0.5-1.4 0-1.9 0.2-1.2 0.5zm-33 1c0.7 0.3 1.6 0.2 1.9-0.1 0.4-0.3-0.2-0.6-1.3-0.5-1.1 0-1.4 0.3-0.6 0.6zm38 0c0.7 0.3 1.6 0.2 1.9-0.1 0.4-0.3-0.2-0.6-1.3-0.5-1.1 0-1.4 0.3-0.6 0.6zm-46.8 2.8c-1.4 0.8-2 1.4-1.5 1.4 0.6 0 2.1-0.6 3.5-1.4 1.4-0.8 2.1-1.4 1.5-1.4-0.5 0-2.1 0.6-3.5 1.4zm56.1-0.1c1 0.9 10.9 5.6 10.9 5.1 0-0.5-9.5-5.5-10.6-5.5-0.4 0-0.5 0.2-0.3 0.4zm-62.3 3.2c-3.8 2-3.6 2.8 0.2 0.9 1.7-0.9 3-1.8 3-2 0-0.7-0.1-0.6-3.2 1.1zm-11.5 9.1c-6.4 6.3-6.5 6.4-0.9 1.4 9.1-8.1 9.1-8.1 8.4-8.1-0.3 0-3.7 3-7.5 6.7zm86.2-6c0.6 0.6 3.9 3.4 7.5 6.3 5.3 4.2 5.7 4.4 2 1-4.1-3.8-11.9-9.8-9.5-7.3zm17 16.8c4.7 6.3 5.3 6.9 2.9 2.7-1-1.8-3-4.3-4.3-5.5-1.4-1.3-0.8-0.1 1.4 2.8zm-60.2-2.8c2 0.2 5.4 0.2 7.5 0 2-0.2 0.3-0.4-3.8-0.4-4.1 0-5.8 0.2-3.7 0.4zm-53.1 3c-1 1.6-2.4 3.8-3.1 5-2.1 4.1-0.5 2.4 2.7-2.7 3.3-5.4 3.6-6.8 0.4-2.3zm43.8-1.8c-13.3 4.1-27.4 20.5-28.6 33.2l-0.3 4.4 0.9-4.3c1.5-7 5.3-14.3 10.4-19.9 6.1-6.8 9.5-9.1 17-11.9 5.7-2.2 6.1-3.2 0.6-1.5zm25.6 1c8.1 3 11 4.8 16.7 10.4 9 8.8 13.5 21.5 12.4 35.2-0.5 5.9-0.5 5.9 0.6 1.6 1.5-6.2-0.3-18.6-3.9-25.8-5.1-10.5-17.8-21-27.4-22.7-2.8-0.5-2.4-0.2 1.6 1.3zm51.8 15c1.7 4.3 3.3 7.7 3.5 7.5 0.5-0.5-4.8-14.3-5.8-14.9-0.4-0.2 0.6 3.1 2.3 7.4zm-126.9-4.8c-0.4 0.6-0.5 1.2-0.2 1.5 0.2 0.3 0.7-0.2 1-1.1 0.7-1.7 0.1-2-0.8-0.4zm-2.9 6.8c-0.8 2.3-1.8 6-2.1 8.3-0.4 3.6-0.3 3.4 1-1.5 0.8-3.2 2-6.7 2.6-7.8 0.6-1.2 0.9-2.3 0.6-2.5-0.2-0.3-1.2 1.3-2.1 3.5zm391.6 7.8l258.7 0.3 0.4 15.3 0.3 15.2 0.2-15.8 0.2-15.7-259.2 0.2-259.3 0.3zm-394.8 16.8c0.2 10 0.7 13.3 3 20 5.1 14.7 13.6 26 25.8 34.1 7.1 4.8 19.6 10.3 23.3 10.4 1.1 0-1.7-1.3-6.3-2.9-16.1-5.6-29.8-17-37-30.8-5.7-11-7.3-17.1-8.2-30.8l-0.8-12zm26.8 3.5c0 1.9 0.6 5.1 1.4 7 1.3 3.2 1.4 3.2 0.8 0.5-0.4-1.7-1-4.8-1.4-7l-0.7-4zm80 12.5c-2.4 5.5-6.9 10.9-13.2 15.9-2.2 1.7-2.6 2.3-1.1 1.6 6-3.1 18.1-18.7 16.9-22-0.2-0.5-1.4 1.6-2.6 4.5z"/><path d="m136.1 479.2c-2.4 8-7.9 18.3-13.2 24.3-8.5 9.7-13.5 13.2-30.9 21.3l-2.5 1.2 2.5-0.6c5.2-1.1 17.5-8.1 23.8-13.4 7.6-6.4 16-18 19.1-26.6 1.2-3.2 2.5-6.6 3-7.4 0.7-1.3 30.8-1.6 257.7-2l256.9-0.5-257.6-0.3-257.6-0.2zm-105.1 0.1c0 3 10.4 14.2 16 17.2 2.1 1.1 0.4-0.4-4.8-4.5-2.4-1.8-5.9-5.6-7.8-8.4-1.9-2.8-3.4-4.7-3.4-4.3zm20.5 19.6c2 1.9 12 4.1 17.9 4l6.1-0.2-8-0.7c-4.4-0.5-10-1.5-12.5-2.4-2.5-0.9-4-1.3-3.5-0.7zm26.3 2.8c0.7 0.3 1.6 0.2 1.9-0.1 0.4-0.3-0.2-0.6-1.3-0.5-1.1 0-1.4 0.3-0.6 0.6zm4.7 25.3c-2.7 0.7-2.7 0.8-0.5 0.8 1.4 0 3.6-0.4 5-0.8 2-0.6 2.1-0.8 0.5-0.8-1.1 0-3.3 0.4-5 0.8zm-26.2 0.7c0.9 0.2 2.3 0.2 3 0 0.6-0.3-0.1-0.5-1.8-0.5-1.6 0-2.2 0.2-1.2 0.5zm9 1c2.6 0.2 6.7 0.2 9 0 2.3-0.2 0.2-0.3-4.8-0.3-4.9 0-6.8 0.1-4.2 0.3z"/><path d="m69.3 0.7c0.9 0.2 2.5 0.2 3.5 0 0.9-0.3 0.1-0.5-1.8-0.5-1.9 0-2.7 0.2-1.7 0.5zm-42.4 14c-1.3 1.6-1.2 1.7 0.4 0.4 1.6-1.3 2.1-2.1 1.3-2.1-0.2 0-1 0.8-1.7 1.7zm626.5 49.3c0 8 0.2 11.2 0.3 7.2 0.2-3.9 0.2-10.5 0-14.5-0.1-3.9-0.3-0.7-0.3 7.3zm-579.6 46.7c0.7 0.3 1.6 0.2 1.9-0.1 0.4-0.3-0.2-0.6-1.3-0.5-1.1 0-1.4 0.3-0.6 0.6zm-7.8 25.3c-1.1 0.7 0.2 1 4.3 1 3.6 0 5.6-0.4 5.2-1-0.8-1.3-7.5-1.3-9.5 0zm236.5 141c-0.3 0.5-0.1 1 0.4 1 0.6 0 1.1-0.5 1.1-1 0-0.6-0.2-1-0.4-1-0.3 0-0.8 0.4-1.1 1zm108 0c0.3 0.5 0.8 1 1.1 1 0.2 0 0.4-0.5 0.4-1 0-0.6-0.5-1-1.1-1-0.5 0-0.7 0.4-0.4 1zm-377.2 56.5c0 2.2 0.2 3 0.4 1.7 0.2-1.2 0.2-3 0-4-0.3-0.9-0.5 0.1-0.4 2.3zm-0.1 6.5c0 1.4 0.2 1.9 0.5 1.2 0.2-0.6 0.2-1.8 0-2.5-0.3-0.6-0.5-0.1-0.5 1.3zm37.6 53.7c0.7 0.3 1.6 0.2 1.9-0.1 0.4-0.3-0.2-0.6-1.3-0.5-1.1 0-1.4 0.3-0.6 0.6zm45.2 17.6c0 0.2 1.5 1.6 3.3 3.3l3.2 2.9-2.9-3.3c-2.8-3-3.6-3.7-3.6-2.9zm-55 7.7c0 0.5 0.5 1 1.1 1 0.5 0 0.7-0.5 0.4-1-0.3-0.6-0.8-1-1.1-1-0.2 0-0.4 0.4-0.4 1zm-34.8 40c0 1.4 0.2 1.9 0.5 1.2 0.2-0.6 0.2-1.8 0-2.5-0.3-0.6-0.5-0.1-0.5 1.3zm372.3 17l-254 0.5 254.8 0.3c169.3 0.1 254.7-0.1 254.7-0.8 0-0.6-0.3-0.9-0.7-0.8-0.5 0.2-115.1 0.5-254.8 0.8zm-258.7 0.7c0.7 0.3 1.6 0.2 1.9-0.1 0.4-0.3-0.2-0.6-1.3-0.5-1.1 0-1.4 0.3-0.6 0.6zm-120.8 30.8c1.3 1.4 2.6 2.5 2.8 2.5 0.3 0-0.5-1.1-1.8-2.5-1.3-1.4-2.6-2.5-2.8-2.5-0.3 0 0.5 1.1 1.8 2.5zm40.5 20.5c-0.3 0.5-0.1 1 0.4 1 0.6 0 1.1-0.5 1.1-1 0-0.6-0.2-1-0.4-1-0.3 0-0.8 0.4-1.1 1zm19 0c-0.3 0.5-0.1 1 0.4 1 0.6 0 1.1-0.5 1.1-1 0-0.6-0.2-1-0.4-1-0.3 0-0.8 0.4-1.1 1z" fill="rgb(85, 85, 85)"/><path d="m21 115.5c1.3 1.4 2.6 2.5 2.8 2.5 0.3 0-0.5-1.1-1.8-2.5-1.3-1.4-2.6-2.5-2.8-2.5-0.3 0 0.5 1.1 1.8 2.5zm341.8 130.2c2.9 0.2 7.4 0.2 10 0 2.6-0.2 0.2-0.3-5.3-0.3-5.5 0-7.6 0.1-4.7 0.3zm28 0c3.9 0.2 10.5 0.2 14.5 0 3.9-0.1 0.7-0.3-7.3-0.3-8 0-11.2 0.2-7.2 0.3zm262.3 78.9c0 1.1 0.3 1.4 0.6 0.6 0.3-0.7 0.2-1.6-0.1-1.9-0.3-0.4-0.6 0.2-0.5 1.3zm-620 1c0 1.1 0.3 1.4 0.6 0.6 0.3-0.7 0.2-1.6-0.1-1.9-0.3-0.4-0.6 0.2-0.5 1.3zm0.2 19.9c0 2.2 0.2 3 0.4 1.7 0.2-1.2 0.2-3 0-4-0.3-0.9-0.5 0.1-0.4 2.3zm34.5 48.2c0.7 0.3 1.6 0.2 1.9-0.1 0.4-0.3-0.2-0.6-1.3-0.5-1.1 0-1.4 0.3-0.6 0.6z" fill="rgb(128, 128, 128)"/><path d="m58.8 1.7c0.7 0.3 1.6 0.2 1.9-0.1 0.4-0.3-0.2-0.6-1.3-0.5-1.1 0-1.4 0.3-0.6 0.6zm-35.9 17c-1.3 1.6-1.2 1.7 0.4 0.4 1.6-1.3 2.1-2.1 1.3-2.1-0.2 0-1 0.8-1.7 1.7zm75.1 15.7c0 0.2 0.8 1 1.8 1.7 1.5 1.3 1.6 1.2 0.3-0.4-1.3-1.6-2.1-2.1-2.1-1.3zm-58.6 2.8l-1.9 2.3 2.3-1.9c2.1-1.8 2.7-2.6 1.9-2.6-0.2 0-1.2 1-2.3 2.2zm62.5 60.5c-1.3 1.6-1.2 1.7 0.4 0.4 1.6-1.3 2.1-2.1 1.3-2.1-0.2 0-1 0.8-1.7 1.7zm-80 314c-1.3 1.6-1.2 1.7 0.4 0.4 1.6-1.3 2.1-2.1 1.3-2.1-0.2 0-1 0.8-1.7 1.7zm631.2 61.9c0 1.1 0.3 1.4 0.6 0.6 0.3-0.7 0.2-1.6-0.1-1.9-0.3-0.4-0.6 0.2-0.5 1.3z" fill="rgb(212, 212, 212)"/><path d="m55 2.4c-20.5 4.3-35.7 16.1-45.3 35.1-5.1 10.1-7 18.2-7 30 0.1 31.2 19.7 57 49.6 65.3 4.5 1.2 9.8 1.7 19.7 1.6 12-0.1 14.4-0.4 21.5-2.8 22-7.5 37.8-24.4 43.1-45.9l1.7-6.7h514.7v-29h-515.5l-1.5-4.2c-7.2-20.4-24.5-36.6-45.5-42.4-8.1-2.2-27.1-2.7-35.5-1zm28.1 24.2c18.9 5.6 31.4 22.1 31.2 41.4-0.1 17.5-11.2 33.8-27.1 40.2-4.7 1.8-7.7 2.2-16.7 2.2-10.3 0-11.4-0.2-17.7-3.1-22.8-10.7-32.2-37-21-58.9 5.3-10.4 13.9-17.9 24.4-21.4 6.8-2.4 19.6-2.5 26.9-0.4zm219.9 172.5v76.9h108.5l-0.3-15-0.3-15h-76.9v-124.1l-15.5 0.2-15.5 0.1zm-269 136.4v14.5h619v-13.9c0-11.7-0.2-14-1.6-14.5-0.9-0.3-140.1-0.6-309.5-0.6h-307.9zm18.5 60.1c-3.8 0.9-10.6 3.4-15 5.7-16.2 8.4-27 21.3-33.1 39.3-3.6 10.8-3.9 26.2-0.6 37.9 7.6 26.5 28.1 44.2 56.6 48.5 31.2 4.7 64.5-15.3 73.7-44.4l2.4-7.6h516.5v-29h-516.7l-2.4-7.2c-1.2-4-4.5-10.5-7.1-14.5-8.5-12.6-19.9-21.1-35.5-26.6-7.4-2.5-10.7-3-20.3-3.3-7.9-0.3-13.7 0.1-18.5 1.2zm24.7 22.5c16.2 3.5 29.4 16.1 33.8 32.1 2.1 7.7 0.9 21.1-2.4 28.5-3.7 8-12.1 16.2-21.3 20.6-6.4 3-7.4 3.2-18.3 3.2-10.6 0-12-0.2-17.3-2.8-7.1-3.5-15.1-10.3-18.9-15.9-3.7-5.6-6.8-16.1-6.8-22.9 0.1-23.3 19.3-42.7 43.2-43.8 1.5 0 5.1 0.4 8 1z" fill="rgb(255, 255, 255)"/><path d="m121 21.4c0 0.2 0.8 1 1.8 1.7 1.5 1.3 1.6 1.2 0.3-0.4-1.3-1.6-2.1-2.1-2.1-1.3zm-20 16c0 0.2 0.8 1 1.8 1.7 1.5 1.3 1.6 1.2 0.3-0.4-1.3-1.6-2.1-2.1-2.1-1.3zm13.2 30.1c0 1.6 0.2 2.2 0.5 1.2 0.2-0.9 0.2-2.3 0-3-0.3-0.6-0.5 0.1-0.5 1.8zm223.1 178.2c1.5 0.2 3.9 0.2 5.5 0 1.5-0.2 0.2-0.4-2.8-0.4-3 0-4.3 0.2-2.7 0.4zm73.9 4.8c0 1.6 0.2 2.2 0.5 1.2 0.2-0.9 0.2-2.3 0-3-0.3-0.6-0.5 0.1-0.5 1.8zm0 8.5c0 1.4 0.2 1.9 0.5 1.2 0.2-0.6 0.2-1.8 0-2.5-0.3-0.6-0.5-0.1-0.5 1.3zm0.1 9.5c0 2.2 0.2 3 0.4 1.7 0.2-1.2 0.2-3 0-4-0.3-0.9-0.5 0.1-0.4 2.3zm-378.2 54.1c0 1.1 0.3 1.4 0.6 0.6 0.3-0.7 0.2-1.6-0.1-1.9-0.3-0.4-0.6 0.2-0.5 1.3zm620.3 13.9c0 6 0.1 8.4 0.3 5.2 0.2-3.2 0.2-8.1 0-11-0.2-2.9-0.3-0.3-0.3 5.8zm-585.1 81.2c0.9 0.2 2.3 0.2 3 0 0.6-0.3-0.1-0.5-1.8-0.5-1.6 0-2.2 0.2-1.2 0.5zm585.1 36.8c0 4.9 0.1 7.1 0.3 4.8 0.2-2.3 0.2-6.4 0-9-0.2-2.6-0.3-0.8-0.3 4.2z" fill="rgb(170, 170, 170)"/><path d="m380.3 245.7c0.9 0.2 2.3 0.2 3 0 0.6-0.3-0.1-0.5-1.8-0.5-1.6 0-2.2 0.2-1.2 0.5z" fill="rgb(128, 170, 170)"/></svg>