<svg xmlns="http://www.w3.org/2000/svg" viewBox="0 0 440 507" width="32" height="32"><path d="m199 0.7c-8.7 0.9-24.1 3.5-30.5 5.2-9.3 2.5-6.8 2.6 3.7 0.2 12.9-3 23.7-4.3 43.3-5.1l18-0.7h-15.5c-8.5 0-17.1 0.2-19 0.4zm35.1 0.7c0.2 0.2 4.7 0.6 9.9 0.9 6.5 0.3 8.1 0.2 5-0.3-4.5-0.9-15.7-1.3-14.9-0.6zm25.4 3.2c7.8 1.7 10.5 1.6 4-0.2-2.7-0.7-6.1-1.3-7.5-1.3-1.4 0.1 0.2 0.7 3.5 1.5zm10.3 2.1c0.7 0.3 1.6 0.2 1.9-0.1 0.4-0.3-0.2-0.6-1.3-0.5-1.1 0-1.4 0.3-0.6 0.6zm4 1c0.7 0.3 1.6 0.2 1.9-0.1 0.4-0.3-0.2-0.6-1.3-0.5-1.1 0-1.4 0.3-0.6 0.6zm-123.8 3.2c-13.8 4.5-38 15.1-38 16.6 0 0.3 2.7-0.8 5.9-2.4 9-4.6 22.5-10.1 33.6-13.7 5.5-1.8 9.3-3.2 8.5-3.3-0.8 0-5.3 1.2-10 2.8zm135.5 0.1c4.9 1.6 9.1 2.7 9.3 2.5 0.5-0.5-15.5-5.5-17.1-5.4-0.7 0 2.8 1.4 7.8 2.9zm11.5 3.8c0.8 0.5 2.6 1.3 4 1.6 1.7 0.5 2 0.4 1-0.2-0.8-0.5-2.6-1.3-4-1.6-1.7-0.5-2-0.4-1 0.2z"/><path d="m304.3 17.6c0.3 0.3 3.9 2.1 7.9 3.8 34.1 14.8 69.5 44.8 90.6 76.6 7.3 11 18.9 34 23 45.5 6.4 18.1 10.6 37.3 11.8 53.4 0.3 4.7 0.7 76 0.7 158.4l0.2 149.7h-174.5v-149.8c0-99.5-0.4-151.9-1.1-156.2-2.8-17.6-18.8-33.8-35-35.4l-5.4-0.6 6.2 1.4c15.6 3.6 27.1 14.3 32.4 30.1 1.1 3.3 1.5 32.6 1.9 157.8l0.5 153.7h176v-154.2c-0.1-143.7-0.2-155.1-1.9-165.3-6.1-37.4-18.3-67.4-39.4-96.8-13-18.2-40.7-43.8-60-55.5-12.3-7.5-36.8-19.5-33.9-16.6zm-197.8 12.7c-6.5 3.7-19.5 12.7-27 18.6-15 11.8-37.5 36.9-45.8 51-3.2 5.4-1.1 3.3 3.7-3.7 15.8-23.4 37.7-44.7 61.3-59.8 13-8.4 12.8-8.3 12.3-8.3-0.3-0.1-2.3 1-4.5 2.2z"/><path d="m197.2 34.2c-4 0.5-7.1 1.2-6.8 1.5 0.2 0.2 4.8-0.1 10.2-0.8 12.6-1.5 36.1-0.6 51.4 2 27.9 4.9 58.2 18.4 79.5 35.4 31.9 25.6 53.1 56.9 63.9 94.7 6.1 21 5.9 18 6.3 111.2l0.4 85.8h-99.1v-80.4c0-88 0-87.9-5.9-103.3-3.4-8.6-10.8-20.2-17.4-27.2-9.9-10.4-27-20.6-37.7-22.5-1.9-0.4 0.2 0.6 4.7 2.2 21.7 7.6 41.7 27 49.7 48.3 5.6 14.9 5.6 14.9 5.6 102.9v81h101v-82.8c0-77.6-0.1-83.4-2-94.8-3.5-21.5-11.9-45.3-22.2-62.9-13.4-22.8-36.7-47.2-58.8-61.8-18.5-12.1-45.9-23-67.9-26.8-13.6-2.4-43.7-3.3-54.9-1.7zm-15.2 2.8c-2 0.6-2.1 0.8-0.5 0.8 1.1 0 3.4-0.4 5-0.8 2.7-0.7 2.7-0.8 0.5-0.8-1.4 0-3.6 0.4-5 0.8zm-13.5 3.5c-9.2 3-7.2 3.1 3 0 4.4-1.3 7.1-2.4 6-2.4-1.1 0-5.1 1.1-9 2.4z"/><path d="m154 45.1c-9.3 3.2-27 12.5-36.7 19.1-37.5 25.7-64.6 64.5-75.8 108.6-5.2 20.8-5.5 25.8-5.5 112v79.7h101.5l-50.3-0.2-50.3-0.3 0.4-84.3c0.4-89.9 0.3-87.9 5.6-108.4 14.2-55.2 56.9-104.1 108.1-123.8 5.2-2.1 9.7-3.9 9.9-4.1 0.8-0.8-1.5-0.2-6.9 1.7z"/><path d="m28.7 108.2c-11.8 20.4-20.2 44.2-25.3 71.8-1.7 8.8-1.8 21.9-2.1 168l-0.4 158.5 62.8-0.3c34.5-0.1 73.6-0.3 86.8-0.5 13.2-0.1-14.8-0.3-62.2-0.5l-86.3-0.2v-150.3c0-98.6 0.4-154.1 1.1-161.3 2.5-26.3 10-52.4 21.5-75.2 7.2-14.2 8.8-17.9 4.1-10zm195.8 20.3c12.4 1.5 15.7 1.7 10.5 0.5-1.9-0.5-7.5-1.1-12.5-1.4l-9-0.5zm-27 1.5c-33 8.7-56.2 36.3-60.5 72-0.5 4.6-0.9 10.3-0.9 12.5 0.1 2.2 0.7-1.2 1.4-7.5 1.7-15.8 3.6-22.8 9.6-34.9 4.5-9.1 6.3-11.6 14.8-20 7.9-8 11.2-10.5 18.6-14.3 10.5-5.3 13.3-6.3 24-8.2 5.8-1 6.9-1.4 4-1.5-2.2 0-7.1 0.8-11 1.9zm21.3 32.7c0.6 0.2 1.8 0.2 2.5 0 0.6-0.3 0.1-0.5-1.3-0.5-1.4 0-1.9 0.2-1.2 0.5zm-12.3 1.7c-12.4 3.9-23.7 15-28.8 28.4l-2.2 5.7v308l0.5-153.5c0.6-166.9 0.2-155.6 5.9-166.7 5.5-10.9 17.5-19.7 30.1-22.2 3.4-0.7 3.8-0.9 1.5-0.9-1.6 0-4.8 0.5-7 1.2zm-69.4 64.2c0 1.1 0.3 1.4 0.6 0.6 0.3-0.7 0.2-1.6-0.1-1.9-0.3-0.4-0.6 0.2-0.5 1.3zm0 15c0 1.1 0.3 1.4 0.6 0.6 0.3-0.7 0.2-1.6-0.1-1.9-0.3-0.4-0.6 0.2-0.5 1.3zm0.3 25.9c0 11.5 0.2 16.1 0.3 10.2 0.2-5.9 0.2-15.4 0-21-0.1-5.6-0.3-0.8-0.3 10.8zm-0.1 33c0 4.4 0.2 6.1 0.4 3.7 0.2-2.3 0.2-5.9 0-8-0.2-2-0.4-0.1-0.4 4.3zm0.1 20.5c0 5.8 0.1 8.1 0.3 5.2 0.2-2.8 0.2-7.6 0-10.5-0.2-2.8-0.3-0.5-0.3 5.3zm0 26c0 8 0.2 11.2 0.3 7.2 0.2-3.9 0.2-10.5 0-14.5-0.1-3.9-0.3-0.7-0.3 7.3z"/><path d="m35.8 434.5l0.2 36.5h102l-0.2-35.3-0.3-35.2-0.2 34.7-0.3 34.8h-100v-71l50.3-0.3 50.2-0.2-51-0.3-51-0.2zm266.2 0v36.5h101v-73h-101zm100 0v35.5h-99v-71h99z"/><path d="m96.9 79.7l-2.4 2.8 2.8-2.4c1.5-1.4 2.7-2.6 2.7-2.8 0-0.8-0.8-0.1-3.1 2.4zm-12 12c-1.3 1.6-1.2 1.7 0.4 0.4 1.6-1.3 2.1-2.1 1.3-2.1-0.2 0-1 0.8-1.7 1.7zm130.9 37c1.8 0.2 4.5 0.2 6 0 1.5-0.2 0-0.4-3.3-0.4-3.3 0-4.5 0.2-2.7 0.4zm0.2 34.4c0 0.5 0.5 0.7 1 0.4 0.6-0.3 1-0.8 1-1.1 0-0.2-0.4-0.4-1-0.4-0.5 0-1 0.5-1 1.1zm-79.9 121.3c-0.1 43.1 0.1 78.6 0.6 78.9 0.9 0.6 1-155.9 0.1-156.8-0.3-0.3-0.6 34.7-0.7 77.9zm303.1-73.4c0 1.4 0.2 1.9 0.5 1.2 0.2-0.6 0.2-1.8 0-2.5-0.3-0.6-0.5-0.1-0.5 1.3zm-403.7 79.5c0 40.1 0.1 56.4 0.2 36.2 0.2-20.3 0.2-53.1 0-73-0.1-19.9-0.2-3.4-0.2 36.8zm403.7-46.5c0 1.4 0.2 1.9 0.5 1.2 0.2-0.6 0.2-1.8 0-2.5-0.3-0.6-0.5-0.1-0.5 1.3zm-0.9 154c0 2.5 0.2 3.5 0.4 2.2 0.2-1.2 0.2-3.2 0-4.5-0.2-1.2-0.4-0.2-0.4 2.3zm-301.7 1.5c-0.3 0.8-0.1 1.5 0.4 1.5 0.6 0 1-0.7 1-1.5 0-0.8-0.2-1.5-0.4-1.5-0.2 0-0.6 0.7-1 1.5zm-101.1 35.5c0 19.5 0.1 27.5 0.2 17.7 0.2-9.7 0.2-25.7 0-35.5-0.1-9.7-0.2-1.7-0.2 17.8zm100.9-24c0 5.2 0.1 7.4 0.3 4.7 0.2-2.6 0.2-6.8 0-9.5-0.2-2.6-0.3-0.4-0.3 4.8zm-0.1 16.5c0 3.8 0.2 5.3 0.4 3.2 0.2-2 0.2-5.2 0-7-0.2-1.7-0.4-0.1-0.4 3.8zm0 16.5c0 3.6 0.2 5 0.4 3.2 0.2-1.7 0.2-4.7 0-6.5-0.2-1.7-0.4-0.3-0.4 3.3zm36.7 62c-1.2 0.7-1 0.9 0.7 0.7 1.2 0 1.9-0.5 1.7-0.9-0.6-1-0.6-1-2.4 0.2z" fill="rgb(85, 85, 85)"/><path d="m228.8 1.7c0.7 0.3 1.6 0.2 1.9-0.1 0.4-0.3-0.2-0.6-1.3-0.5-1.1 0-1.4 0.3-0.6 0.6zm141.2 58.7c0 0.2 0.8 1 1.8 1.7 1.5 1.3 1.6 1.2 0.3-0.4-1.3-1.6-2.1-2.1-2.1-1.3zm-120 114c0 0.2 0.8 1 1.8 1.7 1.5 1.3 1.6 1.2 0.3-0.4-1.3-1.6-2.1-2.1-2.1-1.3zm-111.9 26.2c0 1.1 0.3 1.4 0.6 0.6 0.3-0.7 0.2-1.6-0.1-1.9-0.3-0.4-0.6 0.2-0.5 1.3zm265.2 13.4c0 3.6 0.2 5 0.4 3.2 0.2-1.7 0.2-4.7 0-6.5-0.2-1.7-0.4-0.3-0.4 3.3zm-368.1-2c0 1.4 0.2 1.9 0.5 1.2 0.2-0.6 0.2-1.8 0-2.5-0.3-0.6-0.5-0.1-0.5 1.3zm139.1 3.5c0 2.2 0.2 3 0.4 1.7 0.2-1.2 0.2-3 0-4-0.3-0.9-0.5 0.1-0.4 2.3zm228.8 8.1c0 1.1 0.3 1.4 0.6 0.6 0.3-0.7 0.2-1.6-0.1-1.9-0.3-0.4-0.6 0.2-0.5 1.3zm0.4 70.4c0 37.7 0.1 53.1 0.2 34.2 0.2-18.8 0.2-49.6 0-68.5-0.1-18.8-0.2-3.4-0.2 34.3zm-229.3-49c0 1.9 0.2 2.7 0.5 1.7 0.2-0.9 0.2-2.5 0-3.5-0.3-0.9-0.5-0.1-0.5 1.8zm-0.1 96.6c0 1.1 0.3 1.4 0.6 0.6 0.3-0.7 0.2-1.6-0.1-1.9-0.3-0.4-0.6 0.2-0.5 1.3zm229.4 93.9c0 19.8 0.1 28 0.2 18.3 0.2-9.7 0.2-25.9 0-36-0.1-10.1-0.2-2.1-0.2 17.7z" fill="rgb(170, 170, 170)"/><path d="m209.8 1.7c0.7 0.3 1.6 0.2 1.9-0.1 0.4-0.3-0.2-0.6-1.3-0.5-1.1 0-1.4 0.3-0.6 0.6zm5.5 0c1.5 0.2 3.9 0.2 5.5 0 1.5-0.2 0.2-0.4-2.8-0.4-3 0-4.3 0.2-2.7 0.4zm10.5 0c0.7 0.3 1.6 0.2 1.9-0.1 0.4-0.3-0.2-0.6-1.3-0.5-1.1 0-1.4 0.3-0.6 0.6zm148.7 63.3c1 1.1 2 2 2.3 2 0.3 0-0.3-0.9-1.3-2-1-1.1-2-2-2.3-2-0.3 0 0.3 0.9 1.3 2zm-25.5 21.4c0 0.2 0.8 1 1.8 1.7 1.5 1.3 1.6 1.2 0.3-0.4-1.3-1.6-2.1-2.1-2.1-1.3zm-273.1 15.3c-1.3 1.6-1.2 1.7 0.4 0.4 0.9-0.7 1.7-1.5 1.7-1.7 0-0.8-0.8-0.3-2.1 1.3zm361.2 98.9c0 1.1 0.3 1.4 0.6 0.6 0.3-0.7 0.2-1.6-0.1-1.9-0.3-0.4-0.6 0.2-0.5 1.3zm-135.9 6.4c0 1.4 0.2 1.9 0.5 1.2 0.2-0.6 0.2-1.8 0-2.5-0.3-0.6-0.5-0.1-0.5 1.3zm101.9-0.4c0 1.1 0.3 1.4 0.6 0.6 0.3-0.7 0.2-1.6-0.1-1.9-0.3-0.4-0.6 0.2-0.5 1.3zm-229 2c0 1.1 0.3 1.4 0.6 0.6 0.3-0.7 0.2-1.6-0.1-1.9-0.3-0.4-0.6 0.2-0.5 1.3zm0.2 13.9c0 2.2 0.2 3 0.4 1.7 0.2-1.2 0.2-3 0-4-0.3-0.9-0.5 0.1-0.4 2.3zm126.9 1c0 1.6 0.2 2.2 0.5 1.2 0.2-0.9 0.2-2.3 0-3-0.3-0.6-0.5 0.1-0.5 1.8zm-126.9 11.5c0 4.1 0.2 5.8 0.4 3.7 0.2-2 0.2-5.4 0-7.5-0.2-2-0.4-0.3-0.4 3.8zm127 11.5c0 2.2 0.2 3 0.4 1.7 0.2-1.2 0.2-3 0-4-0.3-0.9-0.5 0.1-0.4 2.3zm-127 7c0 2.2 0.2 3 0.4 1.7 0.2-1.2 0.2-3 0-4-0.3-0.9-0.5 0.1-0.4 2.3zm127 7.5c0 3 0.2 4.3 0.4 2.7 0.2-1.5 0.2-3.9 0-5.5-0.2-1.5-0.4-0.2-0.4 2.8zm-127 5c0 4.7 0.2 6.6 0.4 4.2 0.2-2.3 0.2-6.1 0-8.5-0.2-2.3-0.4-0.4-0.4 4.3zm-0.2 13.6c0 1.1 0.3 1.4 0.6 0.6 0.3-0.7 0.2-1.6-0.1-1.9-0.3-0.4-0.6 0.2-0.5 1.3zm0.2 6.4c0 2.5 0.2 3.5 0.4 2.2 0.2-1.2 0.2-3.2 0-4.5-0.2-1.2-0.4-0.2-0.4 2.3zm0 12.5c0 4.4 0.2 6.1 0.4 3.7 0.2-2.3 0.2-5.9 0-8-0.2-2-0.4-0.1-0.4 4.3zm126.8 9.1c0 1.1 0.3 1.4 0.6 0.6 0.3-0.7 0.2-1.6-0.1-1.9-0.3-0.4-0.6 0.2-0.5 1.3zm-127 4c0 1.1 0.3 1.4 0.6 0.6 0.3-0.7 0.2-1.6-0.1-1.9-0.3-0.4-0.6 0.2-0.5 1.3zm0.3 15.4c0 6.3 0.1 8.9 0.3 5.7 0.2-3.1 0.2-8.3 0-11.5-0.2-3.1-0.3-0.5-0.3 5.8zm126.7-6.4c0 1.1 0.3 1.4 0.6 0.6 0.3-0.7 0.2-1.6-0.1-1.9-0.3-0.4-0.6 0.2-0.5 1.3zm0.1 7.4c0 1.4 0.2 1.9 0.5 1.2 0.2-0.6 0.2-1.8 0-2.5-0.3-0.6-0.5-0.1-0.5 1.3zm-126.8 34.5c0 9.3 0.2 13.3 0.3 8.8 0.2-4.5 0.2-12.2 0-17-0.1-4.8-0.3-1.2-0.3 8.2zm0 33c0 5.5 0.1 7.6 0.3 4.7 0.2-2.9 0.2-7.4 0-10-0.2-2.6-0.3-0.2-0.3 5.3zm-118.1 2.2c0.9 0.2 2.3 0.2 3 0 0.6-0.3-0.1-0.5-1.8-0.5-1.6 0-2.2 0.2-1.2 0.5zm249.5 0c0.7 0.3 1.6 0.2 1.9-0.1 0.4-0.3-0.2-0.6-1.3-0.5-1.1 0-1.4 0.3-0.6 0.6zm70 0c0.7 0.3 1.6 0.2 1.9-0.1 0.4-0.3-0.2-0.6-1.3-0.5-1.1 0-1.4 0.3-0.6 0.6zm-201.3 55.3c0 26.1 0.1 36.8 0.2 23.7 0.2-13 0.2-34.4 0-47.5-0.1-13-0.2-2.3-0.2 23.8zm126.8-4.5c0 2.7 0.2 3.8 0.4 2.2 0.2-1.5 0.2-3.7 0-5-0.2-1.2-0.4 0-0.4 2.8z" fill="rgb(212, 212, 212)"/><path d="m195 2.6c-1.4 0.2-5.9 0.9-10 1.5-4.1 0.6-12.9 2.4-19.5 4-40.8 10.2-73.1 28.4-102.5 57.9-29.3 29.3-47.8 64.2-56.5 106.5-4.2 20.8-4.5 29.8-4.5 184.7v147.8h172.5v-303.5l2.4-7.3c3-9.2 8-16.3 15.6-22.4 9-7.3 14.8-9.2 27.5-9.3 10 0 10.8 0.2 18.1 3.6 8.8 4.2 17.1 11.9 20.8 19.3 5.3 10.8 5.1 3.4 5.1 167.3v152.3h174.1l-0.4-156.3c-0.3-172.4 0.1-160.4-6.7-186.2-4.7-17.9-6.7-23.1-15.6-41.5-16.8-34.5-46.3-66.6-79.5-86.5-24.2-14.5-51.3-24.8-78.9-30-8.1-1.6-55.5-3-62-1.9zm47 31.4c17.5 2.1 37.2 7.5 51.2 13.9 2.6 1.1 4.9 2.1 5.1 2.1 1.1 0 18 9.7 24.7 14.3 18.1 12.1 38.4 32.8 51.2 52.3 13.3 20.2 21.6 41 27 68.2 2.1 10.4 2.2 13.3 2.6 95.4l0.3 84.8-9.8 0.1c-9.5 0-34.2 0-73.8-0.1h-19l0.1-75.8c0-41.6-0.3-80.2-0.8-85.7-3-33.4-25.7-61.6-57.3-71.1-7.9-2.3-10.9-2.7-23.5-2.8-24.7-0.2-37.9 4.7-56.8 20.9-3.9 3.3-12.8 15.6-16 22-3.8 7.8-6.9 17.3-8.2 25.5-0.6 4-1 36.8-1 86.7v80.3h-21.7c-16.9 0.1-68.5 0-79.5 0-1.7 0-1.8-4.3-1.8-75.9 0-60.8 0.3-78.6 1.5-89.4 2.4-21.4 5.3-33.5 12.2-50.5 6-14.9 8.8-20.2 19.1-35.6 11.2-16.8 30.6-36.8 46.6-48 22.8-16 52.1-27.4 81.1-31.5 8.6-1.2 36.6-1.3 46.5-0.1zm-114.7 363.9l10.7 0.1v73h-103v-72.9l4.3-0.3c2.3-0.2 20.6-0.2 40.7-0.1 20.1 0.1 41.3 0.2 47.3 0.2zm264 0l12.7 0.1v73h-52.2c-28.8 0-51.8-0.4-51.3-0.8 0.7-0.4 1-13.1 1-36.4 0-19.7 0.3-35.9 0.8-36 0.6-0.3 56.6-0.2 89 0.1z" fill="rgb(255, 255, 255)"/><path d="m438.1 349.6c0 1.1 0.3 1.4 0.6 0.6 0.3-0.7 0.2-1.6-0.1-1.9-0.3-0.4-0.6 0.2-0.5 1.3z" fill="rgb(0, 85, 85)"/><path d="m137.2 225c0 1.4 0.2 1.9 0.5 1.2 0.2-0.6 0.2-1.8 0-2.5-0.3-0.6-0.5-0.1-0.5 1.3zm-0.1 6.6c0 1.1 0.3 1.4 0.6 0.6 0.3-0.7 0.2-1.6-0.1-1.9-0.3-0.4-0.6 0.2-0.5 1.3zm0 80c0 1.1 0.3 1.4 0.6 0.6 0.3-0.7 0.2-1.6-0.1-1.9-0.3-0.4-0.6 0.2-0.5 1.3z" fill="rgb(0, 0, 85)"/></svg>