<svg xmlns="http://www.w3.org/2000/svg" viewBox="0 0 337 541" width="32" height="32"><path d="m287.3 0.7c0.9 0.2 2.5 0.2 3.5 0 0.9-0.3 0.1-0.5-1.8-0.5-1.9 0-2.7 0.2-1.7 0.5zm-247.5 1c0.7 0.3 1.6 0.2 1.9-0.1 0.4-0.3-0.2-0.6-1.3-0.5-1.1 0-1.4 0.3-0.6 0.6zm257 0c0.6 0.2 1.8 0.2 2.5 0 0.6-0.3 0.1-0.5-1.3-0.5-1.4 0-1.9 0.2-1.2 0.5zm11.9 3.4c0.7 0.7 1.5 1 1.8 0.7 0.3-0.3-0.2-0.9-1.2-1.2-1.4-0.6-1.5-0.5-0.6 0.5zm-46.8 4.6c-1.3 1.6-1.2 1.7 0.4 0.4 1.6-1.3 2.1-2.1 1.3-2.1-0.2 0-1 0.8-1.7 1.7zm55.3 0.9c1 1 2 1.5 2.4 1.2 0.3-0.4-0.5-1.2-1.8-1.8-2.2-1.2-2.2-1.2-0.6 0.6zm-240.2 1.8c0 0.2 0.8 1 1.8 1.7 1.5 1.3 1.6 1.2 0.3-0.4-1.3-1.6-2.1-2.1-2.1-1.3zm165.2 32.1c0 1.6 0.2 2.2 0.5 1.2 0.2-0.9 0.2-2.3 0-3-0.3-0.6-0.5 0.1-0.5 1.8zm-241.9 3c0 2.2 0.2 3 0.4 1.7 0.2-1.2 0.2-3 0-4-0.3-0.9-0.5 0.1-0.4 2.3zm335.8 0.1c0 1.1 0.3 1.4 0.6 0.6 0.3-0.7 0.2-1.6-0.1-1.9-0.3-0.4-0.6 0.2-0.5 1.3zm-242 2c0 1.1 0.3 1.4 0.6 0.6 0.3-0.7 0.2-1.6-0.1-1.9-0.3-0.4-0.6 0.2-0.5 1.3zm241.1 5.4c0 1.4 0.2 1.9 0.5 1.2 0.2-0.6 0.2-1.8 0-2.5-0.3-0.6-0.5-0.1-0.5 1.3zm-91.2 4.9c0 0.6 0.4 1.3 1 1.6 0.6 0.3 0.7-0.1 0.4-0.9-0.7-1.8-1.4-2.1-1.4-0.7zm89.1 3.7c0 1.1 0.3 1.4 0.6 0.6 0.3-0.7 0.2-1.6-0.1-1.9-0.3-0.4-0.6 0.2-0.5 1.3zm-87.1 1.4c0.6 1.1 1.3 2 1.6 2 0.2 0 0-0.9-0.6-2-0.6-1.1-1.3-2-1.6-2-0.2 0 0 0.9 0.6 2zm-162.1 11.7c-1.3 1.6-1.2 1.7 0.4 0.4 0.9-0.7 1.7-1.5 1.7-1.7 0-0.8-0.8-0.3-2.1 1.3zm242 0c-1.3 1.6-1.2 1.7 0.4 0.4 0.9-0.7 1.7-1.5 1.7-1.7 0-0.8-0.8-0.3-2.1 1.3zm-311.9 3.7c0 0.2 0.8 1 1.8 1.7 1.5 1.3 1.6 1.2 0.3-0.4-1.3-1.6-2.1-2.1-2.1-1.3zm244.7 2.7c0.7 0.7 1.5 1 1.8 0.7 0.3-0.3-0.2-0.9-1.2-1.2-1.4-0.6-1.5-0.5-0.6 0.5zm-184.7 3c-2.2 1.8-2.2 1.9-0.3 1 1.2-0.6 2.5-1.6 2.8-2.1 0.9-1.5 0.3-1.2-2.5 1.1zm-6.5 3.9c-0.3 0.6 0.1 0.7 0.9 0.4 1.8-0.7 2.1-1.4 0.7-1.4-0.6 0-1.3 0.4-1.6 1zm238.9 1.6c-1.8 1.4-1.8 1.5 0.4 0.4 1.2-0.6 2.2-1.3 2.2-1.5 0-0.8-0.5-0.6-2.6 1.1zm-245.6 1.1c0.7 0.3 1.6 0.2 1.9-0.1 0.4-0.3-0.2-0.6-1.3-0.5-1.1 0-1.4 0.3-0.6 0.6zm-18 2c1.2 0.2 3 0.2 4 0 0.9-0.3-0.1-0.5-2.3-0.4-2.2 0-3 0.2-1.7 0.4zm246.5 0c1.5 0.2 3.7 0.2 5 0 1.2-0.2 0-0.4-2.8-0.4-2.7 0-3.8 0.2-2.2 0.4zm-246 129c1.5 0.2 3.9 0.2 5.5 0 1.5-0.2 0.2-0.4-2.8-0.4-3 0-4.3 0.2-2.7 0.4zm237.5 0c0.6 0.2 1.8 0.2 2.5 0 0.6-0.3 0.1-0.5-1.3-0.5-1.4 0-1.9 0.2-1.2 0.5zm-224 1c0.7 0.3 1.6 0.2 1.9-0.1 0.4-0.3-0.2-0.6-1.3-0.5-1.1 0-1.4 0.3-0.6 0.6zm-26.8 1.3c-0.9 0.6-1 1-0.3 1 0.6 0 1.5-0.5 1.8-1 0.8-1.2 0.4-1.2-1.5 0zm33 0.4c0 0.2 0.7 0.7 1.6 1 0.8 0.3 1.2 0.2 0.9-0.4-0.6-1-2.5-1.4-2.5-0.6zm12 7c0 0.2 0.7 0.7 1.6 1 0.8 0.3 1.2 0.2 0.9-0.4-0.6-1-2.5-1.4-2.5-0.6zm-66.5 9.7c-0.4 0.6-0.5 1.2-0.2 1.5 0.2 0.3 0.7-0.2 1-1.1 0.7-1.7 0.1-2-0.8-0.4zm233.7 21.4c0 1.6 0.2 2.2 0.5 1.2 0.2-0.9 0.2-2.3 0-3-0.3-0.6-0.5 0.1-0.5 1.8zm-242 1.5c0 1.9 0.2 2.7 0.5 1.7 0.2-0.9 0.2-2.5 0-3.5-0.3-0.9-0.5-0.1-0.5 1.8zm93 0c0 1.4 0.2 1.9 0.5 1.2 0.2-0.6 0.2-1.8 0-2.5-0.3-0.6-0.5-0.1-0.5 1.3zm241.9 1.6c0 1.1 0.3 1.4 0.6 0.6 0.3-0.7 0.2-1.6-0.1-1.9-0.3-0.4-0.6 0.2-0.5 1.3zm-92.9 2.9c0 1.6 0.2 2.2 0.5 1.2 0.2-0.9 0.2-2.3 0-3-0.3-0.6-0.5 0.1-0.5 1.8zm-242.1 3.1c0 1.1 0.3 1.4 0.6 0.6 0.3-0.7 0.2-1.6-0.1-1.9-0.3-0.4-0.6 0.2-0.5 1.3zm93 2c0 1.1 0.3 1.4 0.6 0.6 0.3-0.7 0.2-1.6-0.1-1.9-0.3-0.4-0.6 0.2-0.5 1.3zm-9.2 24.1c-1.3 1.6-1.2 1.7 0.4 0.4 1.6-1.3 2.1-2.1 1.3-2.1-0.2 0-1 0.8-1.7 1.7zm-71.9 1.7c0 0.2 0.8 1 1.8 1.7 1.5 1.3 1.6 1.2 0.3-0.4-1.3-1.6-2.1-2.1-2.1-1.3zm247.5 5.6c1 1.1 2 2 2.3 2 0.3 0-0.3-0.9-1.3-2-1-1.1-2-2-2.3-2-0.3 0 0.3 0.9 1.3 2zm59.4-0.3c-1.3 1.6-1.2 1.7 0.4 0.4 1.6-1.3 2.1-2.1 1.3-2.1-0.2 0-1 0.8-1.7 1.7zm-4 3c-1.3 1.6-1.2 1.7 0.4 0.4 0.9-0.7 1.7-1.5 1.7-1.7 0-0.8-0.8-0.3-2.1 1.3zm-10.9 5.3c-0.9 0.6-1 1-0.3 1 0.6 0 1.5-0.5 1.8-1 0.8-1.2 0.4-1.2-1.5 0zm2 134.5c1.4 0.8 3 1.4 3.5 1.4 0.6 0-0.1-0.6-1.5-1.4-1.4-0.8-2.9-1.4-3.5-1.4-0.5 0 0.1 0.6 1.5 1.4zm-284 3.5c-0.9 0.6-1 1-0.3 1 0.6 0 1.5-0.5 1.8-1 0.8-1.2 0.4-1.2-1.5 0zm57.5 6c1 1.1 2 2 2.3 2 0.3 0-0.3-0.9-1.3-2-1-1.1-2-2-2.3-2-0.3 0 0.3 0.9 1.3 2zm241.5 1.4c0 0.2 0.8 1 1.8 1.7 1.5 1.3 1.6 1.2 0.3-0.4-1.3-1.6-2.1-2.1-2.1-1.3zm-319.8 25.6c0 1.4 0.2 1.9 0.5 1.2 0.2-0.6 0.2-1.8 0-2.5-0.3-0.6-0.5-0.1-0.5 1.3zm240.1 7c0 3.6 0.2 5 0.4 3.2 0.2-1.7 0.2-4.7 0-6.5-0.2-1.7-0.4-0.3-0.4 3.3zm-236.7 20.3c0.3 1 0.9 1.5 1.2 1.2 0.3-0.3 0-1.1-0.7-1.8-1-0.9-1.1-0.8-0.5 0.6zm4.4 7.6c0 0.6 0.4 1.3 1 1.6 0.6 0.3 0.7-0.1 0.4-0.9-0.7-1.8-1.4-2.1-1.4-0.7zm242 1.5c0 0.2 0.8 1 1.8 1.7 1.5 1.3 1.6 1.2 0.3-0.4-1.3-1.6-2.1-2.1-2.1-1.3zm6 7c0 0.2 0.7 0.7 1.6 1 0.8 0.3 1.2 0.2 0.9-0.4-0.6-1-2.5-1.4-2.5-0.6zm-207.7 11.3c0.9 0.2 2.3 0.2 3 0 0.6-0.3-0.1-0.5-1.8-0.5-1.6 0-2.2 0.2-1.2 0.5zm237.5 0c0.7 0.3 1.6 0.2 1.9-0.1 0.4-0.3-0.2-0.6-1.3-0.5-1.1 0-1.4 0.3-0.6 0.6z" fill="rgb(128, 128, 128)"/><path d="m42.8 1.7c0.7 0.3 1.6 0.2 1.9-0.1 0.4-0.3-0.2-0.6-1.3-0.5-1.1 0-1.4 0.3-0.6 0.6zm7 0c0.7 0.3 1.6 0.2 1.9-0.1 0.4-0.3-0.2-0.6-1.3-0.5-1.1 0-1.4 0.3-0.6 0.6zm244 0c0.7 0.3 1.6 0.2 1.9-0.1 0.4-0.3-0.2-0.6-1.3-0.5-1.1 0-1.4 0.3-0.6 0.6zm40.2 56.4c0 0.5 0.5 0.7 1 0.4 0.6-0.3 1-0.8 1-1.1 0-0.2-0.4-0.4-1-0.4-0.5 0-1 0.5-1 1.1zm-253.1 21.6c-1.3 1.6-1.2 1.7 0.4 0.4 0.9-0.7 1.7-1.5 1.7-1.7 0-0.8-0.8-0.3-2.1 1.3zm241 0.9l-2.4 2.7 2.8-1.8c1.5-0.9 2.7-2.1 2.7-2.6 0-1.4-0.5-1.1-3.1 1.7zm-37.1 143.1c0.7 0.3 1.6 0.2 1.9-0.1 0.4-0.3-0.2-0.6-1.3-0.5-1.1 0-1.4 0.3-0.6 0.6zm4.5 0c0.9 0.2 2.3 0.2 3 0 0.6-0.3-0.1-0.5-1.8-0.5-1.6 0-2.2 0.2-1.2 0.5zm-196.1 47.3c0 1.9 0.2 2.7 0.5 1.7 0.2-0.9 0.2-2.5 0-3.5-0.3-0.9-0.5-0.1-0.5 1.8zm195.6 46.7c0.7 0.3 1.6 0.2 1.9-0.1 0.4-0.3-0.2-0.6-1.3-0.5-1.1 0-1.4 0.3-0.6 0.6zm-4 128c0.6 0.2 1.8 0.2 2.5 0 0.6-0.3 0.1-0.5-1.3-0.5-1.4 0-1.9 0.2-1.2 0.5zm-268.4 12.5l-1.9 2.3 2.3-1.9c2.1-1.8 2.7-2.6 1.9-2.6-0.2 0-1.2 1-2.3 2.2zm237.5 2.5c-1.3 1.6-1.2 1.7 0.4 0.4 0.9-0.7 1.7-1.5 1.7-1.7 0-0.8-0.8-0.3-2.1 1.3zm-252.7 36.3c0 1.4 0.2 1.9 0.5 1.2 0.2-0.6 0.2-1.8 0-2.5-0.3-0.6-0.5-0.1-0.5 1.3zm80.2 29.2l-1.9 2.3 2.3-1.9c1.2-1.1 2.2-2.1 2.2-2.3 0-0.8-0.8-0.2-2.6 1.9z" fill="rgb(170, 170, 170)"/><path d="m46.8 1.7c0.7 0.3 1.6 0.2 1.9-0.1 0.4-0.3-0.2-0.6-1.3-0.5-1.1 0-1.4 0.3-0.6 0.6zm240 0c0.6 0.2 1.8 0.2 2.5 0 0.6-0.3 0.1-0.5-1.3-0.5-1.4 0-1.9 0.2-1.2 0.5zm-30.4 13.5l-2.9 3.3 3.3-2.9c3-2.8 3.7-3.6 2.9-3.6-0.2 0-1.6 1.5-3.3 3.2zm-242.5 0.5c-1.3 1.6-1.2 1.7 0.4 0.4 0.9-0.7 1.7-1.5 1.7-1.7 0-0.8-0.8-0.3-2.1 1.3zm79.4 32.8c0 2.2 0.2 3 0.4 1.7 0.2-1.2 0.2-3 0-4-0.3-0.9-0.5 0.1-0.4 2.3zm-79.8 30.5c1 1.1 2 2 2.3 2 0.3 0-0.3-0.9-1.3-2-1-1.1-2-2-2.3-2-0.3 0 0.3 0.9 1.3 2zm0.9 158.2l-1.9 2.3 2.3-1.9c2.1-1.8 2.7-2.6 1.9-2.6-0.2 0-1.2 1-2.3 2.2zm62.6-1.8c0 0.2 0.8 1 1.8 1.7 1.5 1.3 1.6 1.2 0.3-0.4-1.3-1.6-2.1-2.1-2.1-1.3zm242 0c0 0.2 0.8 1 1.8 1.7 1.5 1.3 1.6 1.2 0.3-0.4-1.3-1.6-2.1-2.1-2.1-1.3zm-64.1 3.3c-1.3 1.6-1.2 1.7 0.4 0.4 1.6-1.3 2.1-2.1 1.3-2.1-0.2 0-1 0.8-1.7 1.7zm-253.7 254.3c0 1.4 0.2 1.9 0.5 1.2 0.2-0.6 0.2-1.8 0-2.5-0.3-0.6-0.5-0.1-0.5 1.3zm92.9 3.6c0 1.1 0.3 1.4 0.6 0.6 0.3-0.7 0.2-1.6-0.1-1.9-0.3-0.4-0.6 0.2-0.5 1.3zm225.8 30.1l-2.4 2.8 2.8-2.4c1.5-1.4 2.7-2.6 2.7-2.8 0-0.8-0.8-0.1-3.1 2.4z" fill="rgb(212, 212, 212)"/><path d="m323 15.5c1.9 1.9 3.6 3.5 3.9 3.5 0.3 0-1-1.6-2.9-3.5-1.9-1.9-3.6-3.5-3.9-3.5-0.3 0 1 1.6 2.9 3.5zm-310.1 0.2c-1.3 1.6-1.2 1.7 0.4 0.4 0.9-0.7 1.7-1.5 1.7-1.7 0-0.8-0.8-0.3-2.1 1.3zm69.1 1.7c0 0.2 0.8 1 1.8 1.7 1.5 1.3 1.6 1.2 0.3-0.4-1.3-1.6-2.1-2.1-2.1-1.3zm249.1 9.6c1.4 3.1 1.9 3.6 1.9 2.4 0-0.6-0.7-1.9-1.6-3-1.4-1.8-1.4-1.8-0.3 0.6zm-330 29.6c0 1.1 0.3 1.4 0.6 0.6 0.3-0.7 0.2-1.6-0.1-1.9-0.3-0.4-0.6 0.2-0.5 1.3zm9.9 20.8c0 0.2 0.8 1 1.8 1.7 1.5 1.3 1.6 1.2 0.3-0.4-1.3-1.6-2.1-2.1-2.1-1.3zm244.5 2.6c1 1.1 2 2 2.3 2 0.3 0-0.3-0.9-1.3-2-1-1.1-2-2-2.3-2-0.3 0 0.3 0.9 1.3 2zm12.2 9.1c0.7 0.7 1.5 1 1.8 0.7 0.3-0.3-0.2-0.9-1.2-1.2-1.4-0.6-1.5-0.5-0.6 0.5zm32.1 4.6c0.7 0.3 1.6 0.2 1.9-0.1 0.4-0.3-0.2-0.6-1.3-0.5-1.1 0-1.4 0.3-0.6 0.6zm-15 1c0.7 0.3 1.6 0.2 1.9-0.1 0.4-0.3-0.2-0.6-1.3-0.5-1.1 0-1.4 0.3-0.6 0.6zm-263.9 136.4l-2.4 2 2.8-1.7c1.5-0.9 2.7-1.8 2.7-2 0-0.8-0.8-0.4-3.1 1.7zm-6 4.6c-1.3 1.6-1.2 1.7 0.4 0.4 0.9-0.7 1.7-1.5 1.7-1.7 0-0.8-0.8-0.3-2.1 1.3zm242 0c-1.3 1.6-1.2 1.7 0.4 0.4 0.9-0.7 1.7-1.5 1.7-1.7 0-0.8-0.8-0.3-2.1 1.3zm-176.9 1.8c1.3 1.4 2.6 2.5 2.8 2.5 0.3 0-0.5-1.1-1.8-2.5-1.3-1.4-2.6-2.5-2.8-2.5-0.3 0 0.5 1.1 1.8 2.5zm240-2.2c0 0.2 1.5 1.6 3.3 3.3l3.2 2.9-2.9-3.3c-2.8-3-3.6-3.7-3.6-2.9zm15.2 28.7c0 1.4 0.2 1.9 0.5 1.2 0.2-0.6 0.2-1.8 0-2.5-0.3-0.6-0.5-0.1-0.5 1.3zm-93.1 11.6c0 1.1 0.3 1.4 0.6 0.6 0.3-0.7 0.2-1.6-0.1-1.9-0.3-0.4-0.6 0.2-0.5 1.3zm-241 5c0 1.1 0.3 1.4 0.6 0.6 0.3-0.7 0.2-1.6-0.1-1.9-0.3-0.4-0.6 0.2-0.5 1.3zm7.9 17.8c0 0.2 0.8 1 1.8 1.7 1.5 1.3 1.6 1.2 0.3-0.4-1.3-1.6-2.1-2.1-2.1-1.3zm243 1c0 0.2 0.8 1 1.8 1.7 1.5 1.3 1.6 1.2 0.3-0.4-1.3-1.6-2.1-2.1-2.1-1.3zm70.4 3.8l-1.9 2.3 2.3-1.9c2.1-1.8 2.7-2.6 1.9-2.6-0.2 0-1.2 1-2.3 2.2zm-279.6 14.5c0.7 0.3 1.6 0.2 1.9-0.1 0.4-0.3-0.2-0.6-1.3-0.5-1.1 0-1.4 0.3-0.6 0.6zm9.5 0c0.9 0.2 2.3 0.2 3 0 0.6-0.3-0.1-0.5-1.8-0.5-1.6 0-2.2 0.2-1.2 0.5zm-9 128c0.9 0.2 2.3 0.2 3 0 0.6-0.3-0.1-0.5-1.8-0.5-1.6 0-2.2 0.2-1.2 0.5zm7 0c0.9 0.2 2.3 0.2 3 0 0.6-0.3-0.1-0.5-1.8-0.5-1.6 0-2.2 0.2-1.2 0.5zm240.5 0c0.6 0.2 1.8 0.2 2.5 0 0.6-0.3 0.1-0.5-1.3-0.5-1.4 0-1.9 0.2-1.2 0.5zm25.7 10.3c1 1.1 2 2 2.3 2 0.3 0-0.3-0.9-1.3-2-1-1.1-2-2-2.3-2-0.3 0 0.3 0.9 1.3 2zm-60.6 1.7c-1.3 1.6-1.2 1.7 0.4 0.4 0.9-0.7 1.7-1.5 1.7-1.7 0-0.8-0.8-0.3-2.1 1.3zm-173.9 3.7c0 0.2 0.8 1 1.8 1.7 1.5 1.3 1.6 1.2 0.3-0.4-1.3-1.6-2.1-2.1-2.1-1.3zm7.5 10.6c0.9 1.6 1.8 3 2.1 3 0.2 0-0.2-1.4-1.1-3-0.9-1.7-1.8-3-2.1-3-0.2 0 0.2 1.3 1.1 3zm239.1-1.7c0.3 1 0.9 1.5 1.2 1.2 0.3-0.3 0-1.1-0.7-1.8-1-0.9-1.1-0.8-0.5 0.6zm2 4c0.3 1 0.9 1.5 1.2 1.2 0.3-0.3 0-1.1-0.7-1.8-1-0.9-1.1-0.8-0.5 0.6zm-236.5 10.3c0 1.1 0.3 1.4 0.6 0.6 0.3-0.7 0.2-1.6-0.1-1.9-0.3-0.4-0.6 0.2-0.5 1.3zm240.2 7.4c0 4.1 0.2 5.8 0.4 3.7 0.2-2 0.2-5.4 0-7.5-0.2-2-0.4-0.3-0.4 3.8zm-239.1 2.5c0 1.6 0.2 2.2 0.5 1.2 0.2-0.9 0.2-2.3 0-3-0.3-0.6-0.5 0.1-0.5 1.8zm-1.1 8.1c0 1.1 0.3 1.4 0.6 0.6 0.3-0.7 0.2-1.6-0.1-1.9-0.3-0.4-0.6 0.2-0.5 1.3zm148 1c0 1.1 0.3 1.4 0.6 0.6 0.3-0.7 0.2-1.6-0.1-1.9-0.3-0.4-0.6 0.2-0.5 1.3zm91 1c0 1.1 0.3 1.4 0.6 0.6 0.3-0.7 0.2-1.6-0.1-1.9-0.3-0.4-0.6 0.2-0.5 1.3zm-10.7 20.6l-1.9 2.3 2.3-1.9c1.2-1.1 2.2-2.1 2.2-2.3 0-0.8-0.8-0.2-2.6 1.9zm-4.5 4.5c-1.3 1.6-1.2 1.7 0.4 0.4 0.9-0.7 1.7-1.5 1.7-1.7 0-0.8-0.8-0.3-2.1 1.3zm-296.9 2.7c0 0.3 0.9 1 2 1.6 1.1 0.6 2 0.8 2 0.6 0-0.3-0.9-1-2-1.6-1.1-0.6-2-0.8-2-0.6zm246 3.6c0.8 0.5 2 1 2.5 1 0.6 0 0.3-0.5-0.5-1-0.8-0.5-1.9-1-2.5-1-0.5 0-0.3 0.5 0.5 1zm-213.2 4.7c0.7 0.3 1.6 0.2 1.9-0.1 0.4-0.3-0.2-0.6-1.3-0.5-1.1 0-1.4 0.3-0.6 0.6zm228.5 0c0.9 0.2 2.3 0.2 3 0 0.6-0.3-0.1-0.5-1.8-0.5-1.6 0-2.2 0.2-1.2 0.5zm8 0c0.9 0.2 2.3 0.2 3 0 0.6-0.3-0.1-0.5-1.8-0.5-1.6 0-2.2 0.2-1.2 0.5z" fill="rgb(85, 85, 85)"/><path d="m33.4 3.9c-16 5.8-27.9 19.5-31.5 36.1-3.7 17.4 7 38.8 24 47.8 11.2 6 21.4 7.5 32.4 4.6 16.6-4.3 29-16.1 33.2-31.8 2.7-10 1.8-23.2-2.3-31.7-8.1-17-23.6-26.9-42-26.9-5.9 0.1-10.4 0.7-13.8 1.9zm242.1-0.1c-8.5 3.2-11.8 5.3-18.3 11.8-11.1 11.2-15.9 25.8-12.8 39.5 2.3 10.3 6.1 17.4 13 24.3 13.3 13.4 29.7 17.6 46.4 12 16.7-5.6 27.3-17.9 30.7-35.8 3.9-20.3-6.1-39.8-25.3-49.3-6.8-3.4-8.1-3.7-18-4-8.6-0.3-11.7 0-15.7 1.5zm-242.6 222.5c-12.2 4.2-21.7 13-27.6 25.3-14.7 31 11.4 67.8 46.1 65.1 13.3-1 24.4-7.2 32.9-18.3 5.4-7.1 7.8-14.3 8.4-25 0.9-14.4-3.6-26.2-13.5-35.9-8.9-8.7-18-12.5-31.2-13.2-7.1-0.3-9.6 0-15.1 2zm244.8-1.2c-9.7 2.3-23 12.4-28.5 21.8-15.3 26.2-0.5 60.8 29.5 68.6 17 4.4 36.7-2.7 46.7-16.9 16.8-23.8 10.5-54.3-14.4-68.9-8.7-5-23-7-33.3-4.6zm-240.7 222.4c-9 2.5-14.1 5.5-20.6 12-4.2 4.2-7.4 8.7-10 14.1-3.9 7.8-3.9 7.9-3.9 19.9 0 11 0.2 12.5 2.7 17.9 6 12.7 14.7 20.9 27.5 25.8 4.7 1.8 7.8 2.3 16.3 2.3 9.8 0 11-0.2 17.4-3.2 12.9-6.2 22.7-17.1 26.2-29.1 2.1-7.3 2.1-20.4-0.2-27.5-4-12.7-16.5-26-29-30.6-7.6-2.9-19.2-3.6-26.4-1.6zm239.1 0.1c-8.2 2.2-14.8 6.2-20.6 12.6-14.4 16-17.3 34.5-8.4 53.5 10.6 22.5 39.2 32.7 61.1 21.7 5.9-3 16.2-12.5 19.3-17.8 10.8-18.8 7.8-42.5-7.5-57.6-12.1-12-28.4-16.6-43.9-12.4z" fill="rgb(255, 255, 255)"/></svg>