<svg xmlns="http://www.w3.org/2000/svg" viewBox="0 0 442 500" width="32" height="32"><path d="m224 1c58.8 0.5 60.7 0.6 66.2 2.7 16.1 6.1 26.4 17 31.2 33.2 1.1 3.9 1.6 9.5 1.6 19.8v14.3h112.1l2.4 2.4c3 3 3.9 7.8 3.3 16.8-0.4 5.1-1.1 7.8-2.8 10.1-2.2 3.1-2.2 3.1-0.2 1.3 1.2-1 2.6-3.5 3.2-5.5 1.4-5.2 1.2-15.6-0.4-19.5-2.9-6.9 0-6.6-61.3-6.6h-55.3v-13.8c0-8.7-0.5-15.7-1.5-19.1-4.8-18.2-19-31.8-37.4-35.7-5.3-1.1-17.9-1.3-64.1-1.2l-57.5 0.2zm-70 1.4c-12.1 4.5-21.9 12.2-27.5 21.7-5.6 9.6-6.9 15.5-6.9 31.6l-0.1 14.3h-56c-61.5 0-58.8-0.3-62 6-1.7 3.4-2 14.7-0.5 20.2 0.6 2 2.2 4.6 3.7 5.8 2.4 1.9 3.8 2 22.2 1.8l19.6-0.3-19.5-0.2c-18.3-0.3-19.6-0.5-21.7-2.5-2.9-2.7-4.3-7.6-4.3-15.1 0-6.9 1.8-11.7 5.1-13.5 1.8-0.9 15.6-1.3 58.1-1.5l55.7-0.2 0.5-14.5c0.6-20.9 3.9-30.3 14-40.4 6-5.9 17.1-12.1 24.6-13.5 3.4-0.7 3.8-0.9 1.5-0.9-1.6 0-4.6 0.5-6.5 1.2z"/><path d="m164 29.5c-2.5 0.8-6 2.9-7.8 4.7-5.9 5.6-6.6 8-7 23l-0.4 13.8h145.2v-12.4c0-17.5-2.2-23-11.5-27.9-3.9-2.2-4.8-2.2-59-2.4-45-0.2-55.8 0.1-59.5 1.2zm113.9 0.5c5.1 1.4 9.7 5 12.3 9.5 2 3.5 2.3 5.6 2.6 17.2l0.4 13.3h-142.2v-13.3c0-11.8 0.3-13.6 2.3-17.1 1.2-2.2 3.4-4.8 4.8-5.8 6.2-4.6 7.4-4.7 63.4-4.8 31.5 0 54.4 0.4 56.4 1zm-203.2 76.2c0.1 1.8 0.7 8.9 1.3 15.8 1 12 4.2 51.3 9.5 117.5 1.4 17 3 35.9 3.5 42 1.2 13.5 8.6 103.1 12.5 153 1.5 18.5 1.9 20.4 4.4 25 3.1 5.4 7.3 8.9 13 10.5 2.3 0.6 39.1 0.9 104.1 0.8l100.5-0.3-102.5-0.5c-93.2-0.5-102.8-0.7-105.5-2.2-4.6-2.5-7.6-5.7-9.5-10.2-1.8-4-2.2-7.8-6-56.1-2.5-31.6-4.2-51.9-6-73.5-1.8-21.4-5.5-66.8-12.5-151.5-1.4-17.1-2.9-36-3.5-42-0.5-6.1-1.2-15.4-1.6-20.8l-0.7-9.7h291.3v2.7c0 1.6-1.4 20.1-3 41.3-2.6 34-3.5 49.7-2.4 43.5 0.6-2.9 6.4-80.9 6.4-85v-3.5h-293.6z"/><path d="m395.6 114.7c-0.4 6.5-2 28.9-3.6 49.8-1.7 20.9-3.9 49.9-5 64.5-1.1 14.6-2.9 38-4 52-1.1 14-2.7 34.7-3.5 46-0.8 11.3-2.8 37.6-4.5 58.5-1.6 20.9-3.4 45-4 53.5-1.4 19.7-2.4 24.8-6.6 33.6-5.6 11.8-16.4 20.1-31.4 24.1-5.9 1.5-15.8 1.7-112 1.7l-105.5 0.1-7-2.2c-9.4-2.9-18.1-8.7-23.1-15.4-7.7-10.1-10-17.1-11.4-35.6-0.6-7-2.6-32.2-4.5-55.8-1.9-23.7-4.4-54.5-5.5-68.5-2.5-31.3-8.5-105.7-13.7-168-2.1-25.6-3.9-45.4-4.1-44.2-0.2 1.3 0.4 11 1.2 21.5 0.9 10.6 2.5 30.4 3.6 44.2 1.1 13.7 2.7 32.9 3.5 42.5 2 24.3 4.4 54 12.5 154.5 3.9 48.8 7.6 89.3 8.4 92.2 2.2 8 5.3 13.8 10.7 19.7 6 6.5 12.2 10.7 20.9 13.8l6.5 2.3h215l8-2.7c14.6-5 23.6-12.5 29.1-24.4 4.3-9.3 5.1-13 6.4-30.8 2.3-32.5 6-82.4 6.5-87.1 0.3-2.8 1.2-14.5 2-26 0.8-11.6 4.2-55.7 7.5-98 3.3-42.4 6.8-88.1 7.7-101.7l1.7-24.8 19.1-0.3 19-0.2-19.6-0.3-19.6-0.2z"/><path d="m359.2 210.5c-0.6 9.3-2.3 30.7-3.6 47.5-1.4 16.8-4.6 57.9-7.1 91.5-8.3 110.6-7.9 105.6-10.4 110.1-2.4 4.2-7.1 8-11.7 9.4-1.7 0.5-2.2 0.9-1.1 0.9 3 0.2 9.4-3.7 12-7.1 3.5-4.8 4.4-8.6 5.6-24.8 10.6-139.7 10.9-144.2 13.1-171.5 4.4-56.4 5.1-66.5 4.8-69.7-0.2-1.8-0.9 4.3-1.6 13.7z"/><path d="m120.4 60c0 5.2 0.1 7.4 0.3 4.7 0.2-2.6 0.2-6.8 0-9.5-0.2-2.6-0.3-0.4-0.3 4.8zm240.7 134.6c0 1.1 0.3 1.4 0.6 0.6 0.3-0.7 0.2-1.6-0.1-1.9-0.3-0.4-0.6 0.2-0.5 1.3zm-237.4 304.1c1.8 0.2 5 0.2 7 0 2.1-0.2 0.7-0.4-3.2-0.4-3.8 0-5.5 0.2-3.8 0.4zm77.6 0c0.9 0.2 2.5 0.2 3.5 0 0.9-0.3 0.1-0.5-1.8-0.5-1.9 0-2.7 0.2-1.7 0.5zm46 0c0.9 0.2 2.3 0.2 3 0 0.6-0.3-0.1-0.5-1.8-0.5-1.6 0-2.2 0.2-1.2 0.5zm57.4 0c1.8 0.2 5 0.2 7 0 2.1-0.2 0.7-0.4-3.2-0.4-3.8 0-5.5 0.2-3.8 0.4z" fill="rgb(85, 85, 85)"/><path d="m1.1 91.6c0 1.1 0.3 1.4 0.6 0.6 0.3-0.7 0.2-1.6-0.1-1.9-0.3-0.4-0.6 0.2-0.5 1.3zm31.7 11.1c1.2 0.2 3 0.2 4 0 0.9-0.3-0.1-0.5-2.3-0.4-2.2 0-3 0.2-1.7 0.4zm117.9 0c38 0.2 100.6 0.2 139 0 38.4-0.1 7.3-0.2-69.2-0.2-76.4 0-107.9 0.1-69.8 0.2zm210.6 0c0.9 0.2 2.5 0.2 3.5 0 0.9-0.3 0.1-0.5-1.8-0.5-1.9 0-2.7 0.2-1.7 0.5zm45 0c2.6 0.2 6.8 0.2 9.5 0 2.6-0.2 0.4-0.3-4.8-0.3-5.2 0-7.4 0.1-4.7 0.3z" fill="rgb(128, 128, 128)"/><path d="m167.8 1.7c0.6 0.2 1.8 0.2 2.5 0 0.6-0.3 0.1-0.5-1.3-0.5-1.4 0-1.9 0.2-1.2 0.5zm19 26c0.7 0.3 1.6 0.2 1.9-0.1 0.4-0.3-0.2-0.6-1.3-0.5-1.1 0-1.4 0.3-0.6 0.6zm22.5 0c10.8 0.2 28.6 0.2 39.5 0 10.8-0.1 1.9-0.2-19.8-0.2-21.7 0-30.6 0.1-19.7 0.2zm85 34.8c0 3.3 0.2 4.5 0.4 2.7 0.2-1.8 0.2-4.5 0-6-0.2-1.5-0.4 0-0.4 3.3zm-282.5 40.2c1.7 0.2 4.7 0.2 6.5 0 1.7-0.2 0.3-0.4-3.3-0.4-3.6 0-5 0.2-3.2 0.4zm28 0c1.2 0.2 3 0.2 4 0 0.9-0.3-0.1-0.5-2.3-0.4-2.2 0-3 0.2-1.7 0.4zm358 0c0.7 0.3 1.6 0.2 1.9-0.1 0.4-0.3-0.2-0.6-1.3-0.5-1.1 0-1.4 0.3-0.6 0.6zm28 0c1.2 0.2 3.2 0.2 4.5 0 1.2-0.2 0.2-0.4-2.3-0.4-2.5 0-3.5 0.2-2.2 0.4z" fill="rgb(170, 170, 170)"/><path d="m197.8 1.7c14.5 0.2 37.9 0.2 52 0 14.1-0.1 2.3-0.2-26.3-0.2-28.6 0-40.2 0.1-25.7 0.2zm-23 26c0.7 0.3 1.6 0.2 1.9-0.1 0.4-0.3-0.2-0.6-1.3-0.5-1.1 0-1.4 0.3-0.6 0.6zm-173.5 56.8c0 2.7 0.2 3.8 0.4 2.2 0.2-1.5 0.2-3.7 0-5-0.2-1.2-0.4 0-0.4 2.8zm366.8 21.1c0 1.1 0.3 1.4 0.6 0.6 0.3-0.7 0.2-1.6-0.1-1.9-0.3-0.4-0.6 0.2-0.5 1.3zm-2 28c0 1.1 0.3 1.4 0.6 0.6 0.3-0.7 0.2-1.6-0.1-1.9-0.3-0.4-0.6 0.2-0.5 1.3zm21 84c0 1.1 0.3 1.4 0.6 0.6 0.3-0.7 0.2-1.6-0.1-1.9-0.3-0.4-0.6 0.2-0.5 1.3zm-30 33c0 1.1 0.3 1.4 0.6 0.6 0.3-0.7 0.2-1.6-0.1-1.9-0.3-0.4-0.6 0.2-0.5 1.3zm-290.9 97.4c0 1.4 0.2 1.9 0.5 1.2 0.2-0.6 0.2-1.8 0-2.5-0.3-0.6-0.5-0.1-0.5 1.3zm28.9 15.6c0 1.1 0.3 1.4 0.6 0.6 0.3-0.7 0.2-1.6-0.1-1.9-0.3-0.4-0.6 0.2-0.5 1.3zm253 5c0 1.1 0.3 1.4 0.6 0.6 0.3-0.7 0.2-1.6-0.1-1.9-0.3-0.4-0.6 0.2-0.5 1.3zm-2 26c0 1.1 0.3 1.4 0.6 0.6 0.3-0.7 0.2-1.6-0.1-1.9-0.3-0.4-0.6 0.2-0.5 1.3z" fill="rgb(212, 212, 212)"/><path d="m156.6 3.1c-12.7 3-26.2 14.7-31.7 27.5-3.3 7.7-3.4 8.3-3.7 24.1l-0.4 16.3h-112.6l-3.1 2.9c-3 2.8-3.1 3.1-3.1 12.3 0 7.5 0.4 9.9 2 12.5l1.9 3.3 20.3 0.2 20.3 0.3 1.2 13c0.7 7.1 1.9 21.8 2.7 32.5 2 26.1 11.2 140.2 13.1 161.5 0.8 9.3 1.9 23.3 2.5 31 2 26.9 8 101.1 9 110.5 1.6 15.8 5.3 24.5 14.1 33.3 6.3 6.2 15 10.9 23.4 12.7 3.4 0.7 39.7 1 111.5 0.8l106.5-0.3 6.8-2.4c15.1-5.3 25.3-15.6 29.7-29.8 2.1-6.7 2.5-11.4 6.5-64.8 0.8-11.6 2.2-29.3 3-39.5 0.8-10.2 3.5-45.5 6-78.5 2.5-33 5.4-71.5 6.5-85.5 1.1-14 2.5-31.6 3-39 0.6-7.4 1.3-16.2 1.5-19.5 1.4-16.2 2.5-32 2.5-34.1v-2.4h20c19.9 0 20 0 21.5-2.4 2.7-4.1 3.6-8.9 2.9-16-0.8-8.2-3.2-11.7-8.4-12.1-1.9-0.2-27.2-0.3-56.2-0.4l-52.8-0.1v-12.3c0-19.4-3.2-30.2-12-40.8q-7.5-8.7-20.7-13.5l-6.8-2.4-61.5 0.1c-33.8 0.1-63.2 0.5-65.4 1zm124.9 26.7c10.1 4.6 12.6 9.8 13.3 27.9l0.5 13.3h-72.2c-39.6 0-72.4 0.1-72.8 0.2-1.2 0.4-1.5-23.9-0.3-28.2 2.1-7.9 9.6-13.8 18.8-15 3.2-0.5 28.7-0.7 56.7-0.6 50.9 0.1 51 0.1 56 2.4zm87.1 76.9c-0.3 2.7-0.8 8.4-1.1 12.8-1.2 17.9-3.6 49.7-4.5 60.5-0.5 6.3-1.7 20.9-2.5 32.5-1.6 22.2-3.9 51-5.5 71-1.2 14.1-4.7 61.3-5.5 73.5-0.3 4.7-0.8 11-1 14-1.5 17.8-3.8 48-5 64.3-1.1 16.7-1.6 19.3-3.9 24.2-2.8 5.6-6.6 8.8-12.8 10.6-2 0.5-44 0.9-105.3 0.9h-102l-5-2.5c-5.4-2.6-9.9-8.3-11.4-14.5-0.5-1.9-1.6-13.2-2.5-25-0.9-11.8-3.4-43.6-5.6-70.5-2.3-27-4.5-54.5-5-61.3-1.5-20.4-3-37.5-3.5-41.2-0.3-1.9-1.6-18.4-3-36.5-1.4-18.2-2.7-35-3-37.5-0.4-3.7-6.5-78-6.5-79.5 0-0.3 66.4-0.5 147.6-0.5h147.6z" fill="rgb(255, 255, 255)"/><path d="m223.3 498.7c0.9 0.2 2.3 0.2 3 0 0.6-0.3-0.1-0.5-1.8-0.5-1.6 0-2.2 0.2-1.2 0.5z" fill="rgb(0, 0, 85)"/></svg>