<svg xmlns="http://www.w3.org/2000/svg" viewBox="0 0 425 417" width="32" height="32"><path d="m69.8 0.7c13.4 0.2 35 0.2 48 0 13-0.1 2.1-0.2-24.3-0.2-26.4 0-37.1 0.1-23.7 0.2zm233 0c13.9 0.2 36.4 0.2 50 0 13.6-0.1 2.2-0.2-25.3-0.2-27.5 0-38.6 0.1-24.7 0.2zm-262 1c0.6 0.2 1.8 0.2 2.5 0 0.6-0.3 0.1-0.5-1.3-0.5-1.4 0-1.9 0.2-1.2 0.5zm102 0c0.6 0.2 1.8 0.2 2.5 0 0.6-0.3 0.1-0.5-1.3-0.5-1.4 0-1.9 0.2-1.2 0.5zm131 0c0.6 0.2 1.8 0.2 2.5 0 0.6-0.3 0.1-0.5-1.3-0.5-1.4 0-1.9 0.2-1.2 0.5zm106 0c0.6 0.2 1.8 0.2 2.5 0 0.6-0.3 0.1-0.5-1.3-0.5-1.4 0-1.9 0.2-1.2 0.5zm-232 1c0.7 0.3 1.6 0.2 1.9-0.1 0.4-0.3-0.2-0.6-1.3-0.5-1.1 0-1.4 0.3-0.6 0.6zm122 0c0.7 0.3 1.6 0.2 1.9-0.1 0.4-0.3-0.2-0.6-1.3-0.5-1.1 0-1.4 0.3-0.6 0.6zm115 0c0.7 0.3 1.6 0.2 1.9-0.1 0.4-0.3-0.2-0.6-1.3-0.5-1.1 0-1.4 0.3-0.6 0.6zm-233.8 0.5c0.9 0.9 12 5.7 12 5.3 0-0.6-7-4.1-10-5-1.4-0.4-2.3-0.5-2-0.3zm-121 1.8c-0.8 0.5-1 1-0.5 1 0.6 0 1.7-0.5 2.5-1 0.8-0.5 1.1-1 0.5-1-0.5 0-1.7 0.5-2.5 1zm228.3 2c-2.8 1.6-7.8 5.5-11 8.6l-5.8 5.6 6.3-5.5c3.4-3 8.8-6.8 12-8.5 3.1-1.7 5.3-3.2 4.7-3.2-0.5 0-3.3 1.4-6.2 3zm132.8-2.6c1 0.9 8.9 4.6 8.9 4.1 0-0.5-7.5-4.5-8.6-4.5-0.4 0-0.5 0.2-0.3 0.4zm-368.7 5c-9.9 6.7-19.5 20.2-20.9 29.6-0.4 2.4 0.1 1.6 1.3-2.2 3.8-11.3 11.1-21 20.3-26.8 4.2-2.8 5.7-4 4.6-4-0.1 0-2.5 1.5-5.3 3.4zm146.7 4.4c7.2 6.5 12.3 14.1 15.5 22.7 1.4 3.9 2.3 5.5 2 3.7-1.5-8.8-11.6-23.7-19.9-29.3-1.8-1.2-0.7 0.1 2.4 2.9zm239.1 2.3c7.7 7.8 11.1 13.5 13.9 23.4 1 3.3 1.8 5.2 1.8 4.2 0.1-2.8-3.7-13.5-6.6-18-2.9-4.7-9.4-11.9-13.6-14.9-1.6-1.1 0.5 1.3 4.5 5.3zm-168.6 8.1c-3.2 5-6.6 13.7-7.1 18.4-0.5 4.6-0.4 4.6 0.9-1.4 0.8-3.4 3-9.1 4.9-12.7 3.5-6.5 4.1-8.5 1.3-4.3zm-183.3 7.5c4.8 0.2 12.5 0.2 17 0 4.5-0.1 0.6-0.3-8.8-0.3-9.3 0-13 0.2-8.2 0.3zm38.5 0c5.7 0.2 14.7 0.2 20 0 5.3-0.1 0.7-0.3-10.3-0.3-11 0-15.4 0.2-9.7 0.3zm32 0c1.2 0.2 3.2 0.2 4.5 0 1.2-0.2 0.2-0.4-2.3-0.4-2.5 0-3.5 0.2-2.2 0.4zm8.3-0.3c0.2 0.2 2.2 0.6 4.4 0.9 2.7 0.4 3.5 0.3 2.5-0.3-1.4-0.9-7.9-1.5-6.9-0.6zm140.9 0.7c-6.4 2.6-13.1 10.7-12.9 15.6 0 1.2 0.3 1 0.8-0.7 2.4-7.9 7.9-13 15.9-14.9 2.6-0.7 3-0.9 1.2-0.9-1.4-0.1-3.6 0.4-5 0.9zm28.8-0.4c2.3 0.2 5.9 0.2 8 0 2-0.2 0.1-0.4-4.3-0.4-4.4 0-6.1 0.2-3.7 0.4zm13 0c0.7 0.3 1.6 0.2 1.9-0.1 0.4-0.3-0.2-0.6-1.3-0.5-1.1 0-1.4 0.3-0.6 0.6zm8 0c0.7 0.3 1.6 0.2 1.9-0.1 0.4-0.3-0.2-0.6-1.3-0.5-1.1 0-1.4 0.3-0.6 0.6zm25.5 0c1.5 0.2 3.7 0.2 5 0 1.2-0.2 0-0.4-2.8-0.4-2.7 0-3.8 0.2-2.2 0.4zm20.2 0.3c3.9 0.3 8 1.2 9.3 1.8 1.2 0.7 2.2 1 2.2 0.7 0-1.5-7.5-3.5-12.7-3.4l-5.8 0.2zm-331.1 2.9c-2.2 1.5-4.7 4-5.7 5.4-2.8 4.3-1.9 4.3 1.2 0 1.6-2.2 4.8-5 7.2-6.1 2.4-1.2 3.7-2.2 2.8-2.2-0.9 0-3.4 1.3-5.5 2.9zm106.1 0.1c1.7 1.1 4.1 3.2 5.3 4.7 1.7 2 2.1 2.2 1.3 0.7-1.3-2.6-6.8-7.4-8.4-7.4-0.7 0 0.2 0.9 1.8 2zm240.1 3c1.2 1.4 2.6 3.4 3.2 4.5 0.6 1.1 1.2 1.4 1.2 0.7 0-0.7-1.5-2.7-3.2-4.5-1.8-1.8-2.3-2.1-1.2-0.7zm-386.1 55c0 27.8 0.1 39.1 0.2 25.2 0.2-13.8 0.2-36.6 0-50.5-0.1-13.8-0.2-2.5-0.2 25.3zm154.2-48.5c0.5 1.1 1 22.5 1.3 47.5l0.5 45.5 0.2-44.5c0.2-37.4 0-45-1.3-47.5-0.8-1.7-1.1-2.1-0.7-1zm32.8 48.5c0 27.2 0.1 38.4 0.2 24.7 0.2-13.6 0.2-35.8 0-49.5-0.1-13.6-0.2-2.4-0.2 24.8zm-155.9-45.8c-0.3 1.3-0.5 22.1-0.4 46.3l0.3 44 0.5-46c0.3-25.3 0.4-46.1 0.4-46.3-0.1-0.1-0.4 0.8-0.8 2zm392.9 45.3c0 25.8 0.1 36.6 0.2 23.8 0.2-12.7 0.2-33.9 0-47-0.1-13.1-0.2-2.7-0.2 23.2zm-32.3-0.5c-0.1 25.4-0.6 46-1.2 47.9-0.5 1.9-0.8 3.7-0.5 3.9 0.2 0.2 0.9-1.4 1.4-3.6 0.8-2.6 1-19 0.8-48.3l-0.2-44.4zm-129.9 0c0 22.8 0.2 42.8 0.6 44.5 0.6 2.8 0.4-65.6-0.2-79.5-0.2-3.6-0.3 12.2-0.4 35zm-30 48c0 3 0.2 4.3 0.4 2.7 0.2-1.5 0.2-3.9 0-5.5-0.2-1.5-0.4-0.2-0.4 2.8zm-200.2-1c0 0.8 0.4 2.2 0.9 3 1.2 1.8 1.2 0.2 0-2.5-0.6-1.3-0.9-1.5-0.9-0.5zm122.1 2.9c-1.2 3.8-8 11.1-10.4 11.1-0.6 0-0.9 0.3-0.5 0.6 1 1.1 6.7-3 9.2-6.6 1.3-1.9 2.7-4.7 3-6.3 1.1-4.1 0-3.2-1.3 1.2zm109.9-0.8c-0.2 3.1 5.9 10 10.6 12.1 2.4 1.1 4.7 1.8 4.9 1.5 0.2-0.2-1.6-1.2-4.1-2.1-4.5-1.8-8.5-5.8-10.4-10.6-0.6-1.5-1-1.9-1-0.9zm159.1 1.9c0 1.9 0.2 2.7 0.5 1.7 0.2-0.9 0.2-2.5 0-3.5-0.3-0.9-0.5-0.1-0.5 1.8zm-422.2 2.2c0 2.2 3.8 12 5.2 13.3 0.8 0.7 0.9 0.6 0.3-0.4-0.4-0.8-1.8-4.4-3.1-8-1.3-3.6-2.4-5.8-2.4-4.9zm33.8 0.3c0.6 1.1 2.3 3.1 3.9 4.5l2.8 2.5-3-3.5c-4.7-5.5-4.8-5.6-3.7-3.5zm151.3 0.1c0 1.1 0.3 1.4 0.6 0.6 0.3-0.7 0.2-1.6-0.1-1.9-0.3-0.4-0.6 0.2-0.5 1.3zm199.4 3.6c-3.8 4-3.8 4.1-0.7 1.9 1.7-1.2 3.7-3.1 4.2-4.2 1.5-2.7 1-2.4-3.5 2.3zm-152.5-2.5c0 1.6 3.1 9.5 3.6 9 0.2-0.2-0.5-2.5-1.6-5.3-1-2.7-1.9-4.3-2-3.7zm-47.9 2c-0.1 0.6-0.4 2-0.7 3-0.5 1.7-0.5 1.7 0.6 0 0.6-1 0.9-2.3 0.6-3-0.3-0.9-0.5-0.9-0.5 0zm-140.1 5.3c0.8 0.5 2.2 0.9 3 0.9 1 0 0.8-0.3-0.5-0.9-2.7-1.2-4.3-1.2-2.5 0zm375-0.4c0 0.6-1.6 3.6-3.5 6.8-1.9 3.2-2.9 5.3-2.2 4.7 2-1.6 7-11.1 6.3-11.8-0.3-0.4-0.6-0.2-0.6 0.3zm-280.2 1.1c0.7 0.3 1.6 0.2 1.9-0.1 0.4-0.3-0.2-0.6-1.3-0.5-1.1 0-1.4 0.3-0.6 0.6zm40.2 5.5c-1.9 3.4-6.2 8.6-9.5 11.6-3.3 3-4.6 4.6-2.9 3.4 4.3-3 10.6-10 13.9-15.6 1.5-2.6 2.6-4.8 2.4-5-0.2-0.2-2 2.3-3.9 5.6zm-107.7-4.5c11.9 0.2 31.5 0.2 43.5 0 11.9-0.1 2.1-0.2-21.8-0.2-23.9 0-33.7 0.1-21.7 0.2zm233 0c13.1 0.2 34.3 0.2 47 0 12.8-0.1 2.1-0.2-23.8-0.2-25.8 0-36.3 0.1-23.2 0.2zm-66.7 4.5c2.3 4.4 12.4 14.9 16.6 17.1 3.1 1.7 3.2 1.7 0.8 0-5.3-3.8-13.3-12-15.7-16-2.9-5-4.1-5.8-1.7-1.1zm-229.9 2.7c2.5 4.6 12.5 13.7 18.5 16.7 2.7 1.4 5.2 2.4 5.3 2.2 0.2-0.2-2-1.6-4.9-3.1-5.4-2.9-14.4-10.7-18.5-16.2l-2.2-3zm399.3 8.1c-2.5 2.2-7.4 5.6-11 7.5-3.6 2-5.4 3.3-4 2.9 3.2-0.8 14.8-8.5 17.9-11.8 3.5-3.7 2.3-3.1-2.9 1.4zm-249 8.5c-2.5 1.3-4.1 2.4-3.7 2.5 1.1 0 8.7-3.9 8.7-4.5 0-0.7 0-0.7-5 2zm100.7 0.6c0.7 0.7 1.5 1 1.8 0.7 0.3-0.3-0.2-0.9-1.2-1.2-1.4-0.6-1.5-0.5-0.6 0.5zm-223.2 3.4c1.7 0.8 4.1 1.4 5.5 1.4 1.5 0 0.5-0.6-2.5-1.4-6.2-1.7-6.9-1.7-3 0zm113.5-0.5c-1.8 1.2-0.2 1.2 2.5 0 1.3-0.6 1.5-0.9 0.5-0.9-0.8 0-2.2 0.4-3 0.9zm116.5 0c1.1 0.5 2.7 0.9 3.5 0.9 0.9 0 0.8-0.4-0.5-0.9-1.1-0.5-2.7-0.9-3.5-0.9-0.9 0-0.8 0.4 0.5 0.9zm119.3 0.7c0.7 0.3 1.6 0.2 1.9-0.1 0.4-0.3-0.2-0.6-1.3-0.5-1.1 0-1.4 0.3-0.6 0.6zm-241 1c0.6 0.2 1.8 0.2 2.5 0 0.6-0.3 0.1-0.5-1.3-0.5-1.4 0-1.9 0.2-1.2 0.5zm128.5 0c0.9 0.2 2.3 0.2 3 0 0.6-0.3-0.1-0.5-1.8-0.5-1.6 0-2.2 0.2-1.2 0.5zm107 0c0.9 0.2 2.3 0.2 3 0 0.6-0.3-0.1-0.5-1.8-0.5-1.6 0-2.2 0.2-1.2 0.5zm-311 1c13.6 0.2 35.8 0.2 49.5 0 13.6-0.1 2.4-0.2-24.8-0.2-27.2 0-38.4 0.1-24.7 0.2zm233.5 0c13.8 0.2 36.6 0.2 50.5 0 13.8-0.1 2.5-0.2-25.3-0.2-27.8 0-39.1 0.1-25.2 0.2zm-234 46c14.5 0.2 37.9 0.2 52 0 14.1-0.1 2.3-0.2-26.3-0.2-28.6 0-40.2 0.1-25.7 0.2zm-33.3 1.3c-2.5 1.1 0.1 1.1 3.5 0 2-0.6 2.1-0.8 0.5-0.8-1.1 0-2.9 0.3-4 0.8zm112.3-0.3c0.6 0.2 1.8 0.2 2.5 0 0.6-0.3 0.1-0.5-1.3-0.5-1.4 0-1.9 0.2-1.2 0.5zm177.2 0.2c10.1 0.6 13.5 1.8 14.5 5.2 0.4 1.1 0.9 1.8 1.2 1.6 1-1-1.8-4.7-4.7-6.2-2-1.1-5.5-1.4-11.7-1.3l-8.8 0.2zm-172.2 0.8c0.7 0.3 1.6 0.2 1.9-0.1 0.4-0.3-0.2-0.6-1.3-0.5-1.1 0-1.4 0.3-0.6 0.6zm158.3 1.9c-1.2 1.5-2.1 3.8-2 5.3 0.1 2.2 0.2 2.1 0.9-0.9 0.5-1.9 1.8-4.3 3-5.2 1.2-1 1.8-1.8 1.2-1.8-0.6 0-2 1.2-3.1 2.6zm-284.7 0.8c-2.7 1.3-7.7 4.9-11 8.1l-5.9 5.7 6-5.3c3.3-2.9 8.7-6.5 12-8 3.3-1.6 5.6-2.8 5-2.8-0.5-0.1-3.3 1-6.1 2.3zm137.3 1.7c2.9 1.7 7.9 5.6 11 8.7 3.6 3.6 4.9 4.5 3.5 2.5-3.5-5-15.8-14.3-18.7-14.3-0.5 0 1.4 1.4 4.2 3.1zm177.7 33.4c0 17 0.2 24.2 0.3 15.8 0.2-8.3 0.2-22.3 0-31-0.1-8.7-0.3-1.9-0.3 15.2zm-32 2.5c0 15.7 0.2 22.1 0.3 14.2 0.2-7.8 0.2-20.6 0-28.5-0.1-7.8-0.3-1.4-0.3 14.3zm-302-20.5c-2.4 3.6-6.4 13.7-6.3 16 0 1.1 0.8-0.5 1.8-3.7 1-3.1 3-7.7 4.4-10.2 2.7-4.9 2.8-6.2 0.1-2.1zm175.7 4.5c-0.1 0.3 0.8 2.7 1.9 5.5 1 2.7 1.9 4.3 1.9 3.5 0-1.4-3.6-10.1-3.8-9zm-88.1 4c52 0.5 50.2 0.4 56.5 5.9l3 2.6-2.5-2.9c-1.4-1.6-4.3-3.7-6.5-4.7-3.7-1.7-7.2-1.8-51.5-1.7l-47.5 0.2zm-58 5c-2.2 2.2-4 4.6-4 5.2 0 0.7 0.8 0.1 1.8-1.5 1-1.5 3.4-3.9 5.2-5.2 1.9-1.4 2.9-2.5 2.2-2.5-0.7 0-3 1.8-5.2 4zm150.5 50.5c0 26.9 0.1 37.8 0.2 24.2 0.2-13.7 0.2-35.7 0-49-0.1-13.3-0.2-2.2-0.2 24.8zm-32.6-44c1.7 5.4 2.1 6.1 1.6 2.5-0.3-1.9-1-3.9-1.5-4.4-0.7-0.7-0.7-0.1-0.1 1.9zm-154.4 50c0 28.6 0.1 40.2 0.2 25.7 0.2-14.5 0.2-37.9 0-52-0.1-14.1-0.2-2.3-0.2 26.3zm30.7-1.4c-0.2 39.4 0 46.2 1.4 50.2 2.2 6.4 8.8 12.2 15.5 13.6 3.2 0.7 20.2 1 47.2 0.9l42.2-0.2-45-0.6c-30.5-0.3-45.8-0.9-47.6-1.7-4.2-1.9-9.1-6.5-10.8-10.3-1.4-3-1.7-10.1-2.1-50.5l-0.5-47zm125.8 3.4c-0.5 49.5-0.4 48.3-5.9 55-1.5 1.9-1.5 1.9 0.2 0.5 1-0.7 2.8-3.2 4-5.4 2.1-4 2.2-5.3 2.5-39.6 0.2-19.5 0.1-40.2 0-46-0.2-5.8-0.5 10.2-0.8 35.5zm100.7-21.8c9.4 0.2 25.2 0.2 35 0 9.8-0.1 2.1-0.2-17.2-0.2-19.2-0.1-27.3 0.1-17.8 0.2zm120.1 0.3l37.4 0.5 2.9 3.3c1.6 1.8 2.9 2.8 2.9 2.3 0-0.5-1.6-2.3-3.5-4l-3.6-3.1-36.7 0.2-36.7 0.3zm-142.7 2.6c-1.7 1.4-3.1 3.3-3 4.2 0 1.2 0.3 1 0.9-0.5 0.5-1.3 2.4-3.2 4.2-4.3 1.8-1.1 2.8-2 2.1-2-0.6 0-2.5 1.2-4.2 2.6zm186.1 11.9c-0.1 4.7-0.9 8.4-2.1 10.8-1.1 2.2-1.4 3.3-0.6 2.7 2.5-2.1 3.6-6.7 3.2-13.6l-0.3-6.9zm-189.1 8.3c-0.1 2.1 1.8 5.1 4.2 6.4 1.6 1 11.5 1.4 37.2 1.8l35 0.5 0.5 33.5 0.5 33.5 0.3-34.3 0.2-34.2h-35.4c-34.6 0-35.4 0-38-2.1-1.5-1.2-3.2-3.1-3.6-4.3-0.5-1.1-0.9-1.5-0.9-0.8zm146.2 6.9c-20.5 0.2-37.3 0.7-37.3 1.1 0 1.1 73.3 0.3 74.4-0.8 0.6-0.6 0.8-0.9 0.6-0.8-0.3 0.2-17.3 0.4-37.7 0.5zm-37.1 37.6c-0.2 28.9-0.5 35.3-1.7 37.7-0.9 1.7-1.3 3-1.1 3 0.3 0 1.2-1.3 2.1-3 1.3-2.5 1.5-8 1.2-37.7l-0.2-34.8zm-153.9 3.7c0 2.5 0.2 3.5 0.4 2.2 0.2-1.2 0.2-3.2 0-4.5-0.2-1.2-0.4-0.2-0.4 2.3zm-186.1 3c0 1.4 0.2 1.9 0.5 1.2 0.2-0.6 0.2-1.8 0-2.5-0.3-0.6-0.5-0.1-0.5 1.3zm144.8 5.5c-1.4 0.8-2 1.4-1.4 1.5 0.5 0 1.9-0.7 3-1.5 2.4-1.8 1.6-1.9-1.6 0zm-143 0.9c-0.1 2.8 7.2 13.5 12.7 18.6 5.9 5.5 14.6 11 17.4 11 0.7 0-1.6-1.4-5-3.1-8.7-4.3-17-12.4-21.4-20.6-2-3.8-3.7-6.4-3.7-5.9zm136.8 1.3c0.6 0.2 1.8 0.2 2.5 0 0.6-0.3 0.1-0.5-1.3-0.5-1.4 0-1.9 0.2-1.2 0.5zm41.8 5.9c-3.6 6.9-13.3 15.9-21.1 19.6-3.3 1.6-4.9 2.6-3.5 2.2 8.3-2.1 21.4-13.4 25.9-22.3 1.2-2.3 2.1-4.4 1.9-4.6-0.2-0.2-1.6 2.1-3.2 5.1zm127.5 14c0 1.8 0.7 4 1.7 5.1 0.9 1 1.3 1.3 0.8 0.5-0.5-0.7-1.3-3-1.7-5-0.7-3.7-0.7-3.7-0.8-0.6zm5.6 8.6c0.2 0.5 4.8 0.7 10.1 0.7 10.9-0.2 9.8-0.7-2.5-1.1-4.4-0.2-7.9 0-7.6 0.4zm-278.2 0.8c1.9 0.8 7.3 1.4 6.4 0.6-0.2-0.2-2.2-0.6-4.4-0.9-2.8-0.5-3.4-0.4-2 0.3zm115.3-0.3c0.7 0.3 1.6 0.2 1.9-0.1 0.4-0.3-0.2-0.6-1.3-0.5-1.1 0-1.4 0.3-0.6 0.6zm-4 1c0.7 0.3 1.6 0.2 1.9-0.1 0.4-0.3-0.2-0.6-1.3-0.5-1.1 0-1.4 0.3-0.6 0.6zm-78.5 1c14.1 0.2 37.3 0.2 51.5 0 14.1-0.1 2.5-0.2-25.8-0.2-28.3 0-39.9 0.1-25.7 0.2z"/><path d="m72.2 30.7c10.8 0.2 28.8 0.2 40 0 11.2-0.1 2.3-0.2-19.7-0.2-22 0-31.1 0.1-20.3 0.2zm60.8 0.3c0 0.5 0.5 1 1.1 1 0.5 0 0.7-0.5 0.4-1-0.3-0.6-0.8-1-1.1-1-0.2 0-0.4 0.4-0.4 1zm152.3-0.4c0.7 0.7 83.8 0.7 84.5-0.1 0.3-0.3-18.7-0.5-42.3-0.5-23.6 0-42.6 0.3-42.2 0.6zm-53.9 19.9c-0.8 4.2 0.2 82.4 1 83.3 0.3 0.3 0.6-19.1 0.6-43.1 0-24-0.2-43.7-0.5-43.7-0.2 0-0.7 1.6-1.1 3.5zm108.8 192c0 1.6 0.2 2.2 0.5 1.2 0.2-0.9 0.2-2.3 0-3-0.3-0.6-0.5 0.1-0.5 1.8zm-31.6 2.2c-0.6 1.4-0.5 1.5 0.5 0.6 0.7-0.7 1-1.5 0.7-1.8-0.3-0.3-0.9 0.2-1.2 1.2zm31.7 4.8c0 2.2 0.2 3 0.4 1.7 0.2-1.2 0.2-3 0-4-0.3-0.9-0.5 0.1-0.4 2.3zm-32.2-0.9c0 1.1 0.3 1.4 0.6 0.6 0.3-0.7 0.2-1.6-0.1-1.9-0.3-0.4-0.6 0.2-0.5 1.3zm32.3 20.4c0 8.5 0.2 12 0.3 7.7 0.2-4.2 0.2-11.2 0-15.5-0.1-4.2-0.3-0.7-0.3 7.8zm-32.2-3.5c0 1.6 0.2 2.2 0.5 1.2 0.2-0.9 0.2-2.3 0-3-0.3-0.6-0.5 0.1-0.5 1.8zm0 8.5c0 1.9 0.2 2.7 0.5 1.7 0.2-0.9 0.2-2.5 0-3.5-0.3-0.9-0.5-0.1-0.5 1.8zm-151.7 5c-0.4 1.2-0.5 2.4-0.2 2.7 0.3 0.2 0.8-0.5 1.2-1.7 0.4-1.2 0.5-2.4 0.2-2.7-0.3-0.2-0.8 0.5-1.2 1.7zm151.8 7.5c0 4.4 0.2 6.1 0.4 3.7 0.2-2.3 0.2-5.9 0-8-0.2-2-0.4-0.1-0.4 4.3zm32 3c0 2.2 0.2 3 0.4 1.7 0.2-1.2 0.2-3 0-4-0.3-0.9-0.5 0.1-0.4 2.3zm0 9.5c0 3 0.2 4.3 0.4 2.7 0.2-1.5 0.2-3.9 0-5.5-0.2-1.5-0.4-0.2-0.4 2.8zm-32.3 1.5c0 1.4 0.4 2.5 0.9 2.5 0.4 0 0.6-1.1 0.3-2.5-0.2-1.4-0.6-2.5-0.8-2.5-0.2 0-0.4 1.1-0.4 2.5zm-76.8 18.6c0.4 8.3 1.8 8.6 1.8 0.5 0-4-0.4-6.6-1.1-6.6-0.6 0-0.9 2.3-0.7 6.1zm-74.9 11.4c0 2.2 0.2 3 0.4 1.7 0.2-1.2 0.2-3 0-4-0.3-0.9-0.5 0.1-0.4 2.3zm151.9 9c0 1.6 0.2 2.2 0.5 1.2 0.2-0.9 0.2-2.3 0-3-0.3-0.6-0.5 0.1-0.5 1.8zm32-0.5c0 1.4 0.2 1.9 0.5 1.2 0.2-0.6 0.2-1.8 0-2.5-0.3-0.6-0.5-0.1-0.5 1.3zm0.1 6.5c0 2.2 0.2 3 0.4 1.7 0.2-1.2 0.2-3 0-4-0.3-0.9-0.5 0.1-0.4 2.3zm-31.9 28c0 17 0.2 24.2 0.3 15.8 0.2-8.3 0.2-22.3 0-31-0.1-8.7-0.3-1.9-0.3 15.2zm31.9-20c0 2.2 0.2 3 0.4 1.7 0.2-1.2 0.2-3 0-4-0.3-0.9-0.5 0.1-0.4 2.3zm-184 1c0 2.2 0.2 3 0.4 1.7 0.2-1.2 0.2-3 0-4-0.3-0.9-0.5 0.1-0.4 2.3zm30.9 14c0 1.6 0.2 2.2 0.5 1.2 0.2-0.9 0.2-2.3 0-3-0.3-0.6-0.5 0.1-0.5 1.8zm-151.2 10.9c0 0.2 0.8 1 1.8 1.7 1.5 1.3 1.6 1.2 0.3-0.4-1.3-1.6-2.1-2.1-2.1-1.3zm304.3 11.1c0 4.4 0.2 6.1 0.4 3.7 0.2-2.3 0.2-5.9 0-8-0.2-2-0.4-0.1-0.4 4.3zm-0.1 11.5c0 1.4 0.2 1.9 0.5 1.2 0.2-0.6 0.2-1.8 0-2.5-0.3-0.6-0.5-0.1-0.5 1.3zm-29.2 8.4c0 0.2 0.8 1 1.8 1.7 1.5 1.3 1.6 1.2 0.3-0.4-1.3-1.6-2.1-2.1-2.1-1.3z" fill="rgb(85, 85, 85)"/><path d="m370.8 30.7c0.7 0.3 1.6 0.2 1.9-0.1 0.4-0.3-0.2-0.6-1.3-0.5-1.1 0-1.4 0.3-0.6 0.6zm49.5 290.8c0 2.2 0.2 3 0.4 1.7 0.2-1.2 0.2-3 0-4-0.3-0.9-0.5 0.1-0.4 2.3z" fill="rgb(128, 128, 128)"/><path d="m386 36.4c0 0.2 0.8 1 1.8 1.7 1.5 1.3 1.6 1.2 0.3-0.4-1.3-1.6-2.1-2.1-2.1-1.3zm37.5 58.1c0 24.2 0.1 34 0.2 21.7 0.2-12.3 0.2-32.1 0-44-0.1-11.9-0.2-1.9-0.2 22.3zm-14.1 74.7l-1.9 2.3 2.3-1.9c1.2-1.1 2.2-2.1 2.2-2.3 0-0.8-0.8-0.2-2.6 1.9zm-395.4-0.8c0 0.2 0.8 1 1.8 1.7 1.5 1.3 1.6 1.2 0.3-0.4-1.3-1.6-2.1-2.1-2.1-1.3zm136 97c0 0.2 0.8 1 1.8 1.7 1.5 1.3 1.6 1.2 0.3-0.4-1.3-1.6-2.1-2.1-2.1-1.3zm270.2 49.1c0 1.6 0.2 2.2 0.5 1.2 0.2-0.9 0.2-2.3 0-3-0.3-0.6-0.5 0.1-0.5 1.8z" fill="rgb(170, 170, 170)"/><path d="m48.8 1.7c0.7 0.3 1.6 0.2 1.9-0.1 0.4-0.3-0.2-0.6-1.3-0.5-1.1 0-1.4 0.3-0.6 0.6zm197.1 16c-1.3 1.6-1.2 1.7 0.4 0.4 0.9-0.7 1.7-1.5 1.7-1.7 0-0.8-0.8-0.3-2.1 1.3zm-74 152l-2.4 2.8 2.8-2.4c1.5-1.4 2.7-2.6 2.7-2.8 0-0.8-0.8-0.1-3.1 2.4zm-120.1 63c4.5 0.2 11.9 0.2 16.5 0 4.5-0.1 0.8-0.3-8.3-0.3-9.1 0-12.8 0.2-8.2 0.3zm26.5 0c0.9 0.2 2.3 0.2 3 0 0.6-0.3-0.1-0.5-1.8-0.5-1.6 0-2.2 0.2-1.2 0.5zm5.5 0c0.7 0.3 1.6 0.2 1.9-0.1 0.4-0.3-0.2-0.6-1.3-0.5-1.1 0-1.4 0.3-0.6 0.6zm4 0c0.7 0.3 1.6 0.2 1.9-0.1 0.4-0.3-0.2-0.6-1.3-0.5-1.1 0-1.4 0.3-0.6 0.6zm5.5 0c1.5 0.2 3.7 0.2 5 0 1.2-0.2 0-0.4-2.8-0.4-2.7 0-3.8 0.2-2.2 0.4zm10.5 0c1.2 0.2 3.2 0.2 4.5 0 1.2-0.2 0.2-0.4-2.3-0.4-2.5 0-3.5 0.2-2.2 0.4zm10.5 0c2 0.2 5.4 0.2 7.5 0 2-0.2 0.3-0.4-3.8-0.4-4.1 0-5.8 0.2-3.7 0.4zm22 0c0.9 0.2 2.5 0.2 3.5 0 0.9-0.3 0.1-0.5-1.8-0.5-1.9 0-2.7 0.2-1.7 0.5zm38.6 167c-1.3 1.6-1.2 1.7 0.4 0.4 1.6-1.3 2.1-2.1 1.3-2.1-0.2 0-1 0.8-1.7 1.7zm-158.9 2.8c1.3 1.4 2.6 2.5 2.8 2.5 0.3 0-0.5-1.1-1.8-2.5-1.3-1.4-2.6-2.5-2.8-2.5-0.3 0 0.5 1.1 1.8 2.5z" fill="rgb(212, 212, 212)"/><path d="m45.5 2c-21.9 2.9-39.8 19.8-43.5 41-0.8 4.4-1 21.8-0.8 54 0.4 46.2 0.4 47.7 2.6 53.4 6.5 17.4 20.6 29.3 39.2 33.2 6.2 1.3 15.2 1.5 54.4 1.2l47.1-0.3 7.9-2.8c4.3-1.5 9.7-4 12-5.6 6.8-4.7 14.5-13.7 17.5-20.4 4.9-10.8 5.3-16 4.9-66.7-0.3-45.4-0.4-46.6-2.6-52.5-4.9-12.9-14.7-23.7-26.8-29.5-11.8-5.7-14.7-6-62.4-5.9-23.9 0.1-46.2 0.5-49.5 0.9zm100 31.1c3 1.5 6.2 4.2 8 6.8l3 4.3 0.3 46.1c0.3 50.7 0.2 52-5.4 58.6-6.3 7.3-6 7.2-58.9 6.9l-47-0.3-4.2-2.8c-2.4-1.5-5.5-4.6-7-7l-2.8-4.2-0.3-47.4c-0.3-46.6-0.2-47.4 1.9-51.8 1.1-2.4 3.6-5.5 5.3-6.8 7-5.4 7.5-5.4 56.6-5.2l45.6 0.2zm133-31.1c-8.9 1.1-13.4 2.6-20 6.5-12 7.2-20.2 17.7-24 30.7-1.4 4.9-1.6 11.8-1.3 56.5l0.3 50.8 4.2 8.6c4.8 9.8 11.2 16.9 20.2 22.3 11.1 6.8 12.4 6.9 63.6 7.4 54.8 0.4 61.3-0.1 73-5.7 14.1-6.8 21.6-15.4 26.1-29.6 2.4-7.6 2.4-7.7 2.4-56.4 0-46.6-0.1-49.2-2.1-55.6-3.8-12.4-12.1-22.7-23.3-29-12.2-6.8-12.8-6.9-65.6-7.1-26.1-0.1-50.2 0.1-53.5 0.6zm99.8 29.4c5.6 2 10.7 6.4 12.8 11 1.7 3.8 1.9 7.3 1.9 50 0 49.8-0.2 51.6-5.4 56.9-6.8 6.8-5.8 6.7-59.7 6.7h-48.5l-5.3-2.6c-5.6-2.8-8.7-6.8-11-13.9-0.9-3-1.1-14.9-0.9-49l0.3-45 2.4-4.2c2.7-4.7 6.5-7.8 11.9-9.8 5.4-2 96-2 101.5-0.1zm-297.3 201.6l-44.5 0.5-6.4 2.7c-13.1 5.7-20.9 14.1-26.3 28.4-2.2 5.8-2.3 7.1-2.6 55.5-0.3 53.2 0 58 4.8 68.2 3.5 7.3 13.8 17.8 21.3 21.6 11.4 5.8 14.3 6 66.7 6 38 0.1 48.9-0.2 54.5-1.4 18.7-4 33.7-18.1 37.4-35.3 1.4-6.9 1.5-104.8 0-111.1-3.5-15.4-15.7-28.4-31.2-33.3-7.5-2.3-13.3-2.5-73.7-1.8zm66 30.2c2.6 1.4 5.7 4.1 7.5 6.6l3 4.4 0.3 48.4c0.2 43 0.1 48.9-1.4 51.9-2.1 4.6-6.1 8.4-10.9 10.6-3.7 1.7-7.5 1.9-50 1.9-26.8 0-47.5-0.4-49.5-1-4.7-1.3-10.6-6.3-13-11.1-1.9-3.6-2-6-2-51.4 0-51.3 0-51.3 5.4-56.6 6-6 4.7-5.9 57.6-5.9 48.4 0 48.6 0 53 2.2zm169.2-29.5c-1.3 0.3-3.2 1.9-4.3 3.6-1.8 3-1.9 5.3-1.9 35.2v32l-33.7-0.3c-36-0.3-37.7-0.1-41.3 4.6-1.6 1.9-2 4-2 9.8 0 4 0.5 8.5 1.2 9.9 2.4 5.3 3.8 5.5 41.3 5.5h34.5v73.9l2.4 2.8c2.4 2.7 2.7 2.8 12.6 2.8 9.9 0 10.2-0.1 12.6-2.8l2.4-2.8v-73.9h35.5c45.7 0 44.5 0.4 44.5-15.5 0-7.9-0.2-8.8-2.5-10.9-1.4-1.3-3.9-2.6-5.6-3-1.8-0.3-18.6-0.6-37.5-0.6h-34.4v-32.1c0-20-0.4-32.8-1-34-1.8-3.3-6.4-4.9-13.7-4.8-3.7 0.1-7.8 0.4-9.1 0.6z" fill="rgb(255, 255, 255)"/><path d="m340.2 373c0 1.4 0.2 1.9 0.5 1.2 0.2-0.6 0.2-1.8 0-2.5-0.3-0.6-0.5-0.1-0.5 1.3z" fill="rgb(85, 128, 128)"/><path d="m297.8 31.7c0.6 0.2 1.8 0.2 2.5 0 0.6-0.3 0.1-0.5-1.3-0.5-1.4 0-1.9 0.2-1.2 0.5zm61 0c0.7 0.3 1.6 0.2 1.9-0.1 0.4-0.3-0.2-0.6-1.3-0.5-1.1 0-1.4 0.3-0.6 0.6z" fill="rgb(0, 85, 85)"/><path d="m320.8 31.7c0.6 0.2 1.8 0.2 2.5 0 0.6-0.3 0.1-0.5-1.3-0.5-1.4 0-1.9 0.2-1.2 0.5zm8.5 0c0.9 0.2 2.3 0.2 3 0 0.6-0.3-0.1-0.5-1.8-0.5-1.6 0-2.2 0.2-1.2 0.5z" fill="rgb(0, 0, 85)"/></svg>