<svg xmlns="http://www.w3.org/2000/svg" viewBox="0 0 506 597" width="32" height="32"><path d="m14.2 2.6c-5.6 2.8-9.2 6.4-12.3 12.5-1.9 3.8-1.9 6.6-1.7 176.1l0.3 172.3 2.7 4.7c3.6 6 9.4 10.9 15.5 13.1 4.4 1.6 12.8 1.7 111.6 1.7h106.7v93.8l-3.7 1.3c-19.5 6.3-34.8 22-40.7 41.8-0.9 3-1.5 7.3-1.5 9.5 0.1 3.4 0.3 3 1.1-2.3 3.1-22 20.1-41.7 41.6-48.1l4.2-1.3-0.2-47.6-0.3-47.6-108.5-0.5-108.5-0.5-5.5-3.1c-3.8-2.2-6.7-4.8-9.5-8.8l-4-5.8v-346.5l3.6-5.4c2.5-3.8 5-6.1 8.5-7.9l4.9-2.5 234-0.5 234-0.5-233.6-0.3-233.5-0.2zm473.8-0.9c0.8 0.3 2.4 1 3.5 1.5 2 0.9 2 0.9 0.1-0.6-1.1-0.9-2.7-1.6-3.5-1.5-1.4 0-1.4 0.1-0.1 0.6zm10.2 6.9c2.6 2.9 5.1 6.9 5.7 9 0.8 2.7 1.1 55 1.1 172.9-0.1 138.6-0.3 169.7-1.4 172.8-1.8 5-5.9 10.2-10.9 13.8-2.2 1.6-3.5 2.9-3 2.9 2 0 11.4-9.3 13.6-13.4l2.2-4.1v-172.5c0-162.3-0.1-172.7-1.7-175.7-1.9-3.4-5-6.8-8.3-9.3-1.1-0.8 0.1 0.8 2.7 3.6z"/><path d="m27 26.7c0 0.5 101.5 0.7 225.5 0.5l225.5-0.2v327h-449.9l-0.4-7.8-0.3-7.7-0.2 8.2-0.2 8.3h452l-0.2-164.3-0.3-164.2-225.7-0.3c-124.2-0.1-225.8 0.1-225.8 0.5z"/><path d="m26.8 47.7c-0.2 9.8-0.1 70.7 0.2 135.3l0.5 117.5 0.3-135.3c0.1-74.3 0-135.2-0.3-135.2-0.2 0-0.5 8-0.7 17.7zm172 19c29.8 0.2 78.6 0.2 108.5 0 29.8-0.1 5.4-0.2-54.3-0.2-59.7 0-84.1 0.1-54.2 0.2zm-61.6 2.3c-1.7 1.1-4.6 3.4-6.3 5.2-3 3.3-6.4 9.6-5.6 10.4 0.3 0.3 1.1-1.2 2-3.3 2-4.9 8.2-10.9 13.2-12.7 2.4-0.9 3.2-1.5 2-1.5-1.1-0.1-3.5 0.8-5.3 1.9zm229.4 0.4c5.3 2.5 9.3 6.8 11.8 12.7 1 2.5 1.5 10.6 2 32.1l0.6 28.8h-28v-53h-87v187h52v28h-130v-28h50l-0.2-91.3-0.3-91.2-0.2 90.7-0.3 90.8h-50v30h132v-30h-52v-185h85v53h30v-27.3c0-30.6-0.5-33.8-6.7-41.5-3.3-4-9.7-8.2-12.5-8.2-0.7 0 1 1.1 3.8 2.4zm-242.4 45.3l-0.2 29.3h28v-53l42.5 0.2c23.4 0.2 42.5 0 42.5-0.5 0-0.4-19.3-0.7-43-0.7h-43v53h-26l-0.3-28.8-0.2-28.7zm-97.4 204c-0.2 9.8 0 18.2 0.5 18.7 0.4 0.6 0.7-7.4 0.7-17.7 0-10.3-0.2-18.7-0.5-18.7-0.2 0-0.5 8-0.7 17.7zm457.7 62.3c-1.1 0.5-50.9 0.9-110.7 0.9l-108.8 0.1v95.5l6.5 2.1c3.5 1.2 6.3 1.8 6 1.4-0.2-0.3-2.9-1.5-5.9-2.5l-5.6-1.9v-93.6h108.8c92.3-0.1 109.1-0.3 111.2-1.5 2.7-1.6 1.7-1.9-1.5-0.5zm-200 104.8c12.4 7.9 23.1 22.9 27 37.9 1.9 7.4 1.9 18.3 0 25.7-1.9 7.1-1.3 8.6 0.6 1.9 0.8-2.9 1.4-9.2 1.3-15.8 0-9.3-0.4-12.1-2.6-17.7-3.4-9.1-8.3-16.9-14.3-23.2-4.9-5.1-15-12.6-17-12.6-0.5 0 1.7 1.7 5 3.8zm-40.1 17.1c-14.3 3.5-25.3 16.4-26 30.8l-0.3 6.8 0.9-6.6c2.2-17.7 12.9-28.2 31.4-30.9 4.8-0.7 4.8-0.8 1.1-0.8-2.2 0-5.4 0.3-7.1 0.7zm17.1 2.1c7.7 2.6 14.8 7.9 18.6 13.8 2.7 4.3 3.5 6.5 5.3 14.6 1.1 4.7 1.5 2.5 0.5-2.7-1.2-6.6-3.4-10.9-8.4-16.5-4.9-5.5-12.2-9.8-18-10.6-3.3-0.5-2.9-0.3 2 1.4zm-70.2 35.5c0 3.3 0.2 4.5 0.4 2.7 0.2-1.8 0.2-4.5 0-6-0.2-1.5-0.4 0-0.4 3.3zm93.6 0.5c-0.9 6.7-3.7 11.9-9.6 17.7-4.4 4.3-6.6 5.6-12.4 7.4-7 2.1-15.5 2.3-21.4 0.4-1.9-0.6-1.9-0.6-0.1 0.6 1.1 0.6 5 1.4 8.7 1.7 11.9 0.8 23.5-4.6 30.4-14.2 3.5-5 5.9-11.9 5.3-15.7-0.2-1.6-0.6-0.9-0.9 2.1zm-65.8 1.5c-0.1 2.6 4.1 11.3 7.1 14.7 2.7 3.1 10.6 8.8 12.2 8.8 0.6 0-0.5-0.9-2.4-2.1-7.9-4.7-13-11-15.6-19.4-0.7-2.2-1.3-3.1-1.3-2z"/><path d="m192.4 550c0.3 1.9 2.5 7.3 4.8 12 7.1 14.7 21.6 26.9 38.1 32.3 9.3 3 25.9 3 34.9 0 11.6-3.9 22-11.1 29.8-20.4 4.9-5.9 10.6-15.6 9.7-16.6-0.3-0.2-1.6 2-2.9 4.9-1.4 2.9-5.1 8.3-8.4 11.9-17.1 19.2-40.9 26.2-63.5 18.8-8.5-2.8-11.2-4.2-19-10.1-10.5-7.9-16.8-16.5-21.6-29.6-1.5-4.2-2.2-5.4-1.9-3.2z"/><path d="m26 28.6c0 0.8 0.5 1.2 1 0.9 0.6-0.4 0.8-1.1 0.5-1.6-0.9-1.4-1.5-1.1-1.5 0.7zm0.4 18.4c0 9.1 0.2 12.8 0.3 8.2 0.2-4.5 0.2-11.9 0-16.5-0.1-4.5-0.3-0.8-0.3 8.3zm0.1 87.5c0 35.7 0.1 50.2 0.2 32.2 0.2-18.1 0.2-47.3 0-65-0.1-17.7-0.2-3-0.2 32.8zm210.6-42.9c0 1.1 0.3 1.4 0.6 0.6 0.3-0.7 0.2-1.6-0.1-1.9-0.3-0.4-0.6 0.2-0.5 1.3zm-0.7 29.9c0 14.3 0.2 20 0.3 12.7 0.2-7.3 0.2-19 0-26-0.1-7-0.3-1-0.3 13.3zm143.9 17.5c0 2.5 0.2 3.5 0.4 2.2 0.2-1.2 0.2-3.2 0-4.5-0.2-1.2-0.4-0.2-0.4 2.3zm-143.9 42.5c0 18.7 0.2 26.2 0.3 16.7 0.2-9.5 0.2-24.8 0-34-0.1-9.2-0.3-1.4-0.3 17.3zm-210.2 23.5c0 1.9 0.2 2.7 0.5 1.7 0.2-0.9 0.2-2.5 0-3.5-0.3-0.9-0.5-0.1-0.5 1.8zm0.1 7.5c0 2.2 0.2 3 0.4 1.7 0.2-1.2 0.2-3 0-4-0.3-0.9-0.5 0.1-0.4 2.3zm209.9 6c0 1.6 0.2 2.2 0.5 1.2 0.2-0.9 0.2-2.3 0-3-0.3-0.6-0.5 0.1-0.5 1.8zm-209.9 8.5c0 4.1 0.2 5.8 0.4 3.7 0.2-2 0.2-5.4 0-7.5-0.2-2-0.4-0.3-0.4 3.8zm210 11c0 4.1 0.2 5.8 0.4 3.7 0.2-2 0.2-5.4 0-7.5-0.2-2-0.4-0.3-0.4 3.8zm-210 6c0 3.6 0.2 5 0.4 3.2 0.2-1.7 0.2-4.7 0-6.5-0.2-1.7-0.4-0.3-0.4 3.3zm209.9 4c0 1.4 0.2 1.9 0.5 1.2 0.2-0.6 0.2-1.8 0-2.5-0.3-0.6-0.5-0.1-0.5 1.3zm-209.8 13.5c0 6 0.1 8.4 0.3 5.2 0.2-3.2 0.2-8.1 0-11-0.2-2.9-0.3-0.3-0.3 5.8zm209.9-2c0 2.2 0.2 3 0.4 1.7 0.2-1.2 0.2-3 0-4-0.3-0.9-0.5 0.1-0.4 2.3zm0 9.5c0 3 0.2 4.3 0.4 2.7 0.2-1.5 0.2-3.9 0-5.5-0.2-1.5-0.4-0.2-0.4 2.8zm-209.9 28.5c0 12.6 0.2 17.7 0.3 11.2 0.2-6.5 0.2-16.8 0-23-0.1-6.2-0.3-0.9-0.3 11.8zm-0.1 30.5c0 4.1 0.2 5.8 0.4 3.7 0.2-2 0.2-5.4 0-7.5-0.2-2-0.4-0.3-0.4 3.8zm0 17.5c0 4.4 0.2 6.1 0.4 3.7 0.2-2.3 0.2-5.9 0-8-0.2-2-0.4-0.1-0.4 4.3zm259.2 188.5c-0.3 0.5-0.2 1.8 0.4 2.7 0.7 1.4 0.9 1.2 0.8-1-0.2-3-0.3-3.1-1.2-1.7z" fill="rgb(85, 85, 85)"/><path d="m188.2 284c0 1.9 0.2 2.7 0.5 1.7 0.2-0.9 0.2-2.5 0-3.5-0.3-0.9-0.5-0.1-0.5 1.8zm0 8c0 1.9 0.2 2.7 0.5 1.7 0.2-0.9 0.2-2.5 0-3.5-0.3-0.9-0.5-0.1-0.5 1.8zm0 7c0 1.4 0.2 1.9 0.5 1.2 0.2-0.6 0.2-1.8 0-2.5-0.3-0.6-0.5-0.1-0.5 1.3z" fill="rgb(170, 170, 170)"/><path d="m19 2.2c-7.8 2.1-14.9 9.1-17 16.7-0.6 2.3-1 62.2-1 171.8 0 165.6 0 168.3 2 173.6 2.5 6.6 7.7 11.8 15.3 15.1l5.8 2.6h213.9v46.4c0 25.5 0.3 47.1 0.6 48 0.4 1.1-0.5 1.8-3.7 2.6-10.9 3-23.4 11.3-30.1 20.2-8.3 10.9-11.8 20.3-12.5 33.3-1.9 33.5 26.1 62.6 60.3 62.6 16.9 0 30.2-5.7 42.7-18.4 9-9.2 13.7-17.8 16.1-29.9 2-9.5 2-12.4 0.1-21.2-4.3-20.2-20.6-38.9-39.8-45.5-3.1-1.1-5.8-1.7-6.1-1.4-0.3 0.4-0.6-21.3-0.6-48v-48.7l109.3-0.2 109.2-0.3 4.7-2.2c5.8-2.6 11.5-8.4 14.2-14.3l2.1-4.5v-171c0-161.6-0.1-171.2-1.8-174.2-2.2-4.2-7.6-9.6-11.9-11.9-3.2-1.8-11-1.9-235.8-2-145.4-0.1-233.8 0.2-236 0.8zm460 188.3v164.5h-453v-329h453zm-212.6 314.9c16.3 8 23.7 24 18.7 40.5-1.9 6.1-3 8-8 13-7.4 7.4-14 10.1-24.6 10.1-9.6 0-16.8-2.7-23.5-8.7-16.3-14.7-14.6-39.8 3.6-52.4 7-4.8 11-5.9 20-5.6 6.4 0.3 9.3 0.9 13.8 3.1z" fill="rgb(255, 255, 255)"/><path d="m142.8 68.4c-2.6 0.7-5.5 1.9-6.4 2.7-4.6 3.7-6.4 5.8-8.5 9.9-2.3 4.4-2.4 5.3-2.7 33.2l-0.3 28.8h26.2l-0.3-26.5-0.3-26.5h87.5v93.4c0 84.2-0.2 93.4-1.6 94-0.9 0.3-11.9 0.6-24.5 0.6h-22.9v26.5l64.5-0.3 64.5-0.2v-26.5h-25.7c-14.2 0-25.9-0.3-26-0.8-0.2-0.4-0.3-42.6-0.3-93.7v-93h88.1l-0.1 14.2c-0.1 7.9-0.1 19.8 0 26.5v12.3h26.1l-0.3-29.3c-0.3-29-0.3-29.2-2.8-33.7-2.9-5.2-9.5-10.5-14.8-11.9-5.8-1.7-213.3-1.3-219.4 0.3z" fill="rgb(255, 255, 255)"/><path d="m266.3 402.5c0 2.2 0.2 3 0.4 1.7 0.2-1.2 0.2-3 0-4-0.3-0.9-0.5 0.1-0.4 2.3zm-58.3 173.9c0 0.2 0.8 1 1.8 1.7 1.5 1.3 1.6 1.2 0.3-0.4-1.3-1.6-2.1-2.1-2.1-1.3z" fill="rgb(128, 128, 128)"/><path d="m353.4 103c0 5.2 0.1 7.4 0.3 4.7 0.2-2.6 0.2-6.8 0-9.5-0.2-2.6-0.3-0.4-0.3 4.8zm-0.1 20c0 2.5 0.2 3.5 0.4 2.2 0.2-1.2 0.2-3.2 0-4.5-0.2-1.2-0.4-0.2-0.4 2.3zm-0.2 8.6c0 1.1 0.3 1.4 0.6 0.6 0.3-0.7 0.2-1.6-0.1-1.9-0.3-0.4-0.6 0.2-0.5 1.3zm0.2 6.9c0 2.7 0.2 3.8 0.4 2.2 0.2-1.5 0.2-3.7 0-5-0.2-1.2-0.4 0-0.4 2.8zm-162.5 139.2c1.2 0.2 3.2 0.2 4.5 0 1.2-0.2 0.2-0.4-2.3-0.4-2.5 0-3.5 0.2-2.2 0.4zm8.5 0c0.9 0.2 2.5 0.2 3.5 0 0.9-0.3 0.1-0.5-1.8-0.5-1.9 0-2.7 0.2-1.7 0.5zm24.5 0c2.3 0.2 6.1 0.2 8.5 0 2.3-0.2 0.4-0.4-4.3-0.4-4.7 0-6.6 0.2-4.2 0.4zm46.5 0c2.6 0.2 6.8 0.2 9.5 0 2.6-0.2 0.4-0.3-4.8-0.3-5.2 0-7.4 0.1-4.7 0.3zm22.5 0c4.6 0.2 11.8 0.2 16 0 4.2-0.1 0.5-0.3-8.3-0.3-8.8 0-12.3 0.2-7.7 0.3zm-71 27c17.7 0.2 46.7 0.2 64.5 0 17.7-0.1 3.2-0.2-32.3-0.2-35.5 0-50 0.1-32.2 0.2zm54.2 207.7c0 0.2 0.8 1 1.8 1.7 1.5 1.3 1.6 1.2 0.3-0.4-1.3-1.6-2.1-2.1-2.1-1.3zm22.9 60.3c-1.3 1.6-1.2 1.7 0.4 0.4 1.6-1.3 2.1-2.1 1.3-2.1-0.2 0-1 0.8-1.7 1.7zm-45.1 23c0.6 0.2 1.8 0.2 2.5 0 0.6-0.3 0.1-0.5-1.3-0.5-1.4 0-1.9 0.2-1.2 0.5z" fill="rgb(212, 212, 212)"/><path d="m380.2 130c0 1.4 0.2 1.9 0.5 1.2 0.2-0.6 0.2-1.8 0-2.5-0.3-0.6-0.5-0.1-0.5 1.3zm-354 88c0 1.4 0.2 1.9 0.5 1.2 0.2-0.6 0.2-1.8 0-2.5-0.3-0.6-0.5-0.1-0.5 1.3zm-0.1 55.6c0 1.1 0.3 1.4 0.6 0.6 0.3-0.7 0.2-1.6-0.1-1.9-0.3-0.4-0.6 0.2-0.5 1.3z" fill="rgb(0, 85, 85)"/><path d="m26.1 66.6c0 1.1 0.3 1.4 0.6 0.6 0.3-0.7 0.2-1.6-0.1-1.9-0.3-0.4-0.6 0.2-0.5 1.3zm354 67c0 1.1 0.3 1.4 0.6 0.6 0.3-0.7 0.2-1.6-0.1-1.9-0.3-0.4-0.6 0.2-0.5 1.3z" fill="rgb(0, 0, 85)"/></svg>