<svg xmlns="http://www.w3.org/2000/svg" viewBox="0 0 560 608" width="32" height="32"><path d="m352.8 27.7c0.7 0.3 1.6 0.2 1.9-0.1 0.4-0.3-0.2-0.6-1.3-0.5-1.1 0-1.4 0.3-0.6 0.6zm-70.4 96.5l-1.9 2.3 2.3-1.9c2.1-1.8 2.7-2.6 1.9-2.6-0.2 0-1.2 1-2.3 2.2zm-9 9l-2.9 3.3 3.3-2.9c1.7-1.7 3.2-3.1 3.2-3.3 0-0.8-0.8-0.1-3.6 2.9zm37.5 1.5l-2.4 2.8 2.8-2.4c2.5-2.3 3.2-3.1 2.4-3.1-0.2 0-1.4 1.2-2.8 2.7zm-46.9 7.8c-2.4 2.5-4.2 4.5-3.9 4.5 0.3 0 2.5-2 4.9-4.5 2.4-2.5 4.2-4.5 3.9-4.5-0.3 0-2.5 2-4.9 4.5zm89.5-1.5c-0.8 1.3 0.5 1.3 2.5 0 1.3-0.8 1.3-1-0.2-1-0.9 0-2 0.4-2.3 1zm-54.1 5.2l-1.9 2.3 2.3-1.9c2.1-1.8 2.7-2.6 1.9-2.6-0.2 0-1.2 1-2.3 2.2zm-45 6l-1.9 2.3 2.3-1.9c1.2-1.1 2.2-2.1 2.2-2.3 0-0.8-0.8-0.2-2.6 1.9zm-61.9 62l-5 5.3 5.3-5c4.8-4.6 5.7-5.5 4.9-5.5-0.1 0-2.5 2.4-5.2 5.2zm40.4 0.5c-1.3 1.6-1.2 1.7 0.4 0.4 0.9-0.7 1.7-1.5 1.7-1.7 0-0.8-0.8-0.3-2.1 1.3zm-55 14l-2.4 2.8 2.8-2.4c2.5-2.3 3.2-3.1 2.4-3.1-0.2 0-1.4 1.2-2.8 2.7zm-7 7l-2.4 2.8 2.8-2.4c1.5-1.4 2.7-2.6 2.7-2.8 0-0.8-0.8-0.1-3.1 2.4zm372.9 6.5c0.5 0.5 1.6 0.8 2.3 0.6 0.8-0.3 0.3-0.7-1-1.1-1.7-0.4-2.1-0.3-1.3 0.5zm-380.9 1.5c-1.3 1.6-1.2 1.7 0.4 0.4 1.6-1.3 2.1-2.1 1.3-2.1-0.2 0-1 0.8-1.7 1.7zm34.5 5.5l-1.9 2.3 2.3-1.9c2.1-1.8 2.7-2.6 1.9-2.6-0.2 0-1.2 1-2.3 2.2zm-42.5 2.5c-1.3 1.6-1.2 1.7 0.4 0.4 1.6-1.3 2.1-2.1 1.3-2.1-0.2 0-1 0.8-1.7 1.7zm32.5 7.5l-2.9 3.3 3.3-2.9c1.7-1.7 3.2-3.1 3.2-3.3 0-0.8-0.8-0.1-3.6 2.9zm315.5 17.5c-1.3 1.6-1.2 1.7 0.4 0.4 0.9-0.7 1.7-1.5 1.7-1.7 0-0.8-0.8-0.3-2.1 1.3zm35.5 4.5l-1.9 2.3 2.3-1.9c2.1-1.8 2.7-2.6 1.9-2.6-0.2 0-1.2 1-2.3 2.2zm-471.6 2.5c0.6 0.2 1.8 0.2 2.5 0 0.6-0.3 0.1-0.5-1.3-0.5-1.4 0-1.9 0.2-1.2 0.5zm8 0c0.6 0.2 1.8 0.2 2.5 0 0.6-0.3 0.1-0.5-1.3-0.5-1.4 0-1.9 0.2-1.2 0.5zm46.1 2l-2.4 2.8 2.8-2.4c1.5-1.4 2.7-2.6 2.7-2.8 0-0.8-0.8-0.1-3.1 2.4zm406 7c-1.3 1.6-1.2 1.7 0.4 0.4 0.9-0.7 1.7-1.5 1.7-1.7 0-0.8-0.8-0.3-2.1 1.3zm-383.5 12.5l-2.9 3.3 3.3-2.9c3-2.8 3.7-3.6 2.9-3.6-0.2 0-1.6 1.5-3.3 3.2zm-41.4 17.2c0 0.2 0.8 1 1.8 1.7 1.5 1.3 1.6 1.2 0.3-0.4-1.3-1.6-2.1-2.1-2.1-1.3zm352.9 3.3c-1.3 1.6-1.2 1.7 0.4 0.4 0.9-0.7 1.7-1.5 1.7-1.7 0-0.8-0.8-0.3-2.1 1.3zm38 1c-1.3 1.6-1.2 1.7 0.4 0.4 0.9-0.7 1.7-1.5 1.7-1.7 0-0.8-0.8-0.3-2.1 1.3zm-8.5 8.5l-1.9 2.3 2.3-1.9c2.1-1.8 2.7-2.6 1.9-2.6-0.2 0-1.2 1-2.3 2.2zm-15 15l-1.9 2.3 2.3-1.9c1.2-1.1 2.2-2.1 2.2-2.3 0-0.8-0.8-0.2-2.6 1.9zm-8.5 8.5c-1.3 1.6-1.2 1.7 0.4 0.4 0.9-0.7 1.7-1.5 1.7-1.7 0-0.8-0.8-0.3-2.1 1.3zm-10 10l-2.4 2.8 2.8-2.4c1.5-1.4 2.7-2.6 2.7-2.8 0-0.8-0.8-0.1-3.1 2.4zm-149 110c-1.3 1.6-1.2 1.7 0.4 0.4 0.9-0.7 1.7-1.5 1.7-1.7 0-0.8-0.8-0.3-2.1 1.3zm-11.4 11.5l-5 5.3 5.3-5c2.8-2.7 5.2-5.1 5.2-5.2 0-0.8-0.9 0.1-5.5 4.9zm-20.1 20l-1.9 2.3 2.3-1.9c2.1-1.8 2.7-2.6 1.9-2.6-0.2 0-1.2 1-2.3 2.2zm-6.5 6.5l-2.4 2.8 2.8-2.4c1.5-1.4 2.7-2.6 2.7-2.8 0-0.8-0.8-0.1-3.1 2.4zm34.5 4.5l-1.9 2.3 2.3-1.9c2.1-1.8 2.7-2.6 1.9-2.6-0.2 0-1.2 1-2.3 2.2zm-43 4l-1.9 2.3 2.3-1.9c2.1-1.8 2.7-2.6 1.9-2.6-0.2 0-1.2 1-2.3 2.2zm34.1 5l-5 5.3 5.3-5c4.8-4.6 5.7-5.5 4.9-5.5-0.1 0-2.5 2.4-5.2 5.2zm-9.1 9l-2.9 3.3 3.3-2.9c1.7-1.7 3.2-3.1 3.2-3.3 0-0.8-0.8-0.1-3.6 2.9zm-6.5 6.5c-1.3 1.6-1.2 1.7 0.4 0.4 0.9-0.7 1.7-1.5 1.7-1.7 0-0.8-0.8-0.3-2.1 1.3zm-42.5 3.5l-1.9 2.3 2.3-1.9c2.1-1.8 2.7-2.6 1.9-2.6-0.2 0-1.2 1-2.3 2.2zm-6.5 6.5c-1.3 1.6-1.2 1.7 0.4 0.4 0.9-0.7 1.7-1.5 1.7-1.7 0-0.8-0.8-0.3-2.1 1.3zm-6 6c-1.3 1.6-1.2 1.7 0.4 0.4 0.9-0.7 1.7-1.5 1.7-1.7 0-0.8-0.8-0.3-2.1 1.3zm38.5 0.5l-1.9 2.3 2.3-1.9c1.2-1.1 2.2-2.1 2.2-2.3 0-0.8-0.8-0.2-2.6 1.9zm-54 15l-1.9 2.3 2.3-1.9c2.1-1.8 2.7-2.6 1.9-2.6-0.2 0-1.2 1-2.3 2.2zm38 1l-1.9 2.3 2.3-1.9c2.1-1.8 2.7-2.6 1.9-2.6-0.2 0-1.2 1-2.3 2.2z" fill="rgb(85, 85, 85)"/><path d="m348.5 1c-35.3 3.7-63.5 35-63.5 70.5 0 9.1 4 25 8.1 32.4l3.1 5.4-92 92-92.1 92.1-6.8-3.1c-7.6-3.5-14.2-5.7-14.9-5.1-0.2 0.3 2.2 1.2 5.4 2.2 3.1 1 8 3.1 10.9 4.7l5.2 3 92.5-92.8c51-51 92.6-92.9 92.6-93.1 0-0.3-1.3-2.8-2.9-5.6-4-7-7.1-18.4-7.8-28.6-1.5-21.3 8.7-44.4 25.5-57.5 19.8-15.6 43.8-19.7 68.9-11.9 1.5 0.5 1.5 0.4 0.3-0.4-4.8-3.2-21.4-5.3-32.5-4.2zm39 7.8c8.3 4.6 13.7 8.7 19.6 14.8 12.2 12.9 18.2 26.4 19.9 44.9 0.7 7.9 0.7 7.9 0.8 2 0.2-7.1-2.8-20.4-6.1-27.2-3.9-8.2-9.8-16.3-16.3-22.6-6.9-6.6-9.7-8.6-16.6-12.3-6.5-3.3-7.5-3-1.3 0.4z"/><path d="m358 28c0 0.4 2.3 1 5.1 1.3 16.2 1.9 30.4 15.2 34.4 32.3 1.6 6.8 1.7 8.7 0.6 14.9-2.2 12.7-9.1 23.5-18.7 29.1-2.5 1.5-4.3 2.8-4 3.1 0.9 0.9 8.2-4.5 12.9-9.6 8.8-9.4 13.1-23.4 10.9-35.2-2.6-13.9-11.8-26.1-24.1-31.8-6.7-3.1-17.1-5.6-17.1-4.1zm-14.5 1.4c-15.3 4.8-26.8 17.9-29.8 33.7-2.2 12.3 3.3 30 12 38 4.7 4.3 17.4 10.9 20.8 10.8 1.1 0 0.2-0.6-2-1.3-16.6-5.3-26.5-16.5-29.6-33.7-3.8-21.3 10.8-42.7 32.3-47.4 3.7-0.8 5.1-1.3 3.3-1.4-1.6 0-4.8 0.6-7 1.3zm82.2 52.4c-3.1 26.2-26.8 51.9-52.7 57.1-9.2 1.8-9.7 2.1-3.7 1.6 11.4-1 26.9-8.9 37.1-19.1 10.2-10.1 18.8-26.7 20.2-38.9 0.4-3 0.5-5.5 0.2-5.5-0.3 0-0.8 2.2-1.1 4.8zm-55.7 28.4c-1.4 0.5-6.8 1.4-12 1.8l-9.5 0.9 9.5-0.3c5.8-0.2 10.9-0.9 13-1.9 3.9-1.7 3-2.2-1-0.5zm-110.1 76.6c-32.1 32.3-73.9 74.3-92.8 93.3l-34.3 34.7 3.5 6.3c6.2 11.2 8.2 19.5 8.2 34.4 0 10.9-0.4 14.1-2.3 19.9-6.6 19.5-19.4 34.7-36.9 43.4-9.2 4.7-17 6.8-29.3 8.2l-8.5 0.9 9.6-0.5c11.3-0.5 17.5-2.2 28.4-7.6 10.6-5.4 17.4-10.8 24.2-19.3 11.8-14.8 16.9-30.1 16-49-0.6-12.2-2.6-19.7-8.3-30.5l-3.4-6.4 38.3-38.6c21.1-21.2 62.4-62.7 91.8-92.4l53.5-53.9 8.4 4.1c9.6 4.6 18.9 7.3 24.6 7.1 3.3-0.2 3.4-0.3 0.9-0.6-10.6-1.3-24.4-6-30.4-10.2l-2.8-2zm96.9-45.1c1.2 0.2 3.2 0.2 4.5 0 1.2-0.2 0.2-0.4-2.3-0.4-2.5 0-3.5 0.2-2.2 0.4zm185.2 100.2c-1.4 0.4-3.9 1.5-5.5 2.4-1.7 0.9-29.9 28.6-62.8 61.6l-59.9 59.9-9.1-4.3c-5.1-2.4-11-4.6-13.2-4.9-3.6-0.5-3.6-0.4 1 0.9 2.7 0.8 8.8 3.3 13.4 5.6l8.3 4.1 60.7-60.7c33.5-33.4 61.4-61.1 62.2-61.6 0.8-0.5 3.1-1.4 5.2-1.9 7-2 15.9 4 17 11.5l0.4 3 0.2-3.1c0.3-7.2-10.5-14.8-17.9-12.5z"/><path d="m557.6 259.7c-0.3 1-28.7 29.9-63 64.2l-62.4 62.4 3.3 5.1c8.3 13.1 11.7 29 9.7 44.6-0.7 5-2.1 11.4-3.2 14.2-1.1 2.9-1.8 5.4-1.6 5.6 0.9 0.8 4.7-11.3 5.7-18.1 2.3-14.8-0.7-30.9-8.2-44.1-3.3-5.7-3.7-7.1-2.7-8.5 0.7-0.8 28.9-29.2 62.6-63.1 33.6-33.8 61.2-62 61.2-62.7 0-1.9-0.8-1.6-1.4 0.4zm-486.3 23c0.9 0.2 2.3 0.2 3 0 0.6-0.3-0.1-0.5-1.8-0.5-1.6 0-2.2 0.2-1.2 0.5zm-10 1c0.9 0.2 2.5 0.2 3.5 0 0.9-0.3 0.1-0.5-1.8-0.5-1.9 0-2.7 0.2-1.7 0.5zm20.2 0.4c5.1 1 9.2 1 5-0.1-1.6-0.4-4.3-0.8-6-0.8-2.5 0-2.4 0.2 1 0.9zm-31.5 1.8c-16.2 5.2-31.4 17.5-40.6 32.8-1.9 3.1-3.4 6.2-3.4 6.7 0 0.6 2.1-2.4 4.6-6.6 8.8-14.8 25.1-27.7 41.4-32.5 4.1-1.2 6.6-2.2 5.5-2.2-1.1 0-4.5 0.8-7.5 1.8zm19.5 25.8c15 0.9 25.2 5.1 33.9 13.7 23.4 23.5 12.3 61.7-20.7 71.1-4.4 1.3-4.6 1.5-1.3 1.1 5.9-0.8 16-6 21.6-11.2 14-13.1 17.8-32.7 9.7-49.6-7.8-16.1-24.1-26.1-41.7-25.6-5.7 0.1-5.9 0.2-1.5 0.5zm-13 1.6c-17 6.7-28.4 23.3-28.5 41.3 0 12.8 8.8 29.2 19.3 35.9 1.5 1-0.3-1.3-4.1-5.1-7.6-7.6-10.3-12-12.6-21.1-2-7.5-2-12.6-0.2-19.5 2.1-7.9 4.1-12 8.6-17.6 5-6.4 10.2-9.9 18.9-12.9 3.6-1.2 5.5-2.2 4.1-2.2-1.4 0-3.8 0.6-5.5 1.2z"/><path d="m2.9 333.7c-3 9.3-3.7 26.3-1.5 35.6 3.6 15.2 13.2 30.9 25.3 41.1 10.6 9 28.5 16.8 37.8 16.5 1.6 0-0.1-0.7-4-1.4-18.2-3.3-34.5-14-46-30-6.3-8.8-10.9-19.5-12.6-28.9-1.5-9.1-0.6-24.3 2-32.6 1.1-3.5 1.8-6.6 1.6-6.8-0.2-0.2-1.3 2.7-2.6 6.5zm365.4 21c2 0.2 5.4 0.2 7.5 0 2-0.2 0.3-0.4-3.8-0.4-4.1 0-5.8 0.2-3.7 0.4zm-17.8 3.1c-6.9 2.4-19.5 9.3-19.5 10.6 0 0.3 2.9-1.3 6.4-3.4 6.5-3.9 15.6-7.5 23.1-9 3.5-0.7 3.6-0.8 1-0.8-1.6-0.1-6.6 1.1-11 2.6zm32.8-2.1c0.9 0.2 2.3 0.2 3 0 0.6-0.3-0.1-0.5-1.8-0.5-1.6 0-2.2 0.2-1.2 0.5zm-58 16.8c-9 7.6-18.6 23.4-22.3 36.7-2 7.4-2.6 23.6-1.1 30.3 0.4 1.6 0.5-2.2 0.3-8.6-0.9-22.5 5.2-38 21.7-55.2 3.5-3.7 6.2-6.7 6-6.7-0.2 0-2.3 1.6-4.6 3.5zm37 12c-7.7 2.1-13 5.1-19 10.8-22.4 21.2-17.2 57.1 10.2 70.7 3.3 1.6 7.6 3.2 9.5 3.5 2.5 0.4 1.8 0-2-1.3-7.9-2.6-14.1-6.5-19.3-12.1-17.3-18.5-14.9-47.1 5.4-63.1 6.5-5.1 14.5-8 24.9-9 8.5-0.7 8.5-0.7 2-0.8-3.6 0-8.9 0.6-11.7 1.3zm23.9 1.3c18.9 6.4 30.8 22.4 30.8 41.8 0 18.2-11.4 33.9-29.5 40.4-4.1 1.4-4.9 1.9-2.5 1.5 11-1.7 23.6-12.2 29.4-24.5 2.9-6 3.1-7.3 3.1-17.5 0-10.3-0.2-11.4-3.2-17.8-5.9-12.3-19.3-23.5-30.3-25.2-2.4-0.4-1.6 0.1 2.2 1.3zm-335.2 6.7c0 0.2 2 1.3 4.5 2.4 4.8 2.1 14.8 4.3 14 3.1-0.2-0.4-2.5-1-5-1.3-2.5-0.4-6.3-1.6-8.5-2.7-4-2-5-2.4-5-1.5zm21.8 6.2c0.6 0.2 1.8 0.2 2.5 0 0.6-0.3 0.1-0.5-1.3-0.5-1.4 0-1.9 0.2-1.2 0.5zm230.3 45.9c0 1.1 0.3 1.4 0.6 0.6 0.3-0.7 0.2-1.6-0.1-1.9-0.3-0.4-0.6 0.2-0.5 1.3zm0.9 3.4c0 0.9 1.9 5.5 4.3 10.2l4.4 8.6-58.9 58.9c-32.4 32.3-59.6 60-60.4 61.5-0.8 1.5-1.4 4.4-1.4 6.5 0 10.6 11.7 16.9 21.5 11.5 1.1-0.6 28.5-27.6 60.9-60l58.9-59 3.6 2.2c4.1 2.6 16.3 7.6 18.3 7.5 0.7 0-1.4-1-4.8-2.3-3.4-1.2-8.6-3.6-11.6-5.3l-5.5-3.1-58.9 58.9c-32.4 32.5-60.1 59.7-61.6 60.5-1.5 0.8-4.8 1.4-7.4 1.4-4.1 0-5.1-0.5-8.5-3.9-4.2-4.1-5-8.1-2.9-13.6 0.5-1.4 27.8-29.4 60.5-62.2l59.5-59.7-2.7-4.4c-1.4-2.5-3.6-7-4.9-10.1-1.3-3.1-2.3-4.9-2.4-4.1zm131.2 16.1c-9.5 15.2-25.4 26.8-43.3 31.4-6.8 1.8-21.3 2.4-29.9 1.3-4.5-0.6-5-0.5-2.5 0.4 1.7 0.6 8.2 1.1 14.5 1.1 9 0.1 13.2-0.4 19.5-2.2 18.4-5.1 34-17.2 44.4-34.4 1.3-2.1 2.2-4 1.9-4.2-0.2-0.2-2.3 2.8-4.6 6.6zm-65.5 6.6c1.8 0.2 5 0.2 7 0 2.1-0.2 0.7-0.4-3.2-0.4-3.8 0-5.5 0.2-3.8 0.4z"/><path d="m304.9 140.7l-2.4 2.8 2.8-2.4c1.5-1.4 2.7-2.6 2.7-2.8 0-0.8-0.8-0.1-3.1 2.4zm54.9 0c0.7 0.3 1.6 0.2 1.9-0.1 0.4-0.3-0.2-0.6-1.3-0.5-1.1 0-1.4 0.3-0.6 0.6zm-101.9 8c-1.3 1.6-1.2 1.7 0.4 0.4 1.6-1.3 2.1-2.1 1.3-2.1-0.2 0-1 0.8-1.7 1.7zm-7.5 7.5l-1.9 2.3 2.3-1.9c2.1-1.8 2.7-2.6 1.9-2.6-0.2 0-1.2 1-2.3 2.2zm-13.5 13.5c-1.3 1.6-1.2 1.7 0.4 0.4 1.6-1.3 2.1-2.1 1.3-2.1-0.2 0-1 0.8-1.7 1.7zm-12 12c-1.3 1.6-1.2 1.7 0.4 0.4 0.9-0.7 1.7-1.5 1.7-1.7 0-0.8-0.8-0.3-2.1 1.3zm36 3c-1.3 1.6-1.2 1.7 0.4 0.4 0.9-0.7 1.7-1.5 1.7-1.7 0-0.8-0.8-0.3-2.1 1.3zm-6 6c-1.3 1.6-1.2 1.7 0.4 0.4 0.9-0.7 1.7-1.5 1.7-1.7 0-0.8-0.8-0.3-2.1 1.3zm-49 10l-3.4 3.8 3.8-3.4c3.4-3.3 4.2-4.1 3.4-4.1-0.2 0-1.9 1.7-3.8 3.7zm-7 7c-1.3 1.6-1.2 1.7 0.4 0.4 0.9-0.7 1.7-1.5 1.7-1.7 0-0.8-0.8-0.3-2.1 1.3zm-14 14l-2.4 2.8 2.8-2.4c2.5-2.3 3.2-3.1 2.4-3.1-0.2 0-1.4 1.2-2.8 2.7zm369.1 24.7c0 0.2 0.8 1 1.8 1.7 1.5 1.3 1.6 1.2 0.3-0.4-1.3-1.6-2.1-2.1-2.1-1.3zm-361.1 7.3l-2.4 2.8 2.8-2.4c2.5-2.3 3.2-3.1 2.4-3.1-0.2 0-1.4 1.2-2.8 2.7zm-15 15c-1.3 1.6-1.2 1.7 0.4 0.4 1.6-1.3 2.1-2.1 1.3-2.1-0.2 0-1 0.8-1.7 1.7zm-10.9 11l-5.5 5.8 5.8-5.5c5.3-5 6.2-6 5.4-6-0.1 0-2.7 2.6-5.7 5.7zm-28.1 30c-1.3 1.6-1.2 1.7 0.4 0.4 1.6-1.3 2.1-2.1 1.3-2.1-0.2 0-1 0.8-1.7 1.7zm226.9 46c0.7 0.3 1.6 0.2 1.9-0.1 0.4-0.3-0.2-0.6-1.3-0.5-1.1 0-1.4 0.3-0.6 0.6zm37.2 38.8c1.3 1.4 2.6 2.5 2.8 2.5 0.3 0-0.5-1.1-1.8-2.5-1.3-1.4-2.6-2.5-2.8-2.5-0.3 0 0.5 1.1 1.8 2.5zm-97.1 80.2l-2.4 2.8 2.8-2.4c1.5-1.4 2.7-2.6 2.7-2.8 0-0.8-0.8-0.1-3.1 2.4zm-8 8l-2.4 2.8 2.8-2.4c1.5-1.4 2.7-2.6 2.7-2.8 0-0.8-0.8-0.1-3.1 2.4zm26 11l-2.4 2.8 2.8-2.4c2.5-2.3 3.2-3.1 2.4-3.1-0.2 0-1.4 1.2-2.8 2.7zm-44.4 7.5l-4 4.3 4.3-4c3.9-3.6 4.7-4.5 3.9-4.5-0.2 0-2.1 1.9-4.2 4.2zm39.4-2.5c-1.3 1.6-1.2 1.7 0.4 0.4 0.9-0.7 1.7-1.5 1.7-1.7 0-0.8-0.8-0.3-2.1 1.3zm-104.5 67.5l-2.9 3.3 3.3-2.9c1.7-1.7 3.2-3.1 3.2-3.3 0-0.8-0.8-0.1-3.6 2.9z" fill="rgb(128, 128, 128)"/><path d="m401 18.4c0 0.2 0.8 1 1.8 1.7 1.5 1.3 1.6 1.2 0.3-0.4-1.3-1.6-2.1-2.1-2.1-1.3zm-114.9 50.2c0 1.1 0.3 1.4 0.6 0.6 0.3-0.7 0.2-1.6-0.1-1.9-0.3-0.4-0.6 0.2-0.5 1.3zm0.1 5.9c0 1.6 0.2 2.2 0.5 1.2 0.2-0.9 0.2-2.3 0-3-0.3-0.6-0.5 0.1-0.5 1.8zm120.2 44.7l-1.9 2.3 2.3-1.9c2.1-1.8 2.7-2.6 1.9-2.6-0.2 0-1.2 1-2.3 2.2zm-164.5 84.5l-3.4 3.8 3.8-3.4c3.4-3.3 4.2-4.1 3.4-4.1-0.2 0-1.9 1.7-3.8 3.7zm-8.4 8.5l-4 4.3 4.3-4c3.9-3.6 4.7-4.5 3.9-4.5-0.2 0-2.1 1.9-4.2 4.2zm319.4 52.5c-1.3 1.6-1.2 1.7 0.4 0.4 0.9-0.7 1.7-1.5 1.7-1.7 0-0.8-0.8-0.3-2.1 1.3zm-49.5 13.5l-1.9 2.3 2.3-1.9c2.1-1.8 2.7-2.6 1.9-2.6-0.2 0-1.2 1-2.3 2.2zm26 10l-2.9 3.3 3.3-2.9c1.7-1.7 3.2-3.1 3.2-3.3 0-0.8-0.8-0.1-3.6 2.9zm-14 14l-1.9 2.3 2.3-1.9c2.1-1.8 2.7-2.6 1.9-2.6-0.2 0-1.2 1-2.3 2.2zm-376.9 5.8c-3.8 3.8-6.7 7.1-6.4 7.2 0.2 0.2 3.5-2.9 7.3-6.9 3.8-4 6.7-7.3 6.5-7.3-0.2 0-3.6 3.1-7.4 7zm357.4 13.7l-3.4 3.8 3.8-3.4c3.4-3.3 4.2-4.1 3.4-4.1-0.2 0-1.9 1.7-3.8 3.7zm-11 11l-3.4 3.8 3.8-3.4c3.4-3.3 4.2-4.1 3.4-4.1-0.2 0-1.9 1.7-3.8 3.7zm-15.9 16l-5.5 5.8 5.8-5.5c5.3-5 6.2-6 5.4-6-0.1 0-2.7 2.6-5.7 5.7zm-97.2 7c0.7 0.3 1.6 0.2 1.9-0.1 0.4-0.3-0.2-0.6-1.3-0.5-1.1 0-1.4 0.3-0.6 0.6zm5 0c0.7 0.3 1.6 0.2 1.9-0.1 0.4-0.3-0.2-0.6-1.3-0.5-1.1 0-1.4 0.3-0.6 0.6zm82.6 2.5l-1.9 2.3 2.3-1.9c2.1-1.8 2.7-2.6 1.9-2.6-0.2 0-1.2 1-2.3 2.2zm-458.3 2.4c0 1.1 0.3 1.4 0.6 0.6 0.3-0.7 0.2-1.6-0.1-1.9-0.3-0.4-0.6 0.2-0.5 1.3zm447.3 8.6l-2.9 3.3 3.3-2.9c1.7-1.7 3.2-3.1 3.2-3.3 0-0.8-0.8-0.1-3.6 2.9zm-9.4 9.5l-5.5 5.8 5.8-5.5c5.3-5 6.2-6 5.4-6-0.1 0-2.7 2.6-5.7 5.7zm-66.7 4c0.9 0.2 2.3 0.2 3 0 0.6-0.3-0.1-0.5-1.8-0.5-1.6 0-2.2 0.2-1.2 0.5zm-268.9 3.5l-1.9 2.3 2.3-1.9c2.1-1.8 2.7-2.6 1.9-2.6-0.2 0-1.2 1-2.3 2.2zm314.8 38.8c0 1.9 0.2 2.7 0.5 1.7 0.2-0.9 0.2-2.5 0-3.5-0.3-0.9-0.5-0.1-0.5 1.8zm-346.9 1.7c0.9 0.2 2.5 0.2 3.5 0 0.9-0.3 0.1-0.5-1.8-0.5-1.9 0-2.7 0.2-1.7 0.5zm349.6 53c-1.3 1.6-1.2 1.7 0.4 0.4 1.6-1.3 2.1-2.1 1.3-2.1-0.2 0-1 0.8-1.7 1.7zm-116.5 33.5l-1.9 2.3 2.3-1.9c2.1-1.8 2.7-2.6 1.9-2.6-0.2 0-1.2 1-2.3 2.2zm-7.5 7.5l-2.4 2.8 2.8-2.4c2.5-2.3 3.2-3.1 2.4-3.1-0.2 0-1.4 1.2-2.8 2.7zm-24.9 25l-6.5 6.8 6.8-6.5c6.2-6 7.2-7 6.4-7-0.1 0-3.2 3-6.7 6.7zm-18.1 18l-3.4 3.8 3.8-3.4c3.4-3.3 4.2-4.1 3.4-4.1-0.2 0-1.9 1.7-3.8 3.7zm-8 8c-1.3 1.6-1.2 1.7 0.4 0.4 0.9-0.7 1.7-1.5 1.7-1.7 0-0.8-0.8-0.3-2.1 1.3z" fill="rgb(212, 212, 212)"/><path d="m341 3.6c-25.5 5.8-47.3 27.7-53.1 53.2-3.3 14.8 0.7 38.3 8.4 49.6l2 2.8-93.1 93.1-93.1 93.1-8.8-4.2c-41.1-19.3-87.6 2-99.8 45.8-2.8 9.7-2.5 26.2 0.4 36 6.2 20.3 20.7 37.4 39.3 46.4 29.9 14.3 66.8 5 87.1-22.1 5.6-7.4 10.8-18.4 12.7-26.7 3.6-16.2 0.5-36.7-7.5-50l-3.6-6 36-36c19.7-19.9 61.5-61.9 92.7-93.3l56.9-57.3 8 3.9c25.3 12.4 51.5 10.6 72.1-5 11.9-8.9 19.2-18.8 24.7-33.1 3-7.9 3.1-9 3.1-22.3 0-12.7-0.2-14.7-2.7-21.9-7.3-20.7-24.6-37.6-45.2-44.2-10.2-3.2-26.7-4.1-36.5-1.8zm31.4 26.6c12.7 5.4 21.8 15.3 25.6 27.7 7.8 25.1-9 51.8-34.6 55-14.8 1.8-27.3-1.9-37.3-11.3-8.8-8.4-13.1-18.6-13.1-31.5 0-19.6 12.9-36.3 32-41.8 7.2-2 20.4-1.1 27.4 1.9zm-286.2 282.8c12.4 3.8 24 15 28.9 27.9 1.7 4.7 2 7.2 1.7 15.6-0.3 8.9-0.7 10.7-3.7 16.8-11.4 22.9-38.2 32.2-60.5 20.8-7.4-3.7-17.2-14-20.7-21.6-12.2-26.9 4.4-57.4 33.6-61.9 5.1-0.7 13.7 0.2 20.7 2.4zm451.8-67.9c-1.9 1.2-30.7 29.3-63.9 62.4l-60.4 60.3-7.1-3.8c-9.1-4.9-15.3-6.8-24.6-7.7-35.3-3.6-65.7 16.4-76.8 50.5-2 6.3-2.5 9.9-2.6 19.2-0.1 13.6 1.5 20.6 7.6 32.8 2.2 4.5 3.9 8.4 3.7 8.7-0.2 0.2-27.2 27.3-60 60.2-51.9 52-59.7 60.3-60.3 63.4-0.8 4.5 0.3 7.6 4.2 11.2 3.7 3.5 9.6 4.6 13.8 2.4 1.6-0.8 29.6-28.2 62.1-60.7l59.1-59.2 9.3 4.5c13.3 6.4 21.3 8.1 35.2 7.5 8.5-0.4 13.1-1.2 19.2-3.2 24.6-8.4 43.5-29.5 47.6-53.4 1.5-8.3 0.7-25.1-1.5-32.5-1.6-5.1-5-12.1-9.6-19.4-1.4-2.2 0.8-4.5 60.8-64.5 34.3-34.3 62.7-63 63.2-63.8 1.7-2.7 1.1-8.6-1.2-11.5-4.3-5.5-11.9-6.9-17.8-3.4zm-158 137.9c24 3.8 41.5 26.6 38.2 49.8-1.3 9.6-5.8 18.5-12.7 25.6-8.9 9-18.2 12.7-31.5 12.7-10.6-0.1-17.1-2-25.2-7.4-28.4-19.1-26.1-59.6 4.3-76.2 4.3-2.3 14.4-5.2 18.9-5.4 0.8-0.1 4.4 0.4 8 0.9z" fill="rgb(255, 255, 255)"/><path d="m306.9 21.7c-1.3 1.6-1.2 1.7 0.4 0.4 1.6-1.3 2.1-2.1 1.3-2.1-0.2 0-1 0.8-1.7 1.7zm119.3 46.3c0 1.4 0.2 1.9 0.5 1.2 0.2-0.6 0.2-1.8 0-2.5-0.3-0.6-0.5-0.1-0.5 1.3zm-110.3 61.7c-1.3 1.6-1.2 1.7 0.4 0.4 0.9-0.7 1.7-1.5 1.7-1.7 0-0.8-0.8-0.3-2.1 1.3zm-40 40c-1.3 1.6-1.2 1.7 0.4 0.4 1.6-1.3 2.1-2.1 1.3-2.1-0.2 0-1 0.8-1.7 1.7zm-43.5 4.5l-2.9 3.3 3.3-2.9c1.7-1.7 3.2-3.1 3.2-3.3 0-0.8-0.8-0.1-3.6 2.9zm34.1 5l-4 4.3 4.3-4c3.9-3.6 4.7-4.5 3.9-4.5-0.2 0-2.1 1.9-4.2 4.2zm-50 11l-7 7.3 7.3-7c3.9-3.8 7.2-7.1 7.2-7.2 0-0.8-1.1 0.2-7.5 6.9zm41.4-2.5c-1.3 1.6-1.2 1.7 0.4 0.4 1.6-1.3 2.1-2.1 1.3-2.1-0.2 0-1 0.8-1.7 1.7zm-8 8l-3.4 3.8 3.8-3.4c3.4-3.3 4.2-4.1 3.4-4.1-0.2 0-1.9 1.7-3.8 3.7zm308.3 59.3c0 1.4 0.2 1.9 0.5 1.2 0.2-0.6 0.2-1.8 0-2.5-0.3-0.6-0.5-0.1-0.5 1.3zm-16.7 21.2l-4 4.3 4.3-4c3.9-3.6 4.7-4.5 3.9-4.5-0.2 0-2.1 1.9-4.2 4.2zm-7.1 7l-1.9 2.3 2.3-1.9c2.1-1.8 2.7-2.6 1.9-2.6-0.2 0-1.2 1-2.3 2.2zm-378.9 8l-6 6.3 6.3-6c5.8-5.5 6.7-6.5 5.9-6.5-0.1 0-2.9 2.8-6.2 6.2zm356.4 14.5c-1.3 1.6-1.2 1.7 0.4 0.4 1.6-1.3 2.1-2.1 1.3-2.1-0.2 0-1 0.8-1.7 1.7zm-441.1 5c0.6 0.2 1.8 0.2 2.5 0 0.6-0.3 0.1-0.5-1.3-0.5-1.4 0-1.9 0.2-1.2 0.5zm433.1 3c-1.3 1.6-1.2 1.7 0.4 0.4 0.9-0.7 1.7-1.5 1.7-1.7 0-0.8-0.8-0.3-2.1 1.3zm-135.1 42c0.7 0.3 1.6 0.2 1.9-0.1 0.4-0.3-0.2-0.6-1.3-0.5-1.1 0-1.4 0.3-0.6 0.6zm85.6 7.5l-2.9 3.3 3.3-2.9c1.7-1.7 3.2-3.1 3.2-3.3 0-0.8-0.8-0.1-3.6 2.9zm-9.3 61.4c0 1.1 0.3 1.4 0.6 0.6 0.3-0.7 0.2-1.6-0.1-1.9-0.3-0.4-0.6 0.2-0.5 1.3zm0.1 4.4c0 1.4 0.2 1.9 0.5 1.2 0.2-0.6 0.2-1.8 0-2.5-0.3-0.6-0.5-0.1-0.5 1.3zm-130.3 73.7l-2.4 2.8 2.8-2.4c2.5-2.3 3.2-3.1 2.4-3.1-0.2 0-1.4 1.2-2.8 2.7zm-35 35c-1.3 1.6-1.2 1.7 0.4 0.4 0.9-0.7 1.7-1.5 1.7-1.7 0-0.8-0.8-0.3-2.1 1.3zm-16 16c-1.3 1.6-1.2 1.7 0.4 0.4 1.6-1.3 2.1-2.1 1.3-2.1-0.2 0-1 0.8-1.7 1.7zm-4.5 4.5l-1.9 2.3 2.3-1.9c2.1-1.8 2.7-2.6 1.9-2.6-0.2 0-1.2 1-2.3 2.2zm-32.9 33l-5 5.3 5.3-5c2.8-2.7 5.2-5.1 5.2-5.2 0-0.8-0.9 0.1-5.5 4.9z" fill="rgb(170, 170, 170)"/><path d="m239.9 166.7c-1.3 1.6-1.2 1.7 0.4 0.4 0.9-0.7 1.7-1.5 1.7-1.7 0-0.8-0.8-0.3-2.1 1.3z" fill="rgb(85, 128, 128)"/></svg>