<svg xmlns="http://www.w3.org/2000/svg" viewBox="0 0 2816 2816"><path fill="#555" d="M1498.8 1123.7c.7.3 1.6.2 1.9-.1.4-.3-.2-.6-1.3-.5-1.1 0-1.4.3-.6.6m-70.4 96.5-1.9 2.3 2.3-1.9c2.1-1.8 2.7-2.6 1.9-2.6-.2 0-1.2 1-2.3 2.2m-9 9-2.9 3.3 3.3-2.9c1.7-1.7 3.2-3.1 3.2-3.3 0-.8-.8-.1-3.6 2.9m37.5 1.5-2.4 2.8 2.8-2.4c2.5-2.3 3.2-3.1 2.4-3.1-.2 0-1.4 1.2-2.8 2.7m-46.9 7.8c-2.4 2.5-4.2 4.5-3.9 4.5s2.5-2 4.9-4.5 4.2-4.5 3.9-4.5-2.5 2-4.9 4.5m89.5-1.5c-.8 1.3.5 1.3 2.5 0 1.3-.8 1.3-1-.2-1-.9 0-2 .4-2.3 1m-54.1 5.2-1.9 2.3 2.3-1.9c2.1-1.8 2.7-2.6 1.9-2.6-.2 0-1.2 1-2.3 2.2m-45 6-1.9 2.3 2.3-1.9c1.2-1.1 2.2-2.1 2.2-2.3 0-.8-.8-.2-2.6 1.9m-61.9 62-5 5.3 5.3-5c4.8-4.6 5.7-5.5 4.9-5.5-.1 0-2.5 2.4-5.2 5.2m40.4.5c-1.3 1.6-1.2 1.7.4.4.9-.7 1.7-1.5 1.7-1.7 0-.8-.8-.3-2.1 1.3m-55 14-2.4 2.8 2.8-2.4c2.5-2.3 3.2-3.1 2.4-3.1-.2 0-1.4 1.2-2.8 2.7m-7 7-2.4 2.8 2.8-2.4c1.5-1.4 2.7-2.6 2.7-2.8 0-.8-.8-.1-3.1 2.4m372.9 6.5c.5.5 1.6.8 2.3.6.8-.3.3-.7-1-1.1-1.7-.4-2.1-.3-1.3.5m-380.9 1.5c-1.3 1.6-1.2 1.7.4.4s2.1-2.1 1.3-2.1c-.2 0-1 .8-1.7 1.7m34.5 5.5-1.9 2.3 2.3-1.9c2.1-1.8 2.7-2.6 1.9-2.6-.2 0-1.2 1-2.3 2.2m-42.5 2.5c-1.3 1.6-1.2 1.7.4.4s2.1-2.1 1.3-2.1c-.2 0-1 .8-1.7 1.7m32.5 7.5-2.9 3.3 3.3-2.9c1.7-1.7 3.2-3.1 3.2-3.3 0-.8-.8-.1-3.6 2.9m315.5 17.5c-1.3 1.6-1.2 1.7.4.4.9-.7 1.7-1.5 1.7-1.7 0-.8-.8-.3-2.1 1.3m35.5 4.5-1.9 2.3 2.3-1.9c2.1-1.8 2.7-2.6 1.9-2.6-.2 0-1.2 1-2.3 2.2m-471.6 2.5c.6.2 1.8.2 2.5 0 .6-.3.1-.5-1.3-.5s-1.9.2-1.2.5m8 0c.6.2 1.8.2 2.5 0 .6-.3.1-.5-1.3-.5s-1.9.2-1.2.5m46.1 2-2.4 2.8 2.8-2.4c1.5-1.4 2.7-2.6 2.7-2.8 0-.8-.8-.1-3.1 2.4m406 7c-1.3 1.6-1.2 1.7.4.4.9-.7 1.7-1.5 1.7-1.7 0-.8-.8-.3-2.1 1.3m-383.5 12.5-2.9 3.3 3.3-2.9c3-2.8 3.7-3.6 2.9-3.6-.2 0-1.6 1.5-3.3 3.2m-41.4 17.2c0 .2.8 1 1.8 1.7 1.5 1.3 1.6 1.2.3-.4s-2.1-2.1-2.1-1.3m352.9 3.3c-1.3 1.6-1.2 1.7.4.4.9-.7 1.7-1.5 1.7-1.7 0-.8-.8-.3-2.1 1.3m38 1c-1.3 1.6-1.2 1.7.4.4.9-.7 1.7-1.5 1.7-1.7 0-.8-.8-.3-2.1 1.3m-8.5 8.5-1.9 2.3 2.3-1.9c2.1-1.8 2.7-2.6 1.9-2.6-.2 0-1.2 1-2.3 2.2m-15 15-1.9 2.3 2.3-1.9c1.2-1.1 2.2-2.1 2.2-2.3 0-.8-.8-.2-2.6 1.9m-8.5 8.5c-1.3 1.6-1.2 1.7.4.4.9-.7 1.7-1.5 1.7-1.7 0-.8-.8-.3-2.1 1.3m-10 10-2.4 2.8 2.8-2.4c1.5-1.4 2.7-2.6 2.7-2.8 0-.8-.8-.1-3.1 2.4m-149 110c-1.3 1.6-1.2 1.7.4.4.9-.7 1.7-1.5 1.7-1.7 0-.8-.8-.3-2.1 1.3m-11.4 11.5-5 5.3 5.3-5c2.8-2.7 5.2-5.1 5.2-5.2 0-.8-.9.1-5.5 4.9m-20.1 20-1.9 2.3 2.3-1.9c2.1-1.8 2.7-2.6 1.9-2.6-.2 0-1.2 1-2.3 2.2m-6.5 6.5-2.4 2.8 2.8-2.4c1.5-1.4 2.7-2.6 2.7-2.8 0-.8-.8-.1-3.1 2.4m34.5 4.5-1.9 2.3 2.3-1.9c2.1-1.8 2.7-2.6 1.9-2.6-.2 0-1.2 1-2.3 2.2m-43 4-1.9 2.3 2.3-1.9c2.1-1.8 2.7-2.6 1.9-2.6-.2 0-1.2 1-2.3 2.2m34.1 5-5 5.3 5.3-5c4.8-4.6 5.7-5.5 4.9-5.5-.1 0-2.5 2.4-5.2 5.2m-9.1 9-2.9 3.3 3.3-2.9c1.7-1.7 3.2-3.1 3.2-3.3 0-.8-.8-.1-3.6 2.9m-6.5 6.5c-1.3 1.6-1.2 1.7.4.4.9-.7 1.7-1.5 1.7-1.7 0-.8-.8-.3-2.1 1.3m-42.5 3.5-1.9 2.3 2.3-1.9c2.1-1.8 2.7-2.6 1.9-2.6-.2 0-1.2 1-2.3 2.2m-6.5 6.5c-1.3 1.6-1.2 1.7.4.4.9-.7 1.7-1.5 1.7-1.7 0-.8-.8-.3-2.1 1.3m-6 6c-1.3 1.6-1.2 1.7.4.4.9-.7 1.7-1.5 1.7-1.7 0-.8-.8-.3-2.1 1.3m38.5.5-1.9 2.3 2.3-1.9c1.2-1.1 2.2-2.1 2.2-2.3 0-.8-.8-.2-2.6 1.9m-54 15-1.9 2.3 2.3-1.9c2.1-1.8 2.7-2.6 1.9-2.6-.2 0-1.2 1-2.3 2.2m38 1-1.9 2.3 2.3-1.9c2.1-1.8 2.7-2.6 1.9-2.6-.2 0-1.2 1-2.3 2.2"/><g stroke-width="0"><path d="M1494.5 1097c-35.3 3.7-63.5 35-63.5 70.5 0 9.1 4 25 8.1 32.4l3.1 5.4-92 92-92.1 92.1-6.8-3.1c-7.6-3.5-14.2-5.7-14.9-5.1-.2.3 2.2 1.2 5.4 2.2 3.1 1 8 3.1 10.9 4.7l5.2 3 92.5-92.8c51-51 92.6-92.9 92.6-93.1 0-.3-1.3-2.8-2.9-5.6-4-7-7.1-18.4-7.8-28.6-1.5-21.3 8.7-44.4 25.5-57.5 19.8-15.6 43.8-19.7 68.9-11.9 1.5.5 1.5.4.3-.4-4.8-3.2-21.4-5.3-32.5-4.2m39 7.8c8.3 4.6 13.7 8.7 19.6 14.8 12.2 12.9 18.2 26.4 19.9 44.9.7 7.9.7 7.9.8 2 .2-7.1-2.8-20.4-6.1-27.2-3.9-8.2-9.8-16.3-16.3-22.6-6.9-6.6-9.7-8.6-16.6-12.3-6.5-3.3-7.5-3-1.3.4"/><path d="M1504 1124c0 .4 2.3 1 5.1 1.3 16.2 1.9 30.4 15.2 34.4 32.3 1.6 6.8 1.7 8.7.6 14.9-2.2 12.7-9.1 23.5-18.7 29.1-2.5 1.5-4.3 2.8-4 3.1.9.9 8.2-4.5 12.9-9.6 8.8-9.4 13.1-23.4 10.9-35.2-2.6-13.9-11.8-26.1-24.1-31.8-6.7-3.1-17.1-5.6-17.1-4.1m-14.5 1.4c-15.3 4.8-26.8 17.9-29.8 33.7-2.2 12.3 3.3 30 12 38 4.7 4.3 17.4 10.9 20.8 10.8 1.1 0 .2-.6-2-1.3-16.6-5.3-26.5-16.5-29.6-33.7-3.8-21.3 10.8-42.7 32.3-47.4 3.7-.8 5.1-1.3 3.3-1.4-1.6 0-4.8.6-7 1.3m82.2 52.4c-3.1 26.2-26.8 51.9-52.7 57.1-9.2 1.8-9.7 2.1-3.7 1.6 11.4-1 26.9-8.9 37.1-19.1 10.2-10.1 18.8-26.7 20.2-38.9.4-3 .5-5.5.2-5.5s-.8 2.2-1.1 4.8m-55.7 28.4c-1.4.5-6.8 1.4-12 1.8l-9.5.9 9.5-.3c5.8-.2 10.9-.9 13-1.9 3.9-1.7 3-2.2-1-.5m-110.1 76.6c-32.1 32.3-73.9 74.3-92.8 93.3l-34.3 34.7 3.5 6.3c6.2 11.2 8.2 19.5 8.2 34.4 0 10.9-.4 14.1-2.3 19.9-6.6 19.5-19.4 34.7-36.9 43.4-9.2 4.7-17 6.8-29.3 8.2l-8.5.9 9.6-.5c11.3-.5 17.5-2.2 28.4-7.6 10.6-5.4 17.4-10.8 24.2-19.3 11.8-14.8 16.9-30.1 16-49-.6-12.2-2.6-19.7-8.3-30.5l-3.4-6.4 38.3-38.6c21.1-21.2 62.4-62.7 91.8-92.4l53.5-53.9 8.4 4.1c9.6 4.6 18.9 7.3 24.6 7.1 3.3-.2 3.4-.3.9-.6-10.6-1.3-24.4-6-30.4-10.2l-2.8-2zm96.9-45.1c1.2.2 3.2.2 4.5 0 1.2-.2.2-.4-2.3-.4s-3.5.2-2.2.4m185.2 100.2c-1.4.4-3.9 1.5-5.5 2.4-1.7.9-29.9 28.6-62.8 61.6l-59.9 59.9-9.1-4.3c-5.1-2.4-11-4.6-13.2-4.9-3.6-.5-3.6-.4 1 .9 2.7.8 8.8 3.3 13.4 5.6l8.3 4.1 60.7-60.7c33.5-33.4 61.4-61.1 62.2-61.6s3.1-1.4 5.2-1.9c7-2 15.9 4 17 11.5l.4 3 .2-3.1c.3-7.2-10.5-14.8-17.9-12.5"/><path d="M1703.6 1355.7c-.3 1-28.7 29.9-63 64.2l-62.4 62.4 3.3 5.1c8.3 13.1 11.7 29 9.7 44.6-.7 5-2.1 11.4-3.2 14.2-1.1 2.9-1.8 5.4-1.6 5.6.9.8 4.7-11.3 5.7-18.1 2.3-14.8-.7-30.9-8.2-44.1-3.3-5.7-3.7-7.1-2.7-8.5.7-.8 28.9-29.2 62.6-63.1 33.6-33.8 61.2-62 61.2-62.7 0-1.9-.8-1.6-1.4.4m-486.3 23c.9.2 2.3.2 3 0 .6-.3-.1-.5-1.8-.5-1.6 0-2.2.2-1.2.5m-10 1c.9.2 2.5.2 3.5 0 .9-.3.1-.5-1.8-.5s-2.7.2-1.7.5m20.2.4c5.1 1 9.2 1 5-.1-1.6-.4-4.3-.8-6-.8-2.5 0-2.4.2 1 .9m-31.5 1.8c-16.2 5.2-31.4 17.5-40.6 32.8-1.9 3.1-3.4 6.2-3.4 6.7 0 .6 2.1-2.4 4.6-6.6 8.8-14.8 25.1-27.7 41.4-32.5 4.1-1.2 6.6-2.2 5.5-2.2s-4.5.8-7.5 1.8m19.5 25.8c15 .9 25.2 5.1 33.9 13.7 23.4 23.5 12.3 61.7-20.7 71.1-4.4 1.3-4.6 1.5-1.3 1.1 5.9-.8 16-6 21.6-11.2 14-13.1 17.8-32.7 9.7-49.6-7.8-16.1-24.1-26.1-41.7-25.6-5.7.1-5.9.2-1.5.5m-13 1.6c-17 6.7-28.4 23.3-28.5 41.3 0 12.8 8.8 29.2 19.3 35.9 1.5 1-.3-1.3-4.1-5.1-7.6-7.6-10.3-12-12.6-21.1-2-7.5-2-12.6-.2-19.5 2.1-7.9 4.1-12 8.6-17.6 5-6.4 10.2-9.9 18.9-12.9 3.6-1.2 5.5-2.2 4.1-2.2s-3.8.6-5.5 1.2"/><path d="M1148.9 1429.7c-3 9.3-3.7 26.3-1.5 35.6 3.6 15.2 13.2 30.9 25.3 41.1 10.6 9 28.5 16.8 37.8 16.5 1.6 0-.1-.7-4-1.4-18.2-3.3-34.5-14-46-30-6.3-8.8-10.9-19.5-12.6-28.9-1.5-9.1-.6-24.3 2-32.6 1.1-3.5 1.8-6.6 1.6-6.8s-1.3 2.7-2.6 6.5m365.4 21c2 .2 5.4.2 7.5 0 2-.2.3-.4-3.8-.4s-5.8.2-3.7.4m-17.8 3.1c-6.9 2.4-19.5 9.3-19.5 10.6 0 .3 2.9-1.3 6.4-3.4 6.5-3.9 15.6-7.5 23.1-9 3.5-.7 3.6-.8 1-.8-1.6-.1-6.6 1.1-11 2.6m32.8-2.1c.9.2 2.3.2 3 0 .6-.3-.1-.5-1.8-.5-1.6 0-2.2.2-1.2.5m-58 16.8c-9 7.6-18.6 23.4-22.3 36.7-2 7.4-2.6 23.6-1.1 30.3.4 1.6.5-2.2.3-8.6-.9-22.5 5.2-38 21.7-55.2 3.5-3.7 6.2-6.7 6-6.7s-2.3 1.6-4.6 3.5m37 12c-7.7 2.1-13 5.1-19 10.8-22.4 21.2-17.2 57.1 10.2 70.7 3.3 1.6 7.6 3.2 9.5 3.5 2.5.4 1.8 0-2-1.3-7.9-2.6-14.1-6.5-19.3-12.1-17.3-18.5-14.9-47.1 5.4-63.1 6.5-5.1 14.5-8 24.9-9 8.5-.7 8.5-.7 2-.8-3.6 0-8.9.6-11.7 1.3m23.9 1.3c18.9 6.4 30.8 22.4 30.8 41.8 0 18.2-11.4 33.9-29.5 40.4-4.1 1.4-4.9 1.9-2.5 1.5 11-1.7 23.6-12.2 29.4-24.5 2.9-6 3.1-7.3 3.1-17.5 0-10.3-.2-11.4-3.2-17.8-5.9-12.3-19.3-23.5-30.3-25.2-2.4-.4-1.6.1 2.2 1.3m-335.2 6.7c0 .2 2 1.3 4.5 2.4 4.8 2.1 14.8 4.3 14 3.1-.2-.4-2.5-1-5-1.3-2.5-.4-6.3-1.6-8.5-2.7-4-2-5-2.4-5-1.5m21.8 6.2c.6.2 1.8.2 2.5 0 .6-.3.1-.5-1.3-.5s-1.9.2-1.2.5m230.3 45.9c0 1.1.3 1.4.6.6.3-.7.2-1.6-.1-1.9-.3-.4-.6.2-.5 1.3m.9 3.4c0 .9 1.9 5.5 4.3 10.2l4.4 8.6-58.9 58.9c-32.4 32.3-59.6 60-60.4 61.5s-1.4 4.4-1.4 6.5c0 10.6 11.7 16.9 21.5 11.5 1.1-.6 28.5-27.6 60.9-60l58.9-59 3.6 2.2c4.1 2.6 16.3 7.6 18.3 7.5.7 0-1.4-1-4.8-2.3-3.4-1.2-8.6-3.6-11.6-5.3l-5.5-3.1-58.9 58.9c-32.4 32.5-60.1 59.7-61.6 60.5s-4.8 1.4-7.4 1.4c-4.1 0-5.1-.5-8.5-3.9-4.2-4.1-5-8.1-2.9-13.6.5-1.4 27.8-29.4 60.5-62.2l59.5-59.7-2.7-4.4c-1.4-2.5-3.6-7-4.9-10.1s-2.3-4.9-2.4-4.1m131.2 16.1c-9.5 15.2-25.4 26.8-43.3 31.4-6.8 1.8-21.3 2.4-29.9 1.3-4.5-.6-5-.5-2.5.4 1.7.6 8.2 1.1 14.5 1.1 9 .1 13.2-.4 19.5-2.2 18.4-5.1 34-17.2 44.4-34.4 1.3-2.1 2.2-4 1.9-4.2-.2-.2-2.3 2.8-4.6 6.6m-65.5 6.6c1.8.2 5 .2 7 0 2.1-.2.7-.4-3.2-.4-3.8 0-5.5.2-3.8.4"/></g><path fill="gray" d="m1450.9 1236.7-2.4 2.8 2.8-2.4c1.5-1.4 2.7-2.6 2.7-2.8 0-.8-.8-.1-3.1 2.4m54.9 0c.7.3 1.6.2 1.9-.1.4-.3-.2-.6-1.3-.5-1.1 0-1.4.3-.6.6m-101.9 8c-1.3 1.6-1.2 1.7.4.4s2.1-2.1 1.3-2.1c-.2 0-1 .8-1.7 1.7m-7.5 7.5-1.9 2.3 2.3-1.9c2.1-1.8 2.7-2.6 1.9-2.6-.2 0-1.2 1-2.3 2.2m-13.5 13.5c-1.3 1.6-1.2 1.7.4.4s2.1-2.1 1.3-2.1c-.2 0-1 .8-1.7 1.7m-12 12c-1.3 1.6-1.2 1.7.4.4.9-.7 1.7-1.5 1.7-1.7 0-.8-.8-.3-2.1 1.3m36 3c-1.3 1.6-1.2 1.7.4.4.9-.7 1.7-1.5 1.7-1.7 0-.8-.8-.3-2.1 1.3m-6 6c-1.3 1.6-1.2 1.7.4.4.9-.7 1.7-1.5 1.7-1.7 0-.8-.8-.3-2.1 1.3m-49 10-3.4 3.8 3.8-3.4c3.4-3.3 4.2-4.1 3.4-4.1-.2 0-1.9 1.7-3.8 3.7m-7 7c-1.3 1.6-1.2 1.7.4.4.9-.7 1.7-1.5 1.7-1.7 0-.8-.8-.3-2.1 1.3m-14 14-2.4 2.8 2.8-2.4c2.5-2.3 3.2-3.1 2.4-3.1-.2 0-1.4 1.2-2.8 2.7m369.1 24.7c0 .2.8 1 1.8 1.7 1.5 1.3 1.6 1.2.3-.4s-2.1-2.1-2.1-1.3m-361.1 7.3-2.4 2.8 2.8-2.4c2.5-2.3 3.2-3.1 2.4-3.1-.2 0-1.4 1.2-2.8 2.7m-15 15c-1.3 1.6-1.2 1.7.4.4s2.1-2.1 1.3-2.1c-.2 0-1 .8-1.7 1.7m-10.9 11-5.5 5.8 5.8-5.5c5.3-5 6.2-6 5.4-6-.1 0-2.7 2.6-5.7 5.7m-28.1 30c-1.3 1.6-1.2 1.7.4.4s2.1-2.1 1.3-2.1c-.2 0-1 .8-1.7 1.7m226.9 46c.7.3 1.6.2 1.9-.1.4-.3-.2-.6-1.3-.5-1.1 0-1.4.3-.6.6m37.2 38.8c1.3 1.4 2.6 2.5 2.8 2.5.3 0-.5-1.1-1.8-2.5s-2.6-2.5-2.8-2.5c-.3 0 .5 1.1 1.8 2.5m-97.1 80.2-2.4 2.8 2.8-2.4c1.5-1.4 2.7-2.6 2.7-2.8 0-.8-.8-.1-3.1 2.4m-8 8-2.4 2.8 2.8-2.4c1.5-1.4 2.7-2.6 2.7-2.8 0-.8-.8-.1-3.1 2.4m26 11-2.4 2.8 2.8-2.4c2.5-2.3 3.2-3.1 2.4-3.1-.2 0-1.4 1.2-2.8 2.7m-44.4 7.5-4 4.3 4.3-4c3.9-3.6 4.7-4.5 3.9-4.5-.2 0-2.1 1.9-4.2 4.2m39.4-2.5c-1.3 1.6-1.2 1.7.4.4.9-.7 1.7-1.5 1.7-1.7 0-.8-.8-.3-2.1 1.3m-104.5 67.5-2.9 3.3 3.3-2.9c1.7-1.7 3.2-3.1 3.2-3.3 0-.8-.8-.1-3.6 2.9"/><path fill="#d4d4d4" d="M1547 1114.4c0 .2.8 1 1.8 1.7 1.5 1.3 1.6 1.2.3-.4s-2.1-2.1-2.1-1.3m-114.9 50.2c0 1.1.3 1.4.6.6.3-.7.2-1.6-.1-1.9-.3-.4-.6.2-.5 1.3m.1 5.9c0 1.6.2 2.2.5 1.2.2-.9.2-2.3 0-3-.3-.6-.5.1-.5 1.8m120.2 44.7-1.9 2.3 2.3-1.9c2.1-1.8 2.7-2.6 1.9-2.6-.2 0-1.2 1-2.3 2.2m-164.5 84.5-3.4 3.8 3.8-3.4c3.4-3.3 4.2-4.1 3.4-4.1-.2 0-1.9 1.7-3.8 3.7m-8.4 8.5-4 4.3 4.3-4c3.9-3.6 4.7-4.5 3.9-4.5-.2 0-2.1 1.9-4.2 4.2m319.4 52.5c-1.3 1.6-1.2 1.7.4.4.9-.7 1.7-1.5 1.7-1.7 0-.8-.8-.3-2.1 1.3m-49.5 13.5-1.9 2.3 2.3-1.9c2.1-1.8 2.7-2.6 1.9-2.6-.2 0-1.2 1-2.3 2.2m26 10-2.9 3.3 3.3-2.9c1.7-1.7 3.2-3.1 3.2-3.3 0-.8-.8-.1-3.6 2.9m-14 14-1.9 2.3 2.3-1.9c2.1-1.8 2.7-2.6 1.9-2.6-.2 0-1.2 1-2.3 2.2m-376.9 5.8c-3.8 3.8-6.7 7.1-6.4 7.2.2.2 3.5-2.9 7.3-6.9s6.7-7.3 6.5-7.3-3.6 3.1-7.4 7m357.4 13.7-3.4 3.8 3.8-3.4c3.4-3.3 4.2-4.1 3.4-4.1-.2 0-1.9 1.7-3.8 3.7m-11 11-3.4 3.8 3.8-3.4c3.4-3.3 4.2-4.1 3.4-4.1-.2 0-1.9 1.7-3.8 3.7m-15.9 16-5.5 5.8 5.8-5.5c5.3-5 6.2-6 5.4-6-.1 0-2.7 2.6-5.7 5.7m-97.2 7c.7.3 1.6.2 1.9-.1.4-.3-.2-.6-1.3-.5-1.1 0-1.4.3-.6.6m5 0c.7.3 1.6.2 1.9-.1.4-.3-.2-.6-1.3-.5-1.1 0-1.4.3-.6.6m82.6 2.5-1.9 2.3 2.3-1.9c2.1-1.8 2.7-2.6 1.9-2.6-.2 0-1.2 1-2.3 2.2m-458.3 2.4c0 1.1.3 1.4.6.6.3-.7.2-1.6-.1-1.9-.3-.4-.6.2-.5 1.3m447.3 8.6-2.9 3.3 3.3-2.9c1.7-1.7 3.2-3.1 3.2-3.3 0-.8-.8-.1-3.6 2.9m-9.4 9.5-5.5 5.8 5.8-5.5c5.3-5 6.2-6 5.4-6-.1 0-2.7 2.6-5.7 5.7m-66.7 4c.9.2 2.3.2 3 0 .6-.3-.1-.5-1.8-.5-1.6 0-2.2.2-1.2.5m-268.9 3.5-1.9 2.3 2.3-1.9c2.1-1.8 2.7-2.6 1.9-2.6-.2 0-1.2 1-2.3 2.2m314.8 38.8c0 1.9.2 2.7.5 1.7.2-.9.2-2.5 0-3.5-.3-.9-.5-.1-.5 1.8m-346.9 1.7c.9.2 2.5.2 3.5 0 .9-.3.1-.5-1.8-.5s-2.7.2-1.7.5m349.6 53c-1.3 1.6-1.2 1.7.4.4s2.1-2.1 1.3-2.1c-.2 0-1 .8-1.7 1.7m-116.5 33.5-1.9 2.3 2.3-1.9c2.1-1.8 2.7-2.6 1.9-2.6-.2 0-1.2 1-2.3 2.2m-7.5 7.5-2.4 2.8 2.8-2.4c2.5-2.3 3.2-3.1 2.4-3.1-.2 0-1.4 1.2-2.8 2.7m-24.9 25-6.5 6.8 6.8-6.5c6.2-6 7.2-7 6.4-7-.1 0-3.2 3-6.7 6.7m-18.1 18-3.4 3.8 3.8-3.4c3.4-3.3 4.2-4.1 3.4-4.1-.2 0-1.9 1.7-3.8 3.7m-8 8c-1.3 1.6-1.2 1.7.4.4.9-.7 1.7-1.5 1.7-1.7 0-.8-.8-.3-2.1 1.3"/><path fill="#fff" d="M1487 1099.6c-25.5 5.8-47.3 27.7-53.1 53.2-3.3 14.8.7 38.3 8.4 49.6l2 2.8-93.1 93.1-93.1 93.1-8.8-4.2c-41.1-19.3-87.6 2-99.8 45.8-2.8 9.7-2.5 26.2.4 36 6.2 20.3 20.7 37.4 39.3 46.4 29.9 14.3 66.8 5 87.1-22.1 5.6-7.4 10.8-18.4 12.7-26.7 3.6-16.2.5-36.7-7.5-50l-3.6-6 36-36c19.7-19.9 61.5-61.9 92.7-93.3l56.9-57.3 8 3.9c25.3 12.4 51.5 10.6 72.1-5 11.9-8.9 19.2-18.8 24.7-33.1 3-7.9 3.1-9 3.1-22.3 0-12.7-.2-14.7-2.7-21.9-7.3-20.7-24.6-37.6-45.2-44.2-10.2-3.2-26.7-4.1-36.5-1.8m31.4 26.6c12.7 5.4 21.8 15.3 25.6 27.7 7.8 25.1-9 51.8-34.6 55-14.8 1.8-27.3-1.9-37.3-11.3-8.8-8.4-13.1-18.6-13.1-31.5 0-19.6 12.9-36.3 32-41.8 7.2-2 20.4-1.1 27.4 1.9M1232.2 1409c12.4 3.8 24 15 28.9 27.9 1.7 4.7 2 7.2 1.7 15.6-.3 8.9-.7 10.7-3.7 16.8-11.4 22.9-38.2 32.2-60.5 20.8-7.4-3.7-17.2-14-20.7-21.6-12.2-26.9 4.4-57.4 33.6-61.9 5.1-.7 13.7.2 20.7 2.4m451.8-67.9c-1.9 1.2-30.7 29.3-63.9 62.4l-60.4 60.3-7.1-3.8c-9.1-4.9-15.3-6.8-24.6-7.7-35.3-3.6-65.7 16.4-76.8 50.5-2 6.3-2.5 9.9-2.6 19.2-.1 13.6 1.5 20.6 7.6 32.8 2.2 4.5 3.9 8.4 3.7 8.7-.2.2-27.2 27.3-60 60.2-51.9 52-59.7 60.3-60.3 63.4-.8 4.5.3 7.6 4.2 11.2 3.7 3.5 9.6 4.6 13.8 2.4 1.6-.8 29.6-28.2 62.1-60.7l59.1-59.2 9.3 4.5c13.3 6.4 21.3 8.1 35.2 7.5 8.5-.4 13.1-1.2 19.2-3.2 24.6-8.4 43.5-29.5 47.6-53.4 1.5-8.3.7-25.1-1.5-32.5-1.6-5.1-5-12.1-9.6-19.4-1.4-2.2.8-4.5 60.8-64.5 34.3-34.3 62.7-63 63.2-63.8 1.7-2.7 1.1-8.6-1.2-11.5-4.3-5.5-11.9-6.9-17.8-3.4M1526 1479c24 3.8 41.5 26.6 38.2 49.8-1.3 9.6-5.8 18.5-12.7 25.6-8.9 9-18.2 12.7-31.5 12.7-10.6-.1-17.1-2-25.2-7.4-28.4-19.1-26.1-59.6 4.3-76.2 4.3-2.3 14.4-5.2 18.9-5.4.8-.1 4.4.4 8 .9"/><path fill="#aaa" d="M1452.9 1117.7c-1.3 1.6-1.2 1.7.4.4s2.1-2.1 1.3-2.1c-.2 0-1 .8-1.7 1.7m119.3 46.3c0 1.4.2 1.9.5 1.2.2-.6.2-1.8 0-2.5-.3-.6-.5-.1-.5 1.3m-110.3 61.7c-1.3 1.6-1.2 1.7.4.4.9-.7 1.7-1.5 1.7-1.7 0-.8-.8-.3-2.1 1.3m-40 40c-1.3 1.6-1.2 1.7.4.4s2.1-2.1 1.3-2.1c-.2 0-1 .8-1.7 1.7m-43.5 4.5-2.9 3.3 3.3-2.9c1.7-1.7 3.2-3.1 3.2-3.3 0-.8-.8-.1-3.6 2.9m34.1 5-4 4.3 4.3-4c3.9-3.6 4.7-4.5 3.9-4.5-.2 0-2.1 1.9-4.2 4.2m-50 11-7 7.3 7.3-7c3.9-3.8 7.2-7.1 7.2-7.2 0-.8-1.1.2-7.5 6.9m41.4-2.5c-1.3 1.6-1.2 1.7.4.4s2.1-2.1 1.3-2.1c-.2 0-1 .8-1.7 1.7m-8 8-3.4 3.8 3.8-3.4c3.4-3.3 4.2-4.1 3.4-4.1-.2 0-1.9 1.7-3.8 3.7m308.3 59.3c0 1.4.2 1.9.5 1.2.2-.6.2-1.8 0-2.5-.3-.6-.5-.1-.5 1.3m-16.7 21.2-4 4.3 4.3-4c3.9-3.6 4.7-4.5 3.9-4.5-.2 0-2.1 1.9-4.2 4.2m-7.1 7-1.9 2.3 2.3-1.9c2.1-1.8 2.7-2.6 1.9-2.6-.2 0-1.2 1-2.3 2.2m-378.9 8-6 6.3 6.3-6c5.8-5.5 6.7-6.5 5.9-6.5-.1 0-2.9 2.8-6.2 6.2m356.4 14.5c-1.3 1.6-1.2 1.7.4.4s2.1-2.1 1.3-2.1c-.2 0-1 .8-1.7 1.7m-441.1 5c.6.2 1.8.2 2.5 0 .6-.3.1-.5-1.3-.5s-1.9.2-1.2.5m433.1 3c-1.3 1.6-1.2 1.7.4.4.9-.7 1.7-1.5 1.7-1.7 0-.8-.8-.3-2.1 1.3m-135.1 42c.7.3 1.6.2 1.9-.1.4-.3-.2-.6-1.3-.5-1.1 0-1.4.3-.6.6m85.6 7.5-2.9 3.3 3.3-2.9c1.7-1.7 3.2-3.1 3.2-3.3 0-.8-.8-.1-3.6 2.9m-9.3 61.4c0 1.1.3 1.4.6.6.3-.7.2-1.6-.1-1.9-.3-.4-.6.2-.5 1.3m.1 4.4c0 1.4.2 1.9.5 1.2.2-.6.2-1.8 0-2.5-.3-.6-.5-.1-.5 1.3m-130.3 73.7-2.4 2.8 2.8-2.4c2.5-2.3 3.2-3.1 2.4-3.1-.2 0-1.4 1.2-2.8 2.7m-35 35c-1.3 1.6-1.2 1.7.4.4.9-.7 1.7-1.5 1.7-1.7 0-.8-.8-.3-2.1 1.3m-16 16c-1.3 1.6-1.2 1.7.4.4s2.1-2.1 1.3-2.1c-.2 0-1 .8-1.7 1.7m-4.5 4.5-1.9 2.3 2.3-1.9c2.1-1.8 2.7-2.6 1.9-2.6-.2 0-1.2 1-2.3 2.2m-32.9 33-5 5.3 5.3-5c2.8-2.7 5.2-5.1 5.2-5.2 0-.8-.9.1-5.5 4.9"/><path fill="#558080" d="M1385.9 1262.7c-1.3 1.6-1.2 1.7.4.4.9-.7 1.7-1.5 1.7-1.7 0-.8-.8-.3-2.1 1.3"/></svg>