<svg xmlns="http://www.w3.org/2000/svg" viewBox="0 0 508 515" width="32" height="32"><path d="m280.2 1.9c-9.8 2.5-20.3 7.8-28.6 14.7-3.8 3.1-29.9 28.5-58 56.3-28.1 27.9-64.1 63.5-80.1 79.1-15.9 15.7-47.8 47.4-71 70.5l-42 42 0.3 59 0.2 59 57.7-0.2 57.7-0.2 124.9-124.8c86.3-86.2 126.2-126.8 129.2-131.3 8.4-12.5 11.8-23.6 11.8-38.5 0.1-14.5-3.4-25.3-12.6-39-5.3-7.8-26.5-29.5-34.4-35.1-16.4-11.8-36.6-16-55.1-11.5zm26.5 0.5c16.3 2.9 25 8.2 43.1 26 18.3 17.9 24.4 26.8 29.1 42.1 4.5 14.4 2.2 34-5.6 48.9-4.4 8.3-12.8 16.8-164.8 168.7l-92.9 92.9h-113.6v-117.1l54.3-53.7c29.8-29.5 64.8-64 77.6-76.7 12.9-12.6 42.6-42 66-65.1 52.2-51.6 55.1-54.2 66.6-59.9 14.2-7 25.3-8.7 40.2-6.1z"/><path d="m282.8 29.9c-2.6 1.1-7.1 3.6-9.9 5.7l-5.2 3.8 37.8 37.5 37.8 37.5 2.8-3.4c1.6-1.8 4.1-5.9 5.6-8.9 2.4-4.9 2.8-6.8 2.8-14.6 0-13.8-2.6-18.4-20.9-36.5-15.8-15.6-20.6-19.3-28-21.5-6.8-2-17-1.8-22.8 0.4zm26.4 2.3c4.2 1.9 9.8 6.5 21.3 17.4 13.8 13.2 16 15.7 19.3 22.3 3.4 6.8 3.7 8.2 3.7 15.6-0.1 8.6-2.1 14.7-7.1 21.2-2.4 3.1-2.6 3.2-4.7 1.8-1.2-0.8-17.9-17.2-37-36.3l-34.8-34.7 3.7-3.2c8.6-7.5 24.2-9.3 35.6-4.1zm-143.4 108.4c-45.3 45.1-89 88.6-97.3 96.7l-15 14.7 38 38 38 38 97-97 97-97-37.7-37.7-37.7-37.7zm118.7-43.6c19.8 19.8 36.1 36.4 36.3 36.8 0.1 0.4-42.9 43.8-95.6 96.5l-95.9 95.9-37.1-37.1-37.1-37 62.7-62c34.5-34.1 77.8-77.1 96.2-95.5 18.4-18.5 33.7-33.6 34-33.6 0.3 0 16.7 16.2 36.5 36zm-253.4 177.6c-2 2.6-2.1 3.7-2.1 40v37.4h74.9l2.8-2.5 2.8-2.4-37.5-37.6c-20.6-20.6-37.8-37.5-38.2-37.5-0.3 0-1.6 1.2-2.7 2.6zm74.4 74.4c-1.8 1.9-2.8 2-38.7 2h-36.8v-36.1c0-32.4 0.2-36.4 1.7-39l1.8-2.9 36.9 36.9c36.7 36.7 37 37 35.1 39.1zm272.7-136c-9.9 2.6-21.7 9.1-29.6 16.2-8.5 7.6-17 20.6-21 31.6l-3.1 8.7-0.3 33.6-0.4 33.6-5.8 0.6c-12.1 1.1-23.7 9.2-30.1 21l-3.4 6.2v120l3.3 7q6.2 12.9 20.1 19.8l6.6 3.2 77.5 0.3c57 0.2 79 0 83-0.9 14.7-3.1 26.1-13.4 31-27.8 2-6.1 2.1-7.6 1.8-62.4l-0.3-56.2-3.3-6.8c-4.4-8.8-11-15.5-19.7-19.8l-7-3.4-61.2-0.3-61.3-0.3v-28.7c0-36.6 1-41.4 10.9-53.8 8-10 20.2-15.2 33.4-14.1 8.7 0.8 16.2 4.2 23 10.6 9.3 8.8 13.7 19.8 13.7 34.2 0 6.1 0.3 7.8 1.6 8.3 0.9 0.3 8 0.6 15.9 0.6 14 0 14.3 0 14.9-2.3 2.2-8.2-1.2-28.3-6.5-38.8-10.8-21.5-26.6-34.9-47.4-40.4-8.5-2.2-26.9-1.9-36.3 0.5zm35.2 0.5c21.9 4.6 42.8 24.2 50.6 47.5 2.7 8.1 4.6 22.3 3.6 27.2l-0.7 3.8h-29.9v-8.4c0-18.6-9-33.6-24.5-41.2-5.4-2.6-7-2.8-16.5-2.9-9.9 0-10.9 0.2-17.2 3.3-11.5 5.7-20.9 17.8-23.7 31-0.7 3.3-1.1 16.6-1.1 34.7v29.4l61.3 0.3c55.4 0.3 61.6 0.5 65.7 2.1 10 3.8 19.8 13.9 23.6 24 1.8 4.9 1.9 8.2 1.9 61.2 0 42.3-0.3 57-1.3 60.2-1.9 6.3-8.7 15.8-14.2 19.8-2.7 2-7.5 4.6-10.7 5.8-5.7 2.2-6.5 2.2-81.3 2.5-79 0.3-82.9 0.2-91.8-4-7.4-3.5-14.4-10.8-18.3-19l-3.4-7.3v-58.5c0-65.8-0.4-62.2 7.7-72.7 6.3-8.3 18.2-14.3 28-14.3h3.8v-29.9c0-32.3 0.8-39.6 5.3-50.7 8.6-21.2 27.9-38.3 49.2-43.5 8.8-2.2 24.6-2.4 33.9-0.4z"/><path d="m318.3 368.6c-1.7 0.9-3.6 2.8-4.2 4.3-0.8 1.8-1.1 18.1-0.9 54.5l0.3 51.8 2.8 2.4 2.8 2.4h76.8c76 0 76.9 0 79.4-2.1 4.7-3.6 4.9-6 4.5-58.1-0.3-47.6-0.3-48.7-2.4-51.5-1.1-1.5-3.2-3.4-4.5-4-1.8-1-19.7-1.3-76.9-1.3-65.5 0-74.9 0.2-77.7 1.6zm153.6 0.5c6.2 2.2 6.1 1.6 6.1 57.4v50.7l-2.9 2.9-2.9 2.9h-152.1l-2.8-2.4-2.8-2.4-0.3-51.7c-0.3-57.2-0.5-55.5 6.1-57.4 4.8-1.4 147.6-1.4 151.6 0z"/><path d="m382 432.5v28.5h29v-57h-29zm28 0v27.5h-27v-55h27z"/><path d="m240.9 27.7l-2.4 2.8 2.8-2.4c1.5-1.4 2.7-2.6 2.7-2.8 0-0.8-0.8-0.1-3.1 2.4zm-8.5 6.5l-1.9 2.3 2.3-1.9c2.1-1.8 2.7-2.6 1.9-2.6-0.2 0-1.2 1-2.3 2.2zm9.5 30.5l-2.4 2.8 2.8-2.4c1.5-1.4 2.7-2.6 2.7-2.8 0-0.8-0.8-0.1-3.1 2.4zm-9 9l-2.4 2.8 2.8-2.4c2.5-2.3 3.2-3.1 2.4-3.1-0.2 0-1.4 1.2-2.8 2.7zm-68 29l-3.4 3.8 3.8-3.4c3.4-3.3 4.2-4.1 3.4-4.1-0.2 0-1.9 1.7-3.8 3.7zm173.1 4.7c0 0.2 0.8 1 1.8 1.7 1.5 1.3 1.6 1.2 0.3-0.4-1.3-1.6-2.1-2.1-2.1-1.3zm-22.1 33.3c-1.3 1.6-1.2 1.7 0.4 0.4 1.6-1.3 2.1-2.1 1.3-2.1-0.2 0-1 0.8-1.7 1.7zm-210.9 20.8c-0.7 0.8-1.6 1.3-2 1-0.5-0.3-1.1-0.2-1.4 0.3-1 1.7 2.4 0.8 4.1-1 0.9-1 1.4-1.8 1.1-1.8-0.3 0-1.1 0.7-1.8 1.5zm-14.1 14.2l-3.4 3.8 3.8-3.4c3.4-3.3 4.2-4.1 3.4-4.1-0.2 0-1.9 1.7-3.8 3.7zm15.6 23.5c-3.7 4-3.7 4.1-0.4 1 1.9-1.8 3.8-3 4-2.7 0.3 0.3 0.6-0.2 0.6-1 0-0.8-0.1-1.5-0.2-1.5 0 0-1.9 1.9-4 4.2zm180.9 10l-2.9 3.3 3.3-2.9c1.7-1.7 3.2-3.1 3.2-3.3 0-0.8-0.8-0.1-3.6 2.9zm-202.5 11.5l-3.4 3.8 3.8-3.4c3.4-3.3 4.2-4.1 3.4-4.1-0.2 0-1.9 1.7-3.8 3.7zm-18 18c-1.3 1.6-1.2 1.7 0.4 0.4 0.9-0.7 1.7-1.5 1.7-1.7 0-0.8-0.8-0.3-2.1 1.3zm-48.5 6.5l-1.9 2.3 2.3-1.9c2.1-1.8 2.7-2.6 1.9-2.6-0.2 0-1.2 1-2.3 2.2zm-7.1 7c-1.1 1.9-1.3 3.9-0.1 3.2 0.5-0.3 0.7-0.9 0.4-1.2-0.3-0.3-0.1-1.1 0.5-1.9 0.6-0.7 0.9-1.3 0.6-1.3-0.3 0-0.9 0.6-1.4 1.2zm-11 21.8c0 4.1 0.2 5.8 0.4 3.7 0.2-2 0.2-5.4 0-7.5-0.2-2-0.4-0.3-0.4 3.8zm85.7 9.4c0 0.2 0.8 1 1.8 1.7 1.5 1.3 1.6 1.2 0.3-0.4-1.3-1.6-2.1-2.1-2.1-1.3zm123.4 3.8l-1.9 2.3 2.3-1.9c2.1-1.8 2.7-2.6 1.9-2.6-0.2 0-1.2 1-2.3 2.2zm-208.9 38.3c0 22 0.1 30.9 0.2 19.7 0.2-11.2 0.2-29.2 0-40-0.1-10.8-0.2-1.7-0.2 20.3zm202.4-31.8c-1.3 1.6-1.2 1.7 0.4 0.4 0.9-0.7 1.7-1.5 1.7-1.7 0-0.8-0.8-0.3-2.1 1.3zm-14 14c-1.3 1.6-1.2 1.7 0.4 0.4 1.6-1.3 2.1-2.1 1.3-2.1-0.2 0-1 0.8-1.7 1.7zm-12.5 12.5l-1.9 2.3 2.3-1.9c1.2-1.1 2.2-2.1 2.2-2.3 0-0.8-0.8-0.2-2.6 1.9zm-176.1 49.8c0 2.5 0.2 3.5 0.4 2.2 0.2-1.2 0.2-3.2 0-4.5-0.2-1.2-0.4-0.2-0.4 2.3zm478.9 9c0 1.4 0.2 1.9 0.5 1.2 0.2-0.6 0.2-1.8 0-2.5-0.3-0.6-0.5-0.1-0.5 1.3zm-476.4 3.7c0.6 0.2 1.8 0.2 2.5 0 0.6-0.3 0.1-0.5-1.3-0.5-1.4 0-1.9 0.2-1.2 0.5zm380.6 46.8c0 13.7 0.2 19.5 0.3 12.8 0.2-6.7 0.2-17.9 0-25-0.1-7-0.3-1.6-0.3 12.2zm-25.2 55.2c20.1 0.2 53.4 0.2 74 0 20.5-0.1 4-0.2-36.7-0.2-40.7 0-57.5 0.1-37.3 0.2z" fill="rgb(85, 85, 85)"/><path d="m149.5 118c-0.4 0.6-1.2 0.7-1.8 0.4-0.7-0.4-0.9-0.4-0.5 0.1 0.4 0.4 0.2 1.5-0.4 2.4-0.7 0.9 0 0.5 1.5-0.8 1.5-1.4 2.7-2.6 2.7-2.8 0-0.7-0.9-0.3-1.5 0.7zm-7.9 7.7c-0.4 0.5-1.2 0.8-1.8 0.8-0.6 0-1.2 0.8-1.4 1.9-0.2 1.6 0 1.6 2.2-0.5 1.3-1.2 2.4-2.4 2.4-2.6 0-0.5-0.6-0.3-1.4 0.4zm-45.2 44.5l-1.9 2.3 2.3-1.9c2.1-1.8 2.7-2.6 1.9-2.6-0.2 0-1.2 1-2.3 2.2zm-21.5 21.5c-1.3 1.6-1.2 1.7 0.4 0.4 0.9-0.7 1.7-1.5 1.7-1.7 0-0.8-0.8-0.3-2.1 1.3zm36.6 2.4c-0.3 0.4 0.2 0.6 1 0.5 2.1-0.3 2.8-1.3 1-1.3-0.9 0-1.8 0.4-2 0.8zm-14.6 14.5c-1.8 1.9-3.3 3.8-3.1 4.2 0.1 0.4-0.2 0.7-0.7 0.7-0.6 0-1.6 0.7-2.3 1.5-1.1 1.2-1.1 1.2 0.3 0.2 0.9-0.6 1.8-1 2.1-0.7 0.2 0.3 1.5-0.6 2.8-2 1.3-1.4 2-2.5 1.5-2.5-0.4 0 0-0.9 1-2 1-1.1 2.2-1.7 2.8-1.3 0.6 0.3 0.7 0.1 0.3-0.5-1-1.6-0.7-1.7-4.7 2.4zm347.1 21.8c0 0.2 0.8 1 1.8 1.7 1.5 1.3 1.6 1.2 0.3-0.4-1.3-1.6-2.1-2.1-2.1-1.3zm-424.5 15.6c-1 1.1-2.1 1.8-2.5 1.5-0.4-0.2-0.7 0.3-0.7 1.1 0 1 0.9 0.6 2.9-1.3 1.5-1.5 2.8-2.8 2.8-3 0-0.7-0.8-0.2-2.5 1.7zm23.3 106.7c6.8 0.2 17.6 0.2 24 0 6.4-0.1 0.9-0.3-12.3-0.3-13.2 0-18.5 0.2-11.7 0.3zm38 0c1.2 0.2 3.2 0.2 4.5 0 1.2-0.2 0.2-0.4-2.3-0.4-2.5 0-3.5 0.2-2.2 0.4zm11 0c0.6 0.2 1.8 0.2 2.5 0 0.6-0.3 0.1-0.5-1.3-0.5-1.4 0-1.9 0.2-1.2 0.5zm303.5 107c0.9 0.2 2.3 0.2 3 0 0.6-0.3-0.1-0.5-1.8-0.5-1.6 0-2.2 0.2-1.2 0.5zm7.5 0c1.2 0.2 3 0.2 4 0 0.9-0.3-0.1-0.5-2.3-0.4-2.2 0-3 0.2-1.7 0.4z" fill="rgb(128, 128, 128)"/><path d="m293.3 1.7c0.9 0.2 2.3 0.2 3 0 0.6-0.3-0.1-0.5-1.8-0.5-1.6 0-2.2 0.2-1.2 0.5zm1.5 26c0.7 0.3 1.6 0.2 1.9-0.1 0.4-0.3-0.2-0.6-1.3-0.5-1.1 0-1.4 0.3-0.6 0.6zm38.2 22.6c0 0.2 1.5 1.6 3.3 3.3l3.2 2.9-2.9-3.3c-2.8-3-3.6-3.7-3.6-2.9zm4 58c0 0.2 1.5 1.6 3.3 3.3l3.2 2.9-2.9-3.3c-2.8-3-3.6-3.7-3.6-2.9zm-254.1 75.4l-2.4 2.8 2.8-2.4c1.5-1.4 2.7-2.6 2.7-2.8 0-0.8-0.8-0.1-3.1 2.4zm31.5 7.5l-1.9 2.3 2.3-1.9c1.2-1.1 2.2-2.1 2.2-2.3 0-0.8-0.8-0.2-2.6 1.9zm278.9 47.5c0.9 0.2 2.3 0.2 3 0 0.6-0.3-0.1-0.5-1.8-0.5-1.6 0-2.2 0.2-1.2 0.5zm-26.4 12c-1.3 1.6-1.2 1.7 0.4 0.4 0.9-0.7 1.7-1.5 1.7-1.7 0-0.8-0.8-0.3-2.1 1.3zm-41.5 55.8c0 16.5 0.2 23.4 0.3 15.3 0.2-8.1 0.2-21.6 0-30-0.1-8.4-0.3-1.8-0.3 14.7zm111.8-23.5c0 1.9 0.2 2.7 0.5 1.7 0.2-0.9 0.2-2.5 0-3.5-0.3-0.9-0.5-0.1-0.5 1.8zm30.1 0.5c0 2.2 0.2 3 0.4 1.7 0.2-1.2 0.2-3 0-4-0.3-0.9-0.5 0.1-0.4 2.3zm-30.1 5.5c0 1.4 0.2 1.9 0.5 1.2 0.2-0.6 0.2-1.8 0-2.5-0.3-0.6-0.5-0.1-0.5 1.3zm-83.8 7.5c0 4.9 0.1 7.1 0.3 4.8 0.2-2.3 0.2-6.4 0-9-0.2-2.6-0.3-0.8-0.3 4.2zm-0.1 16c0 3.8 0.2 5.3 0.4 3.2 0.2-2 0.2-5.2 0-7-0.2-1.7-0.4-0.1-0.4 3.8zm-232.3 8c1.3 1.4 2.6 2.5 2.8 2.5 0.3 0-0.5-1.1-1.8-2.5-1.3-1.4-2.6-2.5-2.8-2.5-0.3 0 0.5 1.1 1.8 2.5zm232.3 10c0 3.3 0.2 4.5 0.4 2.7 0.2-1.8 0.2-4.5 0-6-0.2-1.5-0.4 0-0.4 3.3zm-256.5 22.2c1.2 0.2 3.2 0.2 4.5 0 1.2-0.2 0.2-0.4-2.3-0.4-2.5 0-3.5 0.2-2.2 0.4zm312.6 79.3c0 14.6 0.2 20.5 0.3 13.2 0.2-7.2 0.2-19.2 0-26.5-0.1-7.2-0.3-1.3-0.3 13.3zm-66.6 81.7c10.6 0.2 27.7 0.2 38 0 10.3-0.1 1.6-0.2-19.3-0.2-20.9 0-29.3 0.1-18.7 0.2zm71 0c7.9 0.2 20.5 0.2 28 0 7.5-0.1 1.1-0.3-14.3-0.3-15.4 0-21.6 0.2-13.7 0.3zm47 0c0.7 0.3 1.6 0.2 1.9-0.1 0.4-0.3-0.2-0.6-1.3-0.5-1.1 0-1.4 0.3-0.6 0.6z" fill="rgb(170, 170, 170)"/><path d="m248.9 20.7c-1.3 1.6-1.2 1.7 0.4 0.4 0.9-0.7 1.7-1.5 1.7-1.7 0-0.8-0.8-0.3-2.1 1.3zm72.1 17.7c0 0.2 0.8 1 1.8 1.7 1.5 1.3 1.6 1.2 0.3-0.4-1.3-1.6-2.1-2.1-2.1-1.3zm39.5 1.6c1 1.1 2 2 2.3 2 0.3 0-0.3-0.9-1.3-2-1-1.1-2-2-2.3-2-0.3 0 0.3 0.9 1.3 2zm-30 8c1 1.1 2 2 2.3 2 0.3 0-0.3-0.9-1.3-2-1-1.1-2-2-2.3-2-0.3 0 0.3 0.9 1.3 2zm-51.5 3.4c0 0.2 0.8 1 1.8 1.7 1.5 1.3 1.6 1.2 0.3-0.4-1.3-1.6-2.1-2.1-2.1-1.3zm-68.1 6.3c-1.3 1.6-1.2 1.7 0.4 0.4 1.6-1.3 2.1-2.1 1.3-2.1-0.2 0-1 0.8-1.7 1.7zm49.1 12.7c0 0.2 0.8 1 1.8 1.7 1.5 1.3 1.6 1.2 0.3-0.4-1.3-1.6-2.1-2.1-2.1-1.3zm-83.6 21.8l-1.9 2.3 2.3-1.9c2.1-1.8 2.7-2.6 1.9-2.6-0.2 0-1.2 1-2.3 2.2zm105.1-0.2c1 1.1 2 2 2.3 2 0.3 0-0.3-0.9-1.3-2-1-1.1-2-2-2.3-2-0.3 0 0.3 0.9 1.3 2zm29.5 29.4c0 0.2 0.8 1 1.8 1.7 1.5 1.3 1.6 1.2 0.3-0.4-1.3-1.6-2.1-2.1-2.1-1.3zm-181.6 16.8l-1.9 2.3 2.3-1.9c2.1-1.8 2.7-2.6 1.9-2.6-0.2 0-1.2 1-2.3 2.2zm167.5 22.5l-2.4 2.8 2.8-2.4c2.5-2.3 3.2-3.1 2.4-3.1-0.2 0-1.4 1.2-2.8 2.7zm-157.5 5.5l-1.9 2.3 2.3-1.9c1.2-1.1 2.2-2.1 2.2-2.3 0-0.8-0.8-0.2-2.6 1.9zm148 4l-2.9 3.3 3.3-2.9c1.7-1.7 3.2-3.1 3.2-3.3 0-0.8-0.8-0.1-3.6 2.9zm-169 17l-1.9 2.3 2.3-1.9c2.1-1.8 2.7-2.6 1.9-2.6-0.2 0-1.2 1-2.3 2.2zm-48.5 9.5c-1.3 1.6-1.2 1.7 0.4 0.4 0.9-0.7 1.7-1.5 1.7-1.7 0-0.8-0.8-0.3-2.1 1.3zm319.9 16c0.7 0.3 1.6 0.2 1.9-0.1 0.4-0.3-0.2-0.6-1.3-0.5-1.1 0-1.4 0.3-0.6 0.6zm8 26c0.7 0.3 1.6 0.2 1.9-0.1 0.4-0.3-0.2-0.6-1.3-0.5-1.1 0-1.4 0.3-0.6 0.6zm-338.8 19.8c1.3 1.4 2.6 2.5 2.8 2.5 0.3 0-0.5-1.1-1.8-2.5-1.3-1.4-2.6-2.5-2.8-2.5-0.3 0 0.5 1.1 1.8 2.5zm9.5 9.5c1 1.1 2 2 2.3 2 0.3 0-0.3-0.9-1.3-2-1-1.1-2-2-2.3-2-0.3 0 0.3 0.9 1.3 2zm5 5c1 1.1 2 2 2.3 2 0.3 0-0.3-0.9-1.3-2-1-1.1-2-2-2.3-2-0.3 0 0.3 0.9 1.3 2zm6.5 6.5c1.9 1.9 3.6 3.5 3.9 3.5 0.3 0-1-1.6-2.9-3.5-1.9-1.9-3.6-3.5-3.9-3.5-0.3 0 1 1.6 2.9 3.5zm273.1 4.1c0 1.1 0.3 1.4 0.6 0.6 0.3-0.7 0.2-1.6-0.1-1.9-0.3-0.4-0.6 0.2-0.5 1.3zm-264.6 4.4c1 1.1 2 2 2.3 2 0.3 0-0.3-0.9-1.3-2-1-1.1-2-2-2.3-2-0.3 0 0.3 0.9 1.3 2zm24 24c1 1.1 2 2 2.3 2 0.3 0-0.3-0.9-1.3-2-1-1.1-2-2-2.3-2-0.3 0 0.3 0.9 1.3 2zm11.5 11.4c0 0.2 0.8 1 1.8 1.7 1.5 1.3 1.6 1.2 0.3-0.4-1.3-1.6-2.1-2.1-2.1-1.3zm343.3 15.3c0.9 0.2 2.3 0.2 3 0 0.6-0.3-0.1-0.5-1.8-0.5-1.6 0-2.2 0.2-1.2 0.5zm-155.2 38.9c0 1.1 0.3 1.4 0.6 0.6 0.3-0.7 0.2-1.6-0.1-1.9-0.3-0.4-0.6 0.2-0.5 1.3zm0.2 11.4c0 4.7 0.2 6.6 0.4 4.2 0.2-2.3 0.2-6.1 0-8.5-0.2-2.3-0.4-0.4-0.4 4.3zm0.2 45.5c0 20.3 0.1 28.5 0.2 18.2 0.2-10.4 0.2-27 0-37-0.1-10-0.2-1.6-0.2 18.8zm151.3 79.2c0.7 0.3 1.6 0.2 1.9-0.1 0.4-0.3-0.2-0.6-1.3-0.5-1.1 0-1.4 0.3-0.6 0.6z" fill="rgb(212, 212, 212)"/><path d="m279.2 4c-8.9 2.4-19.1 7.6-25.7 13.3-8.8 7.4-25 23.1-71.5 69.3-25 24.8-60.6 59.9-79 78-18.4 18.1-48.7 48-67.3 66.4l-33.7 33.5v116.5h113.5l126-126.3c136.6-136.7 130.5-130.2 136.2-147.2 2.3-6.9 2.7-9.7 2.7-20 0-10.1-0.4-13-2.3-18.5-5.3-14.6-9.7-21.2-25.2-37.4-12-12.6-19-18.2-28.5-23-13.4-6.6-30.7-8.4-45.2-4.6zm23 24.1c9 1.9 15.3 6.4 31.5 22.4 16 15.8 19.3 20.6 21.1 30.6 1.7 9.9-1.4 21.5-8.2 30.1-2.6 3.4-3.7 3.4-6.6 0.3-1.2-1.3-2.7-2.2-3.3-1.8-0.6 0.3-0.7 0.2-0.4-0.4 0.9-1.4-54.9-56.6-56.4-55.7-0.8 0.5-0.9 0.3-0.4-0.5 0.4-0.8-1.5-3.4-5.5-7.2l-6.3-6 2.4-2.5c3.4-3.6 8.2-6.4 14.7-8.5 6.7-2.1 10.3-2.3 17.4-0.8zm-16.3 68.1c20.4 20.4 37.1 37.5 37.1 37.9 0 0.4-43.6 44.3-97 97.6l-96.9 96.8-38-38.1-38-38.2 33.7-33.3c18.5-18.4 62.2-61.9 97.1-96.7 35-34.7 63.9-63.2 64.2-63.2 0.4 0 17.4 16.7 37.8 37.2zm-214.4 212.7c20.8 20.8 37.8 38.2 37.9 38.7 0 0.4-1.4 1.9-3.3 3.1-3.4 2.3-3.5 2.3-40.2 2.3h-36.9v-38c0-37.6 0-38.1 2.2-41 1.2-1.7 2.3-3 2.4-3 0.1 0 17.2 17 37.9 37.9zm314.9-95.8c-8 1-19.2 4.9-26 9.1-11 6.6-23.5 21.1-29 33.5-4.9 11-5.4 15.5-5.4 50 0 30.1-0.1 32.3-1.7 32.3-11.8 0.3-21.9 4.6-29.1 12.4-5 5.4-6.6 8.5-8.7 16.5-1.4 5.5-1.6 13-1.3 60.9l0.3 54.7 3.2 6.7c5.6 11.8 11.6 17.6 22.5 21.6 5.7 2.1 6.7 2.2 84 2.2 75.4 0.1 78.5 0 84-1.9 10.3-3.5 18.6-10.8 23.6-20.8 3.9-7.5 4.3-15.4 4-68.9-0.3-50-0.4-51-2.5-56.4-3.4-8.2-8.8-15.4-14.7-19.5-10.1-6.9-8.4-6.8-75.6-7.1l-60.5-0.3v-31.3c0.1-31.3 0.1-31.3 2.7-38.6 4.1-11.4 12.6-21 23.4-26.5 5.5-2.8 15.3-4.1 22.2-2.9 20.8 3.7 34.5 20.4 35.9 43.9l0.6 9.3h28.7v-8.6c0-35.3-26.4-66.1-60.1-70.4-9.2-1.1-11.6-1.1-20.5 0.1zm87 154.9c1.4 0.5 3.5 2.4 4.6 4.2 1.9 3.2 2 5.1 2 53.8 0 48.2-0.1 50.6-1.9 53.4-3.8 5.8-0.4 5.5-82.4 5.6h-75.7l-3.8-3.4-3.7-3.4-0.3-49.9c-0.2-33.9 0-51 0.8-53.5 0.6-2 2.2-4.6 3.7-5.7 2.5-2.1 3.4-2.1 78.4-2.1 46.8 0 76.8 0.4 78.3 1z" fill="rgb(255, 255, 255)"/><path d="m384 432v27h25v-54h-25z" fill="rgb(255, 255, 255)"/><path d="m380.8 338.7c0.7 0.3 1.6 0.2 1.9-0.1 0.4-0.3-0.2-0.6-1.3-0.5-1.1 0-1.4 0.3-0.6 0.6zm23 0c0.7 0.3 1.6 0.2 1.9-0.1 0.4-0.3-0.2-0.6-1.3-0.5-1.1 0-1.4 0.3-0.6 0.6z" fill="rgb(212, 255, 255)"/></svg>