<svg xmlns="http://www.w3.org/2000/svg" viewBox="0 0 1536 1536"><g fill="#555" stroke-width="0"><path d="M959 470.1c0 .5.5.7 1 .4.6-.3 1-.8 1-1.1 0-.2-.4-.4-1-.4-.5 0-1 .5-1 1.1m53.8 2.6c.6.2 1.8.2 2.5 0 .6-.3.1-.5-1.3-.5s-1.9.2-1.2.5m19.2.7c0 .2.7.7 1.6 1 .8.3 1.2.2.9-.4-.6-1-2.5-1.4-2.5-.6m56 2.6c.6 1.1 1.3 2 1.6 2 .2 0 0-.9-.6-2s-1.3-2-1.6-2c-.2 0 0 .9.6 2m-138.1 2.7c-1.3 1.6-1.2 1.7.4.4s2.1-2.1 1.3-2.1c-.2 0-1 .8-1.7 1.7M983 483c-.8.5-1 1-.5 1 .6 0 1.7-.5 2.5-1s1.1-1 .5-1c-.5 0-1.7.5-2.5 1m-10.7 8.6-2.8 2.6 3.3-2.2c2.9-2 3.9-3 2.8-3-.3 0-1.8 1.2-3.3 2.6m100.9 3c1 1 2 1.5 2.4 1.2.3-.4-.5-1.2-1.8-1.8-2.2-1.2-2.2-1.2-.6.6m9.3 8.7c1 1.5 2 2.5 2.3 2.2s-.5-1.6-1.7-2.8l-2.3-2.2zM955 508.5c-2.4 2.5-4 4.5-3.5 4.4 1-.1 9.2-8.9 8.3-8.9-.2 0-2.4 2-4.8 4.5m-43.2 6.6c-4.3 4.4-7.8 8.3-7.8 8.7 0 .9 13.9-12.9 15.1-15.1.5-.9.8-1.7.7-1.7-.2.1-3.8 3.7-8 8.1m177.2-4.4c0 .6.8 1.7 1.8 2.4 1.6 1.3 1.6 1.3.2-.6-.8-1.1-1.6-2.2-1.7-2.4q-.3-.3-.3.6m-140.5 4.2c-.3.5-.2 1.2.3 1.5s.9-.1.9-.9c0-1.7-.3-1.9-1.2-.6m4 5.1c1 1.1 2 2 2.3 2s-.3-.9-1.3-2-2-2-2.3-2 .3.9 1.3 2m-23.9 13.8c-.3.5.1.9.9.9s1.2-.4.9-.9c-.3-.4-.7-.8-.9-.8s-.6.4-.9.8M916 546.5c-2.4 2.5-4.2 4.5-3.9 4.5s2.5-2 4.9-4.5 4.2-4.5 3.9-4.5-2.5 2-4.9 4.5m214 3.4c0 .6.4 1.3 1 1.6s.7-.1.4-.9c-.7-1.8-1.4-2.1-1.4-.7m-22.8 13.1c0 1.4.2 1.9.5 1.2.2-.6.2-1.8 0-2.5-.3-.6-.5-.1-.5 1.3m-99.7 12c1 1.1 2 2 2.3 2s-.3-.9-1.3-2-2-2-2.3-2 .3.9 1.3 2m5.5 5.4c0 .2.8 1 1.8 1.7 1.5 1.3 1.6 1.2.3-.4s-2.1-2.1-2.1-1.3m-35 1.5c0 .6.4 1.3 1 1.6s.7-.1.4-.9c-.7-1.8-1.4-2.1-1.4-.7m150.5.2c-.4.6-.5 1.2-.2 1.5.2.3.7-.2 1-1.1.7-1.7.1-2-.8-.4m-110.9 2.2c.3 1 .9 1.5 1.2 1.2s0-1.1-.7-1.8c-1-.9-1.1-.8-.5.6m-35.6 1c0 .2 1.5 1.6 3.3 3.3l3.2 2.9-2.9-3.3c-2.8-3-3.6-3.7-3.6-2.9m43.7 7.7c2.8 3.1 3.9 3.9 2.7 1.7-1.3-2.2-3.7-4.7-4.6-4.7-.4 0 .4 1.3 1.9 3m-35.1 1.3c.3 1 .9 1.5 1.2 1.2s0-1.1-.7-1.8c-1-.9-1.1-.8-.5.6m39.4 2.7c0 .5.5 1 1.1 1 .5 0 .7-.5.4-1-.3-.6-.8-1-1.1-1-.2 0-.4.4-.4 1m-123.2 6.5c-2.1 1.9-3.4 3.5-3 3.5.5 0 2.3-1.6 4.2-3.5 4.4-4.5 3.6-4.5-1.2 0m-49.3 1.5c-1.6 1.7-1.6 2-.3 1.5.9-.4 1.9-1.3 2.2-2.1.7-1.9.2-1.8-1.9.6m149.2 6.1c1.2 1.2 2.5 2 2.8 1.7s-.7-1.3-2.2-2.3l-2.8-1.7zm-80.7 7.4c-2.4 2.5-4.1 4.5-3.8 4.5.8 0 4.3-3.3 7.2-6.8 3.2-3.7 1.3-2.4-3.4 2.3m187.1-2.2c-1.3 2.1-1.2 2.1.5.5 1-1 1.6-2 1.3-2.2-.3-.3-1.1.5-1.8 1.7m-98.1 2.5c0 1 3.7 4.5 6 5.7.8.4-.1-.8-1.9-2.8-3.7-3.9-4.1-4.2-4.1-2.9m-211.8 3.7c-2 1.9-3.2 3.5-2.6 3.5.5 0 2.5-1.6 4.4-3.5 4.4-4.5 3.1-4.5-1.8 0m272-1.8c-.7.2-1.7 1.4-2.3 2.6-1.1 2.1-1 2 1.5-.2 1.4-1.4 2.6-2.6 2.6-2.8 0-.3 0-.3-1.8.4m-193.1 6.9c-2.3 2.5-3.4 4.1-2.4 3.6 2.4-1.4 7.8-7 7.2-7.7-.3-.2-2.4 1.6-4.8 4.1m140.9-1c0 .5 3.5 4.3 7.8 8.4 9.8 9.5 14.4 13.2 7.4 6-10.6-10.8-15.2-15.2-15.2-14.4M830.5 632c-1 1.1-1.3 2-.7 2s1.6-.9 2.2-2 .9-2 .7-2-1.2.9-2.2 2m27 20.4c-9.4 9.4-17.7 18-18.5 19.1-.7 1.1 7.1-6.4 17.5-16.8 10.3-10.3 18.6-18.9 18.4-19.1-.2-.1-8.1 7.4-17.4 16.8m-70.6-12.7c-1.3 1.6-1.2 1.7.4.4.9-.7 1.7-1.5 1.7-1.7 0-.8-.8-.3-2.1 1.3m299.4 4.5c-1.5 2-2.5 3.8-2 3.8.3 0 1.2-1.1 2.1-2.5 1.7-2.6 1.6-3.5-.1-1.3m-270.4 2.5c-1.3 1.5-1.2 1.5.9.4 2.3-1.2 2.8-2.1 1.3-2.1-.5 0-1.5.7-2.2 1.7m138 0c-1.3 1.6-1.2 1.7.4.4.9-.7 1.7-1.5 1.7-1.7 0-.8-.8-.3-2.1 1.3m22.1.2c0 .6.4 1.3 1 1.6s.7-.1.4-.9c-.7-1.8-1.4-2.1-1.4-.7m-166 5.6c-1.9 1.9-2.9 3.5-2.4 3.5.6 0 2.5-1.6 4.4-3.5s2.9-3.5 2.4-3.5c-.6 0-2.5 1.6-4.4 3.5m228.1 4.1c-3.5 3.5-5.9 6.4-5.4 6.4 1 0 12.3-11.4 12.3-12.4 0-.9-.1-.8-6.9 6m36.4-.6c-.3.6.1.7.9.4 1.8-.7 2.1-1.4.7-1.4-.6 0-1.3.4-1.6 1m-4.5 4.5c-1.3 1.4-2.1 2.7-1.8 3.1.3.3 1.6-.9 2.8-2.5 2.6-3.7 2.2-4-1-.6m-304.6.7-1.9 2.3 2.3-1.9c2.1-1.8 2.7-2.6 1.9-2.6-.2 0-1.2 1-2.3 2.2m35.5.9-2.4 2 2.8-1.7c1.5-.9 2.7-1.8 2.7-2 0-.8-.8-.4-3.1 1.7m167.2 4.5c-7.7 7.9-8.8 10.1-1.3 2.9 4-3.8 7.2-7.1 7.2-7.2 0-1.1-2.1.5-5.9 4.3M789 673.7c-2.7 2.7-3.5 4-2.1 3.2 2.2-1.4 7.9-7.9 6.9-7.9-.2 0-2.4 2.1-4.8 4.7m-42.4 5.8c-2.1 2.5-3.6 4.5-3.4 4.5s2.4-2 4.8-4.5 3.9-4.5 3.3-4.5-2.7 2-4.7 4.5m86.4-3c-.7.9-1.1 1.8-.8 2 .3.3 1.1-.1 1.8-1s1.1-1.8.8-2c-.3-.3-1.1.1-1.8 1m220 1c-1.3 1.4-1.9 2.5-1.3 2.5s1.8-1.1 2.7-2.5 1.5-2.5 1.3-2.5-1.4 1.1-2.7 2.5m-40.1 4.2c-1.3 1.5-1.2 1.5.9.4 2.3-1.2 2.8-2.1 1.3-2.1-.5 0-1.5.7-2.2 1.7m-187.5 2.5-1.9 2.3 2.5-2c1.4-1.1 2.7-2.1 2.9-2.2q.3-.3-.6-.3c-.5 0-1.8 1-2.9 2.2m-48 1-1.9 2.3 2.3-1.9c2.1-1.8 2.7-2.6 1.9-2.6-.2 0-1.2 1-2.3 2.2m137.7 0c-1.4 2.3-1.4 2.3.8.4 2.2-2 2.5-2.6 1.3-2.6-.4 0-1.3 1-2.1 2.2m30.6 4c-3.2 3.3-5.7 6.2-5.5 6.4.3.2 3-2.3 6.2-5.7 3.2-3.3 5.6-6.2 5.4-6.4s-2.9 2.4-6.1 5.7m99.2-3.6c-1.3 1.5-1.8 2.5-1 2.2 1.3-.4 4.9-4.8 3.9-4.8-.2 0-1.5 1.2-2.9 2.6m-233.8 13.1c-6.5 6.6-9 9.5-5.6 6.6 7.4-6.4 19.2-18.3 18.1-18.3-.5 0-6.1 5.3-12.5 11.7m188.8-4c-1.3 1.6-1.2 1.7.4.4.9-.7 1.7-1.5 1.7-1.7 0-.8-.8-.3-2.1 1.3m36 0c-1.3 1.6-1.2 1.7.4.4.9-.7 1.7-1.5 1.7-1.7 0-.8-.8-.3-2.1 1.3m-134 3c-2.6 2.8-2.8 3.3-1 2.2 2.2-1.4 6-5.9 4.9-5.9-.2 0-2 1.7-3.9 3.7m25.1 10c-5.8 5.8-9.6 10.1-8.5 9.5 2.5-1.4 21.1-20.2 19.9-20.2-.5.1-5.6 4.9-11.4 10.7m68.9-9c-1.3 1.6-1.2 1.7.4.4.9-.7 1.7-1.5 1.7-1.7 0-.8-.8-.3-2.1 1.3m-114.4 19.4c-5.5 5.4-9.5 9.9-9 9.9 1 0 17.3-16.3 18.9-18.8 1.3-2.1.3-1.3-9.9 8.9m-85.6-4.4c-1.3 1.6-1.2 1.7.4.4.9-.7 1.7-1.5 1.7-1.7 0-.8-.8-.3-2.1 1.3m183 2-3.4 3.8 4-3.5c2.2-1.9 4.2-3.6 4.4-3.8.2-.1 0-.2-.5-.2-.6 0-2.6 1.7-4.5 3.7m-67.9 8.5-3.3 4.3 4.1-4c4.4-4.1 4.7-4.5 3.4-4.5-.5 0-2.4 1.9-4.2 4.2m-125.1-.5-2.4 2.8 2.8-2.4c1.5-1.4 2.7-2.6 2.7-2.8 0-.8-.8-.1-3.1 2.4m84 7c-1.3 1.6-1.2 1.7.4.4.9-.7 1.7-1.5 1.7-1.7 0-.8-.8-.3-2.1 1.3m81.5 12.5-1.9 2.3 2.3-1.9c2.1-1.8 2.7-2.6 1.9-2.6-.2 0-1.2 1-2.3 2.2m-154.5 4.5-2.4 2.8 2.8-2.4c1.5-1.4 2.7-2.6 2.7-2.8 0-.8-.8-.1-3.1 2.4m45.8 9.2c-6.2 6-11 11.1-10.7 11.4.3.2 5.6-4.7 11.9-10.9 6.3-6.3 11.1-11.4 10.7-11.4s-5.8 4.9-11.9 10.9M674 751c-.9.6-1 1-.3 1 .6 0 1.5-.5 1.8-1 .8-1.2.4-1.2-1.5 0m257 12.5c-2.4 2.5-4.2 4.5-3.9 4.5s2.5-2 4.9-4.5 4.2-4.5 3.9-4.5-2.5 2-4.9 4.5m-188.5 2.9c-3 3.4-3.5 4.8-1 2.4 1.6-1.5 2.7-2.9 2.4-3.2-.2-.2-.8.1-1.4.8m75.5 15.1c-6.8 6.9-12 12.5-11.6 12.5.9 0 20.8-19.8 23.5-23.3 2.8-3.6.2-1.3-11.9 10.8m-82.6-7.3-1.9 2.3 2.3-1.9c2.1-1.8 2.7-2.6 1.9-2.6-.2 0-1.2 1-2.3 2.2m178.5 6.5c-1.3 1.6-1.2 1.7.4.4s2.1-2.1 1.3-2.1c-.2 0-1 .8-1.7 1.7m-151.5 1.5-1.9 2.3 2.3-1.9c2.1-1.8 2.7-2.6 1.9-2.6-.2 0-1.2 1-2.3 2.2m90.5.5c-1.3 1.6-1.2 1.7.4.4.9-.7 1.7-1.5 1.7-1.7 0-.8-.8-.3-2.1 1.3m49.6 8.3c-.3.5-.1 1 .4 1 .6 0 1.1-.5 1.1-1 0-.6-.2-1-.4-1-.3 0-.8.4-1.1 1m-65.1 7.2-1.9 2.3 2.3-1.9c2.1-1.8 2.7-2.6 1.9-2.6-.2 0-1.2 1-2.3 2.2m58 .2c-1 .8-1.6 1.7-1.3 2s1.4-.3 2.4-1.4c2.1-2.3 1.7-2.6-1.1-.6m-94.5 1.3c-1.3 1.6-1.2 1.7.4.4.9-.7 1.7-1.5 1.7-1.7 0-.8-.8-.3-2.1 1.3m-95 2.2c-1.3 1.1-2.1 2.2-1.8 2.5s1.6-.5 2.9-1.9c2.8-3 2.2-3.3-1.1-.6m119 7.8c-9.5 9.9-7.9 9.2 2.5-.9 3.8-3.7 6.7-7 6.5-7.3-.3-.2-4.3 3.5-9 8.2m-34-1.1c-2.3 2.5-2.7 3.3-1.3 2.6 1.8-.9 6.1-6.2 5.1-6.2-.2 0-1.9 1.6-3.8 3.6m97-1.9c-1.3 1.6-1.2 1.7.4.4s2.1-2.1 1.3-2.1c-.2 0-1 .8-1.7 1.7m-188.4 2.2c-1.1.9-3.8 3.7-6 6.2-2.7 3-2 2.5 2.3-1.6 3.4-3.3 6.2-6.1 6.2-6.2 0-.5-.5-.2-2.5 1.6m182.4 3.1c-5.5 5.7-5.8 7.1-.3 1.8 2.6-2.6 4.6-4.9 4.4-5.1-.3-.2-2.1 1.3-4.1 3.3m-100.5 6.2-1.9 2.3 2.3-1.9c2.1-1.8 2.7-2.6 1.9-2.6-.2 0-1.2 1-2.3 2.2M715.9 829c-1.3 1-1.9 1.9-1.3 2 .6 0 1.9-.9 2.9-2 2.3-2.6 1.4-2.6-1.6 0m87.5 2.2-1.9 2.3 2.3-1.9c1.2-1.1 2.2-2.1 2.2-2.3 0-.8-.8-.2-2.6 1.9M589.1 835c-3 2.8-5 5-4.5 5s3.2-2.3 5.9-5c6.3-6.4 5.6-6.3-1.4 0m273.4-3.9c-1.1 1.7.1 2.1 1.5.4.8-.9.8-1.5.2-1.5s-1.4.5-1.7 1.1m-150.2 1.5c-1.1.5-8.8 9.4-8.1 9.4.2 0 2.6-2.3 5.2-5 2.6-2.8 4.6-5 4.4-4.9-.1 0-.8.3-1.5.5m80.7 8.9c-.7.8-.8 1.5-.2 1.5.5 0 1.5-.7 2.2-1.5s.8-1.5.2-1.5c-.5 0-1.5.7-2.2 1.5m57.9 2.2c-1.3 1.6-1.2 1.7.4.4.9-.7 1.7-1.5 1.7-1.7 0-.8-.8-.3-2.1 1.3m-4.7 3.6c-1.2 1.3-2.2 2.7-2.2 3.1s1.1-.5 2.5-2 2.5-2.9 2.5-3c0-.8-.7-.3-2.8 1.9m-66.2 7.5c-7.8 7.9-7.1 8 1.3.2 4-3.7 7.7-8.2 6.5-7.9-.2 0-3.7 3.5-7.8 7.7m60.9-1.1c-1.3 1.6-1.2 1.7.4.4s2.1-2.1 1.3-2.1c-.2 0-1 .8-1.7 1.7m-4.9 3.8c-1.9 2.3-.8 2.5 1.4.4 1.1-1.1 1.5-1.9.9-1.9s-1.6.7-2.3 1.5m-4.6 4.9c-1 .8-1.6 1.7-1.3 2s1.4-.3 2.4-1.4c2.1-2.3 1.7-2.6-1.1-.6m-96.5 2.3c-1.3 1.6-1.2 1.7.4.4s2.1-2.1 1.3-2.1c-.2 0-1 .8-1.7 1.7m32.6 2.5-4 4.1 3.7-2.7c2-1.5 3.9-3.4 4.2-4.2.8-2.1.4-1.8-3.9 2.8m-176.1 3.9c-.7 1.2 8.7 11.4 12.1 13 1.1.6-1.1-1.7-4.8-5.2-4.1-3.7-6.6-6.7-6.3-7.5.6-1.7 0-1.8-1-.3m132.6 3.8c-2.5 2.5-4.9 5.2-5.4 6.1-.4.8 1.8-1.1 5-4.2 3.2-3.2 5.6-5.9 5.4-6.1-.3-.2-2.5 1.7-5 4.2m34.7.9c-5 5.1-4.7 5.8.5 1 2.3-2.1 3.9-4 3.7-4.3-.3-.2-2.2 1.2-4.2 3.3m47.8 11.3c-4.9 4.9-8.6 8.9-8.1 8.9.4 0 4.9-4.1 9.9-9 5-5 8.7-9 8.2-8.9-.6.1-5 4.1-10 9"/><path d="M745 889.6c-4.7 4.8-7.5 8.1-6.3 7.3 2-1.2 15.9-15.9 15.1-15.9-.2 0-4.2 3.9-8.8 8.6m-139-3.2c0 .2.8 1 1.8 1.7 1.5 1.3 1.6 1.2.3-.4s-2.1-2.1-2.1-1.3m106.3 4.1c-.3.9-.3 1.8-.1 2.1.3.3.8-.4 1.1-1.6.6-2.3-.1-2.7-1-.5M734 901c-.6 1.1-.8 2-.6 2 .3 0 1-.9 1.6-2s.8-2 .6-2c-.3 0-1 .9-1.6 2m58.9-.3c-1.3 1.6-1.2 1.7.4.4s2.1-2.1 1.3-2.1c-.2 0-1 .8-1.7 1.7m-76 1.3c1.3 1.1 2.8 2 3.3 2 .6 0-.1-.9-1.5-2-3.3-2.6-4.9-2.6-1.8 0m12.9 1.7c.7.3 1.6.2 1.9-.1.4-.3-.2-.6-1.3-.5-1.1 0-1.4.3-.6.6m55.1 5c-1.3 1.6-1.2 1.7.4.4.9-.7 1.7-1.5 1.7-1.7 0-.8-.8-.3-2.1 1.3M760 934c-.6 1.1-.8 2-.6 2 .3 0 1-.9 1.6-2s.8-2 .6-2c-.3 0-1 .9-1.6 2m-5.1 4.6c-2.3 2.5-2.3 2.6-.2 1.5 2.3-1.2 3.8-2.9 3.1-3.7-.3-.2-1.5.8-2.9 2.2m-10 10.1c-1.3 1.6-1.2 1.7.4.4s2.1-2.1 1.3-2.1c-.2 0-1 .8-1.7 1.7m39.1-.6c0 .5.5.7 1 .4.6-.3 1-.8 1-1.1 0-.2-.4-.4-1-.4-.5 0-1 .5-1 1.1m-151.2 5.4c1.2 2.3 6 7 6.6 6.4.2-.2-1.4-2.2-3.6-4.4s-3.5-3.1-3-2m133.1 12.2c-5.4 5.4-9.6 9.9-9.4 10.1s5-4.2 10.7-9.7c5.6-5.6 9.9-10.1 9.4-10.1s-5.4 4.4-10.7 9.7m-79.9.8c1.3 1.4 2.6 2.5 2.8 2.5.3 0-.5-1.1-1.8-2.5s-2.6-2.5-2.8-2.5c-.3 0 .5 1.1 1.8 2.5m35.4 5.7-2.9 3.3 3.3-2.9c3-2.8 3.7-3.6 2.9-3.6-.2 0-1.6 1.5-3.3 3.2m32.2 6.3c-1.1.8-1.7 1.7-1.4 2 .2.3 1.3-.4 2.3-1.5 2.1-2.3 1.8-2.5-.9-.5m-7 7.1c-.5 1.4-.4 1.5.9.4 1.7-1.4 1.9-2 .6-2-.5 0-1.2.7-1.5 1.6m-73.6 8.8c0 .2.8 1 1.8 1.7 1.5 1.3 1.6 1.2.3-.4s-2.1-2.1-2.1-1.3m-139 1.5c0 .5.7 1.2 1.6 1.5 1.4.5 1.5.4.4-.9-1.4-1.7-2-1.9-2-.6m194.5 7.2c-.4.6-.5 1.2-.2 1.5.2.3.7-.2 1-1.1.7-1.7.1-2-.8-.4M557 1017.7c0 .6.8 1.7 1.8 2.4 1.6 1.3 1.6 1.3.2-.6-.8-1.1-1.6-2.2-1.7-2.4q-.3-.3-.3.6m150.5 5.3c-.3.6.1.7.9.4 1.8-.7 2.1-1.4.7-1.4-.6 0-1.3.4-1.6 1m-181.5 2c0 .5.5 1 1.1 1 .5 0 .7-.5.4-1-.3-.6-.8-1-1.1-1-.2 0-.4.4-.4 1m43.5 5.3c1 1.5 2 2.5 2.3 2.2s-.5-1.6-1.7-2.8l-2.3-2.2zm-6 40.7c-1.6.7-1.7.9-.3.9.9.1 2-.4 2.3-.9.7-1.1.7-1.1-2 0m-83.5 6.9c-1.2 2.4-1.3 3.4-.1 2.7.9-.6 2.2-4.6 1.5-4.6-.2 0-.8.9-1.4 1.9m4.4 14.5c1.1.9 2.4 1.6 3 1.6 1.2 0 .7-.5-2.4-1.9-2.4-1.1-2.4-1.1-.6.3m7.4 2.3c.6.2 1.8.2 2.5 0 .6-.3.1-.5-1.3-.5s-1.9.2-1.2.5"/></g><path d="M1015.3 449.7c3.2.2 8.1.2 11 0s.3-.3-5.8-.3c-6 0-8.4.1-5.2.3m-10.5 1c.7.3 1.6.2 1.9-.1.4-.3-.2-.6-1.3-.5-1.1 0-1.4.3-.6.6m-6 1c.7.3 1.6.2 1.9-.1.4-.3-.2-.6-1.3-.5-1.1 0-1.4.3-.6.6m40 0c.6.2 1.8.2 2.5 0 .6-.3.1-.5-1.3-.5s-1.9.2-1.2.5m-61 6.4c-2.1 1.1-3.8 2.2-3.8 2.4 0 .5 7.9-3.2 8.9-4.1 1.2-1.1-1.8-.1-5.1 1.7m81.2-.7c0 .2.7.7 1.6 1 .8.3 1.2.2.9-.4-.6-1-2.5-1.4-2.5-.6m4.1 2c1 .9 6.9 3.6 6.9 3.2 0-.6-5.5-3.6-6.6-3.6-.4 0-.5.2-.3.4m12.9 7c0 .2 1.4 1.4 3 2.6 1.7 1.2 3 1.9 3 1.6 0-.2-1.3-1.4-3-2.6-1.6-1.2-3-1.9-3-1.6m-120.6 6.8-2.9 3.3 3.3-2.9c3-2.8 3.7-3.6 2.9-3.6-.2 0-1.6 1.5-3.3 3.2m62.9-.5c1.5.2 3.9.2 5.5 0 1.5-.2.2-.4-2.8-.4s-4.3.2-2.7.4m67.2 1.3c1 1.1 2 2 2.3 2s-.3-.9-1.3-2-2-2-2.3-2 .3.9 1.3 2m-82.7.7c.7.3 1.6.2 1.9-.1.4-.3-.2-.6-1.3-.5-1.1 0-1.4.3-.6.6m33 0c.7.3 1.6.2 1.9-.1.4-.3-.2-.6-1.3-.5-1.1 0-1.4.3-.6.6m-100.8 18-16.5 16.8 16.8-16.5c15.5-15.3 17.2-17 16.4-17-.1 0-7.6 7.5-16.7 16.7m108.5-15.7c2.7 1.2 4.3 1.2 2.5 0-.8-.5-2.2-.9-3-.9-1 0-.8.3.5.9m51 5c3.3 3.3 6.2 6 6.4 6 .3 0-2.1-2.7-5.4-6s-6.2-6-6.4-6c-.3 0 2.1 2.7 5.4 6m-117.6 5.7c-1.3 1.6-1.2 1.7.4.4s2.1-2.1 1.3-2.1c-.2 0-1 .8-1.7 1.7m90.1 1.7c0 .2.8 1 1.8 1.7 1.5 1.3 1.6 1.2.3-.4s-2.1-2.1-2.1-1.3m35 .3c0 .5 1.2 2 2.8 3.4l2.7 2.4-2.5-3c-1.4-1.7-2.6-3.2-2.7-3.4q-.3-.3-.3.6m-135.6 7.5-1.9 2.3 2.3-1.9c2.1-1.8 2.7-2.6 1.9-2.6-.2 0-1.2 1-2.3 2.2m112.1 1.8c1 1.1 2 2 2.3 2s-.3-.9-1.3-2-2-2-2.3-2 .3.9 1.3 2m29.5-1.6c0 .2.8 1 1.8 1.7 1.5 1.3 1.6 1.2.3-.4s-2.1-2.1-2.1-1.3m-21.5 10.6c1 1.1 2 2 2.3 2s-.3-.9-1.3-2-2-2-2.3-2 .3.9 1.3 2m-178.1 10.2-1.9 2.3 2.3-1.9c2.1-1.8 2.7-2.6 1.9-2.6-.2 0-1.2 1-2.3 2.2m-52.9 53-48 48.3 48.3-48c26.5-26.4 48.2-48.1 48.2-48.2 0-.7-3.9 3.1-48.5 47.9m106-42.2c3.3 3.3 6.2 6 6.4 6 .3 0-2.1-2.7-5.4-6s-6.2-6-6.4-6c-.3 0 2.1 2.7 5.4 6m-23 14c4.4 4.4 8.2 8 8.5 8 .2 0-3.1-3.6-7.5-8s-8.2-8-8.5-8c-.2 0 3.1 3.6 7.5 8m33.5-3.5c1.9 1.9 3.6 3.5 3.9 3.5s-1-1.6-2.9-3.5-3.6-3.5-3.9-3.5 1 1.6 2.9 3.5m156.1-1.9c0 1.1.3 1.4.6.6.3-.7.2-1.6-.1-1.9-.3-.4-.6.2-.5 1.3m-25.1-.1c0 .5.5 1.7 1 2.5s1 1 1 .5c0-.6-.5-1.7-1-2.5s-1-1.1-1-.5m-180.6 2.7-1.9 2.3 2.3-1.9c1.2-1.1 2.2-2.1 2.2-2.3 0-.8-.8-.2-2.6 1.9m206.7 2.4c0 1.1.3 1.4.6.6.3-.7.2-1.6-.1-1.9-.3-.4-.6.2-.5 1.3M983 550.5c3.5 3.6 6.7 6.5 6.9 6.5.3 0-2.4-2.9-5.9-6.5s-6.7-6.5-6.9-6.5c-.3 0 2.4 2.9 5.9 6.5m147.2-3.5c0 1.4.2 1.9.5 1.2.2-.6.2-1.8 0-2.5-.3-.6-.5-.1-.5 1.3M962 566.5c8 8 14.7 14.5 15 14.5.2 0-6-6.5-14-14.5S948.3 552 948 552c-.2 0 6 6.5 14 14.5m169.3-6.5c0 4.7.2 6.6.4 4.2.2-2.3.2-6.1 0-8.5-.2-2.3-.4-.4-.4 4.3m-24.1-5c0 1.4.2 1.9.5 1.2.2-.6.2-1.8 0-2.5-.3-.6-.5-.1-.5 1.3m-.1 4.6c0 1.1.3 1.4.6.6.3-.7.2-1.6-.1-1.9-.3-.4-.6.2-.5 1.3M894 568.7l-6.5 6.8 6.8-6.5c6.2-6 7.2-7 6.4-7-.1 0-3.2 3-6.7 6.7m103-4.2c1.3 1.4 2.6 2.5 2.8 2.5.3 0-.5-1.1-1.8-2.5s-2.6-2.5-2.8-2.5c-.3 0 .5 1.1 1.8 2.5m110.1 3.1c0 1.1.3 1.4.6.6.3-.7.2-1.6-.1-1.9-.3-.4-.6.2-.5 1.3m-105.1 1.8c0 .2.8 1 1.8 1.7 1.5 1.3 1.6 1.2.3-.4s-2.1-2.1-2.1-1.3m128.2 4.1c0 1.6.2 2.2.5 1.2.2-.9.2-2.3 0-3-.3-.6-.5.1-.5 1.8m-24.1 1.1c0 1.1.3 1.4.6.6.3-.7.2-1.6-.1-1.9-.3-.4-.6.2-.5 1.3m-96.1 2.8c0 .2.8 1 1.8 1.7 1.5 1.3 1.6 1.2.3-.4s-2.1-2.1-2.1-1.3m-137.5 12.8-10 10.3 10.3-10c9.5-9.3 10.7-10.5 9.9-10.5-.1 0-4.7 4.6-10.2 10.2m230.6-5.6c0 1.1.3 1.4.6.6.3-.7.2-1.6-.1-1.9-.3-.4-.6.2-.5 1.3M985 589.2c4.1 4.5 5 5.3 5 4.5 0-.2-2.1-2.3-4.7-4.7l-4.8-4.5zm34-2.8c0 .2.8 1 1.8 1.7 1.5 1.3 1.6 1.2.3-.4s-2.1-2.1-2.1-1.3m82.6 2.3c-.6 1.4-.5 1.5.5.6.7-.7 1-1.5.7-1.8s-.9.2-1.2 1.2M993.5 597c1 1.1 2 2 2.3 2s-.3-.9-1.3-2-2-2-2.3-2 .3.9 1.3 2m-76.7.7c.7.3 1.6.2 1.9-.1.4-.3-.2-.6-1.3-.5-1.1 0-1.4.3-.6.6m118.7 4.3c2.1 2.2 4.1 4 4.4 4s-1.3-1.8-3.4-4-4.1-4-4.4-4 1.3 1.8 3.4 4m86.2-.5c-.9 1.9-1.5 3.5-1.2 3.5.7 0 3.7-6.1 3.3-6.6-.3-.2-1.2 1.2-2.1 3.1m-122.7 1c1.3 1.4 2.6 2.5 2.8 2.5.3 0-.5-1.1-1.8-2.5s-2.6-2.5-2.8-2.5c-.3 0 .5 1.1 1.8 2.5m94.9-.8c-1.3 1.6-1.2 1.7.4.4.9-.7 1.7-1.5 1.7-1.7 0-.8-.8-.3-2.1 1.3m-9.9 10.8c-4.1 4.1-7.2 7.5-6.9 7.5.2 0 3.8-3.4 7.9-7.5s7.2-7.5 6.9-7.5c-.2 0-3.8 3.4-7.9 7.5M931.2 609c0 1.9.2 2.7.5 1.7.2-.9.2-2.5 0-3.5-.3-.9-.5-.1-.5 1.8m-79.7 2.2-4 4.3 4.3-4c3.9-3.6 4.7-4.5 3.9-4.5-.2 0-2.1 1.9-4.2 4.2m48.4-.5-3.4 3.8 3.8-3.4c3.4-3.3 4.2-4.1 3.4-4.1-.2 0-1.9 1.7-3.8 3.7m105.1-2.3c0 .2.8 1 1.8 1.7 1.5 1.3 1.6 1.2.3-.4s-2.1-2.1-2.1-1.3m48.5 11.6c6.6 6.6 12.2 12 12.5 12 .2 0-4.9-5.4-11.5-12s-12.2-12-12.5-12c-.2 0 4.9 5.4 11.5 12m-161.1-1.8-2.9 3.3 3.3-2.9c3-2.8 3.7-3.6 2.9-3.6-.2 0-1.6 1.5-3.3 3.2m-52.9 5-7 7.3 7.3-7c6.7-6.4 7.7-7.5 6.9-7.5-.1 0-3.4 3.3-7.2 7.2m229.9 3-2.9 3.3 3.3-2.9c3-2.8 3.7-3.6 2.9-3.6-.2 0-1.6 1.5-3.3 3.2m28.1 8-10 10.3 10.3-10c9.5-9.3 10.7-10.5 9.9-10.5-.1 0-4.7 4.6-10.2 10.2M914 630.7l-5.5 5.8 5.8-5.5c3.1-3 5.7-5.6 5.7-5.7 0-.8-1 .1-6 5.4m107.5-4.7c.3.5.8 1 1.1 1 .2 0 .4-.5.4-1 0-.6-.5-1-1.1-1-.5 0-.7.4-.4 1m-246 24.2-24 24.3 24.3-24c22.5-22.3 24.7-24.5 23.9-24.5-.1 0-11 10.9-24.2 24.2m101.9-17-1.9 2.3 2.3-1.9c2.1-1.8 2.7-2.6 1.9-2.6-.2 0-1.2 1-2.3 2.2m-52 4-1.9 2.3 2.3-1.9c2.1-1.8 2.7-2.6 1.9-2.6-.2 0-1.2 1-2.3 2.2m75 7-1.9 2.3 2.3-1.9c2.1-1.8 2.7-2.6 1.9-2.6-.2 0-1.2 1-2.3 2.2m70.7-1.9c.2.1 1.5 1.1 2.9 2.2l2.5 2-1.9-2.3c-1.1-1.2-2.4-2.2-2.9-2.2q-.9 0-.6.3m69.9 3.2c1.3 1.4 2.6 2.5 2.8 2.5.3 0-.5-1.1-1.8-2.5s-2.6-2.5-2.8-2.5c-.3 0 .5 1.1 1.8 2.5m38.9 6.2-3.4 3.8 3.8-3.4c2-1.9 3.7-3.6 3.7-3.8 0-.8-.8 0-4.1 3.4m-131.5.5-2.9 3.3 3.3-2.9c3-2.8 3.7-3.6 2.9-3.6-.2 0-1.6 1.5-3.3 3.2m28.9.3c0 2.2.2 3 .4 1.7.2-1.2.2-3 0-4-.3-.9-.5.1-.4 2.3m-92.3 7.2-9.5 9.8 9.8-9.5c9-8.8 10.2-10 9.4-10-.1 0-4.5 4.4-9.7 9.7m-80.6-1.5-1.9 2.3 2.3-1.9c2.1-1.8 2.7-2.6 1.9-2.6-.2 0-1.2 1-2.3 2.2m136.1 2-4 4.3 4.3-4c3.9-3.6 4.7-4.5 3.9-4.5-.2 0-2.1 1.9-4.2 4.2m132.9-2-1.9 2.3 2.3-1.9c2.1-1.8 2.7-2.6 1.9-2.6-.2 0-1.2 1-2.3 2.2m-98.8 1.6-1.9 2.7 2.4-2.2c1.2-1.2 2.1-2.4 1.8-2.7-.2-.2-1.3.8-2.3 2.2m-5.7 5.9c-1.3 1.6-1.2 1.7.4.4s2.1-2.1 1.3-2.1c-.2 0-1 .8-1.7 1.7m91.6 5.5-7 7.3 7.3-7c6.7-6.4 7.7-7.5 6.9-7.5-.1 0-3.4 3.3-7.2 7.2m-128.1-3-2.9 3.3 3.3-2.9c3-2.8 3.7-3.6 2.9-3.6-.2 0-1.6 1.5-3.3 3.2m-95.5 4.5-2.4 2.8 2.8-2.4c1.5-1.4 2.7-2.6 2.7-2.8 0-.8-.8-.1-3.1 2.4m27.6 7.5-9 9.3 9.3-9c5-4.9 9.2-9.1 9.2-9.2 0-.8-1.2.4-9.5 8.9m59.5-3.8-4.4 5.1 4.9-4.7c2.7-2.6 4.7-4.9 4.5-5.1-.3-.2-2.5 2-5 4.7m35.4-1.2-2.9 3.3 3.3-2.9c3-2.8 3.7-3.6 2.9-3.6-.2 0-1.6 1.5-3.3 3.2m59.5.5c-1.3 1.6-1.2 1.7.4.4.9-.7 1.7-1.5 1.7-1.7 0-.8-.8-.3-2.1 1.3m-189 4c-1.3 1.6-1.2 1.7.4.4.9-.7 1.7-1.5 1.7-1.7 0-.8-.8-.3-2.1 1.3m219 3-2.4 2.8 2.8-2.4c1.5-1.4 2.7-2.6 2.7-2.8 0-.8-.8-.1-3.1 2.4m-326.9 21-20.5 20.8 20.8-20.5c11.4-11.3 20.7-20.6 20.7-20.7 0-.8-2 1.2-21 20.4m286.9-18-2.4 2.8 2.8-2.4c1.5-1.4 2.7-2.6 2.7-2.8 0-.8-.8-.1-3.1 2.4m-98 3-3.4 3.8 3.8-3.4c3.4-3.3 4.2-4.1 3.4-4.1-.2 0-1.9 1.7-3.8 3.7m-179.9 43-44.5 44.8 44.8-44.5c41.5-41.4 45.1-45 44.4-45-.1 0-20.2 20.1-44.7 44.7m213.4-41.5-1.9 2.3 2.3-1.9c1.2-1.1 2.2-2.1 2.2-2.3 0-.8-.8-.2-2.6 1.9m97.5-.5c-1.3 1.6-1.2 1.7.4.4.9-.7 1.7-1.5 1.7-1.7 0-.8-.8-.3-2.1 1.3m-214.9 28-27.5 27.8 27.8-27.5c15.2-15.1 27.7-27.6 27.7-27.7 0-.8-2.5 1.7-28 27.4m175.9-26c-1.3 1.6-1.2 1.7.4.4.9-.7 1.7-1.5 1.7-1.7 0-.8-.8-.3-2.1 1.3m35 2c-1.3 1.6-1.2 1.7.4.4.9-.7 1.7-1.5 1.7-1.7 0-.8-.8-.3-2.1 1.3m-21.9 21.8c-10.7 10.7-19.3 19.5-19 19.5s9.3-8.8 20-19.5 19.3-19.5 19-19.5-9.3 8.8-20 19.5m-30.1-6.8-2.4 2.8 2.8-2.4c1.5-1.4 2.7-2.6 2.7-2.8 0-.8-.8-.1-3.1 2.4m-98 3c-1.3 1.6-1.2 1.7.4.4s2.1-2.1 1.3-2.1c-.2 0-1 .8-1.7 1.7M776 733.5c-4.1 4.1-7.2 7.5-6.9 7.5.2 0 3.8-3.4 7.9-7.5s7.2-7.5 6.9-7.5c-.2 0-3.8 3.4-7.9 7.5m-89 5.2-11.5 11.8 11.8-11.5c10.9-10.7 12.2-12 11.4-12-.1 0-5.4 5.3-11.7 11.7m276.9-8-3.4 3.8 3.8-3.4c2-1.9 3.7-3.6 3.7-3.8 0-.8-.8 0-4.1 3.4m-96.4 1.5-4 4.3 4.3-4c3.9-3.6 4.7-4.5 3.9-4.5-.2 0-2.1 1.9-4.2 4.2m36.4-.5-3.4 3.8 3.8-3.4c3.4-3.3 4.2-4.1 3.4-4.1-.2 0-1.9 1.7-3.8 3.7m-6.5 6.5-1.9 2.3 2.3-1.9c2.1-1.8 2.7-2.6 1.9-2.6-.2 0-1.2 1-2.3 2.2m70.6 25.5-27.5 27.8 27.8-27.5c25.7-25.5 28.2-28 27.4-28-.1 0-12.6 12.5-27.7 27.7m-12.6-24.5-1.9 2.3 2.3-1.9c2.1-1.8 2.7-2.6 1.9-2.6-.2 0-1.2 1-2.3 2.2m-197.9 13-10 10.3 10.3-10c9.5-9.3 10.7-10.5 9.9-10.5-.1 0-4.7 4.6-10.2 10.2m128-2-6 6.3 6.3-6c5.8-5.5 6.7-6.5 5.9-6.5-.1 0-2.9 2.8-6.2 6.2M781 763.7l-13.5 13.8 13.8-13.5c7.5-7.4 13.7-13.6 13.7-13.7 0-.8-1.5.7-14 13.4M672 753c-.9.6-1 1-.3 1 .6 0 1.5-.5 1.8-1 .8-1.2.4-1.2-1.5 0m266.9 2.7-2.4 2.8 2.8-2.4c1.5-1.4 2.7-2.6 2.7-2.8 0-.8-.8-.1-3.1 2.4m-275.9 6-6.5 6.8 6.8-6.5c6.2-6 7.2-7 6.4-7-.1 0-3.2 3-6.7 6.7m211.9-1-3.4 3.8 3.8-3.4c3.4-3.3 4.2-4.1 3.4-4.1-.2 0-1.9 1.7-3.8 3.7m-12.4 12.5-8 8.3 8.3-8c4.5-4.4 8.2-8.1 8.2-8.2 0-.8-1.1.3-8.5 7.9m60.9-2-2.9 3.3 3.3-2.9c3-2.8 3.7-3.6 2.9-3.6-.2 0-1.6 1.5-3.3 3.2M625 799.7l-30.5 30.8 30.8-30.5c28.5-28.3 31.2-31 30.4-31-.1 0-13.9 13.8-30.7 30.7m57.4-19.5-2.9 3.3 3.3-2.9c3-2.8 3.7-3.6 2.9-3.6-.2 0-1.6 1.5-3.3 3.2m36.6 9.5-9.5 9.8 9.8-9.5c9-8.8 10.2-10 9.4-10-.1 0-4.5 4.4-9.7 9.7m189-3.2c-2.4 2.5-4.2 4.5-3.9 4.5s2.5-2 4.9-4.5 4.2-4.5 3.9-4.5-2.5 2-4.9 4.5m-232.1.2-2.4 2.8 2.8-2.4c1.5-1.4 2.7-2.6 2.7-2.8 0-.8-.8-.1-3.1 2.4m62.6 19.5-22 22.3 22.3-22c12.2-12.1 22.2-22.1 22.2-22.2 0-.8-2.1 1.3-22.5 21.9m111.4-20.5c-1.3 1.6-1.2 1.7.4.4s2.1-2.1 1.3-2.1c-.2 0-1 .8-1.7 1.7m-6.4 6.5-4 4.3 4.3-4c3.9-3.6 4.7-4.5 3.9-4.5-.2 0-2.1 1.9-4.2 4.2m-191 18-20 20.3 20.3-20c11.1-11 20.2-20.1 20.2-20.2 0-.8-1.9 1.1-20.5 19.9m247.4-15.5-2.4 2.8 2.8-2.4c1.5-1.4 2.7-2.6 2.7-2.8 0-.8-.8-.1-3.1 2.4m20.1 16.8c-10.7 10.7-19.3 19.5-19 19.5s9.3-8.8 20-19.5 19.3-19.5 19-19.5-9.3 8.8-20 19.5m-118.6-13.3-1.9 2.3 2.3-1.9c2.1-1.8 2.7-2.6 1.9-2.6-.2 0-1.2 1-2.3 2.2m-5.5 6.5-3.4 3.8 3.8-3.4c3.4-3.3 4.2-4.1 3.4-4.1-.2 0-1.9 1.7-3.8 3.7m96-2c-1.3 1.6-1.2 1.7.4.4.9-.7 1.7-1.5 1.7-1.7 0-.8-.8-.3-2.1 1.3M683.5 824c-6.6 6.6-11.7 12-11.5 12 .3 0 5.9-5.4 12.5-12s11.7-12 11.5-12c-.3 0-5.9 5.4-12.5 12m101.4-9.3c-1.3 1.6-1.2 1.7.4.4.9-.7 1.7-1.5 1.7-1.7 0-.8-.8-.3-2.1 1.3m-9.5 9.5-2.9 3.3 3.3-2.9c3-2.8 3.7-3.6 2.9-3.6-.2 0-1.6 1.5-3.3 3.2m93.5 1.5-3.4 3.8 3.8-3.4c3.4-3.3 4.2-4.1 3.4-4.1-.2 0-1.9 1.7-3.8 3.7m-61 1-2.4 2.8 2.8-2.4c1.5-1.4 2.7-2.6 2.7-2.8 0-.8-.8-.1-3.1 2.4m-50.4 15.5-14 14.3 14.3-14c7.8-7.7 14.2-14.1 14.2-14.2 0-.8-1.5.7-14.5 13.9m-45-10.2c-.3.6.1.7.9.4 1.8-.7 2.1-1.4.7-1.4-.6 0-1.3.4-1.6 1m-87.5 5.7-5.5 5.8 5.8-5.5c3.1-3 5.7-5.6 5.7-5.7 0-.8-1 .1-6 5.4m235 34-39.5 39.8 39.8-39.5c36.9-36.7 40.1-40 39.4-40-.1 0-18 17.9-39.7 39.7m-2.1-35-3.4 3.8 3.8-3.4c3.4-3.3 4.2-4.1 3.4-4.1-.2 0-1.9 1.7-3.8 3.7m-287.4 16.5-13 13.3 13.3-13c7.2-7.1 13.2-13.1 13.2-13.2 0-.8-1.5.6-13.5 12.9m98.7-8.7c0 1.6.2 2.2.5 1.2.2-.9.2-2.3 0-3-.3-.6-.5.1-.5 1.8m28.2 3.7-1.9 2.3 2.3-1.9c2.1-1.8 2.7-2.6 1.9-2.6-.2 0-1.2 1-2.3 2.2m-86 3-2.9 3.3 3.3-2.9c3-2.8 3.7-3.6 2.9-3.6-.2 0-1.6 1.5-3.3 3.2m58.6-2.6c.1 1.2 2 3.6 4.5 5.4 1.1.8.7-.1-1-2-1.6-1.9-3.1-3.7-3.2-3.9-.2-.2-.3 0-.3.5m113.9 2.1c-1.3 1.6-1.2 1.7.4.4.9-.7 1.7-1.5 1.7-1.7 0-.8-.8-.3-2.1 1.3m-103.6 6c.9.2 2.3.2 3 0 .6-.3-.1-.5-1.8-.5-1.6 0-2.2.2-1.2.5m58.1 4.5-1.9 2.3 2.3-1.9c2.1-1.8 2.7-2.6 1.9-2.6-.2 0-1.2 1-2.3 2.2m-142.5 5.5-3.4 3.8 3.8-3.4c3.4-3.3 4.2-4.1 3.4-4.1-.2 0-1.9 1.7-3.8 3.7m226.6 5.5-6 6.3 6.3-6c5.8-5.5 6.7-6.5 5.9-6.5-.1 0-2.9 2.8-6.2 6.2m-270.1-2-1.9 2.3 2.3-1.9c2.1-1.8 2.7-2.6 1.9-2.6-.2 0-1.2 1-2.3 2.2m-7.9 8.9c-.4.6-.5 1.2-.2 1.5.2.3.7-.2 1-1.1.7-1.7.1-2-.8-.4m170.9 5.1-1.9 2.3 2.3-1.9c2.1-1.8 2.7-2.6 1.9-2.6-.2 0-1.2 1-2.3 2.2m-174.8 5.3c-.3.9-.6 2.2-.5 2.8 0 .7.5.1 1-1.2s.8-2.6.5-2.8c-.2-.2-.6.3-1 1.2m26.8.7c-.4.7-.3.9.1.5.5-.4 11.1 9.3 23.5 21.5l22.5 22.3-22.5-22.8c-12.4-12.5-22.6-22.7-22.7-22.7s-.5.6-.9 1.2m44.6 2.3c1.3 1.4 2.6 2.5 2.8 2.5.3 0-.5-1.1-1.8-2.5s-2.6-2.5-2.8-2.5c-.3 0 .5 1.1 1.8 2.5m-73.9 5.1c0 1.1.3 1.4.6.6.3-.7.2-1.6-.1-1.9-.3-.4-.6.2-.5 1.3m90.9 11.6c7.4 7.6 13.6 13.8 13.7 13.8.8 0-.7-1.5-13.4-14l-13.8-13.5zm166.9-11.5c-1.3 1.6-1.2 1.7.4.4s2.1-2.1 1.3-2.1c-.2 0-1 .8-1.7 1.7m-59.5 1.5-1.9 2.3 2.3-1.9c2.1-1.8 2.7-2.6 1.9-2.6-.2 0-1.2 1-2.3 2.2m52 6-1.9 2.3 2.3-1.9c2.1-1.8 2.7-2.6 1.9-2.6-.2 0-1.2 1-2.3 2.2m-63.1-.5c.9.2 2.3.2 3 0 .6-.3-.1-.5-1.8-.5-1.6 0-2.2.2-1.2.5m47.2 16.5-11 11.3 11.3-11c6.1-6 11.2-11.1 11.2-11.2 0-.8-1.3.5-11.5 10.9m35.5 2.5-11.5 11.8 11.8-11.5c10.9-10.7 12.2-12 11.4-12-.1 0-5.4 5.3-11.7 11.7m-275.9-7.1c0 1.1.3 1.4.6.6.3-.7.2-1.6-.1-1.9-.3-.4-.6.2-.5 1.3m113.9 9.9c1.3 1.4 2.6 2.5 2.8 2.5.3 0-.5-1.1-1.8-2.5s-2.6-2.5-2.8-2.5c-.3 0 .5 1.1 1.8 2.5m6 6c1.3 1.4 2.6 2.5 2.8 2.5.3 0-.5-1.1-1.8-2.5s-2.6-2.5-2.8-2.5c-.3 0 .5 1.1 1.8 2.5m138.5 8.7-5 5.3 5.3-5c4.8-4.6 5.7-5.5 4.9-5.5-.1 0-2.5 2.4-5.2 5.2M671 951.5c6.9 6.9 12.7 12.5 13 12.5.2 0-5.1-5.6-12-12.5S659.3 939 659 939c-.2 0 5.1 5.6 12 12.5m-120.9-9.8c-.1.6-.4 2-.7 3-.5 1.7-.5 1.7.6 0 .6-1 .9-2.3.6-3-.3-.9-.5-.9-.5 0m75.4 5.3c3.3 3.3 6.2 6 6.4 6 .3 0-2.1-2.7-5.4-6s-6.2-6-6.4-6c-.3 0 2.1 2.7 5.4 6m123.9-2.8-2.9 3.3 3.3-2.9c3-2.8 3.7-3.6 2.9-3.6-.2 0-1.6 1.5-3.3 3.2m32.5 5.5c-1.3 1.6-1.2 1.7.4.4s2.1-2.1 1.3-2.1c-.2 0-1 .8-1.7 1.7m-45.4 7.5-7 7.3 7.3-7c6.7-6.4 7.7-7.5 6.9-7.5-.1 0-3.4 3.3-7.2 7.2m40.4-2.5-2.4 2.8 2.8-2.4c1.5-1.4 2.7-2.6 2.7-2.8 0-.8-.8-.1-3.1 2.4m-259.8 7.4c-.7 2.2-1.1 4.3-.8 4.5.2.2.9-1.4 1.6-3.7.7-2.2 1.1-4.3.8-4.5-.2-.2-.9 1.4-1.6 3.7M654.5 976c8.8 8.8 16.2 16 16.5 16s-6.7-7.2-15.5-16-16.2-16-16.5-16 6.7 7.2 15.5 16m71.4-8.3c-1.3 1.6-1.2 1.7.4.4.9-.7 1.7-1.5 1.7-1.7 0-.8-.8-.3-2.1 1.3m-28.9 9.8c4.7 4.7 8.7 8.5 9 8.5.2 0-3.3-3.8-8-8.5s-8.7-8.5-9-8.5c-.2 0 3.3 3.8 8 8.5m56.9.2c-1.3 1.6-1.2 1.7.4.4.9-.7 1.7-1.5 1.7-1.7 0-.8-.8-.3-2.1 1.3m-42.4 4.5-4 4.3 4.3-4c3.9-3.6 4.7-4.5 3.9-4.5-.2 0-2.1 1.9-4.2 4.2m37.9 0-1.9 2.3 2.3-1.9c1.2-1.1 2.2-2.1 2.2-2.3 0-.8-.8-.2-2.6 1.9m-4.5 4.5c-1.3 1.6-1.2 1.7.4.4s2.1-2.1 1.3-2.1c-.2 0-1 .8-1.7 1.7m-7.9 8-5.5 5.8 5.8-5.5c5.3-5 6.2-6 5.4-6-.1 0-2.7 2.6-5.7 5.7m-203.5-1.6c-.4.6-.5 1.2-.2 1.5.2.3.7-.2 1-1.1.7-1.7.1-2-.8-.4m7 8.9c2.1 2.2 4.1 4 4.4 4s-1.3-1.8-3.4-4-4.1-4-4.4-4 1.3 1.8 3.4 4m-35.4-1.4c0 1.1.3 1.4.6.6.3-.7.2-1.6-.1-1.9-.3-.4-.6.2-.5 1.3m174.4.4c1 1.1 2 2 2.3 2s-.3-.9-1.3-2-2-2-2.3-2 .3.9 1.3 2m39 12.2-9 9.3 9.3-9c8.5-8.3 9.7-9.5 8.9-9.5-.1 0-4.3 4.2-9.2 9.2m-215.9-5.7c-.3.9-.6 2.2-.5 2.8 0 .7.5.1 1-1.2s.8-2.6.5-2.8c-.2-.2-.6.3-1 1.2m44.4.8c0 .2 1.5 1.6 3.3 3.3l3.2 2.9-2.9-3.3c-2.8-3-3.6-3.7-3.6-2.9m7 7.1c0 .2.8 1 1.8 1.7 1.5 1.3 1.6 1.2.3-.4s-2.1-2.1-2.1-1.3m93.8.3c.7.3 1.6.2 1.9-.1.4-.3-.2-.6-1.3-.5-1.1 0-1.4.3-.6.6m-84.3 8.3c2.1 2.2 4.1 4 4.4 4s-1.3-1.8-3.4-4-4.1-4-4.4-4 1.3 1.8 3.4 4m57.5 0c-1.8 1.2-.2 1.2 2.5 0 1.3-.6 1.5-.9.5-.9-.8 0-2.2.4-3 .9m-123.9 1.6c0 1.1.3 1.4.6.6.3-.7.2-1.6-.1-1.9-.3-.4-.6.2-.5 1.3m34.6 5.5c1.8 1.8 3.5 3.1 3.7 2.8.3-.3-1.2-1.8-3.2-3.3l-3.7-2.9zm-36.6.5c0 1.1.3 1.4.6.6.3-.7.2-1.6-.1-1.9-.3-.4-.6.2-.5 1.3m78.4 2.4c1 1.1 2 2 2.3 2s-.3-.9-1.3-2-2-2-2.3-2 .3.9 1.3 2m15.5 1c-1.8 1.2-.2 1.2 2.5 0 1.3-.6 1.5-.9.5-.9-.8 0-2.2.4-3 .9m-44 8.6c2.5 2.7 4.7 4.9 5 4.7.2-.2-1.8-2.5-4.5-5.1l-4.9-4.7zm-62.4 26c-.4 1.4-.5 2.8-.3 3.1.3.2.8-.8 1.1-2.3.4-1.4.5-2.8.3-3.1-.3-.2-.8.8-1.1 2.3m-3.4 13.4c0 1.4.2 1.9.5 1.2.2-.6.2-1.8 0-2.5-.3-.6-.5-.1-.5 1.3m47.6.7c.7.3 1.6.2 1.9-.1.4-.3-.2-.6-1.3-.5-1.1 0-1.4.3-.6.6m-7.8 2.3c-.8.5-1 1-.5 1 .6 0 1.7-.5 2.5-1s1.1-1 .5-1c-.5 0-1.7.5-2.5 1"/><path fill="gray" d="M954 522.5c1.3 1.4 2.6 2.5 2.8 2.5.3 0-.5-1.1-1.8-2.5s-2.6-2.5-2.8-2.5c-.3 0 .5 1.1 1.8 2.5m-52.6 3.7-1.9 2.3 2.3-1.9c2.1-1.8 2.7-2.6 1.9-2.6-.2 0-1.2 1-2.3 2.2m43.6 22.2c0 .2.8 1 1.8 1.7 1.5 1.3 1.6 1.2.3-.4s-2.1-2.1-2.1-1.3m6 5.9c0 .2 1.5 1.6 3.3 3.3l3.2 2.9-2.9-3.3c-2.8-3-3.6-3.7-3.6-2.9m19.5 19.7c1 1.1 2 2 2.3 2s-.3-.9-1.3-2-2-2-2.3-2 .3.9 1.3 2m51 14c1 1.1 2 2 2.3 2s-.3-.9-1.3-2-2-2-2.3-2 .3.9 1.3 2M995 599.5c1.9 1.9 3.6 3.5 3.9 3.5s-1-1.6-2.9-3.5-3.6-3.5-3.9-3.5 1 1.6 2.9 3.5m-88.1 3.2-2.4 2.8 2.8-2.4c1.5-1.4 2.7-2.6 2.7-2.8 0-.8-.8-.1-3.1 2.4m94.6 3.3c1 1.1 2 2 2.3 2s-.3-.9-1.3-2-2-2-2.3-2 .3.9 1.3 2m7.5 7.3c0 .2 1.5 1.6 3.3 3.3l3.2 2.9-2.9-3.3c-2.8-3-3.6-3.7-3.6-2.9m-211.1 15.4-2.4 2.8 2.8-2.4c1.5-1.4 2.7-2.6 2.7-2.8 0-.8-.8-.1-3.1 2.4m294.5 9.5-1.9 2.3 2.3-1.9c2.1-1.8 2.7-2.6 1.9-2.6-.2 0-1.2 1-2.3 2.2m-127.6 3.5c.6.2 1.8.2 2.5 0 .6-.3.1-.5-1.3-.5s-1.9.2-1.2.5m78.2 4.7c0 .2.8 1 1.8 1.7 1.5 1.3 1.6 1.2.3-.4s-2.1-2.1-2.1-1.3m39.9 1.3c-1.3 1.6-1.2 1.7.4.4.9-.7 1.7-1.5 1.7-1.7 0-.8-.8-.3-2.1 1.3m-306 2c-1.3 1.6-1.2 1.7.4.4.9-.7 1.7-1.5 1.7-1.7 0-.8-.8-.3-2.1 1.3m-6 6-3.4 3.8 3.8-3.4c3.4-3.3 4.2-4.1 3.4-4.1-.2 0-1.9 1.7-3.8 3.7m306-2c-1.3 1.6-1.2 1.7.4.4.9-.7 1.7-1.5 1.7-1.7 0-.8-.8-.3-2.1 1.3m-46 11c-1.3 1.6-1.2 1.7.4.4.9-.7 1.7-1.5 1.7-1.7 0-.8-.8-.3-2.1 1.3m-273.5 4.5-1.9 2.3 2.3-1.9c2.1-1.8 2.7-2.6 1.9-2.6-.2 0-1.2 1-2.3 2.2m36 1-1.9 2.3 2.3-1.9c2.1-1.8 2.7-2.6 1.9-2.6-.2 0-1.2 1-2.3 2.2m263.5 3.5c-1.3 1.6-1.2 1.7.4.4.9-.7 1.7-1.5 1.7-1.7 0-.8-.8-.3-2.1 1.3m-221 1c-1.3 1.6-1.2 1.7.4.4.9-.7 1.7-1.5 1.7-1.7 0-.8-.8-.3-2.1 1.3m87 2c-1.3 1.6-1.2 1.7.4.4.9-.7 1.7-1.5 1.7-1.7 0-.8-.8-.3-2.1 1.3m94 2c-1.3 1.6-1.2 1.7.4.4.9-.7 1.7-1.5 1.7-1.7 0-.8-.8-.3-2.1 1.3m-232.9.4c0 .5.5.7 1 .4.6-.3 1-.8 1-1.1 0-.2-.4-.4-1-.4-.5 0-1 .5-1 1.1m133.9 2.6c-1.3 1.6-1.2 1.7.4.4s2.1-2.1 1.3-2.1c-.2 0-1 .8-1.7 1.7m131 0c-1.3 1.6-1.2 1.7.4.4.9-.7 1.7-1.5 1.7-1.7 0-.8-.8-.3-2.1 1.3m-223.5 3.5-1.9 2.3 2.3-1.9c2.1-1.8 2.7-2.6 1.9-2.6-.2 0-1.2 1-2.3 2.2m-85.5 1.5-2.4 2.8 2.8-2.4c1.5-1.4 2.7-2.6 2.7-2.8 0-.8-.8-.1-3.1 2.4m37 0-2.4 2.8 2.8-2.4c1.5-1.4 2.7-2.6 2.7-2.8 0-.8-.8-.1-3.1 2.4m131 6-3.4 3.8 3.8-3.4c3.4-3.3 4.2-4.1 3.4-4.1-.2 0-1.9 1.7-3.8 3.7m95 0c-1.3 1.6-1.2 1.7.4.4.9-.7 1.7-1.5 1.7-1.7 0-.8-.8-.3-2.1 1.3m-5 5-2.4 2.8 2.8-2.4c1.5-1.4 2.7-2.6 2.7-2.8 0-.8-.8-.1-3.1 2.4m-103.4 8.5-4 4.3 4.3-4c3.9-3.6 4.7-4.5 3.9-4.5-.2 0-2.1 1.9-4.2 4.2m128.5 1.3c-2.4 2.5-4.2 4.5-3.9 4.5s2.5-2 4.9-4.5 4.2-4.5 3.9-4.5-2.5 2-4.9 4.5m-220.6.7-2.9 3.3 3.3-2.9c3-2.8 3.7-3.6 2.9-3.6-.2 0-1.6 1.5-3.3 3.2m-6 6-1.9 2.3 2.3-1.9c2.1-1.8 2.7-2.6 1.9-2.6-.2 0-1.2 1-2.3 2.2m120 4.3c-1 .8-1.4 1.5-.8 1.5s1.7-.7 2.4-1.5c1.6-1.9.9-1.9-1.6 0M787 723.7l-5.5 5.8 5.8-5.5c3.1-3 5.7-5.6 5.7-5.7 0-.8-1 .1-6 5.4m116.5 7.5-8 8.3 8.3-8c4.5-4.4 8.2-8.1 8.2-8.2 0-.8-1.1.3-8.5 7.9m-37.1 3-1.9 2.3 2.3-1.9c2.1-1.8 2.7-2.6 1.9-2.6-.2 0-1.2 1-2.3 2.2m129.5.5c-1.3 1.6-1.2 1.7.4.4s2.1-2.1 1.3-2.1c-.2 0-1 .8-1.7 1.7m-312.5 6.5-1.9 2.3 2.3-1.9c2.1-1.8 2.7-2.6 1.9-2.6-.2 0-1.2 1-2.3 2.2m172.1 3-4 4.3 4.3-4c2.3-2.1 4.2-4 4.2-4.2 0-.8-.9 0-4.5 3.9m36.4-1.5c-1.3 1.6-1.2 1.7.4.4.9-.7 1.7-1.5 1.7-1.7 0-.8-.8-.3-2.1 1.3m96 0c-1.3 1.6-1.2 1.7.4.4.9-.7 1.7-1.5 1.7-1.7 0-.8-.8-.3-2.1 1.3m-189 4c-1.3 1.6-1.2 1.7.4.4.9-.7 1.7-1.5 1.7-1.7 0-.8-.8-.3-2.1 1.3m-123 2c-1.3 1.6-1.2 1.7.4.4.9-.7 1.7-1.5 1.7-1.7 0-.8-.8-.3-2.1 1.3m-13 14c-1.3 1.6-1.2 1.7.4.4.9-.7 1.7-1.5 1.7-1.7 0-.8-.8-.3-2.1 1.3m207 2c-1.3 1.6-1.2 1.7.4.4.9-.7 1.7-1.5 1.7-1.7 0-.8-.8-.3-2.1 1.3m-36 2c-1.3 1.6-1.2 1.7.4.4.9-.7 1.7-1.5 1.7-1.7 0-.8-.8-.3-2.1 1.3m-96 4-2.4 2.8 2.8-2.4c1.5-1.4 2.7-2.6 2.7-2.8 0-.8-.8-.1-3.1 2.4m92 0c-1.3 1.6-1.2 1.7.4.4.9-.7 1.7-1.5 1.7-1.7 0-.8-.8-.3-2.1 1.3m-98 7c-1.3 1.6-1.2 1.7.4.4.9-.7 1.7-1.5 1.7-1.7 0-.8-.8-.3-2.1 1.3m88 3c-1.3 1.6-1.2 1.7.4.4.9-.7 1.7-1.5 1.7-1.7 0-.8-.8-.3-2.1 1.3m26.5 7.5-1.9 2.3 2.3-1.9c2.1-1.8 2.7-2.6 1.9-2.6-.2 0-1.2 1-2.3 2.2m-8.4 8.3c-2.4 2.5-4.2 4.5-3.9 4.5s2.5-2 4.9-4.5 4.2-4.5 3.9-4.5-2.5 2-4.9 4.5m-33.1-.8c-1.3 1.6-1.2 1.7.4.4.9-.7 1.7-1.5 1.7-1.7 0-.8-.8-.3-2.1 1.3m82.1 10.8c-.7.9-1.1 1.7-.9 2 .3.2 1-.5 1.7-1.5 1.4-2.4 1-2.6-.8-.5m-103.1 10.2-3.4 3.8 3.8-3.4c3.4-3.3 4.2-4.1 3.4-4.1-.2 0-1.9 1.7-3.8 3.7m89.6 3.5-4 4.3 4.3-4c3.9-3.6 4.7-4.5 3.9-4.5-.2 0-2.1 1.9-4.2 4.2m-185.6.5c-1.3 1.6-1.2 1.7.4.4.9-.7 1.7-1.5 1.7-1.7 0-.8-.8-.3-2.1 1.3m90 2c-1.3 1.6-1.2 1.7.4.4.9-.7 1.7-1.5 1.7-1.7 0-.8-.8-.3-2.1 1.3m120 10c-1.3 1.6-1.2 1.7.4.4.9-.7 1.7-1.5 1.7-1.7 0-.8-.8-.3-2.1 1.3m-44 7c-1.3 1.6-1.2 1.7.4.4.9-.7 1.7-1.5 1.7-1.7 0-.8-.8-.3-2.1 1.3m-3.6 3.5c-1.5 2-2.5 3.8-2 3.8.3 0 1.2-1.1 2.1-2.5 1.7-2.6 1.6-3.5-.1-1.3m-270.4 1.5c-1.3 1.6-1.2 1.7.4.4.9-.7 1.7-1.5 1.7-1.7 0-.8-.8-.3-2.1 1.3m211 0c-1.3 1.6-1.2 1.7.4.4.9-.7 1.7-1.5 1.7-1.7 0-.8-.8-.3-2.1 1.3m95 0c-1.3 1.6-1.2 1.7.4.4.9-.7 1.7-1.5 1.7-1.7 0-.8-.8-.3-2.1 1.3m-44.5 7.4c-1.9 2.2-1.9 2.2.4.8 1.2-.8 2.2-1.7 2.2-2.1 0-1.2-.6-.9-2.6 1.3m-104.5 9.6c-1.3 1.6-1.2 1.7.4.4.9-.7 1.7-1.5 1.7-1.7 0-.8-.8-.3-2.1 1.3m37 0c-1.3 1.6-1.2 1.7.4.4.9-.7 1.7-1.5 1.7-1.7 0-.8-.8-.3-2.1 1.3m-220.5 8.5-1.9 2.3 2.3-1.9c2.1-1.8 2.7-2.6 1.9-2.6-.2 0-1.2 1-2.3 2.2m176.1-1.1c-.4.6-.5 1.2-.2 1.5.2.3.7-.2 1-1.1.7-1.7.1-2-.8-.4m-5.6 5.6-2.4 2.8 2.8-2.4c1.5-1.4 2.7-2.6 2.7-2.8 0-.8-.8-.1-3.1 2.4m33.5 3.5-1.9 2.3 2.3-1.9c2.1-1.8 2.7-2.6 1.9-2.6-.2 0-1.2 1-2.3 2.2M606.5 888c2.1 2.2 4.1 4 4.4 4s-1.3-1.8-3.4-4-4.1-4-4.4-4 1.3 1.8 3.4 4m106 3.6c0 1.3.3 2.4.8 2.4.4 0 .7-.9.7-1.9 0-1.1-.3-2.2-.7-2.4-.5-.3-.8.6-.8 1.9m-140.5.8c0 .2.8 1 1.8 1.7 1.5 1.3 1.6 1.2.3-.4s-2.1-2.1-2.1-1.3m222.9 7.3-3.4 3.8 3.8-3.4c3.4-3.3 4.2-4.1 3.4-4.1-.2 0-1.9 1.7-3.8 3.7M591 911.5c1.9 1.9 3.6 3.5 3.9 3.5s-1-1.6-2.9-3.5-3.6-3.5-3.9-3.5 1 1.6 2.9 3.5m181.9 10.2c-1.3 1.6-1.2 1.7.4.4.9-.7 1.7-1.5 1.7-1.7 0-.8-.8-.3-2.1 1.3M607.5 928c1 1.1 2 2 2.3 2s-.3-.9-1.3-2-2-2-2.3-2 .3.9 1.3 2m154.9 4.2-1.9 2.3 2.3-1.9c2.1-1.8 2.7-2.6 1.9-2.6-.2 0-1.2 1-2.3 2.2M614 934.5c1.3 1.4 2.6 2.5 2.8 2.5.3 0-.5-1.1-1.8-2.5s-2.6-2.5-2.8-2.5c-.3 0 .5 1.1 1.8 2.5m39-.1c0 .2.8 1 1.8 1.7 1.5 1.3 1.6 1.2.3-.4s-2.1-2.1-2.1-1.3m-31.5 7.6c1 1.1 2 2 2.3 2s-.3-.9-1.3-2-2-2-2.3-2 .3.9 1.3 2m127.5 3.7-5.5 5.8 5.8-5.5c3.1-3 5.7-5.6 5.7-5.7 0-.8-1 .1-6 5.4M629.5 950c1 1.1 2 2 2.3 2s-.3-.9-1.3-2-2-2-2.3-2 .3.9 1.3 2m148.9 4.2-1.9 2.3 2.3-1.9c1.2-1.1 2.2-2.1 2.2-2.3 0-.8-.8-.2-2.6 1.9m-39 1-1.9 2.3 2.3-1.9c2.1-1.8 2.7-2.6 1.9-2.6-.2 0-1.2 1-2.3 2.2m-97.4 7.3c1.3 1.4 2.6 2.5 2.8 2.5.3 0-.5-1.1-1.8-2.5s-2.6-2.5-2.8-2.5c-.3 0 .5 1.1 1.8 2.5m81.9 8.2-2.4 2.8 2.8-2.4c1.5-1.4 2.7-2.6 2.7-2.8 0-.8-.8-.1-3.1 2.4M565 1026.5c1.3 1.4 2.6 2.5 2.8 2.5.3 0-.5-1.1-1.8-2.5s-2.6-2.5-2.8-2.5c-.3 0 .5 1.1 1.8 2.5m-37-.1c0 .2.8 1 1.8 1.7 1.5 1.3 1.6 1.2.3-.4s-2.1-2.1-2.1-1.3m47 10c0 .2.7.9 1.5 1.6 1.3 1.1 1.4 1 .9-.4s-2.4-2.3-2.4-1.2m-63 23.6c0 .5.5 1 1.1 1 .5 0 .7-.5.4-1-.3-.6-.8-1-1.1-1-.2 0-.4.4-.4 1"/><path fill="#aaa" d="M945.9 482.7c-1.3 1.6-1.2 1.7.4.4.9-.7 1.7-1.5 1.7-1.7 0-.8-.8-.3-2.1 1.3m133.1 17.7c0 .2.8 1 1.8 1.7 1.5 1.3 1.6 1.2.3-.4s-2.1-2.1-2.1-1.3m-122 24.9c0 .2 1.5 1.6 3.3 3.3l3.2 2.9-2.9-3.3c-2.8-3-3.6-3.7-3.6-2.9m-69 14.4-5.5 5.8 5.8-5.5c3.1-3 5.7-5.6 5.7-5.7 0-.8-1 .1-6 5.4m43-5.3c0 .2.8 1 1.8 1.7 1.5 1.3 1.6 1.2.3-.4s-2.1-2.1-2.1-1.3m36 1c0 .2.8 1 1.8 1.7 1.5 1.3 1.6 1.2.3-.4s-2.1-2.1-2.1-1.3m-32 2.9c0 .2 1.5 1.6 3.3 3.3l3.2 2.9-2.9-3.3c-2.8-3-3.6-3.7-3.6-2.9m173.1 23.3c0 1.1.3 1.4.6.6.3-.7.2-1.6-.1-1.9-.3-.4-.6.2-.5 1.3m-149.1.7c0 .2 1.5 1.6 3.3 3.3l3.2 2.9-2.9-3.3c-2.8-3-3.6-3.7-3.6-2.9m-112 18.2c-2.4 2.5-4.2 4.5-3.9 4.5s2.5-2 4.9-4.5 4.2-4.5 3.9-4.5-2.5 2-4.9 4.5m187 21c1.3 1.4 2.6 2.5 2.8 2.5.3 0-.5-1.1-1.8-2.5s-2.6-2.5-2.8-2.5c-.3 0 .5 1.1 1.8 2.5m51.5 10.7-4 4.3 4.3-4c3.9-3.6 4.7-4.5 3.9-4.5-.2 0-2.1 1.9-4.2 4.2m-42.5-1.8c0 .2.8 1 1.8 1.7 1.5 1.3 1.6 1.2.3-.4s-2.1-2.1-2.1-1.3m-146.1 2.3c-1.3 1.6-1.2 1.7.4.4s2.1-2.1 1.3-2.1c-.2 0-1 .8-1.7 1.7m157.1 8.8c1.3 1.4 2.6 2.5 2.8 2.5.3 0-.5-1.1-1.8-2.5s-2.6-2.5-2.8-2.5c-.3 0 .5 1.1 1.8 2.5m-213.1 1.2c-1.3 1.6-1.2 1.7.4.4s2.1-2.1 1.3-2.1c-.2 0-1 .8-1.7 1.7m76.5 3.5-1.9 2.3 2.3-1.9c2.1-1.8 2.7-2.6 1.9-2.6-.2 0-1.2 1-2.3 2.2m182.5 4.5c-1.3 1.6-1.2 1.7.4.4.9-.7 1.7-1.5 1.7-1.7 0-.8-.8-.3-2.1 1.3m-189 2c-1.3 1.6-1.2 1.7.4.4s2.1-2.1 1.3-2.1c-.2 0-1 .8-1.7 1.7m-118 1c-1.3 1.6-1.2 1.7.4.4.9-.7 1.7-1.5 1.7-1.7 0-.8-.8-.3-2.1 1.3m113 4c-1.3 1.6-1.2 1.7.4.4.9-.7 1.7-1.5 1.7-1.7 0-.8-.8-.3-2.1 1.3m-5 5-2.4 2.8 2.8-2.4c1.5-1.4 2.7-2.6 2.7-2.8 0-.8-.8-.1-3.1 2.4m72.7 2.5c.3.5 1 .6 1.5.3 1.3-.9 1.1-1.2-.6-1.2-.8 0-1.2.4-.9.9m91.3 20.5c-1.3 1.6-1.2 1.7.4.4.9-.7 1.7-1.5 1.7-1.7 0-.8-.8-.3-2.1 1.3m-39 4-2.4 2.8 2.8-2.4c1.5-1.4 2.7-2.6 2.7-2.8 0-.8-.8-.1-3.1 2.4m-6 6c-1.3 1.6-1.2 1.7.4.4s2.1-2.1 1.3-2.1c-.2 0-1 .8-1.7 1.7m-10 10c-1.3 1.6-1.2 1.7.4.4.9-.7 1.7-1.5 1.7-1.7 0-.8-.8-.3-2.1 1.3m-277.5 8.5-1.9 2.3 2.3-1.9c2.1-1.8 2.7-2.6 1.9-2.6-.2 0-1.2 1-2.3 2.2m296.5 7.5c-1.3 1.6-1.2 1.7.4.4.9-.7 1.7-1.5 1.7-1.7 0-.8-.8-.3-2.1 1.3m-40 5-2.4 2.8 2.8-2.4c1.5-1.4 2.7-2.6 2.7-2.8 0-.8-.8-.1-3.1 2.4m-15.9 16-6.5 6.8 6.8-6.5c6.2-6 7.2-7 6.4-7-.1 0-3.2 3-6.7 6.7m36.9-2c-1.3 1.6-1.2 1.7.4.4.9-.7 1.7-1.5 1.7-1.7 0-.8-.8-.3-2.1 1.3m-6.4 6.5-4 4.3 4.3-4c3.9-3.6 4.7-4.5 3.9-4.5-.2 0-2.1 1.9-4.2 4.2m-226.6 6.5-3.4 3.8 3.8-3.4c3.4-3.3 4.2-4.1 3.4-4.1-.2 0-1.9 1.7-3.8 3.7m186.5-1.5-1.9 2.3 2.3-1.9c2.1-1.8 2.7-2.6 1.9-2.6-.2 0-1.2 1-2.3 2.2m-6 6-2.9 3.3 3.3-2.9c3-2.8 3.7-3.6 2.9-3.6-.2 0-1.6 1.5-3.3 3.2m-187.5 2.5-2.4 2.8 2.8-2.4c1.5-1.4 2.7-2.6 2.7-2.8 0-.8-.8-.1-3.1 2.4m179.6 5.3c-2.1 2.1-4.3 3.6-4.9 3.3s-.8-.3-.4.2c.4.4.2 1.5-.4 2.4-.7.9 1.4-.9 4.5-3.9s5.7-5.6 5.7-5.7c0-.7-.9 0-4.5 3.7m-184.6-.3c-1.3 1.6-1.2 1.7.4.4.9-.7 1.7-1.5 1.7-1.7 0-.8-.8-.3-2.1 1.3m124 0c-1.3 1.6-1.2 1.7.4.4s2.1-2.1 1.3-2.1c-.2 0-1 .8-1.7 1.7m95.5.5-1.9 2.3 2.3-1.9c2.1-1.8 2.7-2.6 1.9-2.6-.2 0-1.2 1-2.3 2.2m-9.9 10-5 5.3 5.3-5c4.8-4.6 5.7-5.5 4.9-5.5-.1 0-2.5 2.4-5.2 5.2m-38 3-4 4.3 4.3-4c2.3-2.1 4.2-4 4.2-4.2 0-.8-.9 0-4.5 3.9m-61.6.5c-1.3 1.6-1.2 1.7.4.4.9-.7 1.7-1.5 1.7-1.7 0-.8-.8-.3-2.1 1.3m90 6-2.4 2.8 2.8-2.4c1.5-1.4 2.7-2.6 2.7-2.8 0-.8-.8-.1-3.1 2.4m-306 1c-1.3 1.6-1.2 1.7.4.4.9-.7 1.7-1.5 1.7-1.7 0-.8-.8-.3-2.1 1.3m-5 5c-1.3 1.6-1.2 1.7.4.4.9-.7 1.7-1.5 1.7-1.7 0-.8-.8-.3-2.1 1.3m299.1 6-6.5 6.8 6.8-6.5c3.7-3.5 6.7-6.6 6.7-6.7 0-.8-1 .2-7 6.4m-97 1-5.5 5.8 5.8-5.5c5.3-5 6.2-6 5.4-6-.1 0-2.7 2.6-5.7 5.7m-207.6-1.5-1.9 2.3 2.3-1.9c2.1-1.8 2.7-2.6 1.9-2.6-.2 0-1.2 1-2.3 2.2m-8.4 8.5-5.5 5.8 5.8-5.5c3.1-3 5.7-5.6 5.7-5.7 0-.8-1 .1-6 5.4m83.5.5-4 4.3 4.3-4c3.9-3.6 4.7-4.5 3.9-4.5-.2 0-2.1 1.9-4.2 4.2m217.5 3.3c-2.4 2.5-4.2 4.5-3.9 4.5s2.5-2 4.9-4.5 4.2-4.5 3.9-4.5-2.5 2-4.9 4.5m-9.5 9.7-4 4.3 4.3-4c3.9-3.6 4.7-4.5 3.9-4.5-.2 0-2.1 1.9-4.2 4.2m-309.1 4-1.9 2.3 2.3-1.9c2.1-1.8 2.7-2.6 1.9-2.6-.2 0-1.2 1-2.3 2.2m299.5 5.5c-1.3 1.6-1.2 1.7.4.4.9-.7 1.7-1.5 1.7-1.7 0-.8-.8-.3-2.1 1.3m-274.4 5.5-6 6.3 6.3-6c5.8-5.5 6.7-6.5 5.9-6.5-.1 0-2.9 2.8-6.2 6.2m268 1-4 4.3 4.3-4c3.9-3.6 4.7-4.5 3.9-4.5-.2 0-2.1 1.9-4.2 4.2m-187.6.5c-1.3 1.6-1.2 1.7.4.4.9-.7 1.7-1.5 1.7-1.7 0-.8-.8-.3-2.1 1.3m-91 9c-1.3 1.6-1.2 1.7.4.4.9-.7 1.7-1.5 1.7-1.7 0-.8-.8-.3-2.1 1.3m265.5 3.5-2.9 3.3 3.3-2.9c3-2.8 3.7-3.6 2.9-3.6-.2 0-1.6 1.5-3.3 3.2m-275 6-2.9 3.3 3.3-2.9c3-2.8 3.7-3.6 2.9-3.6-.2 0-1.6 1.5-3.3 3.2m231 1-2.9 3.3 3.3-2.9c3-2.8 3.7-3.6 2.9-3.6-.2 0-1.6 1.5-3.3 3.2m-61.5 3.5c-1.3 1.6-1.2 1.7.4.4s2.1-2.1 1.3-2.1c-.2 0-1 .8-1.7 1.7m93.5 1.5-2.9 3.3 3.3-2.9c3-2.8 3.7-3.6 2.9-3.6-.2 0-1.6 1.5-3.3 3.2M618 843.5c-2.4 2.5-4.2 4.5-3.9 4.5s2.5-2 4.9-4.5 4.2-4.5 3.9-4.5-2.5 2-4.9 4.5m81.5 1.7-6 6.3 6.3-6c5.8-5.5 6.7-6.5 5.9-6.5-.1 0-2.9 2.8-6.2 6.2m-29.3-1.2c0 1.4.2 1.9.5 1.2.2-.6.2-1.8 0-2.5-.3-.6-.5-.1-.5 1.3m211.2 5.2-2.9 3.3 3.3-2.9c3-2.8 3.7-3.6 2.9-3.6-.2 0-1.6 1.5-3.3 3.2m-272.5 3.5-3.4 3.8 3.8-3.4c3.4-3.3 4.2-4.1 3.4-4.1-.2 0-1.9 1.7-3.8 3.7m-37.5.5-2.9 3.3 3.3-2.9c3-2.8 3.7-3.6 2.9-3.6-.2 0-1.6 1.5-3.3 3.2m110.9 2.5c.9.2 2.3.2 3 0 .6-.3-.1-.5-1.8-.5-1.6 0-2.2.2-1.2.5m58.1 2.5-1.9 2.3 2.3-1.9c2.1-1.8 2.7-2.6 1.9-2.6-.2 0-1.2 1-2.3 2.2m-143.5 6.5-3.4 3.8 3.8-3.4c3.4-3.3 4.2-4.1 3.4-4.1-.2 0-1.9 1.7-3.8 3.7m136 1-2.4 2.8 2.8-2.4c1.5-1.4 2.7-2.6 2.7-2.8 0-.8-.8-.1-3.1 2.4m93 2c-1.3 1.6-1.2 1.7.4.4.9-.7 1.7-1.5 1.7-1.7 0-.8-.8-.3-2.1 1.3m-7.5 7.5-2.9 3.3 3.3-2.9c3-2.8 3.7-3.6 2.9-3.6-.2 0-1.6 1.5-3.3 3.2m32.5 4.5c-1.3 1.6-1.2 1.7.4.4.9-.7 1.7-1.5 1.7-1.7 0-.8-.8-.3-2.1 1.3m-6.5 6.5-2.9 3.3 3.3-2.9c3-2.8 3.7-3.6 2.9-3.6-.2 0-1.6 1.5-3.3 3.2m-6.5 6.5c-1.3 1.6-1.2 1.7.4.4s2.1-2.1 1.3-2.1c-.2 0-1 .8-1.7 1.7M612.5 894c1 1.1 2 2 2.3 2s-.3-.9-1.3-2-2-2-2.3-2 .3.9 1.3 2m-37.5 1.4c0 .2.8 1 1.8 1.7 1.5 1.3 1.6 1.2.3-.4s-2.1-2.1-2.1-1.3m44.5 5.6c2.1 2.2 4.1 4 4.4 4s-1.3-1.8-3.4-4-4.1-4-4.4-4 1.3 1.8 3.4 4m-37.5 1.4c0 .2.8 1 1.8 1.7 1.5 1.3 1.6 1.2.3-.4s-2.1-2.1-2.1-1.3m205.4 4.8-2.9 3.3 3.3-2.9c3-2.8 3.7-3.6 2.9-3.6-.2 0-1.6 1.5-3.3 3.2M646 927.5c3.5 3.6 6.7 6.5 6.9 6.5.3 0-2.4-2.9-5.9-6.5s-6.7-6.5-6.9-6.5c-.3 0 2.4 2.9 5.9 6.5m-44-5.1c0 .2.8 1 1.8 1.7 1.5 1.3 1.6 1.2.3-.4s-2.1-2.1-2.1-1.3m56 17.1c1.3 1.4 2.6 2.5 2.8 2.5.3 0-.5-1.1-1.8-2.5s-2.6-2.5-2.8-2.5c-.3 0 .5 1.1 1.8 2.5m7 7c1.9 1.9 3.6 3.5 3.9 3.5s-1-1.6-2.9-3.5-3.6-3.5-3.9-3.5 1 1.6 2.9 3.5m66.4 16.7-2.9 3.3 3.3-2.9c3-2.8 3.7-3.6 2.9-3.6-.2 0-1.6 1.5-3.3 3.2m-83.4 5.2c0 .2.8 1 1.8 1.7 1.5 1.3 1.6 1.2.3-.4s-2.1-2.1-2.1-1.3m9.5 9.6c2.1 2.2 4.1 4 4.4 4s-1.3-1.8-3.4-4-4.1-4-4.4-4 1.3 1.8 3.4 4m61.4-2.3c-1.3 1.6-1.2 1.7.4.4s2.1-2.1 1.3-2.1c-.2 0-1 .8-1.7 1.7M536 998.4c0 .2.8 1 1.8 1.7 1.5 1.3 1.6 1.2.3-.4s-2.1-2.1-2.1-1.3m145 3c0 .2.8 1 1.8 1.7 1.5 1.3 1.6 1.2.3-.4s-2.1-2.1-2.1-1.3m34.9 13.3c-1.3 1.6-1.2 1.7.4.4.9-.7 1.7-1.5 1.7-1.7 0-.8-.8-.3-2.1 1.3M480.2 1083c0 1.4.2 1.9.5 1.2.2-.6.2-1.8 0-2.5-.3-.6-.5-.1-.5 1.3m12.6 10.7c.7.3 1.6.2 1.9-.1.4-.3-.2-.6-1.3-.5-1.1 0-1.4.3-.6.6"/><path fill="#d4d4d4" d="M1093 481.4c0 .2.8 1 1.8 1.7 1.5 1.3 1.6 1.2.3-.4s-2.1-2.1-2.1-1.3m-153 7.1c-2.4 2.5-4.2 4.5-3.9 4.5s2.5-2 4.9-4.5 4.2-4.5 3.9-4.5-2.5 2-4.9 4.5m157-3.1c0 .2.8 1 1.8 1.7 1.5 1.3 1.6 1.2.3-.4s-2.1-2.1-2.1-1.3m-168.5 14.8-4 4.3 4.3-4c3.9-3.6 4.7-4.5 3.9-4.5-.2 0-2.1 1.9-4.2 4.2m150-2.2c1 1.1 2 2 2.3 2s-.3-.9-1.3-2-2-2-2.3-2 .3.9 1.3 2m-118.6 4.7c-1.3 1.6-1.2 1.7.4.4.9-.7 1.7-1.5 1.7-1.7 0-.8-.8-.3-2.1 1.3m11.1 36.7c0 .2.8 1 1.8 1.7 1.5 1.3 1.6 1.2.3-.4s-2.1-2.1-2.1-1.3m6 6.1c1.3 1.4 2.6 2.5 2.8 2.5.3 0-.5-1.1-1.8-2.5s-2.6-2.5-2.8-2.5c-.3 0 .5 1.1 1.8 2.5m-99.1 4.2-2.4 2.8 2.8-2.4c1.5-1.4 2.7-2.6 2.7-2.8 0-.8-.8-.1-3.1 2.4m30 4-2.4 2.8 2.8-2.4c1.5-1.4 2.7-2.6 2.7-2.8 0-.8-.8-.1-3.1 2.4m-38.4 4.5-5 5.3 5.3-5c4.8-4.6 5.7-5.5 4.9-5.5-.1 0-2.5 2.4-5.2 5.2m238.7-.7c0 1.6.2 2.2.5 1.2.2-.9.2-2.3 0-3-.3-.6-.5.1-.5 1.8m-.1 8.1c0 1.1.3 1.4.6.6.3-.7.2-1.6-.1-1.9-.3-.4-.6.2-.5 1.3m22 0c0 1.1.3 1.4.6.6.3-.7.2-1.6-.1-1.9-.3-.4-.6.2-.5 1.3M836 591.7l-6.5 6.8 6.8-6.5c6.2-6 7.2-7 6.4-7-.1 0-3.2 3-6.7 6.7m37.4-3.5-2.9 3.3 3.3-2.9c3-2.8 3.7-3.6 2.9-3.6-.2 0-1.6 1.5-3.3 3.2m35.5 14.5c-1.3 1.6-1.2 1.7.4.4.9-.7 1.7-1.5 1.7-1.7 0-.8-.8-.3-2.1 1.3m128.1 1.7c0 .2.8 1 1.8 1.7 1.5 1.3 1.6 1.2.3-.4s-2.1-2.1-2.1-1.3m-134.1 4.3-3.4 3.8 3.8-3.4c2-1.9 3.7-3.6 3.7-3.8 0-.8-.8 0-4.1 3.4m-92 8c-1.3 1.6-1.2 1.7.4.4s2.1-2.1 1.3-2.1c-.2 0-1 .8-1.7 1.7m110 6c-1.3 1.6-1.2 1.7.4.4.9-.7 1.7-1.5 1.7-1.7 0-.8-.8-.3-2.1 1.3m136.1 1.6c0 .2 1.5 1.6 3.3 3.3l3.2 2.9-2.9-3.3c-2.8-3-3.6-3.7-3.6-2.9m-175 37.4-15.5 15.8 15.8-15.5c8.6-8.5 15.7-15.6 15.7-15.7 0-.8-1.6.8-16 15.4m65.4-7.5-1.9 2.3 2.3-1.9c2.1-1.8 2.7-2.6 1.9-2.6-.2 0-1.2 1-2.3 2.2m-6.5 6.5-2.4 2.8 2.8-2.4c1.5-1.4 2.7-2.6 2.7-2.8 0-.8-.8-.1-3.1 2.4m16 16-2.4 2.8 2.8-2.4c1.5-1.4 2.7-2.6 2.7-2.8 0-.8-.8-.1-3.1 2.4m-97.4 7.5-4 4.3 4.3-4c2.3-2.1 4.2-4 4.2-4.2 0-.8-.9 0-4.5 3.9m-14 14-4 4.3 4.3-4c3.9-3.6 4.7-4.5 3.9-4.5-.2 0-2.1 1.9-4.2 4.2m-119.1 2-1.9 2.3 2.3-1.9c2.1-1.8 2.7-2.6 1.9-2.6-.2 0-1.2 1-2.3 2.2m27.5 7.5-2.4 2.8 2.8-2.4c1.5-1.4 2.7-2.6 2.7-2.8 0-.8-.8-.1-3.1 2.4m78.1 4-6.5 6.8 6.8-6.5c3.7-3.5 6.7-6.6 6.7-6.7 0-.8-1 .2-7 6.4m-115.6-1.5-2.9 3.3 3.3-2.9c3-2.8 3.7-3.6 2.9-3.6-.2 0-1.6 1.5-3.3 3.2m30 5-1.9 2.3 2.3-1.9c2.1-1.8 2.7-2.6 1.9-2.6-.2 0-1.2 1-2.3 2.2m-38 3-2.9 3.3 3.3-2.9c3-2.8 3.7-3.6 2.9-3.6-.2 0-1.6 1.5-3.3 3.2m113 4-1.9 2.3 2.3-1.9c1.2-1.1 2.2-2.1 2.2-2.3 0-.8-.8-.2-2.6 1.9m-91.5 9.5-2.4 2.8 2.8-2.4c1.5-1.4 2.7-2.6 2.7-2.8 0-.8-.8-.1-3.1 2.4m130 10-3.4 3.8 3.8-3.4c2-1.9 3.7-3.6 3.7-3.8 0-.8-.8 0-4.1 3.4m-143.4 3.5-6 6.3 6.3-6c5.8-5.5 6.7-6.5 5.9-6.5-.1 0-2.9 2.8-6.2 6.2m84.4-2.5-3.4 3.8 3.8-3.4c2-1.9 3.7-3.6 3.7-3.8 0-.8-.8 0-4.1 3.4m-7.5 7.5-1.9 2.3 2.3-1.9c1.2-1.1 2.2-2.1 2.2-2.3 0-.8-.8-.2-2.6 1.9m-38.4 5.5-5.5 5.8 5.8-5.5c3.1-3 5.7-5.6 5.7-5.7 0-.8-1 .1-6 5.4m-52 3-6.5 6.8 6.8-6.5c6.2-6 7.2-7 6.4-7-.1 0-3.2 3-6.7 6.7m142.9-3c-1.3 1.6-1.2 1.7.4.4s2.1-2.1 1.3-2.1c-.2 0-1 .8-1.7 1.7m-68.4 10.5-8 8.3 8.3-8c4.5-4.4 8.2-8.1 8.2-8.2 0-.8-1.1.3-8.5 7.9m-32.1-1-1.9 2.3 2.3-1.9c2.1-1.8 2.7-2.6 1.9-2.6-.2 0-1.2 1-2.3 2.2m183.5 1.5-2.4 2.8 2.8-2.4c1.5-1.4 2.7-2.6 2.7-2.8 0-.8-.8-.1-3.1 2.4m-240.4 6.5-5 5.3 5.3-5c4.8-4.6 5.7-5.5 4.9-5.5-.1 0-2.5 2.4-5.2 5.2m272.4-3.5c-1.3 1.6-1.2 1.7.4.4.9-.7 1.7-1.5 1.7-1.7 0-.8-.8-.3-2.1 1.3m-39.5 4.5-2.9 3.3 3.3-2.9c3-2.8 3.7-3.6 2.9-3.6-.2 0-1.6 1.5-3.3 3.2m-240.5 6.5c-1.3 1.6-1.2 1.7.4.4s2.1-2.1 1.3-2.1c-.2 0-1 .8-1.7 1.7m75.1 6.8c-2.4 2.5-4.2 4.5-3.9 4.5s2.5-2 4.9-4.5 4.2-4.5 3.9-4.5-2.5 2-4.9 4.5m-40.5 6.7-4 4.3 4.3-4c3.9-3.6 4.7-4.5 3.9-4.5-.2 0-2.1 1.9-4.2 4.2m-82.6-1.5c-1.3 1.6-1.2 1.7.4.4.9-.7 1.7-1.5 1.7-1.7 0-.8-.8-.3-2.1 1.3m34 2c-1.3 1.6-1.2 1.7.4.4.9-.7 1.7-1.5 1.7-1.7 0-.8-.8-.3-2.1 1.3m76.6 5.5-4 4.3 4.3-4c3.9-3.6 4.7-4.5 3.9-4.5-.2 0-2.1 1.9-4.2 4.2m-86 4-4 4.3 4.3-4c3.9-3.6 4.7-4.5 3.9-4.5-.2 0-2.1 1.9-4.2 4.2m140.4-.5c-1.3 1.6-1.2 1.7.4.4.9-.7 1.7-1.5 1.7-1.7 0-.8-.8-.3-2.1 1.3m127.5 1.5-1.9 2.3 2.3-1.9c2.1-1.8 2.7-2.6 1.9-2.6-.2 0-1.2 1-2.3 2.2m-192.5 5.5-3.4 3.8 3.8-3.4c3.4-3.3 4.2-4.1 3.4-4.1-.2 0-1.9 1.7-3.8 3.7m-119 1c-1.3 1.6-1.2 1.7.4.4.9-.7 1.7-1.5 1.7-1.7 0-.8-.8-.3-2.1 1.3m109.5 8.5-2.9 3.3 3.3-2.9c3-2.8 3.7-3.6 2.9-3.6-.2 0-1.6 1.5-3.3 3.2m-117.5-.5c-1.3 1.6-1.2 1.7.4.4.9-.7 1.7-1.5 1.7-1.7 0-.8-.8-.3-2.1 1.3m34 2c-1.3 1.6-1.2 1.7.4.4.9-.7 1.7-1.5 1.7-1.7 0-.8-.8-.3-2.1 1.3m171 1c-1.3 1.6-1.2 1.7.4.4.9-.7 1.7-1.5 1.7-1.7 0-.8-.8-.3-2.1 1.3m-178 6-2.4 2.8 2.8-2.4c1.5-1.4 2.7-2.6 2.7-2.8 0-.8-.8-.1-3.1 2.4m171.5.5-2.9 3.3 3.3-2.9c3-2.8 3.7-3.6 2.9-3.6-.2 0-1.6 1.5-3.3 3.2m55.5 6.5-3.4 3.8 3.8-3.4c2-1.9 3.7-3.6 3.7-3.8 0-.8-.8 0-4.1 3.4m-100.4 5.5-8 8.3 8.3-8c4.5-4.4 8.2-8.1 8.2-8.2 0-.8-1.1.3-8.5 7.9m36.4-3.5-2.4 2.8 2.8-2.4c1.5-1.4 2.7-2.6 2.7-2.8 0-.8-.8-.1-3.1 2.4m-8.5 8.5-1.9 2.3 2.3-1.9c2.1-1.8 2.7-2.6 1.9-2.6-.2 0-1.2 1-2.3 2.2m-39.5 6.5-2.4 2.8 2.8-2.4c1.5-1.4 2.7-2.6 2.7-2.8 0-.8-.8-.1-3.1 2.4m-183 7-3.4 3.8 3.8-3.4c3.4-3.3 4.2-4.1 3.4-4.1-.2 0-1.9 1.7-3.8 3.7m304.5 1.5-1.9 2.3 2.3-1.9c2.1-1.8 2.7-2.6 1.9-2.6-.2 0-1.2 1-2.3 2.2m-5 5-1.9 2.3 2.3-1.9c2.1-1.8 2.7-2.6 1.9-2.6-.2 0-1.2 1-2.3 2.2m-37.5 2.5c-1.3 1.6-1.2 1.7.4.4.9-.7 1.7-1.5 1.7-1.7 0-.8-.8-.3-2.1 1.3m30.6 4.5-4 4.3 4.3-4c3.9-3.6 4.7-4.5 3.9-4.5-.2 0-2.1 1.9-4.2 4.2m-308.6 1.5c-1.3 1.6-1.2 1.7.4.4.9-.7 1.7-1.5 1.7-1.7 0-.8-.8-.3-2.1 1.3m270 2-2.4 2.8 2.8-2.4c1.5-1.4 2.7-2.6 2.7-2.8 0-.8-.8-.1-3.1 2.4m14 21-3.4 3.8 3.8-3.4c3.4-3.3 4.2-4.1 3.4-4.1-.2 0-1.9 1.7-3.8 3.7m-8 8-2.4 2.8 2.8-2.4c1.5-1.4 2.7-2.6 2.7-2.8 0-.8-.8-.1-3.1 2.4M628.5 910c1 1.1 2 2 2.3 2s-.3-.9-1.3-2-2-2-2.3-2 .3.9 1.3 2m153.9 2.2-1.9 2.3 2.3-1.9c2.1-1.8 2.7-2.6 1.9-2.6-.2 0-1.2 1-2.3 2.2M633.5 915c1 1.1 2 2 2.3 2s-.3-.9-1.3-2-2-2-2.3-2 .3.9 1.3 2m177.4 4.7c-1.3 1.6-1.2 1.7.4.4s2.1-2.1 1.3-2.1c-.2 0-1 .8-1.7 1.7m-6 6-2.4 2.8 2.8-2.4c1.5-1.4 2.7-2.6 2.7-2.8 0-.8-.8-.1-3.1 2.4M674 955.2c2.4 2.7 4.5 4.8 4.7 4.8.8 0 0-.9-4.4-5l-4.8-4.5zm8.5 8.8c1 1.1 2 2 2.3 2s-.3-.9-1.3-2-2-2-2.3-2 .3.9 1.3 2m8.5 8.5c1.9 1.9 3.6 3.5 3.9 3.5s-1-1.6-2.9-3.5-3.6-3.5-3.9-3.5 1 1.6 2.9 3.5m10.5 10.5c2.1 2.2 4.1 4 4.4 4s-1.3-1.8-3.4-4-4.1-4-4.4-4 1.3 1.8 3.4 4m9.4.7-2.4 2.8 2.8-2.4c1.5-1.4 2.7-2.6 2.7-2.8 0-.8-.8-.1-3.1 2.4m-43.9 3.7c0 .2.8 1 1.8 1.7 1.5 1.3 1.6 1.2.3-.4s-2.1-2.1-2.1-1.3m5 4.9c0 .2 1.5 1.6 3.3 3.3l3.2 2.9-2.9-3.3c-2.8-3-3.6-3.7-3.6-2.9m60.4 5.9-1.9 2.3 2.3-1.9c2.1-1.8 2.7-2.6 1.9-2.6-.2 0-1.2 1-2.3 2.2m-190.9 5.8c1 1.1 2 2 2.3 2s-.3-.9-1.3-2-2-2-2.3-2 .3.9 1.3 2m178.9 6.2-2.9 3.3 3.3-2.9c3-2.8 3.7-3.6 2.9-3.6-.2 0-1.6 1.5-3.3 3.2m-7.5 7.5c-1.3 1.6-1.2 1.7.4.4.9-.7 1.7-1.5 1.7-1.7 0-.8-.8-.3-2.1 1.3"/><g fill="#fff" stroke-width="0"><path d="M1002.5 451.9c-12 2.3-18.5 4.5-27.2 9.2-15.9 8.6-14.8 7.6-108.8 100.9-115.9 114.9-247.8 245.5-276 273-44.9 44-45.1 44.2-46.3 48-2.6 8.5-14.8 46.2-45.8 142-19.6 60.5-19.5 60-13.9 65.6 4.6 4.6 6 4.3 87.8-23.1 41.9-14.1 88.6-29.7 103.7-34.6 15.1-5 29.1-9.8 31-10.5 2.3-1 31.1-29.2 85.3-83.7 44.9-45.2 135.4-136 201-201.7l119.3-119.5 5.2-9.5c8.9-16.5 12.5-30.6 12.4-48.5-.1-32.5-18.8-65.6-50.6-89.3-12.6-9.5-25-14.9-42-18.1-12.7-2.5-22.8-2.5-35.1-.2m34 21.6c12.7 3.2 21.3 7.6 34 17.4 27 20.7 42.4 54.5 37.2 81.6-3.5 18.4-8.8 27-28.1 45.7-7.7 7.6-14.4 13.6-14.7 13.5-1.3-.4-116.9-115.2-116.9-116 0-1.1 24.2-24.9 30.4-29.9 6.4-5.1 15.4-9.7 23.6-11.9 8.4-2.2 26.4-2.5 34.5-.4m-47.5 118 58.1 58-169.3 168.7C784.7 911 707.8 986.9 706.9 987c-.8 0-6.3-4.8-12.1-10.8-5.9-5.9-31.9-31.8-57.8-57.7l-47.1-47 169.3-169.1c93.1-93 169.9-169.1 170.6-169 .6 0 27.3 26.2 59.2 58.1M626.5 946c31.8 31.9 57.6 58.2 57.3 58.5-.4.4-101.6 34.1-104.4 34.8-.6.1-11.4-9.9-24-22.2l-23-22.3 7.2-22.2c4-12.1 11.8-36.2 17.4-53.4 5.6-17.1 10.5-31.2 10.9-31.2.3 0 26.7 26.1 58.6 58m-86.9 90.8 12.6 12.1-15.3 4.9c-8.5 2.7-17.8 5.9-20.8 7.1-4.9 2-5.3 2-4.6.4.4-1 3.4-9.8 6.6-19.6 6.6-20 6.8-20.6 8-18.4.5.8 6.6 6.9 13.5 13.5"/><path d="M913.1 600.1c-1.9 1.1-39 37.5-82.5 80.8s-87.9 87.3-98.6 97.7c-39 37.8-44.9 43.7-44.3 44.7.3.6.2.7-.4.4-1.1-.7-13.4 11.5-15.2 15-2.6 5.1-.7 12.4 3.8 14.8 3.6 1.8 10.8 1.9 13.7.2 3.8-2.3 238.9-238.7 240.1-241.5 2.9-7-3.2-14.2-12.1-14.2-.6 0-2.6.9-4.5 2.1m46 44c-1.8 1.1-50.4 49-108 106.3-57.5 57.4-110.9 110.5-118.6 118.1s-15 15.2-16.2 16.8c-4.7 6.4-1.8 15.6 5.5 17.4 2.2.6 5.3.8 6.9.5 2.1-.4 33.9-31.6 124-121.6 67.6-67.5 122-122.6 122.9-124.4 4.8-10.2-6.5-19.2-16.5-13.1"/></g><path fill="#005" d="M905.9 638.7c-1.3 1.6-1.2 1.7.4.4.9-.7 1.7-1.5 1.7-1.7 0-.8-.8-.3-2.1 1.3"/><path fill="#ffffd4" d="M762.9 698.7c-1.3 1.6-1.2 1.7.4.4.9-.7 1.7-1.5 1.7-1.7 0-.8-.8-.3-2.1 1.3"/><path fill="#555580" d="M1036.9 657.7c-1.3 1.6-1.2 1.7.4.4.9-.7 1.7-1.5 1.7-1.7 0-.8-.8-.3-2.1 1.3"/></svg>