<svg xmlns="http://www.w3.org/2000/svg" viewBox="0 0 642 534" width="32" height="32"><path d="m536.9 39.7l-2.4 2.8 2.8-2.4c1.5-1.4 2.7-2.6 2.7-2.8 0-0.8-0.8-0.1-3.1 2.4zm-459.1 12c1.2 0.2 3.2 0.2 4.5 0 1.2-0.2 0.2-0.4-2.3-0.4-2.5 0-3.5 0.2-2.2 0.4zm165 0c0.6 0.2 1.8 0.2 2.5 0 0.6-0.3 0.1-0.5-1.3-0.5-1.4 0-1.9 0.2-1.2 0.5zm-56.5 1c0.9 0.2 2.5 0.2 3.5 0 0.9-0.3 0.1-0.5-1.8-0.5-1.9 0-2.7 0.2-1.7 0.5zm169 0c0.9 0.2 2.3 0.2 3 0 0.6-0.3-0.1-0.5-1.8-0.5-1.6 0-2.2 0.2-1.2 0.5zm-59.5 1c1.2 0.2 3.2 0.2 4.5 0 1.2-0.2 0.2-0.4-2.3-0.4-2.5 0-3.5 0.2-2.2 0.4zm132 1c0.7 0.3 1.6 0.2 1.9-0.1 0.4-0.3-0.2-0.6-1.3-0.5-1.1 0-1.4 0.3-0.6 0.6zm5.5 0c0.9 0.2 2.5 0.2 3.5 0 0.9-0.3 0.1-0.5-1.8-0.5-1.9 0-2.7 0.2-1.7 0.5zm-413 14.8c0 2.2 0.2 3 0.4 1.7 0.2-1.2 0.2-3 0-4-0.3-0.9-0.5 0.1-0.4 2.3zm0 8.5c0 2.5 0.2 3.5 0.4 2.2 0.2-1.2 0.2-3.2 0-4.5-0.2-1.2-0.4-0.2-0.4 2.3zm48.5 5.7c0.6 0.2 1.8 0.2 2.5 0 0.6-0.3 0.1-0.5-1.3-0.5-1.4 0-1.9 0.2-1.2 0.5zm78 1c1.2 0.2 3.2 0.2 4.5 0 1.2-0.2 0.2-0.4-2.3-0.4-2.5 0-3.5 0.2-2.2 0.4zm-36.5 1c1.5 0.2 3.7 0.2 5 0 1.2-0.2 0-0.4-2.8-0.4-2.7 0-3.8 0.2-2.2 0.4zm89 1c0.9 0.2 2.3 0.2 3 0 0.6-0.3-0.1-0.5-1.8-0.5-1.6 0-2.2 0.2-1.2 0.5zm8.5 0c2.3 0.2 5.9 0.2 8 0 2-0.2 0.1-0.4-4.3-0.4-4.4 0-6.1 0.2-3.7 0.4zm130 0c2.3 0.2 5.9 0.2 8 0 2-0.2 0.1-0.4-4.3-0.4-4.4 0-6.1 0.2-3.7 0.4zm-41.5 1c1.5 0.2 3.7 0.2 5 0 1.2-0.2 0-0.4-2.8-0.4-2.7 0-3.8 0.2-2.2 0.4zm143.5 0c1.2 0.2 3 0.2 4 0 0.9-0.3-0.1-0.5-2.3-0.4-2.2 0-3 0.2-1.7 0.4zm7 0c0.7 0.3 1.6 0.2 1.9-0.1 0.4-0.3-0.2-0.6-1.3-0.5-1.1 0-1.4 0.3-0.6 0.6zm-57.5 1c0.9 0.2 2.3 0.2 3 0 0.6-0.3-0.1-0.5-1.8-0.5-1.6 0-2.2 0.2-1.2 0.5zm-29 92c1.5 0.2 3.9 0.2 5.5 0 1.5-0.2 0.2-0.4-2.8-0.4-3 0-4.3 0.2-2.7 0.4zm13 0c1.5 0.2 3.9 0.2 5.5 0 1.5-0.2 0.2-0.4-2.8-0.4-3 0-4.3 0.2-2.7 0.4zm-108 1c2 0.2 5.4 0.2 7.5 0 2-0.2 0.3-0.4-3.8-0.4-4.1 0-5.8 0.2-3.7 0.4zm61.2 253.3l-7 0.6 6.7 0.2c3.7 0.1 7-0.3 7.3-0.8 0.3-0.6 0.5-0.9 0.3-0.8-0.2 0.1-3.4 0.4-7.3 0.8zm-19.7 0.7c0.7 0.3 1.6 0.2 1.9-0.1 0.4-0.3-0.2-0.6-1.3-0.5-1.1 0-1.4 0.3-0.6 0.6zm9 0c0.6 0.2 1.8 0.2 2.5 0 0.6-0.3 0.1-0.5-1.3-0.5-1.4 0-1.9 0.2-1.2 0.5zm324.5 17.8c0 2.2 0.2 3 0.4 1.7 0.2-1.2 0.2-3 0-4-0.3-0.9-0.5 0.1-0.4 2.3z" fill="rgb(85, 85, 85)"/><path d="m551.4 1.5c-7.7 1.7-16.4 5.2-22.8 9.2-11.5 7.2-24.1 22.9-28.9 36.2l-2.2 6.2-71-0.1c-39 0-72.1-0.2-73.5-0.4-1.4-0.2-46.6-0.7-100.5-1.1-53.9-0.3-127.9-1-164.5-1.5-47.2-0.7-66.8-0.6-67.7 0.2-1 0.8-1.3 5.1-1.3 16.9 0 15.6 0 16 2.3 16.8 1.2 0.4 37.3 1.1 80.2 1.5 42.9 0.3 118.3 1.1 167.5 1.7 49.2 0.6 120.7 1.4 158.8 1.7l69.3 0.7 2.8 7.1c3.6 9.3 9.1 17.5 17.2 25.4 7.9 7.8 16.6 13.1 27.4 16.7 7.1 2.4 9.5 2.7 22 2.7 13.1 0 14.5-0.2 22.2-3 29.7-11 48.3-37 48.5-67.9 0.1-11.4-1.9-19.4-7.9-31.5-7.5-15-22.1-28.4-37.2-34.1-12.7-4.7-28.5-6-40.7-3.4zm38.1 4.1c31.9 11.7 51.7 45.8 45.1 77.7-5.4 26.1-22.3 45.3-47.4 53.7-8.5 2.9-11 3.3-20.2 3.3-12.1 0.1-19.9-1.7-30.8-6.8-17.5-8.3-27.9-20.2-37-42.6l-1-2.6-57.9-0.7c-31.8-0.3-100.8-1.1-153.3-1.6-156.2-1.6-265.4-3.1-266.4-3.7-0.5-0.3-0.6-6.3-0.3-13.7 0.4-7.2 0.7-14.2 0.7-15.5v-2.4l58.3 0.7c32 0.3 108.6 1.1 170.2 1.6 61.6 0.5 142.9 1.2 180.6 1.6l68.5 0.6 1.3-4.4c3-10.1 9.3-20.1 18.6-29.3 14.8-14.8 27.7-19.8 50-19.2 11.4 0.4 14 0.8 21 3.3z"/><path d="m557 29.4c-8.2 1.8-14.8 5.7-21.3 12.5-6.8 7.1-10.2 14-11.7 23.7-2.1 13.4 2.7 26.1 13.6 36.4 10 9.3 23.3 12.8 37.6 10 8.1-1.5 12.3-3.7 19.1-10 15.8-14.4 18.2-35.6 6.2-54.6-6-9.3-16.4-16.2-27.9-18.3-7.1-1.3-8.5-1.3-15.6 0.3zm25.4 4.4c11.7 5.5 20.7 17.1 23.7 30.8 2.8 12.3-2.6 27.1-13.2 36.8-16.7 15-41.2 13.8-56.9-3-7-7.5-10.1-14.8-10.8-25-0.7-12.6 3.6-23.1 13.1-32.2 9.3-8.7 16.3-11.4 28.9-10.8 7.1 0.3 9.8 0.9 15.2 3.4zm-274 80.9c-5.4 7.1-18.9 24-29.9 37.8-22.7 28.3-22.1 27.5-20.7 28.4 0.6 0.3 11.2 0.6 23.6 0.6h22.6l0.2 126.5 0.3 126.4 2.3 0.6c1.2 0.3 7.7 0.3 14.5 0l12.2-0.5 0.3-126.3 0.2-126.2h24.5c13.5 0 24.5-0.3 24.5-0.8 0-1.6-62.2-79.2-63.6-79.2-0.6 0-5.5 5.7-11 12.7zm27.8 9.1c8.6 10.8 22.2 27.9 30.2 38 8 10.1 14.6 18.6 14.6 18.9 0 0.3-11 0.2-24.5-0.2l-24.5-0.8v254.3h-26v-254l-23.5-0.2-23.5-0.3 9.3-11.7c5-6.4 16.4-20.8 25.2-32 19.8-25.1 25.4-31.8 26.3-31.7 0.4 0 7.7 8.9 16.4 19.7z"/><path d="m52.4 398c-27.7 7.2-49.2 32.3-51.9 60.7-2 20.4 6.1 41.4 21.7 55.8 18.2 16.9 41.3 22.8 65.8 16.8 21.8-5.4 40.2-21.4 48.1-41.8l2.8-7h502.6v-35l-251.5-0.3-251.5-0.2-1.9-5.3c-5.4-15.1-20.3-31.4-36.4-39.6-11.8-6-33.5-7.9-47.8-4.1zm38.8 2.3c19.6 6.7 34.9 21 43.5 40.7l3.2 7.5 251.6 0.3 251.5 0.2v32h-503.7l-1.2 4.2c-3.5 11.8-13 25-23.6 32.8-23.3 17.2-54.8 18.6-78.9 3.6-14.4-9-25.8-24.6-30-41.2-2-7.9-2.1-23.2-0.1-30.9 0.8-3.3 3.4-9.8 5.7-14.5 3.3-6.8 5.9-10.2 13.2-17.6 10.2-10.2 18.8-15.2 31.8-18.5 10.6-2.7 26.6-2.1 37 1.4z"/><path d="m56.9 426.3c-17.5 6-28.1 20.8-28.1 39 0 24.2 23.5 43.6 48.1 39.8 27.7-4.3 42.8-32.9 30.6-57.8-9.1-18.4-31.2-27.6-50.6-21zm30.3 3.4c25.6 12 31 44.8 10.6 63.9-7.2 6.7-14.5 9.7-24.8 10.2-17.8 0.9-31.7-7.5-39.4-23.8-2.8-5.8-3.1-7.4-3-15.5 0.1-10.3 1.9-15.6 8.5-24.1 7.8-10.2 17.9-14.6 32.4-14.1 7.6 0.2 10 0.7 15.7 3.4z"/><path d="m72.8 51.7c0.6 0.2 1.8 0.2 2.5 0 0.6-0.3 0.1-0.5-1.3-0.5-1.4 0-1.9 0.2-1.2 0.5zm214.5 2c1.5 0.2 3.7 0.2 5 0 1.2-0.2 0-0.4-2.8-0.4-2.7 0-3.8 0.2-2.2 0.4zm135 1c0.9 0.2 2.5 0.2 3.5 0 0.9-0.3 0.1-0.5-1.8-0.5-1.9 0-2.7 0.2-1.7 0.5zm-349.5 29c0.7 0.3 1.6 0.2 1.9-0.1 0.4-0.3-0.2-0.6-1.3-0.5-1.1 0-1.4 0.3-0.6 0.6zm82.5 1c0.9 0.2 2.5 0.2 3.5 0 0.9-0.3 0.1-0.5-1.8-0.5-1.9 0-2.7 0.2-1.7 0.5zm94.5 1c1.2 0.2 3.2 0.2 4.5 0 1.2-0.2 0.2-0.4-2.3-0.4-2.5 0-3.5 0.2-2.2 0.4zm103.5 1c0.9 0.2 2.5 0.2 3.5 0 0.9-0.3 0.1-0.5-1.8-0.5-1.9 0-2.7 0.2-1.7 0.5zm100.5 1c0.7 0.3 1.6 0.2 1.9-0.1 0.4-0.3-0.2-0.6-1.3-0.5-1.1 0-1.4 0.3-0.6 0.6zm112 26c0.7 0.3 1.6 0.2 1.9-0.1 0.4-0.3-0.2-0.6-1.3-0.5-1.1 0-1.4 0.3-0.6 0.6zm-0.5 27c0.9 0.2 2.3 0.2 3 0 0.6-0.3-0.1-0.5-1.8-0.5-1.6 0-2.2 0.2-1.2 0.5zm75.1 327.8c0 4.9 0.1 7.1 0.3 4.8 0.2-2.3 0.2-6.4 0-9-0.2-2.6-0.3-0.8-0.3 4.2z" fill="rgb(128, 128, 128)"/><path d="m615 22.5c1.3 1.4 2.6 2.5 2.8 2.5 0.3 0-0.5-1.1-1.8-2.5-1.3-1.4-2.6-2.5-2.8-2.5-0.3 0 0.5 1.1 1.8 2.5zm-558.7 29.2c0.9 0.2 2.5 0.2 3.5 0 0.9-0.3 0.1-0.5-1.8-0.5-1.9 0-2.7 0.2-1.7 0.5zm89 1c2 0.2 5.4 0.2 7.5 0 2-0.2 0.3-0.4-3.8-0.4-4.1 0-5.8 0.2-3.7 0.4zm121.5 1c1.8 0.2 4.5 0.2 6 0 1.5-0.2 0-0.4-3.3-0.4-3.3 0-4.5 0.2-2.7 0.4zm129 1c0.7 0.3 1.6 0.2 1.9-0.1 0.4-0.3-0.2-0.6-1.3-0.5-1.1 0-1.4 0.3-0.6 0.6zm5.5 0c1.5 0.2 3.7 0.2 5 0 1.2-0.2 0-0.4-2.8-0.4-2.7 0-3.8 0.2-2.2 0.4zm-311.5 29c1.2 0.2 3.2 0.2 4.5 0 1.2-0.2 0.2-0.4-2.3-0.4-2.5 0-3.5 0.2-2.2 0.4zm79 1c0.7 0.3 1.6 0.2 1.9-0.1 0.4-0.3-0.2-0.6-1.3-0.5-1.1 0-1.4 0.3-0.6 0.6zm5 0c0.6 0.2 1.8 0.2 2.5 0 0.6-0.3 0.1-0.5-1.3-0.5-1.4 0-1.9 0.2-1.2 0.5zm97.5 1c1.5 0.2 3.7 0.2 5 0 1.2-0.2 0-0.4-2.8-0.4-2.7 0-3.8 0.2-2.2 0.4zm107 1c0.9 0.2 2.5 0.2 3.5 0 0.9-0.3 0.1-0.5-1.8-0.5-1.9 0-2.7 0.2-1.7 0.5zm101.5 1c1.2 0.2 3 0.2 4 0 0.9-0.3-0.1-0.5-2.3-0.4-2.2 0-3 0.2-1.7 0.4zm8 0c1.2 0.2 3.2 0.2 4.5 0 1.2-0.2 0.2-0.4-2.3-0.4-2.5 0-3.5 0.2-2.2 0.4zm-448.8 404.7c0 0.2 0.8 1 1.8 1.7 1.5 1.3 1.6 1.2 0.3-0.4-1.3-1.6-2.1-2.1-2.1-1.3zm83.9 15.3c-1.3 1.6-1.2 1.7 0.4 0.4 1.6-1.3 2.1-2.1 1.3-2.1-0.2 0-1 0.8-1.7 1.7z" fill="rgb(212, 212, 212)"/><path d="m555 2.6c-8.6 1.7-19.8 6.2-26.7 10.8-12.3 8.1-23.8 23.7-27.7 37.1l-1.2 4h-52.9c-66.6 0-252.7-1.3-349.9-2.5-40.7-0.5-74.3-0.7-74.8-0.4-0.4 0.3-0.8 7.5-0.8 15.9v15.4l38.3 0.2c21 0.1 39.8 0.2 41.7 0.4 1.9 0.1 34.6 0.5 72.5 0.9 38 0.4 108.8 1.1 157.5 1.6 48.7 0.5 106.2 1 127.8 1l39.3 0.1 1.5 3.7c7.9 18.8 15.8 29.3 28.3 37.7 22.8 15.1 53.2 15.2 75.8 0.2 17.1-11.4 26.9-26.7 31.3-49.1 2.2-10.7-0.7-27.1-6.7-39.1-8.6-16.9-26.1-31.3-43.8-36.1-5.9-1.6-24.6-2.7-29.5-1.8zm28.3 29.7c5.3 2.6 9.1 5.4 13 9.6 6.2 6.7 8.9 11.8 11.3 21.1 3.3 12.8-1.3 27.8-11.6 38-17.3 17.2-43.1 17-60.5-0.4-19.3-19.4-15.4-51.2 8.2-66.3 7.3-4.6 14.1-6.3 24-6 7.1 0.3 9.2 0.8 15.6 4z" fill="rgb(255, 255, 255)"/><path d="m304.8 122.2c-7.8 10-18.8 23.8-24.3 30.6-5.5 6.9-12.6 15.8-15.7 19.8l-5.7 7.3 23.4-0.2 23.5-0.2v254.5h26v-254l24-0.2 24-0.3-14-17.5c-7.7-9.6-14.5-17.4-15.1-17.2-0.6 0.1-0.8-0.2-0.4-0.7 0.4-0.8-29.9-40.1-31-40.1-0.2 0-6.8 8.2-14.7 18.2z" fill="rgb(255, 255, 255)"/><path d="m60.5 398.1c-7.9 1.2-14.6 3.4-22.7 7.6-20.5 10.7-35.7 35.6-35.8 58.6 0 16.5 7.4 34.7 19 46.4 25.4 25.8 63.5 28.2 92.8 5.9 9-6.9 16.5-17.3 21.6-30.4l2.1-5.2h502.5v-32h-502.5l-2.7-6.8c-8.3-20.3-26.8-37.3-45.9-42.1-9.3-2.3-20.7-3.1-28.4-2zm27.7 30.1c14.8 7.4 22.8 19.1 23.6 34.5 0.9 16-6.4 29.7-19.8 37.5-15.8 9.2-33.5 7.6-49.1-4.4-2-1.5-4-2.4-4.4-2-0.5 0.4-0.5 0.1-0.1-0.6 0.5-0.8 0-2.2-1.1-3.5-3.1-3.5-6.1-9.2-7.8-14.9-3.7-12.7-0.1-26.3 10-37.6 8.8-9.8 17.6-13.3 32.1-12.9 8.3 0.3 9.9 0.6 16.6 3.9z" fill="rgb(255, 255, 255)"/><path d="m64.8 51.7c1.2 0.2 3 0.2 4 0 0.9-0.3-0.1-0.5-2.3-0.4-2.2 0-3 0.2-1.7 0.4zm107 1c1.8 0.2 4.5 0.2 6 0 1.5-0.2 0-0.4-3.3-0.4-3.3 0-4.5 0.2-2.7 0.4zm105.5 1c1.5 0.2 3.7 0.2 5 0 1.2-0.2 0-0.4-2.8-0.4-2.7 0-3.8 0.2-2.2 0.4zm134.5 1c1.8 0.2 4.5 0.2 6 0 1.5-0.2 0-0.4-3.3-0.4-3.3 0-4.5 0.2-2.7 0.4zm196.4 16.3c0 1.9 0.2 2.7 0.5 1.7 0.2-0.9 0.2-2.5 0-3.5-0.3-0.9-0.5-0.1-0.5 1.8zm-525.9 12.7c0.9 0.2 2.5 0.2 3.5 0 0.9-0.3 0.1-0.5-1.8-0.5-1.9 0-2.7 0.2-1.7 0.5zm79.5 1c1.2 0.2 3.2 0.2 4.5 0 1.2-0.2 0.2-0.4-2.3-0.4-2.5 0-3.5 0.2-2.2 0.4zm99.5 1c1.5 0.2 3.7 0.2 5 0 1.2-0.2 0-0.4-2.8-0.4-2.7 0-3.8 0.2-2.2 0.4zm101.5 1c0.6 0.2 1.8 0.2 2.5 0 0.6-0.3 0.1-0.5-1.3-0.5-1.4 0-1.9 0.2-1.2 0.5zm6 0c1.2 0.2 3 0.2 4 0 0.9-0.3-0.1-0.5-2.3-0.4-2.2 0-3 0.2-1.7 0.4zm90.5 1c0.9 0.2 2.3 0.2 3 0 0.6-0.3-0.1-0.5-1.8-0.5-1.6 0-2.2 0.2-1.2 0.5zm8 0c2 0.2 5.4 0.2 7.5 0 2-0.2 0.3-0.4-3.8-0.4-4.1 0-5.8 0.2-3.7 0.4z" fill="rgb(170, 170, 170)"/><path d="m278.8 85.7c0.7 0.3 1.6 0.2 1.9-0.1 0.4-0.3-0.2-0.6-1.3-0.5-1.1 0-1.4 0.3-0.6 0.6z" fill="rgb(255, 255, 212)"/></svg>