<svg xmlns="http://www.w3.org/2000/svg" viewBox="0 0 512 498" width="32" height="32"><path d="m496.8 0.7c0.7 0.3 1.6 0.2 1.9-0.1 0.4-0.3-0.2-0.6-1.3-0.5-1.1 0-1.4 0.3-0.6 0.6zm12.8 5.8c2.4 3.9 2.4 4 2.4 2.8 0-0.6-0.9-2.1-2.1-3.4l-2-2.4zm-77.8 54.2c-30.1 30.2-68.4 68.5-85.2 85.3l-30.6 30.5-6.1-3.4c-3.3-1.8-6.2-3.1-6.4-2.9-0.2 0.2 2.5 1.9 6 3.8l6.4 3.4 24.3-23.8c13.4-13.2 38.2-37.9 55.1-55 17-17.1 44.7-44.9 61.5-61.9 16.9-16.9 30.4-30.7 30.1-30.7-0.3 0-25.1 24.6-55.1 54.7zm26.2 11.8c-4.1 4.1-7.2 7.5-6.9 7.5 0.2 0 3.8-3.4 7.9-7.5 4.1-4.1 7.2-7.5 6.9-7.5-0.2 0-3.8 3.4-7.9 7.5zm-19.5 19.7l-8 8.3 8.3-8c4.5-4.4 8.2-8.1 8.2-8.2 0-0.8-1.1 0.3-8.5 7.9zm-17.5 17.3c-4.1 4.1-7.2 7.5-6.9 7.5 0.2 0 3.8-3.4 7.9-7.5 4.1-4.1 7.2-7.5 6.9-7.5-0.2 0-3.8 3.4-7.9 7.5zm-17.1 17.2c-1.3 1.6-1.2 1.7 0.4 0.4 1.6-1.3 2.1-2.1 1.3-2.1-0.2 0-1 0.8-1.7 1.7zm-5 5c-1.3 1.6-1.2 1.7 0.4 0.4 0.9-0.7 1.7-1.5 1.7-1.7 0-0.8-0.8-0.3-2.1 1.3zm-126.6 33c2 0.2 5.4 0.2 7.5 0 2-0.2 0.3-0.4-3.8-0.4-4.1 0-5.8 0.2-3.7 0.4zm-13.7 1.4c-2.2 0.5-7.4 2.6-11.5 4.6-10.6 5.1-24.2 18.7-29.4 29.4-6.4 13.1-8.3 28.7-5.3 42.9 1.5 6.8 5.8 17.4 7.7 18.5 0.6 0.4-0.4-2.1-2.1-5.5-5.9-11.7-7.5-28.6-4.1-42.2 6.2-24 25.1-42.6 48.1-47.3 3.6-0.7 5.2-1.3 3.5-1.3-1.6 0-4.8 0.4-6.9 0.9zm27.7-0.4c0.9 0.2 2.3 0.2 3 0 0.6-0.3-0.1-0.5-1.8-0.5-1.6 0-2.2 0.2-1.2 0.5zm5.5 1c0.7 0.3 1.6 0.2 1.9-0.1 0.4-0.3-0.2-0.6-1.3-0.5-1.1 0-1.4 0.3-0.6 0.6zm71.1 2l-2.4 2.8 2.8-2.4c1.5-1.4 2.7-2.6 2.7-2.8 0-0.8-0.8-0.1-3.1 2.4zm-66.9-0.9c0.8 0.5 2.6 1.3 4 1.6 1.7 0.5 2 0.4 1-0.2-0.8-0.5-2.6-1.3-4-1.6-1.7-0.5-2-0.4-1 0.2z"/><path d="m266 192.5c-11.7 3.2-22 13.5-25.6 25.4-2.3 7.7-1.5 18.9 1.8 26.3 6 13 17.6 20.7 32.2 21.3l8.1 0.4-8-0.9c-15-1.6-25-8-30.8-19.9-3-6.1-3.2-7.3-3.2-16.6 0-9.3 0.2-10.4 3.2-16.1 1.8-3.5 5.5-8.2 8.5-11 7.1-6.5 13.8-8.9 24.3-8.9 6.8 0 9 0.5 14.5 3.1 8.9 4.2 13.1 8.1 17.4 16.4 2.8 5.3 3.9 8.6 4.3 13.8 1.4 17.2-7.8 30.8-25.6 37.8-3.2 1.3-3.3 1.4-0.6 0.8 9.1-1.7 19.9-10.7 24.3-20.1 2.3-5 2.6-7.1 2.7-15.4 0-8.9-0.2-9.9-3.4-16.3-8.3-16.3-26.9-24.8-44.1-20.1zm67.4 6c0.3 1.1 1.8 5.4 3.3 9.5 2.4 6.7 2.7 8.9 2.8 20 0 6.9-0.3 14.3-0.7 16.5-0.7 3.4-0.6 3.6 0.4 1.5 0.6-1.4 1.3-7.7 1.6-14 0.5-12.7-0.7-19.4-5.3-29.7-1.4-3.2-2.4-4.9-2.1-3.8zm2.2 55.3c-4.3 10.6-11.3 19.4-21.1 27l-3 2.3 3.4-1.8c5.4-2.9 15.4-14.5 19.6-22.6 2-4.1 3.6-8 3.4-8.6-0.2-0.6-1.3 1.1-2.3 3.7zm-173.6 68.6l-59.3 59.4-5.1-3.1c-5.1-3-15.6-7-16.3-6.3-0.3 0.2 1.3 1 3.4 1.6 5.1 1.7 15.6 7 16.5 8.4 0.4 0.6 0.9 0.8 1.2 0.6 51.1-50.7 119.6-119.3 119.4-119.6-0.2-0.2-27.1 26.4-59.8 59zm62.5-24.2c-8.7 9-34.3 35-56.9 57.8-22.6 22.8-40 40.5-38.6 39.5 2.8-2.3 6.7-6.1 67.8-67.8 24.9-25.1 44.9-45.7 44.5-45.7-0.5 0-8.1 7.3-16.8 16.2zm18.5-14.8c0 0.3 1.4 1.2 3 2.1 1.7 0.9 3 1.3 3 1.1 0-0.3-1.3-1.2-3-2.1-1.6-0.9-3-1.3-3-1.1zm62.5 2.6c-0.3 0.5-4.3 2.1-8.8 3.6-8.7 2.7-21.1 3.6-31.2 2.2-4.2-0.6-4.5-0.6-2 0.4 4.4 1.5 22.1 1.5 28.5-0.1 5.9-1.5 16-5.6 16-6.5 0-1-1.8-0.7-2.5 0.4z"/><path d="m253.5 289.1c2.2 1 4.7 1.8 5.5 1.8 0.8 0-0.7-0.9-3.5-1.9-6.3-2.5-7.3-2.4-2 0.1zm-202.7 82.5c-22.2 4.8-40.1 21.4-47.5 43.9-2.1 6.6-2.6 9.9-2.6 19-0.1 9.7 0.3 12 2.9 19.5 10 28.6 35.2 45.3 66.3 43.8 17.4-0.9 30.6-7.2 43.5-20.8 6.2-6.6 10.5-13.3 12-19 0.4-1.4-0.9 0.6-2.8 4.5-6 12.1-18.5 23.9-31.1 29.4-17.3 7.6-39 6.6-56.8-2.6-9.6-5-21-16.3-25.9-25.8-5.3-10.2-7.1-17.5-7.1-28.5-0.1-34.9 24.9-61.2 60.7-63.9 9.9-0.8 9.9-0.8 2.6-0.9-4.1 0-10.5 0.6-14.2 1.4zm23.5 0.1c0.9 0.2 2.5 0.2 3.5 0 0.9-0.3 0.1-0.5-1.8-0.5-1.9 0-2.7 0.2-1.7 0.5z"/><path d="m51.3 400.1c-7.1 2.8-15.5 10.6-19 17.7-2.5 5.1-2.8 6.8-2.8 15.7 0 8.1 0.4 10.9 2.1 14.5 4.2 9 14.3 18.6 21.4 20.4 1.4 0.4 0.3-0.4-2.4-1.8-6.9-3.5-14-10.8-17.3-18-2.4-5.3-2.8-7.3-2.8-15.6 0-9.2 0.1-9.7 3.8-16.3 6.7-11.9 16.7-17.7 30.7-17.7 17.9 0 32.2 11.6 36 29.3l0.9 4.2-0.3-4.2c-0.9-10.3-9.6-21.8-20.6-27-7.7-3.7-22-4.3-29.7-1.2zm71.7 0.4c-2.3 2.5-2.4 2.6-0.6 5.5 5.8 9.9 8.3 29.3 5.3 42-1.8 7.5-1.5 9.3 0.5 2.9 0.8-2.6 1.3-9.5 1.3-16.9 0-13.1-1.3-19-5.8-27.3l-2.1-3.8 2.8-2.4c1.6-1.4 2.5-2.5 1.9-2.5-0.5 0-2 1.1-3.3 2.5zm-20.9 34.1c0 1.1 0.3 1.4 0.6 0.6 0.3-0.7 0.2-1.6-0.1-1.9-0.3-0.4-0.6 0.2-0.5 1.3zm-1 5.4c-0.2 5.1-6.6 16.3-11.7 20.8-7.3 6.3-14 8.6-24.9 8.6-7.3 0-8.3 0.1-5.5 0.9 10.3 2.7 25.3-2.5 33.7-11.7 5.2-5.6 9.9-15.8 9-19.3-0.3-1.3-0.5-1.1-0.6 0.7z"/><path d="m501 0.4c0 0.3 0.9 1 2 1.6 1.1 0.6 2 0.8 2 0.6 0-0.3-0.9-1-2-1.6-1.1-0.6-2-0.8-2-0.6zm-9 1.6c-0.8 0.5-1 1-0.5 1 0.6 0 1.7-0.5 2.5-1 0.8-0.5 1.1-1 0.5-1-0.5 0-1.7 0.5-2.5 1zm-4 3c-0.9 0.6-1 1-0.3 1 0.6 0 1.5-0.5 1.8-1 0.8-1.2 0.4-1.2-1.5 0zm21.6 14.7c-0.6 1.4-0.5 1.5 0.5 0.6 0.7-0.7 1-1.5 0.7-1.8-0.3-0.3-0.9 0.2-1.2 1.2zm-13.9 14.4c-2.6 2.7-4.5 4.9-4.2 4.9 0.9 0 9.8-9 9.4-9.5-0.2-0.2-2.6 1.9-5.2 4.6zm-11.7 11.4c-3 3-5.2 5.6-5 5.8 0.3 0.2 3.2-2.2 6.5-5.4 3.3-3.2 5.6-5.9 5-5.9-0.5 0.1-3.5 2.5-6.5 5.5zm-50 14.2l-8.5 8.8 8.8-8.5c8.1-7.9 9.2-9 8.4-9-0.1 0-4.1 3.9-8.7 8.7zm38-2.1c-3 3.1-4.8 5.3-3.9 4.8 1.5-0.9 10.5-10.4 9.7-10.4-0.2 0-2.8 2.5-5.8 5.6zm-51.6 15.6l-1.9 2.3 2.3-1.9c2.1-1.8 2.7-2.6 1.9-2.6-0.2 0-1.2 1-2.3 2.2zm-7 7l-2.9 3.3 3.3-2.9c1.7-1.7 3.2-3.1 3.2-3.3 0-0.8-0.8-0.1-3.6 2.9zm35.2 1.4c-2.3 2.3-2 3 0.4 0.9 1.1-1 2-2 2-2.2 0-0.7-0.9-0.2-2.4 1.3zm-40.7 3.1c-1.3 1.6-1.2 1.7 0.4 0.4 0.9-0.7 1.7-1.5 1.7-1.7 0-0.8-0.8-0.3-2.1 1.3zm2 36l-3.4 3.8 3.8-3.4c3.4-3.3 4.2-4.1 3.4-4.1-0.2 0-1.9 1.7-3.8 3.7zm-8.4 8.3c-0.3 0.5-0.1 1 0.4 1 0.6 0 1.1-0.5 1.1-1 0-0.6-0.2-1-0.4-1-0.3 0-0.8 0.4-1.1 1zm-6.6 6.8c-4.6 5-5.3 6.7-1 2.4 2.3-2.4 4.1-4.6 3.9-4.8-0.3-0.2-1.6 0.9-2.9 2.4zm-38 0.9c-1.3 1.6-1.2 1.7 0.4 0.4 0.9-0.7 1.7-1.5 1.7-1.7 0-0.8-0.8-0.3-2.1 1.3zm-4 4c-1.3 1.6-1.2 1.7 0.4 0.4 0.9-0.7 1.7-1.5 1.7-1.7 0-0.8-0.8-0.3-2.1 1.3zm32.7 5c-0.6 1.4-0.5 1.5 0.5 0.6 0.7-0.7 1-1.5 0.7-1.8-0.3-0.3-0.9 0.2-1.2 1.2zm-8.3 7.7c-7.2 7.4-8.6 10.2-1.7 3.6 4.1-4 9-10 8.2-10-0.2 0-3.1 2.9-6.5 6.4z" fill="rgb(85, 85, 85)"/><path d="m367.4 164.2l-1.9 2.3 2.3-1.9c2.1-1.8 2.7-2.6 1.9-2.6-0.2 0-1.2 1-2.3 2.2zm-9.7 9.3c-1.5 1.4-2.4 2.5-1.9 2.5 0.5 0 1.9-1.1 3.2-2.5 3-3.2 2.3-3.2-1.3 0zm-5.7 5c-2 2.4-0.6 2.8 1.5 0.5 1-1.1 1.3-2 0.8-2-0.6 0-1.6 0.7-2.3 1.5zm-5.1 6.2l-2.4 2.8 2.8-2.4c2.5-2.3 3.2-3.1 2.4-3.1-0.2 0-1.4 1.2-2.8 2.7zm-9.9 9.4c0 0.5 0.5 0.7 1 0.4 0.6-0.3 1-0.8 1-1.1 0-0.2-0.4-0.4-1-0.4-0.5 0-1 0.5-1 1.1zm-2.5 2c-0.4 0.6-0.5 1.2-0.2 1.5 0.2 0.3 0.7-0.2 1-1.1 0.7-1.7 0.1-2-0.8-0.4zm-15.6 80.6c-1.3 1.6-1.2 1.7 0.4 0.4 0.9-0.7 1.7-1.5 1.7-1.7 0-0.8-0.8-0.3-2.1 1.3zm-118 8c-1.3 1.6-1.2 1.7 0.4 0.4 1.6-1.3 2.1-2.1 1.3-2.1-0.2 0-1 0.8-1.7 1.7zm31 7l-2.4 2.8 2.8-2.4c1.5-1.4 2.7-2.6 2.7-2.8 0-0.8-0.8-0.1-3.1 2.4zm38.6 1.3c-0.3 0.6 0.1 0.7 0.9 0.4 1.8-0.7 2.1-1.4 0.7-1.4-0.6 0-1.3 0.4-1.6 1zm-72.1 31.2l-2.9 3.3 3.3-2.9c1.7-1.7 3.2-3.1 3.2-3.3 0-0.8-0.8-0.1-3.6 2.9zm-8.5 8.5c-1.3 1.6-1.2 1.7 0.4 0.4 1.6-1.3 2.1-2.1 1.3-2.1-0.2 0-1 0.8-1.7 1.7zm-6.9 6.8c-2.4 2.5-4.2 4.5-3.9 4.5 0.3 0 2.5-2 4.9-4.5 2.4-2.5 4.2-4.5 3.9-4.5-0.3 0-2.5 2-4.9 4.5zm-70.6 31.7l-1.9 2.3 2.3-1.9c1.2-1.1 2.2-2.1 2.2-2.3 0-0.8-0.8-0.2-2.6 1.9zm-10.8 60.4c-0.4 0.9-0.4 1.9-0.1 2.2 0.2 0.3 0.7-0.3 1.1-1.2 0.4-0.9 0.4-1.9 0.1-2.2-0.2-0.3-0.7 0.3-1.1 1.2zm-73.4 1.4c0 1.4 0.2 1.9 0.5 1.2 0.2-0.6 0.2-1.8 0-2.5-0.3-0.6-0.5-0.1-0.5 1.3zm72.8 4c0 0.5 0.5 1 1 1 0.6 0 1-0.5 1-1 0-0.6-0.4-1-1-1-0.5 0-1 0.4-1 1zm-64 20.4c0 0.2 0.8 1 1.8 1.7 1.5 1.3 1.6 1.2 0.3-0.4-1.3-1.6-2.1-2.1-2.1-1.3z" fill="rgb(85, 85, 85)"/><path d="m469.4 24.2l-1.9 2.3 2.3-1.9c2.1-1.8 2.7-2.6 1.9-2.6-0.2 0-1.2 1-2.3 2.2zm-6 6l-1.9 2.3 2.3-1.9c1.2-1.1 2.2-2.1 2.2-2.3 0-0.8-0.8-0.2-2.6 1.9zm-23.9 60l-4 4.3 4.3-4c3.9-3.6 4.7-4.5 3.9-4.5-0.2 0-2.1 1.9-4.2 4.2zm-99.6 63.5c-1.3 1.6-1.2 1.7 0.4 0.4 0.9-0.7 1.7-1.5 1.7-1.7 0-0.8-0.8-0.3-2.1 1.3zm-7.4 7.5l-5 5.3 5.3-5c4.8-4.6 5.7-5.5 4.9-5.5-0.1 0-2.5 2.4-5.2 5.2zm-8.1 8l-1.9 2.3 2.3-1.9c1.2-1.1 2.2-2.1 2.2-2.3 0-0.8-0.8-0.2-2.6 1.9zm36 1l-1.9 2.3 2.3-1.9c2.1-1.8 2.7-2.6 1.9-2.6-0.2 0-1.2 1-2.3 2.2zm-122.2 57.3c0 1.6 0.2 2.2 0.5 1.2 0.2-0.9 0.2-2.3 0-3-0.3-0.6-0.5 0.1-0.5 1.8zm-49.8 69.7l-2.9 3.3 3.3-2.9c1.7-1.7 3.2-3.1 3.2-3.3 0-0.8-0.8-0.1-3.6 2.9zm-7.9 8l-4 4.3 4.3-4c3.9-3.6 4.7-4.5 3.9-4.5-0.2 0-2.1 1.9-4.2 4.2zm-8.1 8l-2.9 3.3 3.3-2.9c1.7-1.7 3.2-3.1 3.2-3.3 0-0.8-0.8-0.1-3.6 2.9zm-7 7l-1.9 2.3 2.3-1.9c2.1-1.8 2.7-2.6 1.9-2.6-0.2 0-1.2 1-2.3 2.2zm-5.5 5.5l-2.4 2.8 2.8-2.4c2.5-2.3 3.2-3.1 2.4-3.1-0.2 0-1.4 1.2-2.8 2.7zm8 29l-2.4 2.8 2.8-2.4c1.5-1.4 2.7-2.6 2.7-2.8 0-0.8-0.8-0.1-3.1 2.4zm-105.1 43c1.2 0.2 3.2 0.2 4.5 0 1.2-0.2 0.2-0.4-2.3-0.4-2.5 0-3.5 0.2-2.2 0.4zm47.1 81l-3.4 3.8 3.8-3.4c3.4-3.3 4.2-4.1 3.4-4.1-0.2 0-1.9 1.7-3.8 3.7z" fill="rgb(170, 170, 170)"/><path d="m424.5 105.2l-6 6.3 6.3-6c5.8-5.5 6.7-6.5 5.9-6.5-0.1 0-2.9 2.8-6.2 6.2zm-212.3 120.8c0 1.4 0.2 1.9 0.5 1.2 0.2-0.6 0.2-1.8 0-2.5-0.3-0.6-0.5-0.1-0.5 1.3zm0 5c0 1.4 0.2 1.9 0.5 1.2 0.2-0.6 0.2-1.8 0-2.5-0.3-0.6-0.5-0.1-0.5 1.3zm-57.5 99.8c-2 2.1-2.3 2.9-1.2 2.9 0.8 0 1.3-0.3 1-0.5-0.3-0.3 0.5-1.6 1.7-2.9 1.2-1.3 1.9-2.3 1.7-2.3-0.3 0-1.7 1.3-3.2 2.8zm-18.2 18.4l-4 4.3 4.3-4c3.9-3.6 4.7-4.5 3.9-4.5-0.2 0-2.1 1.9-4.2 4.2zm-7.6 7.5l-2.4 2.8 2.8-2.4c1.5-1.4 2.7-2.6 2.7-2.8 0-0.8-0.8-0.1-3.1 2.4zm-61.1 15c0.7 0.3 1.6 0.2 1.9-0.1 0.4-0.3-0.2-0.6-1.3-0.5-1.1 0-1.4 0.3-0.6 0.6zm-47.9 18c-1.3 1.6-1.2 1.7 0.4 0.4 0.9-0.7 1.7-1.5 1.7-1.7 0-0.8-0.8-0.3-2.1 1.3zm106 7c-1.3 1.6-1.2 1.7 0.4 0.4 1.6-1.3 2.1-2.1 1.3-2.1-0.2 0-1 0.8-1.7 1.7z" fill="rgb(212, 212, 212)"/><path d="m494 2.6c-4.2 1.8-68.2 65.3-67.3 66.7 0.3 0.6 0.2 0.7-0.4 0.4-0.6-0.4-5.5 4-11 9.6-5.6 5.6-30.1 30.2-54.7 54.7l-44.6 44.4-3.7-2.2c-12.7-7.6-22.5-10.4-36.3-10.3-19.2 0-30.7 4.8-44.5 18.6-6.8 6.8-9.9 10.7-12.3 15.8-8.6 17.9-8.5 40.7 0.3 57.4l3.2 6.1-10.3 10.3c-5.7 5.6-10 10.7-9.7 11.2 0.3 0.6 0.2 0.7-0.4 0.4-1.3-0.8-48.6 46.7-47.6 47.8 0.4 0.4 0.3 0.5-0.3 0.2-1.4-0.8-8.7 6.6-7.7 7.8 0.5 0.4 0.3 0.5-0.3 0.2-1.4-0.8-8.7 6.6-7.7 7.8 0.5 0.4 0.3 0.5-0.3 0.2-0.6-0.3-8.8 7-18.4 16.4l-17.3 16.9-7.7-4c-10.2-5.3-17.5-7.1-29-7.2-18.7-0.1-33.9 6.1-45.9 18.8-12.1 12.6-17.1 24.5-17.7 41.4-0.4 12.8 0.6 18.1 5.7 28.6 10.9 23 32.1 35.8 58.9 35.8 8.8 0 11.8-0.5 18.5-2.8 10.6-3.6 15.3-6.5 23.6-14.4 12.9-12.1 19.4-27.1 19.3-44.2-0.1-11.4-1.5-18.5-5.3-26.4l-2.9-5.8 22.7-22.7c12.4-12.5 39.6-39.8 60.3-60.7l37.8-38 8.4 4.1c10.5 5.2 19.3 6.9 31.7 6.3 38.7-2.1 65.6-38.1 57.1-76.5-1.2-5-3-10.9-4.1-13.1l-2-3.9 44.1-44.4c108.3-108.9 132.6-133.5 133.7-135.6 1.6-3.1 1.4-8.5-0.5-11.2-1.5-2.1-8.6-6.1-10.9-6-0.5 0-2.6 0.7-4.5 1.5zm-201.5 191.9c7.5 3.6 14.1 10.3 18 18 2.8 5.5 3 6.8 3 16.5 0 9.4-0.3 11.1-2.8 16.1-5.4 11.2-17.4 19.4-30.1 20.8-21.2 2.3-38.4-10.8-41.6-31.7-2.8-18 7.4-35.4 24.4-41.4 8-2.9 21.4-2.1 29.1 1.7zm-219.7 203.5c18.4 4.3 31.4 21 29.9 38.5-1.1 13.7-8.8 24.9-21.2 31-5.4 2.7-6.9 3-16 3-12.6 0-18-2.2-25.8-10.4-7.2-7.6-10.4-13.9-11.2-22.8-0.9-9.1 0.6-15.6 5.4-23.1 8.5-13.1 24-19.6 38.9-16.2z" fill="rgb(255, 255, 255)"/><path d="m511.2 13.5c0 1.6 0.2 2.2 0.5 1.2 0.2-0.9 0.2-2.3 0-3-0.3-0.6-0.5 0.1-0.5 1.8zm-32.8 1.7l-2.9 3.3 3.3-2.9c1.7-1.7 3.2-3.1 3.2-3.3 0-0.8-0.8-0.1-3.6 2.9zm27 9l-2.9 3.3 3.3-2.9c1.7-1.7 3.2-3.1 3.2-3.3 0-0.8-0.8-0.1-3.6 2.9zm-60 24l-1.9 2.3 2.3-1.9c1.2-1.1 2.2-2.1 2.2-2.3 0-0.8-0.8-0.2-2.6 1.9zm15 21l-2.9 3.3 3.3-2.9c1.7-1.7 3.2-3.1 3.2-3.3 0-0.8-0.8-0.1-3.6 2.9zm-6 6l-1.9 2.3 2.3-1.9c2.1-1.8 2.7-2.6 1.9-2.6-0.2 0-1.2 1-2.3 2.2zm-4.5 4.5c-1.3 1.6-1.2 1.7 0.4 0.4 1.6-1.3 2.1-2.1 1.3-2.1-0.2 0-1 0.8-1.7 1.7zm-4.5 4.5l-1.9 2.3 2.3-1.9c2.1-1.8 2.7-2.6 1.9-2.6-0.2 0-1.2 1-2.3 2.2zm-96.5 60.5l-2.4 2.8 2.8-2.4c2.5-2.3 3.2-3.1 2.4-3.1-0.2 0-1.4 1.2-2.8 2.7zm-6 6c-1.3 1.6-1.2 1.7 0.4 0.4 1.6-1.3 2.1-2.1 1.3-2.1-0.2 0-1 0.8-1.7 1.7zm25 12l-2.4 2.8 2.8-2.4c2.5-2.3 3.2-3.1 2.4-3.1-0.2 0-1.4 1.2-2.8 2.7zm-22.1 22c-1.8 2.1-3.1 4.3-2.5 4.3 0.2 0 1.3-1.4 2.5-3 2.5-3.3 2.4-4.1 0-1.3zm-140.9 96l-2.4 2.8 2.8-2.4c1.5-1.4 2.7-2.6 2.7-2.8 0-0.8-0.8-0.1-3.1 2.4zm-7 7c-1.3 1.6-1.2 1.7 0.4 0.4 1.6-1.3 2.1-2.1 1.3-2.1-0.2 0-1 0.8-1.7 1.7zm-5 5c-1.3 1.6-1.2 1.7 0.4 0.4 1.6-1.3 2.1-2.1 1.3-2.1-0.2 0-1 0.8-1.7 1.7zm80.9 0c0.6 0.2 1.8 0.2 2.5 0 0.6-0.3 0.1-0.5-1.3-0.5-1.4 0-1.9 0.2-1.2 0.5zm-80.4 36.5l-1.9 2.3 2.3-1.9c2.1-1.8 2.7-2.6 1.9-2.6-0.2 0-1.2 1-2.3 2.2zm-20.5 20.5l-2.4 2.8 2.8-2.4c1.5-1.4 2.7-2.6 2.7-2.8 0-0.8-0.8-0.1-3.1 2.4z" fill="rgb(128, 128, 128)"/></svg>