<svg xmlns="http://www.w3.org/2000/svg" viewBox="0 0 2816 2816"><g stroke-width="0"><path d="M1693.8 1138.7c.7.3 1.6.2 1.9-.1.4-.3-.2-.6-1.3-.5-1.1 0-1.4.3-.6.6m12.8 5.8c2.4 3.9 2.4 4 2.4 2.8 0-.6-.9-2.1-2.1-3.4l-2-2.4zm-77.8 54.2c-30.1 30.2-68.4 68.5-85.2 85.3l-30.6 30.5-6.1-3.4c-3.3-1.8-6.2-3.1-6.4-2.9s2.5 1.9 6 3.8l6.4 3.4 24.3-23.8c13.4-13.2 38.2-37.9 55.1-55 17-17.1 44.7-44.9 61.5-61.9 16.9-16.9 30.4-30.7 30.1-30.7s-25.1 24.6-55.1 54.7m26.2 11.8c-4.1 4.1-7.2 7.5-6.9 7.5.2 0 3.8-3.4 7.9-7.5s7.2-7.5 6.9-7.5c-.2 0-3.8 3.4-7.9 7.5m-19.5 19.7-8 8.3 8.3-8c4.5-4.4 8.2-8.1 8.2-8.2 0-.8-1.1.3-8.5 7.9m-17.5 17.3c-4.1 4.1-7.2 7.5-6.9 7.5.2 0 3.8-3.4 7.9-7.5s7.2-7.5 6.9-7.5c-.2 0-3.8 3.4-7.9 7.5m-17.1 17.2c-1.3 1.6-1.2 1.7.4.4s2.1-2.1 1.3-2.1c-.2 0-1 .8-1.7 1.7m-5 5c-1.3 1.6-1.2 1.7.4.4.9-.7 1.7-1.5 1.7-1.7 0-.8-.8-.3-2.1 1.3m-126.6 33c2 .2 5.4.2 7.5 0 2-.2.3-.4-3.8-.4s-5.8.2-3.7.4m-13.7 1.4c-2.2.5-7.4 2.6-11.5 4.6-10.6 5.1-24.2 18.7-29.4 29.4-6.4 13.1-8.3 28.7-5.3 42.9 1.5 6.8 5.8 17.4 7.7 18.5.6.4-.4-2.1-2.1-5.5-5.9-11.7-7.5-28.6-4.1-42.2 6.2-24 25.1-42.6 48.1-47.3 3.6-.7 5.2-1.3 3.5-1.3-1.6 0-4.8.4-6.9.9m27.7-.4c.9.2 2.3.2 3 0 .6-.3-.1-.5-1.8-.5-1.6 0-2.2.2-1.2.5m5.5 1c.7.3 1.6.2 1.9-.1.4-.3-.2-.6-1.3-.5-1.1 0-1.4.3-.6.6m71.1 2-2.4 2.8 2.8-2.4c1.5-1.4 2.7-2.6 2.7-2.8 0-.8-.8-.1-3.1 2.4m-66.9-.9c.8.5 2.6 1.3 4 1.6 1.7.5 2 .4 1-.2-.8-.5-2.6-1.3-4-1.6-1.7-.5-2-.4-1 .2"/><path d="M1463 1330.5c-11.7 3.2-22 13.5-25.6 25.4-2.3 7.7-1.5 18.9 1.8 26.3 6 13 17.6 20.7 32.2 21.3l8.1.4-8-.9c-15-1.6-25-8-30.8-19.9-3-6.1-3.2-7.3-3.2-16.6s.2-10.4 3.2-16.1c1.8-3.5 5.5-8.2 8.5-11 7.1-6.5 13.8-8.9 24.3-8.9 6.8 0 9 .5 14.5 3.1 8.9 4.2 13.1 8.1 17.4 16.4 2.8 5.3 3.9 8.6 4.3 13.8 1.4 17.2-7.8 30.8-25.6 37.8-3.2 1.3-3.3 1.4-.6.8 9.1-1.7 19.9-10.7 24.3-20.1 2.3-5 2.6-7.1 2.7-15.4 0-8.9-.2-9.9-3.4-16.3-8.3-16.3-26.9-24.8-44.1-20.1m67.4 6c.3 1.1 1.8 5.4 3.3 9.5 2.4 6.7 2.7 8.9 2.8 20 0 6.9-.3 14.3-.7 16.5-.7 3.4-.6 3.6.4 1.5.6-1.4 1.3-7.7 1.6-14 .5-12.7-.7-19.4-5.3-29.7-1.4-3.2-2.4-4.9-2.1-3.8m2.2 55.3c-4.3 10.6-11.3 19.4-21.1 27l-3 2.3 3.4-1.8c5.4-2.9 15.4-14.5 19.6-22.6 2-4.1 3.6-8 3.4-8.6s-1.3 1.1-2.3 3.7m-173.6 68.6-59.3 59.4-5.1-3.1c-5.1-3-15.6-7-16.3-6.3-.3.2 1.3 1 3.4 1.6 5.1 1.7 15.6 7 16.5 8.4.4.6.9.8 1.2.6 51.1-50.7 119.6-119.3 119.4-119.6-.2-.2-27.1 26.4-59.8 59m62.5-24.2c-8.7 9-34.3 35-56.9 57.8s-40 40.5-38.6 39.5c2.8-2.3 6.7-6.1 67.8-67.8 24.9-25.1 44.9-45.7 44.5-45.7-.5 0-8.1 7.3-16.8 16.2m18.5-14.8c0 .3 1.4 1.2 3 2.1 1.7.9 3 1.3 3 1.1 0-.3-1.3-1.2-3-2.1-1.6-.9-3-1.3-3-1.1m62.5 2.6c-.3.5-4.3 2.1-8.8 3.6-8.7 2.7-21.1 3.6-31.2 2.2-4.2-.6-4.5-.6-2 .4 4.4 1.5 22.1 1.5 28.5-.1 5.9-1.5 16-5.6 16-6.5 0-1-1.8-.7-2.5.4"/><path d="M1450.5 1427.1c2.2 1 4.7 1.8 5.5 1.8s-.7-.9-3.5-1.9c-6.3-2.5-7.3-2.4-2 .1m-202.7 82.5c-22.2 4.8-40.1 21.4-47.5 43.9-2.1 6.6-2.6 9.9-2.6 19-.1 9.7.3 12 2.9 19.5 10 28.6 35.2 45.3 66.3 43.8 17.4-.9 30.6-7.2 43.5-20.8 6.2-6.6 10.5-13.3 12-19 .4-1.4-.9.6-2.8 4.5-6 12.1-18.5 23.9-31.1 29.4-17.3 7.6-39 6.6-56.8-2.6-9.6-5-21-16.3-25.9-25.8-5.3-10.2-7.1-17.5-7.1-28.5-.1-34.9 24.9-61.2 60.7-63.9 9.9-.8 9.9-.8 2.6-.9-4.1 0-10.5.6-14.2 1.4m23.5.1c.9.2 2.5.2 3.5 0 .9-.3.1-.5-1.8-.5s-2.7.2-1.7.5"/><path d="M1248.3 1538.1c-7.1 2.8-15.5 10.6-19 17.7-2.5 5.1-2.8 6.8-2.8 15.7 0 8.1.4 10.9 2.1 14.5 4.2 9 14.3 18.6 21.4 20.4 1.4.4.3-.4-2.4-1.8-6.9-3.5-14-10.8-17.3-18-2.4-5.3-2.8-7.3-2.8-15.6 0-9.2.1-9.7 3.8-16.3 6.7-11.9 16.7-17.7 30.7-17.7 17.9 0 32.2 11.6 36 29.3l.9 4.2-.3-4.2c-.9-10.3-9.6-21.8-20.6-27-7.7-3.7-22-4.3-29.7-1.2m71.7.4c-2.3 2.5-2.4 2.6-.6 5.5 5.8 9.9 8.3 29.3 5.3 42-1.8 7.5-1.5 9.3.5 2.9.8-2.6 1.3-9.5 1.3-16.9 0-13.1-1.3-19-5.8-27.3l-2.1-3.8 2.8-2.4c1.6-1.4 2.5-2.5 1.9-2.5-.5 0-2 1.1-3.3 2.5m-20.9 34.1c0 1.1.3 1.4.6.6.3-.7.2-1.6-.1-1.9-.3-.4-.6.2-.5 1.3m-1 5.4c-.2 5.1-6.6 16.3-11.7 20.8-7.3 6.3-14 8.6-24.9 8.6-7.3 0-8.3.1-5.5.9 10.3 2.7 25.3-2.5 33.7-11.7 5.2-5.6 9.9-15.8 9-19.3-.3-1.3-.5-1.1-.6.7"/></g><g fill="#555" stroke-width="0"><path d="M1698 1138.4c0 .3.9 1 2 1.6s2 .8 2 .6c0-.3-.9-1-2-1.6s-2-.8-2-.6m-9 1.6c-.8.5-1 1-.5 1 .6 0 1.7-.5 2.5-1s1.1-1 .5-1c-.5 0-1.7.5-2.5 1m-4 3c-.9.6-1 1-.3 1 .6 0 1.5-.5 1.8-1 .8-1.2.4-1.2-1.5 0m21.6 14.7c-.6 1.4-.5 1.5.5.6.7-.7 1-1.5.7-1.8s-.9.2-1.2 1.2m-13.9 14.4c-2.6 2.7-4.5 4.9-4.2 4.9.9 0 9.8-9 9.4-9.5-.2-.2-2.6 1.9-5.2 4.6m-11.7 11.4c-3 3-5.2 5.6-5 5.8.3.2 3.2-2.2 6.5-5.4s5.6-5.9 5-5.9c-.5.1-3.5 2.5-6.5 5.5m-50 14.2-8.5 8.8 8.8-8.5c8.1-7.9 9.2-9 8.4-9-.1 0-4.1 3.9-8.7 8.7m38-2.1c-3 3.1-4.8 5.3-3.9 4.8 1.5-.9 10.5-10.4 9.7-10.4-.2 0-2.8 2.5-5.8 5.6m-51.6 15.6-1.9 2.3 2.3-1.9c2.1-1.8 2.7-2.6 1.9-2.6-.2 0-1.2 1-2.3 2.2m-7 7-2.9 3.3 3.3-2.9c1.7-1.7 3.2-3.1 3.2-3.3 0-.8-.8-.1-3.6 2.9m35.2 1.4c-2.3 2.3-2 3 .4.9 1.1-1 2-2 2-2.2 0-.7-.9-.2-2.4 1.3m-40.7 3.1c-1.3 1.6-1.2 1.7.4.4.9-.7 1.7-1.5 1.7-1.7 0-.8-.8-.3-2.1 1.3m2 36-3.4 3.8 3.8-3.4c3.4-3.3 4.2-4.1 3.4-4.1-.2 0-1.9 1.7-3.8 3.7m-8.4 8.3c-.3.5-.1 1 .4 1 .6 0 1.1-.5 1.1-1 0-.6-.2-1-.4-1-.3 0-.8.4-1.1 1m-6.6 6.8c-4.6 5-5.3 6.7-1 2.4 2.3-2.4 4.1-4.6 3.9-4.8-.3-.2-1.6.9-2.9 2.4m-38 .9c-1.3 1.6-1.2 1.7.4.4.9-.7 1.7-1.5 1.7-1.7 0-.8-.8-.3-2.1 1.3m-4 4c-1.3 1.6-1.2 1.7.4.4.9-.7 1.7-1.5 1.7-1.7 0-.8-.8-.3-2.1 1.3m32.7 5c-.6 1.4-.5 1.5.5.6.7-.7 1-1.5.7-1.8s-.9.2-1.2 1.2m-8.3 7.7c-7.2 7.4-8.6 10.2-1.7 3.6 4.1-4 9-10 8.2-10-.2 0-3.1 2.9-6.5 6.4"/><path d="m1564.4 1302.2-1.9 2.3 2.3-1.9c2.1-1.8 2.7-2.6 1.9-2.6-.2 0-1.2 1-2.3 2.2m-9.7 9.3c-1.5 1.4-2.4 2.5-1.9 2.5s1.9-1.1 3.2-2.5c3-3.2 2.3-3.2-1.3 0m-5.7 5c-2 2.4-.6 2.8 1.5.5 1-1.1 1.3-2 .8-2-.6 0-1.6.7-2.3 1.5m-5.1 6.2-2.4 2.8 2.8-2.4c2.5-2.3 3.2-3.1 2.4-3.1-.2 0-1.4 1.2-2.8 2.7m-9.9 9.4c0 .5.5.7 1 .4.6-.3 1-.8 1-1.1 0-.2-.4-.4-1-.4-.5 0-1 .5-1 1.1m-2.5 2c-.4.6-.5 1.2-.2 1.5.2.3.7-.2 1-1.1.7-1.7.1-2-.8-.4m-15.6 80.6c-1.3 1.6-1.2 1.7.4.4.9-.7 1.7-1.5 1.7-1.7 0-.8-.8-.3-2.1 1.3m-118 8c-1.3 1.6-1.2 1.7.4.4s2.1-2.1 1.3-2.1c-.2 0-1 .8-1.7 1.7m31 7-2.4 2.8 2.8-2.4c1.5-1.4 2.7-2.6 2.7-2.8 0-.8-.8-.1-3.1 2.4m38.6 1.3c-.3.6.1.7.9.4 1.8-.7 2.1-1.4.7-1.4-.6 0-1.3.4-1.6 1m-72.1 31.2-2.9 3.3 3.3-2.9c1.7-1.7 3.2-3.1 3.2-3.3 0-.8-.8-.1-3.6 2.9m-8.5 8.5c-1.3 1.6-1.2 1.7.4.4s2.1-2.1 1.3-2.1c-.2 0-1 .8-1.7 1.7m-6.9 6.8c-2.4 2.5-4.2 4.5-3.9 4.5s2.5-2 4.9-4.5 4.2-4.5 3.9-4.5-2.5 2-4.9 4.5m-70.6 31.7-1.9 2.3 2.3-1.9c1.2-1.1 2.2-2.1 2.2-2.3 0-.8-.8-.2-2.6 1.9m-10.8 60.4c-.4.9-.4 1.9-.1 2.2.2.3.7-.3 1.1-1.2s.4-1.9.1-2.2c-.2-.3-.7.3-1.1 1.2m-73.4 1.4c0 1.4.2 1.9.5 1.2.2-.6.2-1.8 0-2.5-.3-.6-.5-.1-.5 1.3m72.8 4c0 .5.5 1 1 1 .6 0 1-.5 1-1 0-.6-.4-1-1-1-.5 0-1 .4-1 1m-64 20.4c0 .2.8 1 1.8 1.7 1.5 1.3 1.6 1.2.3-.4s-2.1-2.1-2.1-1.3"/></g><path fill="#aaa" d="m1666.4 1162.2-1.9 2.3 2.3-1.9c2.1-1.8 2.7-2.6 1.9-2.6-.2 0-1.2 1-2.3 2.2m-6 6-1.9 2.3 2.3-1.9c1.2-1.1 2.2-2.1 2.2-2.3 0-.8-.8-.2-2.6 1.9m-23.9 60-4 4.3 4.3-4c3.9-3.6 4.7-4.5 3.9-4.5-.2 0-2.1 1.9-4.2 4.2m-99.6 63.5c-1.3 1.6-1.2 1.7.4.4.9-.7 1.7-1.5 1.7-1.7 0-.8-.8-.3-2.1 1.3m-7.4 7.5-5 5.3 5.3-5c4.8-4.6 5.7-5.5 4.9-5.5-.1 0-2.5 2.4-5.2 5.2m-8.1 8-1.9 2.3 2.3-1.9c1.2-1.1 2.2-2.1 2.2-2.3 0-.8-.8-.2-2.6 1.9m36 1-1.9 2.3 2.3-1.9c2.1-1.8 2.7-2.6 1.9-2.6-.2 0-1.2 1-2.3 2.2m-122.2 57.3c0 1.6.2 2.2.5 1.2.2-.9.2-2.3 0-3-.3-.6-.5.1-.5 1.8m-49.8 69.7-2.9 3.3 3.3-2.9c1.7-1.7 3.2-3.1 3.2-3.3 0-.8-.8-.1-3.6 2.9m-7.9 8-4 4.3 4.3-4c3.9-3.6 4.7-4.5 3.9-4.5-.2 0-2.1 1.9-4.2 4.2m-8.1 8-2.9 3.3 3.3-2.9c1.7-1.7 3.2-3.1 3.2-3.3 0-.8-.8-.1-3.6 2.9m-7 7-1.9 2.3 2.3-1.9c2.1-1.8 2.7-2.6 1.9-2.6-.2 0-1.2 1-2.3 2.2m-5.5 5.5-2.4 2.8 2.8-2.4c2.5-2.3 3.2-3.1 2.4-3.1-.2 0-1.4 1.2-2.8 2.7m8 29-2.4 2.8 2.8-2.4c1.5-1.4 2.7-2.6 2.7-2.8 0-.8-.8-.1-3.1 2.4m-105.1 43c1.2.2 3.2.2 4.5 0 1.2-.2.2-.4-2.3-.4s-3.5.2-2.2.4m47.1 81-3.4 3.8 3.8-3.4c3.4-3.3 4.2-4.1 3.4-4.1-.2 0-1.9 1.7-3.8 3.7"/><path fill="#d4d4d4" d="m1621.5 1243.2-6 6.3 6.3-6c5.8-5.5 6.7-6.5 5.9-6.5-.1 0-2.9 2.8-6.2 6.2M1409.2 1364c0 1.4.2 1.9.5 1.2.2-.6.2-1.8 0-2.5-.3-.6-.5-.1-.5 1.3m0 5c0 1.4.2 1.9.5 1.2.2-.6.2-1.8 0-2.5-.3-.6-.5-.1-.5 1.3m-57.5 99.8c-2 2.1-2.3 2.9-1.2 2.9.8 0 1.3-.3 1-.5-.3-.3.5-1.6 1.7-2.9s1.9-2.3 1.7-2.3c-.3 0-1.7 1.3-3.2 2.8m-18.2 18.4-4 4.3 4.3-4c3.9-3.6 4.7-4.5 3.9-4.5-.2 0-2.1 1.9-4.2 4.2m-7.6 7.5-2.4 2.8 2.8-2.4c1.5-1.4 2.7-2.6 2.7-2.8 0-.8-.8-.1-3.1 2.4m-61.1 15c.7.3 1.6.2 1.9-.1.4-.3-.2-.6-1.3-.5-1.1 0-1.4.3-.6.6m-47.9 18c-1.3 1.6-1.2 1.7.4.4.9-.7 1.7-1.5 1.7-1.7 0-.8-.8-.3-2.1 1.3m106 7c-1.3 1.6-1.2 1.7.4.4s2.1-2.1 1.3-2.1c-.2 0-1 .8-1.7 1.7"/><path fill="#fff" d="M1691 1140.6c-4.2 1.8-68.2 65.3-67.3 66.7.3.6.2.7-.4.4-.6-.4-5.5 4-11 9.6-5.6 5.6-30.1 30.2-54.7 54.7l-44.6 44.4-3.7-2.2c-12.7-7.6-22.5-10.4-36.3-10.3-19.2 0-30.7 4.8-44.5 18.6-6.8 6.8-9.9 10.7-12.3 15.8-8.6 17.9-8.5 40.7.3 57.4l3.2 6.1-10.3 10.3c-5.7 5.6-10 10.7-9.7 11.2.3.6.2.7-.4.4-1.3-.8-48.6 46.7-47.6 47.8.4.4.3.5-.3.2-1.4-.8-8.7 6.6-7.7 7.8.5.4.3.5-.3.2-1.4-.8-8.7 6.6-7.7 7.8.5.4.3.5-.3.2s-8.8 7-18.4 16.4l-17.3 16.9-7.7-4c-10.2-5.3-17.5-7.1-29-7.2-18.7-.1-33.9 6.1-45.9 18.8-12.1 12.6-17.1 24.5-17.7 41.4-.4 12.8.6 18.1 5.7 28.6 10.9 23 32.1 35.8 58.9 35.8 8.8 0 11.8-.5 18.5-2.8 10.6-3.6 15.3-6.5 23.6-14.4 12.9-12.1 19.4-27.1 19.3-44.2-.1-11.4-1.5-18.5-5.3-26.4l-2.9-5.8 22.7-22.7c12.4-12.5 39.6-39.8 60.3-60.7l37.8-38 8.4 4.1c10.5 5.2 19.3 6.9 31.7 6.3 38.7-2.1 65.6-38.1 57.1-76.5-1.2-5-3-10.9-4.1-13.1l-2-3.9 44.1-44.4c108.3-108.9 132.6-133.5 133.7-135.6 1.6-3.1 1.4-8.5-.5-11.2-1.5-2.1-8.6-6.1-10.9-6-.5 0-2.6.7-4.5 1.5m-201.5 191.9c7.5 3.6 14.1 10.3 18 18 2.8 5.5 3 6.8 3 16.5 0 9.4-.3 11.1-2.8 16.1-5.4 11.2-17.4 19.4-30.1 20.8-21.2 2.3-38.4-10.8-41.6-31.7-2.8-18 7.4-35.4 24.4-41.4 8-2.9 21.4-2.1 29.1 1.7M1269.8 1536c18.4 4.3 31.4 21 29.9 38.5-1.1 13.7-8.8 24.9-21.2 31-5.4 2.7-6.9 3-16 3-12.6 0-18-2.2-25.8-10.4-7.2-7.6-10.4-13.9-11.2-22.8-.9-9.1.6-15.6 5.4-23.1 8.5-13.1 24-19.6 38.9-16.2"/><path fill="gray" d="M1708.2 1151.5c0 1.6.2 2.2.5 1.2.2-.9.2-2.3 0-3-.3-.6-.5.1-.5 1.8m-32.8 1.7-2.9 3.3 3.3-2.9c1.7-1.7 3.2-3.1 3.2-3.3 0-.8-.8-.1-3.6 2.9m27 9-2.9 3.3 3.3-2.9c1.7-1.7 3.2-3.1 3.2-3.3 0-.8-.8-.1-3.6 2.9m-60 24-1.9 2.3 2.3-1.9c1.2-1.1 2.2-2.1 2.2-2.3 0-.8-.8-.2-2.6 1.9m15 21-2.9 3.3 3.3-2.9c1.7-1.7 3.2-3.1 3.2-3.3 0-.8-.8-.1-3.6 2.9m-6 6-1.9 2.3 2.3-1.9c2.1-1.8 2.7-2.6 1.9-2.6-.2 0-1.2 1-2.3 2.2m-4.5 4.5c-1.3 1.6-1.2 1.7.4.4s2.1-2.1 1.3-2.1c-.2 0-1 .8-1.7 1.7m-4.5 4.5-1.9 2.3 2.3-1.9c2.1-1.8 2.7-2.6 1.9-2.6-.2 0-1.2 1-2.3 2.2m-96.5 60.5-2.4 2.8 2.8-2.4c2.5-2.3 3.2-3.1 2.4-3.1-.2 0-1.4 1.2-2.8 2.7m-6 6c-1.3 1.6-1.2 1.7.4.4s2.1-2.1 1.3-2.1c-.2 0-1 .8-1.7 1.7m25 12-2.4 2.8 2.8-2.4c2.5-2.3 3.2-3.1 2.4-3.1-.2 0-1.4 1.2-2.8 2.7m-22.1 22c-1.8 2.1-3.1 4.3-2.5 4.3.2 0 1.3-1.4 2.5-3 2.5-3.3 2.4-4.1 0-1.3m-140.9 96-2.4 2.8 2.8-2.4c1.5-1.4 2.7-2.6 2.7-2.8 0-.8-.8-.1-3.1 2.4m-7 7c-1.3 1.6-1.2 1.7.4.4s2.1-2.1 1.3-2.1c-.2 0-1 .8-1.7 1.7m-5 5c-1.3 1.6-1.2 1.7.4.4s2.1-2.1 1.3-2.1c-.2 0-1 .8-1.7 1.7m80.9 0c.6.2 1.8.2 2.5 0 .6-.3.1-.5-1.3-.5s-1.9.2-1.2.5m-80.4 36.5-1.9 2.3 2.3-1.9c2.1-1.8 2.7-2.6 1.9-2.6-.2 0-1.2 1-2.3 2.2m-20.5 20.5-2.4 2.8 2.8-2.4c1.5-1.4 2.7-2.6 2.7-2.8 0-.8-.8-.1-3.1 2.4"/></svg>