<svg xmlns="http://www.w3.org/2000/svg" viewBox="0 0 552 546" width="32" height="32"><path d="m59.8 0.7c0.6 0.2 1.8 0.2 2.5 0 0.6-0.3 0.1-0.5-1.3-0.5-1.4 0-1.9 0.2-1.2 0.5zm-8 1c0.6 0.2 1.8 0.2 2.5 0 0.6-0.3 0.1-0.5-1.3-0.5-1.4 0-1.9 0.2-1.2 0.5zm18 0c0.6 0.2 1.8 0.2 2.5 0 0.6-0.3 0.1-0.5-1.3-0.5-1.4 0-1.9 0.2-1.2 0.5zm411 0c0.6 0.2 1.8 0.2 2.5 0 0.6-0.3 0.1-0.5-1.3-0.5-1.4 0-1.9 0.2-1.2 0.5zm18 0c0.6 0.2 1.8 0.2 2.5 0 0.6-0.3 0.1-0.5-1.3-0.5-1.4 0-1.9 0.2-1.2 0.5zm5 1c0.6 0.2 1.8 0.2 2.5 0 0.6-0.3 0.1-0.5-1.3-0.5-1.4 0-1.9 0.2-1.2 0.5zm-424 1c0.7 0.3 1.6 0.2 1.9-0.1 0.4-0.3-0.2-0.6-1.3-0.5-1.1 0-1.4 0.3-0.6 0.6zm-45 2.9c-3.9 2.1-3.5 2.8 0.5 0.8 3.7-1.9 4.4-2.4 3.1-2.4-0.5 0.1-2.1 0.8-3.6 1.6zm427.6 1c-1.8 1.4-1.8 1.4 0.6 0.3 3.1-1.4 3.6-1.9 2.4-1.9-0.6 0-1.9 0.7-3 1.6zm-373.3-0.3c1.7 1.4 7.9 4.8 7.9 4.4 0-0.7-6.5-4.7-7.5-4.7-0.5 0-0.6 0.1-0.4 0.3zm-60.7 3.3c-1.8 1.4-1.8 1.5 0.4 0.4 1.2-0.6 2.2-1.3 2.2-1.5 0-0.8-0.5-0.6-2.6 1.1zm428.5 0.5l-2.4 2 2.8-1.7c1.5-0.9 2.7-1.8 2.7-2 0-0.8-0.8-0.4-3.1 1.7zm73.9 5.4c7.6 6.9 13.8 15.8 16.9 24 1.2 3.3 2.2 5.4 2.2 4.8 0.1-2.4-3.6-11-6.9-15.9-3.9-5.7-11.2-13.7-15.5-16.6-1.6-1.2-0.2 0.5 3.3 3.7zm-431.3-2.5c1 1.1 2 2 2.3 2 0.3 0-0.3-0.9-1.3-2-1-1.1-2-2-2.3-2-0.3 0 0.3 0.9 1.3 2zm351.4 1.7l-2.4 2.8 2.8-2.4c2.5-2.3 3.2-3.1 2.4-3.1-0.2 0-1.4 1.2-2.8 2.7zm-434.3 4.4c-5.3 5.7-11.6 15.2-11.6 17.4 0 0.5 1.5-1.6 3.2-4.8 1.7-3.2 5.8-8.7 9.1-12.2 3.2-3.6 5.7-6.5 5.4-6.5-0.3 0-3 2.7-6.1 6.1zm91.9 2.9c1 1.1 2 2 2.3 2 0.3 0-0.3-0.9-1.3-2-1-1.1-2-2-2.3-2-0.3 0 0.3 0.9 1.3 2zm334.4 0.7c-2.9 3.5-4.1 5.3-3.6 5.3 0.2 0 1.7-1.6 3.1-3.5 2.8-3.6 3.1-4.9 0.5-1.8zm-387.1 6c0.7 0.3 1.6 0.2 1.9-0.1 0.4-0.3-0.2-0.6-1.3-0.5-1.1 0-1.4 0.3-0.6 0.6zm9 0c0.6 0.2 1.8 0.2 2.5 0 0.6-0.3 0.1-0.5-1.3-0.5-1.4 0-1.9 0.2-1.2 0.5zm420.5 0c0.9 0.2 2.5 0.2 3.5 0 0.9-0.3 0.1-0.5-1.8-0.5-1.9 0-2.7 0.2-1.7 0.5zm9.5 0c0.6 0.2 1.8 0.2 2.5 0 0.6-0.3 0.1-0.5-1.3-0.5-1.4 0-1.9 0.2-1.2 0.5zm-18 2.4c-2.1 1.1-3.8 2.2-3.8 2.4 0 0.3 1.7-0.3 3.8-1.3 2-1.1 4.4-2.2 5.2-2.5 1.3-0.5 1.3-0.5 0-0.6-0.8 0-3.2 0.9-5.2 2zm-431.4 0.8c-1.8 1.1-3.5 2.5-4 3.3-0.4 0.8 0 0.6 1.2-0.3 1-0.9 3.3-2.4 4.9-3.2 1.7-0.9 2.6-1.6 2-1.7-0.5 0-2.4 0.9-4.1 1.9zm28.6-0.9c0.8 0.5 2 1 2.5 1 0.6 0 0.3-0.5-0.5-1-0.8-0.5-1.9-1-2.5-1-0.5 0-0.3 0.5 0.5 1zm428.1-0.6c1 0.9 6.9 3.6 6.9 3.2 0-0.6-5.5-3.6-6.6-3.6-0.4 0-0.5 0.2-0.3 0.4zm-421.4 4.2c1.8 1.3 4.6 4.2 6.4 6.2 1.7 2 2.6 2.8 2.1 1.6-1.2-2.2-9.7-10.4-10.9-10.4-0.5 0 0.6 1.2 2.4 2.6zm386.9 3.4c-2 2.2-3.6 4.3-3.6 4.7 0 0.4 0.3 0.3 0.8-0.3 0.4-0.5 2.3-2.6 4.1-4.7 1.9-2 3.2-3.7 2.9-3.7-0.3 0-2.2 1.8-4.2 4zm45.4-0.5c1.9 1.9 3.6 3.5 3.9 3.5 0.3 0-1-1.6-2.9-3.5-1.9-1.9-3.6-3.5-3.9-3.5-0.3 0 1 1.6 2.9 3.5zm-78.4-1c-0.9 2.6-0.7 3.2 0.5 1.2 0.6-1 0.9-2.1 0.6-2.3-0.2-0.3-0.7 0.2-1.1 1.1zm-398.1 3.1c-0.9 1.5-1.2 2.3-0.6 2 1.1-0.7 3.5-4.6 2.8-4.6-0.3 0-1.2 1.2-2.2 2.6zm-33.9 2.9c-0.3 0.9-0.6 2.2-0.5 2.8 0 0.7 0.5 0.1 1-1.2 0.5-1.3 0.8-2.6 0.5-2.8-0.2-0.2-0.6 0.3-1 1.2zm29.3 5c-1.1 2.5-1.9 5-1.7 5.5 0.2 0.4 1.3-1.6 2.4-4.6 2.6-6.6 2.1-7.2-0.7-0.9zm88.5-2.5c0.1 1.3 18.1 1.5 155.6 1.5h155.5l-155.2-0.2c-122.8-0.3-155.2-0.6-155.6-1.6q-0.3-1-0.3 0.3zm341 2.6c-0.8 2-1.4 4-1.2 4.5 0.2 0.5 1-1.1 1.9-3.6 2-5.4 1.4-6-0.7-0.9zm58.2-1.3c0.3 1 0.9 1.5 1.2 1.2 0.3-0.3 0-1.1-0.7-1.8-1-0.9-1.1-0.8-0.5 0.6zm30.5 1.3c0 1.1 0.3 1.4 0.6 0.6 0.3-0.7 0.2-1.6-0.1-1.9-0.3-0.4-0.6 0.2-0.5 1.3zm-548.9 1.9c0 1.6 0.2 2.2 0.5 1.2 0.2-0.9 0.2-2.3 0-3-0.3-0.6-0.5 0.1-0.5 1.8zm89.8-2c0 0.5 0.5 1.7 1 2.5 0.5 0.8 1 1 1 0.5 0-0.6-0.5-1.7-1-2.5-0.5-0.8-1-1.1-1-0.5zm431.2 6.5c0 1.4 0.2 1.9 0.5 1.2 0.2-0.6 0.2-1.8 0-2.5-0.3-0.6-0.5-0.1-0.5 1.3zm29 0.5c0 1.6 0.2 2.2 0.5 1.2 0.2-0.9 0.2-2.3 0-3-0.3-0.6-0.5 0.1-0.5 1.8zm-458 0.5c0 1.4 0.2 1.9 0.5 1.2 0.2-0.6 0.2-1.8 0-2.5-0.3-0.6-0.5-0.1-0.5 1.3zm-92.9 3.5c0 2.2 0.2 3 0.4 1.7 0.2-1.2 0.2-3 0-4-0.3-0.9-0.5 0.1-0.4 2.3zm459 0.5c0 2.5 0.2 3.5 0.4 2.2 0.2-1.2 0.2-3.2 0-4.5-0.2-1.2-0.4-0.2-0.4 2.3zm-430.1 0c0 1.9 0.2 2.7 0.5 1.7 0.2-0.9 0.2-2.5 0-3.5-0.3-0.9-0.5-0.1-0.5 1.8zm64 4c0 1.4 0.2 1.9 0.5 1.2 0.2-0.6 0.2-1.8 0-2.5-0.3-0.6-0.5-0.1-0.5 1.3zm458 1c0 1.9 0.2 2.7 0.5 1.7 0.2-0.9 0.2-2.5 0-3.5-0.3-0.9-0.5-0.1-0.5 1.8zm-29 0c0 1.4 0.2 1.9 0.5 1.2 0.2-0.6 0.2-1.8 0-2.5-0.3-0.6-0.5-0.1-0.5 1.3zm-492.1 1c0 0.8 0.4 2.4 0.9 3.5 0.5 1.3 0.9 1.4 0.9 0.5 0-0.8-0.4-2.4-0.9-3.5-0.5-1.3-0.9-1.4-0.9-0.5zm-28.9 3c0 1.4 0.2 1.9 0.5 1.2 0.2-0.6 0.2-1.8 0-2.5-0.3-0.6-0.5-0.1-0.5 1.3zm90.9-0.4c0 1.1 0.3 1.4 0.6 0.6 0.3-0.7 0.2-1.6-0.1-1.9-0.3-0.4-0.6 0.2-0.5 1.3zm369 1.4c0 0.8 0.4 2.2 0.9 3 1.2 1.8 1.2 0.2 0-2.5-0.6-1.3-0.9-1.5-0.9-0.5zm-372 5.7c-1 2.6-1 2.7 0.4 0.9 0.8-1.1 1.5-2.3 1.5-2.8 0-1.5-0.7-0.8-1.9 1.9zm428.9 0.3c-0.6 1.1-0.8 2-0.6 2 0.3 0 1-0.9 1.6-2 0.6-1.1 0.8-2 0.6-2-0.3 0-1 0.9-1.6 2zm-396.7-0.3c0.9 0.2 2.3 0.2 3 0 0.6-0.3-0.1-0.5-1.8-0.5-1.6 0-2.2 0.2-1.2 0.5zm81 0c41.7 0.2 109.7 0.2 151 0 41.4-0.1 7.3-0.2-75.8-0.2-83 0-116.9 0.1-75.2 0.2zm229.2 0.3c0.3 0.5 0.8 1 1.1 1 0.2 0 0.4-0.5 0.4-1 0-0.6-0.5-1-1.1-1-0.5 0-0.7 0.4-0.4 1zm-395.7 2.7c1.1 1.6 3 3.7 4.3 4.8 1.2 1.1 0.5-0.1-1.6-2.8-4.3-5.2-5.7-6.3-2.7-2zm432.7 3.3c2.1 2.2 4.1 4 4.4 4 0.3 0-1.3-1.8-3.4-4-2.1-2.2-4.1-4-4.4-4-0.3 0 1.3 1.8 3.4 4zm-385.5 1.2c-2.6 2.4-3.2 3.2-1.5 2 2.8-1.8 7.3-6.3 6.4-6.2-0.2 0.1-2.4 1.9-4.9 4.2zm430.4-1l-2.9 3.3 3.3-2.9c1.7-1.7 3.2-3.1 3.2-3.3 0-0.8-0.8-0.1-3.6 2.9zm-508.4 0.2c0 1.1 4 8.6 4.5 8.6 0.3 0-0.4-1.9-1.6-4.3-2.3-4.5-2.9-5.4-2.9-4.3zm430 2.2c0 0.6 0.7 1.9 1.6 3 1.4 1.8 1.4 1.8 0.3-0.6-1.4-3.1-1.9-3.6-1.9-2.4zm72.4 2c-1.8 1.4-1.8 1.5 0.4 0.4 1.2-0.6 2.2-1.3 2.2-1.5 0-0.8-0.5-0.6-2.6 1.1zm-392.7 2.9c-0.9 1.9-1.5 3.5-1.2 3.5 0.7 0 3.7-6.1 3.3-6.6-0.3-0.2-1.2 1.2-2.1 3.1zm360.7-2.1c1.1 0.9 2.4 1.6 3 1.6 1.2 0 0.7-0.5-2.4-1.9-2.4-1.1-2.4-1.1-0.6 0.3zm68.6 0.6c-0.6 1.1-0.8 2-0.6 2 0.3 0 1-0.9 1.6-2 0.6-1.1 0.8-2 0.6-2-0.3 0-1 0.9-1.6 2zm-468 0c-0.9 0.6-1 1-0.3 1 0.6 0 1.5-0.5 1.8-1 0.8-1.2 0.4-1.2-1.5 0zm363.6 4.8c1 1.8 2.8 4.1 3.8 5 1.2 1 0.8 0-0.9-2.3-4-5.6-5.1-6.6-2.9-2.7zm50.7-1.1c0.9 0.2 2.3 0.2 3 0 0.6-0.3-0.1-0.5-1.8-0.5-1.6 0-2.2 0.2-1.2 0.5zm50.2 1.9c-0.9 1.5-1.2 2.3-0.6 2 1.1-0.7 3.5-4.6 2.8-4.6-0.3 0-1.2 1.2-2.2 2.6zm-429.6 2.1c-1.3 1.6-1.2 1.7 0.4 0.4 0.9-0.7 1.7-1.5 1.7-1.7 0-0.8-0.8-0.3-2.1 1.3zm-95.9 2.8c1.9 1.9 3.6 3.5 3.9 3.5 0.3 0-1-1.6-2.9-3.5-1.9-1.9-3.6-3.5-3.9-3.5-0.3 0 1 1.6 2.9 3.5zm517 4.7c-3.6 3.4-4.7 4.7-2.5 3.1 3.8-3 10.4-9.4 9.4-9.3-0.2 0.1-3.3 2.8-6.9 6.2zm-426.5-1l-4 4.3 4.3-4c3.9-3.6 4.7-4.5 3.9-4.5-0.2 0-2.1 1.9-4.2 4.2zm342 0.4c0.6 0.5 2.3 2 4 3.4 2.9 2.4 2.9 2.4 1 0.2-1.1-1.3-2.9-2.8-4-3.4-1.1-0.6-1.5-0.6-1-0.2zm-424.1 3.8c3.9 3.5 12.6 9 13.2 8.3 0.2-0.2-1.5-1.4-3.9-2.7-2.3-1.3-6.2-3.8-8.7-5.7l-4.5-3.5zm73.6 2.7c-2.2 1.8-2.2 1.9-0.3 1 1.2-0.6 2.5-1.6 2.8-2.1 0.9-1.5 0.3-1.2-2.5 1.1zm358.4-0.2c0.7 1.1 4.6 3.5 4.6 2.8 0-0.3-1.2-1.2-2.6-2.2-1.5-0.9-2.3-1.2-2-0.6zm-364.4 3.6c-1.4 0.8-2 1.4-1.4 1.5 0.5 0 1.9-0.7 3-1.5 2.4-1.8 1.6-1.9-1.6 0zm427 0.5c-1.9 1.1-3.1 1.9-2.7 2 1.1 0 6.7-2.9 6.7-3.5 0-0.7-0.1-0.7-4 1.5zm-55.6 0.4c1.1 0.9 2.4 1.6 3 1.6 1.2 0 0.7-0.5-2.4-1.9-2.4-1.1-2.4-1.1-0.6 0.3zm-417.7 4.3c1 0.7 1.3 33.4 1.6 155.4l0.2 154.4v-154.9c0-136.9-0.2-155-1.5-155.3-1.1-0.3-1.2-0.2-0.3 0.4zm32.8 0.5c-0.3 0.7-0.4 70.4-0.3 154.8l0.3 153.5 0.3-154.2c0.1-122.2 0.5-154.2 1.5-154.6 0.9-0.4 0.9-0.6-0.1-0.6-0.7-0.1-1.5 0.5-1.7 1.1zm428 0c-0.3 0.7-0.4 70.6-0.3 155.3l0.3 154 0.3-154.7c0.1-122.6 0.5-154.7 1.5-155.1 0.9-0.4 0.9-0.6-0.1-0.6-0.7-0.1-1.5 0.5-1.7 1.1zm-30.2 42.3c0 3.3 0.2 4.5 0.4 2.7 0.2-1.8 0.2-4.5 0-6-0.2-1.5-0.4 0-0.4 3.3zm0 21c0 2.2 0.2 3 0.4 1.7 0.2-1.2 0.2-3 0-4-0.3-0.9-0.5 0.1-0.4 2.3zm0.1 16c0 6.6 0.1 9.2 0.3 5.7 0.2-3.4 0.2-8.8 0-12-0.2-3.1-0.3-0.3-0.3 6.3zm0 27c0 8.2 0.2 11.5 0.3 7.2 0.2-4.3 0.2-11 0-15-0.1-4-0.3-0.5-0.3 7.8zm0 30c0 4.9 0.1 7.1 0.3 4.8 0.2-2.3 0.2-6.4 0-9-0.2-2.6-0.3-0.8-0.3 4.2zm0.1 55.5c0 22.8 0.1 32.2 0.2 20.7 0.2-11.4 0.2-30 0-41.5-0.1-11.4-0.2-2-0.2 20.8zm-0.2 49.5c0 3.8 0.2 5.3 0.4 3.2 0.2-2 0.2-5.2 0-7-0.2-1.7-0.4-0.1-0.4 3.8zm0 18c0 4.4 0.2 6.1 0.4 3.7 0.2-2.3 0.2-5.9 0-8-0.2-2-0.4-0.1-0.4 4.3zm-0.2 11.1c0 1.1 0.3 1.4 0.6 0.6 0.3-0.7 0.2-1.6-0.1-1.9-0.3-0.4-0.6 0.2-0.5 1.3zm38 40.8c1 0.9 6.9 3.6 6.9 3.2 0-0.6-5.5-3.6-6.6-3.6-0.4 0-0.5 0.2-0.3 0.4zm-481.7 3.2c-1.8 1.4-1.8 1.5 0.4 0.4 1.2-0.6 2.2-1.3 2.2-1.5 0-0.8-0.5-0.6-2.6 1.1zm-5.5 3.5l-2.4 2 2.8-1.7c1.5-0.9 2.7-1.8 2.7-2 0-0.8-0.8-0.4-3.1 1.7zm497.1-1.8c0 0.3 1.2 1.2 2.6 2.2 1.5 0.9 2.3 1.2 2 0.6-0.7-1.1-4.6-3.5-4.6-2.8zm-427 1.1c0 0.2 0.8 1 1.8 1.7 1.5 1.3 1.6 1.2 0.3-0.4-1.3-1.6-2.1-2.1-2.1-1.3zm354.4 3.8l-1.9 2.3 2.3-1.9c2.1-1.8 2.7-2.6 1.9-2.6-0.2 0-1.2 1-2.3 2.2zm-346.4 3c4.1 4.5 5 5.3 5 4.5 0-0.2-2.1-2.3-4.7-4.7l-4.8-4.5zm-87 1.3c-2.4 2.5-4.2 4.5-3.9 4.5 0.3 0 2.5-2 4.9-4.5 2.4-2.5 4.2-4.5 3.9-4.5-0.3 0-2.5 2-4.9 4.5zm517.1 0c2.1 2.3 4.9 6.1 6.4 8.4 1.5 2.2 3 4.1 3.2 4.1 1.1 0-3.7-6.7-8.2-11.4-2.7-2.9-3.4-3.4-1.4-1.1zm-90.7 2.7c-3 3.4-4.7 5.8-4.2 5.8 0.3 0 1.9-1.8 3.7-4 3.4-4.3 3.8-5.5 0.5-1.8zm-436 10.3c-1.4 2.5-2.5 4.8-2.3 5 0.2 0.2 1.6-1.9 3.2-4.6 3.4-6.2 2.7-6.5-0.9-0.4zm106.1-2.1c1 1.4 1.9 2.6 2.2 2.6 0.7 0-1.7-3.9-2.8-4.6-0.6-0.3-0.3 0.5 0.6 2zm-50.7-0.7c0.6 0.2 1.8 0.2 2.5 0 0.6-0.3 0.1-0.5-1.3-0.5-1.4 0-1.9 0.2-1.2 0.5zm424.5 0c0.9 0.2 2.3 0.2 3 0 0.6-0.3-0.1-0.5-1.8-0.5-1.6 0-2.2 0.2-1.2 0.5zm5.5 0c0.6 0.2 1.8 0.2 2.5 0 0.6-0.3 0.1-0.5-1.3-0.5-1.4 0-1.9 0.2-1.2 0.5zm-443.8 1.8c-3.3 1.9-2.1 1.9 2.1 0 1.9-0.8 2.7-1.4 1.9-1.4-0.8 0-2.6 0.6-4 1.4zm20.8-0.8c0.7 0.3 1.6 0.2 1.9-0.1 0.4-0.3-0.2-0.6-1.3-0.5-1.1 0-1.4 0.3-0.6 0.6zm406.6 1.9c-1.8 1.4-1.8 1.4 0.6 0.3 3.1-1.4 3.6-1.9 2.4-1.9-0.6 0-1.9 0.7-3 1.6zm25.6-0.6c0.8 0.5 2 1 2.5 1 0.6 0 0.3-0.5-0.5-1-0.8-0.5-1.9-1-2.5-1-0.5 0-0.3 0.5 0.5 1zm-424.5 1.7c4.3 2.2 8.3 6.1 11.6 11.2 1.6 2.5 2.9 4.1 2.9 3.5 0-3.9-12.9-16.5-16.7-16.4-0.4 0.1 0.6 0.8 2.2 1.7zm-34.6 1.4l-2.4 2 2.8-1.7c1.5-0.9 2.7-1.8 2.7-2 0-0.8-0.8-0.4-3.1 1.7zm463.1-1.7c0 0.3 0.9 1 2 1.6 1.1 0.6 2 0.8 2 0.6 0-0.3-0.9-1-2-1.6-1.1-0.6-2-0.8-2-0.6zm40.3 4.6c1.1 2.7 2.3 4.8 2.5 4.6 0.4-0.5-3.5-9.6-4.2-9.6-0.2 0 0.5 2.2 1.7 5zm-430.2-3.5c0 0.5 0.9 2.8 2 5 1 2.2 1.6 2.9 1.3 1.5-0.7-2.8-3.3-8-3.3-6.5zm317.9 1.6c-0.7 1.1-1 2.3-0.7 2.5 0.2 0.2 0.9-0.7 1.5-2.1 1.4-3 0.7-3.3-0.8-0.4zm35.1 1c-1.3 1.1-2.2 2.2-1.9 2.4 0.2 0.3 1.5-0.6 2.8-2 2.8-3 2.4-3.2-0.9-0.4zm45.4 3.1c2.2 2.7 4.1 4.8 4.3 4.8 0.7 0-3.6-5.6-5.9-7.5-1.2-1.1-0.5 0.1 1.6 2.7zm-479.6 2.5c-1.3 1.6-1.2 1.7 0.4 0.4 0.9-0.7 1.7-1.5 1.7-1.7 0-0.8-0.8-0.3-2.1 1.3zm429.4-0.5c-1.5 2-2.5 3.8-2 3.8 0.3 0 1.2-1.1 2.1-2.5 1.7-2.6 1.6-3.5-0.1-1.3zm84.8 3.4c0 1.1 0.3 1.4 0.6 0.6 0.3-0.7 0.2-1.6-0.1-1.9-0.3-0.4-0.6 0.2-0.5 1.3zm-424.8 1.1c0.9 0.2 2.5 0.2 3.5 0 0.9-0.3 0.1-0.5-1.8-0.5-1.9 0-2.7 0.2-1.7 0.5zm7.5 0c1.2 0.2 3.2 0.2 4.5 0 1.2-0.2 0.2-0.4-2.3-0.4-2.5 0-3.5 0.2-2.2 0.4zm8.5 0c0.9 0.2 2.5 0.2 3.5 0 0.9-0.3 0.1-0.5-1.8-0.5-1.9 0-2.7 0.2-1.7 0.5zm10.5 0c0.7 0.3 1.6 0.2 1.9-0.1 0.4-0.3-0.2-0.6-1.3-0.5-1.1 0-1.4 0.3-0.6 0.6zm6.5 0c1.5 0.2 3.9 0.2 5.5 0 1.5-0.2 0.2-0.4-2.8-0.4-3 0-4.3 0.2-2.7 0.4zm9.5 0c0.6 0.2 1.8 0.2 2.5 0 0.6-0.3 0.1-0.5-1.3-0.5-1.4 0-1.9 0.2-1.2 0.5zm6 0c1.2 0.2 3 0.2 4 0 0.9-0.3-0.1-0.5-2.3-0.4-2.2 0-3 0.2-1.7 0.4zm69 0c34.7 0.2 91.7 0.2 126.5 0 34.7-0.1 6.3-0.2-63.3-0.2-69.6 0-98 0.1-63.2 0.2zm218.8 1.8c-0.9 2.6-0.7 3.2 0.5 1.2 0.6-1 0.9-2.1 0.6-2.3-0.2-0.3-0.7 0.2-1.1 1.1zm-459.4 1.5c0 1.4 0.2 1.9 0.5 1.2 0.2-0.6 0.2-1.8 0-2.5-0.3-0.6-0.5-0.1-0.5 1.3zm518.8-1.5c0 0.5 0.5 1.7 1 2.5 0.5 0.8 1 1 1 0.5 0-0.6-0.5-1.7-1-2.5-0.5-0.8-1-1.1-1-0.5zm30.1 1.1c0 1.1 0.3 1.4 0.6 0.6 0.3-0.7 0.2-1.6-0.1-1.9-0.3-0.4-0.6 0.2-0.5 1.3zm-91 4c0 1.1 0.3 1.4 0.6 0.6 0.3-0.7 0.2-1.6-0.1-1.9-0.3-0.4-0.6 0.2-0.5 1.3zm-458.8 7.4c0 4.7 0.2 6.6 0.4 4.2 0.2-2.3 0.2-6.1 0-8.5-0.2-2.3-0.4-0.4-0.4 4.3zm92.9-6c0 1.4 0.2 1.9 0.5 1.2 0.2-0.6 0.2-1.8 0-2.5-0.3-0.6-0.5-0.1-0.5 1.3zm458 1c0 1.9 0.2 2.7 0.5 1.7 0.2-0.9 0.2-2.5 0-3.5-0.3-0.9-0.5-0.1-0.5 1.8zm-521.9 4.5c0 2.7 0.2 3.8 0.4 2.2 0.2-1.5 0.2-3.7 0-5-0.2-1.2-0.4 0-0.4 2.8zm429 0.5c0 2.5 0.2 3.5 0.4 2.2 0.2-1.2 0.2-3.2 0-4.5-0.2-1.2-0.4-0.2-0.4 2.3zm64.9 0c0 1.9 0.2 2.7 0.5 1.7 0.2-0.9 0.2-2.5 0-3.5-0.3-0.9-0.5-0.1-0.5 1.8zm-430 4c0 1.4 0.2 1.9 0.5 1.2 0.2-0.6 0.2-1.8 0-2.5-0.3-0.6-0.5-0.1-0.5 1.3zm458 2c0 1.9 0.2 2.7 0.5 1.7 0.2-0.9 0.2-2.5 0-3.5-0.3-0.9-0.5-0.1-0.5 1.8zm-29.1 0.6c0 1.1 0.3 1.4 0.6 0.6 0.3-0.7 0.2-1.6-0.1-1.9-0.3-0.4-0.6 0.2-0.5 1.3zm-492 1c0 1.1 0.3 1.4 0.6 0.6 0.3-0.7 0.2-1.6-0.1-1.9-0.3-0.4-0.6 0.2-0.5 1.3zm-28.9 4.4c0 1.4 0.2 1.9 0.5 1.2 0.2-0.6 0.2-1.8 0-2.5-0.3-0.6-0.5-0.1-0.5 1.3zm89.4 0.7c-0.6 1.4-0.5 1.5 0.5 0.6 0.7-0.7 1-1.5 0.7-1.8-0.3-0.3-0.9 0.2-1.2 1.2zm459 1.4c-0.3 1.8-0.4 3.4-0.2 3.6 0.2 0.3 0.7-1 1.1-2.7 0.4-1.7 0.5-3.4 0.2-3.6-0.2-0.3-0.7 1-1.1 2.7zm-517.6-1.2c0 0.6 0.4 1.3 1 1.6 0.6 0.3 0.7-0.1 0.4-0.9-0.7-1.8-1.4-2.1-1.4-0.7zm431 3.1c0.6 1.1 1.3 2 1.6 2 0.2 0 0-0.9-0.6-2-0.6-1.1-1.3-2-1.6-2-0.2 0 0 0.9 0.6 2zm-375 1c-0.6 1.1-0.8 2-0.6 2 0.3 0 1-0.9 1.6-2 0.6-1.1 0.8-2 0.6-2-0.3 0-1 0.9-1.6 2zm345.1 2.6c0 1.1 0.3 1.4 0.6 0.6 0.3-0.7 0.2-1.6-0.1-1.9-0.3-0.4-0.6 0.2-0.5 1.3zm-394.1 2.9c1.9 1.9 3.6 3.5 3.9 3.5 0.3 0-1-1.6-2.9-3.5-1.9-1.9-3.6-3.5-3.9-3.5-0.3 0 1 1.6 2.9 3.5zm426.3-2.8c0.9 1.4 8.7 7.7 8.7 7 0-0.3-2.1-2.2-4.7-4.3-2.6-2.1-4.4-3.3-4-2.7zm48.1 2.5l-2.9 3.3 3.3-2.9c1.7-1.7 3.2-3.1 3.2-3.3 0-0.8-0.8-0.1-3.6 2.9zm-428.5-0.5c-1.3 1.6-1.2 1.7 0.4 0.4 1.6-1.3 2.1-2.1 1.3-2.1-0.2 0-1 0.8-1.7 1.7zm31.3 3.8c-1.2 2.5-2 4.5-1.7 4.5 0.7 0 4.7-8.1 4.3-8.6-0.3-0.2-1.4 1.7-2.6 4.1zm429 1c-1.2 2.5-2 4.5-1.7 4.5 0.7 0 4.7-8.1 4.3-8.6-0.3-0.2-1.4 1.7-2.6 4.1zm-464.3-1.8c-1.3 1.6-1.2 1.7 0.4 0.4 0.9-0.7 1.7-1.5 1.7-1.7 0-0.8-0.8-0.3-2.1 1.3zm354.1-0.1c0 0.6 0.7 1.9 1.6 3 1.4 1.8 1.4 1.8 0.3-0.6-1.4-3.1-1.9-3.6-1.9-2.4zm69 3.9c-1.4 0.8-2 1.4-1.4 1.5 0.5 0 1.9-0.7 3-1.5 2.4-1.8 1.6-1.9-1.6 0zm-456 0.5c0.8 0.5 2.2 0.9 3 0.9 1 0 0.8-0.3-0.5-0.9-2.7-1.2-4.3-1.2-2.5 0zm20.8 1.7c0.7 0.3 1.6 0.2 1.9-0.1 0.4-0.3-0.2-0.6-1.3-0.5-1.1 0-1.4 0.3-0.6 0.6zm414 0c0.7 0.3 1.6 0.2 1.9-0.1 0.4-0.3-0.2-0.6-1.3-0.5-1.1 0-1.4 0.3-0.6 0.6zm15 0c0.7 0.3 1.6 0.2 1.9-0.1 0.4-0.3-0.2-0.6-1.3-0.5-1.1 0-1.4 0.3-0.6 0.6zm-438 1c1.2 0.2 3 0.2 4 0 0.9-0.3-0.1-0.5-2.3-0.4-2.2 0-3 0.2-1.7 0.4zm429 0c1.2 0.2 3 0.2 4 0 0.9-0.3-0.1-0.5-2.3-0.4-2.2 0-3 0.2-1.7 0.4zm-478.8 2.7c0 0.2 0.8 1 1.8 1.7 1.5 1.3 1.6 1.2 0.3-0.4-1.3-1.6-2.1-2.1-2.1-1.3zm528.9 2.3c-1.3 1.6-1.2 1.7 0.4 0.4 1.6-1.3 2.1-2.1 1.3-2.1-0.2 0-1 0.8-1.7 1.7zm-430 1c-1.3 1.6-1.2 1.7 0.4 0.4 0.9-0.7 1.7-1.5 1.7-1.7 0-0.8-0.8-0.3-2.1 1.3zm336.6 3.3c1 1.1 2 2 2.3 2 0.3 0-0.3-0.9-1.3-2-1-1.1-2-2-2.3-2-0.3 0 0.3 0.9 1.3 2zm-426.5 3.5c1.9 1.9 3.6 3.5 3.9 3.5 0.3 0-1-1.6-2.9-3.5-1.9-1.9-3.6-3.5-3.9-3.5-0.3 0 1 1.6 2.9 3.5zm514.9-1.8c-1.3 1.6-1.2 1.7 0.4 0.4 1.6-1.3 2.1-2.1 1.3-2.1-0.2 0-1 0.8-1.7 1.7zm-83.2 3.4c1.2 1.3 3.7 3.3 5.5 4.3 4.2 2.4 3.6 1.8-2.7-2.9-2.9-2.2-4.1-2.8-2.8-1.4zm77.2 1.6c-1.3 1.6-1.2 1.7 0.4 0.4 0.9-0.7 1.7-1.5 1.7-1.7 0-0.8-0.8-0.3-2.1 1.3zm-430 1c-1.3 1.6-1.2 1.7 0.4 0.4 0.9-0.7 1.7-1.5 1.7-1.7 0-0.8-0.8-0.3-2.1 1.3zm425.1 2.4c-2.2 1.8-2.2 1.9-0.3 1 1.2-0.6 2.5-1.6 2.8-2.1 0.9-1.5 0.3-1.2-2.5 1.1zm-430.2 0.5c-3.8 2-3.6 2.8 0.2 0.9 1.7-0.9 3-1.8 3-2 0-0.7-0.1-0.6-3.2 1.1zm-62.8 0.8c0 0.3 0.9 1 2 1.6 1.1 0.6 2 0.8 2 0.6 0-0.3-0.9-1-2-1.6-1.1-0.6-2-0.8-2-0.6zm434.7 2.7c0.7 0.7 1.5 1 1.8 0.7 0.3-0.3-0.2-0.9-1.2-1.2-1.4-0.6-1.5-0.5-0.6 0.5zm-428.7 0.9c0.8 0.5 2 1 2.5 1 0.6 0 0.3-0.5-0.5-1-0.8-0.5-1.9-1-2.5-1-0.5 0-0.3 0.5 0.5 1zm8.5 3c1.1 0.5 2.9 0.8 4 0.8 1.6 0 1.5-0.2-0.5-0.8-3.4-1.1-6-1.1-3.5 0zm429.3-0.3c0.7 0.3 1.6 0.2 1.9-0.1 0.4-0.3-0.2-0.6-1.3-0.5-1.1 0-1.4 0.3-0.6 0.6zm-401 1c0.7 0.3 1.6 0.2 1.9-0.1 0.4-0.3-0.2-0.6-1.3-0.5-1.1 0-1.4 0.3-0.6 0.6zm405 0c0.7 0.3 1.6 0.2 1.9-0.1 0.4-0.3-0.2-0.6-1.3-0.5-1.1 0-1.4 0.3-0.6 0.6zm25 0c0.7 0.3 1.6 0.2 1.9-0.1 0.4-0.3-0.2-0.6-1.3-0.5-1.1 0-1.4 0.3-0.6 0.6zm-448.5 1c0.9 0.2 2.3 0.2 3 0 0.6-0.3-0.1-0.5-1.8-0.5-1.6 0-2.2 0.2-1.2 0.5zm7.5 0c1.8 0.2 4.5 0.2 6 0 1.5-0.2 0-0.4-3.3-0.4-3.3 0-4.5 0.2-2.7 0.4zm424.5 0c2.6 0.2 6.8 0.2 9.5 0 2.6-0.2 0.4-0.3-4.8-0.3-5.2 0-7.4 0.1-4.7 0.3z"/><path d="m495.8 1.7c0.7 0.3 1.6 0.2 1.9-0.1 0.4-0.3-0.2-0.6-1.3-0.5-1.1 0-1.4 0.3-0.6 0.6zm-20.8 1.3c-0.9 0.6-1 1-0.3 1 0.6 0 1.5-0.5 1.8-1 0.8-1.2 0.4-1.2-1.5 0zm-370.5 16c1 1.1 2.3 2 2.8 2 0.6 0 0.1-0.9-1.1-2-1.2-1.1-2.4-2-2.8-2-0.4 0 0.1 0.9 1.1 2zm343.2-1.3c-0.4 0.3-0.7 1.1-0.7 1.7 0 0.6 0.5 0.5 1.2-0.2 0.6-0.6 0.9-1.4 0.7-1.7-0.3-0.3-0.9-0.2-1.2 0.2zm-387.9 12c0.6 0.2 1.8 0.2 2.5 0 0.6-0.3 0.1-0.5-1.3-0.5-1.4 0-1.9 0.2-1.2 0.5zm431 0c0.6 0.2 1.8 0.2 2.5 0 0.6-0.3 0.1-0.5-1.3-0.5-1.4 0-1.9 0.2-1.2 0.5zm-451.3 7.3c-0.3 0.5-0.1 1 0.4 1 0.6 0 1.1-0.5 1.1-1 0-0.6-0.2-1-0.4-1-0.3 0-0.8 0.4-1.1 1zm-38.4 17.6c0 1.1 0.3 1.4 0.6 0.6 0.3-0.7 0.2-1.6-0.1-1.9-0.3-0.4-0.6 0.2-0.5 1.3zm92.1 5.4c0 1.4 0.2 1.9 0.5 1.2 0.2-0.6 0.2-1.8 0-2.5-0.3-0.6-0.5-0.1-0.5 1.3zm458 0c0 1.4 0.2 1.9 0.5 1.2 0.2-0.6 0.2-1.8 0-2.5-0.3-0.6-0.5-0.1-0.5 1.3zm-65.4 31.2c0.5 0.5 1.6 0.8 2.3 0.6 0.8-0.3 0.3-0.7-1-1.1-1.7-0.4-2.1-0.3-1.3 0.5zm-423 0.5c0.6 0.2 1.8 0.2 2.5 0 0.6-0.3 0.1-0.5-1.3-0.5-1.4 0-1.9 0.2-1.2 0.5zm382.2 8.3c0 0.5 1 1.5 2.3 2.1 2.2 1.2 2.2 1.2 0.3-1-2.1-2.3-2.6-2.6-2.6-1.1zm-427.3 2.1c0.7 0.7 1.5 1 1.8 0.7 0.3-0.3-0.2-0.9-1.2-1.2-1.4-0.6-1.5-0.5-0.6 0.5zm455.3 15.4c1.2 1.4 1.5 4.9 1.4 17.4-0.1 8.6 0.2 14.7 0.6 13.6 0.4-1.1 0.8-8.3 0.9-16 0.2-13.6 0.1-14-2.1-15.4-2.2-1.3-2.2-1.3-0.8 0.4zm1.1 53.1c0 1.1 0.3 1.4 0.6 0.6 0.3-0.7 0.2-1.6-0.1-1.9-0.3-0.4-0.6 0.2-0.5 1.3zm0.2 10.4c0 4.1 0.2 5.8 0.4 3.7 0.2-2 0.2-5.4 0-7.5-0.2-2-0.4-0.3-0.4 3.8zm0 18.5c0 3.8 0.2 5.3 0.4 3.2 0.2-2 0.2-5.2 0-7-0.2-1.7-0.4-0.1-0.4 3.8zm-0.2 12.1c0 1.1 0.3 1.4 0.6 0.6 0.3-0.7 0.2-1.6-0.1-1.9-0.3-0.4-0.6 0.2-0.5 1.3zm-0.1 31.9c0 0.8 0.2 1.5 0.4 1.5 0.2 0 0.6-0.7 1-1.5 0.3-0.8 0.1-1.5-0.4-1.5-0.6 0-1 0.7-1 1.5zm0.2 14c0 1.6 0.2 2.2 0.5 1.2 0.2-0.9 0.2-2.3 0-3-0.3-0.6-0.5 0.1-0.5 1.8zm0.1 8.5c0 2.5 0.2 3.5 0.4 2.2 0.2-1.2 0.2-3.2 0-4.5-0.2-1.2-0.4-0.2-0.4 2.3zm0 16c0 2.5 0.2 3.5 0.4 2.2 0.2-1.2 0.2-3.2 0-4.5-0.2-1.2-0.4-0.2-0.4 2.3zm-0.1 23c0 1.9 0.2 2.7 0.5 1.7 0.2-0.9 0.2-2.5 0-3.5-0.3-0.9-0.5-0.1-0.5 1.8zm0 18.5c0 1.6 0.2 2.2 0.5 1.2 0.2-0.9 0.2-2.3 0-3-0.3-0.6-0.5 0.1-0.5 1.8zm-0.1 7.1c0 1.1 0.3 1.4 0.6 0.6 0.3-0.7 0.2-1.6-0.1-1.9-0.3-0.4-0.6 0.2-0.5 1.3zm0.1 8.4c0 1.4 0.2 1.9 0.5 1.2 0.2-0.6 0.2-1.8 0-2.5-0.3-0.6-0.5-0.1-0.5 1.3zm0.1 14.5c0 2.2 0.2 3 0.4 1.7 0.2-1.2 0.2-3 0-4-0.3-0.9-0.5 0.1-0.4 2.3zm0 9c0 2.2 0.2 3 0.4 1.7 0.2-1.2 0.2-3 0-4-0.3-0.9-0.5 0.1-0.4 2.3zm1 58c0 3.8 0.2 5.3 0.4 3.2 0.2-2 0.2-5.2 0-7-0.2-1.7-0.4-0.1-0.4 3.8zm30.5 7.2c0.6 0.2 1.8 0.2 2.5 0 0.6-0.3 0.1-0.5-1.3-0.5-1.4 0-1.9 0.2-1.2 0.5zm-419.8 2.7c0 0.2 0.7 0.7 1.6 1 0.8 0.3 1.2 0.2 0.9-0.4-0.6-1-2.5-1.4-2.5-0.6zm22.5 17.6c0.3 0.5 0.8 1 1.1 1 0.2 0 0.4-0.5 0.4-1 0-0.6-0.5-1-1.1-1-0.5 0-0.7 0.4-0.4 1zm-49.7 5.7c0.6 0.2 1.8 0.2 2.5 0 0.6-0.3 0.1-0.5-1.3-0.5-1.4 0-1.9 0.2-1.2 0.5zm7.2-0.3c0 0.2 0.7 0.7 1.6 1 0.8 0.3 1.2 0.2 0.9-0.4-0.6-1-2.5-1.4-2.5-0.6zm444 6.5c0 0.6 0.4 1.3 1 1.6 0.6 0.3 0.7-0.1 0.4-0.9-0.7-1.8-1.4-2.1-1.4-0.7zm-472.2 3.2c-1 1-1.4 1.9-1 1.9 0.5 0 1.7-0.9 2.7-2 1-1.1 1.4-2 0.9-1.9-0.5 0-1.7 0.9-2.6 2zm513.3 23.5c0 1.1 0.3 1.4 0.6 0.6 0.3-0.7 0.2-1.6-0.1-1.9-0.3-0.4-0.6 0.2-0.5 1.3zm-550.6 7.4c0.3 0.5 0.8 1 1.1 1 0.2 0 0.4-0.5 0.4-1 0-0.6-0.5-1-1.1-1-0.5 0-0.7 0.4-0.4 1zm194.3 5.7c40.4 0.2 106.1 0.2 146 0 40-0.1 7-0.2-73.3-0.2-80.3 0-113 0.1-72.7 0.2zm223 0c2.3 0.2 6.1 0.2 8.5 0 2.3-0.2 0.4-0.4-4.3-0.4-4.7 0-6.6 0.2-4.2 0.4zm-298.3 1.4c-0.4 0.6-0.5 1.2-0.2 1.5 0.2 0.3 0.7-0.2 1-1.1 0.7-1.7 0.1-2-0.8-0.4zm417 23c-0.4 0.6-0.5 1.2-0.2 1.5 0.2 0.3 0.7-0.2 1-1.1 0.7-1.7 0.1-2-0.8-0.4zm-430.5 1.4c-1.1 1.3-1 1.4 0.4 0.9 0.9-0.3 1.6-1 1.6-1.5 0-1.3-0.6-1.1-2 0.6zm-3.3 3.2c-0.4 0.3-0.7 1.1-0.7 1.7 0 0.6 0.5 0.5 1.2-0.2 0.6-0.6 0.9-1.4 0.7-1.7-0.3-0.3-0.9-0.2-1.2 0.2zm428.2 1c-1.3 1.6-1.2 1.7 0.4 0.4 0.9-0.7 1.7-1.5 1.7-1.7 0-0.8-0.8-0.3-2.1 1.3zm-507.9 3.3c0 0.5 0.5 1 1.1 1 0.5 0 0.7-0.5 0.4-1-0.3-0.6-0.8-1-1.1-1-0.2 0-0.4 0.4-0.4 1zm47.5 12c-0.3 0.5-0.1 1 0.4 1 0.6 0 1.1-0.5 1.1-1 0-0.6-0.2-1-0.4-1-0.3 0-0.8 0.4-1.1 1z" fill="rgb(85, 85, 85)"/><path d="m65.8 1.7c0.7 0.3 1.6 0.2 1.9-0.1 0.4-0.3-0.2-0.6-1.3-0.5-1.1 0-1.4 0.3-0.6 0.6zm457.4 57.8c0 1.6 0.2 2.2 0.5 1.2 0.2-0.9 0.2-2.3 0-3-0.3-0.6-0.5 0.1-0.5 1.8zm-49.1 148.1c0 1.1 0.3 1.4 0.6 0.6 0.3-0.7 0.2-1.6-0.1-1.9-0.3-0.4-0.6 0.2-0.5 1.3zm0.1 32.4c0 1.4 0.2 1.9 0.5 1.2 0.2-0.6 0.2-1.8 0-2.5-0.3-0.6-0.5-0.1-0.5 1.3zm-0.1 8.6c0 1.1 0.3 1.4 0.6 0.6 0.3-0.7 0.2-1.6-0.1-1.9-0.3-0.4-0.6 0.2-0.5 1.3zm0 40c0 1.1 0.3 1.4 0.6 0.6 0.3-0.7 0.2-1.6-0.1-1.9-0.3-0.4-0.6 0.2-0.5 1.3zm0 4c0 1.1 0.3 1.4 0.6 0.6 0.3-0.7 0.2-1.6-0.1-1.9-0.3-0.4-0.6 0.2-0.5 1.3zm0.2 21.9c0 2.2 0.2 3 0.4 1.7 0.2-1.2 0.2-3 0-4-0.3-0.9-0.5 0.1-0.4 2.3zm0 32c0 2.2 0.2 3 0.4 1.7 0.2-1.2 0.2-3 0-4-0.3-0.9-0.5 0.1-0.4 2.3zm-0.1 23c0 1.6 0.2 2.2 0.5 1.2 0.2-0.9 0.2-2.3 0-3-0.3-0.6-0.5 0.1-0.5 1.8zm0 7.5c0 1.4 0.2 1.9 0.5 1.2 0.2-0.6 0.2-1.8 0-2.5-0.3-0.6-0.5-0.1-0.5 1.3zm0 8c0 1.4 0.2 1.9 0.5 1.2 0.2-0.6 0.2-1.8 0-2.5-0.3-0.6-0.5-0.1-0.5 1.3zm0.1 9c0 2.5 0.2 3.5 0.4 2.2 0.2-1.2 0.2-3.2 0-4.5-0.2-1.2-0.4-0.2-0.4 2.3zm-0.1 7.5c0 1.6 0.2 2.2 0.5 1.2 0.2-0.9 0.2-2.3 0-3-0.3-0.6-0.5 0.1-0.5 1.8zm-391.2 58.9c0 0.2 0.8 1 1.8 1.7 1.5 1.3 1.6 1.2 0.3-0.4-1.3-1.6-2.1-2.1-2.1-1.3zm11.2 23.6c0 1.4 0.2 1.9 0.5 1.2 0.2-0.6 0.2-1.8 0-2.5-0.3-0.6-0.5-0.1-0.5 1.3zm38.1 14.7c7 0.2 18.4 0.2 25.5 0 7-0.1 1.2-0.3-12.8-0.3-14 0-19.8 0.2-12.7 0.3zm44.5 0c3.4 0.2 8.8 0.2 12 0 3.1-0.2 0.3-0.3-6.3-0.3-6.6 0-9.2 0.1-5.7 0.3zm46 0c15.6 0.2 40.8 0.2 56 0 15.2-0.1 2.5-0.2-28.3-0.2-30.8 0-43.3 0.1-27.7 0.2zm85.5 0c0.9 0.2 2.5 0.2 3.5 0 0.9-0.3 0.1-0.5-1.8-0.5-1.9 0-2.7 0.2-1.7 0.5zm14.5 0c4.6 0.2 11.8 0.2 16 0 4.2-0.1 0.5-0.3-8.3-0.3-8.8 0-12.3 0.2-7.7 0.3zm24.3-0.2c0.7 0.6 84 0.7 84.7 0 0.3-0.3-18.7-0.5-42.3-0.5-23.6 0-42.6 0.2-42.4 0.5zm186.8 28.2c-1.3 1.6-1.2 1.7 0.4 0.4 0.9-0.7 1.7-1.5 1.7-1.7 0-0.8-0.8-0.3-2.1 1.3z" fill="rgb(128, 128, 128)"/><path d="m59.3 1.7c0.9 0.2 2.5 0.2 3.5 0 0.9-0.3 0.1-0.5-1.8-0.5-1.9 0-2.7 0.2-1.7 0.5zm2.5 27c0.6 0.2 1.8 0.2 2.5 0 0.6-0.3 0.1-0.5-1.3-0.5-1.4 0-1.9 0.2-1.2 0.5zm450.2 7.7c0 0.2 0.8 1 1.8 1.7 1.5 1.3 1.6 1.2 0.3-0.4-1.3-1.6-2.1-2.1-2.1-1.3zm-417.8 23.6c0 1.9 0.2 2.7 0.5 1.7 0.2-0.9 0.2-2.5 0-3.5-0.3-0.9-0.5-0.1-0.5 1.8zm372.8 21.4c0 0.2 0.8 1 1.8 1.7 1.5 1.3 1.6 1.2 0.3-0.4-1.3-1.6-2.1-2.1-2.1-1.3zm66.4 19.8l-1.9 2.3 2.3-1.9c2.1-1.8 2.7-2.6 1.9-2.6-0.2 0-1.2 1-2.3 2.2zm-2.4 340.2c0 0.2 0.8 1 1.8 1.7 1.5 1.3 1.6 1.2 0.3-0.4-1.3-1.6-2.1-2.1-2.1-1.3zm-333.7 30.3c42.8 0.2 112.6 0.2 155 0 42.5-0.1 7.5-0.2-77.8-0.2-85.2 0-120 0.1-77.2 0.2zm-161.3 33.7c0 0.2 0.8 1 1.8 1.7 1.5 1.3 1.6 1.2 0.3-0.4-1.3-1.6-2.1-2.1-2.1-1.3zm409 19c0 0.2 0.8 1 1.8 1.7 1.5 1.3 1.6 1.2 0.3-0.4-1.3-1.6-2.1-2.1-2.1-1.3zm4 4c0 0.2 0.8 1 1.8 1.7 1.5 1.3 1.6 1.2 0.3-0.4-1.3-1.6-2.1-2.1-2.1-1.3z" fill="rgb(170, 170, 170)"/><path d="m199.3 74.7c42.7 0.2 112.7 0.2 155.5 0 42.7-0.1 7.7-0.2-77.8-0.2-85.5 0-120.5 0.1-77.7 0.2zm-122.8 196.3c0 83.3 0.1 117.4 0.2 75.8 0.2-41.7 0.2-109.9 0-151.5-0.1-41.7-0.2-7.6-0.2 75.7zm373.4 169.7c-1.3 1.6-1.2 1.7 0.4 0.4 1.6-1.3 2.1-2.1 1.3-2.1-0.2 0-1 0.8-1.7 1.7zm-345.9 2.8c1.3 1.4 2.6 2.5 2.8 2.5 0.3 0-0.5-1.1-1.8-2.5-1.3-1.4-2.6-2.5-2.8-2.5-0.3 0 0.5 1.1 1.8 2.5zm-86.1 0.2c-1.3 1.6-1.2 1.7 0.4 0.4 1.6-1.3 2.1-2.1 1.3-2.1-0.2 0-1 0.8-1.7 1.7zm42.4 9c0.9 0.2 2.3 0.2 3 0 0.6-0.3-0.1-0.5-1.8-0.5-1.6 0-2.2 0.2-1.2 0.5z" fill="rgb(212, 212, 212)"/><path d="m475.2 168c0 1.4 0.2 1.9 0.5 1.2 0.2-0.6 0.2-1.8 0-2.5-0.3-0.6-0.5-0.1-0.5 1.3zm-0.1 99.6c0 1.1 0.3 1.4 0.6 0.6 0.3-0.7 0.2-1.6-0.1-1.9-0.3-0.4-0.6 0.2-0.5 1.3z" fill="rgb(0, 0, 85)"/><path d="m47.3 3.5c-21.1 5.7-36.8 20.4-43 40.2-5.2 17-1.5 37.1 9.7 51.5 7.2 9.3 17.6 16.8 27.8 20.2l5.2 1.8v310.7l-4.2 1.1c-11.9 3.2-28.3 16.7-34.5 28.5-13.2 25.2-6.1 58.1 16.1 74.9 16.3 12.4 36.8 15.5 57 8.7 10-3.3 18-8.5 24.6-15.9 5.5-6.2 11.6-17 12.8-22.8l0.8-3.9 156.5-0.3 156.5-0.2 1.8 5.7c1 3.1 3.2 8.2 4.8 11.2 3.1 5.8 13.4 17.1 17.8 19.6 21.3 12.1 41 13.4 60.3 4 23.6-11.6 37.3-38.4 32.3-63.3-2-9.9-4.3-15.4-9.5-23-7.5-10.9-18.1-19-29.5-22.6l-5.6-1.8v-310.6l6.5-2.2c18.4-6.1 33.9-24 38.1-44 5.8-27.5-11.8-56.6-39.9-66.1-8.8-3-22.4-3.6-31.8-1.5-10 2.2-17 5.6-24.9 12.1-8.3 6.8-14.3 15.2-18 25.3-1.5 4.2-3.1 7.6-3.4 7.4-0.3-0.1-70.6-0.2-156.1-0.2h-155.4l-1.2-4.3c-2.1-7.9-8.2-18-14.9-24.7-7.2-7.3-19.4-14-28.8-15.9-7.2-1.5-21.6-1.3-27.9 0.4zm28.5 28c9.4 4.3 14.7 10.6 17.8 21.1 1.4 4.9 1.5 6.7 0.5 12.4-3.1 17.4-16.7 27.9-34.5 26.8-26.8-1.8-40-32.3-22.5-52.1 10.1-11.5 24.7-14.6 38.7-8.2zm428.5-0.2c7.4 3.4 13.1 8.8 16.4 15.5 2.3 4.7 2.8 7 2.8 13.2 0 6.5-0.5 8.5-3.3 14.2-3.7 7.5-7.9 11.4-16.7 15.4-4.9 2.3-6.7 2.6-13.3 2.2-9.7-0.5-15.9-3.3-22.7-10.3-13.8-14-10.6-38.3 6.3-48.2 9.9-5.8 20.7-6.5 30.5-2zm-71.3 43.5c0.8 0.4 1.6 2 1.7 3.6 0.1 1.6 1.4 5.4 2.9 8.3 6 12.4 18.7 23.5 32.2 28.3l6.2 2.3-0.2 155.5-0.3 155.6-3.7 0.8c-15.5 3.2-33.7 20.7-38.2 36.6l-1.7 6.2h-311.8l-1.5-5.3c-4.7-16-21-32.3-37.8-37.6-3.6-1.2-3.7-1.3-4.3-7.4-0.3-3.4-0.5-73.2-0.3-155l0.3-148.8 8-3.2c12.8-5.2 21.7-12.5 28.4-23.1 2.6-4.2 3.7-6.9 6.6-16.3 0.3-1 33.2-1.3 156.2-1.2 85.7 0 156.5 0.3 157.3 0.7zm-360.8 379.3c2 0.5 5.8 2.4 8.4 4.2 24.6 16.5 15.3 54.5-14.3 58.5-15.7 2.2-29.8-6.2-35.3-20.7-5.7-15.4 0.4-31.5 14.9-39.4 8.3-4.6 15.9-5.3 26.3-2.6zm430.6 0.8c22.2 8.7 28.2 36.5 11.5 52.7-7.2 7-12.2 8.9-23.3 8.9-11.4-0.1-16.1-1.9-23.2-9-6.5-6.5-9.2-12.3-9.6-21.2-0.5-9.1 1.6-15.6 7-21.7 9.7-11.1 24.3-14.9 37.6-9.7z" fill="rgb(255, 255, 255)"/><path d="m475.2 396c0 1.4 0.2 1.9 0.5 1.2 0.2-0.6 0.2-1.8 0-2.5-0.3-0.6-0.5-0.1-0.5 1.3z" fill="rgb(0, 85, 85)"/></svg>