<svg xmlns="http://www.w3.org/2000/svg" viewBox="0 0 563 536" width="32" height="32"><path d="m481.5 12c1 1.1 2 2 2.3 2 0.3 0-0.3-0.9-1.3-2-1-1.1-2-2-2.3-2-0.3 0 0.3 0.9 1.3 2zm-25.5 16.4c0 0.2 0.9 0.6 2 0.9 1.1 0.3 2 0.1 2-0.4 0-0.5-0.9-0.9-2-0.9-1.1 0-2 0.2-2 0.4zm-15.1 10.3c-1.3 1.6-1.2 1.7 0.4 0.4 0.9-0.7 1.7-1.5 1.7-1.7 0-0.8-0.8-0.3-2.1 1.3zm86.1 17.6c0 0.2 1.5 1.6 3.3 3.3l3.2 2.9-2.9-3.3c-2.8-3-3.6-3.7-3.6-2.9zm-20.5 16.7c2.1 2.2 4.1 4 4.4 4 0.3 0-1.3-1.8-3.4-4-2.1-2.2-4.1-4-4.4-4-0.3 0 1.3 1.8 3.4 4zm44.5 8.4c0 0.2 0.8 1 1.8 1.7 1.5 1.3 1.6 1.2 0.3-0.4-1.3-1.6-2.1-2.1-2.1-1.3zm-32 4c0 0.2 0.8 1 1.8 1.7 1.5 1.3 1.6 1.2 0.3-0.4-1.3-1.6-2.1-2.1-2.1-1.3zm-187.6 15.8l-1.9 2.3 2.3-1.9c2.1-1.8 2.7-2.6 1.9-2.6-0.2 0-1.2 1-2.3 2.2zm95.1 18l-5 5.3 5.3-5c2.8-2.7 5.2-5.1 5.2-5.2 0-0.8-0.9 0.1-5.5 4.9zm-93.9 18.1c0.3 1 0.9 1.5 1.2 1.2 0.3-0.3 0-1.1-0.7-1.8-1-0.9-1.1-0.8-0.5 0.6zm212.8 1.9l-1.9 2.3 2.3-1.9c2.1-1.8 2.7-2.6 1.9-2.6-0.2 0-1.2 1-2.3 2.2zm-210.4 0.2c0 0.2 0.8 1 1.8 1.7 1.5 1.3 1.6 1.2 0.3-0.4-1.3-1.6-2.1-2.1-2.1-1.3zm164.9 5.3c-1.3 1.6-1.2 1.7 0.4 0.4 1.6-1.3 2.1-2.1 1.3-2.1-0.2 0-1 0.8-1.7 1.7zm-152.9 6.8c1.3 1.4 2.6 2.5 2.8 2.5 0.3 0-0.5-1.1-1.8-2.5-1.3-1.4-2.6-2.5-2.8-2.5-0.3 0 0.5 1.1 1.8 2.5zm-72.6 0.7l-1.9 2.3 2.3-1.9c2.1-1.8 2.7-2.6 1.9-2.6-0.2 0-1.2 1-2.3 2.2zm250.5 6.5l-2.4 2.8 2.8-2.4c2.5-2.3 3.2-3.1 2.4-3.1-0.2 0-1.4 1.2-2.8 2.7zm-168.4 2.3c1 1.1 2 2 2.3 2 0.3 0-0.3-0.9-1.3-2-1-1.1-2-2-2.3-2-0.3 0 0.3 0.9 1.3 2zm124.4 2.7c-1.3 1.6-1.2 1.7 0.4 0.4 0.9-0.7 1.7-1.5 1.7-1.7 0-0.8-0.8-0.3-2.1 1.3zm-159.4 2.3c1 1.1 2 2 2.3 2 0.3 0-0.3-0.9-1.3-2-1-1.1-2-2-2.3-2-0.3 0 0.3 0.9 1.3 2zm9.5 9.5c1.3 1.4 2.6 2.5 2.8 2.5 0.3 0-0.5-1.1-1.8-2.5-1.3-1.4-2.6-2.5-2.8-2.5-0.3 0 0.5 1.1 1.8 2.5zm172.9 3.2c-1.3 1.6-1.2 1.7 0.4 0.4 0.9-0.7 1.7-1.5 1.7-1.7 0-0.8-0.8-0.3-2.1 1.3zm-42 3c-1.3 1.6-1.2 1.7 0.4 0.4 1.6-1.3 2.1-2.1 1.3-2.1-0.2 0-1 0.8-1.7 1.7zm-123.4 1.3c1 1.1 2 2 2.3 2 0.3 0-0.3-0.9-1.3-2-1-1.1-2-2-2.3-2-0.3 0 0.3 0.9 1.3 2zm156.4 5.7c-1.3 1.6-1.2 1.7 0.4 0.4 1.6-1.3 2.1-2.1 1.3-2.1-0.2 0-1 0.8-1.7 1.7zm-43 1c-1.3 1.6-1.2 1.7 0.4 0.4 1.6-1.3 2.1-2.1 1.3-2.1-0.2 0-1 0.8-1.7 1.7zm-6.5 7.5l-1.9 2.3 2.3-1.9c2.1-1.8 2.7-2.6 1.9-2.6-0.2 0-1.2 1-2.3 2.2zm-14.5 12.5c-1.3 1.6-1.2 1.7 0.4 0.4 0.9-0.7 1.7-1.5 1.7-1.7 0-0.8-0.8-0.3-2.1 1.3zm34.5 5.5l-1.9 2.3 2.3-1.9c2.1-1.8 2.7-2.6 1.9-2.6-0.2 0-1.2 1-2.3 2.2zm-223.9 8.8c1 1.1 2 2 2.3 2 0.3 0-0.3-0.9-1.3-2-1-1.1-2-2-2.3-2-0.3 0 0.3 0.9 1.3 2zm40.5-0.6c0 0.2 0.8 1 1.8 1.7 1.5 1.3 1.6 1.2 0.3-0.4-1.3-1.6-2.1-2.1-2.1-1.3zm170.9 5.3c-1.3 1.6-1.2 1.7 0.4 0.4 0.9-0.7 1.7-1.5 1.7-1.7 0-0.8-0.8-0.3-2.1 1.3zm-5 5c-1.3 1.6-1.2 1.7 0.4 0.4 0.9-0.7 1.7-1.5 1.7-1.7 0-0.8-0.8-0.3-2.1 1.3zm-195.9 1.7c0 0.2 0.8 1 1.8 1.7 1.5 1.3 1.6 1.2 0.3-0.4-1.3-1.6-2.1-2.1-2.1-1.3zm187.9 4.3c-1.3 1.6-1.2 1.7 0.4 0.4 1.6-1.3 2.1-2.1 1.3-2.1-0.2 0-1 0.8-1.7 1.7zm-143.2 2.2c-0.4 1.7-0.3 2.1 0.5 1.3 0.5-0.5 0.8-1.6 0.6-2.3-0.3-0.8-0.7-0.3-1.1 1zm102.2-0.2c-1.3 1.6-1.2 1.7 0.4 0.4 0.9-0.7 1.7-1.5 1.7-1.7 0-0.8-0.8-0.3-2.1 1.3zm-114.4 11.5l-4 4.3 4.3-4c3.9-3.6 4.7-4.5 3.9-4.5-0.2 0-2.1 1.9-4.2 4.2zm-78.6 0.5l-3.4 3.8 3.8-3.4c3.4-3.3 4.2-4.1 3.4-4.1-0.2 0-1.9 1.7-3.8 3.7zm-47 5c-1.3 1.6-1.2 1.7 0.4 0.4 0.9-0.7 1.7-1.5 1.7-1.7 0-0.8-0.8-0.3-2.1 1.3zm41 1c-1.3 1.6-1.2 1.7 0.4 0.4 1.6-1.3 2.1-2.1 1.3-2.1-0.2 0-1 0.8-1.7 1.7zm180 0c-1.3 1.6-1.2 1.7 0.4 0.4 1.6-1.3 2.1-2.1 1.3-2.1-0.2 0-1 0.8-1.7 1.7zm38 1c-1.3 1.6-1.2 1.7 0.4 0.4 1.6-1.3 2.1-2.1 1.3-2.1-0.2 0-1 0.8-1.7 1.7zm-265 5c-1.3 1.6-1.2 1.7 0.4 0.4 0.9-0.7 1.7-1.5 1.7-1.7 0-0.8-0.8-0.3-2.1 1.3zm41.6 0.3c-0.4 0.6-1.1 0.7-1.7 0.4-0.7-0.4-0.8-0.2-0.4 0.5 0.6 0.9 1.1 0.9 2.2 0 1.4-1.1 1.8-1.9 1-1.9-0.3 0-0.8 0.5-1.1 1zm170.9 6.2l-1.9 2.3 2.3-1.9c2.1-1.8 2.7-2.6 1.9-2.6-0.2 0-1.2 1-2.3 2.2zm34.5 5.5l-2.4 2.8 2.8-2.4c2.5-2.3 3.2-3.1 2.4-3.1-0.2 0-1.4 1.2-2.8 2.7zm-40.5 1.5l-2.9 3.3 3.3-2.9c1.7-1.7 3.2-3.1 3.2-3.3 0-0.8-0.8-0.1-3.6 2.9zm-221 0l-1.9 2.3 2.3-1.9c2.1-1.8 2.7-2.6 1.9-2.6-0.2 0-1.2 1-2.3 2.2zm71.6 10.3c1.3 1.4 2.6 2.5 2.8 2.5 0.3 0-0.5-1.1-1.8-2.5-1.3-1.4-2.6-2.5-2.8-2.5-0.3 0 0.5 1.1 1.8 2.5zm-49.1 8.2c-1.3 1.6-1.2 1.7 0.4 0.4 0.9-0.7 1.7-1.5 1.7-1.7 0-0.8-0.8-0.3-2.1 1.3zm173.5 5.5l-1.9 2.3 2.3-1.9c1.2-1.1 2.2-2.1 2.2-2.3 0-0.8-0.8-0.2-2.6 1.9zm-225 2l-1.9 2.3 2.3-1.9c1.2-1.1 2.2-2.1 2.2-2.3 0-0.8-0.8-0.2-2.6 1.9zm41.5 0.5c-1.3 1.6-1.2 1.7 0.4 0.4 1.6-1.3 2.1-2.1 1.3-2.1-0.2 0-1 0.8-1.7 1.7zm-7 8c-1.3 1.6-1.2 1.7 0.4 0.4 1.6-1.3 2.1-2.1 1.3-2.1-0.2 0-1 0.8-1.7 1.7zm-13 11c-1.3 1.6-1.2 1.7 0.4 0.4 0.9-0.7 1.7-1.5 1.7-1.7 0-0.8-0.8-0.3-2.1 1.3zm78.1 5.2c0 1.8 3 2.5 4.3 1.1 0.9-1 0.9-1.1-0.1-0.6-0.7 0.4-1.9 0.2-2.7-0.4-1.1-0.9-1.5-0.9-1.5-0.1zm133.9 3.8l-2.4 2.8 2.8-2.4c2.5-2.3 3.2-3.1 2.4-3.1-0.2 0-1.4 1.2-2.8 2.7zm-218.9 7.8c1.3 1.4 2.6 2.5 2.8 2.5 0.3 0-0.5-1.1-1.8-2.5-1.3-1.4-2.6-2.5-2.8-2.5-0.3 0 0.5 1.1 1.8 2.5zm8 8c1.9 1.9 3.6 3.5 3.9 3.5 0.3 0-1-1.6-2.9-3.5-1.9-1.9-3.6-3.5-3.9-3.5-0.3 0 1 1.6 2.9 3.5zm146.9 6.2l-2.4 2.8 2.8-2.4c1.5-1.4 2.7-2.6 2.7-2.8 0-0.8-0.8-0.1-3.1 2.4zm-234 11c-1.3 1.6-1.2 1.7 0.4 0.4 0.9-0.7 1.7-1.5 1.7-1.7 0-0.8-0.8-0.3-2.1 1.3zm39.5 1.5l-1.9 2.3 2.3-1.9c2.1-1.8 2.7-2.6 1.9-2.6-0.2 0-1.2 1-2.3 2.2zm214.1 7l-4 4.3 4.3-4c3.9-3.6 4.7-4.5 3.9-4.5-0.2 0-2.1 1.9-4.2 4.2zm-52.1 10l-2.9 3.3 3.3-2.9c1.7-1.7 3.2-3.1 3.2-3.3 0-0.8-0.8-0.1-3.6 2.9zm-182.5 2.5c-1.3 1.6-1.2 1.7 0.4 0.4 1.6-1.3 2.1-2.1 1.3-2.1-0.2 0-1 0.8-1.7 1.7zm80 4c-1.3 1.6-1.2 1.7 0.4 0.4 0.9-0.7 1.7-1.5 1.7-1.7 0-0.8-0.8-0.3-2.1 1.3zm119 20c-1.3 1.6-1.2 1.7 0.4 0.4 1.6-1.3 2.1-2.1 1.3-2.1-0.2 0-1 0.8-1.7 1.7zm-261.8 6.9c0 1.1 0.3 1.4 0.6 0.6 0.3-0.7 0.2-1.6-0.1-1.9-0.3-0.4-0.6 0.2-0.5 1.3zm247.8 5.1c-1.3 1.6-1.2 1.7 0.4 0.4 0.9-0.7 1.7-1.5 1.7-1.7 0-0.8-0.8-0.3-2.1 1.3zm-211.9 2.8c1.9 1.9 3.6 3.5 3.9 3.5 0.3 0-1-1.6-2.9-3.5-1.9-1.9-3.6-3.5-3.9-3.5-0.3 0 1 1.6 2.9 3.5zm165.9 0.2l-2.4 2.8 2.8-2.4c2.5-2.3 3.2-3.1 2.4-3.1-0.2 0-1.4 1.2-2.8 2.7zm-158.9 5.7c0 0.2 0.8 1 1.8 1.7 1.5 1.3 1.6 1.2 0.3-0.4-1.3-1.6-2.1-2.1-2.1-1.3zm7 8c0 0.2 0.8 1 1.8 1.7 1.5 1.3 1.6 1.2 0.3-0.4-1.3-1.6-2.1-2.1-2.1-1.3zm102.9 32.3c-1.3 1.6-1.2 1.7 0.4 0.4 0.9-0.7 1.7-1.5 1.7-1.7 0-0.8-0.8-0.3-2.1 1.3zm-93.4 18.3c1 1.1 2 2 2.3 2 0.3 0-0.3-0.9-1.3-2-1-1.1-2-2-2.3-2-0.3 0 0.3 0.9 1.3 2zm74.4-0.3c-1.3 1.6-1.2 1.7 0.4 0.4 1.6-1.3 2.1-2.1 1.3-2.1-0.2 0-1 0.8-1.7 1.7zm45 1c-1.3 1.6-1.2 1.7 0.4 0.4 0.9-0.7 1.7-1.5 1.7-1.7 0-0.8-0.8-0.3-2.1 1.3zm-69.9 6.7c0 0.2 0.8 1 1.8 1.7 1.5 1.3 1.6 1.2 0.3-0.4-1.3-1.6-2.1-2.1-2.1-1.3zm12.5 3.7c-0.4 0.6-0.5 1.2-0.2 1.5 0.2 0.3 0.7-0.2 1-1.1 0.7-1.7 0.1-2-0.8-0.4zm44.4 0.6c-1.3 1.6-1.2 1.7 0.4 0.4 0.9-0.7 1.7-1.5 1.7-1.7 0-0.8-0.8-0.3-2.1 1.3zm-90.9 3.7c0 0.2 0.8 1 1.8 1.7 1.5 1.3 1.6 1.2 0.3-0.4-1.3-1.6-2.1-2.1-2.1-1.3zm47.8 28.3c0.7 0.3 1.6 0.2 1.9-0.1 0.4-0.3-0.2-0.6-1.3-0.5-1.1 0-1.4 0.3-0.6 0.6z" fill="rgb(85, 85, 85)"/><path d="m458.6 1c3.8 0.5 9.1 1.8 11.7 2.9 2.6 1.1 4.7 1.8 4.7 1.5 0-1.5-10.4-4.6-16.5-4.9l-7-0.4zm-15.6 1.9c-6.8 2.6-18.8 12.8-70.3 59.6-11.5 10.4-24.1 21.9-28.1 25.4-3.9 3.5-10.9 10-15.6 14.5-7.9 7.5-14.4 13.4-36.6 33.7-4.5 4.1-20.4 18.6-35.4 32.4-14.9 13.7-30.6 28.1-34.9 32-7.1 6.4-33.2 30.6-76.6 71.1-9.3 8.7-17.7 16.5-18.6 17.4-3.3 3.1-29.5 27.7-37.9 35.5-4.7 4.4-20.9 19.5-36 33.5-38.9 36.1-47.6 44.8-50.1 50.4-2.3 5.4-3.6 14.5-2.3 16.9 0.6 1 0.9-0.8 1-5.2 0.1-12.2 2.4-15.3 34.5-45 58.3-54.2 79.6-74 93.9-87.7 8.5-8.1 35.9-33.7 69-64.3 6.3-5.9 25.2-23.3 42-38.6 16.8-15.4 36.6-33.6 44-40.5 7.5-6.9 20.9-19.3 30-27.5 9-8.3 27.9-25.5 41.9-38.4 14.1-12.8 29-26.3 33.1-30 20.5-18.1 35.7-31.7 37.3-33.3 4.4-4.5 12.7-9.8 18.2-11.7 3.3-1.1 5.1-2 4-2-1.1 0-4 0.8-6.5 1.8zm40 10c4.1 4.1 21.8 21.5 39.2 38.8 29.4 29.2 32.1 32.1 35.5 39 6.3 12.8 5.7 26-1.7 37-2.4 3.6-16.1 17.3-35.7 35.8-31.6 29.8-46.3 43.8-70.3 67-11.1 10.7-37.6 35.9-60.5 57.5-27 25.5-74.5 71.4-120 116-31.8 31.1-95.9 93.1-115.2 111.2-9.2 8.7-15.3 13.7-19.5 15.8-3.4 1.6-5.6 3-4.9 3 0.6 0 3.4-1.1 6-2.5 5.3-2.6 10.1-7 47.1-42.5 25-24 31.5-30.3 95-92 58.6-57 76.6-74.4 92.9-90 1.5-1.4 11.9-11.3 23.1-22 11.3-10.8 24.6-23.3 29.5-27.9 5-4.7 14-13.2 20-19.1 6.1-5.8 29.2-27.9 51.5-49 55.1-52.2 61-58.2 64.5-65.4 5.7-11.8 4.3-26.5-3.8-38.6-3-4.6-71.8-73.4-77.2-77.3-1.6-1.1 0.4 1.2 4.5 5.2zm-33.6 17.7c-2.1 1.5-6.6 5.2-9.9 8.4-3.3 3.1-11.2 10.4-17.5 16.1-6.3 5.7-13.6 12.4-16.3 14.9l-4.8 4.6 2.2 1.9 2.2 2-1.3-2.1c-1.2-1.9-0.7-2.7 6.6-9.6 25.3-23.8 38.6-35.5 42.9-37.4 1.7-0.7 2.3-1.3 1.4-1.4-0.9 0-3.4 1.2-5.5 2.6z"/><path d="m463 30.1c0 0.9 54 54.4 55.3 54.8 0.6 0.2-0.4-1.1-2.3-2.9-1.9-1.8-14.6-14.3-28.2-27.8-13.7-13.6-24.8-24.4-24.8-24.1zm-42.6 63.1c8.2 7.9 15.4 14.5 16 14.7 0.6 0.2-0.5-1.1-2.4-2.9-1.9-1.8-8.7-8.4-15.1-14.6-6.4-6.3-12-11.4-12.5-11.4-0.4 0 5.8 6.4 14 14.2zm105.1-0.1c3.8 4.1 7.1 7.6 7.4 7.9 0.2 0.3 0-0.2-0.4-1-1.9-3.4-8-10.2-10.9-12.2-1.8-1.3-0.2 1 3.9 5.3zm-161 14.2c-25.4 23.7-32 30-30.3 29.1 0.9-0.5 11-9.6 22.5-20.3 11.4-10.7 21.2-19.8 21.7-20.3 0.5-0.4 0.8-0.9 0.5-1.2-0.2-0.2-6.7 5.5-14.4 12.7z"/><path d="m392.1 104.7c17.9 17.4 24.4 23.3 25.9 23.3 0.9 0 5.8-4.4 11-9.7 11.4-11.7 11.2-11.7-0.9-0.1-5 4.9-9.6 8.8-10.2 8.8-0.6 0-8.7-7.2-17.9-16-9.2-8.8-17-16-17.3-16-0.3 0 3.9 4.4 9.4 9.7zm141.5 0.5c0.4 2.1 0.4 4.8 0 6.1-0.6 2.5-9.4 11.4-33.6 33.8-16.7 15.4-41.9 39.1-59.5 55.9-6 5.8-20.4 19.5-32 30.5-11.5 11-30.9 29.5-43 41.1-12.1 11.6-26.8 25.5-32.6 31-15 14-62.1 58.6-76.9 72.9-27 25.9-54.2 51.8-69 65.5-16.6 15.4-42.2 39.6-56 53-6.4 6.2-6.8 6.7-1.5 1.9 10.5-9.4 65.1-60.6 79.5-74.5 6.9-6.6 17.5-16.7 23.5-22.4 6.1-5.7 20-18.9 31-29.4 31.6-30 38-36.1 56-53.1 9.4-8.8 22.6-21.4 29.5-28.1 6.9-6.6 21.5-20.5 32.5-30.9 11-10.5 30.6-29.1 43.5-41.5 12.9-12.4 26.7-25.4 30.5-29 3.9-3.6 11.7-11.1 17.5-16.5 22.6-21.5 51.3-48 52.6-48.8 0.8-0.5 3.2-3.1 5.4-5.9 4.1-5.1 4.9-8.9 3-13.3-0.7-1.4-0.8-0.9-0.4 1.7zm-199.6 33.4c0 1 23.3 24.2 31 30.9 1.9 1.6-3.8-4.1-12.7-12.8-9-8.7-16.7-16.6-17.3-17.5-0.5-0.9-1-1.2-1-0.6zm-4.5 36.3c10.2 10 19 18.1 19.6 18.1 1.3 0 19.6-17.1 19.8-18.4 0-0.5-4.2 3.2-9.4 8.3-5.2 5-9.8 9.1-10.3 9.1-0.5 0-8.9-7.8-18.6-17.3-9.8-9.4-18.2-17.3-18.7-17.5-0.5-0.2 7.4 7.8 17.6 17.7zm-26-11.1c-3.3 3.1-13.5 12.8-22.6 21.5-9.2 8.7-17.4 16.3-18.3 17-1.4 1 0.8 3.6 16.9 19.7 10.2 10.2 18.5 18.2 18.5 17.8 0-0.3-7.9-8.4-17.5-17.9-9.6-9.5-17.5-17.6-17.5-18 0-0.3 6.2-6.4 13.8-13.4 17.3-16.2 33.3-31.7 33-32.1-0.2-0.1-3 2.3-6.3 5.4zm-82.2 76c-9.8 9.3-20.9 19.8-24.8 23.5l-7 6.6 21.3 21.2c11.6 11.7 21.4 21 21.7 20.7 0.3-0.3-8.9-9.6-20.5-20.8-11.6-11.2-20.9-20.6-20.8-21 0.2-0.4 5.9-6.1 12.8-12.6 6.9-6.5 17.6-16.7 23.8-22.6 6.2-5.9 11.6-10.8 12.1-10.8 0.4 0 9 8 19.1 17.7 10 9.8 18.7 18 19.4 18.2 1.2 0.4-1.8-2.5-23.7-23.7-7.5-7.2-14.1-13.2-14.6-13.2-0.6 0-9 7.6-18.8 16.8zm67.1 10.2c-4.5 4.4-7.8 8-7.5 8 0.4 0 4.2-3.6 8.6-8 4.4-4.4 7.7-8 7.5-8-0.3 0-4.2 3.6-8.6 8zm-129.5 48.4c-5.2 5.1-16.1 15.6-24.3 23.4l-14.9 14.1 4 4.3c2.2 2.4 11.6 11.7 20.9 20.8 9.3 9.1 14.7 14.1 11.9 11.2-2.7-2.9-11.9-12.1-20.3-20.5-8.4-8.3-15.1-15.4-15-15.7 0.3-0.5 16.3-16 36.2-34.8l10.9-10.4 7.6 7.4c4.2 4 13.3 12.9 20.4 19.8 7 6.8 12.7 12 12.7 11.4 0-0.6-2.6-3.5-5.7-6.4-3.2-2.9-12.4-11.7-20.4-19.5l-14.6-14.2zm65 22.3c-4.1 3.8-8.4 7.9-9.4 9.3-1.1 1.4 2.4-1.5 7.8-6.5 8.8-8.1 10.2-9.5 9.4-9.5-0.1 0-3.6 3-7.8 6.7zm-133.9 42.6c-44.4 42.6-57 55.1-56.9 56.5 0 1.3 0.2 1.3 0.8-0.3 0.8-1.9 62.3-61.6 64.2-62.3 0.5-0.2 9.7 8.1 20.5 18.5 10.8 10.3 20.2 19.1 20.9 19.6 1 0.5 4.5-2 11-7.9 5.2-4.8 9.3-8.9 9-9.2-0.3-0.3-4.6 3.4-9.5 8.2l-9.1 8.8-4.2-3.8c-2.3-2-4.6-4.2-5.2-4.8-3.1-3.5-32.5-30.6-33.2-30.6-0.4 0-4.2 3.3-8.3 7.3zm-52 63.2c6.7 7.5 75.8 75.5 76.7 75.5 0.4 0-5.3-6-12.7-13.3-7.5-7.2-25.9-25.4-41-40.2-15.1-14.9-25.5-24.8-23-22zm-36 2.6c0 3.7 8.3 12.8 48.2 52.6 23.3 23.1 43.9 43.5 45.8 45.2 4.2 3.8 10.3 6.9 15 7.6 2.2 0.4 1.4-0.1-2.3-1.4-3.1-1-7.9-3.6-10.5-5.7-2.6-2.1-24.4-23.4-48.4-47.4-33.4-33.2-44.2-44.6-45.8-48-1.1-2.5-2-3.8-2-2.9zm114.9 74.2c0.5 0.5 1.9 0.7 3.2 0.5 2-0.3 1.9-0.5-0.9-0.9-2-0.3-2.9-0.2-2.3 0.4zm0.4 32.4c1.5 0.2 3.7 0.2 5 0 1.2-0.2 0-0.4-2.8-0.4-2.7 0-3.8 0.2-2.2 0.4z"/><path d="m472 40.4c0 0.2 0.8 1 1.8 1.7 1.5 1.3 1.6 1.2 0.3-0.4-1.3-1.6-2.1-2.1-2.1-1.3zm-86.1 11.3c-1.3 1.6-1.2 1.7 0.4 0.4 0.9-0.7 1.7-1.5 1.7-1.7 0-0.8-0.8-0.3-2.1 1.3zm32.1 39.6c0 0.2 1.5 1.6 3.3 3.3l3.2 2.9-2.9-3.3c-2.8-3-3.6-3.7-3.6-2.9zm-23 15.1c0 0.2 0.8 1 1.8 1.7 1.5 1.3 1.6 1.2 0.3-0.4-1.3-1.6-2.1-2.1-2.1-1.3zm-80.1 10.3c-1.3 1.6-1.2 1.7 0.4 0.4 0.9-0.7 1.7-1.5 1.7-1.7 0-0.8-0.8-0.3-2.1 1.3zm47.1 50.7c0 0.2 0.8 1 1.8 1.7 1.5 1.3 1.6 1.2 0.3-0.4-1.3-1.6-2.1-2.1-2.1-1.3zm144.9 8.3c-1.3 1.6-1.2 1.7 0.4 0.4 1.6-1.3 2.1-2.1 1.3-2.1-0.2 0-1 0.8-1.7 1.7zm-38 36c-1.3 1.6-1.2 1.7 0.4 0.4 1.6-1.3 2.1-2.1 1.3-2.1-0.2 0-1 0.8-1.7 1.7zm-51.5 12.5l-1.9 2.3 2.3-1.9c1.2-1.1 2.2-2.1 2.2-2.3 0-0.8-0.8-0.2-2.6 1.9zm-125.9 21.7c-0.3 0.5-0.2 1.2 0.3 1.5 0.5 0.3 0.9-0.1 0.9-0.9 0-1.7-0.3-1.9-1.2-0.6zm135.4 7.8c-1.3 1.6-1.2 1.7 0.4 0.4 0.9-0.7 1.7-1.5 1.7-1.7 0-0.8-0.8-0.3-2.1 1.3zm-53.5 12.5l-1.9 2.3 2.3-1.9c2.1-1.8 2.7-2.6 1.9-2.6-0.2 0-1.2 1-2.3 2.2zm31.5 6.5c-1.3 1.6-1.2 1.7 0.4 0.4 0.9-0.7 1.7-1.5 1.7-1.7 0-0.8-0.8-0.3-2.1 1.3zm-211.4 2.3c1 1.1 2 2 2.3 2 0.3 0-0.3-0.9-1.3-2-1-1.1-2-2-2.3-2-0.3 0 0.3 0.9 1.3 2zm188.9 19.2l-1.9 2.3 2.3-1.9c2.1-1.8 2.7-2.6 1.9-2.6-0.2 0-1.2 1-2.3 2.2zm-225.5 7.5l-2.4 2.8 2.8-2.4c1.5-1.4 2.7-2.6 2.7-2.8 0-0.8-0.8-0.1-3.1 2.4zm205 12c-1.3 1.6-1.2 1.7 0.4 0.4 1.6-1.3 2.1-2.1 1.3-2.1-0.2 0-1 0.8-1.7 1.7zm-228 8c-1.3 1.6-1.2 1.7 0.4 0.4 0.9-0.7 1.7-1.5 1.7-1.7 0-0.8-0.8-0.3-2.1 1.3zm89 1c-1.3 1.6-1.2 1.7 0.4 0.4 1.6-1.3 2.1-2.1 1.3-2.1-0.2 0-1 0.8-1.7 1.7zm-134.5 41.5l-1.9 2.3 2.3-1.9c1.2-1.1 2.2-2.1 2.2-2.3 0-0.8-0.8-0.2-2.6 1.9zm17.6-1.8c0 0.2 0.8 1 1.8 1.7 1.5 1.3 1.6 1.2 0.3-0.4-1.3-1.6-2.1-2.1-2.1-1.3zm129.9 34.3c-1.3 1.6-1.2 1.7 0.4 0.4 0.9-0.7 1.7-1.5 1.7-1.7 0-0.8-0.8-0.3-2.1 1.3zm-189 7c-1.3 1.6-1.2 1.7 0.4 0.4 0.9-0.7 1.7-1.5 1.7-1.7 0-0.8-0.8-0.3-2.1 1.3zm171.5 9.5l-1.9 2.3 2.3-1.9c1.2-1.1 2.2-2.1 2.2-2.3 0-0.8-0.8-0.2-2.6 1.9zm36.5 4.5c-1.3 1.6-1.2 1.7 0.4 0.4 0.9-0.7 1.7-1.5 1.7-1.7 0-0.8-0.8-0.3-2.1 1.3zm-18.5 19.5l-1.9 2.3 2.3-1.9c2.1-1.8 2.7-2.6 1.9-2.6-0.2 0-1.2 1-2.3 2.2zm-181.9 47.8c1 1.1 2 2 2.3 2 0.3 0-0.3-0.9-1.3-2-1-1.1-2-2-2.3-2-0.3 0 0.3 0.9 1.3 2zm12 12c1 1.1 2 2 2.3 2 0.3 0-0.3-0.9-1.3-2-1-1.1-2-2-2.3-2-0.3 0 0.3 0.9 1.3 2zm62.9 0.2l-1.9 2.3 2.3-1.9c2.1-1.8 2.7-2.6 1.9-2.6-0.2 0-1.2 1-2.3 2.2zm-56.4 6.2c0 0.2 0.8 1 1.8 1.7 1.5 1.3 1.6 1.2 0.3-0.4-1.3-1.6-2.1-2.1-2.1-1.3zm90.9 2.3c-1.3 1.6-1.2 1.7 0.4 0.4 1.6-1.3 2.1-2.1 1.3-2.1-0.2 0-1 0.8-1.7 1.7z" fill="rgb(128, 128, 128)"/><path d="m421.9 19.7c-1.3 1.6-1.2 1.7 0.4 0.4 1.6-1.3 2.1-2.1 1.3-2.1-0.2 0-1 0.8-1.7 1.7zm68.1 0.6c0 0.2 1.5 1.6 3.3 3.3l3.2 2.9-2.9-3.3c-2.8-3-3.6-3.7-3.6-2.9zm11 11.1c0 0.2 0.8 1 1.8 1.7 1.5 1.3 1.6 1.2 0.3-0.4-1.3-1.6-2.1-2.1-2.1-1.3zm-75.5 67.6c1 1.1 2 2 2.3 2 0.3 0-0.3-0.9-1.3-2-1-1.1-2-2-2.3-2-0.3 0 0.3 0.9 1.3 2zm-55.6 2.7c-1.3 1.6-1.2 1.7 0.4 0.4 0.9-0.7 1.7-1.5 1.7-1.7 0-0.8-0.8-0.3-2.1 1.3zm22.1 1.8c1.3 1.4 2.6 2.5 2.8 2.5 0.3 0-0.5-1.1-1.8-2.5-1.3-1.4-2.6-2.5-2.8-2.5-0.3 0 0.5 1.1 1.8 2.5zm22 21c1.3 1.4 2.6 2.5 2.8 2.5 0.3 0-0.5-1.1-1.8-2.5-1.3-1.4-2.6-2.5-2.8-2.5-0.3 0 0.5 1.1 1.8 2.5zm-74.1 5.2c-1.3 1.6-1.2 1.7 0.4 0.4 1.6-1.3 2.1-2.1 1.3-2.1-0.2 0-1 0.8-1.7 1.7zm-61 20c-1.3 1.6-1.2 1.7 0.4 0.4 0.9-0.7 1.7-1.5 1.7-1.7 0-0.8-0.8-0.3-2.1 1.3zm253 2c-1.3 1.6-1.2 1.7 0.4 0.4 1.6-1.3 2.1-2.1 1.3-2.1-0.2 0-1 0.8-1.7 1.7zm-41 3c-1.3 1.6-1.2 1.7 0.4 0.4 1.6-1.3 2.1-2.1 1.3-2.1-0.2 0-1 0.8-1.7 1.7zm-14.5 13.5l-1.9 2.3 2.3-1.9c2.1-1.8 2.7-2.6 1.9-2.6-0.2 0-1.2 1-2.3 2.2zm-111.4 2.2c0 0.2 0.8 1 1.8 1.7 1.5 1.3 1.6 1.2 0.3-0.4-1.3-1.6-2.1-2.1-2.1-1.3zm-111.6 2.8l-1.9 2.3 2.3-1.9c2.1-1.8 2.7-2.6 1.9-2.6-0.2 0-1.2 1-2.3 2.2zm32.2 6.6c-0.3 0.5 0.1 0.9 0.9 0.9 0.8 0 1.2-0.4 0.9-0.9-0.3-0.4-0.7-0.8-0.9-0.8-0.2 0-0.6 0.4-0.9 0.8zm70.3 5.9c-1.3 1.6-1.2 1.7 0.4 0.4 0.9-0.7 1.7-1.5 1.7-1.7 0-0.8-0.8-0.3-2.1 1.3zm-126 9c-1.3 1.6-1.2 1.7 0.4 0.4 1.6-1.3 2.1-2.1 1.3-2.1-0.2 0-1 0.8-1.7 1.7zm242 14c-1.3 1.6-1.2 1.7 0.4 0.4 1.6-1.3 2.1-2.1 1.3-2.1-0.2 0-1 0.8-1.7 1.7zm-202.9 3.8c1.9 1.9 3.6 3.5 3.9 3.5 0.3 0-1-1.6-2.9-3.5-1.9-1.9-3.6-3.5-3.9-3.5-0.3 0 1 1.6 2.9 3.5zm199.9 1.2c-1.3 1.6-1.2 1.7 0.4 0.4 0.9-0.7 1.7-1.5 1.7-1.7 0-0.8-0.8-0.3-2.1 1.3zm-261 1c-1.3 1.6-1.2 1.7 0.4 0.4 1.6-1.3 2.1-2.1 1.3-2.1-0.2 0-1 0.8-1.7 1.7zm236 21c-1.3 1.6-1.2 1.7 0.4 0.4 0.9-0.7 1.7-1.5 1.7-1.7 0-0.8-0.8-0.3-2.1 1.3zm-263 4c-1.3 1.6-1.2 1.7 0.4 0.4 1.6-1.3 2.1-2.1 1.3-2.1-0.2 0-1 0.8-1.7 1.7zm112.6 4.2c-0.3 0.5-0.2 1.2 0.3 1.5 0.5 0.3 0.9-0.1 0.9-0.9 0-1.7-0.3-1.9-1.2-0.6zm-129.1 11.3l-1.9 2.3 2.3-1.9c2.1-1.8 2.7-2.6 1.9-2.6-0.2 0-1.2 1-2.3 2.2zm245.5 12.5c-1.3 1.6-1.2 1.7 0.4 0.4 1.6-1.3 2.1-2.1 1.3-2.1-0.2 0-1 0.8-1.7 1.7zm-61 22l-2.4 2.8 2.8-2.4c1.5-1.4 2.7-2.6 2.7-2.8 0-0.8-0.8-0.1-3.1 2.4zm-18.5 17.5l-1.9 2.3 2.3-1.9c2.1-1.8 2.7-2.6 1.9-2.6-0.2 0-1.2 1-2.3 2.2zm-139.4 4.2c0 0.2 0.8 1 1.8 1.7 1.5 1.3 1.6 1.2 0.3-0.4-1.3-1.6-2.1-2.1-2.1-1.3zm-91.1 4.3c-1.3 1.6-1.2 1.7 0.4 0.4 1.6-1.3 2.1-2.1 1.3-2.1-0.2 0-1 0.8-1.7 1.7zm37 3c-1.3 1.6-1.2 1.7 0.4 0.4 1.6-1.3 2.1-2.1 1.3-2.1-0.2 0-1 0.8-1.7 1.7zm-52.5 11.5l-1.9 2.3 2.3-1.9c1.2-1.1 2.2-2.1 2.2-2.3 0-0.8-0.8-0.2-2.6 1.9zm208.5 12.5l-2.4 2.8 2.8-2.4c1.5-1.4 2.7-2.6 2.7-2.8 0-0.8-0.8-0.1-3.1 2.4zm-236 13c-1.3 1.6-1.2 1.7 0.4 0.4 0.9-0.7 1.7-1.5 1.7-1.7 0-0.8-0.8-0.3-2.1 1.3zm38.5 1.5l-1.9 2.3 2.3-1.9c2.1-1.8 2.7-2.6 1.9-2.6-0.2 0-1.2 1-2.3 2.2zm44.1-0.2c1 1.1 2 2 2.3 2 0.3 0-0.3-0.9-1.3-2-1-1.1-2-2-2.3-2-0.3 0 0.3 0.9 1.3 2zm133.4 4.7c-1.3 1.6-1.2 1.7 0.4 0.4 0.9-0.7 1.7-1.5 1.7-1.7 0-0.8-0.8-0.3-2.1 1.3zm38.7 0.2c-1.4 1.5-1.5 2.1-0.4 2.7 0.7 0.4 1 0.3 0.5-0.1-0.4-0.5 0-1.7 1-2.7 0.9-1 1.4-1.8 1.1-1.8-0.3 0-1.3 0.9-2.2 1.9zm-5.2 5.3l-1.9 2.3 2.3-1.9c2.1-1.8 2.7-2.6 1.9-2.6-0.2 0-1.2 1-2.3 2.2zm-73.5 32.5c-1.3 1.6-1.2 1.7 0.4 0.4 1.6-1.3 2.1-2.1 1.3-2.1-0.2 0-1 0.8-1.7 1.7zm-183 1c-1.3 1.6-1.2 1.7 0.4 0.4 1.6-1.3 2.1-2.1 1.3-2.1-0.2 0-1 0.8-1.7 1.7zm-10.5 10.5l-2.9 3.3 3.3-2.9c1.7-1.7 3.2-3.1 3.2-3.3 0-0.8-0.8-0.1-3.6 2.9zm219.5 2.5c-1.3 1.6-1.2 1.7 0.4 0.4 0.9-0.7 1.7-1.5 1.7-1.7 0-0.8-0.8-0.3-2.1 1.3zm-203.9 30.7c0 0.2 0.8 1 1.8 1.7 1.5 1.3 1.6 1.2 0.3-0.4-1.3-1.6-2.1-2.1-2.1-1.3zm122.9 7.3c-1.3 1.6-1.2 1.7 0.4 0.4 1.6-1.3 2.1-2.1 1.3-2.1-0.2 0-1 0.8-1.7 1.7zm-150.9 5.6c0 0.2 1.5 1.6 3.3 3.3l3.2 2.9-2.9-3.3c-2.8-3-3.6-3.7-3.6-2.9zm8.5 8.7c1 1.1 2 2 2.3 2 0.3 0-0.3-0.9-1.3-2-1-1.1-2-2-2.3-2-0.3 0 0.3 0.9 1.3 2zm161.9 7.2l-2.9 3.3 3.3-2.9c1.7-1.7 3.2-3.1 3.2-3.3 0-0.8-0.8-0.1-3.6 2.9zm-153.9 0.8c1 1.1 2 2 2.3 2 0.3 0-0.3-0.9-1.3-2-1-1.1-2-2-2.3-2-0.3 0 0.3 0.9 1.3 2zm7 7c1 1.1 2 2 2.3 2 0.3 0-0.3-0.9-1.3-2-1-1.1-2-2-2.3-2-0.3 0 0.3 0.9 1.3 2zm97.9 39.2l-2.9 3.3 3.3-2.9c1.7-1.7 3.2-3.1 3.2-3.3 0-0.8-0.8-0.1-3.6 2.9zm-29.6 14.5c0.7 0.3 1.6 0.2 1.9-0.1 0.4-0.3-0.2-0.6-1.3-0.5-1.1 0-1.4 0.3-0.6 0.6z" fill="rgb(170, 170, 170)"/><path d="m456.3 1.7c0.9 0.2 2.5 0.2 3.5 0 0.9-0.3 0.1-0.5-1.8-0.5-1.9 0-2.7 0.2-1.7 0.5zm41.7 26.8c1.3 1.4 2.6 2.5 2.8 2.5 0.3 0-0.5-1.1-1.8-2.5-1.3-1.4-2.6-2.5-2.8-2.5-0.3 0 0.5 1.1 1.8 2.5zm-30.5 5.5c2.7 2.7 5.1 5 5.4 5 0.3 0-1.7-2.3-4.4-5-2.7-2.8-5.1-5-5.4-5-0.3 0 1.7 2.2 4.4 5zm6.5 6.3c0 0.2 1.5 1.6 3.3 3.3l3.2 2.9-2.9-3.3c-2.8-3-3.6-3.7-3.6-2.9zm11 10.9c4.1 4.5 5 5.3 5 4.5 0-0.2-2.1-2.3-4.7-4.7l-4.8-4.5zm-82.5 25.8c1 1.1 2 2 2.3 2 0.3 0-0.3-0.9-1.3-2-1-1.1-2-2-2.3-2-0.3 0 0.3 0.9 1.3 2zm-52.6 7.7c-1.3 1.6-1.2 1.7 0.4 0.4 0.9-0.7 1.7-1.5 1.7-1.7 0-0.8-0.8-0.3-2.1 1.3zm37.1 13.8c1.3 1.4 2.6 2.5 2.8 2.5 0.3 0-0.5-1.1-1.8-2.5-1.3-1.4-2.6-2.5-2.8-2.5-0.3 0 0.5 1.1 1.8 2.5zm-62.1 9.2c-1.3 1.6-1.2 1.7 0.4 0.4 0.9-0.7 1.7-1.5 1.7-1.7 0-0.8-0.8-0.3-2.1 1.3zm34.5 3.5l-1.9 2.3 2.3-1.9c2.1-1.8 2.7-2.6 1.9-2.6-0.2 0-1.2 1-2.3 2.2zm-49 10l-1.9 2.3 2.3-1.9c2.1-1.8 2.7-2.6 1.9-2.6-0.2 0-1.2 1-2.3 2.2zm111 2l-1.9 2.3 2.3-1.9c2.1-1.8 2.7-2.6 1.9-2.6-0.2 0-1.2 1-2.3 2.2zm96 7l-1.9 2.3 2.3-1.9c2.1-1.8 2.7-2.6 1.9-2.6-0.2 0-1.2 1-2.3 2.2zm-180.9 12.8c1 1.1 2 2 2.3 2 0.3 0-0.3-0.9-1.3-2-1-1.1-2-2-2.3-2-0.3 0 0.3 0.9 1.3 2zm165 2.2l-4 4.3 4.3-4c3.9-3.6 4.7-4.5 3.9-4.5-0.2 0-2.1 1.9-4.2 4.2zm37.4-0.5c-1.3 1.6-1.2 1.7 0.4 0.4 0.9-0.7 1.7-1.5 1.7-1.7 0-0.8-0.8-0.3-2.1 1.3zm-233.5 16.5l-1.9 2.3 2.3-1.9c2.1-1.8 2.7-2.6 1.9-2.6-0.2 0-1.2 1-2.3 2.2zm-40.5 1.5c-1.3 1.6-1.2 1.7 0.4 0.4 1.6-1.3 2.1-2.1 1.3-2.1-0.2 0-1 0.8-1.7 1.7zm99 15c-1.3 1.6-1.2 1.7 0.4 0.4 1.6-1.3 2.1-2.1 1.3-2.1-0.2 0-1 0.8-1.7 1.7zm-122 6c-1.3 1.6-1.2 1.7 0.4 0.4 0.9-0.7 1.7-1.5 1.7-1.7 0-0.8-0.8-0.3-2.1 1.3zm213 5l-2.4 2.8 2.8-2.4c1.5-1.4 2.7-2.6 2.7-2.8 0-0.8-0.8-0.1-3.1 2.4zm36.5 1.5l-1.9 2.3 2.3-1.9c2.1-1.8 2.7-2.6 1.9-2.6-0.2 0-1.2 1-2.3 2.2zm-223 6l-1.9 2.3 2.3-1.9c2.1-1.8 2.7-2.6 1.9-2.6-0.2 0-1.2 1-2.3 2.2zm170 8l-2.9 3.3 3.3-2.9c1.7-1.7 3.2-3.1 3.2-3.3 0-0.8-0.8-0.1-3.6 2.9zm-234.5 14.5l-2.4 2.8 2.8-2.4c2.5-2.3 3.2-3.1 2.4-3.1-0.2 0-1.4 1.2-2.8 2.7zm71.1-0.2c1.3 1.4 2.6 2.5 2.8 2.5 0.3 0-0.5-1.1-1.8-2.5-1.3-1.4-2.6-2.5-2.8-2.5-0.3 0 0.5 1.1 1.8 2.5zm-84.6 12.7l-1.9 2.3 2.3-1.9c2.1-1.8 2.7-2.6 1.9-2.6-0.2 0-1.2 1-2.3 2.2zm220.5-0.5c-1.3 1.6-1.2 1.7 0.4 0.4 1.6-1.3 2.1-2.1 1.3-2.1-0.2 0-1 0.8-1.7 1.7zm37 1c-1.3 1.6-1.2 1.7 0.4 0.4 0.9-0.7 1.7-1.5 1.7-1.7 0-0.8-0.8-0.3-2.1 1.3zm-23 22l-3.4 3.8 3.8-3.4c2-1.9 3.7-3.6 3.7-3.8 0-0.8-0.8 0-4.1 3.4zm-231 11c-1.3 1.6-1.2 1.7 0.4 0.4 0.9-0.7 1.7-1.5 1.7-1.7 0-0.8-0.8-0.3-2.1 1.3zm3.1 13.7c0 0.2 0.8 1 1.8 1.7 1.5 1.3 1.6 1.2 0.3-0.4-1.3-1.6-2.1-2.1-2.1-1.3zm4 4c0 0.2 0.8 1 1.8 1.7 1.5 1.3 1.6 1.2 0.3-0.4-1.3-1.6-2.1-2.1-2.1-1.3zm-87.6 20.8l-1.9 2.3 2.3-1.9c1.2-1.1 2.2-2.1 2.2-2.3 0-0.8-0.8-0.2-2.6 1.9zm74.6 5.2c0 0.2 0.8 1 1.8 1.7 1.5 1.3 1.6 1.2 0.3-0.4-1.3-1.6-2.1-2.1-2.1-1.3zm118.9 21.3c-1.3 1.6-1.2 1.7 0.4 0.4 0.9-0.7 1.7-1.5 1.7-1.7 0-0.8-0.8-0.3-2.1 1.3zm-206.9 26.7c0 0.2 0.8 1 1.8 1.7 1.5 1.3 1.6 1.2 0.3-0.4-1.3-1.6-2.1-2.1-2.1-1.3zm-46.1 2.3c-1.3 1.6-1.2 1.7 0.4 0.4 0.9-0.7 1.7-1.5 1.7-1.7 0-0.8-0.8-0.3-2.1 1.3zm88.1 0.7c0 0.2 0.8 1 1.8 1.7 1.5 1.3 1.6 1.2 0.3-0.4-1.3-1.6-2.1-2.1-2.1-1.3zm-102.1 12.3c-1.3 1.6-1.2 1.7 0.4 0.4 0.9-0.7 1.7-1.5 1.7-1.7 0-0.8-0.8-0.3-2.1 1.3zm115.1 0.7c0 0.2 0.8 1 1.8 1.7 1.5 1.3 1.6 1.2 0.3-0.4-1.3-1.6-2.1-2.1-2.1-1.3zm-80.1 4.3c-1.3 1.6-1.2 1.7 0.4 0.4 0.9-0.7 1.7-1.5 1.7-1.7 0-0.8-0.8-0.3-2.1 1.3zm178 4l-2.4 2.8 2.8-2.4c2.5-2.3 3.2-3.1 2.4-3.1-0.2 0-1.4 1.2-2.8 2.7zm-23.5 22.5l-1.9 2.3 2.3-1.9c2.1-1.8 2.7-2.6 1.9-2.6-0.2 0-1.2 1-2.3 2.2zm37 3l-2.9 3.3 3.3-2.9c1.7-1.7 3.2-3.1 3.2-3.3 0-0.8-0.8-0.1-3.6 2.9zm-58.5 17.5c-1.3 1.6-1.2 1.7 0.4 0.4 0.9-0.7 1.7-1.5 1.7-1.7 0-0.8-0.8-0.3-2.1 1.3zm-194.9 19.7c0 0.2 0.8 1 1.8 1.7 1.5 1.3 1.6 1.2 0.3-0.4-1.3-1.6-2.1-2.1-2.1-1.3zm7 7.1c1.3 1.4 2.6 2.5 2.8 2.5 0.3 0-0.5-1.1-1.8-2.5-1.3-1.4-2.6-2.5-2.8-2.5-0.3 0 0.5 1.1 1.8 2.5zm4 3.9c0 0.2 0.8 1 1.8 1.7 1.5 1.3 1.6 1.2 0.3-0.4-1.3-1.6-2.1-2.1-2.1-1.3zm136.4 13.8l-1.9 2.3 2.3-1.9c1.2-1.1 2.2-2.1 2.2-2.3 0-0.8-0.8-0.2-2.6 1.9zm-80.9 0.8c1 1.1 2 2 2.3 2 0.3 0-0.3-0.9-1.3-2-1-1.1-2-2-2.3-2-0.3 0 0.3 0.9 1.3 2z" fill="rgb(212, 212, 212)"/><path d="m446 3.3c-1.9 0.8-4.6 1.9-6 2.5-2.4 0.9-9.6 7-30 25.1-4.6 4.2-10 9-12 10.7-18 16-21.9 19.7-21.3 20.7 0.3 0.7 0.3 0.9-0.2 0.5-1.1-1-5.2 2.3-21 17.1-3.9 3.6-12.4 11.5-19 17.6-6.6 6-15.6 14.4-20 18.5-4.4 4.1-10.3 9.5-13 11.9-5.6 4.9-13 11.7-22 20.1-3.3 3.1-19 17.5-35 32-15.9 14.6-35.5 32.6-43.5 40-52.4 48.6-71.6 66.5-80 74.6-5.2 5-13.1 12.4-17.5 16.5-4.4 4.1-11.4 10.6-15.5 14.5-4.1 3.9-10.5 9.8-14.2 13-3.6 3.3-13.8 12.6-22.5 20.9-8.7 8.2-22.1 20.8-29.7 27.9-7.5 7.1-15.1 14.9-16.7 17.3-6.4 9.3-6.2 22 0.5 31.1 3.2 4.4 82 83.4 89.6 89.9 6.6 5.6 11.8 7.6 21.1 8.1 8 0.4 9.1 0.2 15.1-2.7 7.4-3.5 12.3-7.8 48.3-42.5 13.1-12.7 24.6-23.8 25.5-24.6 5.5-5.1 58.7-56.8 89-86.5 17.4-17 45-43.6 80.4-77.5 6.6-6.3 17.5-16.7 24.1-23.1 6.6-6.3 16.3-15.5 21.5-20.5 19.7-18.5 27.8-26.2 40-37.9 6.9-6.7 17.7-17 24-23 24.7-23.6 51.8-49.3 59.2-56.3 9.3-8.9 13.2-14.7 15.3-22.8 1.9-7.3 0.8-17.7-2.7-25-3-6.6-16.3-20.8-49.7-53.4-34.4-33.6-36.7-35.2-50.1-35.7-5.5-0.2-9.7 0.1-12 1zm14.8 25.3c1.9 0.4 13.1 10.9 36.5 34.2 37.4 37.3 40.1 40.7 37.9 47.9-1.4 4.6-7.6 10.9-50.7 50.8-19.9 18.4-48.5 45.5-63.5 60-7.4 7.2-17.5 16.9-22.5 21.5-4.9 4.7-18.9 17.9-31 29.5-12.1 11.6-26.8 25.6-32.6 31.1-24.7 23.2-84.6 79.9-87.4 82.8-1.7 1.7-6.9 6.7-11.5 11.1-4.7 4.4-17.3 16.3-28 26.5-10.7 10.2-22.4 21.2-26 24.5-3.6 3.4-18 16.9-32 30.1-14 13.3-26.4 24.5-27.5 25.1-1.2 0.6-3.2 0.7-5 0.2-3.5-1-85.6-81.5-85.5-83.9 0-0.8 5.7-7.1 12.8-14 20-19.6 52.4-50.5 53.3-50.8 0.5-0.2 10.1 8.4 21.3 19.2 11.2 10.8 20.7 19.6 21.2 19.6 0.5-0.1 4.9-3.8 9.8-8.4l9-8.4-3.1-3.5c-1.7-1.9-10.8-11-20.2-20.2-10.5-10.3-16.8-17.2-16.3-17.9 0.4-0.6 5.4-5.6 11.2-11.1 5.8-5.4 16.5-15.7 23.8-22.8l13.3-13 10.2 9.9c5.6 5.4 15.5 15 21.9 21.3l11.8 11.4 5.7-5.4c3.1-3 7.4-6.9 9.5-8.8 2.1-1.9 3.8-4 3.8-4.6 0-0.6-9.5-10.3-21-21.5-11.6-11.2-20.9-20.7-20.8-21.1 0.2-0.4 6.4-6.5 13.8-13.5 7.4-7.1 18.6-17.7 24.9-23.6 6.3-6 11.8-10.7 12.2-10.6 0.8 0.3 5.1 4.3 27.4 25.9l11 10.7 9.4-9.3 9.5-9.3-18.3-17.9c-12.6-12.3-18-18.3-17.6-19.3 0.4-0.8 3-3.5 5.8-5.9 5.4-4.6 38.9-36.3 41.6-39.4 0.9-0.9 1.9-1.7 2.3-1.7 0.5 0 1.6 0.8 2.6 1.7 1 1 9.4 9.1 18.6 18.1l16.8 16.3 5.2-4.9c2.8-2.7 7-6.8 9.4-9.3l4.4-4.4-18.6-18.1-18.5-18.1 5.7-4.9c3.1-2.7 9.7-8.7 14.7-13.4 4.9-4.7 11.9-11.3 15.5-14.5 3.5-3.3 7.9-7.5 9.8-9.3 4-4 1.2-5.9 23.5 15.5 8.8 8.4 16.4 15.3 17.1 15.3 1.5 0 18.8-16 18.4-17-0.2-0.4-7.9-8.1-17.3-17-9.3-9-17.1-16.7-17.3-17.2-0.4-0.9 6.1-7.1 31.8-30.5 18.1-16.4 19.4-17.4 22.8-16.7 1.2 0.2 3.4 0.7 5 1z" fill="rgb(255, 255, 255)"/><path d="m372.9 63.7c-1.3 1.6-1.2 1.7 0.4 0.4 0.9-0.7 1.7-1.5 1.7-1.7 0-0.8-0.8-0.3-2.1 1.3z" fill="rgb(212, 255, 255)"/></svg>