<svg xmlns="http://www.w3.org/2000/svg" viewBox="0 0 437 463" width="32" height="32"><path d="m210 1.4c-1.9 0.7-17.9 9.1-35.5 18.8-17.6 9.7-61.5 33.8-97.5 53.6-69.7 38.2-73.7 40.8-75.9 48.8-0.7 2.7-1.1 37.1-1.1 109.2v105.3l2.4 4.7c4 7.9-1.5 4.4 77.1 48 20.3 11.2 37.8 21 39 21.7 1.8 1.2 57.2 32.2 79.5 44.5 11.2 6.2 14.8 7.3 22.8 6.8 7.4-0.4 1.5 2.7 91.7-47.5 19.8-11 47.7-26.4 62-34.3 52.3-28.7 54-29.7 57.5-33.7 1.6-1.8 3.4-4.9 3.9-7 0.7-2.5 1.1-38.9 1.1-109.8v-106.1l-2.2-4.4c-1.3-2.4-3.9-5.6-5.8-7.1-1.9-1.5-21.7-12.6-44-24.7-22.3-12.1-49.3-26.8-60-32.7-10.7-5.9-33.9-18.6-51.5-28.2-17.6-9.7-34.5-19.1-37.6-20.9-10.5-6.3-18.3-7.8-25.9-5zm18 2.5c1.9 0.9 12.7 6.8 24 13 11.3 6.3 29.7 16.4 41 22.6 11.3 6.2 31.5 17.3 45 24.7 13.5 7.5 36.4 20 51 27.8 33 17.8 39 21.2 41.6 24.2 5.1 5.6 4.9 0.1 5.2 111.8 0.2 74.4-0.1 106-0.9 109.9-1.6 7.9-5.7 11.5-23.9 21.4-8.5 4.7-21.8 12-29.5 16.2-7.7 4.3-18.9 10.5-25 13.8-6 3.3-24.7 13.6-41.5 23-88.3 49.2-86.8 48.4-92.7 49.3-2.5 0.4-6.7 0.2-9.2-0.4-5.1-1.2-9.7-3.6-94.6-51.1-44.8-25.1-68.8-38.4-96.5-53.9-13.4-7.4-17.9-11.7-20-19-1.4-5.3-1.4-206.8 0.1-212.6 0.6-2.4 2.4-6 4-7.9 3.6-4.4-2.9-0.7 109.9-62.7 82-45.2 91.6-50.4 95.5-51.6 4.8-1.6 11.6-1 16.5 1.5z"/><path d="m189 47.7c-16.2 9-40.7 22.8-54.5 30.6-38.2 21.5-42.9 24.1-73.2 41.1l-28.3 15.8v192.4l21.3 11.9c55.9 31.3 88.6 49.6 106.7 59.5 10.7 5.9 43.4 23.9 52.6 29l5.1 2.8 7.4-4.2c4.1-2.3 21.6-12 38.9-21.6 27.9-15.4 91.5-50.5 127.3-70.3l12.7-7v-192.2l-13.3-7.4c-7.2-4.1-21.5-12.1-31.7-17.9-10.2-5.8-31.5-17.8-47.5-26.7-15.9-8.9-40.5-22.6-54.5-30.5-35.3-19.8-39.3-22-39.4-21.9 0 0-13.4 7.5-29.6 16.6zm33.3-13.1c1.8 0.9 10.2 5.6 18.7 10.4 8.5 4.9 34 19.2 56.5 31.8 66.1 36.9 91.5 51.3 99 55.7l7 4.1 0.3 95 0.2 95-19.7 10.9c-10.9 6-22.7 12.5-26.3 14.6-3.6 2-26.7 14.8-51.5 28.5-24.7 13.6-54.6 30.1-66.4 36.6-11.8 6.5-21.6 11.8-21.7 11.8-0.2 0-7.8-4.2-17.1-9.3-9.2-5.2-20.2-11.2-24.3-13.4-10.2-5.5-65.3-36.2-118.2-65.8l-24.8-13.9v-95c0-89.5 0.1-95.2 1.8-96.2 0.9-0.6 11.4-6.5 23.2-13.1 11.8-6.6 32.1-18 45-25.3 26.4-15 114.3-64 114.8-64 0.2 0 1.7 0.7 3.5 1.6z"/><path d="m198 141.6c-25.9 5.5-49 23.7-61 47.8-6.9 14.1-9 22.8-9 38.5 0 31.5 13.8 57.1 40.5 75.4 20 13.6 48.9 18.4 72.9 12.2 17.2-4.5 28.6-10.7 41.1-22.6 23.4-22.3 33-55.3 25-86.5-2.1-8.1-6.5-17.1-12.4-25.7-14.1-20.4-34.7-34.3-58.3-39.2-8.7-1.9-30-1.8-38.8 0.1zm42.2 1.9c29.1 8 52.3 28.6 63.2 55.9 9.1 22.8 6.7 49.8-6.6 73.4-5.7 10.2-20.5 25.2-30.7 31.1-26.4 15.4-57.4 17.1-85.5 4.6-17.7-7.9-35.3-25.5-43.6-43.9-5.6-12.3-7.5-21.6-7.4-37.1 0-12.3 0.4-15.1 2.8-23 5.2-17.2 15.6-32.7 29-43.3 11.6-9.3 27.6-16.8 40.8-19.2 7.6-1.3 31.2-0.4 38 1.5z"/><path d="m206.3 173.4c-15.6 3.6-31.6 16.3-38.7 30.6-13.9 28.4-2.7 60.8 25.9 74.5 8.9 4.2 15.2 5.5 27 5.5 30.2 0 53.9-21.8 56.2-51.9 1-13.1-3.8-26.7-13.6-38.7-12.9-15.9-37.1-24.4-56.8-20zm26.1 2.1c13.3 3.5 25.7 12.5 33.9 24.6 13.2 19.6 11 47.9-5 65-16.8 18-44.8 22.9-67.9 11.9-17.7-8.5-30.3-28.5-30.4-48.1 0-7.6 3.3-19.9 7.2-26.8 6.8-11.9 21-23 33.9-26.5 7.2-1.9 21.1-2 28.3-0.1z"/><path d="m216.3 1.7c0.9 0.2 2.3 0.2 3 0 0.6-0.3-0.1-0.5-1.8-0.5-1.6 0-2.2 0.2-1.2 0.5zm219.1 154.3c0 16.2 0.2 22.9 0.3 14.7 0.2-8.1 0.2-21.3 0-29.5-0.1-8.1-0.3-1.4-0.3 14.8zm-402.9 75.5c0 52.8 0.1 74.3 0.2 47.7 0.2-26.6 0.2-69.8 0-96-0.1-26.2-0.2-4.5-0.2 48.3zm251.1-62.3c0.3 0.5 1 0.6 1.5 0.3 1.3-0.9 1.1-1.2-0.6-1.2-0.8 0-1.2 0.4-0.9 0.9zm151.7 28.8c0 2.5 0.2 3.5 0.4 2.2 0.2-1.2 0.2-3.2 0-4.5-0.2-1.2-0.4-0.2-0.4 2.3zm0.1 24c0 6.9 0.1 9.7 0.3 6.2 0.2-3.4 0.2-9 0-12.5-0.2-3.4-0.3-0.6-0.3 6.3zm-308.1 5.5c0 2.2 0.2 3 0.4 1.7 0.2-1.2 0.2-3 0-4-0.3-0.9-0.5 0.1-0.4 2.3zm182.8 4.1c0 1.1 0.3 1.4 0.6 0.6 0.3-0.7 0.2-1.6-0.1-1.9-0.3-0.4-0.6 0.2-0.5 1.3zm125.3 38.4c0 11.3 0.2 15.9 0.3 10.2 0.2-5.6 0.2-14.8 0-20.5-0.1-5.6-0.3-1-0.3 10.3zm-152.5 22.7c-1.3 1.6-1.2 1.7 0.4 0.4 0.9-0.7 1.7-1.5 1.7-1.7 0-0.8-0.8-0.3-2.1 1.3zm152.5 17.8c0 7.1 0.1 9.9 0.3 6.2 0.2-3.7 0.2-9.6 0-13-0.2-3.4-0.3-0.4-0.3 6.8zm-219.1 8.2c0.9 0.2 2.3 0.2 3 0 0.6-0.3-0.1-0.5-1.8-0.5-1.6 0-2.2 0.2-1.2 0.5zm218.8 13.9c0 1.1 0.3 1.4 0.6 0.6 0.3-0.7 0.2-1.6-0.1-1.9-0.3-0.4-0.6 0.2-0.5 1.3z" fill="rgb(85, 85, 85)"/><path d="m213.3 141.7c0.9 0.2 2.3 0.2 3 0 0.6-0.3-0.1-0.5-1.8-0.5-1.6 0-2.2 0.2-1.2 0.5zm10.5 0c0.7 0.3 1.6 0.2 1.9-0.1 0.4-0.3-0.2-0.6-1.3-0.5-1.1 0-1.4 0.3-0.6 0.6zm-69.9 26c-1.3 1.6-1.2 1.7 0.4 0.4 0.9-0.7 1.7-1.5 1.7-1.7 0-0.8-0.8-0.3-2.1 1.3zm154.2 66.9c0 1.1 0.3 1.4 0.6 0.6 0.3-0.7 0.2-1.6-0.1-1.9-0.3-0.4-0.6 0.2-0.5 1.3zm-47.2 33.1l-2.4 2.8 2.8-2.4c2.5-2.3 3.2-3.1 2.4-3.1-0.2 0-1.4 1.2-2.8 2.7zm-81.9 1.7c0 0.2 0.8 1 1.8 1.7 1.5 1.3 1.6 1.2 0.3-0.4-1.3-1.6-2.1-2.1-2.1-1.3zm31.8 47.3c0.7 0.3 1.6 0.2 1.9-0.1 0.4-0.3-0.2-0.6-1.3-0.5-1.1 0-1.4 0.3-0.6 0.6z" fill="rgb(212, 212, 212)"/><path d="m210 3.4c-3.3 1.2-35.7 18.7-94.5 51.3-14.8 8.2-31 17.1-36 19.8-4.9 2.6-18.4 10.1-30 16.5-11.5 6.4-24.8 13.7-29.5 16.3-4.7 2.5-10 6-11.8 7.6-6.6 6.1-6.2-0.6-6.2 116.4v106.3l2.9 4.5c3.6 5.6 6.1 7.8 14.1 12.1 6.8 3.7 44.4 24.6 59 32.7 4.7 2.7 20.4 11.5 35 19.6 30.5 17 52 29 77.5 43.3 9.9 5.5 20.1 10.6 22.7 11.2 9.5 2.4 9.6 2.3 72.8-33 26.6-14.9 60.1-33.4 91.5-50.7 11-6.1 21.6-11.9 23.5-13 1.9-1.1 7.6-4.1 12.5-6.8 13.7-7.4 17.5-10.2 19.6-14.9 1.8-3.9 1.9-8.6 1.9-111.1 0-101.7-0.1-107.2-1.9-111-1-2.2-2.7-4.7-3.7-5.6-1-0.9-13.8-8.1-28.4-15.9-14.6-7.9-33.5-18.1-42-22.8-8.5-4.7-21.8-12-29.5-16.2-18.7-10.2-84.6-46.4-91.5-50.3-11.4-6.5-14.4-7.6-19.5-7.6-2.7 0-6.6 0.6-8.5 1.3zm12.3 29.2c1.8 0.9 9.7 5.3 17.7 9.9 8 4.5 30.5 17.1 50 28 19.5 10.9 45.6 25.5 58 32.5 12.4 7 29.9 16.9 39 22 9.1 5 17.1 9.9 17.8 10.8 0.9 1.2 1.2 22.1 1.2 96.7v95.2l-15.2 8.3c-8.4 4.6-31.5 17.3-51.3 28.3-19.8 11-38.2 21.2-41 22.7-27.8 15.2-65.5 36.1-71.8 39.7l-7.7 4.5-25.3-13.8c-13.8-7.5-26.8-14.6-28.7-15.7-4-2.2-18.7-10.4-27-15-3-1.6-12-6.7-20-11.2-8-4.5-18.5-10.3-23.5-13-4.9-2.7-12.6-6.9-17-9.5-4.4-2.6-15.2-8.7-24-13.5-8.8-4.9-17.2-9.7-18.7-10.7l-2.8-1.9v-191.4l7.3-4.1c3.9-2.3 16.9-9.6 28.7-16.2 11.8-6.6 31.4-17.6 43.5-24.4 12.1-6.9 24.7-14 28-15.8 3.3-1.8 13.2-7.4 22-12.3 27.9-15.6 56.8-31.6 57.3-31.7 0.2 0 1.7 0.7 3.5 1.6z" fill="rgb(255, 255, 255)"/><path d="m208.9 142c-12.1 0.9-25.7 5.3-35.4 11.3-14.5 9-25.6 19.9-32.4 32-17.6 31.2-15.1 67.5 6.7 96.4 7.6 10 16.2 17.3 28.6 24.2 18.2 10.3 43.8 13.3 65 7.7 26-6.8 46.1-22.9 57.6-46.1q15.9-32.1 5.4-64.5c-8.1-24.7-29.9-46.8-55.2-56-13.5-4.9-23.9-6.2-40.3-5zm23 31.6c25.3 6.2 45.1 30.3 45.1 54.6 0 24.5-14.9 45.4-37.9 53.3-18.5 6.2-39.9 3.1-55.1-8.2-8.1-5.9-12.4-11.2-16.9-20.5-6.1-12.7-7.3-22.3-4.6-35.3 4.4-20.9 21.7-39 42.1-43.9 8-1.9 19.4-1.9 27.3 0z" fill="rgb(255, 255, 255)"/><path d="m1.4 144.5c0 9.3 0.2 13.3 0.3 8.8 0.2-4.5 0.2-12.2 0-17-0.1-4.8-0.3-1.2-0.3 8.2zm216.4-4.8c0.6 0.2 1.8 0.2 2.5 0 0.6-0.3 0.1-0.5-1.3-0.5-1.4 0-1.9 0.2-1.2 0.5zm-216.4 36.3c0 8 0.2 11.2 0.3 7.2 0.2-3.9 0.2-10.5 0-14.5-0.1-3.9-0.3-0.7-0.3 7.3zm-0.1 22.5c0 3.8 0.2 5.3 0.4 3.2 0.2-2 0.2-5.2 0-7-0.2-1.7-0.4-0.1-0.4 3.8zm-0.2 13.1c0 1.1 0.3 1.4 0.6 0.6 0.3-0.7 0.2-1.6-0.1-1.9-0.3-0.4-0.6 0.2-0.5 1.3zm0.2 5.9c0 2.2 0.2 3 0.4 1.7 0.2-1.2 0.2-3 0-4-0.3-0.9-0.5 0.1-0.4 2.3zm0.1 14.5c0 5.8 0.1 8.1 0.3 5.2 0.2-2.8 0.2-7.6 0-10.5-0.2-2.8-0.3-0.5-0.3 5.3zm125.7 0.6c0 1.1 0.3 1.4 0.6 0.6 0.3-0.7 0.2-1.6-0.1-1.9-0.3-0.4-0.6 0.2-0.5 1.3zm308.2 11.9c0 2.2 0.2 3 0.4 1.7 0.2-1.2 0.2-3 0-4-0.3-0.9-0.5 0.1-0.4 2.3zm-434.1 14.5c0 1.9 0.2 2.7 0.5 1.7 0.2-0.9 0.2-2.5 0-3.5-0.3-0.9-0.5-0.1-0.5 1.8zm0.3 39c0 19.5 0.1 27.5 0.2 17.7 0.2-9.7 0.2-25.7 0-35.5-0.1-9.7-0.2-1.7-0.2 17.8zm218.3-13.3c0.7 0.3 1.6 0.2 1.9-0.1 0.4-0.3-0.2-0.6-1.3-0.5-1.1 0-1.4 0.3-0.6 0.6zm1 34c0.6 0.2 1.8 0.2 2.5 0 0.6-0.3 0.1-0.5-1.3-0.5-1.4 0-1.9 0.2-1.2 0.5zm214.4 10.3c0 1.4 0.2 1.9 0.5 1.2 0.2-0.6 0.2-1.8 0-2.5-0.3-0.6-0.5-0.1-0.5 1.3z" fill="rgb(128, 128, 128)"/><path d="m405.5 231.5c0 51.7 0.1 72.7 0.2 46.7 0.2-26.1 0.2-68.4 0-94-0.1-25.7-0.2-4.4-0.2 47.3zm-195.7-89.8c0.7 0.3 1.6 0.2 1.9-0.1 0.4-0.3-0.2-0.6-1.3-0.5-1.1 0-1.4 0.3-0.6 0.6zm47.2 47.7c0 0.2 0.8 1 1.8 1.7 1.5 1.3 1.6 1.2 0.3-0.4-1.3-1.6-2.1-2.1-2.1-1.3zm-255.8 64.6c0 1.4 0.2 1.9 0.5 1.2 0.2-0.6 0.2-1.8 0-2.5-0.3-0.6-0.5-0.1-0.5 1.3zm5.8 92.4c0 0.2 0.8 1 1.8 1.7 1.5 1.3 1.6 1.2 0.3-0.4-1.3-1.6-2.1-2.1-2.1-1.3z" fill="rgb(170, 170, 170)"/><path d="m435.1 192.6c0 1.1 0.3 1.4 0.6 0.6 0.3-0.7 0.2-1.6-0.1-1.9-0.3-0.4-0.6 0.2-0.5 1.3zm0 101c0 1.1 0.3 1.4 0.6 0.6 0.3-0.7 0.2-1.6-0.1-1.9-0.3-0.4-0.6 0.2-0.5 1.3z" fill="rgb(85, 85, 128)"/><path d="m435.1 237.6c0 1.1 0.3 1.4 0.6 0.6 0.3-0.7 0.2-1.6-0.1-1.9-0.3-0.4-0.6 0.2-0.5 1.3z" fill="rgb(85, 128, 128)"/><path d="m1.2 244c0 1.4 0.2 1.9 0.5 1.2 0.2-0.6 0.2-1.8 0-2.5-0.3-0.6-0.5-0.1-0.5 1.3z" fill="rgb(128, 128, 170)"/></svg>