<svg xmlns="http://www.w3.org/2000/svg" viewBox="0 0 656 531" width="32" height="32"><path d="m71.3 0.7c0.9 0.2 2.3 0.2 3 0 0.6-0.3-0.1-0.5-1.8-0.5-1.6 0-2.2 0.2-1.2 0.5zm93 55c0.9 0.2 2.3 0.2 3 0 0.6-0.3-0.1-0.5-1.8-0.5-1.6 0-2.2 0.2-1.2 0.5zm17.5 0c1.7 0.2 4.7 0.2 6.5 0 1.7-0.2 0.3-0.4-3.3-0.4-3.6 0-5 0.2-3.2 0.4zm25 0c2.3 0.2 5.9 0.2 8 0 2-0.2 0.1-0.4-4.3-0.4-4.4 0-6.1 0.2-3.7 0.4zm17 0c2.3 0.2 5.9 0.2 8 0 2-0.2 0.1-0.4-4.3-0.4-4.4 0-6.1 0.2-3.7 0.4zm14.9 0c1.8 0.2 5 0.2 7 0 2.1-0.2 0.7-0.4-3.2-0.4-3.8 0-5.5 0.2-3.8 0.4zm13.6 0c0.9 0.2 2.5 0.2 3.5 0 0.9-0.3 0.1-0.5-1.8-0.5-1.9 0-2.7 0.2-1.7 0.5zm8 0c0.9 0.2 2.3 0.2 3 0 0.6-0.3-0.1-0.5-1.8-0.5-1.6 0-2.2 0.2-1.2 0.5zm12.5 0c1.7 0.2 4.7 0.2 6.5 0 1.7-0.2 0.3-0.4-3.3-0.4-3.6 0-5 0.2-3.2 0.4zm15 0c2.8 0.2 7.6 0.2 10.5 0 2.8-0.2 0.5-0.3-5.3-0.3-5.8 0-8.1 0.1-5.2 0.3zm37 0c10.1 0.2 26.3 0.2 36 0 9.7-0.1 1.5-0.2-18.3-0.2-19.8 0-27.8 0.1-17.7 0.2zm58 0c2.3 0.2 6.1 0.2 8.5 0 2.3-0.2 0.4-0.4-4.3-0.4-4.7 0-6.6 0.2-4.2 0.4zm15 0c1.2 0.2 3 0.2 4 0 0.9-0.3-0.1-0.5-2.3-0.4-2.2 0-3 0.2-1.7 0.4zm17 0c2.3 0.2 6.1 0.2 8.5 0 2.3-0.2 0.4-0.4-4.3-0.4-4.7 0-6.6 0.2-4.2 0.4zm21.5 0c4.8 0.2 12.5 0.2 17 0 4.5-0.1 0.6-0.3-8.8-0.3-9.3 0-13 0.2-8.2 0.3zm26.5 0c0.6 0.2 1.8 0.2 2.5 0 0.6-0.3 0.1-0.5-1.3-0.5-1.4 0-1.9 0.2-1.2 0.5zm10 0c3.4 0.2 9 0.2 12.5 0 3.4-0.2 0.6-0.3-6.3-0.3-6.9 0-9.7 0.1-6.2 0.3zm20.5 0c0.9 0.2 2.5 0.2 3.5 0 0.9-0.3 0.1-0.5-1.8-0.5-1.9 0-2.7 0.2-1.7 0.5zm7.5 0c1.2 0.2 3 0.2 4 0 0.9-0.3-0.1-0.5-2.3-0.4-2.2 0-3 0.2-1.7 0.4zm8 0c1.2 0.2 3.2 0.2 4.5 0 1.2-0.2 0.2-0.4-2.3-0.4-2.5 0-3.5 0.2-2.2 0.4zm10 0c1.7 0.2 4.7 0.2 6.5 0 1.7-0.2 0.3-0.4-3.3-0.4-3.6 0-5 0.2-3.2 0.4zm18.5 0c4.8 0.2 12.5 0.2 17 0 4.5-0.1 0.6-0.3-8.8-0.3-9.3 0-13 0.2-8.2 0.3zm31.5 0c3.4 0.2 8.8 0.2 12 0 3.1-0.2 0.3-0.3-6.3-0.3-6.6 0-9.2 0.1-5.7 0.3zm34 0c8.9 0.2 23.5 0.2 32.5 0 8.9-0.1 1.6-0.3-16.3-0.3-17.9 0-25.2 0.2-16.2 0.3zm-602.7 8.9c0 1.1 0.3 1.4 0.6 0.6 0.3-0.7 0.2-1.6-0.1-1.9-0.3-0.4-0.6 0.2-0.5 1.3zm653.1 12.4c0 1.9 0.2 2.7 0.5 1.7 0.2-0.9 0.2-2.5 0-3.5-0.3-0.9-0.5-0.1-0.5 1.8zm-584.9 106.7c0.9 0.2 2.3 0.2 3 0 0.6-0.3-0.1-0.5-1.8-0.5-1.6 0-2.2 0.2-1.2 0.5zm28 0c3.2 0.2 8.1 0.2 11 0 2.9-0.2 0.3-0.3-5.8-0.3-6 0-8.4 0.1-5.2 0.3zm31 0c8.2 0.2 21.2 0.2 29 0 7.8-0.1 1.2-0.3-14.8-0.3-15.9 0-22.3 0.2-14.2 0.3zm47.5 0c2.3 0.2 5.9 0.2 8 0 2-0.2 0.1-0.4-4.3-0.4-4.4 0-6.1 0.2-3.7 0.4zm20 0c4.5 0.2 11.9 0.2 16.5 0 4.5-0.1 0.8-0.3-8.3-0.3-9.1 0-12.8 0.2-8.2 0.3zm48.9 0c13.3 0.2 35.3 0.2 49 0 13.6-0.1 2.8-0.2-24.2-0.2-26.9 0-38.1 0.1-24.8 0.2zm91 0c9.4 0.2 25.2 0.2 35 0 9.8-0.1 2.1-0.2-17.2-0.2-19.2-0.1-27.3 0.1-17.8 0.2zm84.1 0c16 0.2 42.4 0.2 58.5 0 16-0.1 2.9-0.2-29.3-0.2-32.2 0-45.3 0.1-29.2 0.2zm102 0c7.2 0.2 19.2 0.2 26.5 0 7.2-0.1 1.3-0.3-13.3-0.3-14.6 0-20.5 0.2-13.2 0.3zm50 0c5.7 0.2 14.7 0.2 20 0 5.3-0.1 0.7-0.3-10.3-0.3-11 0-15.4 0.2-9.7 0.3zm38 0c2.3 0.2 5.9 0.2 8 0 2-0.2 0.1-0.4-4.3-0.4-4.4 0-6.1 0.2-3.7 0.4zm19.5 0c4.2 0.2 11.2 0.2 15.5 0 4.2-0.1 0.7-0.3-7.8-0.3-8.5 0-12 0.2-7.7 0.3zm26 11.8c0 2.2 0.2 3 0.4 1.7 0.2-1.2 0.2-3 0-4-0.3-0.9-0.5 0.1-0.4 2.3zm-576.6 15.2c1.8 0.2 5 0.2 7 0 2.1-0.2 0.7-0.4-3.2-0.4-3.8 0-5.5 0.2-3.8 0.4zm19.1 0c3.4 0.2 8.8 0.2 12 0 3.1-0.2 0.3-0.3-6.3-0.3-6.6 0-9.2 0.1-5.7 0.3zm26 0c4.6 0.2 11.8 0.2 16 0 4.2-0.1 0.5-0.3-8.3-0.3-8.8 0-12.3 0.2-7.7 0.3zm36 0c6.8 0.2 17.6 0.2 24 0 6.4-0.1 0.9-0.3-12.3-0.3-13.2 0-18.5 0.2-11.7 0.3zm46 0c5.7 0.2 14.7 0.2 20 0 5.3-0.1 0.7-0.3-10.3-0.3-11 0-15.4 0.2-9.7 0.3zm33 0c1.8 0.2 4.5 0.2 6 0 1.5-0.2 0-0.4-3.3-0.4-3.3 0-4.5 0.2-2.7 0.4zm12 0c1.8 0.2 4.5 0.2 6 0 1.5-0.2 0-0.4-3.3-0.4-3.3 0-4.5 0.2-2.7 0.4zm11 0c1.2 0.2 3 0.2 4 0 0.9-0.3-0.1-0.5-2.3-0.4-2.2 0-3 0.2-1.7 0.4zm8.5 0c1.5 0.2 3.9 0.2 5.5 0 1.5-0.2 0.2-0.4-2.8-0.4-3 0-4.3 0.2-2.7 0.4zm11 0c1.5 0.2 3.9 0.2 5.5 0 1.5-0.2 0.2-0.4-2.8-0.4-3 0-4.3 0.2-2.7 0.4zm17 0c4.8 0.2 12.5 0.2 17 0 4.5-0.1 0.6-0.3-8.8-0.3-9.3 0-13 0.2-8.2 0.3zm27.5 0c1.2 0.2 3 0.2 4 0 0.9-0.3-0.1-0.5-2.3-0.4-2.2 0-3 0.2-1.7 0.4zm19.5 0c7.6 0.2 19.8 0.2 27 0 7.3-0.1 1.1-0.3-13.8-0.3-14.8 0-20.8 0.2-13.2 0.3zm49.5 0c4.6 0.2 11.8 0.2 16 0 4.2-0.1 0.5-0.3-8.3-0.3-8.8 0-12.3 0.2-7.7 0.3zm82.9 0c32 0.2 84.6 0.2 117 0 32.3-0.1 6.2-0.2-58.2-0.2-64.3 0-90.8 0.1-58.8 0.2zm171.6 238c0.9 0.2 2.5 0.2 3.5 0 0.9-0.3 0.1-0.5-1.8-0.5-1.9 0-2.7 0.2-1.7 0.5zm-628.8 59.3c1 1.1 2 2 2.3 2 0.3 0-0.3-0.9-1.3-2-1-1.1-2-2-2.3-2-0.3 0 0.3 0.9 1.3 2zm49.8 22.7c0.9 0.2 2.3 0.2 3 0 0.6-0.3-0.1-0.5-1.8-0.5-1.6 0-2.2 0.2-1.2 0.5z" fill="rgb(128, 128, 128)"/><path d="m140.8 55.7c1.2 0.2 3.2 0.2 4.5 0 1.2-0.2 0.2-0.4-2.3-0.4-2.5 0-3.5 0.2-2.2 0.4zm9.5 0c0.9 0.2 2.5 0.2 3.5 0 0.9-0.3 0.1-0.5-1.8-0.5-1.9 0-2.7 0.2-1.7 0.5zm9.5 0c0.6 0.2 1.8 0.2 2.5 0 0.6-0.3 0.1-0.5-1.3-0.5-1.4 0-1.9 0.2-1.2 0.5zm-105 128c0.6 0.2 1.8 0.2 2.5 0 0.6-0.3 0.1-0.5-1.3-0.5-1.4 0-1.9 0.2-1.2 0.5zm244.2 120.7c0 0.2 0.8 1 1.8 1.7 1.5 1.3 1.6 1.2 0.3-0.4-1.3-1.6-2.1-2.1-2.1-1.3zm58 28c0 0.2 0.8 1 1.8 1.7 1.5 1.3 1.6 1.2 0.3-0.4-1.3-1.6-2.1-2.1-2.1-1.3zm-18.2 29.3c1.2 0.2 3.2 0.2 4.5 0 1.2-0.2 0.2-0.4-2.3-0.4-2.5 0-3.5 0.2-2.2 0.4zm-195.5 85c0.9 0.2 2.3 0.2 3 0 0.6-0.3-0.1-0.5-1.8-0.5-1.6 0-2.2 0.2-1.2 0.5zm12 0c4.2 0.2 11.2 0.2 15.5 0 4.2-0.1 0.7-0.3-7.8-0.3-8.5 0-12 0.2-7.7 0.3zm41.5 0c10 0.2 26.4 0.2 36.5 0 10-0.1 1.8-0.2-18.3-0.2-20.1 0-28.3 0.1-18.2 0.2zm67 0c6.8 0.2 17.6 0.2 24 0 6.4-0.1 0.9-0.3-12.3-0.3-13.2 0-18.5 0.2-11.7 0.3zm37 0c0.7 0.3 1.6 0.2 1.9-0.1 0.4-0.3-0.2-0.6-1.3-0.5-1.1 0-1.4 0.3-0.6 0.6zm7 0c2.3 0.2 5.9 0.2 8 0 2-0.2 0.1-0.4-4.3-0.4-4.4 0-6.1 0.2-3.7 0.4zm15 0c1.2 0.2 3 0.2 4 0 0.9-0.3-0.1-0.5-2.3-0.4-2.2 0-3 0.2-1.7 0.4zm12.5 0c2 0.2 5.4 0.2 7.5 0 2-0.2 0.3-0.4-3.8-0.4-4.1 0-5.8 0.2-3.7 0.4zm31.5 0c11.1 0.2 29.3 0.2 40.5 0 11.1-0.1 2-0.2-20.3-0.2-22.3 0-31.4 0.1-20.2 0.2zm66.5 0c2.6 0.2 6.8 0.2 9.5 0 2.6-0.2 0.4-0.3-4.8-0.3-5.2 0-7.4 0.1-4.7 0.3zm17 0c0.9 0.2 2.5 0.2 3.5 0 0.9-0.3 0.1-0.5-1.8-0.5-1.9 0-2.7 0.2-1.7 0.5zm17.9 0c7 0.2 18.7 0.2 26 0 7.3-0.1 1.6-0.3-12.7-0.3-14.3 0-20.3 0.2-13.3 0.3zm50 0c5.9 0.2 15.8 0.2 22 0 6.2-0.1 1.4-0.3-10.7-0.3-12.1 0-17.2 0.2-11.3 0.3zm42.6 0c2.8 0.2 7.6 0.2 10.5 0 2.8-0.2 0.5-0.3-5.3-0.3-5.8 0-8.1 0.1-5.2 0.3zm20 0c0.7 0.3 1.6 0.2 1.9-0.1 0.4-0.3-0.2-0.6-1.3-0.5-1.1 0-1.4 0.3-0.6 0.6zm4 0c0.7 0.3 1.6 0.2 1.9-0.1 0.4-0.3-0.2-0.6-1.3-0.5-1.1 0-1.4 0.3-0.6 0.6zm4 0c0.6 0.2 1.8 0.2 2.5 0 0.6-0.3 0.1-0.5-1.3-0.5-1.4 0-1.9 0.2-1.2 0.5zm8 0c0.6 0.2 1.8 0.2 2.5 0 0.6-0.3 0.1-0.5-1.3-0.5-1.4 0-1.9 0.2-1.2 0.5zm6.5 0c1.5 0.2 3.7 0.2 5 0 1.2-0.2 0-0.4-2.8-0.4-2.7 0-3.8 0.2-2.2 0.4zm15 0c0.9 0.2 2.5 0.2 3.5 0 0.9-0.3 0.1-0.5-1.8-0.5-1.9 0-2.7 0.2-1.7 0.5zm8 0c0.9 0.2 2.5 0.2 3.5 0 0.9-0.3 0.1-0.5-1.8-0.5-1.9 0-2.7 0.2-1.7 0.5zm9 0c0.9 0.2 2.5 0.2 3.5 0 0.9-0.3 0.1-0.5-1.8-0.5-1.9 0-2.7 0.2-1.7 0.5z" fill="rgb(170, 170, 170)"/><path d="m70.8 210.7c0.6 0.2 1.8 0.2 2.5 0 0.6-0.3 0.1-0.5-1.3-0.5-1.4 0-1.9 0.2-1.2 0.5z" fill="rgb(128, 85, 85)"/><path d="m52.2 3c-19.1 5-35.2 18.1-43.7 35.3-5.8 11.9-7.8 19.8-7.7 31.7 0 19.4 8.1 37.8 22.5 51.1 11 10.1 27.4 16.8 43.3 17.7 20.3 1 37.1-5.1 51.8-18.8 8.3-7.7 16.8-22.3 18.2-31.1l0.7-3.9 258.6-0.2 258.6-0.3 0.3-15.2 0.3-15.3-258.2-0.2-258.1-0.3-2-6.3c-6.6-21.5-24.5-38.2-47.4-44.2-10.3-2.7-26.9-2.7-37.2 0zm40 2.3c14.9 4.8 26.5 13 33.9 23.9 5.1 7.4 9.6 16.9 10.4 21.9l0.7 3.9h516.8v28l-258.6 0.2-258.7 0.3-1.4 5.5c-4.2 16.4-17.4 32.9-32.8 40.7-12.5 6.4-18.1 7.8-32 7.7-10.3-0.1-13.2-0.5-20.4-2.8-21.9-7.2-37.6-22.7-44.8-44.1-2.4-7.1-2.7-9.5-2.7-21 0-11.3 0.4-13.9 2.6-20.2 6.6-18.5 17.9-31.8 33.9-39.7 12-5.9 20.2-7.6 34.4-7.2 8.2 0.3 12.9 1 18.7 2.9z"/><path d="m60.5 28.4c-21.4 5.2-34.9 25.1-31.7 46.8 2.9 19.2 17.2 33.3 36.7 36.1 13.2 1.9 26.2-2.9 35.8-13.3 8-8.6 10.1-14.6 10.2-28.5 0-10.3-0.2-11.4-3.1-17.5-5.8-12.3-15.8-20.6-28.4-23.4-8-1.9-12.6-1.9-19.5-0.2zm25.5 3.4c3.1 1.2 8.2 4.5 11.3 7.3 6.3 5.6 9.9 11.7 12.2 20.6 7.3 28.1-16.6 54.6-45.3 50.1-13-2-24.5-10.7-30.4-22.6-3.2-6.4-3.3-7.2-3.3-18.2 0-11 0.1-11.8 3.2-17.7 5.7-10.8 12-16.5 22.7-20.4 7.1-2.6 21.9-2.1 29.6 0.9zm-33.8 164.9l0.3 14.8h601.7v-14.5l-0.1-14.5-301.1-0.3-301.1-0.2zm600.8 0.3v14h-299.3c-164.7 0-299.6-0.2-299.8-0.4-0.2-0.2-0.3-6.5-0.1-14l0.3-13.6h598.9zm-319.2 41.1c-20.1 2.2-36.2 13.3-42.4 29.1-2.3 5.8-2.6 7.7-2.2 15.5 0.3 7.2 0.9 9.7 3.1 13.8 7.5 13.6 17.1 19.6 44.7 27.9 18 5.4 22.3 7.7 24.7 13.4 3.2 7.7-1.3 16.1-10.9 20.2-4.4 1.9-6.4 2.2-12.6 1.7-12.3-0.9-21.1-7.1-24.2-16.9-0.7-2.4-1.7-4.7-2.1-5.1-0.6-0.8-26.7 3.8-27.8 4.8-0.2 0.3 0.2 2.6 0.8 5.2 3.4 13.2 11.7 23.8 23.8 30.1 30.9 16 69.9 6.9 82.8-19.3 2.5-5.2 3-7.4 3.3-16.7 0.4-10.3 0.3-11-2.6-17.2-7.1-15.2-18-22.6-45.7-31.2-6.6-2.1-13.9-4.6-16.2-5.6-9-4-12-12.4-6.7-18.8 4-4.7 8-6.3 15.9-6.4 11.8-0.1 20.2 5.5 22.6 15 0.6 2.4 1.4 4.4 1.7 4.4 0.6 0 22.3-3.8 26-4.6 3.3-0.7 2.9-4.8-1.3-13.2-9.3-18.4-30.9-28.8-54.7-26.1zm26.3 3.7c8.4 3 11.2 4.7 17.8 10.8 5.9 5.4 11.1 13.9 12.7 20.6 0.7 3.1 2.1 2.6-15.2 5.5l-11.1 1.9-1.2-4.5c-3.9-14.6-27.9-20.4-39.3-9.4-5.6 5.3-6 12.9-1 17.5 4 3.8 9.1 6 24.2 10.8 19.6 6.1 27.2 10 35.1 17.9 8.3 8.4 11.1 14.1 11.7 24.1 1.3 22.4-11.9 39-36.3 45.5-9.2 2.5-26.2 2.2-35-0.5-19.6-6.1-30.9-16.6-35.9-33.4-1.1-3.5-1.1-4.8-0.3-5.2 0.7-0.2 6.5-1.5 13-2.8 10.8-2.1 11.9-2.2 12.4-0.7 4.4 14.2 13.9 21.1 29.2 21.1 15.6 0 26.2-11.2 22.1-23.4-1.6-4.8-7.6-8.9-18.2-12.2-4.6-1.4-11.9-3.7-16.2-5.1-4.4-1.3-11.3-4-15.3-5.9-26-12.4-31.1-42.6-10.3-61.7 6.6-6.1 12.1-9 22.1-11.7 9.6-2.6 26.5-2.2 35 0.8zm-309.9 157.2c-12.1 3.2-20.6 8.2-30.4 18.2-7 7-9.5 10.5-12.7 17-5.1 10.7-6.4 16-6.4 28.3-0.2 24.8 11.2 44.7 32.8 57.7 11.2 6.8 22.6 9.8 36.7 9.8 10.9 0 20.6-2.4 31.7-7.7 7.5-3.6 10.8-5.9 17.1-12.1 7.8-7.9 14.1-17.6 16.5-25.5l1.2-4.2h517.3v-33.5l-258.6-0.2-258.6-0.3-1.8-5.2c-2.9-8.2-8.9-17.1-16.9-25.1-8.7-8.7-21-15.1-33.3-17.6-10.5-2.2-25.5-2-34.6 0.4zm40 2.3c18 5.7 32.1 17.4 40 33.2 2.4 5 4.7 10 5 11.2l0.6 2.3h517.2v31l-258.6 0.2-258.6 0.3-2.2 6.1c-3.5 9.5-7.3 15.2-15.5 23.4-8.4 8.4-16.8 13.3-29.1 17.2-9.8 3-28.2 3.3-37.5 0.5-30.7-9.4-49.5-33.7-49.5-64.2 0-10.5 1.8-18.4 6.1-27.3 9.2-19 28.3-33.1 48.9-36.2 9.5-1.5 24.6-0.4 33.2 2.3z"/><path d="m60.2 424.1c-10.9 2.1-23 11.9-28 22.7-3.4 7.2-4.2 19.3-1.8 27.4 3.2 11 13.1 21.5 24.6 26 7.8 3 22.2 3 30 0 9.3-3.7 16.9-10.5 21.5-19.6 3.8-7.5 4-8.3 4-17 0-8.2-0.3-9.8-3.2-15.9-8.4-17.7-27.8-27.4-47.1-23.6zm25.1 4c7 2.6 16.3 11.1 20 18.4 14.4 28.6-11.3 60.7-43.2 54.1-12.7-2.7-22.3-9.9-28.1-21.2-3.3-6.4-3.5-7.5-3.5-16.4 0-8.2 0.4-10.3 2.7-15.2 5.7-12.3 18.3-21.5 31.1-22.7 7.3-0.8 13 0.1 21 3z"/><path d="m653.3 63c0 4.7 0.2 6.6 0.4 4.2 0.2-2.3 0.2-6.1 0-8.5-0.2-2.3-0.4-0.4-0.4 4.3zm-653.2 10.6c0 1.1 0.3 1.4 0.6 0.6 0.3-0.7 0.2-1.6-0.1-1.9-0.3-0.4-0.6 0.2-0.5 1.3zm39.3 25.2c2.3 2.6 2.3 2.6 2.3 0.7 0-0.8-0.3-1.3-0.5-1-0.3 0.3-1.2-0.1-2.1-0.7-1-0.8-0.9-0.4 0.3 1zm614.9 105.2c0 3 0.2 4.3 0.4 2.7 0.2-1.5 0.2-3.9 0-5.5-0.2-1.5-0.4-0.2-0.4 2.8zm-595.5 6.7c1.8 0.2 4.5 0.2 6 0 1.5-0.2 0-0.4-3.3-0.4-3.3 0-4.5 0.2-2.7 0.4zm279 27c0.7 0.3 1.6 0.2 1.9-0.1 0.4-0.3-0.2-0.6-1.3-0.5-1.1 0-1.4 0.3-0.6 0.6zm6 0c0.7 0.3 1.6 0.2 1.9-0.1 0.4-0.3-0.2-0.6-1.3-0.5-1.1 0-1.4 0.3-0.6 0.6zm-46.8 66.7c0 0.2 0.8 1 1.8 1.7 1.5 1.3 1.6 1.2 0.3-0.4-1.3-1.6-2.1-2.1-2.1-1.3zm98.2 33.1c0 1.6 0.2 2.2 0.5 1.2 0.2-0.9 0.2-2.3 0-3-0.3-0.6-0.5 0.1-0.5 1.8zm-55.9 47.2c0.9 0.2 2.3 0.2 3 0 0.6-0.3-0.1-0.5-1.8-0.5-1.6 0-2.2 0.2-1.2 0.5zm-319.2 30.7c-0.8 1-0.9 1.6-0.1 2.1 0.5 0.3 1 0.5 1.1 0.3 0.4-1.8 0.7-3.8 0.4-3.8-0.1 0-0.8 0.6-1.4 1.4zm102.2 6.1c0 0.8 0.4 1.2 0.9 0.9 0.5-0.3 0.6-1 0.3-1.5-0.9-1.3-1.2-1.1-1.2 0.6zm22.5 27.2c3.4 0.2 8.8 0.2 12 0 3.1-0.2 0.3-0.3-6.3-0.3-6.6 0-9.2 0.1-5.7 0.3zm115.4 0c53.7 0.2 141.9 0.2 196 0 54.1-0.1 10.1-0.2-97.7-0.2-107.8 0-152 0.1-98.3 0.2zm296.1 0c0.9 0.2 2.5 0.2 3.5 0 0.9-0.3 0.1-0.5-1.8-0.5-1.9 0-2.7 0.2-1.7 0.5zm19.5 0c7.8 0.2 20.6 0.2 28.5 0 7.8-0.1 1.4-0.3-14.3-0.3-15.7 0-22.1 0.2-14.2 0.3zm49 0c1.8 0.2 4.5 0.2 6 0 1.5-0.2 0-0.4-3.3-0.4-3.3 0-4.5 0.2-2.7 0.4zm29.6 15.8c0 8.8 0.2 12.3 0.3 7.7 0.2-4.6 0.2-11.8 0-16-0.1-4.2-0.3-0.5-0.3 8.3zm-654.3-7.9c0 1.1 0.3 1.4 0.6 0.6 0.3-0.7 0.2-1.6-0.1-1.9-0.3-0.4-0.6 0.2-0.5 1.3zm28.1 5.9c0 1.6 0.2 2.2 0.5 1.2 0.2-0.9 0.2-2.3 0-3-0.3-0.6-0.5 0.1-0.5 1.8zm-28.1 7.1c0 1.1 0.3 1.4 0.6 0.6 0.3-0.7 0.2-1.6-0.1-1.9-0.3-0.4-0.6 0.2-0.5 1.3zm248.7 11.1c60.6 0.2 159.8 0.2 220.5 0 60.6-0.1 11-0.2-110.3-0.2-121.3 0-170.9 0.1-110.2 0.2zm335 0c2.3 0.2 5.9 0.2 8 0 2-0.2 0.1-0.4-4.3-0.4-4.4 0-6.1 0.2-3.7 0.4zm14 0c0.6 0.2 1.8 0.2 2.5 0 0.6-0.3 0.1-0.5-1.3-0.5-1.4 0-1.9 0.2-1.2 0.5zm6.5 0c1.5 0.2 3.7 0.2 5 0 1.2-0.2 0-0.4-2.8-0.4-2.7 0-3.8 0.2-2.2 0.4zm32.5 0c1.2 0.2 3.2 0.2 4.5 0 1.2-0.2 0.2-0.4-2.3-0.4-2.5 0-3.5 0.2-2.2 0.4zm-614.5 30.8c0 0.8 0.4 1.2 0.9 0.9 0.5-0.3 0.6-1 0.3-1.5-0.9-1.3-1.2-1.1-1.2 0.6z" fill="rgb(85, 85, 85)"/><path d="m68.8 137.7c1.2 0.2 3.2 0.2 4.5 0 1.2-0.2 0.2-0.4-2.3-0.4-2.5 0-3.5 0.2-2.2 0.4zm583.5 50.8c0 2.2 0.2 3 0.4 1.7 0.2-1.2 0.2-3 0-4-0.3-0.9-0.5 0.1-0.4 2.3zm-313 51.2c1.5 0.2 3.7 0.2 5 0 1.2-0.2 0-0.4-2.8-0.4-2.7 0-3.8 0.2-2.2 0.4zm-49.2 43.9c0 1.1 0.3 1.4 0.6 0.6 0.3-0.7 0.2-1.6-0.1-1.9-0.3-0.4-0.6 0.2-0.5 1.3zm32.9 1.8c0 0.2 0.8 1 1.8 1.7 1.5 1.3 1.6 1.2 0.3-0.4-1.3-1.6-2.1-2.1-2.1-1.3zm-28 83c0 0.2 0.8 1 1.8 1.7 1.5 1.3 1.6 1.2 0.3-0.4-1.3-1.6-2.1-2.1-2.1-1.3zm357.2 85.1c0 1.6 0.2 2.2 0.5 1.2 0.2-0.9 0.2-2.3 0-3-0.3-0.6-0.5 0.1-0.5 1.8zm-613.2 37c1.3 1.4 2.6 2.5 2.8 2.5 0.3 0-0.5-1.1-1.8-2.5-1.3-1.4-2.6-2.5-2.8-2.5-0.3 0 0.5 1.1 1.8 2.5zm31.8 38.2c0.7 0.3 1.6 0.2 1.9-0.1 0.4-0.3-0.2-0.6-1.3-0.5-1.1 0-1.4 0.3-0.6 0.6z" fill="rgb(212, 212, 212)"/><path d="m64 2.6c-11.7 2.1-18.6 4.2-26.2 8.1-15.8 8.1-28.7 24.7-33.5 43.3-3.5 13.5-1.4 32.9 4.9 45.5 8.9 17.7 25.2 30.7 44.8 35.6 10.9 2.8 28.1 2.3 37.7-1 13.7-4.6 28.8-16.6 35.9-28.3 3.4-5.6 8.4-18.2 8.4-21.3 0-1.3 27.9-1.5 257.8-1.6 141.7-0.1 258-0.1 258.5 0 0.4 0 0.7-6 0.7-13.4v-13.5h-515.5l-1.9-6.5c-6.2-21.6-23.6-38.5-45.6-44.4-7.5-2-21.3-3.3-26-2.5zm19.2 26.4c15.5 4.8 26 17.4 29 34.7 1.1 6.4 1 8-0.9 15.7-2.6 10.3-7.2 17.7-14.6 23.5-9.4 7.2-13.7 8.6-26.2 8.6-10.2 0-11.5-0.2-17.7-3.2-16.4-7.7-25.6-23.2-24.6-41.8 0.9-17.9 12.5-32.4 30.3-38.1 6.2-2 17.4-1.7 24.7 0.6zm-29.2 168v13h599l-0.2-13-0.3-13h-598.5zm270.6 44.6c-16.9 4.1-29.5 16-33 31.2-2.8 12.6 0.6 23.7 10.2 33.1 6.6 6.5 15.5 10.6 35.7 16.7 21.4 6.4 26.5 10.3 26.5 20.3 0 7.7-2.6 11.7-10.3 15.5-7.5 3.7-14 4.4-22.3 2.1-8.1-2.2-14.9-8-18.4-15.6-1.3-3-2.5-5.5-2.6-5.7-0.2-0.5-22.1 4-23.4 4.8-1.9 1.2 2.3 12.8 6.8 18.7 5.2 6.9 8.8 9.9 16.6 13.9 28.7 14.8 67.7 6 78.9-17.8 6.6-14 5.9-28.8-1.9-39.5-7.8-10.8-17-16.2-41.4-24.3-19-6.2-21.8-7.6-24.7-11.9-8.4-12.5 7.5-26.1 25.1-21.6 3.4 0.9 7.5 2.6 9.3 3.8 3.9 2.6 8.3 9.3 8.3 12.5 0 2.1 0.4 2.4 2.8 1.9 1.5-0.3 7.4-1.3 13-2.3l10.4-1.8-0.6-3c-1.1-5.7-5.6-13.4-11-18.9-9.4-9.5-21.3-13.8-38.1-13.6-5.5 0-12.6 0.7-15.9 1.5zm-265.1 157.6c-15.1 2-28 8.3-38.5 18.9-7.6 7.7-12.1 14.9-15.7 25.1-2.3 6.3-2.7 8.9-2.7 19.3 0 10.3 0.4 13.1 2.7 20 3.6 11 9 19.6 16.8 26.9 13.1 12.4 29.1 18.6 47.6 18.7 12.4 0 19.8-1.8 31.8-7.6 14.5-7 26.3-20.2 31.7-35l2.3-6.5h517.7l-0.3-14.8-0.4-14.7-258.4-0.5-258.3-0.5-2.2-5.6c-8.2-21.2-25.3-36.7-46.3-41.8-9.2-2.3-19.5-3-27.8-1.9zm27.7 27.8c9.6 4.6 18.5 14.1 21.7 23.2 1.9 5.5 2.2 8.3 1.9 15-0.4 10.4-3.5 17.5-10.9 25.3-7.5 8-15.6 11.6-27.1 12.3-12.3 0.7-19.4-1.3-28.3-8.1-26.1-19.9-19.6-58.6 11.7-69.9 4.2-1.5 7.2-1.8 14.8-1.4 8.1 0.3 10.5 0.9 16.2 3.6z" fill="rgb(255, 255, 255)"/><path d="m174.8 55.7c0.7 0.3 1.6 0.2 1.9-0.1 0.4-0.3-0.2-0.6-1.3-0.5-1.1 0-1.4 0.3-0.6 0.6zm-94 128c0.7 0.3 1.6 0.2 1.9-0.1 0.4-0.3-0.2-0.6-1.3-0.5-1.1 0-1.4 0.3-0.6 0.6z" fill="rgb(128, 170, 128)"/><path d="m155.8 55.7c0.6 0.2 1.8 0.2 2.5 0 0.6-0.3 0.1-0.5-1.3-0.5-1.4 0-1.9 0.2-1.2 0.5zm-97 128c0.6 0.2 1.8 0.2 2.5 0 0.6-0.3 0.1-0.5-1.3-0.5-1.4 0-1.9 0.2-1.2 0.5z" fill="rgb(128, 170, 170)"/><path d="m635.8 448.7c0.6 0.2 1.8 0.2 2.5 0 0.6-0.3 0.1-0.5-1.3-0.5-1.4 0-1.9 0.2-1.2 0.5zm5.5 0c0.9 0.2 2.3 0.2 3 0 0.6-0.3-0.1-0.5-1.8-0.5-1.6 0-2.2 0.2-1.2 0.5z" fill="rgb(85, 85, 128)"/></svg>