<svg xmlns="http://www.w3.org/2000/svg" viewBox="0 0 1536 1536"><path d="M640.8 538.7c13.4.2 35 .2 48 0 13-.1 2.1-.2-24.3-.2s-37.1.1-23.7.2m233 0c13.9.2 36.4.2 50 0 13.6-.1 2.2-.2-25.3-.2s-38.6.1-24.7.2m-262 1c.6.2 1.8.2 2.5 0 .6-.3.1-.5-1.3-.5s-1.9.2-1.2.5m102 0c.6.2 1.8.2 2.5 0 .6-.3.1-.5-1.3-.5s-1.9.2-1.2.5m131 0c.6.2 1.8.2 2.5 0 .6-.3.1-.5-1.3-.5s-1.9.2-1.2.5m106 0c.6.2 1.8.2 2.5 0 .6-.3.1-.5-1.3-.5s-1.9.2-1.2.5m-232 1c.7.3 1.6.2 1.9-.1.4-.3-.2-.6-1.3-.5-1.1 0-1.4.3-.6.6m122 0c.7.3 1.6.2 1.9-.1.4-.3-.2-.6-1.3-.5-1.1 0-1.4.3-.6.6m115 0c.7.3 1.6.2 1.9-.1.4-.3-.2-.6-1.3-.5-1.1 0-1.4.3-.6.6m-233.8.5c.9.9 12 5.7 12 5.3 0-.6-7-4.1-10-5-1.4-.4-2.3-.5-2-.3M601 543c-.8.5-1 1-.5 1 .6 0 1.7-.5 2.5-1s1.1-1 .5-1c-.5 0-1.7.5-2.5 1m228.3 2c-2.8 1.6-7.8 5.5-11 8.6l-5.8 5.6 6.3-5.5c3.4-3 8.8-6.8 12-8.5 3.1-1.7 5.3-3.2 4.7-3.2-.5 0-3.3 1.4-6.2 3m132.8-2.6c1 .9 8.9 4.6 8.9 4.1s-7.5-4.5-8.6-4.5c-.4 0-.5.2-.3.4m-368.7 5c-9.9 6.7-19.5 20.2-20.9 29.6-.4 2.4.1 1.6 1.3-2.2 3.8-11.3 11.1-21 20.3-26.8 4.2-2.8 5.7-4 4.6-4-.1 0-2.5 1.5-5.3 3.4m146.7 4.4c7.2 6.5 12.3 14.1 15.5 22.7 1.4 3.9 2.3 5.5 2 3.7-1.5-8.8-11.6-23.7-19.9-29.3-1.8-1.2-.7.1 2.4 2.9m239.1 2.3c7.7 7.8 11.1 13.5 13.9 23.4 1 3.3 1.8 5.2 1.8 4.2.1-2.8-3.7-13.5-6.6-18-2.9-4.7-9.4-11.9-13.6-14.9-1.6-1.1.5 1.3 4.5 5.3m-168.6 8.1c-3.2 5-6.6 13.7-7.1 18.4-.5 4.6-.4 4.6.9-1.4.8-3.4 3-9.1 4.9-12.7 3.5-6.5 4.1-8.5 1.3-4.3m-183.3 7.5c4.8.2 12.5.2 17 0 4.5-.1.6-.3-8.8-.3-9.3 0-13 .2-8.2.3m38.5 0c5.7.2 14.7.2 20 0 5.3-.1.7-.3-10.3-.3s-15.4.2-9.7.3m32 0c1.2.2 3.2.2 4.5 0 1.2-.2.2-.4-2.3-.4s-3.5.2-2.2.4m8.3-.3c.2.2 2.2.6 4.4.9 2.7.4 3.5.3 2.5-.3-1.4-.9-7.9-1.5-6.9-.6m140.9.7c-6.4 2.6-13.1 10.7-12.9 15.6 0 1.2.3 1 .8-.7 2.4-7.9 7.9-13 15.9-14.9 2.6-.7 3-.9 1.2-.9-1.4-.1-3.6.4-5 .9m28.8-.4c2.3.2 5.9.2 8 0 2-.2.1-.4-4.3-.4s-6.1.2-3.7.4m13 0c.7.3 1.6.2 1.9-.1.4-.3-.2-.6-1.3-.5-1.1 0-1.4.3-.6.6m8 0c.7.3 1.6.2 1.9-.1.4-.3-.2-.6-1.3-.5-1.1 0-1.4.3-.6.6m25.5 0c1.5.2 3.7.2 5 0 1.2-.2 0-.4-2.8-.4-2.7 0-3.8.2-2.2.4m20.2.3c3.9.3 8 1.2 9.3 1.8 1.2.7 2.2 1 2.2.7 0-1.5-7.5-3.5-12.7-3.4l-5.8.2zm-331.1 2.9c-2.2 1.5-4.7 4-5.7 5.4-2.8 4.3-1.9 4.3 1.2 0 1.6-2.2 4.8-5 7.2-6.1 2.4-1.2 3.7-2.2 2.8-2.2s-3.4 1.3-5.5 2.9m106.1.1c1.7 1.1 4.1 3.2 5.3 4.7 1.7 2 2.1 2.2 1.3.7-1.3-2.6-6.8-7.4-8.4-7.4-.7 0 .2.9 1.8 2m240.1 3c1.2 1.4 2.6 3.4 3.2 4.5s1.2 1.4 1.2.7-1.5-2.7-3.2-4.5c-1.8-1.8-2.3-2.1-1.2-.7m-386.1 55c0 27.8.1 39.1.2 25.2.2-13.8.2-36.6 0-50.5-.1-13.8-.2-2.5-.2 25.3m154.2-48.5c.5 1.1 1 22.5 1.3 47.5l.5 45.5.2-44.5c.2-37.4 0-45-1.3-47.5-.8-1.7-1.1-2.1-.7-1m32.8 48.5c0 27.2.1 38.4.2 24.7.2-13.6.2-35.8 0-49.5-.1-13.6-.2-2.4-.2 24.8m-155.9-45.8c-.3 1.3-.5 22.1-.4 46.3l.3 44 .5-46c.3-25.3.4-46.1.4-46.3-.1-.1-.4.8-.8 2m392.9 45.3c0 25.8.1 36.6.2 23.8.2-12.7.2-33.9 0-47-.1-13.1-.2-2.7-.2 23.2m-32.3-.5c-.1 25.4-.6 46-1.2 47.9-.5 1.9-.8 3.7-.5 3.9.2.2.9-1.4 1.4-3.6.8-2.6 1-19 .8-48.3l-.2-44.4zm-129.9 0c0 22.8.2 42.8.6 44.5.6 2.8.4-65.6-.2-79.5-.2-3.6-.3 12.2-.4 35m-30 48c0 3 .2 4.3.4 2.7.2-1.5.2-3.9 0-5.5-.2-1.5-.4-.2-.4 2.8m-200.2-1c0 .8.4 2.2.9 3 1.2 1.8 1.2.2 0-2.5-.6-1.3-.9-1.5-.9-.5m122.1 2.9c-1.2 3.8-8 11.1-10.4 11.1-.6 0-.9.3-.5.6 1 1.1 6.7-3 9.2-6.6 1.3-1.9 2.7-4.7 3-6.3 1.1-4.1 0-3.2-1.3 1.2m109.9-.8c-.2 3.1 5.9 10 10.6 12.1 2.4 1.1 4.7 1.8 4.9 1.5.2-.2-1.6-1.2-4.1-2.1-4.5-1.8-8.5-5.8-10.4-10.6-.6-1.5-1-1.9-1-.9m159.1 1.9c0 1.9.2 2.7.5 1.7.2-.9.2-2.5 0-3.5-.3-.9-.5-.1-.5 1.8M572 683.2c0 2.2 3.8 12 5.2 13.3.8.7.9.6.3-.4-.4-.8-1.8-4.4-3.1-8s-2.4-5.8-2.4-4.9m33.8.3c.6 1.1 2.3 3.1 3.9 4.5l2.8 2.5-3-3.5c-4.7-5.5-4.8-5.6-3.7-3.5m151.3.1c0 1.1.3 1.4.6.6.3-.7.2-1.6-.1-1.9-.3-.4-.6.2-.5 1.3m199.4 3.6c-3.8 4-3.8 4.1-.7 1.9 1.7-1.2 3.7-3.1 4.2-4.2 1.5-2.7 1-2.4-3.5 2.3M804 684.7c0 1.6 3.1 9.5 3.6 9 .2-.2-.5-2.5-1.6-5.3-1-2.7-1.9-4.3-2-3.7m-47.9 2c-.1.6-.4 2-.7 3-.5 1.7-.5 1.7.6 0 .6-1 .9-2.3.6-3-.3-.9-.5-.9-.5 0M616 692c.8.5 2.2.9 3 .9 1 0 .8-.3-.5-.9-2.7-1.2-4.3-1.2-2.5 0m375-.4c0 .6-1.6 3.6-3.5 6.8s-2.9 5.3-2.2 4.7c2-1.6 7-11.1 6.3-11.8-.3-.4-.6-.2-.6.3m-280.2 1.1c.7.3 1.6.2 1.9-.1.4-.3-.2-.6-1.3-.5-1.1 0-1.4.3-.6.6m40.2 5.5c-1.9 3.4-6.2 8.6-9.5 11.6s-4.6 4.6-2.9 3.4c4.3-3 10.6-10 13.9-15.6 1.5-2.6 2.6-4.8 2.4-5s-2 2.3-3.9 5.6m-107.7-4.5c11.9.2 31.5.2 43.5 0 11.9-.1 2.1-.2-21.8-.2s-33.7.1-21.7.2m233 0c13.1.2 34.3.2 47 0 12.8-.1 2.1-.2-23.8-.2-25.8 0-36.3.1-23.2.2m-66.7 4.5c2.3 4.4 12.4 14.9 16.6 17.1 3.1 1.7 3.2 1.7.8 0-5.3-3.8-13.3-12-15.7-16-2.9-5-4.1-5.8-1.7-1.1m-229.9 2.7c2.5 4.6 12.5 13.7 18.5 16.7 2.7 1.4 5.2 2.4 5.3 2.2.2-.2-2-1.6-4.9-3.1-5.4-2.9-14.4-10.7-18.5-16.2l-2.2-3zM979 709c-2.5 2.2-7.4 5.6-11 7.5-3.6 2-5.4 3.3-4 2.9 3.2-.8 14.8-8.5 17.9-11.8 3.5-3.7 2.3-3.1-2.9 1.4m-249 8.5c-2.5 1.3-4.1 2.4-3.7 2.5 1.1 0 8.7-3.9 8.7-4.5 0-.7 0-.7-5 2m100.7.6c.7.7 1.5 1 1.8.7s-.2-.9-1.2-1.2c-1.4-.6-1.5-.5-.6.5m-223.2 3.4c1.7.8 4.1 1.4 5.5 1.4 1.5 0 .5-.6-2.5-1.4-6.2-1.7-6.9-1.7-3 0M721 721c-1.8 1.2-.2 1.2 2.5 0 1.3-.6 1.5-.9.5-.9-.8 0-2.2.4-3 .9m116.5 0c1.1.5 2.7.9 3.5.9.9 0 .8-.4-.5-.9-1.1-.5-2.7-.9-3.5-.9-.9 0-.8.4.5.9m119.3.7c.7.3 1.6.2 1.9-.1.4-.3-.2-.6-1.3-.5-1.1 0-1.4.3-.6.6m-241 1c.6.2 1.8.2 2.5 0 .6-.3.1-.5-1.3-.5s-1.9.2-1.2.5m128.5 0c.9.2 2.3.2 3 0 .6-.3-.1-.5-1.8-.5-1.6 0-2.2.2-1.2.5m107 0c.9.2 2.3.2 3 0 .6-.3-.1-.5-1.8-.5-1.6 0-2.2.2-1.2.5m-311 1c13.6.2 35.8.2 49.5 0 13.6-.1 2.4-.2-24.8-.2s-38.4.1-24.7.2m233.5 0c13.8.2 36.6.2 50.5 0 13.8-.1 2.5-.2-25.3-.2s-39.1.1-25.2.2m-234 46c14.5.2 37.9.2 52 0 14.1-.1 2.3-.2-26.3-.2s-40.2.1-25.7.2m-33.3 1.3c-2.5 1.1.1 1.1 3.5 0 2-.6 2.1-.8.5-.8-1.1 0-2.9.3-4 .8m112.3-.3c.6.2 1.8.2 2.5 0 .6-.3.1-.5-1.3-.5s-1.9.2-1.2.5m177.2.2c10.1.6 13.5 1.8 14.5 5.2.4 1.1.9 1.8 1.2 1.6 1-1-1.8-4.7-4.7-6.2-2-1.1-5.5-1.4-11.7-1.3l-8.8.2zm-172.2.8c.7.3 1.6.2 1.9-.1.4-.3-.2-.6-1.3-.5-1.1 0-1.4.3-.6.6m158.3 1.9c-1.2 1.5-2.1 3.8-2 5.3.1 2.2.2 2.1.9-.9.5-1.9 1.8-4.3 3-5.2 1.2-1 1.8-1.8 1.2-1.8s-2 1.2-3.1 2.6m-284.7.8c-2.7 1.3-7.7 4.9-11 8.1l-5.9 5.7 6-5.3c3.3-2.9 8.7-6.5 12-8 3.3-1.6 5.6-2.8 5-2.8-.5-.1-3.3 1-6.1 2.3m137.3 1.7c2.9 1.7 7.9 5.6 11 8.7 3.6 3.6 4.9 4.5 3.5 2.5-3.5-5-15.8-14.3-18.7-14.3-.5 0 1.4 1.4 4.2 3.1m177.7 33.4c0 17 .2 24.2.3 15.8.2-8.3.2-22.3 0-31-.1-8.7-.3-1.9-.3 15.2m-32 2.5c0 15.7.2 22.1.3 14.2.2-7.8.2-20.6 0-28.5-.1-7.8-.3-1.4-.3 14.3m-302-20.5c-2.4 3.6-6.4 13.7-6.3 16 0 1.1.8-.5 1.8-3.7 1-3.1 3-7.7 4.4-10.2 2.7-4.9 2.8-6.2.1-2.1m175.7 4.5c-.1.3.8 2.7 1.9 5.5 1 2.7 1.9 4.3 1.9 3.5 0-1.4-3.6-10.1-3.8-9m-88.1 4c52 .5 50.2.4 56.5 5.9l3 2.6-2.5-2.9c-1.4-1.6-4.3-3.7-6.5-4.7-3.7-1.7-7.2-1.8-51.5-1.7l-47.5.2zm-58 5c-2.2 2.2-4 4.6-4 5.2 0 .7.8.1 1.8-1.5 1-1.5 3.4-3.9 5.2-5.2 1.9-1.4 2.9-2.5 2.2-2.5s-3 1.8-5.2 4m150.5 50.5c0 26.9.1 37.8.2 24.2.2-13.7.2-35.7 0-49-.1-13.3-.2-2.2-.2 24.8m-32.6-44c1.7 5.4 2.1 6.1 1.6 2.5-.3-1.9-1-3.9-1.5-4.4-.7-.7-.7-.1-.1 1.9m-154.4 50c0 28.6.1 40.2.2 25.7.2-14.5.2-37.9 0-52-.1-14.1-.2-2.3-.2 26.3m30.7-1.4c-.2 39.4 0 46.2 1.4 50.2 2.2 6.4 8.8 12.2 15.5 13.6 3.2.7 20.2 1 47.2.9l42.2-.2-45-.6c-30.5-.3-45.8-.9-47.6-1.7-4.2-1.9-9.1-6.5-10.8-10.3-1.4-3-1.7-10.1-2.1-50.5l-.5-47zm125.8 3.4c-.5 49.5-.4 48.3-5.9 55-1.5 1.9-1.5 1.9.2.5 1-.7 2.8-3.2 4-5.4 2.1-4 2.2-5.3 2.5-39.6.2-19.5.1-40.2 0-46-.2-5.8-.5 10.2-.8 35.5m100.7-21.8c9.4.2 25.2.2 35 0 9.8-.1 2.1-.2-17.2-.2-19.2-.1-27.3.1-17.8.2m120.1.3 37.4.5 2.9 3.3c1.6 1.8 2.9 2.8 2.9 2.3s-1.6-2.3-3.5-4l-3.6-3.1-36.7.2-36.7.3zm-142.7 2.6c-1.7 1.4-3.1 3.3-3 4.2 0 1.2.3 1 .9-.5.5-1.3 2.4-3.2 4.2-4.3s2.8-2 2.1-2c-.6 0-2.5 1.2-4.2 2.6m186.1 11.9c-.1 4.7-.9 8.4-2.1 10.8-1.1 2.2-1.4 3.3-.6 2.7 2.5-2.1 3.6-6.7 3.2-13.6l-.3-6.9zm-189.1 8.3c-.1 2.1 1.8 5.1 4.2 6.4 1.6 1 11.5 1.4 37.2 1.8l35 .5.5 33.5.5 33.5.3-34.3.2-34.2h-35.4c-34.6 0-35.4 0-38-2.1-1.5-1.2-3.2-3.1-3.6-4.3-.5-1.1-.9-1.5-.9-.8m146.2 6.9c-20.5.2-37.3.7-37.3 1.1 0 1.1 73.3.3 74.4-.8.6-.6.8-.9.6-.8-.3.2-17.3.4-37.7.5m-37.1 37.6c-.2 28.9-.5 35.3-1.7 37.7-.9 1.7-1.3 3-1.1 3 .3 0 1.2-1.3 2.1-3 1.3-2.5 1.5-8 1.2-37.7l-.2-34.8zM758.3 913c0 2.5.2 3.5.4 2.2.2-1.2.2-3.2 0-4.5-.2-1.2-.4-.2-.4 2.3m-186.1 3c0 1.4.2 1.9.5 1.2.2-.6.2-1.8 0-2.5-.3-.6-.5-.1-.5 1.3m144.8 5.5c-1.4.8-2 1.4-1.4 1.5.5 0 1.9-.7 3-1.5 2.4-1.8 1.6-1.9-1.6 0m-143 .9c-.1 2.8 7.2 13.5 12.7 18.6 5.9 5.5 14.6 11 17.4 11 .7 0-1.6-1.4-5-3.1-8.7-4.3-17-12.4-21.4-20.6-2-3.8-3.7-6.4-3.7-5.9m136.8 1.3c.6.2 1.8.2 2.5 0 .6-.3.1-.5-1.3-.5s-1.9.2-1.2.5m41.8 5.9c-3.6 6.9-13.3 15.9-21.1 19.6-3.3 1.6-4.9 2.6-3.5 2.2 8.3-2.1 21.4-13.4 25.9-22.3 1.2-2.3 2.1-4.4 1.9-4.6s-1.6 2.1-3.2 5.1m127.5 14c0 1.8.7 4 1.7 5.1.9 1 1.3 1.3.8.5-.5-.7-1.3-3-1.7-5-.7-3.7-.7-3.7-.8-.6m5.6 8.6c.2.5 4.8.7 10.1.7 10.9-.2 9.8-.7-2.5-1.1-4.4-.2-7.9 0-7.6.4m-278.2.8c1.9.8 7.3 1.4 6.4.6-.2-.2-2.2-.6-4.4-.9-2.8-.5-3.4-.4-2 .3m115.3-.3c.7.3 1.6.2 1.9-.1.4-.3-.2-.6-1.3-.5-1.1 0-1.4.3-.6.6m-4 1c.7.3 1.6.2 1.9-.1.4-.3-.2-.6-1.3-.5-1.1 0-1.4.3-.6.6m-78.5 1c14.1.2 37.3.2 51.5 0 14.1-.1 2.5-.2-25.8-.2s-39.9.1-25.7.2"/><path fill="#555" d="M643.2 568.7c10.8.2 28.8.2 40 0 11.2-.1 2.3-.2-19.7-.2s-31.1.1-20.3.2m60.8.3c0 .5.5 1 1.1 1 .5 0 .7-.5.4-1-.3-.6-.8-1-1.1-1-.2 0-.4.4-.4 1m152.3-.4c.7.7 83.8.7 84.5-.1.3-.3-18.7-.5-42.3-.5s-42.6.3-42.2.6m-53.9 19.9c-.8 4.2.2 82.4 1 83.3.3.3.6-19.1.6-43.1s-.2-43.7-.5-43.7c-.2 0-.7 1.6-1.1 3.5m108.8 192c0 1.6.2 2.2.5 1.2.2-.9.2-2.3 0-3-.3-.6-.5.1-.5 1.8m-31.6 2.2c-.6 1.4-.5 1.5.5.6.7-.7 1-1.5.7-1.8s-.9.2-1.2 1.2m31.7 4.8c0 2.2.2 3 .4 1.7.2-1.2.2-3 0-4-.3-.9-.5.1-.4 2.3m-32.2-.9c0 1.1.3 1.4.6.6.3-.7.2-1.6-.1-1.9-.3-.4-.6.2-.5 1.3m32.3 20.4c0 8.5.2 12 .3 7.7.2-4.2.2-11.2 0-15.5-.1-4.2-.3-.7-.3 7.8m-32.2-3.5c0 1.6.2 2.2.5 1.2.2-.9.2-2.3 0-3-.3-.6-.5.1-.5 1.8m0 8.5c0 1.9.2 2.7.5 1.7.2-.9.2-2.5 0-3.5-.3-.9-.5-.1-.5 1.8m-151.7 5c-.4 1.2-.5 2.4-.2 2.7.3.2.8-.5 1.2-1.7s.5-2.4.2-2.7c-.3-.2-.8.5-1.2 1.7m151.8 7.5c0 4.4.2 6.1.4 3.7.2-2.3.2-5.9 0-8-.2-2-.4-.1-.4 4.3m32 3c0 2.2.2 3 .4 1.7.2-1.2.2-3 0-4-.3-.9-.5.1-.4 2.3m0 9.5c0 3 .2 4.3.4 2.7.2-1.5.2-3.9 0-5.5-.2-1.5-.4-.2-.4 2.8m-32.3 1.5c0 1.4.4 2.5.9 2.5.4 0 .6-1.1.3-2.5-.2-1.4-.6-2.5-.8-2.5s-.4 1.1-.4 2.5m-76.8 18.6c.4 8.3 1.8 8.6 1.8.5 0-4-.4-6.6-1.1-6.6-.6 0-.9 2.3-.7 6.1m-74.9 11.4c0 2.2.2 3 .4 1.7.2-1.2.2-3 0-4-.3-.9-.5.1-.4 2.3m151.9 9c0 1.6.2 2.2.5 1.2.2-.9.2-2.3 0-3-.3-.6-.5.1-.5 1.8m32-.5c0 1.4.2 1.9.5 1.2.2-.6.2-1.8 0-2.5-.3-.6-.5-.1-.5 1.3m.1 6.5c0 2.2.2 3 .4 1.7.2-1.2.2-3 0-4-.3-.9-.5.1-.4 2.3m-31.9 28c0 17 .2 24.2.3 15.8.2-8.3.2-22.3 0-31-.1-8.7-.3-1.9-.3 15.2m31.9-20c0 2.2.2 3 .4 1.7.2-1.2.2-3 0-4-.3-.9-.5.1-.4 2.3m-184 1c0 2.2.2 3 .4 1.7.2-1.2.2-3 0-4-.3-.9-.5.1-.4 2.3m30.9 14c0 1.6.2 2.2.5 1.2.2-.9.2-2.3 0-3-.3-.6-.5.1-.5 1.8M607 917.4c0 .2.8 1 1.8 1.7 1.5 1.3 1.6 1.2.3-.4s-2.1-2.1-2.1-1.3m304.3 11.1c0 4.4.2 6.1.4 3.7.2-2.3.2-5.9 0-8-.2-2-.4-.1-.4 4.3m-.1 11.5c0 1.4.2 1.9.5 1.2.2-.6.2-1.8 0-2.5-.3-.6-.5-.1-.5 1.3m-29.2 8.4c0 .2.8 1 1.8 1.7 1.5 1.3 1.6 1.2.3-.4s-2.1-2.1-2.1-1.3"/><path fill="gray" d="M941.8 568.7c.7.3 1.6.2 1.9-.1.4-.3-.2-.6-1.3-.5-1.1 0-1.4.3-.6.6m49.5 290.8c0 2.2.2 3 .4 1.7.2-1.2.2-3 0-4-.3-.9-.5.1-.4 2.3"/><path fill="#aaa" d="M957 574.4c0 .2.8 1 1.8 1.7 1.5 1.3 1.6 1.2.3-.4s-2.1-2.1-2.1-1.3m37.5 58.1c0 24.2.1 34 .2 21.7.2-12.3.2-32.1 0-44-.1-11.9-.2-1.9-.2 22.3m-14.1 74.7-1.9 2.3 2.3-1.9c1.2-1.1 2.2-2.1 2.2-2.3 0-.8-.8-.2-2.6 1.9m-395.4-.8c0 .2.8 1 1.8 1.7 1.5 1.3 1.6 1.2.3-.4s-2.1-2.1-2.1-1.3m136 97c0 .2.8 1 1.8 1.7 1.5 1.3 1.6 1.2.3-.4s-2.1-2.1-2.1-1.3m270.2 49.1c0 1.6.2 2.2.5 1.2.2-.9.2-2.3 0-3-.3-.6-.5.1-.5 1.8"/><path fill="#d4d4d4" d="M619.8 539.7c.7.3 1.6.2 1.9-.1.4-.3-.2-.6-1.3-.5-1.1 0-1.4.3-.6.6m197.1 16c-1.3 1.6-1.2 1.7.4.4.9-.7 1.7-1.5 1.7-1.7 0-.8-.8-.3-2.1 1.3m-74 152-2.4 2.8 2.8-2.4c1.5-1.4 2.7-2.6 2.7-2.8 0-.8-.8-.1-3.1 2.4m-120.1 63c4.5.2 11.9.2 16.5 0 4.5-.1.8-.3-8.3-.3s-12.8.2-8.2.3m26.5 0c.9.2 2.3.2 3 0 .6-.3-.1-.5-1.8-.5-1.6 0-2.2.2-1.2.5m5.5 0c.7.3 1.6.2 1.9-.1.4-.3-.2-.6-1.3-.5-1.1 0-1.4.3-.6.6m4 0c.7.3 1.6.2 1.9-.1.4-.3-.2-.6-1.3-.5-1.1 0-1.4.3-.6.6m5.5 0c1.5.2 3.7.2 5 0 1.2-.2 0-.4-2.8-.4-2.7 0-3.8.2-2.2.4m10.5 0c1.2.2 3.2.2 4.5 0 1.2-.2.2-.4-2.3-.4s-3.5.2-2.2.4m10.5 0c2 .2 5.4.2 7.5 0 2-.2.3-.4-3.8-.4s-5.8.2-3.7.4m22 0c.9.2 2.5.2 3.5 0 .9-.3.1-.5-1.8-.5s-2.7.2-1.7.5m38.6 167c-1.3 1.6-1.2 1.7.4.4s2.1-2.1 1.3-2.1c-.2 0-1 .8-1.7 1.7M587 940.5c1.3 1.4 2.6 2.5 2.8 2.5.3 0-.5-1.1-1.8-2.5s-2.6-2.5-2.8-2.5c-.3 0 .5 1.1 1.8 2.5"/><path fill="#fff" d="M616.5 540c-21.9 2.9-39.8 19.8-43.5 41-.8 4.4-1 21.8-.8 54 .4 46.2.4 47.7 2.6 53.4 6.5 17.4 20.6 29.3 39.2 33.2 6.2 1.3 15.2 1.5 54.4 1.2l47.1-.3 7.9-2.8c4.3-1.5 9.7-4 12-5.6 6.8-4.7 14.5-13.7 17.5-20.4 4.9-10.8 5.3-16 4.9-66.7-.3-45.4-.4-46.6-2.6-52.5-4.9-12.9-14.7-23.7-26.8-29.5-11.8-5.7-14.7-6-62.4-5.9-23.9.1-46.2.5-49.5.9m100 31.1c3 1.5 6.2 4.2 8 6.8l3 4.3.3 46.1c.3 50.7.2 52-5.4 58.6-6.3 7.3-6 7.2-58.9 6.9l-47-.3-4.2-2.8c-2.4-1.5-5.5-4.6-7-7l-2.8-4.2-.3-47.4c-.3-46.6-.2-47.4 1.9-51.8 1.1-2.4 3.6-5.5 5.3-6.8 7-5.4 7.5-5.4 56.6-5.2l45.6.2zm133-31.1c-8.9 1.1-13.4 2.6-20 6.5-12 7.2-20.2 17.7-24 30.7-1.4 4.9-1.6 11.8-1.3 56.5l.3 50.8 4.2 8.6c4.8 9.8 11.2 16.9 20.2 22.3 11.1 6.8 12.4 6.9 63.6 7.4 54.8.4 61.3-.1 73-5.7 14.1-6.8 21.6-15.4 26.1-29.6 2.4-7.6 2.4-7.7 2.4-56.4 0-46.6-.1-49.2-2.1-55.6-3.8-12.4-12.1-22.7-23.3-29-12.2-6.8-12.8-6.9-65.6-7.1-26.1-.1-50.2.1-53.5.6m99.8 29.4c5.6 2 10.7 6.4 12.8 11 1.7 3.8 1.9 7.3 1.9 50 0 49.8-.2 51.6-5.4 56.9-6.8 6.8-5.8 6.7-59.7 6.7h-48.5l-5.3-2.6c-5.6-2.8-8.7-6.8-11-13.9-.9-3-1.1-14.9-.9-49l.3-45 2.4-4.2c2.7-4.7 6.5-7.8 11.9-9.8s96-2 101.5-.1M652 771l-44.5.5-6.4 2.7c-13.1 5.7-20.9 14.1-26.3 28.4-2.2 5.8-2.3 7.1-2.6 55.5-.3 53.2 0 58 4.8 68.2 3.5 7.3 13.8 17.8 21.3 21.6 11.4 5.8 14.3 6 66.7 6 38 .1 48.9-.2 54.5-1.4 18.7-4 33.7-18.1 37.4-35.3 1.4-6.9 1.5-104.8 0-111.1-3.5-15.4-15.7-28.4-31.2-33.3-7.5-2.3-13.3-2.5-73.7-1.8m66 30.2c2.6 1.4 5.7 4.1 7.5 6.6l3 4.4.3 48.4c.2 43 .1 48.9-1.4 51.9-2.1 4.6-6.1 8.4-10.9 10.6-3.7 1.7-7.5 1.9-50 1.9-26.8 0-47.5-.4-49.5-1-4.7-1.3-10.6-6.3-13-11.1-1.9-3.6-2-6-2-51.4 0-51.3 0-51.3 5.4-56.6 6-6 4.7-5.9 57.6-5.9 48.4 0 48.6 0 53 2.2m169.2-29.5c-1.3.3-3.2 1.9-4.3 3.6-1.8 3-1.9 5.3-1.9 35.2v32l-33.7-.3c-36-.3-37.7-.1-41.3 4.6-1.6 1.9-2 4-2 9.8 0 4 .5 8.5 1.2 9.9 2.4 5.3 3.8 5.5 41.3 5.5H881v73.9l2.4 2.8c2.4 2.7 2.7 2.8 12.6 2.8s10.2-.1 12.6-2.8l2.4-2.8V872h35.5c45.7 0 44.5.4 44.5-15.5 0-7.9-.2-8.8-2.5-10.9-1.4-1.3-3.9-2.6-5.6-3-1.8-.3-18.6-.6-37.5-.6H911v-32.1c0-20-.4-32.8-1-34-1.8-3.3-6.4-4.9-13.7-4.8-3.7.1-7.8.4-9.1.6"/><path fill="#558080" d="M911.2 911c0 1.4.2 1.9.5 1.2.2-.6.2-1.8 0-2.5-.3-.6-.5-.1-.5 1.3"/><path fill="#055" d="M868.8 569.7c.6.2 1.8.2 2.5 0 .6-.3.1-.5-1.3-.5s-1.9.2-1.2.5m61 0c.7.3 1.6.2 1.9-.1.4-.3-.2-.6-1.3-.5-1.1 0-1.4.3-.6.6"/><path fill="#005" d="M891.8 569.7c.6.2 1.8.2 2.5 0 .6-.3.1-.5-1.3-.5s-1.9.2-1.2.5m8.5 0c.9.2 2.3.2 3 0 .6-.3-.1-.5-1.8-.5-1.6 0-2.2.2-1.2.5"/></svg>