<svg xmlns="http://www.w3.org/2000/svg" viewBox="0 0 456 519" width="32" height="32"><path d="m134.8 0.7c51.4 0.2 135.1 0.2 186 0 51-0.1 9-0.2-93.3-0.2-102.3 0-144 0.1-92.7 0.2zm-109.8 4.8c-1.4 0.8-2 1.4-1.4 1.5 0.5 0 1.9-0.7 3-1.5 2.4-1.8 1.6-1.9-1.6 0zm406 0.9c0 0.3 0.9 1 2 1.6 1.1 0.6 2 0.8 2 0.6 0-0.3-0.9-1-2-1.6-1.1-0.6-2-0.8-2-0.6zm-416.1 6.3c-1.3 1.6-1.2 1.7 0.4 0.4 1.6-1.3 2.1-2.1 1.3-2.1-0.2 0-1 0.8-1.7 1.7zm194.9 88c0.1 37.3 0.3 84.7 0.5 105.3 0.1 20.6 0.3-9.9 0.5-67.8 0.1-57.8-0.1-105.2-0.5-105.2-0.5 0-0.7 30.5-0.5 67.7zm-165-66c0.7 0.3 1.6 0.2 1.9-0.1 0.4-0.3-0.2-0.6-1.3-0.5-1.1 0-1.4 0.3-0.6 0.6zm408.3-0.2c0.1 1.9 1.8 5.1 1.8 3.5 0-0.8-0.4-2.2-0.9-3-0.5-0.8-0.9-1.1-0.9-0.5zm-205 5.1c0 1.1 0.3 1.4 0.6 0.6 0.3-0.7 0.2-1.6-0.1-1.9-0.3-0.4-0.6 0.2-0.5 1.3zm-248 3c0 1.1 0.3 1.4 0.6 0.6 0.3-0.7 0.2-1.6-0.1-1.9-0.3-0.4-0.6 0.2-0.5 1.3zm36.5-0.1c-0.9 2.6-0.7 3.2 0.5 1.2 0.6-1 0.9-2.1 0.6-2.3-0.2-0.3-0.7 0.2-1.1 1.1zm383.9 38c0 19.8 0.1 28 0.2 18.3 0.2-9.7 0.2-25.9 0-36-0.1-10.1-0.2-2.1-0.2 17.7zm-384.2-18c0 3.8 0.2 5.3 0.4 3.2 0.2-2 0.2-5.2 0-7-0.2-1.7-0.4-0.1-0.4 3.8zm-0.2 49.7l-0.1 2.8-17.2 0.3-17.3 0.3 17.3 0.2c18.3 0.2 19.1 0 17.9-4.5q-0.4-1.8-0.6 0.9zm393.7 3.5c4.5 0.2 11.9 0.2 16.5 0 4.5-0.1 0.8-0.3-8.3-0.3-9.1 0-12.8 0.2-8.2 0.3zm-219.5 133.3c0 3 0.2 4.3 0.4 2.7 0.2-1.5 0.2-3.9 0-5.5-0.2-1.5-0.4-0.2-0.4 2.8zm0.2 69.5c0 31.3 0.1 44 0.2 28.2 0.2-15.9 0.2-41.5 0-57-0.1-15.5-0.2-2.6-0.2 28.8zm-0.1 84c0 14.3 0.2 20 0.3 12.7 0.2-7.3 0.2-19 0-26-0.1-7-0.3-1-0.3 13.3zm-0.2 30c0 1.6 0.2 2.2 0.5 1.2 0.2-0.9 0.2-2.3 0-3-0.3-0.6-0.5 0.1-0.5 1.8zm0.2 16.5c0 7.4 0.1 10.5 0.3 6.7 0.2-3.7 0.2-9.7 0-13.5-0.2-3.7-0.3-0.6-0.3 6.8zm-0.1 26.5c0 3.3 0.2 4.5 0.4 2.7 0.2-1.8 0.2-4.5 0-6-0.2-1.5-0.4 0-0.4 3.3zm93.9 9c0 1.6 0.2 2.2 0.5 1.2 0.2-0.9 0.2-2.3 0-3-0.3-0.6-0.5 0.1-0.5 1.8zm0.1 12c0 4.4 0.2 6.1 0.4 3.7 0.2-2.3 0.2-5.9 0-8-0.2-2-0.4-0.1-0.4 4.3zm-0.5 16.5c-0.1 2.8 0 5 0.5 5 0.4 0 0.7-2.3 0.7-5 0-6.5-0.7-6.5-1.2 0zm-151.8 2.7c0 1.5 1.8 3.5 2.3 2.7 0.3-0.5-0.1-1.5-0.9-2.2-0.8-0.7-1.4-0.9-1.4-0.5z" fill="rgb(85, 85, 85)"/><path d="m36.8 1.7c0.7 0.3 1.6 0.2 1.9-0.1 0.4-0.3-0.2-0.6-1.3-0.5-1.1 0-1.4 0.3-0.6 0.6zm399.2 7.7c0 0.2 0.8 1 1.8 1.7 1.5 1.3 1.6 1.2 0.3-0.4-1.3-1.6-2.1-2.1-2.1-1.3zm-433.9 25.2c0 1.1 0.3 1.4 0.6 0.6 0.3-0.7 0.2-1.6-0.1-1.9-0.3-0.4-0.6 0.2-0.5 1.3zm52.2-0.9c3.1 0.2 8.3 0.2 11.5 0 3.1-0.2 0.5-0.3-5.8-0.3-6.3 0-8.9 0.1-5.7 0.3zm27 0c5.3 0.2 14.1 0.2 19.5 0 5.3-0.1 0.9-0.3-9.8-0.3-10.7 0-15.1 0.2-9.7 0.3zm39 0c5.3 0.2 14.1 0.2 19.5 0 5.3-0.1 0.9-0.3-9.8-0.3-10.7 0-15.1 0.2-9.7 0.3zm37.5 0c4.6 0.2 11.8 0.2 16 0 4.2-0.1 0.5-0.3-8.3-0.3-8.8 0-12.3 0.2-7.7 0.3zm28 0c2.3 0.2 5.9 0.2 8 0 2-0.2 0.1-0.4-4.3-0.4-4.4 0-6.1 0.2-3.7 0.4zm15 0c0.7 0.3 1.6 0.2 1.9-0.1 0.4-0.3-0.2-0.6-1.3-0.5-1.1 0-1.4 0.3-0.6 0.6zm5 0c0.7 0.3 1.6 0.2 1.9-0.1 0.4-0.3-0.2-0.6-1.3-0.5-1.1 0-1.4 0.3-0.6 0.6zm43 0c0.6 0.2 1.8 0.2 2.5 0 0.6-0.3 0.1-0.5-1.3-0.5-1.4 0-1.9 0.2-1.2 0.5zm14.5 0c4.3 0.2 11 0.2 15 0 4-0.1 0.5-0.3-7.8-0.3-8.2 0-11.5 0.2-7.2 0.3zm31 0c4.2 0.2 11.2 0.2 15.5 0 4.2-0.1 0.7-0.3-7.8-0.3-8.5 0-12 0.2-7.7 0.3zm27 0c0.9 0.2 2.3 0.2 3 0 0.6-0.3-0.1-0.5-1.8-0.5-1.6 0-2.2 0.2-1.2 0.5zm15.5 0c1.2 0.2 3 0.2 4 0 0.9-0.3-0.1-0.5-2.3-0.4-2.2 0-3 0.2-1.7 0.4zm15.5 0c5.3 0.2 14.1 0.2 19.5 0 5.3-0.1 0.9-0.3-9.8-0.3-10.7 0-15.1 0.2-9.7 0.3zm31.5 0c0.6 0.2 1.8 0.2 2.5 0 0.6-0.3 0.1-0.5-1.3-0.5-1.4 0-1.9 0.2-1.2 0.5zm9 0c2.8 0.2 7.6 0.2 10.5 0 2.8-0.2 0.5-0.3-5.3-0.3-5.8 0-8.1 0.1-5.2 0.3zm25.9 8.4c0.4 1.3 0.8 1.8 1.1 1 0.2-0.7-0.1-1.8-0.6-2.3-0.8-0.8-0.9-0.4-0.5 1.3zm36.7 7.9c0 5.2 0.1 7.4 0.3 4.7 0.2-2.6 0.2-6.8 0-9.5-0.2-2.6-0.3-0.4-0.3 4.8zm-454.9 30c0 20.1 0.1 28.3 0.2 18.2 0.2-10 0.2-26.4 0-36.5-0.1-10-0.2-1.8-0.2 18.3zm247.7 183.2l-0.2 218.8 27.8-0.2 27.7-0.3-27.2-0.2-27.3-0.3-0.3-218.3-0.2-218.2zm207.2-176.7c0 13.7 0.2 19.5 0.3 12.8 0.2-6.7 0.2-17.9 0-25-0.1-7-0.3-1.6-0.3 12.2zm-303.2 411.7l0.2 17.3 0.3-16.7 0.3-16.8 29.3-0.3 29.2-0.2-29.7-0.3-29.8-0.2zm40 19.5c20.1 0.2 53.4 0.2 74 0 20.5-0.1 4-0.2-36.7-0.2-40.7 0-57.5 0.1-37.3 0.2z"/><path d="m15.9 12.7c-1.3 1.6-1.2 1.7 0.4 0.4 1.6-1.3 2.1-2.1 1.3-2.1-0.2 0-1 0.8-1.7 1.7z" fill="rgb(170, 170, 170)"/><path d="m454.2 43c0 1.4 0.2 1.9 0.5 1.2 0.2-0.6 0.2-1.8 0-2.5-0.3-0.6-0.5-0.1-0.5 1.3zm-452.9 3.5c0 2.2 0.2 3 0.4 1.7 0.2-1.2 0.2-3 0-4-0.3-0.9-0.5 0.1-0.4 2.3zm33.9 1.5c0 1.4 0.2 1.9 0.5 1.2 0.2-0.6 0.2-1.8 0-2.5-0.3-0.6-0.5-0.1-0.5 1.3zm0.1 9c0 3.6 0.2 5 0.4 3.2 0.2-1.7 0.2-4.7 0-6.5-0.2-1.7-0.4-0.3-0.4 3.3zm-34 10c0 2.5 0.2 3.5 0.4 2.2 0.2-1.2 0.2-3.2 0-4.5-0.2-1.2-0.4-0.2-0.4 2.3zm34 0.5c0 2.2 0.2 3 0.4 1.7 0.2-1.2 0.2-3 0-4-0.3-0.9-0.5 0.1-0.4 2.3zm0.1 23.5c0 10.7 0.2 15.1 0.3 9.7 0.2-5.3 0.2-14.1 0-19.5-0.1-5.3-0.3-0.9-0.3 9.8zm-34-2c0 8 0.2 11.2 0.3 7.2 0.2-3.9 0.2-10.5 0-14.5-0.1-3.9-0.3-0.7-0.3 7.3zm-0.2 18c0 1.9 0.2 2.7 0.5 1.7 0.2-0.9 0.2-2.5 0-3.5-0.3-0.9-0.5-0.1-0.5 1.8zm154.1 375.7c0.9 0.2 2.5 0.2 3.5 0 0.9-0.3 0.1-0.5-1.8-0.5-1.9 0-2.7 0.2-1.7 0.5zm148.1 9.8c0 6 0.1 8.4 0.3 5.2 0.2-3.2 0.2-8.1 0-11-0.2-2.9-0.3-0.3-0.3 5.8zm-0.2 14.5c0 1.9 0.2 2.7 0.5 1.7 0.2-0.9 0.2-2.5 0-3.5-0.3-0.9-0.5-0.1-0.5 1.8zm0 6.5c0 1.6 0.2 2.2 0.5 1.2 0.2-0.9 0.2-2.3 0-3-0.3-0.6-0.5 0.1-0.5 1.8z" fill="rgb(212, 212, 212)"/><path d="m37.5 2.4c-12.4 3-24.5 11.7-29.7 21.3-5.5 10.1-5.8 12.7-6 53.6l-0.3 37.7h34v-71.5l2.4-3.9c4.3-6.9 0.1-6.6 91.1-6.6h82v449.5h-58v34.5h150.5l-0.2-3.7c-0.1-2.1-0.2-9.9-0.2-17.3l-0.1-13.5-21.8-0.2c-11.9-0.1-24.3-0.3-27.4-0.3h-5.8v-449h163.4l3.2 2.2c6.5 4.5 6.4 3.9 6.4 43.7v36.1h34.2l-0.4-37.8c-0.4-36.2-0.5-38-2.7-44.2-4.3-12.3-13.1-22.2-23.9-27-11.6-5.2-3.2-5-201.2-4.9-141.7 0.1-185.7 0.4-189.5 1.3z" fill="rgb(255, 255, 255)"/><path d="m36.2 99c0 1.4 0.2 1.9 0.5 1.2 0.2-0.6 0.2-1.8 0-2.5-0.3-0.6-0.5-0.1-0.5 1.3z" fill="rgb(0, 0, 85)"/><path d="m36.2 71c0 1.4 0.2 1.9 0.5 1.2 0.2-0.6 0.2-1.8 0-2.5-0.3-0.6-0.5-0.1-0.5 1.3zm0 17c0 1.9 0.2 2.7 0.5 1.7 0.2-0.9 0.2-2.5 0-3.5-0.3-0.9-0.5-0.1-0.5 1.8zm-0.1 7.6c0 1.1 0.3 1.4 0.6 0.6 0.3-0.7 0.2-1.6-0.1-1.9-0.3-0.4-0.6 0.2-0.5 1.3z" fill="rgb(0, 85, 85)"/></svg>