<svg xmlns="http://www.w3.org/2000/svg" viewBox="0 0 392 460" width="32" height="32"><path d="m178.2 0.7c3.7 0.2 10 0.2 14 0 4-0.1 1-0.3-6.7-0.3-7.7 0-11 0.1-7.3 0.3zm-16.2 1.3c-1.7 0.6-0.9 0.7 2.5 0.3 2.8-0.3 5.2-0.7 5.4-0.9 0.8-0.7-5.4-0.2-7.9 0.6zm41.3-0.3c0.9 0.2 2.3 0.2 3 0 0.6-0.3-0.1-0.5-1.8-0.5-1.6 0-2.2 0.2-1.2 0.5zm6.5 1c0.6 0.2 1.8 0.2 2.5 0 0.6-0.3 0.1-0.5-1.3-0.5-1.4 0-1.9 0.2-1.2 0.5zm-53 1c0.7 0.3 1.6 0.2 1.9-0.1 0.4-0.3-0.2-0.6-1.3-0.5-1.1 0-1.4 0.3-0.6 0.6zm58 0c0.7 0.3 1.6 0.2 1.9-0.1 0.4-0.3-0.2-0.6-1.3-0.5-1.1 0-1.4 0.3-0.6 0.6zm-65.3 1.8c-3.9 1.7-2.1 1.8 2.5 0 1.9-0.7 2.8-1.4 2-1.4-0.8 0-2.8 0.6-4.5 1.4zm70-0.5c2.7 1.2 4.3 1.2 2.5 0-0.8-0.5-2.2-0.9-3-0.9-1 0-0.8 0.3 0.5 0.9zm6 2c2.7 1.2 4.3 1.2 2.5 0-0.8-0.5-2.2-0.9-3-0.9-1 0-0.8 0.3 0.5 0.9zm-86.5 2.5c-1.4 0.8-2 1.4-1.5 1.4 0.6 0 2.1-0.6 3.5-1.4 1.4-0.8 2.1-1.4 1.5-1.4-0.5 0-2.1 0.6-3.5 1.4zm94 0.5c0.8 0.5 2 1 2.5 1 0.6 0 0.3-0.5-0.5-1-0.8-0.5-1.9-1-2.5-1-0.5 0-0.3 0.5 0.5 1zm-100.6 2.6c-1.8 1.4-1.8 1.4 0.6 0.3 3.1-1.4 3.6-1.9 2.4-1.9-0.6 0-1.9 0.7-3 1.6zm109.1 1.1c0.6 0.6 2.8 2 5 3.2 2.2 1.3 3.1 1.5 2 0.6-2.2-1.8-8.6-5.3-7-3.8zm-121.6 6.4c-9.2 6.3-20.4 17.2-27.6 26.7-5.3 7.1-14.3 22.6-14.3 24.7 0 0.5 2.1-2.8 4.6-7.4 9.3-17.5 22.6-32.9 36.3-42.2 7.9-5.4 9.8-6.9 9-6.9-0.3 0-3.9 2.3-8 5.1zm138.1 4.5c8 6.7 17.1 16.7 21.9 24.1 6.8 10.5 7.3 11.2 5.5 7.3-4.7-9.8-19.6-27.1-28.4-32.9-2.6-1.7-2.4-1.3 1 1.5zm-76.2 10.1c2.8 0.2 7.6 0.2 10.5 0 2.8-0.2 0.5-0.3-5.3-0.3-5.8 0-8.1 0.1-5.2 0.3zm-9 1c0.6 0.2 1.8 0.2 2.5 0 0.6-0.3 0.1-0.5-1.3-0.5-1.4 0-1.9 0.2-1.2 0.5zm26.5 0c0.9 0.2 2.3 0.2 3 0 0.6-0.3-0.1-0.5-1.8-0.5-1.6 0-2.2 0.2-1.2 0.5zm-31.5 1c0.6 0.2 1.8 0.2 2.5 0 0.6-0.3 0.1-0.5-1.3-0.5-1.4 0-1.9 0.2-1.2 0.5zm42.7 1.7c29.7 9.7 48.5 33.6 51.1 64.8l0.7 7.8h37l-0.6-10.3c-0.6-10.5-2.8-20.8-6.7-31-3.3-8.9-3.3-6.3 0.1 3.2 3.4 9.7 5.9 22.8 5.9 31.2v5.9h-34.7l-0.7-7.8c-2.3-25.5-17.4-48.5-39-59.4-6.8-3.4-16.1-6.8-18.5-6.8-0.9 0.1 1.6 1.1 5.4 2.4zm-46.7-0.7c0.7 0.3 1.6 0.2 1.9-0.1 0.4-0.3-0.2-0.6-1.3-0.5-1.1 0-1.4 0.3-0.6 0.6zm-10.8 3.6c-18 7.9-32.7 22.2-41 40.1-7.4 15.6-7.4 15.4-7.8 61.3l-0.3 41.3 121.3-0.2 121.3-0.3-120.7-0.2-120.8-0.3v-37.5c0-41.2 0.5-46.1 6-59.6 8.1-20.1 23.7-36 42.8-43.9 4.2-1.8 7.9-3.4 8.1-3.6 1.2-1.1-2.2 0-8.9 2.9z"/><path d="m287.6 61.3c0.3 1 0.9 1.5 1.2 1.2 0.3-0.3 0-1.1-0.7-1.8-1-0.9-1.1-0.8-0.5 0.6zm-212.5 18.2c-1.2 3.7-2.1 7.5-2 8.4 0 0.9 1.1-2 2.4-6.4 1.3-4.4 2.2-8.2 2-8.3-0.2-0.2-1.3 2.6-2.4 6.3zm-3.5 13.6c-0.3 1.7-0.5 4.6-0.5 6.3 0.1 1.8 0.5 0.7 1-2.8 0.9-6.3 0.6-8.8-0.5-3.5zm-1.4 49.6l-0.2 40.2-13.2 0.4-13.3 0.3 13.3 0.2c9.9 0.1 13.4-0.1 13.7-1.1 0.3-0.6 0.4-19 0.2-40.7l-0.2-39.5zm-34.3 42.8c-4.5 1.6-11.9 5.4-11.9 6 0 0.3 1.9-0.4 4.3-1.6 2.3-1.3 6.7-3 9.7-4 3-1 4.6-1.8 3.5-1.8-1.1 0-3.6 0.6-5.6 1.4zm312.6-0.5c1.1 0.5 2.7 0.9 3.5 0.9 0.9 0 0.8-0.4-0.5-0.9-1.1-0.5-2.7-0.9-3.5-0.9-0.9 0-0.8 0.4 0.5 0.9zm7.5 2.5c1.4 0.8 3 1.4 3.5 1.4 0.6 0-0.1-0.6-1.5-1.4-1.4-0.8-2.9-1.4-3.5-1.4-0.5 0 0.1 0.6 1.5 1.4zm9 4.1c5.5 3.9 15.7 15.2 18.7 21 6.5 12.2 6.3 9.1 6.4 103.9 0 47.3 0.3 86.8 0.7 87.7 0.6 1.6 0.6-45.6-0.1-141.7-0.2-35.9-0.3-37.2-2.5-42.6-4.6-11.5-14.5-23.9-22.4-28.2-2.8-1.5-3-1.5-0.8-0.1zm-349.5 6.7c-4.5 4.6-7.4 8.6-10.6 15.2l-4.4 9-0.3 93.5c-0.2 66.7 0 95.2 0.8 99.4 3.2 16.3 15 31 31.7 39.5 2.3 1.1 4.7 2.1 5.4 2.1 0.6 0-1.9-1.6-5.7-3.5-11.8-5.9-20.1-13.9-25.6-24.8-6-11.8-5.9-8.6-5.6-111.3l0.3-93.9 2.3-5.6c3.1-7.7 7.6-14.4 14-20.7 2.9-2.8 5-5.2 4.7-5.2-0.4 0-3.5 2.8-7 6.3zm107.8 17.4c39.5 0.2 103.9 0.2 143 0 39.2-0.1 6.9-0.2-71.8-0.2-78.6 0-110.7 0.1-71.2 0.2zm-77.8 1.9c-3.9 2-8.3 6.2-10.1 9.6-2.4 4.6-1.5 4.4 1.5-0.4 3.1-4.8 6.7-7.9 11.6-9.6 1.7-0.6 2.3-1.1 1.5-1.1-0.8-0.1-2.8 0.6-4.5 1.5zm295.8-0.2c5.8 2.1 10.7 6.5 12.9 11.4 2 4.4 2 6.8 2 92.1 0 79.6-0.1 88-1.6 91.6-3.3 7.9-9.3 12.3-18.6 13.6l-5.5 0.8 5.7-0.3c8.3-0.4 14.3-4.4 18.3-12.1l3-5.9v-88c0-84-0.1-88.3-1.9-91.6-3.6-6.8-11.5-13.1-16.3-13-1 0.1-0.1 0.7 2 1.4zm-308.1 16.6c0 1.4 0.2 1.9 0.5 1.2 0.2-0.6 0.2-1.8 0-2.5-0.3-0.6-0.5-0.1-0.5 1.3z"/><path d="m32.5 320.5c0 46.2 0.1 65 0.2 41.7 0.2-23.3 0.2-61.1 0-84-0.1-22.9-0.2-3.9-0.2 42.3zm156.5-53.5c-1.4 0.4 0.5 0.5 4.6 0.2 13.1-0.9 22.6 4.5 28 16.1 2.4 5.1 2.4 5.5 2.4 36.7 0 18.5-0.4 33-1 35.2-0.6 2-2.9 6.1-5.2 9-2.8 3.6-3.2 4.5-1.4 2.8 1.6-1.4 4-4.5 5.4-7l2.7-4.5 0.3-32.9c0.3-29.6 0.1-33.4-1.5-37.9-2.4-6.9-10.2-14.8-16.7-17-5.1-1.8-13.2-2.1-17.6-0.7zm-9.1 4.3c-5.1 3.8-9.6 10-10.4 14.2-0.5 2.4-0.2 2.2 1.4-1.3 3.2-6.8 6-10.2 10.9-13.3 2.5-1.6 4.1-2.9 3.5-2.9-0.6 0-3.1 1.5-5.4 3.3zm-11.5 50.2l0.1 33 3 5.4c4.8 8.7 15.4 15.1 25 15.1 4 0 12.5-2.5 15-4.5 1.1-0.8-0.2-0.5-3 0.7-7 3.2-17.3 3.1-23.7 0-5.6-2.8-10.2-7.2-13.1-12.7-2.1-3.8-2.2-5.7-2.8-37l-0.5-33zm-135.3 86.8c-0.2 3.5 5.1 11.8 9.2 14.5 1.2 0.9 0.6-0.2-1.4-2.4-3.8-4.1-5.7-7.1-7-11.3-0.5-1.7-0.8-2-0.8-0.8zm357.2 2.2c0 2.2 0.2 3 0.4 1.7 0.2-1.2 0.2-3 0-4-0.3-0.9-0.5 0.1-0.4 2.3zm-2.6 10.2c-2.1 7.6-9.7 19-16.2 24.4-8.3 6.8-22.3 12.9-29.9 12.9-1.7 0-3.8 0.4-4.5 0.9-2.3 1.5 6.5 0.2 14.4-2.1 12.7-3.6 22.9-11.1 30.3-22.2 4.8-7.2 8.8-16.4 8-18.7-0.2-0.7-1.1 1.5-2.1 4.8zm-340.2 4.7c1.9 1 5.7 1.5 10.5 1.4l7.5-0.1-8.5-0.7c-4.7-0.4-9.4-1-10.5-1.4-1.1-0.3-0.6 0 1 0.8zm238.3 1.3c0.7 0.3 1.6 0.2 1.9-0.1 0.4-0.3-0.2-0.6-1.3-0.5-1.1 0-1.4 0.3-0.6 0.6zm40.5 0c0.9 0.2 2.3 0.2 3 0 0.6-0.3-0.1-0.5-1.8-0.5-1.6 0-2.2 0.2-1.2 0.5zm-285.5 31c0.7 0.3 1.6 0.2 1.9-0.1 0.4-0.3-0.2-0.6-1.3-0.5-1.1 0-1.4 0.3-0.6 0.6zm3.4 0.9c1 1 40.7 1.3 41.3 0.3 0.4-0.5-7.7-0.9-20.6-0.9-11.7 0-21 0.3-20.7 0.6zm47.1 0c0.9 1 10.1 1.1 30.3 0.4l18.9-0.7-24.9-0.1c-13.7-0.1-24.7 0.1-24.3 0.4zm49.7 0.3c0 0.4 34.4 0.8 76.4 0.7 42-0.1 76.2-0.4 75.9-0.9-0.6-1-152.3-0.9-152.3 0.2zm156 0c1.4 0.4 4.8 0.5 7.5 0.1 4.7-0.7 4.5-0.7-2.5-0.8-4.8 0-6.6 0.2-5 0.7zm14.4-0.2c0.4 0.4 3.6 0.8 7.1 0.8 3.5 0 5.8-0.3 5.2-0.7-1.5-1-13.3-1-12.3-0.1z"/><path d="m170.8 1.7c0.7 0.3 1.6 0.2 1.9-0.1 0.4-0.3-0.2-0.6-1.3-0.5-1.1 0-1.4 0.3-0.6 0.6zm-131.9 220c-1.3 1.6-1.2 1.7 0.4 0.4 0.9-0.7 1.7-1.5 1.7-1.7 0-0.8-0.8-0.3-2.1 1.3zm351.2 182.9c0 1.1 0.3 1.4 0.6 0.6 0.3-0.7 0.2-1.6-0.1-1.9-0.3-0.4-0.6 0.2-0.5 1.3zm-328.3 23.1c0.7 0.3 1.6 0.2 1.9-0.1 0.4-0.3-0.2-0.6-1.3-0.5-1.1 0-1.4 0.3-0.6 0.6zm5 0c0.7 0.3 1.6 0.2 1.9-0.1 0.4-0.3-0.2-0.6-1.3-0.5-1.1 0-1.4 0.3-0.6 0.6zm67 0c35.4 0.2 93 0.2 128 0 35-0.1 6.1-0.2-64.3-0.2-70.4 0-99.1 0.1-63.7 0.2zm241.1 14c-1.3 1.6-1.2 1.7 0.4 0.4 0.9-0.7 1.7-1.5 1.7-1.7 0-0.8-0.8-0.3-2.1 1.3zm-49.9 17c0 0.5 3.1 0.8 6.9 0.8 3.8 0 6.7-0.3 6.4-0.8-0.2-0.4-3.3-0.7-6.9-0.7-3.5 0-6.4 0.3-6.4 0.7zm-275.2 1c0.6 0.2 1.8 0.2 2.5 0 0.6-0.3 0.1-0.5-1.3-0.5-1.4 0-1.9 0.2-1.2 0.5zm13.5 0c0.9 0.2 2.3 0.2 3 0 0.6-0.3-0.1-0.5-1.8-0.5-1.6 0-2.2 0.2-1.2 0.5zm47 0c0.9 0.2 2.5 0.2 3.5 0 0.9-0.3 0.1-0.5-1.8-0.5-1.9 0-2.7 0.2-1.7 0.5zm18.5 0c2.3 0.2 6.1 0.2 8.5 0 2.3-0.2 0.4-0.4-4.3-0.4-4.7 0-6.6 0.2-4.2 0.4zm57 0c0.7 0.3 1.6 0.2 1.9-0.1 0.4-0.3-0.2-0.6-1.3-0.5-1.1 0-1.4 0.3-0.6 0.6zm29.5 0c0.9 0.2 2.3 0.2 3 0 0.6-0.3-0.1-0.5-1.8-0.5-1.6 0-2.2 0.2-1.2 0.5zm16 0c0.9 0.2 2.3 0.2 3 0 0.6-0.3-0.1-0.5-1.8-0.5-1.6 0-2.2 0.2-1.2 0.5z" fill="rgb(85, 85, 85)"/><path d="m265.5 32c1 1.1 2 2 2.3 2 0.3 0-0.3-0.9-1.3-2-1-1.1-2-2-2.3-2-0.3 0 0.3 0.9 1.3 2zm-135.1 23.2l-1.9 2.3 2.3-1.9c2.1-1.8 2.7-2.6 1.9-2.6-0.2 0-1.2 1-2.3 2.2zm-4.5 4.5c-1.3 1.6-1.2 1.7 0.4 0.4 0.9-0.7 1.7-1.5 1.7-1.7 0-0.8-0.8-0.3-2.1 1.3zm171.2 39.9c0 1.1 0.3 1.4 0.6 0.6 0.3-0.7 0.2-1.6-0.1-1.9-0.3-0.4-0.6 0.2-0.5 1.3zm-226 6c0 1.1 0.3 1.4 0.6 0.6 0.3-0.7 0.2-1.6-0.1-1.9-0.3-0.4-0.6 0.2-0.5 1.3zm0.4 39.9c0 20.9 0.1 29.6 0.2 19.3 0.2-10.3 0.2-27.4 0-38-0.1-10.6-0.2-2.2-0.2 18.7z" fill="rgb(170, 170, 170)"/><path d="m103.5 35.2l-5 5.3 5.3-5c4.8-4.6 5.7-5.5 4.9-5.5-0.1 0-2.5 2.4-5.2 5.2zm80.3-1.5c1.2 0.2 3.2 0.2 4.5 0 1.2-0.2 0.2-0.4-2.3-0.4-2.5 0-3.5 0.2-2.2 0.4zm113.3 68.9c0 1.1 0.3 1.4 0.6 0.6 0.3-0.7 0.2-1.6-0.1-1.9-0.3-0.4-0.6 0.2-0.5 1.3zm-34 6c0 1.1 0.3 1.4 0.6 0.6 0.3-0.7 0.2-1.6-0.1-1.9-0.3-0.4-0.6 0.2-0.5 1.3zm-159.8 16.9c0 3.8 0.2 5.3 0.4 3.2 0.2-2 0.2-5.2 0-7-0.2-1.7-0.4-0.1-0.4 3.8zm-0.1 15c0 1.6 0.2 2.2 0.5 1.2 0.2-0.9 0.2-2.3 0-3-0.3-0.6-0.5 0.1-0.5 1.8zm0.1 18.5c0 3.6 0.2 5 0.4 3.2 0.2-1.7 0.2-4.7 0-6.5-0.2-1.7-0.4-0.3-0.4 3.3zm271.7 42.4c0 0.2 0.8 1 1.8 1.7 1.5 1.3 1.6 1.2 0.3-0.4-1.3-1.6-2.1-2.1-2.1-1.3zm-151.6 117.1c0 15.9 0.2 22.3 0.3 14.2 0.2-8.2 0.2-21.2 0-29-0.1-7.8-0.3-1.2-0.3 14.8zm-27.6 55.2c0.7 0.3 1.6 0.2 1.9-0.1 0.4-0.3-0.2-0.6-1.3-0.5-1.1 0-1.4 0.3-0.6 0.6z" fill="rgb(212, 212, 212)"/><path d="m173 1.6c-27.8 3.4-51.1 15.1-70.7 35.7-14.5 15.2-23.6 31.9-28.3 52.4-1.8 7.6-2 12.2-2 51.3v43h-12.2c-14.1 0-22.1 1.6-30.9 6-11.3 5.8-20.6 16.7-25.1 29.7l-2.3 6.8v188l2.3 6.5c6.6 18.3 22.8 32.6 40.7 36 4.4 0.8 46.7 1 154 0.8l148-0.3 5.5-2.1c18.3-7 28.6-17 34.8-33.7l2.7-7.2v-186l-2.3-6.7c-2.9-8.3-8.5-17.1-14.8-23.2-5.9-5.7-10.9-8.7-19.4-11.8l-6.5-2.3-121.5-0.5-121.5-0.5 0.1-39.5c0.1-45.1 0.4-47.5 8.8-64.5 8.1-16.3 20.8-29.1 37.1-37 23.7-11.6 50-12.1 72.1-1.3 8.8 4.3 19.1 12.3 24.6 19.2 9.2 11.5 16.8 29.9 16.8 41 0 9.1-1 8.6 18.1 8.6h16.8l-0.5-6.8c-2.2-27.7-11-48.7-28.1-67.3-13.9-15-39.6-29.3-58.4-32.4-2.4-0.4-5.3-0.9-6.4-1.2-2.9-0.6-27.4-1.2-31.5-0.7zm167.9 214.4c6.2 1.6 12 6.5 14.7 12.3l2.4 5.2v87.6c0 96.3 0.3 91-6.2 98.4-1.7 2-5 4.6-7.2 5.8l-4.1 2.2h-291l-4.1-2.2c-5.3-2.8-10.7-9.1-12.2-14.2-1.7-5.5-1.7-174.7 0-180.2 1.4-5 6.7-11.1 11.5-13.5 3.3-1.7 7-2 30.8-2.4 48.8-0.9 261.3-0.1 265.4 1z" fill="rgb(255, 255, 255)"/><path d="m187.2 268.8c-6.3 2.3-12.2 7.7-15.4 14.1-2.3 4.5-2.3 5.3-2.3 37.1v32.5l2.8 5.7c4.7 9.6 13.4 14.8 24.9 14.8 11.8 0 22.6-7.9 25.2-18.5 0.4-1.6 0.7-17.5 0.6-35.4-0.1-35.7 0-35.2-6.5-42.9-6.8-7.8-19.2-11-29.3-7.4z" fill="rgb(255, 255, 255)"/><path d="m55.8 427.7c0.7 0.3 1.6 0.2 1.9-0.1 0.4-0.3-0.2-0.6-1.3-0.5-1.1 0-1.4 0.3-0.6 0.6z" fill="rgb(128, 128, 128)"/><path d="m356.1 281.6c0 1.1 0.3 1.4 0.6 0.6 0.3-0.7 0.2-1.6-0.1-1.9-0.3-0.4-0.6 0.2-0.5 1.3zm-270.7 177.6c-0.3 0.4 1.1 0.7 3.1 0.6 1.9-0.1 3.2-0.4 2.9-0.7-0.8-0.9-5.5-0.8-6 0.1zm207.2-0.4c-0.2 0.4 0.7 0.9 2.2 1 2.1 0.1 2.4 0 1.2-0.8-1.8-1.2-2.7-1.2-3.4-0.2zm14.9 0.2c-1.7 0.7-1.4 0.9 1.3 0.9 2 0.1 3.1-0.3 2.7-0.9-0.7-1.2-1.3-1.2-4 0zm15 0c-0.3 0.6 0.1 0.7 0.9 0.4 1.8-0.7 2.1-1.4 0.7-1.4-0.6 0-1.3 0.4-1.6 1zm-170.7 0.7c0.7 0.3 1.6 0.2 1.9-0.1 0.4-0.3-0.2-0.6-1.3-0.5-1.1 0-1.4 0.3-0.6 0.6zm93.5 0c0.9 0.2 2.5 0.2 3.5 0 0.9-0.3 0.1-0.5-1.8-0.5-1.9 0-2.7 0.2-1.7 0.5zm56.5 0c0.6 0.2 1.8 0.2 2.5 0 0.6-0.3 0.1-0.5-1.3-0.5-1.4 0-1.9 0.2-1.2 0.5z" fill="rgb(0, 0, 85)"/><path d="m356.1 361.6c0 1.1 0.3 1.4 0.6 0.6 0.3-0.7 0.2-1.6-0.1-1.9-0.3-0.4-0.6 0.2-0.5 1.3z" fill="rgb(0, 85, 85)"/><path d="m103.1 166.6c0 1.1 0.3 1.4 0.6 0.6 0.3-0.7 0.2-1.6-0.1-1.9-0.3-0.4-0.6 0.2-0.5 1.3z" fill="rgb(212, 212, 255)"/><path d="m58.8 427.7c0.7 0.3 1.6 0.2 1.9-0.1 0.4-0.3-0.2-0.6-1.3-0.5-1.1 0-1.4 0.3-0.6 0.6z" fill="rgb(85, 85, 128)"/></svg>