<svg xmlns="http://www.w3.org/2000/svg" viewBox="0 0 2816 2816"><g stroke-width="0"><path d="M1599.6 1191.6c-19.1 4.6-36.3 20.2-42.5 38.5-4.5 13.4-3.5 32.8 2.3 44.1l2.4 4.6-19.1 15.5c-26.4 21.2-44 35.5-65.2 52.7-18.1 14.7-53.3 43-96 76.9-12.6 10.1-26.8 21.4-31.5 25.1-4.7 3.8-19.7 15.8-33.5 26.8l-24.9 19.9-3.6-2.3c-7.8-5.1-16.8-7.7-29-8.2-13.4-.5-19.9.6-29 4.9-15 7.1-26.1 19.6-31.7 35.6-2.2 6.6-2.7 9.5-2.7 18.3 0 11.8 1 16.3 6.1 27 2.8 5.8 5.4 9.3 11.7 15.5 13 12.8 24.6 17.5 43.4 17.5 8.3 0 11.8-.5 17.6-2.4 21.2-7.2 36-22.8 41.2-43.6 2.2-8.7 1.5-25.4-1.3-32.7l-2.1-5.2 16.2-13.3c8.8-7.3 19.7-16.3 24.1-19.8 4.4-3.6 8.2-6.8 8.5-7.1s9.7-8 21-17c11.3-9.1 26.9-21.7 34.6-28 7.8-6.3 25.6-20.6 39.5-31.9 14-11.2 34.2-27.6 44.9-36.4 31.6-25.8 48.5-39.7 64.9-53l15.3-12.4 6.7 3.2c24 11.9 50.4 7 69.9-13.2 17-17.6 21-44.9 10-68.1-4.5-9.6-16.9-21.7-27-26.5-13.2-6.3-28.2-8.1-41.2-5m25.7.9c13.6 2.9 26.1 10.3 34.2 20.4 6.6 8.2 9.1 13.2 11.6 22.8 2.4 9.7 2.4 17.6-.1 28.2-2.8 11.7-7.1 19.2-16 28.1-12.1 12.1-24.3 17.3-40.5 17.3-10.5 0-19.6-2.1-27.4-6.3l-5.5-3-3.7 2.6c-2 1.4-9 6.9-15.6 12.3-30.5 25-84.8 69.3-103.5 84.4-11.3 9.2-23.6 19-27.1 21.9-3.6 2.9-14.3 11.6-23.9 19.3-24.5 19.8-93.1 75.7-95.6 78-1.1 1-.9 2.3.8 7.5 9.2 27.2-3.9 58-30 70.7-10 4.9-16.2 6.3-27.2 6.3-33.1 0-59.2-26.1-59.1-59 0-26.2 18.4-49.8 43.9-56.5 6.8-1.8 21.1-2 28.6-.4 5.8 1.2 19.1 7 20.2 8.8.4.6 1.1 1.1 1.6 1.1s18.2-13.8 39.4-30.8c21.1-16.9 55.7-44.4 76.7-61.2 21.1-16.8 49.4-39.4 62.9-50.4 31.6-25.5 53.8-43.5 72.5-58.6 8.3-6.6 16.3-13.2 17.8-14.5l2.8-2.4-1.9-3.8c-11-21.6-6.4-49.4 11.2-66.8 14.5-14.4 33.5-20.1 52.9-16"/><path d="M1603.5 1219.7c-16.4 5.9-24.9 24-19.1 41.1 2.4 7 9.9 15.2 16.8 18.3 7.9 3.5 18.4 3.3 26-.4 7.2-3.5 14.1-11.1 16.4-17.9 3.8-11.4.3-25.7-8.3-34-7.9-7.7-21.6-10.7-31.8-7.1m22.8 2.6c6.6 3 11.6 7.9 14.8 14.3 3.4 6.9 3.5 20.9.1 27.1-5.5 10.5-16 16.8-27.7 16.6-16.2-.2-28.1-11.6-29.2-28.1-.6-8.2.7-13.5 5-19.8 8.2-12.2 23.4-16.4 37-10.1m-381 292.5c-17.9 6.4-26.3 26.4-17.9 42.9 11.8 23.4 44.6 24.1 57 1.2 4.1-7.3 4.7-17.1 1.6-25.2-2.6-7-10-14.9-16.7-17.9s-17.3-3.4-24-1m23.5 2.2c10.4 4.5 18.2 16.3 18.2 27.8 0 10.8-8 22.8-18.2 27.3-8.1 3.5-18.5 3.3-26.1-.6-11.1-5.5-17-15-17.1-27-.1-22.2 22.3-36.5 43.2-27.5"/></g><path fill="gray" d="M1196.2 1544c0 1.4.2 1.9.5 1.2.2-.6.2-1.8 0-2.5-.3-.6-.5-.1-.5 1.3"/><path fill="#aaa" d="M1655 1208.4c0 .2.8 1 1.8 1.7 1.5 1.3 1.6 1.2.3-.4s-2.1-2.1-2.1-1.3m-18.5 19.6c1 1.1 2 2 2.3 2s-.3-.9-1.3-2-2-2-2.3-2 .3.9 1.3 2"/><path fill="#d4d4d4" d="M1611.3 1191.7c.9.2 2.3.2 3 0 .6-.3-.1-.5-1.8-.5-1.6 0-2.2.2-1.2.5m25.1 80.5-1.9 2.3 2.3-1.9c2.1-1.8 2.7-2.6 1.9-2.6-.2 0-1.2 1-2.3 2.2m-44.4 1.2c0 .2.8 1 1.8 1.7 1.5 1.3 1.6 1.2.3-.4s-2.1-2.1-2.1-1.3m-281.5 245.7c-.4.6-.5 1.2-.2 1.5.2.3.7-.2 1-1.1.7-1.7.1-2-.8-.4"/><path fill="#555" d="M1645.2 1250c0 1.4.2 1.9.5 1.2.2-.6.2-1.8 0-2.5-.3-.6-.5-.1-.5 1.3M1212 1586.4c0 .2.8 1 1.8 1.7 1.5 1.3 1.6 1.2.3-.4s-2.1-2.1-2.1-1.3m44.8 18.3c.6.2 1.8.2 2.5 0 .6-.3.1-.5-1.3-.5s-1.9.2-1.2.5"/><path fill="#fff" d="M1595.9 1194.3c-19.3 6.6-33.8 22.1-38.5 41-2.6 10.8-1.6 25.8 2.6 35.9 1.7 4.3 2.9 8.2 2.6 8.7s-8.4 7.1-17.8 14.7c-9.5 7.7-25.9 20.9-36.3 29.4-10.5 8.5-20.8 16.8-22.9 18.5-2.2 1.6-8.9 7-14.9 12-6.1 4.9-14.9 12.1-19.6 15.8s-9.5 7.6-10.6 8.5c-2 1.7-14.4 11.5-50.5 40.3-10.7 8.6-36.4 29-56.9 45.5-20.6 16.4-38.3 30.5-39.4 31.2-1.6 1.2-2.8.9-10-2.7-13.4-6.8-25.9-8.5-40.2-5.6-9.1 1.9-16.5 5.1-23 10-23 17.2-30.1 48.2-16.8 73.8 7.4 14.2 20.1 24.6 35.8 29.3 9 2.7 24.9 2.6 34-.3 21.8-6.9 36.7-23.6 41.1-46.1 1.4-7 1.4-9.6.4-17-.7-4.8-2.1-10.7-3.1-13.2-1.9-4.3-1.9-4.5-.2-5.8 1-.7 10.9-8.8 22.1-18 24.6-20.2 47.4-38.7 80.7-65.5 13.8-11 30-24.2 36-29.2 6.1-5 16.6-13.6 23.4-19.1 6.8-5.4 14.4-11.5 16.7-13.4 10.2-8.3 38.9-31.8 42.8-35 14.4-11.7 31.3-25.4 39.1-31.7l9-7.2 3.1 1.9c1.7 1.1 6.2 3.2 10 4.7 6.2 2.4 8.2 2.7 19.4 2.7 10.5 0 13.4-.3 18.4-2.2 30.5-11.3 46.8-43.6 37.2-73.7-2.9-9.1-6.6-15.5-13.2-22.5-5.5-5.8-13.8-11.5-15.5-10.4q-1.05.6-.6-.3c.8-1.2-7.3-4.7-14.3-6.3-8.3-1.8-22.8-1.2-30.1 1.3m31.1 26.1c7 3.7 11.8 8.5 15.2 15.3 2.8 5.8 3.3 7.7 3.3 14.3s-.5 8.5-3.3 14.3c-5.5 11-16.1 17.7-28.3 17.7-12 0-22.9-6.8-28.4-17.6-2.6-5.2-3-6.9-3-14.4.1-6.4.6-9.6 2.2-13.1 3.6-8 11.7-15.6 19.1-18 4.6-1.4 19.3-.5 23.2 1.5m-359.7 294.3c2.9.9 6.8 3.4 10.2 6.4 14.3 13.2 14.9 31.9 1.3 45.8-5.6 5.8-11.5 8.2-20.8 8.8-10.6.7-17.5-2-25.2-9.9-6.6-6.7-9.1-13.1-8.9-23.1.2-14.6 12.2-27.5 27.5-29.7 5.8-.8 9.1-.4 15.9 1.7"/></svg>