<svg xmlns="http://www.w3.org/2000/svg" viewBox="0 0 2816 2816"><path fill="#555" d="M1404.6 1022.9c-.4.5.3.7 1.4.4 2.3-.6 2.6-1.3.6-1.3-.8 0-1.7.4-2 .9m16.6 142.3c0 72.8.4 130.5.8 128.3 1.2-5.9 1.3-259.2.1-260-.7-.3-1 46-.9 131.7m-16.7 164.8c.8 1.3 4.5 1.3 6.5 0 1.1-.7.3-1-2.8-1-2.6 0-4.1.4-3.7 1m-35.1 15.2-1.9 2.3 2.3-1.9c2.1-1.8 2.7-2.6 1.9-2.6-.2 0-1.2 1-2.3 2.2m-47.9 30.8c-.3.5-.1 1 .4 1 .6 0 1.1-.5 1.1-1 0-.6-.2-1-.4-1-.3 0-.8.4-1.1 1m139.5 3.1c0 .5.5.7 1 .4.6-.3 1-.8 1-1.1 0-.2-.4-.4-1-.4-.5 0-1 .5-1 1.1m-39.4 89.6c-1.1 1.1-.7 315.5.5 314.7.7-.4.9-53.1.8-158-.1-86.6-.2-157.4-.4-157.4-.1 0-.5.3-.9.7M1406 1795c0 .5.6 1 1.4 1s1.8-.5 2.1-1c.3-.6-.3-1-1.4-1-1.2 0-2.1.4-2.1 1"/><g stroke-width="0"><path d="M1408.8 1022.7c.7.3 1.6.2 1.9-.1.4-.3-.2-.6-1.3-.5-1.1 0-1.4.3-.6.6m4.7 1.5c1.1.6 3.2 2.2 4.8 3.6 1.5 1.4 2.7 2.2 2.7 1.8 0-1.3-6.4-6.6-8-6.6-1.1.1-.9.4.5 1.2m-17.4 3.3-3.1 3.6.2 134.2.3 134.2.5-134.8.5-134.9 3.3-2.9c1.8-1.6 2.8-2.9 2.3-2.9s-2.3 1.6-4 3.5m24.9 271c0 .8.4 1.5 1 1.5.5 0 .7-.7.4-1.5-.4-.8-.8-1.5-1-1.5s-.4.7-.4 1.5m-41 3.4c-5.7 1.8-14 5.8-14 6.6 0 .3 1.9-.5 4.3-1.7 2.3-1.2 7.6-3.2 11.7-4.4 4.1-1.3 6.6-2.3 5.5-2.3s-4.5.8-7.5 1.8m45.8-1.2c.7.3 1.6.2 1.9-.1.4-.3-.2-.6-1.3-.5-1.1 0-1.4.3-.6.6m3.3.7c.2.2 1.8.6 3.4 1 2.2.5 2.6.4 1.5-.4-1.4-.9-5.9-1.5-4.9-.6m7.9 2.6c.8.5 2 1 2.5 1 .6 0 .3-.5-.5-1s-1.9-1-2.5-1c-.5 0-.3.5.5 1m9.7 4.4c24.9 13.4 42.1 36.9 46.6 63.6l.4 2.5.2-2.5c.2-3.8-3.6-16.5-6.9-23.2-6.4-12.8-15.6-24.3-26-32.3-5.7-4.4-17.9-11.5-19.6-11.5-.5 0 1.9 1.5 5.3 3.4m-86.5 3.3c-19.6 13.2-35.5 37.9-37.6 58.3-.5 4.5-.3 4 1.3-3 2.5-11.4 6.6-20.9 12.8-30 5.4-8 17.1-19.9 24.1-24.5 3.8-2.5 4.9-3.5 3.9-3.5-.2 0-2.2 1.2-4.5 2.7m32.4 19.9c-2.6.9-4.6 1.7-4.4 2 .3.2 1.9-.1 3.6-.7s5.2-1.4 7.9-1.9c4.1-.7 4.3-.8 1.3-.8-1.9 0-5.7.6-8.4 1.4m20.2-.9c1.2.2 3 .2 4 0 .9-.3-.1-.5-2.3-.4-2.2 0-3 .2-1.7.4m7 1c.7.3 1.6.2 1.9-.1.4-.3-.2-.6-1.3-.5-1.1 0-1.4.3-.6.6m7.2 2.3c.8.5 2 1 2.5 1 .6 0 .3-.5-.5-1s-1.9-1-2.5-1c-.5 0-.3.5.5 1m-44.2 1.6c-3.9 2.1-3.5 2.8.5.8 3.7-1.9 4.4-2.4 3.1-2.4-.5.1-2.1.8-3.6 1.6m48.2-.1c0 .2 1.9 1.4 4.1 2.6 9.1 4.6 19.1 16.5 23.5 28 1.4 3.5 2.2 5 1.9 3.4-2.3-11.1-13-25.1-24.4-32.2-3.6-2.2-5.1-2.8-5.1-1.8m-60.5 9.7c-12.2 12.3-17.1 24.9-16.2 41.8.7 14.5 6.2 26.8 16.3 36.4 4.1 4 16 11.3 16.9 10.4.2-.2-2.1-1.7-5.2-3.3-16.7-8.7-27.3-26.8-27.3-46.5 0-15.4 5.3-27.6 16.7-38.8 4.1-3.9 7.1-7.2 6.7-7.2-.3 0-3.9 3.3-7.9 7.2m90.7 30.3c0 1.6.2 2.2.5 1.2.2-.9.2-2.3 0-3-.3-.6-.5.1-.5 1.8m33 5.5c-.1 3.6-.4 9-.7 12l-.4 5.5 1-5.5c.5-3 .8-8.4.6-12l-.3-6.5zm-172.9 2c0 3.6.2 5 .4 3.2.2-1.7.2-4.7 0-6.5-.2-1.7-.4-.3-.4 3.3m141 1c0 3 .2 4.3.4 2.7.2-1.5.2-3.9 0-5.5-.2-1.5-.4-.2-.4 2.8m-1.2 8c-.1 1.4-.4 3.6-.6 5l-.6 2.5 1.1-2.5c.6-1.3.9-3.6.7-5l-.4-2.5zm-138.8 2.5c0 2.2.2 3 .4 1.7.2-1.2.2-3 0-4-.3-.9-.5.1-.4 2.3m1.3 8c.8 5.6 5.7 17.8 10.1 25.5 7.4 12.5 22.9 26.8 37 33.9 6 3 20.2 7.5 21.1 6.7.2-.3-1.6-1-3.9-1.6-8.8-2.2-11.5-3.3-18.7-7.1-22-11.7-36.3-29.2-43.9-53.8-1.4-4.5-2.1-6-1.7-3.6m168.5-2c-.1 1.1-.4 3.1-.6 4.5l-.6 2.5 1.1-2.5c.6-1.3.9-3.3.7-4.5-.4-1.9-.4-1.9-.6 0m-33 .4c-.1.7-1.4 4.1-3 7.5-3.8 7.8-12.8 16.9-21.8 21.8-3.7 2.1-6.4 3.8-5.9 3.8 2.7 0 14-7.4 19.2-12.6 6.1-6.1 13.1-18.1 12-20.7-.3-.8-.5-.8-.5.2m29 13.2c-.6 1.8-.9 3.4-.7 3.6s.9-1 1.5-2.8.9-3.4.7-3.6-.9 1-1.5 2.8m-3 7.6c-1 2.6-1 2.7.4.9.8-1.1 1.5-2.3 1.5-2.8 0-1.5-.7-.8-1.9 1.9"/><path d="M1479.2 1431.4c-2.3 3.5-8.3 10.3-13.4 15.2s-7.9 7.9-6.3 6.7c8.5-6 16.6-14.9 22.4-24.6 3.7-6.1 1.7-4.2-2.7 2.7m-89.1 3.6c.9.5 3.6 1.2 6 1.5 4.2.5 4.1.4-1.1-1-6.5-1.7-7-1.7-4.9-.5m27.7 1.7c.6.2 1.8.2 2.5 0 .6-.3.1-.5-1.3-.5s-1.9.2-1.2.5m-13.5 1c2 .2 5.4.2 7.5 0 2-.2.3-.4-3.8-.4s-5.8.2-3.7.4m45.7 20.8c-3 1.9-5.2 3.5-4.9 3.5 1.1 0 9.8-5.1 10.4-6.1.9-1.4.5-1.2-5.5 2.6m-11 5.5c-.8.5-1 1-.5 1 .6 0 1.7-.5 2.5-1s1.1-1 .5-1c-.5 0-1.7.5-2.5 1m-13.5 4c-2.5 1.1.1 1.1 3.5 0 2-.6 2.1-.8.5-.8-1.1 0-2.9.3-4 .8m-32.2 158.5c-.2 87.4.1 159.5.5 160.2.6 1 .6-157.7-.1-274.2-.1-24.8-.3 26.5-.4 114m27.7 158.8c0 2.4-4.3 6.9-8.1 8.4-3 1.2-3.1 1.3-.5.8 1.6-.4 3.9-1.4 5.2-2.3 2.5-1.8 5.1-6.9 4-7.9-.3-.3-.6.1-.6 1m-25.1 5c1.6 2.1 6.3 4.7 8.3 4.7.7-.1-.3-.8-2.2-1.6s-4.3-2.3-5.5-3.2c-1.9-1.6-1.9-1.6-.6.1"/></g><path fill="gray" d="M1421.2 1037c0 1.9.2 2.7.5 1.7.2-.9.2-2.5 0-3.5-.3-.9-.5-.1-.5 1.8m1 258.5c0 1.6.2 2.2.5 1.2.2-.9.2-2.3 0-3-.3-.6-.5.1-.5 1.8m-1 483.5c0 1.9.2 2.7.5 1.7.2-.9.2-2.5 0-3.5-.3-.9-.5-.1-.5 1.8"/><path fill="#aaa" d="M1407.3 1023.7c.9.2 2.3.2 3 0 .6-.3-.1-.5-1.8-.5-1.6 0-2.2.2-1.2.5m60.2 300.3c1 1.1 2 2 2.3 2s-.3-.9-1.3-2-2-2-2.3-2 .3.9 1.3 2m25.6 54.6c0 1.1.3 1.4.6.6.3-.7.2-1.6-.1-1.9-.3-.4-.6.2-.5 1.3m-170.8 4.4c0 3 .2 4.3.4 2.7.2-1.5.2-3.9 0-5.5-.2-1.5-.4-.2-.4 2.8"/><path fill="#fff" d="M1399.3 1026.2c-1.8 1.3-3.7 3.6-4.3 5.2-.7 1.9-1 47.4-1 135.7V1300l-2.7.5c-34.1 7.3-59.3 32.5-66.8 66.8-2.7 12.5-1.8 29.5 2.4 41.7 3.2 9.4 8.8 20.9 11.6 23.7.8.8 1.5 1.7 1.5 2.1 0 1.2 7.2 8.5 14.1 14.3 10.5 8.9 20.8 14.1 35.7 17.9l4.2 1.1v157.5c0 134.8.2 158 1.4 160.9 1.8 4.3 6.9 7.5 12 7.5 4.7 0 11-3.4 12.5-6.7.8-1.7 1.1-47.4 1.1-160.7v-158.3l5.8-1.2c26.9-5.9 50.4-26.4 60.7-53 4.1-10.7 5.5-18.4 5.5-31.7 0-20.7-7.7-39.2-23.5-56.2-9.9-10.7-29.5-22.1-42.5-24.5l-6-1.2v-267.9l-2.2-3.3c-3.9-5.7-13.6-7.2-19.5-3.1m19.3 303.9c19.4 3.5 37.7 20.8 42.8 40.5 6.6 25.6-5.7 51.1-30.1 62.6-8.4 4-9.3 4.2-20.4 4.6-13.3.5-19.2-.8-30-6.4-16.8-8.9-27.3-27-27.3-47.4 0-15.4 5.4-28.3 16.3-39 13.4-13.2 30.1-18.3 48.7-14.9"/><path fill="#d4d4d4" d="M1342.9 1328.7c-1.3 1.6-1.2 1.7.4.4.9-.7 1.7-1.5 1.7-1.7 0-.8-.8-.3-2.1 1.3m10.3 52.8c0 1.6.2 2.2.5 1.2.2-.9.2-2.3 0-3-.3-.6-.5.1-.5 1.8m140 5c0 1.6.2 2.2.5 1.2.2-.9.2-2.3 0-3-.3-.6-.5.1-.5 1.8m-140 .5c0 1.4.2 1.9.5 1.2.2-.6.2-1.8 0-2.5-.3-.6-.5-.1-.5 1.3"/><path fill="#555580" d="M1422.1 1262.6c0 1.1.3 1.4.6.6.3-.7.2-1.6-.1-1.9-.3-.4-.6.2-.5 1.3"/></svg>