<svg xmlns="http://www.w3.org/2000/svg" viewBox="0 0 174 774" width="32" height="32"><path d="m83.6 0.9c-0.4 0.5 0.3 0.7 1.4 0.4 2.3-0.6 2.6-1.3 0.6-1.3-0.8 0-1.7 0.4-2 0.9zm16.6 142.3c0 72.8 0.4 130.5 0.8 128.3 1.2-5.9 1.3-259.2 0.1-260-0.7-0.3-1 46-0.9 131.7zm-16.7 164.8c0.8 1.3 4.5 1.3 6.5 0 1.1-0.7 0.3-1-2.8-1-2.6 0-4.1 0.4-3.7 1zm-35.1 15.2l-1.9 2.3 2.3-1.9c2.1-1.8 2.7-2.6 1.9-2.6-0.2 0-1.2 1-2.3 2.2zm-47.9 30.8c-0.3 0.5-0.1 1 0.4 1 0.6 0 1.1-0.5 1.1-1 0-0.6-0.2-1-0.4-1-0.3 0-0.8 0.4-1.1 1zm139.5 3.1c0 0.5 0.5 0.7 1 0.4 0.6-0.3 1-0.8 1-1.1 0-0.2-0.4-0.4-1-0.4-0.5 0-1 0.5-1 1.1zm-39.4 89.6c-1.1 1.1-0.7 315.5 0.5 314.7 0.7-0.4 0.9-53.1 0.8-158-0.1-86.6-0.2-157.4-0.4-157.4-0.1 0-0.5 0.3-0.9 0.7zm-15.6 326.3c0 0.5 0.6 1 1.4 1 0.8 0 1.8-0.5 2.1-1 0.3-0.6-0.3-1-1.4-1-1.2 0-2.1 0.4-2.1 1z" fill="rgb(85, 85, 85)"/><path d="m87.8 0.7c0.7 0.3 1.6 0.2 1.9-0.1 0.4-0.3-0.2-0.6-1.3-0.5-1.1 0-1.4 0.3-0.6 0.6zm4.7 1.5c1.1 0.6 3.2 2.2 4.8 3.6 1.5 1.4 2.7 2.2 2.7 1.8 0-1.3-6.4-6.6-8-6.6-1.1 0.1-0.9 0.4 0.5 1.2zm-17.4 3.3l-3.1 3.6 0.2 134.2 0.3 134.2 0.5-134.8 0.5-134.9 3.3-2.9c1.8-1.6 2.8-2.9 2.3-2.9-0.5 0-2.3 1.6-4 3.5zm24.9 271c0 0.8 0.4 1.5 1 1.5 0.5 0 0.7-0.7 0.4-1.5-0.4-0.8-0.8-1.5-1-1.5-0.2 0-0.4 0.7-0.4 1.5zm-41 3.4c-5.7 1.8-14 5.8-14 6.6 0 0.3 1.9-0.5 4.3-1.7 2.3-1.2 7.6-3.2 11.7-4.4 4.1-1.3 6.6-2.3 5.5-2.3-1.1 0-4.5 0.8-7.5 1.8zm45.8-1.2c0.7 0.3 1.6 0.2 1.9-0.1 0.4-0.3-0.2-0.6-1.3-0.5-1.1 0-1.4 0.3-0.6 0.6zm3.3 0.7c0.2 0.2 1.8 0.6 3.4 1 2.2 0.5 2.6 0.4 1.5-0.4-1.4-0.9-5.9-1.5-4.9-0.6zm7.9 2.6c0.8 0.5 2 1 2.5 1 0.6 0 0.3-0.5-0.5-1-0.8-0.5-1.9-1-2.5-1-0.5 0-0.3 0.5 0.5 1zm9.7 4.4c24.9 13.4 42.1 36.9 46.6 63.6l0.4 2.5 0.2-2.5c0.2-3.8-3.6-16.5-6.9-23.2-6.4-12.8-15.6-24.3-26-32.3-5.7-4.4-17.9-11.5-19.6-11.5-0.5 0 1.9 1.5 5.3 3.4zm-86.5 3.3c-19.6 13.2-35.5 37.9-37.6 58.3-0.5 4.5-0.3 4 1.3-3 2.5-11.4 6.6-20.9 12.8-30 5.4-8 17.1-19.9 24.1-24.5 3.8-2.5 4.9-3.5 3.9-3.5-0.2 0-2.2 1.2-4.5 2.7zm32.4 19.9c-2.6 0.9-4.6 1.7-4.4 2 0.3 0.2 1.9-0.1 3.6-0.7 1.7-0.6 5.2-1.4 7.9-1.9 4.1-0.7 4.3-0.8 1.3-0.8-1.9 0-5.7 0.6-8.4 1.4zm20.2-0.9c1.2 0.2 3 0.2 4 0 0.9-0.3-0.1-0.5-2.3-0.4-2.2 0-3 0.2-1.7 0.4zm7 1c0.7 0.3 1.6 0.2 1.9-0.1 0.4-0.3-0.2-0.6-1.3-0.5-1.1 0-1.4 0.3-0.6 0.6zm7.2 2.3c0.8 0.5 2 1 2.5 1 0.6 0 0.3-0.5-0.5-1-0.8-0.5-1.9-1-2.5-1-0.5 0-0.3 0.5 0.5 1zm-44.2 1.6c-3.9 2.1-3.5 2.8 0.5 0.8 3.7-1.9 4.4-2.4 3.1-2.4-0.5 0.1-2.1 0.8-3.6 1.6zm48.2-0.1c0 0.2 1.9 1.4 4.1 2.6 9.1 4.6 19.1 16.5 23.5 28 1.4 3.5 2.2 5 1.9 3.4-2.3-11.1-13-25.1-24.4-32.2-3.6-2.2-5.1-2.8-5.1-1.8zm-60.5 9.7c-12.2 12.3-17.1 24.9-16.2 41.8 0.7 14.5 6.2 26.8 16.3 36.4 4.1 4 16 11.3 16.9 10.4 0.2-0.2-2.1-1.7-5.2-3.3-16.7-8.7-27.3-26.8-27.3-46.5 0-15.4 5.3-27.6 16.7-38.8 4.1-3.9 7.1-7.2 6.7-7.2-0.3 0-3.9 3.3-7.9 7.2zm90.7 30.3c0 1.6 0.2 2.2 0.5 1.2 0.2-0.9 0.2-2.3 0-3-0.3-0.6-0.5 0.1-0.5 1.8zm33 5.5c-0.1 3.6-0.4 9-0.7 12l-0.4 5.5 1-5.5c0.5-3 0.8-8.4 0.6-12l-0.3-6.5zm-172.9 2c0 3.6 0.2 5 0.4 3.2 0.2-1.7 0.2-4.7 0-6.5-0.2-1.7-0.4-0.3-0.4 3.3zm141 1c0 3 0.2 4.3 0.4 2.7 0.2-1.5 0.2-3.9 0-5.5-0.2-1.5-0.4-0.2-0.4 2.8zm-1.2 8c-0.1 1.4-0.4 3.6-0.6 5l-0.6 2.5 1.1-2.5c0.6-1.3 0.9-3.6 0.7-5l-0.4-2.5zm-138.8 2.5c0 2.2 0.2 3 0.4 1.7 0.2-1.2 0.2-3 0-4-0.3-0.9-0.5 0.1-0.4 2.3zm1.3 8c0.8 5.6 5.7 17.8 10.1 25.5 7.4 12.5 22.9 26.8 37 33.9 6 3 20.2 7.5 21.1 6.7 0.2-0.3-1.6-1-3.9-1.6-8.8-2.2-11.5-3.3-18.7-7.1-22-11.7-36.3-29.2-43.9-53.8-1.4-4.5-2.1-6-1.7-3.6zm168.5-2c-0.1 1.1-0.4 3.1-0.6 4.5l-0.6 2.5 1.1-2.5c0.6-1.3 0.9-3.3 0.7-4.5-0.4-1.9-0.4-1.9-0.6 0zm-33 0.4c-0.1 0.7-1.4 4.1-3 7.5-3.8 7.8-12.8 16.9-21.8 21.8-3.7 2.1-6.4 3.8-5.9 3.8 2.7 0 14-7.4 19.2-12.6 6.1-6.1 13.1-18.1 12-20.7-0.3-0.8-0.5-0.8-0.5 0.2zm29 13.2c-0.6 1.8-0.9 3.4-0.7 3.6 0.2 0.2 0.9-1 1.5-2.8 0.6-1.8 0.9-3.4 0.7-3.6-0.2-0.2-0.9 1-1.5 2.8zm-3 7.6c-1 2.6-1 2.7 0.4 0.9 0.8-1.1 1.5-2.3 1.5-2.8 0-1.5-0.7-0.8-1.9 1.9z"/><path d="m158.2 409.4c-2.3 3.5-8.3 10.3-13.4 15.2-5.1 4.9-7.9 7.9-6.3 6.7 8.5-6 16.6-14.9 22.4-24.6 3.7-6.1 1.7-4.2-2.7 2.7zm-89.1 3.6c0.9 0.5 3.6 1.2 6 1.5 4.2 0.5 4.1 0.4-1.1-1-6.5-1.7-7-1.7-4.9-0.5zm27.7 1.7c0.6 0.2 1.8 0.2 2.5 0 0.6-0.3 0.1-0.5-1.3-0.5-1.4 0-1.9 0.2-1.2 0.5zm-13.5 1c2 0.2 5.4 0.2 7.5 0 2-0.2 0.3-0.4-3.8-0.4-4.1 0-5.8 0.2-3.7 0.4zm45.7 20.8c-3 1.9-5.2 3.5-4.9 3.5 1.1 0 9.8-5.1 10.4-6.1 0.9-1.4 0.5-1.2-5.5 2.6zm-11 5.5c-0.8 0.5-1 1-0.5 1 0.6 0 1.7-0.5 2.5-1 0.8-0.5 1.1-1 0.5-1-0.5 0-1.7 0.5-2.5 1zm-13.5 4c-2.5 1.1 0.1 1.1 3.5 0 2-0.6 2.1-0.8 0.5-0.8-1.1 0-2.9 0.3-4 0.8zm-32.2 158.5c-0.2 87.4 0.1 159.5 0.5 160.2 0.6 1 0.6-157.7-0.1-274.2-0.1-24.8-0.3 26.5-0.4 114zm27.7 158.8c0 2.4-4.3 6.9-8.1 8.4-3 1.2-3.1 1.3-0.5 0.8 1.6-0.4 3.9-1.4 5.2-2.3 2.5-1.8 5.1-6.9 4-7.9-0.3-0.3-0.6 0.1-0.6 1zm-25.1 5c1.6 2.1 6.3 4.7 8.3 4.7 0.7-0.1-0.3-0.8-2.2-1.6-1.9-0.8-4.3-2.3-5.5-3.2-1.9-1.6-1.9-1.6-0.6 0.1z"/><path d="m100.2 15c0 1.9 0.2 2.7 0.5 1.7 0.2-0.9 0.2-2.5 0-3.5-0.3-0.9-0.5-0.1-0.5 1.8zm1 258.5c0 1.6 0.2 2.2 0.5 1.2 0.2-0.9 0.2-2.3 0-3-0.3-0.6-0.5 0.1-0.5 1.8zm-1 483.5c0 1.9 0.2 2.7 0.5 1.7 0.2-0.9 0.2-2.5 0-3.5-0.3-0.9-0.5-0.1-0.5 1.8z" fill="rgb(128, 128, 128)"/><path d="m86.3 1.7c0.9 0.2 2.3 0.2 3 0 0.6-0.3-0.1-0.5-1.8-0.5-1.6 0-2.2 0.2-1.2 0.5zm60.2 300.3c1 1.1 2 2 2.3 2 0.3 0-0.3-0.9-1.3-2-1-1.1-2-2-2.3-2-0.3 0 0.3 0.9 1.3 2zm25.6 54.6c0 1.1 0.3 1.4 0.6 0.6 0.3-0.7 0.2-1.6-0.1-1.9-0.3-0.4-0.6 0.2-0.5 1.3zm-170.8 4.4c0 3 0.2 4.3 0.4 2.7 0.2-1.5 0.2-3.9 0-5.5-0.2-1.5-0.4-0.2-0.4 2.8z" fill="rgb(170, 170, 170)"/><path d="m78.3 4.2c-1.8 1.3-3.7 3.6-4.3 5.2-0.7 1.9-1 47.4-1 135.7v132.9l-2.7 0.5c-34.1 7.3-59.3 32.5-66.8 66.8-2.7 12.5-1.8 29.5 2.4 41.7 3.2 9.4 8.8 20.9 11.6 23.7 0.8 0.8 1.5 1.7 1.5 2.1 0 1.2 7.2 8.5 14.1 14.3 10.5 8.9 20.8 14.1 35.7 17.9l4.2 1.1v157.5c0 134.8 0.2 158 1.4 160.9 1.8 4.3 6.9 7.5 12 7.5 4.7 0 11-3.4 12.5-6.7 0.8-1.7 1.1-47.4 1.1-160.7v-158.3l5.8-1.2c26.9-5.9 50.4-26.4 60.7-53 4.1-10.7 5.5-18.4 5.5-31.7 0-20.7-7.7-39.2-23.5-56.2-9.9-10.7-29.5-22.1-42.5-24.5l-6-1.2v-267.9l-2.2-3.3c-3.9-5.7-13.6-7.2-19.5-3.1zm19.3 303.9c19.4 3.5 37.7 20.8 42.8 40.5 6.6 25.6-5.7 51.1-30.1 62.6-8.4 4-9.3 4.2-20.4 4.6-13.3 0.5-19.2-0.8-30-6.4-16.8-8.9-27.3-27-27.3-47.4 0-15.4 5.4-28.3 16.3-39 13.4-13.2 30.1-18.3 48.7-14.9z" fill="rgb(255, 255, 255)"/><path d="m21.9 306.7c-1.3 1.6-1.2 1.7 0.4 0.4 0.9-0.7 1.7-1.5 1.7-1.7 0-0.8-0.8-0.3-2.1 1.3zm10.3 52.8c0 1.6 0.2 2.2 0.5 1.2 0.2-0.9 0.2-2.3 0-3-0.3-0.6-0.5 0.1-0.5 1.8zm140 5c0 1.6 0.2 2.2 0.5 1.2 0.2-0.9 0.2-2.3 0-3-0.3-0.6-0.5 0.1-0.5 1.8zm-140 0.5c0 1.4 0.2 1.9 0.5 1.2 0.2-0.6 0.2-1.8 0-2.5-0.3-0.6-0.5-0.1-0.5 1.3z" fill="rgb(212, 212, 212)"/><path d="m101.1 240.6c0 1.1 0.3 1.4 0.6 0.6 0.3-0.7 0.2-1.6-0.1-1.9-0.3-0.4-0.6 0.2-0.5 1.3z" fill="rgb(85, 85, 128)"/></svg>