<svg xmlns="http://www.w3.org/2000/svg" viewBox="0 0 473 542" width="32" height="32"><path d="m11 1.6c-4.5 2-6.8 4.1-9.1 8.6-1.9 3.6-1.9 10.6-1.9 267.8 0 183.4 0.3 264 1 264 1 0 59.2-23.1 182.1-72.1l52.5-21 40 15.9c21.9 8.7 44.6 17.7 50.4 20 5.8 2.2 19.1 7.4 29.5 11.5 10.5 4.1 27.3 10.7 37.5 14.7 10.2 4 32.1 12.6 48.8 19.1 16.6 6.5 30.4 11.9 30.7 11.9 0.3 0 0.5-118.7 0.5-263.8v-263.8l-2.2-4.4c-1.8-3.4-3.5-5.1-7.7-7.2l-5.3-2.8h-221.7c-195.1 0.1-222 0.3-225.1 1.6zm452.9 2.7c2.7 1.8 5 4.4 6.2 7 1.8 4.1 1.9 11 1.9 266.8v262.7l-25.2-10c-24-9.4-40.3-15.8-103.3-40.5-14.8-5.8-44.5-17.5-66-26.1-21.4-8.5-39.8-15.7-40.7-15.9-0.9-0.3-28.2 10.1-60.5 23-32.3 13-82.2 32.8-110.8 44.2-28.6 11.3-54.6 21.7-57.8 23-3.2 1.4-6 2.5-6.3 2.5-0.2 0-0.3-118.9-0.2-264.3l0.3-264.4 2.9-3.7c1.6-2.1 4.7-4.7 7-5.7 4-1.8 10.9-1.9 226.2-1.6l222 0.2z"/><path d="m27 263.9v237.8l67.3-26c36.9-14.2 76.7-29.5 88.2-33.8 11.6-4.4 27.9-10.7 36.3-14.1l15.3-6.1 6.7 2.6c32.1 12.2 86.1 32.7 100.7 38.4 9.9 3.9 25.2 9.7 34 13.1 8.8 3.3 27.8 10.6 42.3 16.1 14.5 5.6 26.7 10.1 27.3 10.1 0.5 0 0.9-89.4 0.9-238v-238h-419zm417 0.1v237l-5.2-2.1c-2.9-1.2-21.7-8.4-41.8-16.1-20.1-7.6-43.5-16.6-52-19.9-8.5-3.3-25.6-9.9-38-14.5-12.4-4.7-33.7-12.9-47.4-18.1-22.2-8.5-25.2-9.4-28-8.5-1.7 0.5-17.3 6.5-34.6 13.2-17.3 6.7-40.3 15.5-51 19.6-10.7 4.2-24 9.3-29.5 11.4-19.4 7.5-60.1 23.3-72.5 28-6.9 2.6-13.3 5.1-14.2 5.5-1.7 0.7-1.8-11-1.8-235.9v-236.6h416z"/><path d="m88 133v16h297v-32h-297zm296 0v15h-295v-30h295zm-296 90.5v15.5h297v-31h-297zm296 0v14.5h-295v-29h295zm-296 84.5v16h297v-32h-297zm296 0v15h-295v-30h295z"/><path d="m471.3 27.5c0 2.7 0.2 3.8 0.4 2.2 0.2-1.5 0.2-3.7 0-5-0.2-1.2-0.4 0-0.4 2.8zm-87.9 195.5c0 6.9 0.1 9.7 0.3 6.2 0.2-3.4 0.2-9 0-12.5-0.2-3.4-0.3-0.6-0.3 6.3zm0 85c0 7.4 0.1 10.5 0.3 6.7 0.2-3.7 0.2-9.7 0-13.5-0.2-3.7-0.3-0.6-0.3 6.8z" fill="rgb(128, 128, 128)"/><path d="m17.3 1.7c0.9 0.2 2.3 0.2 3 0 0.6-0.3-0.1-0.5-1.8-0.5-1.6 0-2.2 0.2-1.2 0.5zm436.5 0c0.7 0.3 1.6 0.2 1.9-0.1 0.4-0.3-0.2-0.6-1.3-0.5-1.1 0-1.4 0.3-0.6 0.6zm-362.5 117c1.5 0.2 3.7 0.2 5 0 1.2-0.2 0-0.4-2.8-0.4-2.7 0-3.8 0.2-2.2 0.4zm27.5 0c1.2 0.2 3.2 0.2 4.5 0 1.2-0.2 0.2-0.4-2.3-0.4-2.5 0-3.5 0.2-2.2 0.4zm256.5 0c0.9 0.2 2.3 0.2 3 0 0.6-0.3-0.1-0.5-1.8-0.5-1.6 0-2.2 0.2-1.2 0.5zm-212.5 29c40.4 0.2 106.1 0.2 146 0 40-0.1 7-0.2-73.3-0.2-80.3 0-113 0.1-72.7 0.2zm2 90c39.7 0.2 104.7 0.2 144.5 0 39.7-0.1 7.2-0.2-72.3-0.2-79.5 0-112 0.1-72.2 0.2zm-64 85c0.7 0.3 1.6 0.2 1.9-0.1 0.4-0.3-0.2-0.6-1.3-0.5-1.1 0-1.4 0.3-0.6 0.6zm60 0c0.7 0.3 1.6 0.2 1.9-0.1 0.4-0.3-0.2-0.6-1.3-0.5-1.1 0-1.4 0.3-0.6 0.6zm47 0c0.7 0.3 1.6 0.2 1.9-0.1 0.4-0.3-0.2-0.6-1.3-0.5-1.1 0-1.4 0.3-0.6 0.6zm23.5 0c1.5 0.2 3.7 0.2 5 0 1.2-0.2 0-0.4-2.8-0.4-2.7 0-3.8 0.2-2.2 0.4zm32.5 0c0.6 0.2 1.8 0.2 2.5 0 0.6-0.3 0.1-0.5-1.3-0.5-1.4 0-1.9 0.2-1.2 0.5zm34 0c0.7 0.3 1.6 0.2 1.9-0.1 0.4-0.3-0.2-0.6-1.3-0.5-1.1 0-1.4 0.3-0.6 0.6zm4 0c0.7 0.3 1.6 0.2 1.9-0.1 0.4-0.3-0.2-0.6-1.3-0.5-1.1 0-1.4 0.3-0.6 0.6zm8 0c0.7 0.3 1.6 0.2 1.9-0.1 0.4-0.3-0.2-0.6-1.3-0.5-1.1 0-1.4 0.3-0.6 0.6zm19 0c1.2 0.2 3 0.2 4 0 0.9-0.3-0.1-0.5-2.3-0.4-2.2 0-3 0.2-1.7 0.4zm14 0c1.2 0.2 3.2 0.2 4.5 0 1.2-0.2 0.2-0.4-2.3-0.4-2.5 0-3.5 0.2-2.2 0.4zm9 0c0.6 0.2 1.8 0.2 2.5 0 0.6-0.3 0.1-0.5-1.3-0.5-1.4 0-1.9 0.2-1.2 0.5zm119.3 213.9c0 1.1 0.3 1.4 0.6 0.6 0.3-0.7 0.2-1.6-0.1-1.9-0.3-0.4-0.6 0.2-0.5 1.3z" fill="rgb(212, 212, 212)"/><path d="m128.8 1.7c59.5 0.2 156.9 0.2 216.5 0 59.5-0.1 10.8-0.2-108.3-0.2-119.1 0-167.8 0.1-108.2 0.2zm342.5 17.8c0 2.2 0.2 3 0.4 1.7 0.2-1.2 0.2-3 0-4-0.3-0.9-0.5 0.1-0.4 2.3zm-0.1 21.5c0 1.4 0.2 1.9 0.5 1.2 0.2-0.6 0.2-1.8 0-2.5-0.3-0.6-0.5-0.1-0.5 1.3zm0.3 247c0 134.5 0.1 189.5 0.2 122.2 0.2-67.2 0.2-177.2 0-244.5-0.1-67.2-0.2-12.2-0.2 122.3zm-88.4-51.4c0 1.1 0.3 1.4 0.6 0.6 0.3-0.7 0.2-1.6-0.1-1.9-0.3-0.4-0.6 0.2-0.5 1.3z" fill="rgb(170, 170, 170)"/><path d="m8.8 4.5c-2 1.3-4.5 4.4-5.7 6.8l-2.1 4.3 0.2 262.6 0.3 262.5 19.5-7.9c10.7-4.3 24-9.6 29.5-11.7 10.7-4.1 56-22.2 135.6-54.1l49.5-19.9 32 12.8c42 16.8 68.6 27.3 130.9 51.6 40.4 15.7 68.1 26.7 70.5 27.9l2.5 1.2-0.2-132.3c-0.2-72.8-0.4-191.9-0.5-264.7l-0.3-132.5-3-3.1c-1.6-1.8-4.2-3.8-5.7-4.6-2.3-1.2-35.7-1.4-226-1.4h-223.3zm437.2 260c0 131.2-0.2 238.5-0.4 238.5-0.2 0-3.7-1.3-7.7-2.9-9.7-3.8-14-5.5-54.9-21.1-19-7.2-38.3-14.6-43-16.5-4.7-1.8-13.4-5.2-19.5-7.5-6-2.3-14.4-5.4-18.5-7-4.1-1.6-16.9-6.5-28.5-10.8-11.5-4.4-25.1-9.6-30.1-11.6l-9.2-3.5-11.3 4.6c-6.3 2.5-20.2 7.8-30.9 11.8-10.7 4-29.4 11.2-41.5 15.9-12.1 4.8-27.2 10.6-33.5 13.1-56.2 21.6-69.9 26.9-78.9 30.4-5.8 2.3-10.6 4.1-10.8 4.1-0.2 0-0.3-107.1-0.3-238v-238h419z" fill="rgb(255, 255, 255)"/><path d="m94.3 118.8l-5.3 0.3v28.4h294v-29.3l-141.7 0.1c-78 0.1-144.2 0.3-147 0.5zm-5.3 104.5v14.2h294v-28.3h-147l-147-0.1zm0 84.9v14.3h294v-28.5h-294z" fill="rgb(255, 255, 255)"/><path d="m150.8 322.7c0.7 0.3 1.6 0.2 1.9-0.1 0.4-0.3-0.2-0.6-1.3-0.5-1.1 0-1.4 0.3-0.6 0.6z" fill="rgb(255, 255, 212)"/><path d="m167.8 322.7c0.7 0.3 1.6 0.2 1.9-0.1 0.4-0.3-0.2-0.6-1.3-0.5-1.1 0-1.4 0.3-0.6 0.6zm10 0c0.7 0.3 1.6 0.2 1.9-0.1 0.4-0.3-0.2-0.6-1.3-0.5-1.1 0-1.4 0.3-0.6 0.6z" fill="rgb(212, 255, 255)"/><path d="m383.2 140c0 1.9 0.2 2.7 0.5 1.7 0.2-0.9 0.2-2.5 0-3.5-0.3-0.9-0.5-0.1-0.5 1.8zm-218.4 153.7c39.7 0.2 104.7 0.2 144.5 0 39.7-0.1 7.2-0.2-72.3-0.2-79.5 0-112 0.1-72.2 0.2z" fill="rgb(85, 85, 85)"/></svg>