<svg xmlns="http://www.w3.org/2000/svg" viewBox="0 0 423 391" width="32" height="32"><path d="m157.5 1.1c-27.8 2.9-59.4 14.5-84 30.8-33.1 21.9-58.5 57.1-68 94.1-4.6 17.9-5.5 25.9-5.3 47.4l0.2 20.1 0.6-23c0.6-19.7 1.1-24.8 3.4-35.5 7-31.9 20.7-57 43.6-80.1 14.2-14.2 21.8-20.2 37.2-28.9 28.4-16.1 53.8-23.3 88.8-24.9l16.5-0.8h-12.5c-6.9 0-16.1 0.3-20.5 0.8zm40.5 1c19 2.2 32.9 5.9 51 13.6 49.9 21.3 85.8 62.8 99 114.3 7.6 29.6 6.5 67.1-2.7 96.5-3.1 10.1-12.6 30-18.7 39.4-2.5 3.9-4.6 7.7-4.6 8.4 0 0.7 0.7-0.1 1.6-1.8 0.8-1.6 2.1-3.7 2.8-4.5 2.6-3.2 9.7-16.1 13.4-24.6 9.6-21.8 13.2-38.5 13.9-65.1 0.6-20.1-0.8-33.9-5.2-50.9-6.1-23.3-18.8-47.3-35.3-66.7-13.3-15.6-37.1-33.6-56.9-42.9-20.5-9.6-48.6-17.1-62.1-16.7-2.1 0.1-0.5 0.5 3.8 1zm-27.2 27.6c3.9 0.2 10.5 0.2 14.5 0 3.9-0.1 0.7-0.3-7.3-0.3-8 0-11.2 0.2-7.2 0.3z"/><path d="m146 32.1c-67.8 15.3-114.6 68.6-117.7 133.9-0.9 19.4 3.6 46.1 10.4 61.2 3.7 8.4 3.9 6.5 0.2-2.7-8.7-21.9-11.9-48.7-8.4-71.5 4.8-32 19.1-59.2 43-81.7 21.4-20.3 48.8-34.1 78.2-39.2 6.1-1.1 9.1-1.9 6.8-1.9-2.2 0-7.8 0.8-12.5 1.9zm49-1.4c1.4 0.2 6.3 1 11 1.8 34.2 5.7 71.4 29.8 93.2 60.6 29.4 41.3 33.5 97.9 10.3 143.9-7.5 14.8-14.1 23.7-27.4 37.1-16.2 16.2-32.7 26.9-53.6 34.5-10.4 3.8-10.2 4.6 0.2 1 33.6-11.4 67.2-41.4 82.6-73.6 22.8-47.8 18.3-102.1-12.1-145-11-15.4-33.7-35.2-52.2-45.2-14.5-8-40.4-16-50.5-15.7q-3.9 0.1-1.5 0.6z"/><path d="m162 131v31h-65v27h65v63h28v-63h64v-27h-64v-62h-28zm27 1v31h64v25h-64v63h-26v-63h-65v-25h65v-62h26zm-187.9 65.1c-0.2 6.8 4.6 27 9.4 39.4 10.2 26.7 27.5 51.2 48.3 68.5 32.8 27.4 69.4 41.8 110.4 43.4l12.3 0.5-15.5-1.4c-8.5-0.8-20.2-2.4-25.9-3.6-49-9.9-93.4-41.7-117-83.6-10-17.8-17.3-38.2-20.1-56.3-1.7-10.6-1.8-10.9-1.9-6.9z"/><path d="m42 234.4c0 0.4 1.2 3 2.6 5.9 12.4 24.4 37.9 49.3 63.9 62.1 10.4 5.2 27.7 11.7 30.6 11.5 0.8 0-3.5-1.7-9.6-3.8-19.7-6.6-36.4-16.2-51.7-29.8-13.4-12-22.3-22.9-30.2-37.3-4.8-8.6-5.6-9.9-5.6-8.6zm288.4 46.9c5.9 5.6 34.1 31.2 47.1 42.7 15 13.2 34.4 30.7 39.3 35.4 7.8 7.5 7.5 8.8-4.5 20.3-5.3 5.1-10.5 9.5-11.5 9.9-2.4 0.7-5.4-1.9-33.3-28.5-8.4-8.1-42-39.6-61.2-57.5l-5.3-4.9-4.6 3.9c-26.8 22.7-58.5 37.7-90.4 42.9-5.2 0.8-11.5 1.6-14 1.7-3.9 0.1-4.1 0.2-1.1 0.5 4.3 0.6 18.2-1.3 28.1-3.7 26.4-6.4 55.7-21.5 76.3-39.3l5.8-5 9.7 9.4c11.1 10.8 21.7 20.8 41.7 39.4 7.7 7.1 17.8 16.6 22.5 21 16.8 16 23.3 21.5 25.2 21.5 1.2 0 6.2-4.1 12.4-10.3 8.6-8.4 10.4-10.8 10.4-13.2 0-3.9-1.6-5.6-19-21.1-8-7.2-28-25.1-44.5-39.9-31.7-28.4-39-34.7-29.1-25.2zm-116.9 31.8c-14.3 4.4-45.3 5.7-62.4 2.6-5.2-1-9.6-1.6-9.8-1.4-0.6 0.6 10.2 2.6 21.2 3.8 15.8 1.8 44.3-0.9 54.7-5 3-1.2 0.2-1.2-3.7 0z"/><path d="m59 263.4c0 0.2 0.8 1 1.8 1.7 1.5 1.3 1.6 1.2 0.3-0.4-1.3-1.6-2.1-2.1-2.1-1.3zm303 47c0 0.2 0.8 1 1.8 1.7 1.5 1.3 1.6 1.2 0.3-0.4-1.3-1.6-2.1-2.1-2.1-1.3zm-194.2 7.3c0.7 0.3 1.6 0.2 1.9-0.1 0.4-0.3-0.2-0.6-1.3-0.5-1.1 0-1.4 0.3-0.6 0.6zm243.2 36.7c0 0.2 0.8 1 1.8 1.7 1.5 1.3 1.6 1.2 0.3-0.4-1.3-1.6-2.1-2.1-2.1-1.3z" fill="rgb(85, 85, 85)"/><path d="m297 46.4c0 0.2 0.8 1 1.8 1.7 1.5 1.3 1.6 1.2 0.3-0.4-1.3-1.6-2.1-2.1-2.1-1.3z" fill="rgb(128, 128, 128)"/><path d="m169.8 1.7c0.7 0.3 1.6 0.2 1.9-0.1 0.4-0.3-0.2-0.6-1.3-0.5-1.1 0-1.4 0.3-0.6 0.6zm16 0c0.7 0.3 1.6 0.2 1.9-0.1 0.4-0.3-0.2-0.6-1.3-0.5-1.1 0-1.4 0.3-0.6 0.6zm2.5 105.3c0 3 0.2 4.3 0.4 2.7 0.2-1.5 0.2-3.9 0-5.5-0.2-1.5-0.4-0.2-0.4 2.8zm0 14c0 3 0.2 4.3 0.4 2.7 0.2-1.5 0.2-3.9 0-5.5-0.2-1.5-0.4-0.2-0.4 2.8zm0 10.5c0 2.2 0.2 3 0.4 1.7 0.2-1.2 0.2-3 0-4-0.3-0.9-0.5 0.1-0.4 2.3zm-0.2 6.1c0 1.1 0.3 1.4 0.6 0.6 0.3-0.7 0.2-1.6-0.1-1.9-0.3-0.4-0.6 0.2-0.5 1.3zm0.1 5.4c0 1.9 0.2 2.7 0.5 1.7 0.2-0.9 0.2-2.5 0-3.5-0.3-0.9-0.5-0.1-0.5 1.8zm0.1 9c0 2.5 0.2 3.5 0.4 2.2 0.2-1.2 0.2-3.2 0-4.5-0.2-1.2-0.4-0.2-0.4 2.3zm64.1 21.5c0 6 0.1 8.4 0.3 5.2 0.2-3.2 0.2-8.1 0-11-0.2-2.9-0.3-0.3-0.3 5.8zm-64.2 24.5c0 1.9 0.2 2.7 0.5 1.7 0.2-0.9 0.2-2.5 0-3.5-0.3-0.9-0.5-0.1-0.5 1.8zm-0.1 5.6c0 1.1 0.3 1.4 0.6 0.6 0.3-0.7 0.2-1.6-0.1-1.9-0.3-0.4-0.6 0.2-0.5 1.3zm0.2 18.9c0 2.2 0.2 3 0.4 1.7 0.2-1.2 0.2-3 0-4-0.3-0.9-0.5 0.1-0.4 2.3zm-0.1 14.5c0 1.4 0.2 1.9 0.5 1.2 0.2-0.6 0.2-1.8 0-2.5-0.3-0.6-0.5-0.1-0.5 1.3zm114.8 63.4c0 0.2 0.8 1 1.8 1.7 1.5 1.3 1.6 1.2 0.3-0.4-1.3-1.6-2.1-2.1-2.1-1.3zm80 29c0 0.2 0.8 1 1.8 1.7 1.5 1.3 1.6 1.2 0.3-0.4-1.3-1.6-2.1-2.1-2.1-1.3zm32.9 46.3c-1.3 1.6-1.2 1.7 0.4 0.4 0.9-0.7 1.7-1.5 1.7-1.7 0-0.8-0.8-0.3-2.1 1.3z" fill="rgb(170, 170, 170)"/><path d="m174.3 1.7c1.5 0.2 3.9 0.2 5.5 0 1.5-0.2 0.2-0.4-2.8-0.4-3 0-4.3 0.2-2.7 0.4zm-96.4 63c-1.3 1.6-1.2 1.7 0.4 0.4 1.6-1.3 2.1-2.1 1.3-2.1-0.2 0-1 0.8-1.7 1.7zm202.1 4.7c0 0.2 0.8 1 1.8 1.7 1.5 1.3 1.6 1.2 0.3-0.4-1.3-1.6-2.1-2.1-2.1-1.3zm-252.9 101.2c0 1.1 0.3 1.4 0.6 0.6 0.3-0.7 0.2-1.6-0.1-1.9-0.3-0.4-0.6 0.2-0.5 1.3zm225 16c0 1.1 0.3 1.4 0.6 0.6 0.3-0.7 0.2-1.6-0.1-1.9-0.3-0.4-0.6 0.2-0.5 1.3zm-63.9 5.9c0 1.6 0.2 2.2 0.5 1.2 0.2-0.9 0.2-2.3 0-3-0.3-0.6-0.5 0.1-0.5 1.8zm0.1 17c0 2.2 0.2 3 0.4 1.7 0.2-1.2 0.2-3 0-4-0.3-0.9-0.5 0.1-0.4 2.3zm-0.2 32.1c0 1.1 0.3 1.4 0.6 0.6 0.3-0.7 0.2-1.6-0.1-1.9-0.3-0.4-0.6 0.2-0.5 1.3zm0.2 5.9c0 2.2 0.2 3 0.4 1.7 0.2-1.2 0.2-3 0-4-0.3-0.9-0.5 0.1-0.4 2.3zm-120.3 25.9c0 0.2 0.8 1 1.8 1.7 1.5 1.3 1.6 1.2 0.3-0.4-1.3-1.6-2.1-2.1-2.1-1.3zm258 5c0 0.2 0.8 1 1.8 1.7 1.5 1.3 1.6 1.2 0.3-0.4-1.3-1.6-2.1-2.1-2.1-1.3zm-279 14c0 0.2 0.8 1 1.8 1.7 1.5 1.3 1.6 1.2 0.3-0.4-1.3-1.6-2.1-2.1-2.1-1.3zm5 5c0 0.2 0.8 1 1.8 1.7 1.5 1.3 1.6 1.2 0.3-0.4-1.3-1.6-2.1-2.1-2.1-1.3zm295 0c0 0.2 0.8 1 1.8 1.7 1.5 1.3 1.6 1.2 0.3-0.4-1.3-1.6-2.1-2.1-2.1-1.3zm39.5 81.6c1 1.1 2 2 2.3 2 0.3 0-0.3-0.9-1.3-2-1-1.1-2-2-2.3-2-0.3 0 0.3 0.9 1.3 2zm16.4 8.7c-1.3 1.6-1.2 1.7 0.4 0.4 0.9-0.7 1.7-1.5 1.7-1.7 0-0.8-0.8-0.3-2.1 1.3z" fill="rgb(212, 212, 212)"/><path d="m155 2.7c-16.9 2.1-39.2 8.6-54.1 15.6-39 18.3-66.6 44.8-83.3 79.8-6.8 14.1-9.7 23-13.2 39.5-2.6 11.9-2.8 14.7-2.8 35.4 0 17.1 0.4 24.7 1.7 31.7 6.6 35.4 22.6 66.2 47 90.3 25.9 25.7 56.2 41.8 92.7 49.2 10.1 2 14.4 2.3 34.5 2.3 25.9-0.1 35.5-1.5 55.4-8.1 22.2-7.4 48.2-22.4 63.7-36.6l4.3-4 10.8 10.4c40 38.3 85.8 80.3 87.8 80.6 1.8 0.2 4.7-2 12.4-9.4 11.7-11.2 12.2-12.7 6.4-18.1-6.9-6.4-58.4-52.7-64.2-57.7-3.1-2.6-7.8-6.9-10.6-9.5-3.8-3.5-19.5-17.4-22.4-19.7-0.2-0.2 1.8-3.6 4.4-7.6 5.9-8.8 15.3-28.5 19-39.3 12.5-37.4 10.6-84.5-5.1-121.6-19.5-46.3-56.6-79.4-107.9-96.2-17.3-5.7-25.2-6.9-50.5-7.2-12.4-0.1-24.1-0.1-26 0.2zm44.7 27.4c41.9 5 85.1 34.4 108.1 73.4 5.7 9.7 12.6 28 15.4 40.5 3 13.8 3.2 41.5 0.5 55.5-8.9 45.1-37.1 82.3-78.4 103.3-50.9 25.9-113.6 20.5-159.2-13.9-37.1-27.9-58-69.6-58.2-116.2-0.3-56.8 34-108 88.1-131.4 26.4-11.5 52.8-15 83.7-11.2z" fill="rgb(255, 255, 255)"/><path d="m163 131.7l0.1 30.8-32.5 0.3-32.6 0.2v25h65.5l-0.3 31.5-0.3 31.5h25.1v-63h64v-25h-64v-62h-25.1z" fill="rgb(255, 255, 255)"/></svg>